<svg xmlns="http://www.w3.org/2000/svg" width="557.846" height="155.001" viewBox="0 0 557.846 155.001">
  <g id="Grupo_131812" data-name="Grupo 131812" transform="translate(-829 -1406.033)">
    <path id="Trazado_191434" data-name="Trazado 191434" d="M35.775,0H0" transform="translate(1272.823 1483.779)" fill="none" stroke="#707070" stroke-width="1"/>
    <path id="Trazado_191435" data-name="Trazado 191435" d="M0,0V14.684" transform="translate(1348.003 1496.057)" fill="none" stroke="#707070" stroke-width="1"/>
    <path id="Trazado_191436" data-name="Trazado 191436" d="M23.863,0H0" transform="translate(1233.251 1450.609) rotate(-90)" fill="none" stroke="#707070" stroke-width="1"/>
    <path id="Trazado_191437" data-name="Trazado 191437" d="M5.537,0l5.537,9.492H0Z" transform="translate(1238.955 1457.334) rotate(180)" fill="#707070"/>
    <path id="Trazado_191438" data-name="Trazado 191438" d="M24.9,0H0" transform="translate(1233.251 1523.197) rotate(-90)" fill="none" stroke="#707070" stroke-width="1"/>
    <path id="Trazado_191439" data-name="Trazado 191439" d="M5.537,0l5.537,9.492H0Z" transform="translate(1238.955 1529.922) rotate(180)" fill="#707070"/>
    <g id="Trazado_191440" data-name="Trazado 191440" transform="translate(829 1410.034)" fill="#fff">
      <path d="M 314 150 L 11 150 C 5.486000061035156 150 1 145.5140075683594 1 140 L 1 11 C 1 5.486000061035156 5.486000061035156 1 11 1 L 314 1 C 319.5140075683594 1 324 5.486000061035156 324 11 L 324 140 C 324 145.5140075683594 319.5140075683594 150 314 150 Z" stroke="none"/>
      <path d="M 11 2 C 6.037384033203125 2 2 6.037368774414062 2 11 L 2 140 C 2 144.9626312255859 6.037384033203125 149 11 149 L 314 149 C 318.9626159667969 149 323 144.9626312255859 323 140 L 323 11 C 323 6.037368774414062 318.9626159667969 2 314 2 L 11 2 M 11 0 L 314 0 C 320.0751342773438 0 325 4.924880981445312 325 11 L 325 140 C 325 146.0751190185547 320.0751342773438 151 314 151 L 11 151 C 4.92486572265625 151 0 146.0751190185547 0 140 L 0 11 C 0 4.924880981445312 4.92486572265625 0 11 0 Z" stroke="none" fill="#707070"/>
    </g>
    <path id="Trazado_191441" data-name="Trazado 191441" d="M0,0H325V45H0Z" transform="translate(829 1406.034)" fill="#fdb32b"/>
    <path id="Trazado_191442" data-name="Trazado 191442" d="M0,0V108.633" transform="translate(1010.988 1451.034)" fill="none" stroke="#707070" stroke-linecap="round" stroke-width="2"/>
    <path id="Trazado_116256" data-name="Trazado 116256" d="M5.369,0H154.631A5.194,5.194,0,0,1,160,5V38a5.194,5.194,0,0,1-5.369,5H5.369A5.194,5.194,0,0,1,0,38V5A5.194,5.194,0,0,1,5.369,0Z" transform="translate(839 1406.033)" fill="#ffb30b"/>
    <path id="Trazado_191443" data-name="Trazado 191443" d="M1.016,0V-11.375h3.5A5.315,5.315,0,0,1,7.2-10.7,4.712,4.712,0,0,1,9.047-8.777a5.928,5.928,0,0,1,.664,2.832v.523A5.945,5.945,0,0,1,9.059-2.6,4.672,4.672,0,0,1,7.219-.687,5.355,5.355,0,0,1,4.539,0ZM3.359-9.477v7.594H4.492a2.545,2.545,0,0,0,2.1-.9,4.06,4.06,0,0,0,.742-2.57v-.6a4.124,4.124,0,0,0-.719-2.629,2.537,2.537,0,0,0-2.1-.895ZM13.648,0H11.383V-8.453h2.266Zm-2.4-10.641a1.112,1.112,0,0,1,.34-.836,1.277,1.277,0,0,1,.926-.328,1.28,1.28,0,0,1,.922.328,1.105,1.105,0,0,1,.344.836,1.108,1.108,0,0,1-.348.844,1.283,1.283,0,0,1-.918.328A1.283,1.283,0,0,1,11.6-9.8,1.108,1.108,0,0,1,11.25-10.641ZM20.406,0a2.507,2.507,0,0,1-.227-.758,2.732,2.732,0,0,1-2.133.914,3,3,0,0,1-2.059-.719,2.312,2.312,0,0,1-.816-1.812,2.389,2.389,0,0,1,1-2.062,4.915,4.915,0,0,1,2.879-.727h1.039v-.484a1.393,1.393,0,0,0-.3-.937,1.183,1.183,0,0,0-.949-.352,1.345,1.345,0,0,0-.895.273.929.929,0,0,0-.324.75H15.359a2.268,2.268,0,0,1,.453-1.359,3,3,0,0,1,1.281-.98,4.669,4.669,0,0,1,1.859-.355,3.689,3.689,0,0,1,2.48.785,2.747,2.747,0,0,1,.918,2.207v3.664a4.041,4.041,0,0,0,.336,1.82V0ZM18.539-1.57a1.945,1.945,0,0,0,.922-.223,1.462,1.462,0,0,0,.625-.6V-3.844h-.844q-1.7,0-1.8,1.172l-.008.133a.9.9,0,0,0,.3.7A1.153,1.153,0,0,0,18.539-1.57Zm5.219-2.719a4.954,4.954,0,0,1,.926-3.133,3,3,0,0,1,2.5-1.187,2.631,2.631,0,0,1,2.164.953l.094-.8h2.047V-.281a3.613,3.613,0,0,1-.5,1.93A3.236,3.236,0,0,1,29.563,2.9a4.985,4.985,0,0,1-2.141.43,4.635,4.635,0,0,1-1.812-.371A3.217,3.217,0,0,1,24.273,2l1-1.375a2.645,2.645,0,0,0,2.047.945,1.936,1.936,0,0,0,1.4-.48,1.8,1.8,0,0,0,.5-1.363V-.727a2.612,2.612,0,0,1-2.055.883A2.992,2.992,0,0,1,24.7-1.035a4.953,4.953,0,0,1-.941-3.16Zm2.258.168a3.085,3.085,0,0,0,.461,1.8,1.466,1.466,0,0,0,1.266.653,1.568,1.568,0,0,0,1.477-.775V-6a1.564,1.564,0,0,0-1.461-.775,1.476,1.476,0,0,0-1.277.665A3.477,3.477,0,0,0,26.016-4.121ZM37.969-6.336a6.134,6.134,0,0,0-.812-.062,1.654,1.654,0,0,0-1.68.867V0H33.219V-8.453h2.133l.063,1.008A2.092,2.092,0,0,1,37.3-8.609a2.366,2.366,0,0,1,.7.1ZM43.719,0a2.507,2.507,0,0,1-.227-.758,2.732,2.732,0,0,1-2.133.914A3,3,0,0,1,39.3-.562a2.312,2.312,0,0,1-.816-1.812,2.389,2.389,0,0,1,1-2.062,4.915,4.915,0,0,1,2.879-.727H43.4v-.484a1.393,1.393,0,0,0-.3-.937,1.183,1.183,0,0,0-.949-.352,1.345,1.345,0,0,0-.895.273.929.929,0,0,0-.324.75H38.672a2.268,2.268,0,0,1,.453-1.359,3,3,0,0,1,1.281-.98,4.669,4.669,0,0,1,1.859-.355,3.689,3.689,0,0,1,2.48.785,2.747,2.747,0,0,1,.918,2.207v3.664A4.041,4.041,0,0,0,46-.133V0ZM41.852-1.57a1.945,1.945,0,0,0,.922-.223,1.462,1.462,0,0,0,.625-.6V-3.844h-.844q-1.7,0-1.8,1.172l-.008.133a.9.9,0,0,0,.3.7A1.153,1.153,0,0,0,41.852-1.57Zm7.664-6.883.07.945a2.971,2.971,0,0,1,2.43-1.1A2.255,2.255,0,0,1,54.258-7.32,2.9,2.9,0,0,1,56.8-8.609a2.521,2.521,0,0,1,2.047.8,3.681,3.681,0,0,1,.672,2.41V0H57.25V-5.391a1.61,1.61,0,0,0-.281-1.051,1.246,1.246,0,0,0-.992-.332A1.409,1.409,0,0,0,54.57-5.8L54.578,0H52.32V-5.383a1.59,1.59,0,0,0-.289-1.062,1.259,1.259,0,0,0-.984-.328,1.463,1.463,0,0,0-1.391.8V0H47.4V-8.453ZM66.148,0a2.507,2.507,0,0,1-.227-.758,2.732,2.732,0,0,1-2.133.914A3,3,0,0,1,61.73-.562a2.312,2.312,0,0,1-.816-1.812,2.389,2.389,0,0,1,1-2.062,4.915,4.915,0,0,1,2.879-.727h1.039v-.484a1.393,1.393,0,0,0-.3-.937,1.183,1.183,0,0,0-.949-.352,1.345,1.345,0,0,0-.895.273.929.929,0,0,0-.324.75H61.1a2.268,2.268,0,0,1,.453-1.359,3,3,0,0,1,1.281-.98A4.669,4.669,0,0,1,64.7-8.609a3.689,3.689,0,0,1,2.48.785,2.747,2.747,0,0,1,.918,2.207v3.664a4.041,4.041,0,0,0,.336,1.82V0ZM64.281-1.57a1.945,1.945,0,0,0,.922-.223,1.462,1.462,0,0,0,.625-.6V-3.844h-.844q-1.7,0-1.8,1.172l-.008.133a.9.9,0,0,0,.3.7A1.153,1.153,0,0,0,64.281-1.57Zm9.18-2.719a5.094,5.094,0,0,1,.887-3.148,2.877,2.877,0,0,1,2.426-1.172,2.589,2.589,0,0,1,2.039.922V-12h2.266V0H79.039L78.93-.9A2.657,2.657,0,0,1,76.758.156,2.869,2.869,0,0,1,74.363-1.02,5.258,5.258,0,0,1,73.461-4.289Zm2.258.168A3.337,3.337,0,0,0,76.133-2.3a1.349,1.349,0,0,0,1.2.634,1.511,1.511,0,0,0,1.477-.884V-5.889a1.489,1.489,0,0,0-1.461-.884Q75.719-6.773,75.719-4.121Zm11,4.277A4.15,4.15,0,0,1,83.691-.984a4.054,4.054,0,0,1-1.168-3.039v-.219a5.106,5.106,0,0,1,.492-2.277A3.612,3.612,0,0,1,84.41-8.066a3.914,3.914,0,0,1,2.059-.543A3.508,3.508,0,0,1,89.2-7.516a4.444,4.444,0,0,1,1,3.1v.922H84.813a2.1,2.1,0,0,0,.66,1.328,2,2,0,0,0,1.395.5,2.437,2.437,0,0,0,2.039-.945l1.109,1.242A3.389,3.389,0,0,1,88.641-.246,4.511,4.511,0,0,1,86.719.156Zm-.258-6.945a1.411,1.411,0,0,0-1.09.455,2.357,2.357,0,0,0-.535,1.3h3.141v-.181a1.681,1.681,0,0,0-.406-1.165A1.456,1.456,0,0,0,86.461-6.789Zm14.664-3.461a10.867,10.867,0,0,0-1.25-.078q-1.531,0-1.531,1.3v.57h1.68V-6.8h-1.68V0H96.078V-6.8H94.82V-8.453h1.258v-.656A2.888,2.888,0,0,1,97-11.371a3.769,3.769,0,0,1,2.563-.793q1.18,0,3.828.25V0h-2.266Zm9.2,9.391A2.831,2.831,0,0,1,108.016.156a2.67,2.67,0,0,1-2.074-.781,3.335,3.335,0,0,1-.73-2.289V-8.453h2.258v5.467q0,1.322,1.2,1.322a1.63,1.63,0,0,0,1.578-.8V-8.453h2.266V0h-2.125Zm6.281-7.594V.461a3.024,3.024,0,0,1-.742,2.176,2.821,2.821,0,0,1-2.141.777,4.591,4.591,0,0,1-1.117-.133V1.492a4.238,4.238,0,0,0,.711.07q1.023,0,1.023-1.086v-8.93Zm-2.445-2.187a1.112,1.112,0,0,1,.34-.836,1.277,1.277,0,0,1,.926-.328,1.277,1.277,0,0,1,.926.328,1.112,1.112,0,0,1,.34.836,1.108,1.108,0,0,1-.348.844,1.283,1.283,0,0,1-.918.328,1.283,1.283,0,0,1-.918-.328A1.108,1.108,0,0,1,114.164-10.641ZM118.023-4.3a5.013,5.013,0,0,1,.484-2.242A3.546,3.546,0,0,1,119.9-8.07a4.069,4.069,0,0,1,2.113-.539,3.849,3.849,0,0,1,2.793,1.047,4.2,4.2,0,0,1,1.207,2.844l.016.578a4.418,4.418,0,0,1-1.086,3.121A3.775,3.775,0,0,1,122.031.156a3.793,3.793,0,0,1-2.918-1.172,4.5,4.5,0,0,1-1.09-3.187Zm2.258.16a3.16,3.16,0,0,0,.453,1.843,1.5,1.5,0,0,0,1.3.638,1.5,1.5,0,0,0,1.281-.63,3.457,3.457,0,0,0,.461-2.015,3.128,3.128,0,0,0-.461-1.831,1.5,1.5,0,0,0-1.3-.649,1.474,1.474,0,0,0-1.281.646A3.516,3.516,0,0,0,120.281-4.144Z" transform="translate(854 1433.033)" fill="#12263f"/>
    <path id="Trazado_191444" data-name="Trazado 191444" d="M2.563,0H1.251V-9.953H2.563Zm3.4-7.4L6-6.467A2.7,2.7,0,0,1,8.217-7.533q2.345,0,2.365,2.646V0H9.317V-4.895a1.7,1.7,0,0,0-.366-1.183A1.466,1.466,0,0,0,7.834-6.46a1.825,1.825,0,0,0-1.08.328,2.228,2.228,0,0,0-.725.861V0H4.765V-7.4Zm7.9,7.4H12.6V-7.4h1.265ZM12.5-9.358a.755.755,0,0,1,.188-.52.706.706,0,0,1,.557-.212.717.717,0,0,1,.561.212.747.747,0,0,1,.191.52.722.722,0,0,1-.191.513.73.73,0,0,1-.561.205.718.718,0,0,1-.557-.205A.73.73,0,0,1,12.5-9.358ZM18.854-.9a1.822,1.822,0,0,0,1.183-.41A1.443,1.443,0,0,0,20.6-2.331h1.2a2.293,2.293,0,0,1-.437,1.21,2.881,2.881,0,0,1-1.077.916,3.107,3.107,0,0,1-1.425.342,3.047,3.047,0,0,1-2.4-1.008,4.016,4.016,0,0,1-.892-2.758v-.212a4.453,4.453,0,0,1,.4-1.921,3.02,3.02,0,0,1,1.138-1.306,3.233,3.233,0,0,1,1.753-.465,2.966,2.966,0,0,1,2.068.745,2.663,2.663,0,0,1,.878,1.935H20.6a1.743,1.743,0,0,0-.543-1.179,1.691,1.691,0,0,0-1.207-.461,1.77,1.77,0,0,0-1.494.694,3.259,3.259,0,0,0-.53,2.006v.239a3.194,3.194,0,0,0,.526,1.969A1.779,1.779,0,0,0,18.854-.9Zm5.735.9H23.324V-7.4h1.265ZM23.222-9.358a.755.755,0,0,1,.188-.52.706.706,0,0,1,.557-.212.717.717,0,0,1,.561.212.747.747,0,0,1,.191.52.722.722,0,0,1-.191.513.73.73,0,0,1-.561.205.718.718,0,0,1-.557-.205A.73.73,0,0,1,23.222-9.358Zm3.056,5.592A4.369,4.369,0,0,1,26.7-5.722a3.187,3.187,0,0,1,1.189-1.34,3.238,3.238,0,0,1,1.74-.472,3.119,3.119,0,0,1,2.444,1.046,4.024,4.024,0,0,1,.933,2.782v.089A4.407,4.407,0,0,1,32.6-1.678,3.14,3.14,0,0,1,31.415-.342a3.275,3.275,0,0,1-1.767.479A3.111,3.111,0,0,1,27.21-.909a4,4,0,0,1-.933-2.769Zm1.271.15a3.164,3.164,0,0,0,.571,1.976A1.827,1.827,0,0,0,29.647-.9a1.816,1.816,0,0,0,1.531-.755,3.46,3.46,0,0,0,.567-2.116,3.159,3.159,0,0,0-.578-1.972,1.836,1.836,0,0,0-1.535-.755,1.816,1.816,0,0,0-1.511.745A3.434,3.434,0,0,0,27.549-3.616Z" transform="translate(1038 1474.034)" fill="#12263f"/>
    <path id="Trazado_191445" data-name="Trazado 191445" d="M9.434,0H8.02L2.651-8.218V0H1.238V-10.664H2.651L8.035-2.41v-8.254h1.4ZM11.36-4.036a4.681,4.681,0,0,1,.458-2.095,3.415,3.415,0,0,1,1.274-1.436,3.469,3.469,0,0,1,1.864-.505,3.342,3.342,0,0,1,2.618,1.121,4.311,4.311,0,0,1,1,2.981v.1A4.722,4.722,0,0,1,18.131-1.8,3.365,3.365,0,0,1,16.864-.366a3.509,3.509,0,0,1-1.893.513A3.334,3.334,0,0,1,12.36-.974a4.29,4.29,0,0,1-1-2.966Zm1.362.161a3.39,3.39,0,0,0,.612,2.117,1.957,1.957,0,0,0,1.637.8,1.945,1.945,0,0,0,1.641-.809,3.707,3.707,0,0,0,.608-2.267A3.384,3.384,0,0,0,16.6-6.149a1.968,1.968,0,0,0-1.644-.809,1.946,1.946,0,0,0-1.619.8A3.68,3.68,0,0,0,12.722-3.875Z" transform="translate(1194 1516.034)" fill="#12263f"/>
    <path id="Trazado_191446" data-name="Trazado 191446" d="M4.088-4.437A6.172,6.172,0,0,1,1.63-5.629,2.279,2.279,0,0,1,.861-7.376,2.408,2.408,0,0,1,1.8-9.321a3.736,3.736,0,0,1,2.444-.769,4.078,4.078,0,0,1,1.829.4A3.007,3.007,0,0,1,7.318-8.6a2.8,2.8,0,0,1,.441,1.524H6.439A1.82,1.82,0,0,0,5.865-8.5a2.335,2.335,0,0,0-1.62-.518,2.391,2.391,0,0,0-1.514.428A1.428,1.428,0,0,0,2.188-7.4,1.285,1.285,0,0,0,2.7-6.37,5.062,5.062,0,0,0,4.46-5.6,8.152,8.152,0,0,1,6.4-4.83a2.946,2.946,0,0,1,1.039.981,2.5,2.5,0,0,1,.338,1.319A2.326,2.326,0,0,1,6.836-.591,4.022,4.022,0,0,1,4.313.137,4.678,4.678,0,0,1,2.4-.256,3.221,3.221,0,0,1,1.029-1.333,2.627,2.627,0,0,1,.547-2.885H1.866a1.714,1.714,0,0,0,.667,1.425,2.806,2.806,0,0,0,1.781.523A2.58,2.58,0,0,0,5.906-1.36,1.377,1.377,0,0,0,6.46-2.516a1.351,1.351,0,0,0-.513-1.131A5.911,5.911,0,0,0,4.088-4.437ZM10.637,0H9.372V-7.4h1.265ZM9.27-9.358a.755.755,0,0,1,.188-.52.706.706,0,0,1,.557-.212.717.717,0,0,1,.561.212.747.747,0,0,1,.191.52.722.722,0,0,1-.191.513.73.73,0,0,1-.561.205.718.718,0,0,1-.557-.205A.73.73,0,0,1,9.27-9.358Z" transform="translate(1267 1470.034)" fill="#12263f"/>
    <path id="Trazado_191447" data-name="Trazado 191447" d="M4.088-4.437A6.172,6.172,0,0,1,1.63-5.629,2.279,2.279,0,0,1,.861-7.376,2.408,2.408,0,0,1,1.8-9.321a3.736,3.736,0,0,1,2.444-.769,4.078,4.078,0,0,1,1.829.4A3.007,3.007,0,0,1,7.318-8.6a2.8,2.8,0,0,1,.441,1.524H6.439A1.82,1.82,0,0,0,5.865-8.5a2.335,2.335,0,0,0-1.62-.518,2.391,2.391,0,0,0-1.514.428A1.428,1.428,0,0,0,2.188-7.4,1.285,1.285,0,0,0,2.7-6.37,5.062,5.062,0,0,0,4.46-5.6,8.152,8.152,0,0,1,6.4-4.83a2.946,2.946,0,0,1,1.039.981,2.5,2.5,0,0,1,.338,1.319A2.326,2.326,0,0,1,6.836-.591,4.022,4.022,0,0,1,4.313.137,4.678,4.678,0,0,1,2.4-.256,3.221,3.221,0,0,1,1.029-1.333,2.627,2.627,0,0,1,.547-2.885H1.866a1.714,1.714,0,0,0,.667,1.425,2.806,2.806,0,0,0,1.781.523A2.58,2.58,0,0,0,5.906-1.36,1.377,1.377,0,0,0,6.46-2.516a1.351,1.351,0,0,0-.513-1.131A5.911,5.911,0,0,0,4.088-4.437ZM10.637,0H9.372V-7.4h1.265ZM9.27-9.358a.755.755,0,0,1,.188-.52.706.706,0,0,1,.557-.212.717.717,0,0,1,.561.212.747.747,0,0,1,.191.52.722.722,0,0,1-.191.513.73.73,0,0,1-.561.205.718.718,0,0,1-.557-.205A.73.73,0,0,1,9.27-9.358Zm7.7,4.956,4.279,1.729v1.34L15.661-3.924v-1l5.592-2.584v1.34ZM26.209-.9a1.822,1.822,0,0,0,1.183-.41,1.443,1.443,0,0,0,.561-1.025h1.2a2.293,2.293,0,0,1-.437,1.21,2.881,2.881,0,0,1-1.077.916,3.107,3.107,0,0,1-1.425.342,3.047,3.047,0,0,1-2.4-1.008,4.016,4.016,0,0,1-.892-2.758v-.212a4.453,4.453,0,0,1,.4-1.921,3.02,3.02,0,0,1,1.138-1.306A3.233,3.233,0,0,1,26.2-7.533a2.966,2.966,0,0,1,2.068.745,2.663,2.663,0,0,1,.878,1.935h-1.2a1.743,1.743,0,0,0-.543-1.179A1.691,1.691,0,0,0,26.2-6.494a1.77,1.77,0,0,0-1.494.694,3.259,3.259,0,0,0-.53,2.006v.239a3.194,3.194,0,0,0,.526,1.969A1.779,1.779,0,0,0,26.209-.9Zm4.026-2.871a4.369,4.369,0,0,1,.427-1.955,3.187,3.187,0,0,1,1.189-1.34,3.238,3.238,0,0,1,1.74-.472,3.119,3.119,0,0,1,2.444,1.046,4.024,4.024,0,0,1,.933,2.782v.089a4.407,4.407,0,0,1-.414,1.938A3.14,3.14,0,0,1,35.373-.342a3.275,3.275,0,0,1-1.767.479A3.111,3.111,0,0,1,31.168-.909a4,4,0,0,1-.933-2.769Zm1.271.15a3.164,3.164,0,0,0,.571,1.976A1.827,1.827,0,0,0,33.605-.9a1.816,1.816,0,0,0,1.531-.755A3.46,3.46,0,0,0,35.7-3.767a3.159,3.159,0,0,0-.578-1.972,1.836,1.836,0,0,0-1.535-.755,1.816,1.816,0,0,0-1.511.745A3.434,3.434,0,0,0,31.507-3.616ZM39.751-7.4l.041.93a2.7,2.7,0,0,1,2.215-1.066q2.345,0,2.365,2.646V0H43.107V-4.895a1.7,1.7,0,0,0-.366-1.183,1.466,1.466,0,0,0-1.118-.383,1.825,1.825,0,0,0-1.08.328,2.228,2.228,0,0,0-.725.861V0H38.555V-7.4ZM45.972-3.76A4.333,4.333,0,0,1,46.778-6.5a2.551,2.551,0,0,1,2.112-1.036,2.565,2.565,0,0,1,2.058.889V-10.5h1.265V0H51.051l-.062-.793a2.575,2.575,0,0,1-2.112.93,2.526,2.526,0,0,1-2.1-1.053,4.382,4.382,0,0,1-.81-2.748Zm1.265.144a3.281,3.281,0,0,0,.52,1.969,1.68,1.68,0,0,0,1.436.711,1.845,1.845,0,0,0,1.757-1.08v-3.4A1.859,1.859,0,0,0,49.205-6.46a1.687,1.687,0,0,0-1.449.718A3.612,3.612,0,0,0,47.236-3.616ZM55.549,0H54.284V-7.4h1.265ZM54.182-9.358a.755.755,0,0,1,.188-.52.706.706,0,0,1,.557-.212.717.717,0,0,1,.561.212.747.747,0,0,1,.191.52.722.722,0,0,1-.191.513.73.73,0,0,1-.561.205.718.718,0,0,1-.557-.205A.73.73,0,0,1,54.182-9.358ZM60.539-.9a1.822,1.822,0,0,0,1.183-.41,1.443,1.443,0,0,0,.561-1.025h1.2a2.293,2.293,0,0,1-.437,1.21,2.881,2.881,0,0,1-1.077.916,3.107,3.107,0,0,1-1.425.342,3.047,3.047,0,0,1-2.4-1.008,4.016,4.016,0,0,1-.892-2.758v-.212a4.453,4.453,0,0,1,.4-1.921,3.02,3.02,0,0,1,1.138-1.306,3.233,3.233,0,0,1,1.753-.465,2.966,2.966,0,0,1,2.068.745,2.663,2.663,0,0,1,.878,1.935h-1.2a1.743,1.743,0,0,0-.543-1.179,1.691,1.691,0,0,0-1.207-.461,1.77,1.77,0,0,0-1.494.694,3.259,3.259,0,0,0-.53,2.006v.239a3.194,3.194,0,0,0,.526,1.969A1.779,1.779,0,0,0,60.539-.9Zm5.735.9H65.01V-7.4h1.265ZM64.907-9.358a.755.755,0,0,1,.188-.52.706.706,0,0,1,.557-.212.717.717,0,0,1,.561.212.747.747,0,0,1,.191.52.722.722,0,0,1-.191.513.73.73,0,0,1-.561.205.718.718,0,0,1-.557-.205A.73.73,0,0,1,64.907-9.358Zm3.056,5.592a4.369,4.369,0,0,1,.427-1.955,3.187,3.187,0,0,1,1.189-1.34,3.238,3.238,0,0,1,1.74-.472,3.119,3.119,0,0,1,2.444,1.046A4.024,4.024,0,0,1,74.7-3.705v.089a4.407,4.407,0,0,1-.414,1.938A3.14,3.14,0,0,1,73.1-.342a3.275,3.275,0,0,1-1.767.479A3.111,3.111,0,0,1,68.9-.909a4,4,0,0,1-.933-2.769Zm1.271.15a3.164,3.164,0,0,0,.571,1.976A1.827,1.827,0,0,0,71.333-.9a1.816,1.816,0,0,0,1.531-.755,3.46,3.46,0,0,0,.567-2.116,3.159,3.159,0,0,0-.578-1.972,1.836,1.836,0,0,0-1.535-.755,1.816,1.816,0,0,0-1.511.745A3.434,3.434,0,0,0,69.234-3.616ZM71.894-10.5h1.531L71.593-8.49l-1.019,0Zm5.585,3.1.041.93a2.7,2.7,0,0,1,2.215-1.066q2.345,0,2.365,2.646V0H80.835V-4.895a1.7,1.7,0,0,0-.366-1.183,1.466,1.466,0,0,0-1.118-.383,1.825,1.825,0,0,0-1.08.328,2.228,2.228,0,0,0-.725.861V0H76.282V-7.4ZM88.484-4.443,83.966-6.214v-1.3L89.8-4.929v1L83.966-1.34V-2.652Z" transform="translate(1038 1502.034)" fill="#12263f"/>
    <path id="Trazado_191448" data-name="Trazado 191448" d="M1.8-4.4,6.084-2.673v1.34L.492-3.924v-1L6.084-7.506v1.34ZM12.64,0a2.657,2.657,0,0,1-.178-.779,2.822,2.822,0,0,1-2.105.916A2.611,2.611,0,0,1,8.562-.482a2,2,0,0,1-.7-1.569A2.091,2.091,0,0,1,8.74-3.845a4.142,4.142,0,0,1,2.471-.639h1.23v-.581a1.42,1.42,0,0,0-.4-1.056,1.593,1.593,0,0,0-1.169-.393,1.844,1.844,0,0,0-1.135.342,1.007,1.007,0,0,0-.458.827H8.012A1.745,1.745,0,0,1,8.4-6.416a2.683,2.683,0,0,1,1.066-.817,3.588,3.588,0,0,1,1.48-.3,2.924,2.924,0,0,1,2,.639,2.306,2.306,0,0,1,.752,1.76v3.4a4.162,4.162,0,0,0,.26,1.62V0Zm-2.1-.964a2.223,2.223,0,0,0,1.128-.308,1.861,1.861,0,0,0,.772-.8V-3.589H11.45q-2.324,0-2.324,1.36a1.151,1.151,0,0,0,.4.93A1.524,1.524,0,0,0,10.541-.964ZM18.655-.9a1.822,1.822,0,0,0,1.183-.41A1.443,1.443,0,0,0,20.4-2.331h1.2a2.293,2.293,0,0,1-.437,1.21,2.881,2.881,0,0,1-1.077.916,3.107,3.107,0,0,1-1.425.342,3.047,3.047,0,0,1-2.4-1.008A4.016,4.016,0,0,1,15.36-3.63v-.212a4.453,4.453,0,0,1,.4-1.921A3.02,3.02,0,0,1,16.9-7.068a3.233,3.233,0,0,1,1.753-.465,2.966,2.966,0,0,1,2.068.745,2.663,2.663,0,0,1,.878,1.935H20.4a1.743,1.743,0,0,0-.543-1.179,1.691,1.691,0,0,0-1.207-.461,1.77,1.77,0,0,0-1.494.694,3.259,3.259,0,0,0-.53,2.006v.239a3.194,3.194,0,0,0,.526,1.969A1.779,1.779,0,0,0,18.655-.9Zm7.328,0a1.822,1.822,0,0,0,1.183-.41,1.443,1.443,0,0,0,.561-1.025h1.2a2.293,2.293,0,0,1-.437,1.21,2.881,2.881,0,0,1-1.077.916,3.107,3.107,0,0,1-1.425.342,3.047,3.047,0,0,1-2.4-1.008,4.016,4.016,0,0,1-.892-2.758v-.212a4.453,4.453,0,0,1,.4-1.921,3.02,3.02,0,0,1,1.138-1.306,3.233,3.233,0,0,1,1.753-.465,2.966,2.966,0,0,1,2.068.745,2.663,2.663,0,0,1,.878,1.935h-1.2a1.743,1.743,0,0,0-.543-1.179,1.691,1.691,0,0,0-1.207-.461,1.77,1.77,0,0,0-1.494.694,3.259,3.259,0,0,0-.53,2.006v.239a3.194,3.194,0,0,0,.526,1.969A1.779,1.779,0,0,0,25.983-.9Zm5.735.9H30.454V-7.4h1.265ZM30.352-9.358a.755.755,0,0,1,.188-.52.706.706,0,0,1,.557-.212.717.717,0,0,1,.561.212.747.747,0,0,1,.191.52.722.722,0,0,1-.191.513.73.73,0,0,1-.561.205.718.718,0,0,1-.557-.205A.73.73,0,0,1,30.352-9.358Zm3.056,5.592a4.369,4.369,0,0,1,.427-1.955,3.187,3.187,0,0,1,1.189-1.34,3.238,3.238,0,0,1,1.74-.472,3.119,3.119,0,0,1,2.444,1.046,4.024,4.024,0,0,1,.933,2.782v.089a4.407,4.407,0,0,1-.414,1.938A3.14,3.14,0,0,1,38.544-.342a3.275,3.275,0,0,1-1.767.479A3.111,3.111,0,0,1,34.34-.909a4,4,0,0,1-.933-2.769Zm1.271.15a3.164,3.164,0,0,0,.571,1.976A1.827,1.827,0,0,0,36.777-.9a1.816,1.816,0,0,0,1.531-.755,3.46,3.46,0,0,0,.567-2.116A3.159,3.159,0,0,0,38.3-5.739a1.836,1.836,0,0,0-1.535-.755,1.816,1.816,0,0,0-1.511.745A3.434,3.434,0,0,0,34.679-3.616ZM37.338-10.5h1.531L37.037-8.49l-1.019,0Zm5.585,3.1.041.93a2.7,2.7,0,0,1,2.215-1.066q2.345,0,2.365,2.646V0H46.279V-4.895a1.7,1.7,0,0,0-.366-1.183A1.466,1.466,0,0,0,44.8-6.46a1.825,1.825,0,0,0-1.08.328,2.228,2.228,0,0,0-.725.861V0H41.727V-7.4ZM53.929-4.443,49.41-6.214v-1.3l5.838,2.584v1L49.41-1.34V-2.652ZM63.3.137a3.232,3.232,0,0,1-2.447-.988,3.666,3.666,0,0,1-.943-2.642v-.232a4.438,4.438,0,0,1,.42-1.965,3.28,3.28,0,0,1,1.176-1.354,2.956,2.956,0,0,1,1.637-.489,2.77,2.77,0,0,1,2.242.95,4.114,4.114,0,0,1,.8,2.721v.526H61.175a2.629,2.629,0,0,0,.639,1.767A2.009,2.009,0,0,0,63.369-.9,2.2,2.2,0,0,0,64.5-1.169a2.851,2.851,0,0,0,.813-.725l.772.6A3.106,3.106,0,0,1,63.3.137Zm-.157-6.631a1.687,1.687,0,0,0-1.285.557,2.708,2.708,0,0,0-.643,1.562h3.705v-.1a2.409,2.409,0,0,0-.52-1.494A1.588,1.588,0,0,0,63.144-6.494ZM69.022,0H67.758V-10.5h1.265Zm6.33-1.962a.931.931,0,0,0-.386-.8,3.718,3.718,0,0,0-1.347-.489A6.367,6.367,0,0,1,72.1-3.739a2.169,2.169,0,0,1-.834-.684,1.635,1.635,0,0,1-.27-.943A1.919,1.919,0,0,1,71.76-6.9a3,3,0,0,1,1.965-.629,3.091,3.091,0,0,1,2.041.649,2.063,2.063,0,0,1,.783,1.661H75.277a1.142,1.142,0,0,0-.441-.9,1.652,1.652,0,0,0-1.111-.376,1.729,1.729,0,0,0-1.08.3.947.947,0,0,0-.39.786.767.767,0,0,0,.362.69,4.458,4.458,0,0,0,1.309.444,6.821,6.821,0,0,1,1.535.506,2.239,2.239,0,0,1,.872.708,1.74,1.74,0,0,1,.284,1.008,1.893,1.893,0,0,1-.793,1.589,3.326,3.326,0,0,1-2.058.6,3.725,3.725,0,0,1-1.572-.314,2.557,2.557,0,0,1-1.07-.878,2.117,2.117,0,0,1-.386-1.22H72a1.309,1.309,0,0,0,.509,1.008A1.976,1.976,0,0,0,73.767-.9a2.039,2.039,0,0,0,1.152-.291A.893.893,0,0,0,75.353-1.962Zm5.981,2.1a3.232,3.232,0,0,1-2.447-.988,3.666,3.666,0,0,1-.943-2.642v-.232a4.438,4.438,0,0,1,.42-1.965A3.28,3.28,0,0,1,79.54-7.044a2.956,2.956,0,0,1,1.637-.489,2.77,2.77,0,0,1,2.242.95,4.114,4.114,0,0,1,.8,2.721v.526H79.208a2.629,2.629,0,0,0,.639,1.767A2.009,2.009,0,0,0,81.4-.9a2.2,2.2,0,0,0,1.135-.273,2.851,2.851,0,0,0,.813-.725l.772.6A3.106,3.106,0,0,1,81.334.137Zm-.157-6.631a1.687,1.687,0,0,0-1.285.557,2.708,2.708,0,0,0-.643,1.562h3.705v-.1a2.409,2.409,0,0,0-.52-1.494A1.588,1.588,0,0,0,81.177-6.494Z" transform="translate(1038 1519.034)" fill="#12263f"/>
    <path id="Trazado_191449" data-name="Trazado 191449" d="M1.381,0V-6.419H.212V-7.4H1.381v-.629a2.57,2.57,0,0,1,.708-1.928,2.744,2.744,0,0,1,2-.69,6.021,6.021,0,0,1,1.935.417L5.811-9.16A4.382,4.382,0,0,0,4.184-9.5a1.592,1.592,0,0,0-1.172.366,1.508,1.508,0,0,0-.359,1.1V-7.4H4.163v.978H2.652V0ZM6.651,0H5.38V-7.4H6.651ZM9.905-7.4l.041.93a2.7,2.7,0,0,1,2.215-1.066q2.345,0,2.365,2.646V0H13.262V-4.895A1.7,1.7,0,0,0,12.9-6.077a1.466,1.466,0,0,0-1.118-.383,1.825,1.825,0,0,0-1.08.328,2.228,2.228,0,0,0-.725.861V0H8.709V-7.4Zm9.16,3.685H15.729V-4.744h3.336ZM24.6-1.962a.931.931,0,0,0-.386-.8,3.718,3.718,0,0,0-1.347-.489,6.367,6.367,0,0,1-1.524-.492,2.169,2.169,0,0,1-.834-.684,1.635,1.635,0,0,1-.27-.943A1.919,1.919,0,0,1,21.01-6.9a3,3,0,0,1,1.965-.629,3.091,3.091,0,0,1,2.041.649A2.063,2.063,0,0,1,25.8-5.223H24.527a1.142,1.142,0,0,0-.441-.9,1.652,1.652,0,0,0-1.111-.376,1.729,1.729,0,0,0-1.08.3.947.947,0,0,0-.39.786.767.767,0,0,0,.362.69,4.458,4.458,0,0,0,1.309.444,6.821,6.821,0,0,1,1.535.506,2.239,2.239,0,0,1,.872.708,1.74,1.74,0,0,1,.284,1.008,1.893,1.893,0,0,1-.793,1.589,3.326,3.326,0,0,1-2.058.6,3.725,3.725,0,0,1-1.572-.314,2.557,2.557,0,0,1-1.07-.878,2.117,2.117,0,0,1-.386-1.22h1.265a1.309,1.309,0,0,0,.509,1.008A1.976,1.976,0,0,0,23.017-.9a2.039,2.039,0,0,0,1.152-.291A.893.893,0,0,0,24.6-1.962ZM28.889,0H27.624V-7.4h1.265ZM27.521-9.358a.755.755,0,0,1,.188-.52.706.706,0,0,1,.557-.212.717.717,0,0,1,.561.212.747.747,0,0,1,.191.52.722.722,0,0,1-.191.513.73.73,0,0,1-.561.205.718.718,0,0,1-.557-.205A.73.73,0,0,1,27.521-9.358Z" transform="translate(1038 1536.034)" fill="#12263f"/>
    <path id="Trazado_191450" data-name="Trazado 191450" d="M0,0V30.85" transform="translate(990.249 1493.372)" fill="none" stroke="#707070" stroke-linecap="round" stroke-width="1"/>
    <path id="Trazado_191451" data-name="Trazado 191451" d="M3.4-1.716,5.229-7.4H6.521L3.869,0H2.905L.226-7.4H1.518ZM10.719.137A3.232,3.232,0,0,1,8.271-.851a3.666,3.666,0,0,1-.943-2.642v-.232a4.438,4.438,0,0,1,.42-1.965A3.28,3.28,0,0,1,8.924-7.044a2.956,2.956,0,0,1,1.637-.489,2.77,2.77,0,0,1,2.242.95,4.114,4.114,0,0,1,.8,2.721v.526H8.593a2.629,2.629,0,0,0,.639,1.767A2.009,2.009,0,0,0,10.787-.9a2.2,2.2,0,0,0,1.135-.273,2.851,2.851,0,0,0,.813-.725l.772.6A3.106,3.106,0,0,1,10.719.137Zm-.157-6.631a1.687,1.687,0,0,0-1.285.557,2.708,2.708,0,0,0-.643,1.562h3.705v-.1a2.409,2.409,0,0,0-.52-1.494A1.588,1.588,0,0,0,10.562-6.494Zm8.08.232a3.79,3.79,0,0,0-.622-.048,1.667,1.667,0,0,0-1.688,1.06V0H15.066V-7.4H16.3l.021.854a1.969,1.969,0,0,1,1.764-.991,1.292,1.292,0,0,1,.561.1Zm.725,2.5A4.333,4.333,0,0,1,20.173-6.5a2.551,2.551,0,0,1,2.112-1.036,2.565,2.565,0,0,1,2.058.889V-10.5h1.265V0H24.445l-.062-.793a2.575,2.575,0,0,1-2.112.93,2.526,2.526,0,0,1-2.1-1.053,4.382,4.382,0,0,1-.81-2.748Zm1.265.144a3.281,3.281,0,0,0,.52,1.969,1.68,1.68,0,0,0,1.436.711,1.845,1.845,0,0,0,1.757-1.08v-3.4A1.859,1.859,0,0,0,22.6-6.46a1.687,1.687,0,0,0-1.449.718A3.612,3.612,0,0,0,20.631-3.616ZM32.136,0a2.657,2.657,0,0,1-.178-.779,2.822,2.822,0,0,1-2.105.916,2.611,2.611,0,0,1-1.794-.619,2,2,0,0,1-.7-1.569,2.091,2.091,0,0,1,.878-1.794,4.142,4.142,0,0,1,2.471-.639h1.23v-.581a1.42,1.42,0,0,0-.4-1.056,1.593,1.593,0,0,0-1.169-.393,1.844,1.844,0,0,0-1.135.342,1.007,1.007,0,0,0-.458.827H27.508a1.745,1.745,0,0,1,.393-1.07,2.683,2.683,0,0,1,1.066-.817,3.588,3.588,0,0,1,1.48-.3,2.924,2.924,0,0,1,2,.639,2.306,2.306,0,0,1,.752,1.76v3.4a4.162,4.162,0,0,0,.26,1.62V0Zm-2.1-.964a2.223,2.223,0,0,0,1.128-.308,1.861,1.861,0,0,0,.772-.8V-3.589h-.991q-2.324,0-2.324,1.36a1.151,1.151,0,0,0,.4.93A1.524,1.524,0,0,0,30.037-.964Zm4.84-2.8A4.333,4.333,0,0,1,35.684-6.5,2.551,2.551,0,0,1,37.8-7.533a2.565,2.565,0,0,1,2.058.889V-10.5h1.265V0H39.956l-.062-.793a2.575,2.575,0,0,1-2.112.93,2.526,2.526,0,0,1-2.1-1.053,4.382,4.382,0,0,1-.81-2.748Zm1.265.144a3.281,3.281,0,0,0,.52,1.969A1.68,1.68,0,0,0,38.1-.937a1.845,1.845,0,0,0,1.757-1.08v-3.4A1.859,1.859,0,0,0,38.11-6.46a1.687,1.687,0,0,0-1.449.718A3.612,3.612,0,0,0,36.142-3.616ZM46.149.137A3.232,3.232,0,0,1,43.7-.851a3.666,3.666,0,0,1-.943-2.642v-.232a4.438,4.438,0,0,1,.42-1.965,3.28,3.28,0,0,1,1.176-1.354,2.956,2.956,0,0,1,1.637-.489,2.77,2.77,0,0,1,2.242.95,4.114,4.114,0,0,1,.8,2.721v.526H44.023a2.629,2.629,0,0,0,.639,1.767A2.009,2.009,0,0,0,46.218-.9a2.2,2.2,0,0,0,1.135-.273,2.851,2.851,0,0,0,.813-.725l.772.6A3.106,3.106,0,0,1,46.149.137Zm-.157-6.631a1.687,1.687,0,0,0-1.285.557,2.708,2.708,0,0,0-.643,1.562H47.77v-.1a2.409,2.409,0,0,0-.52-1.494A1.588,1.588,0,0,0,45.992-6.494Zm8.08.232a3.79,3.79,0,0,0-.622-.048,1.667,1.667,0,0,0-1.688,1.06V0H50.5V-7.4h1.23l.021.854a1.969,1.969,0,0,1,1.764-.991,1.292,1.292,0,0,1,.561.1ZM59.527,0a2.657,2.657,0,0,1-.178-.779,2.822,2.822,0,0,1-2.105.916A2.611,2.611,0,0,1,55.45-.482a2,2,0,0,1-.7-1.569,2.091,2.091,0,0,1,.878-1.794A4.142,4.142,0,0,1,58.1-4.484h1.23v-.581a1.42,1.42,0,0,0-.4-1.056,1.593,1.593,0,0,0-1.169-.393,1.844,1.844,0,0,0-1.135.342,1.007,1.007,0,0,0-.458.827H54.9a1.745,1.745,0,0,1,.393-1.07,2.683,2.683,0,0,1,1.066-.817,3.588,3.588,0,0,1,1.48-.3,2.924,2.924,0,0,1,2,.639,2.306,2.306,0,0,1,.752,1.76v3.4a4.162,4.162,0,0,0,.26,1.62V0Zm-2.1-.964a2.223,2.223,0,0,0,1.128-.308,1.861,1.861,0,0,0,.772-.8V-3.589h-.991q-2.324,0-2.324,1.36a1.151,1.151,0,0,0,.4.93A1.524,1.524,0,0,0,57.429-.964Z" transform="translate(837 1472.031)" fill="#12263f"/>
    <path id="Trazado_191452" data-name="Trazado 191452" d="M5.045,0V-6.419H3.876V-7.4H5.045v-.759a2.519,2.519,0,0,1,.636-1.839,2.4,2.4,0,0,1,1.8-.649,3.339,3.339,0,0,1,.868.115L8.278-9.509a3.632,3.632,0,0,0-.684-.062,1.234,1.234,0,0,0-.95.36A1.46,1.46,0,0,0,6.31-8.178V-7.4H7.889v.978H6.31V0Zm8.8,0a2.657,2.657,0,0,1-.178-.779,2.822,2.822,0,0,1-2.105.916A2.611,2.611,0,0,1,9.772-.482a2,2,0,0,1-.7-1.569A2.091,2.091,0,0,1,9.95-3.845a4.142,4.142,0,0,1,2.471-.639h1.23v-.581a1.42,1.42,0,0,0-.4-1.056,1.593,1.593,0,0,0-1.169-.393,1.844,1.844,0,0,0-1.135.342,1.007,1.007,0,0,0-.458.827H9.222a1.745,1.745,0,0,1,.393-1.07,2.683,2.683,0,0,1,1.066-.817,3.588,3.588,0,0,1,1.48-.3,2.924,2.924,0,0,1,2,.639,2.306,2.306,0,0,1,.752,1.76v3.4a4.162,4.162,0,0,0,.26,1.62V0Zm-2.1-.964a2.223,2.223,0,0,0,1.128-.308,1.861,1.861,0,0,0,.772-.8V-3.589H12.66q-2.324,0-2.324,1.36a1.151,1.151,0,0,0,.4.93A1.524,1.524,0,0,0,11.751-.964ZM18.272,0H17.008V-10.5h1.265ZM24.6-1.962a.931.931,0,0,0-.386-.8,3.718,3.718,0,0,0-1.347-.489,6.367,6.367,0,0,1-1.524-.492,2.169,2.169,0,0,1-.834-.684,1.635,1.635,0,0,1-.27-.943A1.919,1.919,0,0,1,21.01-6.9a3,3,0,0,1,1.965-.629,3.091,3.091,0,0,1,2.041.649A2.063,2.063,0,0,1,25.8-5.223H24.527a1.142,1.142,0,0,0-.441-.9,1.652,1.652,0,0,0-1.111-.376,1.729,1.729,0,0,0-1.08.3.947.947,0,0,0-.39.786.767.767,0,0,0,.362.69,4.458,4.458,0,0,0,1.309.444,6.821,6.821,0,0,1,1.535.506,2.239,2.239,0,0,1,.872.708,1.74,1.74,0,0,1,.284,1.008,1.893,1.893,0,0,1-.793,1.589,3.326,3.326,0,0,1-2.058.6,3.725,3.725,0,0,1-1.572-.314,2.557,2.557,0,0,1-1.07-.878,2.117,2.117,0,0,1-.386-1.22h1.265a1.309,1.309,0,0,0,.509,1.008A1.976,1.976,0,0,0,23.017-.9a2.039,2.039,0,0,0,1.152-.291A.893.893,0,0,0,24.6-1.962ZM32.081,0A2.657,2.657,0,0,1,31.9-.779,2.822,2.822,0,0,1,29.8.137,2.611,2.611,0,0,1,28-.482a2,2,0,0,1-.7-1.569,2.091,2.091,0,0,1,.878-1.794,4.142,4.142,0,0,1,2.471-.639h1.23v-.581a1.42,1.42,0,0,0-.4-1.056,1.593,1.593,0,0,0-1.169-.393,1.844,1.844,0,0,0-1.135.342,1.007,1.007,0,0,0-.458.827H27.453a1.745,1.745,0,0,1,.393-1.07,2.683,2.683,0,0,1,1.066-.817,3.588,3.588,0,0,1,1.48-.3,2.924,2.924,0,0,1,2,.639,2.306,2.306,0,0,1,.752,1.76v3.4a4.162,4.162,0,0,0,.26,1.62V0Zm-2.1-.964a2.223,2.223,0,0,0,1.128-.308,1.861,1.861,0,0,0,.772-.8V-3.589h-.991q-2.324,0-2.324,1.36a1.151,1.151,0,0,0,.4.93A1.524,1.524,0,0,0,29.982-.964Z" transform="translate(959 1472.031)" fill="#12263f"/>
    <path id="Trazado_191453" data-name="Trazado 191453" d="M5.523,0a2.657,2.657,0,0,1-.178-.779A2.822,2.822,0,0,1,3.24.137,2.611,2.611,0,0,1,1.446-.482a2,2,0,0,1-.7-1.569,2.091,2.091,0,0,1,.878-1.794,4.142,4.142,0,0,1,2.471-.639h1.23v-.581a1.42,1.42,0,0,0-.4-1.056A1.593,1.593,0,0,0,3.76-6.515a1.844,1.844,0,0,0-1.135.342,1.007,1.007,0,0,0-.458.827H.9a1.745,1.745,0,0,1,.393-1.07,2.683,2.683,0,0,1,1.066-.817,3.588,3.588,0,0,1,1.48-.3,2.924,2.924,0,0,1,2,.639,2.306,2.306,0,0,1,.752,1.76v3.4a4.162,4.162,0,0,0,.26,1.62V0Zm-2.1-.964a2.223,2.223,0,0,0,1.128-.308,1.861,1.861,0,0,0,.772-.8V-3.589H4.334q-2.324,0-2.324,1.36a1.151,1.151,0,0,0,.4.93A1.524,1.524,0,0,0,3.425-.964ZM11.539-.9a1.822,1.822,0,0,0,1.183-.41,1.443,1.443,0,0,0,.561-1.025h1.2a2.293,2.293,0,0,1-.437,1.21,2.881,2.881,0,0,1-1.077.916,3.107,3.107,0,0,1-1.425.342,3.047,3.047,0,0,1-2.4-1.008A4.016,4.016,0,0,1,8.244-3.63v-.212a4.453,4.453,0,0,1,.4-1.921A3.02,3.02,0,0,1,9.779-7.068a3.233,3.233,0,0,1,1.753-.465,2.966,2.966,0,0,1,2.068.745,2.663,2.663,0,0,1,.878,1.935h-1.2a1.743,1.743,0,0,0-.543-1.179,1.691,1.691,0,0,0-1.207-.461,1.77,1.77,0,0,0-1.494.694,3.259,3.259,0,0,0-.53,2.006v.239a3.194,3.194,0,0,0,.526,1.969A1.779,1.779,0,0,0,11.539-.9Zm7.328,0a1.822,1.822,0,0,0,1.183-.41,1.443,1.443,0,0,0,.561-1.025h1.2a2.293,2.293,0,0,1-.437,1.21,2.881,2.881,0,0,1-1.077.916,3.107,3.107,0,0,1-1.425.342,3.047,3.047,0,0,1-2.4-1.008,4.016,4.016,0,0,1-.892-2.758v-.212a4.453,4.453,0,0,1,.4-1.921,3.02,3.02,0,0,1,1.138-1.306,3.233,3.233,0,0,1,1.753-.465,2.966,2.966,0,0,1,2.068.745,2.663,2.663,0,0,1,.878,1.935h-1.2a1.743,1.743,0,0,0-.543-1.179,1.691,1.691,0,0,0-1.207-.461,1.77,1.77,0,0,0-1.494.694,3.259,3.259,0,0,0-.53,2.006v.239a3.194,3.194,0,0,0,.526,1.969A1.779,1.779,0,0,0,18.867-.9ZM24.6,0H23.338V-7.4H24.6ZM23.235-9.358a.755.755,0,0,1,.188-.52.706.706,0,0,1,.557-.212.717.717,0,0,1,.561.212.747.747,0,0,1,.191.52.722.722,0,0,1-.191.513.73.73,0,0,1-.561.205.718.718,0,0,1-.557-.205A.73.73,0,0,1,23.235-9.358Zm3.056,5.592a4.369,4.369,0,0,1,.427-1.955,3.187,3.187,0,0,1,1.189-1.34,3.238,3.238,0,0,1,1.74-.472,3.119,3.119,0,0,1,2.444,1.046,4.024,4.024,0,0,1,.933,2.782v.089a4.407,4.407,0,0,1-.414,1.938A3.14,3.14,0,0,1,31.428-.342a3.275,3.275,0,0,1-1.767.479A3.111,3.111,0,0,1,27.224-.909a4,4,0,0,1-.933-2.769Zm1.271.15a3.164,3.164,0,0,0,.571,1.976A1.827,1.827,0,0,0,29.661-.9a1.816,1.816,0,0,0,1.531-.755,3.46,3.46,0,0,0,.567-2.116,3.159,3.159,0,0,0-.578-1.972,1.836,1.836,0,0,0-1.535-.755,1.816,1.816,0,0,0-1.511.745A3.434,3.434,0,0,0,27.563-3.616ZM30.222-10.5h1.531L29.921-8.49l-1.019,0Zm5.585,3.1.041.93a2.7,2.7,0,0,1,2.215-1.066q2.345,0,2.365,2.646V0H39.163V-4.895A1.7,1.7,0,0,0,38.8-6.077,1.466,1.466,0,0,0,37.68-6.46a1.825,1.825,0,0,0-1.08.328,2.228,2.228,0,0,0-.725.861V0H34.61V-7.4Zm13.125,2.96a6.172,6.172,0,0,1-2.458-1.193,2.279,2.279,0,0,1-.769-1.747,2.408,2.408,0,0,1,.94-1.945,3.736,3.736,0,0,1,2.444-.769,4.078,4.078,0,0,1,1.829.4A3.007,3.007,0,0,1,52.162-8.6,2.8,2.8,0,0,1,52.6-7.075H51.283A1.82,1.82,0,0,0,50.709-8.5a2.335,2.335,0,0,0-1.62-.518,2.391,2.391,0,0,0-1.514.428A1.428,1.428,0,0,0,47.031-7.4a1.285,1.285,0,0,0,.516,1.031A5.062,5.062,0,0,0,49.3-5.6a8.151,8.151,0,0,1,1.941.77,2.946,2.946,0,0,1,1.039.981,2.5,2.5,0,0,1,.338,1.319A2.326,2.326,0,0,1,51.68-.591a4.022,4.022,0,0,1-2.522.728,4.678,4.678,0,0,1-1.914-.393,3.221,3.221,0,0,1-1.371-1.077,2.627,2.627,0,0,1-.482-1.552H46.71a1.714,1.714,0,0,0,.667,1.425,2.806,2.806,0,0,0,1.781.523A2.58,2.58,0,0,0,50.75-1.36,1.377,1.377,0,0,0,51.3-2.516a1.351,1.351,0,0,0-.513-1.131A5.911,5.911,0,0,0,48.932-4.437ZM60.5,0H53.977V-.909l3.445-3.828a8.185,8.185,0,0,0,1.056-1.412,2.356,2.356,0,0,0,.291-1.125A1.786,1.786,0,0,0,58.3-8.552a1.649,1.649,0,0,0-1.258-.5,1.953,1.953,0,0,0-1.466.537,2.05,2.05,0,0,0-.523,1.494H53.785a2.936,2.936,0,0,1,.885-2.222,3.282,3.282,0,0,1,2.369-.848,3.153,3.153,0,0,1,2.194.728,2.483,2.483,0,0,1,.807,1.938q0,1.47-1.873,3.5L55.5-1.032h5Z" transform="translate(890 1528.031)" fill="#12263f"/>
    <path id="Trazado_191454" data-name="Trazado 191454" d="M0,0H26.961" transform="translate(963.288 1524.222)" fill="none" stroke="#707070" stroke-linecap="round" stroke-width="1"/>
    <path id="Trazado_191455" data-name="Trazado 191455" d="M0,0H23.85" transform="translate(966.398 1493.112)" fill="none" stroke="#707070" stroke-linecap="round" stroke-width="1"/>
    <path id="Trazado_191456" data-name="Trazado 191456" d="M3.5,0A3.5,3.5,0,1,1,0,3.5,3.5,3.5,0,0,1,3.5,0Z" transform="translate(960 1521.034)" fill="#707070"/>
    <path id="Trazado_191457" data-name="Trazado 191457" d="M6.5,0,13,5H0Z" transform="translate(932 1473.034) rotate(180)" fill="#707070"/>
    <path id="Trazado_191458" data-name="Trazado 191458" d="M6.5,0,13,5H0Z" transform="translate(932 1515.034) rotate(180)" fill="#707070"/>
    <path id="Trazado_191459" data-name="Trazado 191459" d="M6.5,0,13,5H0Z" transform="translate(932 1541.034) rotate(180)" fill="#707070"/>
    <g id="Trazado_191460" data-name="Trazado 191460" transform="translate(871 1478.034)" fill="#fff">
      <path d="M 82.5 26.5 L 13.5 26.5 C 10.02757453918457 26.5 6.762987613677979 25.14776229858398 4.307612419128418 22.69238662719727 C 1.852237462997437 20.23701286315918 0.5 16.97242546081543 0.5 13.5 C 0.5 10.02757453918457 1.852237462997437 6.762987613677979 4.307612419128418 4.307612419128418 C 6.762987613677979 1.852237462997437 10.02757453918457 0.5 13.5 0.5 L 82.5 0.5 C 85.97242736816406 0.5 89.23701477050781 1.852237462997437 91.69239044189453 4.307612419128418 C 94.14776611328125 6.762987613677979 95.5 10.02757453918457 95.5 13.5 C 95.5 16.97242546081543 94.14776611328125 20.23701286315918 91.69239044189453 22.69238662719727 C 89.23701477050781 25.14776229858398 85.97242736816406 26.5 82.5 26.5 Z" stroke="none"/>
      <path d="M 13.5 1 C 10.1611328125 1 7.022109985351562 2.300226211547852 4.661170959472656 4.661172866821289 C 2.300224304199219 7.022106170654297 1 10.1611328125 1 13.5 C 1 16.8388671875 2.300224304199219 19.9778938293457 4.661170959472656 22.33882713317871 C 7.022109985351562 24.69977378845215 10.1611328125 26 13.5 26 L 82.5 26 C 85.8388671875 26 88.97789001464844 24.69977378845215 91.33882904052734 22.33882713317871 C 93.69977569580078 19.9778938293457 95 16.8388671875 95 13.5 C 95 10.1611328125 93.69977569580078 7.022106170654297 91.33882904052734 4.661172866821289 C 88.97789001464844 2.300226211547852 85.8388671875 1 82.5 1 L 13.5 1 M 13.5 0 L 82.5 0 C 89.95584106445312 0 96 6.044160842895508 96 13.5 C 96 20.95584106445312 89.95584106445312 27 82.5 27 L 13.5 27 C 6.044158935546875 27 0 20.95584106445312 0 13.5 C 0 6.044160842895508 6.044158935546875 0 13.5 0 Z" stroke="none" fill="#fdb32b"/>
    </g>
    <path id="Trazado_191461" data-name="Trazado 191461" d="M4.383-1.664A1.481,1.481,0,0,0,5.4-2.008,1.2,1.2,0,0,0,5.8-2.922H7.922a2.9,2.9,0,0,1-.469,1.574A3.093,3.093,0,0,1,6.191-.238a3.949,3.949,0,0,1-1.77.395A3.67,3.67,0,0,1,1.563-1,4.56,4.56,0,0,1,.516-4.18v-.148A4.508,4.508,0,0,1,1.555-7.445,3.627,3.627,0,0,1,4.406-8.609a3.555,3.555,0,0,1,2.543.9,3.2,3.2,0,0,1,.973,2.4H5.8A1.551,1.551,0,0,0,5.4-6.377a1.354,1.354,0,0,0-1.031-.412,1.36,1.36,0,0,0-1.191.575,3.333,3.333,0,0,0-.4,1.866v.235a3.375,3.375,0,0,0,.4,1.878A1.377,1.377,0,0,0,4.383-1.664ZM8.859-4.3a5.013,5.013,0,0,1,.484-2.242A3.546,3.546,0,0,1,10.738-8.07a4.069,4.069,0,0,1,2.113-.539,3.849,3.849,0,0,1,2.793,1.047,4.2,4.2,0,0,1,1.207,2.844l.016.578A4.418,4.418,0,0,1,15.781-1.02,3.775,3.775,0,0,1,12.867.156,3.793,3.793,0,0,1,9.949-1.016,4.5,4.5,0,0,1,8.859-4.2Zm2.258.16A3.16,3.16,0,0,0,11.57-2.3a1.5,1.5,0,0,0,1.3.638,1.5,1.5,0,0,0,1.281-.63,3.457,3.457,0,0,0,.461-2.015,3.128,3.128,0,0,0-.461-1.831,1.5,1.5,0,0,0-1.3-.649,1.474,1.474,0,0,0-1.281.646A3.516,3.516,0,0,0,11.117-4.144Zm9.219-4.309.07.977a2.951,2.951,0,0,1,2.43-1.133,2.453,2.453,0,0,1,2,.789,3.682,3.682,0,0,1,.672,2.359V0H23.25V-5.406a1.465,1.465,0,0,0-.312-1.043A1.4,1.4,0,0,0,21.9-6.773a1.553,1.553,0,0,0-1.43.813V0H18.211V-8.453Zm6.531,4.164a5.094,5.094,0,0,1,.887-3.148A2.877,2.877,0,0,1,30.18-8.609a2.589,2.589,0,0,1,2.039.922V-12h2.266V0H32.445l-.109-.9A2.657,2.657,0,0,1,30.164.156,2.869,2.869,0,0,1,27.77-1.02,5.258,5.258,0,0,1,26.867-4.289Zm2.258.168A3.337,3.337,0,0,0,29.539-2.3a1.349,1.349,0,0,0,1.2.634,1.511,1.511,0,0,0,1.477-.884V-5.889a1.489,1.489,0,0,0-1.461-.884Q29.125-6.773,29.125-4.121ZM38.617,0H36.352V-8.453h2.266Zm-2.4-10.641a1.112,1.112,0,0,1,.34-.836,1.277,1.277,0,0,1,.926-.328,1.28,1.28,0,0,1,.922.328,1.105,1.105,0,0,1,.344.836A1.108,1.108,0,0,1,38.4-9.8a1.283,1.283,0,0,1-.918.328,1.283,1.283,0,0,1-.918-.328A1.108,1.108,0,0,1,36.219-10.641Zm7.773,8.977a1.481,1.481,0,0,0,1.016-.344,1.2,1.2,0,0,0,.406-.914h2.117a2.9,2.9,0,0,1-.469,1.574A3.093,3.093,0,0,1,45.8-.238a3.949,3.949,0,0,1-1.77.395A3.67,3.67,0,0,1,41.172-1,4.56,4.56,0,0,1,40.125-4.18v-.148a4.508,4.508,0,0,1,1.039-3.117,3.627,3.627,0,0,1,2.852-1.164,3.555,3.555,0,0,1,2.543.9,3.2,3.2,0,0,1,.973,2.4H45.414a1.551,1.551,0,0,0-.406-1.072,1.354,1.354,0,0,0-1.031-.412,1.36,1.36,0,0,0-1.191.575,3.333,3.333,0,0,0-.4,1.866v.235a3.375,3.375,0,0,0,.4,1.878A1.377,1.377,0,0,0,43.992-1.664ZM51.2,0H48.938V-8.453H51.2ZM48.8-10.641a1.112,1.112,0,0,1,.34-.836,1.277,1.277,0,0,1,.926-.328,1.28,1.28,0,0,1,.922.328,1.105,1.105,0,0,1,.344.836,1.108,1.108,0,0,1-.348.844,1.283,1.283,0,0,1-.918.328,1.283,1.283,0,0,1-.918-.328A1.108,1.108,0,0,1,48.8-10.641ZM52.711-4.3A5.013,5.013,0,0,1,53.2-6.547,3.546,3.546,0,0,1,54.59-8.07,4.069,4.069,0,0,1,56.7-8.609,3.849,3.849,0,0,1,59.5-7.562,4.2,4.2,0,0,1,60.7-4.719l.016.578A4.418,4.418,0,0,1,59.633-1.02,3.775,3.775,0,0,1,56.719.156,3.793,3.793,0,0,1,53.8-1.016,4.5,4.5,0,0,1,52.711-4.2Zm2.258.16A3.16,3.16,0,0,0,55.422-2.3a1.5,1.5,0,0,0,1.3.638A1.5,1.5,0,0,0,58-2.294a3.457,3.457,0,0,0,.461-2.015A3.128,3.128,0,0,0,58-6.14a1.5,1.5,0,0,0-1.3-.649,1.474,1.474,0,0,0-1.281.646A3.516,3.516,0,0,0,54.969-4.144ZM57.148-12h2.461L57.445-9.578H55.609Zm7.039,3.547.07.977a2.951,2.951,0,0,1,2.43-1.133,2.453,2.453,0,0,1,2,.789,3.682,3.682,0,0,1,.672,2.359V0H67.1V-5.406a1.465,1.465,0,0,0-.312-1.043,1.4,1.4,0,0,0-1.039-.324,1.553,1.553,0,0,0-1.43.813V0H62.063V-8.453Z" transform="translate(884 1497.034)" fill="#12263f"/>
    <path id="Trazado_116256-2" data-name="Trazado 116256" d="M4.463,0H128.537A4.754,4.754,0,0,1,133,5V38a4.754,4.754,0,0,1-4.463,5H4.463A4.754,4.754,0,0,1,0,38V5A4.754,4.754,0,0,1,4.463,0Z" transform="translate(1021 1406.033)" fill="#ffb30b"/>
    <path id="Trazado_191462" data-name="Trazado 191462" d="M3.359-4.008V0H1.016V-11.375H5.453a5.134,5.134,0,0,1,2.254.469A3.454,3.454,0,0,1,9.2-9.574a3.714,3.714,0,0,1,.523,1.965A3.266,3.266,0,0,1,8.582-4.973a4.767,4.767,0,0,1-3.168.965Zm0-1.9H5.453a2.059,2.059,0,0,0,1.418-.437,1.591,1.591,0,0,0,.488-1.25,1.876,1.876,0,0,0-.492-1.352,1.839,1.839,0,0,0-1.359-.531H3.359Zm12.406,3.57a.727.727,0,0,0-.41-.652,4.659,4.659,0,0,0-1.316-.426q-3.016-.633-3.016-2.562a2.323,2.323,0,0,1,.934-1.879A3.766,3.766,0,0,1,14.4-8.609a4.053,4.053,0,0,1,2.574.758,2.388,2.388,0,0,1,.965,1.969H15.68a1.092,1.092,0,0,0-.312-.8A1.322,1.322,0,0,0,14.391-7a1.351,1.351,0,0,0-.883.258.814.814,0,0,0-.312.656.7.7,0,0,0,.355.605,3.657,3.657,0,0,0,1.2.4,9.8,9.8,0,0,1,1.422.379A2.336,2.336,0,0,1,17.961-2.43a2.2,2.2,0,0,1-.992,1.871,4.28,4.28,0,0,1-2.562.715A4.47,4.47,0,0,1,12.52-.223a3.166,3.166,0,0,1-1.293-1.039,2.414,2.414,0,0,1-.469-1.426H12.9a1.179,1.179,0,0,0,.445.922,1.766,1.766,0,0,0,1.109.32,1.635,1.635,0,0,0,.98-.246A.766.766,0,0,0,15.766-2.336ZM23.3.156A4.15,4.15,0,0,1,20.277-.984a4.054,4.054,0,0,1-1.168-3.039v-.219A5.106,5.106,0,0,1,19.6-6.52,3.612,3.612,0,0,1,21-8.066a3.914,3.914,0,0,1,2.059-.543,3.508,3.508,0,0,1,2.73,1.094,4.444,4.444,0,0,1,1,3.1v.922H21.4a2.1,2.1,0,0,0,.66,1.328,2,2,0,0,0,1.395.5,2.437,2.437,0,0,0,2.039-.945L26.6-1.367A3.389,3.389,0,0,1,25.227-.246,4.511,4.511,0,0,1,23.3.156Zm-.258-6.945a1.411,1.411,0,0,0-1.09.455,2.357,2.357,0,0,0-.535,1.3h3.141v-.181a1.681,1.681,0,0,0-.406-1.165A1.456,1.456,0,0,0,23.047-6.789ZM33.125-.859A2.831,2.831,0,0,1,30.813.156a2.67,2.67,0,0,1-2.074-.781,3.335,3.335,0,0,1-.73-2.289V-8.453h2.258v5.467q0,1.322,1.2,1.322a1.63,1.63,0,0,0,1.578-.8V-8.453h2.266V0H33.188Zm3.539-3.43a5.094,5.094,0,0,1,.887-3.148,2.877,2.877,0,0,1,2.426-1.172,2.589,2.589,0,0,1,2.039.922V-12h2.266V0H42.242l-.109-.9A2.657,2.657,0,0,1,39.961.156,2.869,2.869,0,0,1,37.566-1.02,5.258,5.258,0,0,1,36.664-4.289Zm2.258.168A3.337,3.337,0,0,0,39.336-2.3a1.349,1.349,0,0,0,1.2.634,1.511,1.511,0,0,0,1.477-.884V-5.889a1.489,1.489,0,0,0-1.461-.884Q38.922-6.773,38.922-4.121ZM45.68-4.3a5.013,5.013,0,0,1,.484-2.242A3.546,3.546,0,0,1,47.559-8.07a4.069,4.069,0,0,1,2.113-.539,3.849,3.849,0,0,1,2.793,1.047,4.2,4.2,0,0,1,1.207,2.844l.016.578A4.418,4.418,0,0,1,52.6-1.02,3.775,3.775,0,0,1,49.688.156,3.793,3.793,0,0,1,46.77-1.016,4.5,4.5,0,0,1,45.68-4.2Zm2.258.16A3.16,3.16,0,0,0,48.391-2.3a1.5,1.5,0,0,0,1.3.638,1.5,1.5,0,0,0,1.281-.63,3.457,3.457,0,0,0,.461-2.015,3.128,3.128,0,0,0-.461-1.831,1.5,1.5,0,0,0-1.3-.649,1.474,1.474,0,0,0-1.281.646A3.516,3.516,0,0,0,47.938-4.144Zm10.656,2.48a1.481,1.481,0,0,0,1.016-.344,1.2,1.2,0,0,0,.406-.914h2.117a2.9,2.9,0,0,1-.469,1.574A3.093,3.093,0,0,1,60.4-.238a3.949,3.949,0,0,1-1.77.395A3.67,3.67,0,0,1,55.773-1,4.56,4.56,0,0,1,54.727-4.18v-.148a4.508,4.508,0,0,1,1.039-3.117,3.627,3.627,0,0,1,2.852-1.164,3.555,3.555,0,0,1,2.543.9,3.2,3.2,0,0,1,.973,2.4H60.016a1.551,1.551,0,0,0-.406-1.072,1.354,1.354,0,0,0-1.031-.412,1.36,1.36,0,0,0-1.191.575,3.333,3.333,0,0,0-.4,1.866v.235a3.375,3.375,0,0,0,.4,1.878A1.377,1.377,0,0,0,58.594-1.664ZM63.07-4.3a5.013,5.013,0,0,1,.484-2.242A3.546,3.546,0,0,1,64.949-8.07a4.069,4.069,0,0,1,2.113-.539,3.849,3.849,0,0,1,2.793,1.047,4.2,4.2,0,0,1,1.207,2.844l.016.578A4.418,4.418,0,0,1,69.992-1.02,3.775,3.775,0,0,1,67.078.156,3.793,3.793,0,0,1,64.16-1.016,4.5,4.5,0,0,1,63.07-4.2Zm2.258.16A3.16,3.16,0,0,0,65.781-2.3a1.5,1.5,0,0,0,1.3.638,1.5,1.5,0,0,0,1.281-.63,3.457,3.457,0,0,0,.461-2.015,3.128,3.128,0,0,0-.461-1.831,1.5,1.5,0,0,0-1.3-.649,1.474,1.474,0,0,0-1.281.646A3.516,3.516,0,0,0,65.328-4.144ZM67.508-12h2.461L67.8-9.578H65.969Zm4.609,7.711A5.094,5.094,0,0,1,73-7.437,2.877,2.877,0,0,1,75.43-8.609a2.589,2.589,0,0,1,2.039.922V-12h2.266V0H77.7l-.109-.9A2.657,2.657,0,0,1,75.414.156,2.869,2.869,0,0,1,73.02-1.02,5.258,5.258,0,0,1,72.117-4.289Zm2.258.168A3.337,3.337,0,0,0,74.789-2.3a1.349,1.349,0,0,0,1.2.634,1.511,1.511,0,0,0,1.477-.884V-5.889a1.489,1.489,0,0,0-1.461-.884Q74.375-6.773,74.375-4.121ZM83.867,0H81.6V-8.453h2.266Zm-2.4-10.641a1.112,1.112,0,0,1,.34-.836,1.277,1.277,0,0,1,.926-.328,1.28,1.28,0,0,1,.922.328,1.105,1.105,0,0,1,.344.836,1.108,1.108,0,0,1-.348.844,1.283,1.283,0,0,1-.918.328,1.283,1.283,0,0,1-.918-.328A1.108,1.108,0,0,1,81.469-10.641ZM85.4-4.289a4.954,4.954,0,0,1,.926-3.133,3,3,0,0,1,2.5-1.187,2.631,2.631,0,0,1,2.164.953l.094-.8h2.047V-.281a3.613,3.613,0,0,1-.5,1.93A3.236,3.236,0,0,1,91.2,2.9a4.985,4.985,0,0,1-2.141.43,4.635,4.635,0,0,1-1.812-.371A3.217,3.217,0,0,1,85.914,2l1-1.375a2.645,2.645,0,0,0,2.047.945,1.936,1.936,0,0,0,1.4-.48,1.8,1.8,0,0,0,.5-1.363V-.727A2.612,2.612,0,0,1,88.8.156,2.992,2.992,0,0,1,86.34-1.035,4.953,4.953,0,0,1,85.4-4.2Zm2.258.168a3.085,3.085,0,0,0,.461,1.8,1.466,1.466,0,0,0,1.266.653,1.568,1.568,0,0,0,1.477-.775V-6A1.564,1.564,0,0,0,89.4-6.773a1.476,1.476,0,0,0-1.277.665A3.477,3.477,0,0,0,87.656-4.121ZM94.508-4.3a5.013,5.013,0,0,1,.484-2.242A3.546,3.546,0,0,1,96.387-8.07,4.069,4.069,0,0,1,98.5-8.609a3.849,3.849,0,0,1,2.793,1.047A4.2,4.2,0,0,1,102.5-4.719l.016.578A4.418,4.418,0,0,1,101.43-1.02,3.775,3.775,0,0,1,98.516.156,3.793,3.793,0,0,1,95.6-1.016,4.5,4.5,0,0,1,94.508-4.2Zm2.258.16A3.16,3.16,0,0,0,97.219-2.3a1.5,1.5,0,0,0,1.3.638,1.5,1.5,0,0,0,1.281-.63,3.457,3.457,0,0,0,.461-2.015A3.128,3.128,0,0,0,99.8-6.14a1.5,1.5,0,0,0-1.3-.649,1.474,1.474,0,0,0-1.281.646A3.516,3.516,0,0,0,96.766-4.144Z" transform="translate(1036 1433.033)" fill="#12263f"/>
    <path id="Trazado_116256-3" data-name="Trazado 116256" d="M2.785,0h77.43C81.753,0,83,1.562,83,3.488V26.512C83,28.438,81.753,30,80.215,30H2.785C1.247,30,0,28.438,0,26.512V3.488C0,1.562,1.247,0,2.785,0Z" transform="translate(1303.846 1470.873)" fill="#75e3d9"/>
    <path id="Trazado_191463" data-name="Trazado 191463" d="M7.438-2.344H3.328L2.547,0H.055L4.289-11.375H6.461L10.719,0H8.227Zm-3.477-1.9H6.8L5.375-8.5Zm14.906.094A5.07,5.07,0,0,1,17.98-1.02,2.843,2.843,0,0,1,15.586.156a2.633,2.633,0,0,1-2.07-.891V3.25H11.258v-11.7h2.094l.078.828a2.654,2.654,0,0,1,2.141-.984A2.862,2.862,0,0,1,18-7.453a5.207,5.207,0,0,1,.867,3.188Zm-2.258-.164a3.327,3.327,0,0,0-.418-1.82,1.361,1.361,0,0,0-1.215-.641,1.478,1.478,0,0,0-1.461.813V-2.5a1.5,1.5,0,0,0,1.477.836Q16.609-1.664,16.609-4.312Zm8.406-2.023A6.134,6.134,0,0,0,24.2-6.4a1.654,1.654,0,0,0-1.68.867V0H20.266V-8.453H22.4l.063,1.008a2.092,2.092,0,0,1,1.883-1.164,2.366,2.366,0,0,1,.7.1ZM25.469-4.3a5.013,5.013,0,0,1,.484-2.242A3.546,3.546,0,0,1,27.348-8.07a4.069,4.069,0,0,1,2.113-.539,3.849,3.849,0,0,1,2.793,1.047,4.2,4.2,0,0,1,1.207,2.844l.016.578A4.418,4.418,0,0,1,32.391-1.02,3.775,3.775,0,0,1,29.477.156a3.793,3.793,0,0,1-2.918-1.172A4.5,4.5,0,0,1,25.469-4.2Zm2.258.16A3.16,3.16,0,0,0,28.18-2.3a1.5,1.5,0,0,0,1.3.638,1.5,1.5,0,0,0,1.281-.63,3.457,3.457,0,0,0,.461-2.015,3.128,3.128,0,0,0-.461-1.831,1.5,1.5,0,0,0-1.3-.649,1.474,1.474,0,0,0-1.281.646A3.516,3.516,0,0,0,27.727-4.144Zm14.758,0A5.119,5.119,0,0,1,41.617-.98,2.872,2.872,0,0,1,39.2.156,2.639,2.639,0,0,1,37-.9l-.1.9H34.867V-12h2.258v4.3a2.571,2.571,0,0,1,2.055-.914,2.9,2.9,0,0,1,2.426,1.137,5.126,5.126,0,0,1,.879,3.2Zm-2.258-.164a3.363,3.363,0,0,0-.406-1.871,1.374,1.374,0,0,0-1.211-.59,1.489,1.489,0,0,0-1.484.883v3.336a1.509,1.509,0,0,0,1.5.891,1.394,1.394,0,0,0,1.438-1.078A5.562,5.562,0,0,0,40.227-4.312ZM48.773,0a2.507,2.507,0,0,1-.227-.758,2.732,2.732,0,0,1-2.133.914,3,3,0,0,1-2.059-.719,2.312,2.312,0,0,1-.816-1.812,2.389,2.389,0,0,1,1-2.062,4.915,4.915,0,0,1,2.879-.727h1.039v-.484a1.393,1.393,0,0,0-.3-.937,1.183,1.183,0,0,0-.949-.352,1.345,1.345,0,0,0-.895.273.929.929,0,0,0-.324.75H43.727a2.268,2.268,0,0,1,.453-1.359,3,3,0,0,1,1.281-.98,4.669,4.669,0,0,1,1.859-.355,3.689,3.689,0,0,1,2.48.785,2.747,2.747,0,0,1,.918,2.207v3.664a4.041,4.041,0,0,0,.336,1.82V0ZM46.906-1.57a1.945,1.945,0,0,0,.922-.223,1.462,1.462,0,0,0,.625-.6V-3.844h-.844q-1.7,0-1.8,1.172l-.008.133a.9.9,0,0,0,.3.7A1.153,1.153,0,0,0,46.906-1.57Zm5.2-2.719a5.094,5.094,0,0,1,.887-3.148,2.877,2.877,0,0,1,2.426-1.172,2.589,2.589,0,0,1,2.039.922V-12h2.266V0H57.68L57.57-.9A2.657,2.657,0,0,1,55.4.156,2.869,2.869,0,0,1,53-1.02,5.258,5.258,0,0,1,52.1-4.289Zm2.258.168A3.337,3.337,0,0,0,54.773-2.3a1.349,1.349,0,0,0,1.2.634,1.511,1.511,0,0,0,1.477-.884V-5.889a1.489,1.489,0,0,0-1.461-.884Q54.359-6.773,54.359-4.121ZM61.117-4.3A5.013,5.013,0,0,1,61.6-6.547,3.546,3.546,0,0,1,63-8.07a4.069,4.069,0,0,1,2.113-.539A3.849,3.849,0,0,1,67.9-7.562a4.2,4.2,0,0,1,1.207,2.844l.016.578A4.418,4.418,0,0,1,68.039-1.02,3.775,3.775,0,0,1,65.125.156a3.793,3.793,0,0,1-2.918-1.172A4.5,4.5,0,0,1,61.117-4.2Zm2.258.16A3.16,3.16,0,0,0,63.828-2.3a1.5,1.5,0,0,0,1.3.638,1.5,1.5,0,0,0,1.281-.63,3.457,3.457,0,0,0,.461-2.015,3.128,3.128,0,0,0-.461-1.831,1.5,1.5,0,0,0-1.3-.649,1.474,1.474,0,0,0-1.281.646A3.516,3.516,0,0,0,63.375-4.144Z" transform="translate(1310 1491.033)" fill="#12263f"/>
    <path id="Trazado_191464" data-name="Trazado 191464" d="M39.5,0C61.315,0,79,4.029,79,9s-17.685,9-39.5,9S0,13.971,0,9,17.685,0,39.5,0Z" transform="translate(1194 1410.034)" fill="#75e3d9"/>
    <path id="Trazado_191465" data-name="Trazado 191465" d="M39.5,0C61.315,0,79,4.253,79,9.5S61.315,19,39.5,19,0,14.747,0,9.5,17.685,0,39.5,0Z" transform="translate(1194 1536.034)" fill="#75e3d9"/>
    <path id="Trazado_190391" data-name="Trazado 190391" d="M-5415.571-10196.932l42.18-20.925,39.049,20.925-39.049,18.332Z" transform="translate(6607.165 11680.379)" fill="#75e3d9"/>
    <path id="Trazado_191466" data-name="Trazado 191466" d="M8.341,0h-1.9L2.729-6.081V0H.825V-9.242h1.9L6.443-3.148V-9.242h1.9ZM9.6-3.5a4.073,4.073,0,0,1,.394-1.822,2.881,2.881,0,0,1,1.133-1.238A3.306,3.306,0,0,1,12.841-7a3.128,3.128,0,0,1,2.269.851,3.414,3.414,0,0,1,.981,2.311l.013.47a3.59,3.59,0,0,1-.882,2.536,3.067,3.067,0,0,1-2.368.955,3.082,3.082,0,0,1-2.371-.952A3.653,3.653,0,0,1,9.6-3.415Zm1.834.13a2.567,2.567,0,0,0,.368,1.5,1.215,1.215,0,0,0,1.054.518A1.217,1.217,0,0,0,13.9-1.864,2.809,2.809,0,0,0,14.27-3.5,2.542,2.542,0,0,0,13.9-4.988a1.217,1.217,0,0,0-1.054-.528,1.2,1.2,0,0,0-1.041.524A2.857,2.857,0,0,0,11.432-3.367Zm8-5.189v1.688H20.6v1.346H19.43v3.428a.818.818,0,0,0,.146.546.733.733,0,0,0,.559.165,2.925,2.925,0,0,0,.54-.044v1.39a3.777,3.777,0,0,1-1.111.165A1.752,1.752,0,0,1,17.6-1.822v-3.7h-1V-6.868h1V-8.557ZM25.606,0a2.037,2.037,0,0,1-.184-.616,2.22,2.22,0,0,1-1.733.743,2.439,2.439,0,0,1-1.673-.584,1.878,1.878,0,0,1-.663-1.473,1.941,1.941,0,0,1,.809-1.676A3.994,3.994,0,0,1,24.5-4.2h.844v-.394a1.132,1.132,0,0,0-.244-.762.961.961,0,0,0-.771-.286,1.093,1.093,0,0,0-.727.222.755.755,0,0,0-.263.609H21.506a1.843,1.843,0,0,1,.368-1.1,2.434,2.434,0,0,1,1.041-.8A3.794,3.794,0,0,1,24.426-7a3,3,0,0,1,2.015.638,2.232,2.232,0,0,1,.746,1.793v2.977A3.284,3.284,0,0,0,27.46-.108V0ZM24.089-1.276a1.58,1.58,0,0,0,.749-.181,1.188,1.188,0,0,0,.508-.486V-3.123h-.686q-1.377,0-1.466.952l-.006.108a.734.734,0,0,0,.241.565A.937.937,0,0,0,24.089-1.276ZM35.579-3.942,31.891-5.23V-7l5.529,2.317v1.492L31.891-.863V-2.634Zm8.8-.793H38.708v-1.5h5.675Zm0,2.749H38.708v-1.5h5.675Zm6.506-7.351v1.511h-.178a3.117,3.117,0,0,0-2,.647A2.631,2.631,0,0,0,47.8-5.434a2.5,2.5,0,0,1,1.86-.749,2.354,2.354,0,0,1,1.917.863,3.461,3.461,0,0,1,.711,2.272,3.4,3.4,0,0,1-.39,1.631,2.8,2.8,0,0,1-1.1,1.136,3.209,3.209,0,0,1-1.615.406A3,3,0,0,1,46.817-.889a3.942,3.942,0,0,1-.9-2.71v-.66a5.933,5.933,0,0,1,.568-2.656A4.166,4.166,0,0,1,48.118-8.7a4.78,4.78,0,0,1,2.466-.638ZM49.1-4.7a1.466,1.466,0,0,0-.806.231,1.393,1.393,0,0,0-.533.611V-3.3a2.47,2.47,0,0,0,.362,1.435,1.169,1.169,0,0,0,1.016.516,1.156,1.156,0,0,0,.955-.466,1.9,1.9,0,0,0,.365-1.207,1.9,1.9,0,0,0-.368-1.216A1.2,1.2,0,0,0,49.1-4.7Z" transform="translate(1205 1488.034)" fill="#12263f"/>
    <path id="Trazado_191467" data-name="Trazado 191467" d="M97.284,0H0" transform="translate(1250.719 1510.574)" fill="none" stroke="#707070" stroke-width="1"/>
    <path id="Trazado_191468" data-name="Trazado 191468" d="M5.537,0l5.537,9.492H0Z" transform="translate(1243.996 1516.277) rotate(-90)" fill="#707070"/>
  </g>
</svg>
