<svg xmlns="http://www.w3.org/2000/svg" width="400" height="193" viewBox="0 0 400 193">
  <g id="Grupo_131815" data-name="Grupo 131815" transform="translate(-600 -2763.947)">
    <g id="Trazado_191488" data-name="Trazado 191488" transform="translate(600 2790.947)" fill="#fff">
      <path d="M 389 165 L 11 165 C 5.486000061035156 165 1 160.5140075683594 1 155 L 1 11 C 1 5.486000061035156 5.486000061035156 1 11 1 L 389 1 C 394.5140075683594 1 399 5.486000061035156 399 11 L 399 155 C 399 160.5140075683594 394.5140075683594 165 389 165 Z" stroke="none"/>
      <path d="M 11 2 C 6.037353515625 2 2 6.037368774414062 2 11 L 2 155 C 2 159.9626312255859 6.037353515625 164 11 164 L 389 164 C 393.962646484375 164 398 159.9626312255859 398 155 L 398 11 C 398 6.037368774414062 393.962646484375 2 389 2 L 11 2 M 11 0 L 389 0 C 395.0751037597656 0 400 4.924835205078125 400 11 L 400 155 C 400 161.0751037597656 395.0751037597656 166 389 166 L 11 166 C 4.924835205078125 166 0 161.0751037597656 0 155 L 0 11 C 0 4.924835205078125 4.924835205078125 0 11 0 Z" stroke="none" fill="#707070"/>
    </g>
    <path id="Trazado_191489" data-name="Trazado 191489" d="M7,0H393a7,7,0,0,1,7,7V45a7,7,0,0,1-7,7H7a7,7,0,0,1-7-7V7A7,7,0,0,1,7,0Z" transform="translate(600 2763.947)" fill="#fdb32b"/>
    <path id="Trazado_116256" data-name="Trazado 116256" d="M5.872,0H169.128A5.629,5.629,0,0,1,175,5.349v35.3A5.629,5.629,0,0,1,169.128,46H5.872A5.629,5.629,0,0,1,0,40.651V5.349A5.629,5.629,0,0,1,5.872,0Z" transform="translate(622 2767.947)" fill="#ffb30b"/>
    <path id="Trazado_191490" data-name="Trazado 191490" d="M1.143,0V-12.8H5.08a5.98,5.98,0,0,1,3.019.76,5.3,5.3,0,0,1,2.079,2.162,6.669,6.669,0,0,1,.747,3.186V-6.1a6.688,6.688,0,0,1-.734,3.173A5.256,5.256,0,0,1,8.121-.773,6.025,6.025,0,0,1,5.106,0ZM3.779-10.661v8.543H5.054A2.863,2.863,0,0,0,7.418-3.129a4.567,4.567,0,0,0,.835-2.892V-6.7a4.64,4.64,0,0,0-.809-2.958A2.854,2.854,0,0,0,5.08-10.661ZM15.354,0H12.806V-9.51h2.549Zm-2.7-11.971a1.251,1.251,0,0,1,.382-.94,1.436,1.436,0,0,1,1.042-.369,1.44,1.44,0,0,1,1.037.369,1.244,1.244,0,0,1,.387.94,1.247,1.247,0,0,1-.391.949,1.443,1.443,0,0,1-1.033.369,1.443,1.443,0,0,1-1.033-.369A1.247,1.247,0,0,1,12.656-11.971ZM22.957,0A2.821,2.821,0,0,1,22.7-.853,3.073,3.073,0,0,1,20.3.176a3.376,3.376,0,0,1-2.316-.809,2.6,2.6,0,0,1-.918-2.039,2.687,2.687,0,0,1,1.121-2.32,5.529,5.529,0,0,1,3.239-.817H22.6v-.545a1.567,1.567,0,0,0-.338-1.055,1.331,1.331,0,0,0-1.068-.4,1.513,1.513,0,0,0-1.006.308,1.045,1.045,0,0,0-.365.844h-2.54a2.551,2.551,0,0,1,.51-1.529,3.37,3.37,0,0,1,1.441-1.1,5.253,5.253,0,0,1,2.092-.4,4.15,4.15,0,0,1,2.791.883,3.09,3.09,0,0,1,1.033,2.483V-2.2a4.546,4.546,0,0,0,.378,2.048V0Zm-2.1-1.767a2.188,2.188,0,0,0,1.037-.25,1.645,1.645,0,0,0,.7-.672V-4.324h-.949q-1.907,0-2.03,1.318l-.009.149a1.017,1.017,0,0,0,.334.782A1.3,1.3,0,0,0,20.856-1.767Zm5.871-3.059A5.573,5.573,0,0,1,27.769-8.35a3.375,3.375,0,0,1,2.808-1.336,2.96,2.96,0,0,1,2.435,1.072l.105-.9h2.3V-.316a4.064,4.064,0,0,1-.567,2.171,3.641,3.641,0,0,1-1.6,1.406,5.608,5.608,0,0,1-2.408.483,5.215,5.215,0,0,1-2.039-.417,3.619,3.619,0,0,1-1.5-1.077L28.433.7a2.975,2.975,0,0,0,2.3,1.063,2.178,2.178,0,0,0,1.573-.541,2.027,2.027,0,0,0,.563-1.534v-.51A2.938,2.938,0,0,1,30.56.176a3.366,3.366,0,0,1-2.773-1.34A5.572,5.572,0,0,1,26.728-4.72Zm2.54.189a3.47,3.47,0,0,0,.519,2.029,1.65,1.65,0,0,0,1.424.735,1.764,1.764,0,0,0,1.661-.871V-6.749a1.76,1.76,0,0,0-1.644-.871,1.66,1.66,0,0,0-1.437.748A3.911,3.911,0,0,0,29.268-4.636ZM42.715-7.128A6.9,6.9,0,0,0,41.8-7.2a1.86,1.86,0,0,0-1.89.976V0h-2.54V-9.51h2.4l.07,1.134a2.354,2.354,0,0,1,2.118-1.31,2.662,2.662,0,0,1,.791.114ZM49.184,0a2.821,2.821,0,0,1-.255-.853,3.073,3.073,0,0,1-2.4,1.028,3.376,3.376,0,0,1-2.316-.809,2.6,2.6,0,0,1-.918-2.039,2.687,2.687,0,0,1,1.121-2.32,5.529,5.529,0,0,1,3.239-.817h1.169v-.545a1.567,1.567,0,0,0-.338-1.055,1.331,1.331,0,0,0-1.068-.4,1.513,1.513,0,0,0-1.006.308,1.045,1.045,0,0,0-.365.844h-2.54a2.551,2.551,0,0,1,.51-1.529,3.37,3.37,0,0,1,1.441-1.1,5.253,5.253,0,0,1,2.092-.4,4.15,4.15,0,0,1,2.791.883,3.09,3.09,0,0,1,1.033,2.483V-2.2A4.546,4.546,0,0,0,51.75-.149V0Zm-2.1-1.767a2.188,2.188,0,0,0,1.037-.25,1.645,1.645,0,0,0,.7-.672V-4.324h-.949q-1.907,0-2.03,1.318l-.009.149a1.017,1.017,0,0,0,.334.782A1.3,1.3,0,0,0,47.083-1.767ZM55.705-9.51l.079,1.063a3.342,3.342,0,0,1,2.733-1.239,2.536,2.536,0,0,1,2.522,1.45A3.265,3.265,0,0,1,63.9-9.686a2.836,2.836,0,0,1,2.3.9,4.141,4.141,0,0,1,.756,2.711V0H64.406V-6.064a1.811,1.811,0,0,0-.316-1.182,1.4,1.4,0,0,0-1.116-.374,1.585,1.585,0,0,0-1.582,1.09L61.4,0H58.86V-6.056a1.789,1.789,0,0,0-.325-1.2,1.416,1.416,0,0,0-1.107-.369,1.646,1.646,0,0,0-1.564.9V0h-2.54V-9.51ZM74.417,0a2.821,2.821,0,0,1-.255-.853,3.073,3.073,0,0,1-2.4,1.028,3.376,3.376,0,0,1-2.316-.809,2.6,2.6,0,0,1-.918-2.039,2.687,2.687,0,0,1,1.121-2.32,5.529,5.529,0,0,1,3.239-.817h1.169v-.545a1.567,1.567,0,0,0-.338-1.055,1.331,1.331,0,0,0-1.068-.4,1.513,1.513,0,0,0-1.006.308,1.045,1.045,0,0,0-.365.844h-2.54a2.551,2.551,0,0,1,.51-1.529,3.37,3.37,0,0,1,1.441-1.1,5.253,5.253,0,0,1,2.092-.4,4.15,4.15,0,0,1,2.791.883,3.09,3.09,0,0,1,1.033,2.483V-2.2a4.546,4.546,0,0,0,.378,2.048V0Zm-2.1-1.767a2.188,2.188,0,0,0,1.037-.25,1.645,1.645,0,0,0,.7-.672V-4.324h-.949q-1.907,0-2.03,1.318l-.009.149a1.017,1.017,0,0,0,.334.782A1.3,1.3,0,0,0,72.316-1.767ZM82.644-4.825a5.731,5.731,0,0,1,1-3.542A3.237,3.237,0,0,1,86.37-9.686a2.913,2.913,0,0,1,2.294,1.037V-13.5h2.549V0H88.919L88.8-1.011A2.989,2.989,0,0,1,86.353.176a3.228,3.228,0,0,1-2.694-1.323A5.916,5.916,0,0,1,82.644-4.825Zm2.54.189a3.754,3.754,0,0,0,.466,2.051A1.517,1.517,0,0,0,87-1.872a1.7,1.7,0,0,0,1.661-.995V-6.625a1.675,1.675,0,0,0-1.644-.995Q85.184-7.62,85.184-4.636ZM97.559.176a4.668,4.668,0,0,1-3.406-1.283,4.561,4.561,0,0,1-1.314-3.419v-.246a5.745,5.745,0,0,1,.554-2.562,4.064,4.064,0,0,1,1.569-1.74,4.4,4.4,0,0,1,2.316-.611,3.947,3.947,0,0,1,3.072,1.23,5,5,0,0,1,1.121,3.489v1.037H95.414a2.36,2.36,0,0,0,.743,1.494,2.245,2.245,0,0,0,1.569.563,2.742,2.742,0,0,0,2.294-1.063l1.248,1.4A3.813,3.813,0,0,1,99.721-.277,5.075,5.075,0,0,1,97.559.176Zm-.29-7.813a1.587,1.587,0,0,0-1.226.512,2.651,2.651,0,0,0-.6,1.466h3.533v-.2a1.891,1.891,0,0,0-.457-1.311A1.638,1.638,0,0,0,97.269-7.638Zm16.5-3.894a12.225,12.225,0,0,0-1.406-.088q-1.723,0-1.723,1.468v.642h1.89v1.863h-1.89V0h-2.549V-7.646h-1.415V-9.51h1.415v-.738a3.249,3.249,0,0,1,1.037-2.544,4.24,4.24,0,0,1,2.883-.892q1.327,0,4.307.281V0h-2.549ZM124.119-.967a3.185,3.185,0,0,1-2.6,1.143A3,3,0,0,1,119.184-.7a3.752,3.752,0,0,1-.822-2.575V-9.51h2.54v6.151q0,1.487,1.354,1.487a1.834,1.834,0,0,0,1.775-.9V-9.51h2.549V0h-2.391Zm7.066-8.543V.519a3.4,3.4,0,0,1-.835,2.448,3.174,3.174,0,0,1-2.408.875,5.165,5.165,0,0,1-1.257-.149V1.679a4.768,4.768,0,0,0,.8.079q1.151,0,1.151-1.222V-9.51Zm-2.751-2.461a1.251,1.251,0,0,1,.382-.94,1.436,1.436,0,0,1,1.042-.369,1.436,1.436,0,0,1,1.042.369,1.251,1.251,0,0,1,.382.94,1.247,1.247,0,0,1-.391.949,1.443,1.443,0,0,1-1.033.369,1.443,1.443,0,0,1-1.033-.369A1.247,1.247,0,0,1,128.435-11.971Zm4.342,7.128a5.64,5.64,0,0,1,.545-2.522,3.989,3.989,0,0,1,1.569-1.714,4.577,4.577,0,0,1,2.377-.606,4.33,4.33,0,0,1,3.142,1.178,4.727,4.727,0,0,1,1.358,3.2l.018.65a4.97,4.97,0,0,1-1.222,3.511A4.247,4.247,0,0,1,137.285.176,4.268,4.268,0,0,1,134-1.143a5.058,5.058,0,0,1-1.226-3.586Zm2.54.18a3.555,3.555,0,0,0,.51,2.073,1.682,1.682,0,0,0,1.459.717,1.686,1.686,0,0,0,1.441-.709,3.89,3.89,0,0,0,.519-2.267,3.519,3.519,0,0,0-.519-2.06,1.686,1.686,0,0,0-1.459-.731,1.658,1.658,0,0,0-1.441.726A3.955,3.955,0,0,0,135.316-4.662Z" transform="translate(637 2796.947)" fill="#12263f"/>
    <path id="Trazado_191491" data-name="Trazado 191491" d="M0,0V139.553" transform="translate(810 2815.947)" fill="none" stroke="#707070" stroke-linecap="round" stroke-width="2"/>
    <path id="Trazado_191254" data-name="Trazado 191254" d="M0,193" transform="translate(823 2763.947)" fill="none" stroke="#707070" stroke-linecap="round" stroke-width="2"/>
    <path id="Trazado_116256-2" data-name="Trazado 116256" d="M4.9,0H141.1A5.139,5.139,0,0,1,146,5.349v35.3A5.139,5.139,0,0,1,141.1,46H4.9A5.139,5.139,0,0,1,0,40.651V5.349A5.139,5.139,0,0,1,4.9,0Z" transform="translate(834 2766.947)" fill="#ffb30b"/>
    <path id="Trazado_191492" data-name="Trazado 191492" d="M3.779-4.509V0H1.143V-12.8H6.135a5.776,5.776,0,0,1,2.536.527,3.886,3.886,0,0,1,1.683,1.5,4.178,4.178,0,0,1,.589,2.21A3.674,3.674,0,0,1,9.655-5.594,5.363,5.363,0,0,1,6.091-4.509Zm0-2.136H6.135a2.316,2.316,0,0,0,1.6-.492,1.79,1.79,0,0,0,.549-1.406,2.111,2.111,0,0,0-.554-1.521,2.068,2.068,0,0,0-1.529-.6H3.779ZM17.736-2.628a.818.818,0,0,0-.461-.734,5.241,5.241,0,0,0-1.481-.479Q12.4-4.553,12.4-6.724a2.613,2.613,0,0,1,1.05-2.114A4.237,4.237,0,0,1,16.2-9.686a4.56,4.56,0,0,1,2.9.853A2.687,2.687,0,0,1,20.18-6.618H17.64a1.229,1.229,0,0,0-.352-.9,1.488,1.488,0,0,0-1.1-.356,1.52,1.52,0,0,0-.993.29.916.916,0,0,0-.352.738.783.783,0,0,0,.4.681,4.114,4.114,0,0,0,1.349.448,11.019,11.019,0,0,1,1.6.426,2.628,2.628,0,0,1,2.013,2.558,2.481,2.481,0,0,1-1.116,2.1,4.815,4.815,0,0,1-2.883.8A5.029,5.029,0,0,1,14.084-.25,3.561,3.561,0,0,1,12.63-1.419a2.716,2.716,0,0,1-.527-1.6h2.408a1.326,1.326,0,0,0,.5,1.037,1.987,1.987,0,0,0,1.248.36,1.839,1.839,0,0,0,1.1-.277A.861.861,0,0,0,17.736-2.628Zm8.481,2.8a4.668,4.668,0,0,1-3.406-1.283A4.561,4.561,0,0,1,21.5-4.526v-.246a5.745,5.745,0,0,1,.554-2.562,4.064,4.064,0,0,1,1.569-1.74,4.4,4.4,0,0,1,2.316-.611,3.947,3.947,0,0,1,3.072,1.23,5,5,0,0,1,1.121,3.489v1.037H24.073a2.36,2.36,0,0,0,.743,1.494,2.245,2.245,0,0,0,1.569.563,2.742,2.742,0,0,0,2.294-1.063l1.248,1.4A3.813,3.813,0,0,1,28.38-.277,5.075,5.075,0,0,1,26.218.176Zm-.29-7.813a1.587,1.587,0,0,0-1.226.512,2.651,2.651,0,0,0-.6,1.466h3.533v-.2a1.891,1.891,0,0,0-.457-1.311A1.638,1.638,0,0,0,25.928-7.638ZM37.266-.967a3.185,3.185,0,0,1-2.6,1.143A3,3,0,0,1,32.331-.7a3.752,3.752,0,0,1-.822-2.575V-9.51h2.54v6.151q0,1.487,1.354,1.487a1.834,1.834,0,0,0,1.775-.9V-9.51h2.549V0H37.336Zm3.981-3.858a5.731,5.731,0,0,1,1-3.542,3.237,3.237,0,0,1,2.729-1.318,2.913,2.913,0,0,1,2.294,1.037V-13.5h2.549V0H47.522L47.4-1.011A2.989,2.989,0,0,1,44.956.176a3.228,3.228,0,0,1-2.694-1.323A5.916,5.916,0,0,1,41.247-4.825Zm2.54.189a3.754,3.754,0,0,0,.466,2.051,1.517,1.517,0,0,0,1.354.713,1.7,1.7,0,0,0,1.661-.995V-6.625a1.675,1.675,0,0,0-1.644-.995Q43.787-7.62,43.787-4.636Zm7.6-.207a5.64,5.64,0,0,1,.545-2.522A3.989,3.989,0,0,1,53.5-9.079a4.577,4.577,0,0,1,2.377-.606,4.33,4.33,0,0,1,3.142,1.178,4.727,4.727,0,0,1,1.358,3.2l.018.65a4.97,4.97,0,0,1-1.222,3.511A4.247,4.247,0,0,1,55.9.176a4.268,4.268,0,0,1-3.283-1.318A5.058,5.058,0,0,1,51.39-4.729Zm2.54.18a3.555,3.555,0,0,0,.51,2.073,1.682,1.682,0,0,0,1.459.717,1.686,1.686,0,0,0,1.441-.709,3.89,3.89,0,0,0,.519-2.267,3.519,3.519,0,0,0-.519-2.06,1.686,1.686,0,0,0-1.459-.731,1.658,1.658,0,0,0-1.441.726A3.955,3.955,0,0,0,53.93-4.662Zm11.988,2.79a1.666,1.666,0,0,0,1.143-.387,1.355,1.355,0,0,0,.457-1.028H69.9a3.258,3.258,0,0,1-.527,1.771A3.48,3.48,0,0,1,67.953-.268a4.442,4.442,0,0,1-1.991.444,4.129,4.129,0,0,1-3.217-1.3A5.13,5.13,0,0,1,61.567-4.7v-.167a5.071,5.071,0,0,1,1.169-3.507,4.08,4.08,0,0,1,3.208-1.31A4,4,0,0,1,68.805-8.67a3.594,3.594,0,0,1,1.094,2.7H67.518a1.745,1.745,0,0,0-.457-1.206,1.524,1.524,0,0,0-1.16-.464,1.53,1.53,0,0,0-1.34.647,3.749,3.749,0,0,0-.453,2.1v.264a3.8,3.8,0,0,0,.448,2.113A1.549,1.549,0,0,0,65.918-1.872Zm5.036-2.971A5.64,5.64,0,0,1,71.5-7.365a3.989,3.989,0,0,1,1.569-1.714,4.577,4.577,0,0,1,2.377-.606,4.33,4.33,0,0,1,3.142,1.178,4.727,4.727,0,0,1,1.358,3.2l.018.65a4.97,4.97,0,0,1-1.222,3.511A4.247,4.247,0,0,1,75.463.176,4.268,4.268,0,0,1,72.18-1.143a5.058,5.058,0,0,1-1.226-3.586Zm2.54.18A3.555,3.555,0,0,0,74-2.589a1.682,1.682,0,0,0,1.459.717A1.686,1.686,0,0,0,76.9-2.581a3.89,3.89,0,0,0,.519-2.267,3.519,3.519,0,0,0-.519-2.06,1.686,1.686,0,0,0-1.459-.731A1.658,1.658,0,0,0,74-6.911,3.955,3.955,0,0,0,73.494-4.662ZM75.946-13.5h2.769L76.28-10.775H74.215Zm5.186,8.675a5.731,5.731,0,0,1,1-3.542,3.237,3.237,0,0,1,2.729-1.318,2.913,2.913,0,0,1,2.294,1.037V-13.5H89.7V0H87.407l-.123-1.011A2.989,2.989,0,0,1,84.841.176a3.228,3.228,0,0,1-2.694-1.323A5.916,5.916,0,0,1,81.132-4.825Zm2.54.189a3.754,3.754,0,0,0,.466,2.051,1.517,1.517,0,0,0,1.354.713,1.7,1.7,0,0,0,1.661-.995V-6.625a1.675,1.675,0,0,0-1.644-.995Q83.672-7.62,83.672-4.636ZM94.351,0H91.8V-9.51h2.549Zm-2.7-11.971a1.251,1.251,0,0,1,.382-.94,1.436,1.436,0,0,1,1.042-.369,1.44,1.44,0,0,1,1.037.369,1.244,1.244,0,0,1,.387.94,1.247,1.247,0,0,1-.391.949,1.443,1.443,0,0,1-1.033.369,1.443,1.443,0,0,1-1.033-.369A1.247,1.247,0,0,1,91.652-11.971Zm4.421,7.146A5.573,5.573,0,0,1,97.115-8.35a3.375,3.375,0,0,1,2.808-1.336,2.96,2.96,0,0,1,2.435,1.072l.105-.9h2.3V-.316a4.064,4.064,0,0,1-.567,2.171,3.641,3.641,0,0,1-1.6,1.406,5.608,5.608,0,0,1-2.408.483,5.215,5.215,0,0,1-2.039-.417,3.619,3.619,0,0,1-1.5-1.077L97.778.7a2.975,2.975,0,0,0,2.3,1.063,2.178,2.178,0,0,0,1.573-.541,2.027,2.027,0,0,0,.563-1.534v-.51a2.938,2.938,0,0,1-2.312.993,3.366,3.366,0,0,1-2.773-1.34A5.572,5.572,0,0,1,96.073-4.72Zm2.54.189a3.47,3.47,0,0,0,.519,2.029,1.65,1.65,0,0,0,1.424.735,1.764,1.764,0,0,0,1.661-.871V-6.749a1.76,1.76,0,0,0-1.644-.871,1.66,1.66,0,0,0-1.437.748A3.911,3.911,0,0,0,98.613-4.636Zm7.708-.207a5.64,5.64,0,0,1,.545-2.522,3.989,3.989,0,0,1,1.569-1.714,4.577,4.577,0,0,1,2.377-.606,4.33,4.33,0,0,1,3.142,1.178,4.727,4.727,0,0,1,1.358,3.2l.018.65a4.97,4.97,0,0,1-1.222,3.511A4.247,4.247,0,0,1,110.83.176a4.268,4.268,0,0,1-3.283-1.318,5.058,5.058,0,0,1-1.226-3.586Zm2.54.18a3.555,3.555,0,0,0,.51,2.073,1.682,1.682,0,0,0,1.459.717,1.686,1.686,0,0,0,1.441-.709,3.89,3.89,0,0,0,.519-2.267,3.519,3.519,0,0,0-.519-2.06,1.686,1.686,0,0,0-1.459-.731,1.658,1.658,0,0,0-1.441.726A3.955,3.955,0,0,0,108.861-4.662Z" transform="translate(849 2795.947)" fill="#12263f"/>
    <path id="Trazado_191493" data-name="Trazado 191493" d="M3.069,13H1.019V3.047H3.069ZM6.658,5.6l.062.854a2.582,2.582,0,0,1,2.126-.991,2.146,2.146,0,0,1,1.75.69,3.221,3.221,0,0,1,.588,2.064V13H9.208V8.27a1.282,1.282,0,0,0-.273-.913,1.224,1.224,0,0,0-.909-.284,1.359,1.359,0,0,0-1.251.711V13H4.8V5.6ZM14.766,13H12.783V5.6h1.982Zm-2.1-9.311a.973.973,0,0,1,.3-.731,1.281,1.281,0,0,1,1.617,0,.967.967,0,0,1,.3.731.97.97,0,0,1-.3.738,1.267,1.267,0,0,1-1.606,0A.97.97,0,0,1,12.667,3.689Zm6.8,7.854a1.3,1.3,0,0,0,.889-.3,1.054,1.054,0,0,0,.355-.8h1.853a2.534,2.534,0,0,1-.41,1.377,2.706,2.706,0,0,1-1.1.971,3.455,3.455,0,0,1-1.548.345A3.211,3.211,0,0,1,17,12.128a3.99,3.99,0,0,1-.916-2.786v-.13a3.944,3.944,0,0,1,.909-2.728,3.174,3.174,0,0,1,2.5-1.019,3.111,3.111,0,0,1,2.225.79,2.8,2.8,0,0,1,.851,2.1H20.713a1.358,1.358,0,0,0-.355-.938,1.321,1.321,0,0,0-1.945.142A2.916,2.916,0,0,0,18.061,9.2V9.4a2.953,2.953,0,0,0,.349,1.643A1.2,1.2,0,0,0,19.469,11.544ZM25.778,13H23.8V5.6h1.982Zm-2.1-9.311a.973.973,0,0,1,.3-.731,1.281,1.281,0,0,1,1.617,0,.967.967,0,0,1,.3.731.97.97,0,0,1-.3.738,1.267,1.267,0,0,1-1.606,0A.97.97,0,0,1,23.68,3.689ZM27.1,9.233a4.387,4.387,0,0,1,.424-1.962,3.1,3.1,0,0,1,1.22-1.333,3.56,3.56,0,0,1,1.849-.472,3.368,3.368,0,0,1,2.444.916,3.676,3.676,0,0,1,1.056,2.488l.014.506a3.866,3.866,0,0,1-.95,2.731,3.683,3.683,0,0,1-5.1,0A3.934,3.934,0,0,1,27.1,9.322Zm1.976.14a2.765,2.765,0,0,0,.4,1.612,1.424,1.424,0,0,0,2.256.007,3.025,3.025,0,0,0,.4-1.763,2.737,2.737,0,0,0-.4-1.6,1.311,1.311,0,0,0-1.135-.568,1.29,1.29,0,0,0-1.121.565A3.076,3.076,0,0,0,29.073,9.374ZM2.358,32.775l3.9,1.374v1.914l-5.886-2.5V31.955l5.886-2.5v1.914ZM12.168,37a2.194,2.194,0,0,1-.2-.663,2.39,2.39,0,0,1-1.866.8,2.626,2.626,0,0,1-1.8-.629,2.023,2.023,0,0,1-.714-1.586,2.09,2.09,0,0,1,.872-1.8,4.3,4.3,0,0,1,2.519-.636h.909v-.424a1.219,1.219,0,0,0-.263-.82,1.035,1.035,0,0,0-.831-.308,1.177,1.177,0,0,0-.783.239.813.813,0,0,0-.284.656H7.752a1.984,1.984,0,0,1,.4-1.189,2.621,2.621,0,0,1,1.121-.858,4.086,4.086,0,0,1,1.627-.311,3.228,3.228,0,0,1,2.17.687,2.4,2.4,0,0,1,.8,1.931v3.206a3.536,3.536,0,0,0,.294,1.593V37Zm-1.634-1.374a1.7,1.7,0,0,0,.807-.195,1.28,1.28,0,0,0,.547-.523V33.637h-.738q-1.483,0-1.579,1.025l-.007.116a.791.791,0,0,0,.26.608A1.009,1.009,0,0,0,10.534,35.626Zm7.93-.082a1.3,1.3,0,0,0,.889-.3,1.054,1.054,0,0,0,.355-.8h1.853a2.534,2.534,0,0,1-.41,1.377,2.706,2.706,0,0,1-1.1.971,3.455,3.455,0,0,1-1.548.345A3.211,3.211,0,0,1,16,36.128a3.99,3.99,0,0,1-.916-2.786v-.13a3.944,3.944,0,0,1,.909-2.728,3.174,3.174,0,0,1,2.5-1.019,3.111,3.111,0,0,1,2.225.79,2.8,2.8,0,0,1,.851,2.1H19.708a1.358,1.358,0,0,0-.355-.938,1.321,1.321,0,0,0-1.945.142,2.916,2.916,0,0,0-.352,1.633V33.4a2.953,2.953,0,0,0,.349,1.643A1.2,1.2,0,0,0,18.464,35.544Zm7.3,0a1.3,1.3,0,0,0,.889-.3,1.054,1.054,0,0,0,.355-.8h1.853a2.534,2.534,0,0,1-.41,1.377,2.706,2.706,0,0,1-1.1.971,3.455,3.455,0,0,1-1.548.345,3.211,3.211,0,0,1-2.5-1.008,3.99,3.99,0,0,1-.916-2.786v-.13a3.944,3.944,0,0,1,.909-2.728,3.174,3.174,0,0,1,2.5-1.019,3.111,3.111,0,0,1,2.225.79,2.8,2.8,0,0,1,.851,2.1H27.009a1.358,1.358,0,0,0-.355-.938,1.321,1.321,0,0,0-1.945.142,2.916,2.916,0,0,0-.352,1.633V33.4a2.953,2.953,0,0,0,.349,1.643A1.2,1.2,0,0,0,25.765,35.544ZM32.074,37H30.092V29.6h1.982Zm-2.1-9.311a.973.973,0,0,1,.3-.731,1.281,1.281,0,0,1,1.617,0,1.044,1.044,0,0,1,0,1.47,1.267,1.267,0,0,1-1.606,0A.97.97,0,0,1,29.976,27.689Zm3.418,5.544a4.387,4.387,0,0,1,.424-1.962,3.1,3.1,0,0,1,1.22-1.333,3.56,3.56,0,0,1,1.849-.472,3.368,3.368,0,0,1,2.444.916,3.676,3.676,0,0,1,1.056,2.488l.014.506a3.866,3.866,0,0,1-.95,2.731,3.683,3.683,0,0,1-5.1,0,3.934,3.934,0,0,1-.954-2.789Zm1.976.14a2.765,2.765,0,0,0,.4,1.612,1.424,1.424,0,0,0,2.256.007,3.025,3.025,0,0,0,.4-1.763,2.737,2.737,0,0,0-.4-1.6,1.311,1.311,0,0,0-1.135-.568,1.29,1.29,0,0,0-1.121.565A3.076,3.076,0,0,0,35.369,33.374ZM37.276,26.5H39.43l-1.894,2.119H35.93Zm6.159,3.1.062.854a2.582,2.582,0,0,1,2.126-.991,2.146,2.146,0,0,1,1.75.69,3.221,3.221,0,0,1,.588,2.064V37H45.985V32.27a1.282,1.282,0,0,0-.273-.913,1.224,1.224,0,0,0-.909-.284,1.359,1.359,0,0,0-1.251.711V37H41.576V29.6ZM54.175,37H52.2V29.385l-2.358.731V28.51l4.122-1.477h.212Zm7.349-4.245-3.972-1.388v-1.9l5.954,2.5v1.606l-5.954,2.5V34.163ZM2.358,44.775l3.9,1.374v1.914l-5.886-2.5V43.955l5.886-2.5v1.914ZM12.168,49a2.194,2.194,0,0,1-.2-.663,2.39,2.39,0,0,1-1.866.8,2.626,2.626,0,0,1-1.8-.629,2.023,2.023,0,0,1-.714-1.586,2.09,2.09,0,0,1,.872-1.8,4.3,4.3,0,0,1,2.519-.636h.909v-.424a1.219,1.219,0,0,0-.263-.82,1.035,1.035,0,0,0-.831-.308,1.177,1.177,0,0,0-.783.239.813.813,0,0,0-.284.656H7.752a1.984,1.984,0,0,1,.4-1.189,2.621,2.621,0,0,1,1.121-.858,4.086,4.086,0,0,1,1.627-.311,3.228,3.228,0,0,1,2.17.687,2.4,2.4,0,0,1,.8,1.931v3.206a3.536,3.536,0,0,0,.294,1.593V49Zm-1.634-1.374a1.7,1.7,0,0,0,.807-.195,1.28,1.28,0,0,0,.547-.523V45.637h-.738q-1.483,0-1.579,1.025l-.007.116a.791.791,0,0,0,.26.608A1.009,1.009,0,0,0,10.534,47.626Zm7.93-.082a1.3,1.3,0,0,0,.889-.3,1.054,1.054,0,0,0,.355-.8h1.853a2.534,2.534,0,0,1-.41,1.377,2.706,2.706,0,0,1-1.1.971,3.455,3.455,0,0,1-1.548.345A3.211,3.211,0,0,1,16,48.128a3.99,3.99,0,0,1-.916-2.786v-.13a3.944,3.944,0,0,1,.909-2.728,3.174,3.174,0,0,1,2.5-1.019,3.111,3.111,0,0,1,2.225.79,2.8,2.8,0,0,1,.851,2.1H19.708a1.358,1.358,0,0,0-.355-.938,1.321,1.321,0,0,0-1.945.142,2.916,2.916,0,0,0-.352,1.633V45.4a2.953,2.953,0,0,0,.349,1.643A1.2,1.2,0,0,0,18.464,47.544Zm7.3,0a1.3,1.3,0,0,0,.889-.3,1.054,1.054,0,0,0,.355-.8h1.853a2.534,2.534,0,0,1-.41,1.377,2.706,2.706,0,0,1-1.1.971,3.455,3.455,0,0,1-1.548.345,3.211,3.211,0,0,1-2.5-1.008,3.99,3.99,0,0,1-.916-2.786v-.13a3.944,3.944,0,0,1,.909-2.728,3.174,3.174,0,0,1,2.5-1.019,3.111,3.111,0,0,1,2.225.79,2.8,2.8,0,0,1,.851,2.1H27.009a1.358,1.358,0,0,0-.355-.938,1.321,1.321,0,0,0-1.945.142,2.916,2.916,0,0,0-.352,1.633V45.4a2.953,2.953,0,0,0,.349,1.643A1.2,1.2,0,0,0,25.765,47.544ZM32.074,49H30.092V41.6h1.982Zm-2.1-9.311a.973.973,0,0,1,.3-.731,1.281,1.281,0,0,1,1.617,0,1.044,1.044,0,0,1,0,1.47,1.267,1.267,0,0,1-1.606,0A.97.97,0,0,1,29.976,39.689Zm3.418,5.544a4.387,4.387,0,0,1,.424-1.962,3.1,3.1,0,0,1,1.22-1.333,3.56,3.56,0,0,1,1.849-.472,3.368,3.368,0,0,1,2.444.916,3.676,3.676,0,0,1,1.056,2.488l.014.506a3.866,3.866,0,0,1-.95,2.731,3.683,3.683,0,0,1-5.1,0,3.934,3.934,0,0,1-.954-2.789Zm1.976.14a2.765,2.765,0,0,0,.4,1.612,1.424,1.424,0,0,0,2.256.007,3.025,3.025,0,0,0,.4-1.763,2.737,2.737,0,0,0-.4-1.6,1.311,1.311,0,0,0-1.135-.568,1.29,1.29,0,0,0-1.121.565A3.076,3.076,0,0,0,35.369,45.374ZM37.276,38.5H39.43l-1.894,2.119H35.93Zm6.159,3.1.062.854a2.582,2.582,0,0,1,2.126-.991,2.146,2.146,0,0,1,1.75.69,3.221,3.221,0,0,1,.588,2.064V49H45.985V44.27a1.282,1.282,0,0,0-.273-.913,1.224,1.224,0,0,0-.909-.284,1.359,1.359,0,0,0-1.251.711V49H41.576V41.6ZM56.2,49H49.376V47.646l3.22-3.432a7.943,7.943,0,0,0,.981-1.265,2.032,2.032,0,0,0,.318-1.025,1.52,1.52,0,0,0-.335-1.042A1.209,1.209,0,0,0,52.6,40.5a1.3,1.3,0,0,0-1.056.461,1.828,1.828,0,0,0-.386,1.213H49.178a3.263,3.263,0,0,1,.434-1.661,3.059,3.059,0,0,1,1.227-1.179,3.73,3.73,0,0,1,1.8-.427,3.531,3.531,0,0,1,2.389.738,2.612,2.612,0,0,1,.851,2.085,3.347,3.347,0,0,1-.383,1.5,8.357,8.357,0,0,1-1.312,1.784l-2.263,2.386H56.2Zm5.325-4.245-3.972-1.388v-1.9l5.954,2.5v1.606l-5.954,2.5V46.163ZM3.032,60.331a2.106,2.106,0,0,1-1.526-.623,2.056,2.056,0,0,1-.637-1.531,2.177,2.177,0,0,1,.286-1.064,2,2,0,0,1,.8-.8,2.143,2.143,0,0,1,2.163.02,1.981,1.981,0,0,1,.791.818,2.223,2.223,0,0,1,.266,1.028,2.1,2.1,0,0,1-.623,1.516A2.04,2.04,0,0,1,3.032,60.331Zm0,12a2.106,2.106,0,0,1-1.526-.623,2.056,2.056,0,0,1-.637-1.531,2.177,2.177,0,0,1,.286-1.064,2,2,0,0,1,.8-.8,2.143,2.143,0,0,1,2.163.02,1.981,1.981,0,0,1,.791.818,2.223,2.223,0,0,1,.266,1.028,2.1,2.1,0,0,1-.623,1.516A2.04,2.04,0,0,1,3.032,72.331Zm0,12a2.106,2.106,0,0,1-1.526-.623,2.056,2.056,0,0,1-.637-1.531,2.177,2.177,0,0,1,.286-1.064,2,2,0,0,1,.8-.8,2.143,2.143,0,0,1,2.163.02,1.981,1.981,0,0,1,.791.818,2.223,2.223,0,0,1,.266,1.028,2.1,2.1,0,0,1-.623,1.516A2.04,2.04,0,0,1,3.032,84.331Zm-.674,8.444,3.9,1.374v1.914l-5.886-2.5V91.955l5.886-2.5v1.914ZM12.168,97a2.194,2.194,0,0,1-.2-.663,2.39,2.39,0,0,1-1.866.8,2.626,2.626,0,0,1-1.8-.629,2.023,2.023,0,0,1-.714-1.586,2.09,2.09,0,0,1,.872-1.8,4.3,4.3,0,0,1,2.519-.636h.909v-.424a1.219,1.219,0,0,0-.263-.82,1.035,1.035,0,0,0-.831-.308,1.177,1.177,0,0,0-.783.239.813.813,0,0,0-.284.656H7.752a1.985,1.985,0,0,1,.4-1.189,2.621,2.621,0,0,1,1.121-.858,4.086,4.086,0,0,1,1.627-.311,3.228,3.228,0,0,1,2.17.687,2.4,2.4,0,0,1,.8,1.931v3.206a3.536,3.536,0,0,0,.294,1.593V97Zm-1.634-1.374a1.7,1.7,0,0,0,.807-.195,1.28,1.28,0,0,0,.547-.523V93.637h-.738q-1.483,0-1.579,1.025l-.007.116a.791.791,0,0,0,.26.608A1.009,1.009,0,0,0,10.534,95.626Zm7.93-.082a1.3,1.3,0,0,0,.889-.3,1.054,1.054,0,0,0,.355-.8h1.853a2.534,2.534,0,0,1-.41,1.377,2.706,2.706,0,0,1-1.1.971,3.455,3.455,0,0,1-1.548.345A3.211,3.211,0,0,1,16,96.128a3.99,3.99,0,0,1-.916-2.786v-.13a3.944,3.944,0,0,1,.909-2.728,3.174,3.174,0,0,1,2.5-1.019,3.111,3.111,0,0,1,2.225.79,2.8,2.8,0,0,1,.851,2.1H19.708a1.358,1.358,0,0,0-.355-.938,1.321,1.321,0,0,0-1.945.142,2.916,2.916,0,0,0-.352,1.633V93.4a2.953,2.953,0,0,0,.349,1.643A1.2,1.2,0,0,0,18.464,95.544Zm7.3,0a1.3,1.3,0,0,0,.889-.3,1.054,1.054,0,0,0,.355-.8h1.853a2.534,2.534,0,0,1-.41,1.377,2.706,2.706,0,0,1-1.1.971,3.455,3.455,0,0,1-1.548.345,3.211,3.211,0,0,1-2.5-1.008,3.99,3.99,0,0,1-.916-2.786v-.13a3.944,3.944,0,0,1,.909-2.728,3.174,3.174,0,0,1,2.5-1.019,3.111,3.111,0,0,1,2.225.79,2.8,2.8,0,0,1,.851,2.1H27.009a1.358,1.358,0,0,0-.355-.938,1.321,1.321,0,0,0-1.945.142,2.916,2.916,0,0,0-.352,1.633V93.4a2.953,2.953,0,0,0,.349,1.643A1.2,1.2,0,0,0,25.765,95.544ZM32.074,97H30.092V89.6h1.982Zm-2.1-9.311a.973.973,0,0,1,.3-.731,1.281,1.281,0,0,1,1.617,0,1.044,1.044,0,0,1,0,1.47,1.267,1.267,0,0,1-1.606,0A.97.97,0,0,1,29.976,87.689Zm3.418,5.544a4.387,4.387,0,0,1,.424-1.962,3.1,3.1,0,0,1,1.22-1.333,3.56,3.56,0,0,1,1.849-.472,3.368,3.368,0,0,1,2.444.916,3.676,3.676,0,0,1,1.056,2.488l.014.506a3.866,3.866,0,0,1-.95,2.731,3.683,3.683,0,0,1-5.1,0,3.934,3.934,0,0,1-.954-2.789Zm1.976.14a2.765,2.765,0,0,0,.4,1.612,1.424,1.424,0,0,0,2.256.007,3.025,3.025,0,0,0,.4-1.763,2.737,2.737,0,0,0-.4-1.6,1.311,1.311,0,0,0-1.135-.568,1.29,1.29,0,0,0-1.121.565A3.076,3.076,0,0,0,35.369,93.374ZM37.276,86.5H39.43l-1.894,2.119H35.93Zm6.159,3.1.062.854a2.582,2.582,0,0,1,2.126-.991,2.146,2.146,0,0,1,1.75.69,3.221,3.221,0,0,1,.588,2.064V97H45.985V92.27a1.282,1.282,0,0,0-.273-.913,1.224,1.224,0,0,0-.909-.284,1.359,1.359,0,0,0-1.251.711V97H41.576V89.6ZM57.682,97H55.631l-3.992-6.549V97H49.588V87.047h2.051l4,6.563V87.047h2.044Zm5.694-4.245L59.4,91.367v-1.9l5.954,2.5v1.606L59.4,96.07V94.163Zm-56.5,24.178H2.939V121H.889v-9.953h6.48v1.661H2.939v2.57H6.877ZM10.514,121H8.531v-7.4h1.982Zm-2.1-9.311a.973.973,0,0,1,.3-.731,1.117,1.117,0,0,1,.81-.287,1.12,1.12,0,0,1,.807.287,1.044,1.044,0,0,1,0,1.47,1.122,1.122,0,0,1-.8.287,1.122,1.122,0,0,1-.8-.287A.97.97,0,0,1,8.415,111.689Zm5.544,1.914.062.854a2.582,2.582,0,0,1,2.126-.991,2.146,2.146,0,0,1,1.75.69,3.221,3.221,0,0,1,.588,2.064V121H16.509v-4.73a1.282,1.282,0,0,0-.273-.913,1.224,1.224,0,0,0-.909-.284,1.359,1.359,0,0,0-1.251.711V121H12.1v-7.4Z" transform="translate(841 2821.947)" fill="#12263f"/>
    <g id="Trazado_116256-3" data-name="Trazado 116256" transform="translate(664.955 2833.947)" fill="#fff">
      <path d="M 81.18121337890625 27.5 L 2.81879997253418 27.5 C 1.540211081504822 27.5 0.5 26.26374435424805 0.5 24.74418830871582 L 0.5 3.255811214447021 C 0.5 1.736255526542664 1.540211081504822 0.5 2.81879997253418 0.5 L 81.18121337890625 0.5 C 82.45980072021484 0.5 83.5 1.736255526542664 83.5 3.255811214447021 L 83.5 24.74418830871582 C 83.5 26.26374435424805 82.45980072021484 27.5 81.18121337890625 27.5 Z" stroke="none"/>
      <path d="M 2.81878662109375 1 C 1.815902709960938 1 1 2.011955261230469 1 3.25581169128418 L 1 24.74418830871582 C 1 25.98804473876953 1.815902709960938 27 2.81878662109375 27 L 81.18121337890625 27 C 82.18409729003906 27 83 25.98804473876953 83 24.74418830871582 L 83 3.25581169128418 C 83 2.011955261230469 82.18409729003906 1 81.18121337890625 1 L 2.81878662109375 1 M 2.81878662109375 0 L 81.18121337890625 0 C 82.73797607421875 0 84 1.457677841186523 84 3.25581169128418 L 84 24.74418830871582 C 84 26.54232215881348 82.73797607421875 28 81.18121337890625 28 L 2.81878662109375 28 C 1.262008666992188 28 0 26.54232215881348 0 24.74418830871582 L 0 3.25581169128418 C 0 1.457677841186523 1.262008666992188 0 2.81878662109375 0 Z" stroke="none" fill="#fdb32b"/>
    </g>
    <path id="Trazado_191494" data-name="Trazado 191494" d="M6.126,0a2.664,2.664,0,0,1-.241-.805A2.9,2.9,0,0,1,3.619.166,3.189,3.189,0,0,1,1.432-.6,2.456,2.456,0,0,1,.564-2.523,2.538,2.538,0,0,1,1.623-4.715a5.222,5.222,0,0,1,3.059-.772h1.1V-6a1.48,1.48,0,0,0-.32-1,1.257,1.257,0,0,0-1.009-.374,1.429,1.429,0,0,0-.95.291.987.987,0,0,0-.344.8H.764a2.41,2.41,0,0,1,.481-1.444A3.182,3.182,0,0,1,2.606-8.77a4.961,4.961,0,0,1,1.976-.378,3.92,3.92,0,0,1,2.635.834,2.918,2.918,0,0,1,.975,2.345v3.893A4.294,4.294,0,0,0,8.55-.141V0ZM4.142-1.668a2.066,2.066,0,0,0,.979-.237,1.554,1.554,0,0,0,.664-.635V-4.084h-.9q-1.8,0-1.917,1.245L2.963-2.7a.96.96,0,0,0,.315.739A1.225,1.225,0,0,0,4.142-1.668Zm9.629-.1a1.573,1.573,0,0,0,1.079-.365,1.28,1.28,0,0,0,.432-.971h2.25a3.077,3.077,0,0,1-.5,1.673A3.286,3.286,0,0,1,15.693-.253a4.2,4.2,0,0,1-1.88.419,3.9,3.9,0,0,1-3.038-1.224A4.845,4.845,0,0,1,9.662-4.441V-4.6a4.79,4.79,0,0,1,1.1-3.312A3.854,3.854,0,0,1,13.8-9.147a3.778,3.778,0,0,1,2.7.959,3.4,3.4,0,0,1,1.033,2.552h-2.25a1.648,1.648,0,0,0-.432-1.139,1.439,1.439,0,0,0-1.1-.438,1.445,1.445,0,0,0-1.266.611,3.541,3.541,0,0,0-.427,1.983v.249a3.586,3.586,0,0,0,.423,2A1.463,1.463,0,0,0,13.771-1.768Zm8.865,0a1.573,1.573,0,0,0,1.079-.365,1.28,1.28,0,0,0,.432-.971H26.4a3.077,3.077,0,0,1-.5,1.673A3.286,3.286,0,0,1,24.558-.253a4.2,4.2,0,0,1-1.88.419A3.9,3.9,0,0,1,19.64-1.058a4.845,4.845,0,0,1-1.112-3.383V-4.6a4.79,4.79,0,0,1,1.1-3.312,3.854,3.854,0,0,1,3.03-1.237,3.778,3.778,0,0,1,2.7.959A3.4,3.4,0,0,1,26.4-5.636h-2.25a1.648,1.648,0,0,0-.432-1.139,1.439,1.439,0,0,0-1.1-.438,1.445,1.445,0,0,0-1.266.611,3.541,3.541,0,0,0-.427,1.983v.249a3.586,3.586,0,0,0,.423,2A1.463,1.463,0,0,0,22.636-1.768ZM30.3,0H27.891V-8.981H30.3ZM27.75-11.306a1.181,1.181,0,0,1,.361-.888,1.356,1.356,0,0,1,.984-.349,1.36,1.36,0,0,1,.979.349,1.175,1.175,0,0,1,.365.888,1.178,1.178,0,0,1-.369.9,1.363,1.363,0,0,1-.975.349,1.363,1.363,0,0,1-.975-.349A1.178,1.178,0,0,1,27.75-11.306ZM31.9-4.574a5.327,5.327,0,0,1,.515-2.382A3.767,3.767,0,0,1,33.9-8.575a4.323,4.323,0,0,1,2.245-.573,4.09,4.09,0,0,1,2.968,1.112,4.464,4.464,0,0,1,1.282,3.021l.017.614a4.694,4.694,0,0,1-1.154,3.316,4.011,4.011,0,0,1-3.1,1.249,4.031,4.031,0,0,1-3.1-1.245A4.777,4.777,0,0,1,31.9-4.466Zm2.4.17a3.357,3.357,0,0,0,.481,1.958,1.588,1.588,0,0,0,1.378.678,1.592,1.592,0,0,0,1.361-.669,3.674,3.674,0,0,0,.49-2.141,3.324,3.324,0,0,0-.49-1.945,1.592,1.592,0,0,0-1.378-.69,1.566,1.566,0,0,0-1.361.686A3.735,3.735,0,0,0,34.3-4.4Zm2.316-8.347h2.615l-2.3,2.573H34.979Zm7.479,3.769.075,1.038a3.136,3.136,0,0,1,2.582-1.2,2.606,2.606,0,0,1,2.125.838A3.912,3.912,0,0,1,49.589-5.8V0h-2.4V-5.744a1.556,1.556,0,0,0-.332-1.108,1.486,1.486,0,0,0-1.1-.344,1.65,1.65,0,0,0-1.519.863V0h-2.4V-8.981ZM61.368,0h-2.4V-9.247L56.1-8.359V-10.31L61.11-12.1h.257Z" transform="translate(674.955 2852.947)" fill="#12263f"/>
    <g id="Trazado_116256-4" data-name="Trazado 116256" transform="translate(664.955 2870.947)" fill="#fff">
      <path d="M 81.18121337890625 27.5 L 2.81879997253418 27.5 C 1.540211081504822 27.5 0.5 26.26374435424805 0.5 24.74418830871582 L 0.5 3.255811214447021 C 0.5 1.736255526542664 1.540211081504822 0.5 2.81879997253418 0.5 L 81.18121337890625 0.5 C 82.45980072021484 0.5 83.5 1.736255526542664 83.5 3.255811214447021 L 83.5 24.74418830871582 C 83.5 26.26374435424805 82.45980072021484 27.5 81.18121337890625 27.5 Z" stroke="none"/>
      <path d="M 2.81878662109375 1 C 1.815902709960938 1 1 2.011955261230469 1 3.25581169128418 L 1 24.74418830871582 C 1 25.98804473876953 1.815902709960938 27 2.81878662109375 27 L 81.18121337890625 27 C 82.18409729003906 27 83 25.98804473876953 83 24.74418830871582 L 83 3.25581169128418 C 83 2.011955261230469 82.18409729003906 1 81.18121337890625 1 L 2.81878662109375 1 M 2.81878662109375 0 L 81.18121337890625 0 C 82.73797607421875 0 84 1.457677841186523 84 3.25581169128418 L 84 24.74418830871582 C 84 26.54232215881348 82.73797607421875 28 81.18121337890625 28 L 2.81878662109375 28 C 1.262008666992188 28 0 26.54232215881348 0 24.74418830871582 L 0 3.25581169128418 C 0 1.457677841186523 1.262008666992188 0 2.81878662109375 0 Z" stroke="none" fill="#fdb32b"/>
    </g>
    <path id="Trazado_191495" data-name="Trazado 191495" d="M6.126,0a2.664,2.664,0,0,1-.241-.805A2.9,2.9,0,0,1,3.619.166,3.189,3.189,0,0,1,1.432-.6,2.456,2.456,0,0,1,.564-2.523,2.538,2.538,0,0,1,1.623-4.715a5.222,5.222,0,0,1,3.059-.772h1.1V-6a1.48,1.48,0,0,0-.32-1,1.257,1.257,0,0,0-1.009-.374,1.429,1.429,0,0,0-.95.291.987.987,0,0,0-.344.8H.764a2.41,2.41,0,0,1,.481-1.444A3.182,3.182,0,0,1,2.606-8.77a4.961,4.961,0,0,1,1.976-.378,3.92,3.92,0,0,1,2.635.834,2.918,2.918,0,0,1,.975,2.345v3.893A4.294,4.294,0,0,0,8.55-.141V0ZM4.142-1.668a2.066,2.066,0,0,0,.979-.237,1.554,1.554,0,0,0,.664-.635V-4.084h-.9q-1.8,0-1.917,1.245L2.963-2.7a.96.96,0,0,0,.315.739A1.225,1.225,0,0,0,4.142-1.668Zm9.629-.1a1.573,1.573,0,0,0,1.079-.365,1.28,1.28,0,0,0,.432-.971h2.25a3.077,3.077,0,0,1-.5,1.673A3.286,3.286,0,0,1,15.693-.253a4.2,4.2,0,0,1-1.88.419,3.9,3.9,0,0,1-3.038-1.224A4.845,4.845,0,0,1,9.662-4.441V-4.6a4.79,4.79,0,0,1,1.1-3.312A3.854,3.854,0,0,1,13.8-9.147a3.778,3.778,0,0,1,2.7.959,3.4,3.4,0,0,1,1.033,2.552h-2.25a1.648,1.648,0,0,0-.432-1.139,1.439,1.439,0,0,0-1.1-.438,1.445,1.445,0,0,0-1.266.611,3.541,3.541,0,0,0-.427,1.983v.249a3.586,3.586,0,0,0,.423,2A1.463,1.463,0,0,0,13.771-1.768Zm8.865,0a1.573,1.573,0,0,0,1.079-.365,1.28,1.28,0,0,0,.432-.971H26.4a3.077,3.077,0,0,1-.5,1.673A3.286,3.286,0,0,1,24.558-.253a4.2,4.2,0,0,1-1.88.419A3.9,3.9,0,0,1,19.64-1.058a4.845,4.845,0,0,1-1.112-3.383V-4.6a4.79,4.79,0,0,1,1.1-3.312,3.854,3.854,0,0,1,3.03-1.237,3.778,3.778,0,0,1,2.7.959A3.4,3.4,0,0,1,26.4-5.636h-2.25a1.648,1.648,0,0,0-.432-1.139,1.439,1.439,0,0,0-1.1-.438,1.445,1.445,0,0,0-1.266.611,3.541,3.541,0,0,0-.427,1.983v.249a3.586,3.586,0,0,0,.423,2A1.463,1.463,0,0,0,22.636-1.768ZM30.3,0H27.891V-8.981H30.3ZM27.75-11.306a1.181,1.181,0,0,1,.361-.888,1.356,1.356,0,0,1,.984-.349,1.36,1.36,0,0,1,.979.349,1.175,1.175,0,0,1,.365.888,1.178,1.178,0,0,1-.369.9,1.363,1.363,0,0,1-.975.349,1.363,1.363,0,0,1-.975-.349A1.178,1.178,0,0,1,27.75-11.306ZM31.9-4.574a5.327,5.327,0,0,1,.515-2.382A3.767,3.767,0,0,1,33.9-8.575a4.323,4.323,0,0,1,2.245-.573,4.09,4.09,0,0,1,2.968,1.112,4.464,4.464,0,0,1,1.282,3.021l.017.614a4.694,4.694,0,0,1-1.154,3.316,4.011,4.011,0,0,1-3.1,1.249,4.031,4.031,0,0,1-3.1-1.245A4.777,4.777,0,0,1,31.9-4.466Zm2.4.17a3.357,3.357,0,0,0,.481,1.958,1.588,1.588,0,0,0,1.378.678,1.592,1.592,0,0,0,1.361-.669,3.674,3.674,0,0,0,.49-2.141,3.324,3.324,0,0,0-.49-1.945,1.592,1.592,0,0,0-1.378-.69,1.566,1.566,0,0,0-1.361.686A3.735,3.735,0,0,0,34.3-4.4Zm2.316-8.347h2.615l-2.3,2.573H34.979Zm7.479,3.769.075,1.038a3.136,3.136,0,0,1,2.582-1.2,2.606,2.606,0,0,1,2.125.838A3.912,3.912,0,0,1,49.589-5.8V0h-2.4V-5.744a1.556,1.556,0,0,0-.332-1.108,1.486,1.486,0,0,0-1.1-.344,1.65,1.65,0,0,0-1.519.863V0h-2.4V-8.981ZM63.825,0H55.541V-1.644l3.91-4.167a9.645,9.645,0,0,0,1.191-1.536,2.467,2.467,0,0,0,.386-1.245,1.846,1.846,0,0,0-.407-1.266,1.468,1.468,0,0,0-1.162-.461,1.584,1.584,0,0,0-1.282.56,2.219,2.219,0,0,0-.469,1.473H55.3a3.962,3.962,0,0,1,.527-2.017,3.715,3.715,0,0,1,1.49-1.432,4.529,4.529,0,0,1,2.183-.519,4.288,4.288,0,0,1,2.9.9,3.172,3.172,0,0,1,1.033,2.532A4.064,4.064,0,0,1,62.97-7a10.148,10.148,0,0,1-1.594,2.167l-2.748,2.9h5.2Z" transform="translate(674.955 2889.947)" fill="#12263f"/>
    <g id="Trazado_116256-5" data-name="Trazado 116256" transform="translate(662.955 2907.947)" fill="#fff">
      <path d="M 84.08054351806641 27.5 L 2.919466733932495 27.5 C 1.585366725921631 27.5 0.5 26.26374435424805 0.5 24.74418830871582 L 0.5 3.255811214447021 C 0.5 1.736255526542664 1.585366725921631 0.5 2.919466733932495 0.5 L 84.08054351806641 0.5 C 85.41463470458984 0.5 86.5 1.736255526542664 86.5 3.255811214447021 L 86.5 24.74418830871582 C 86.5 26.26374435424805 85.41463470458984 27.5 84.08054351806641 27.5 Z" stroke="none"/>
      <path d="M 2.919456481933594 1 C 1.861068725585938 1 1 2.011953353881836 1 3.25581169128418 L 1 24.74418830871582 C 1 25.98804664611816 1.861068725585938 27 2.919456481933594 27 L 84.08054351806641 27 C 85.13893127441406 27 86 25.98804664611816 86 24.74418830871582 L 86 3.25581169128418 C 86 2.011953353881836 85.13893127441406 1 84.08054351806641 1 L 2.919456481933594 1 M 2.919456481933594 0 L 84.08054351806641 0 C 85.69290924072266 0 87 1.457681655883789 87 3.25581169128418 L 87 24.74418830871582 C 87 26.54231834411621 85.69290924072266 28 84.08054351806641 28 L 2.919456481933594 28 C 1.307090759277344 28 0 26.54231834411621 0 24.74418830871582 L 0 3.25581169128418 C 0 1.457681655883789 1.307090759277344 0 2.919456481933594 0 Z" stroke="none" fill="#fdb32b"/>
    </g>
    <path id="Trazado_191496" data-name="Trazado 191496" d="M6.126,0a2.664,2.664,0,0,1-.241-.805A2.9,2.9,0,0,1,3.619.166,3.189,3.189,0,0,1,1.432-.6,2.456,2.456,0,0,1,.564-2.523,2.538,2.538,0,0,1,1.623-4.715a5.222,5.222,0,0,1,3.059-.772h1.1V-6a1.48,1.48,0,0,0-.32-1,1.257,1.257,0,0,0-1.009-.374,1.429,1.429,0,0,0-.95.291.987.987,0,0,0-.344.8H.764a2.41,2.41,0,0,1,.481-1.444A3.182,3.182,0,0,1,2.606-8.77a4.961,4.961,0,0,1,1.976-.378,3.92,3.92,0,0,1,2.635.834,2.918,2.918,0,0,1,.975,2.345v3.893A4.294,4.294,0,0,0,8.55-.141V0ZM4.142-1.668a2.066,2.066,0,0,0,.979-.237,1.554,1.554,0,0,0,.664-.635V-4.084h-.9q-1.8,0-1.917,1.245L2.963-2.7a.96.96,0,0,0,.315.739A1.225,1.225,0,0,0,4.142-1.668Zm9.629-.1a1.573,1.573,0,0,0,1.079-.365,1.28,1.28,0,0,0,.432-.971h2.25a3.077,3.077,0,0,1-.5,1.673A3.286,3.286,0,0,1,15.693-.253a4.2,4.2,0,0,1-1.88.419,3.9,3.9,0,0,1-3.038-1.224A4.845,4.845,0,0,1,9.662-4.441V-4.6a4.79,4.79,0,0,1,1.1-3.312A3.854,3.854,0,0,1,13.8-9.147a3.778,3.778,0,0,1,2.7.959,3.4,3.4,0,0,1,1.033,2.552h-2.25a1.648,1.648,0,0,0-.432-1.139,1.439,1.439,0,0,0-1.1-.438,1.445,1.445,0,0,0-1.266.611,3.541,3.541,0,0,0-.427,1.983v.249a3.586,3.586,0,0,0,.423,2A1.463,1.463,0,0,0,13.771-1.768Zm8.865,0a1.573,1.573,0,0,0,1.079-.365,1.28,1.28,0,0,0,.432-.971H26.4a3.077,3.077,0,0,1-.5,1.673A3.286,3.286,0,0,1,24.558-.253a4.2,4.2,0,0,1-1.88.419A3.9,3.9,0,0,1,19.64-1.058a4.845,4.845,0,0,1-1.112-3.383V-4.6a4.79,4.79,0,0,1,1.1-3.312,3.854,3.854,0,0,1,3.03-1.237,3.778,3.778,0,0,1,2.7.959A3.4,3.4,0,0,1,26.4-5.636h-2.25a1.648,1.648,0,0,0-.432-1.139,1.439,1.439,0,0,0-1.1-.438,1.445,1.445,0,0,0-1.266.611,3.541,3.541,0,0,0-.427,1.983v.249a3.586,3.586,0,0,0,.423,2A1.463,1.463,0,0,0,22.636-1.768ZM30.3,0H27.891V-8.981H30.3ZM27.75-11.306a1.181,1.181,0,0,1,.361-.888,1.356,1.356,0,0,1,.984-.349,1.36,1.36,0,0,1,.979.349,1.175,1.175,0,0,1,.365.888,1.178,1.178,0,0,1-.369.9,1.363,1.363,0,0,1-.975.349,1.363,1.363,0,0,1-.975-.349A1.178,1.178,0,0,1,27.75-11.306ZM31.9-4.574a5.327,5.327,0,0,1,.515-2.382A3.767,3.767,0,0,1,33.9-8.575a4.323,4.323,0,0,1,2.245-.573,4.09,4.09,0,0,1,2.968,1.112,4.464,4.464,0,0,1,1.282,3.021l.017.614a4.694,4.694,0,0,1-1.154,3.316,4.011,4.011,0,0,1-3.1,1.249,4.031,4.031,0,0,1-3.1-1.245A4.777,4.777,0,0,1,31.9-4.466Zm2.4.17a3.357,3.357,0,0,0,.481,1.958,1.588,1.588,0,0,0,1.378.678,1.592,1.592,0,0,0,1.361-.669,3.674,3.674,0,0,0,.49-2.141,3.324,3.324,0,0,0-.49-1.945,1.592,1.592,0,0,0-1.378-.69,1.566,1.566,0,0,0-1.361.686A3.735,3.735,0,0,0,34.3-4.4Zm2.316-8.347h2.615l-2.3,2.573H34.979Zm7.479,3.769.075,1.038a3.136,3.136,0,0,1,2.582-1.2,2.606,2.606,0,0,1,2.125.838A3.912,3.912,0,0,1,49.589-5.8V0h-2.4V-5.744a1.556,1.556,0,0,0-.332-1.108,1.486,1.486,0,0,0-1.1-.344,1.65,1.65,0,0,0-1.519.863V0h-2.4V-8.981ZM65.626,0h-2.49L58.288-7.952V0H55.8V-12.086h2.49l4.856,7.969v-7.969h2.482Z" transform="translate(672.955 2926.947)" fill="#12263f"/>
  </g>
</svg>
