<svg xmlns="http://www.w3.org/2000/svg" width="383" height="307.553" viewBox="0 0 383 307.553">
  <g id="Grupo_131817" data-name="Grupo 131817" transform="translate(-978 -3933.947)">
    <g id="Trazado_191497" data-name="Trazado 191497" transform="translate(978 3933.947)" fill="#fff">
      <path d="M 372 306 L 11 306 C 5.486000061035156 306 1 301.5140075683594 1 296 L 1 11 C 1 5.486000061035156 5.486000061035156 1 11 1 L 372 1 C 377.5140075683594 1 382 5.486000061035156 382 11 L 382 296 C 382 301.5140075683594 377.5140075683594 306 372 306 Z" stroke="none"/>
      <path d="M 11 2 C 6.03741455078125 2 2 6.03741455078125 2 11 L 2 296 C 2 300.9625854492188 6.03741455078125 305 11 305 L 372 305 C 376.9625854492188 305 381 300.9625854492188 381 296 L 381 11 C 381 6.03741455078125 376.9625854492188 2 372 2 L 11 2 M 11 0 L 372 0 C 378.0751647949219 0 383 4.924835205078125 383 11 L 383 296 C 383 302.0751647949219 378.0751647949219 307 372 307 L 11 307 C 4.924835205078125 307 0 302.0751647949219 0 296 L 0 11 C 0 4.924835205078125 4.924835205078125 0 11 0 Z" stroke="none" fill="#707070"/>
    </g>
    <path id="Trazado_191498" data-name="Trazado 191498" d="M7,0H376a7,7,0,0,1,7,7V35a7,7,0,0,1-7,7H7a7,7,0,0,1-7-7V7A7,7,0,0,1,7,0Z" transform="translate(978 3933.947)" fill="#fdb32b"/>
    <path id="Trazado_191499" data-name="Trazado 191499" d="M1.079,0V-12.086H4.8a5.647,5.647,0,0,1,2.851.718A5.007,5.007,0,0,1,9.612-9.326a6.3,6.3,0,0,1,.706,3.009v.556a6.316,6.316,0,0,1-.693,3A4.964,4.964,0,0,1,7.67-.73,5.69,5.69,0,0,1,4.823,0Zm2.49-10.069V-2h1.2a2.7,2.7,0,0,0,2.233-.955,4.314,4.314,0,0,0,.789-2.731v-.639a4.382,4.382,0,0,0-.764-2.793,2.7,2.7,0,0,0-2.233-.95ZM14.5,0H12.094V-8.981H14.5ZM11.953-11.306a1.181,1.181,0,0,1,.361-.888,1.356,1.356,0,0,1,.984-.349,1.36,1.36,0,0,1,.979.349,1.175,1.175,0,0,1,.365.888,1.178,1.178,0,0,1-.369.9,1.363,1.363,0,0,1-.975.349,1.363,1.363,0,0,1-.975-.349A1.178,1.178,0,0,1,11.953-11.306ZM21.682,0a2.664,2.664,0,0,1-.241-.805,2.9,2.9,0,0,1-2.266.971A3.189,3.189,0,0,1,16.988-.6a2.456,2.456,0,0,1-.867-1.926,2.538,2.538,0,0,1,1.058-2.191,5.222,5.222,0,0,1,3.059-.772h1.1V-6a1.48,1.48,0,0,0-.32-1,1.257,1.257,0,0,0-1.009-.374,1.429,1.429,0,0,0-.95.291.987.987,0,0,0-.344.8h-2.4A2.41,2.41,0,0,1,16.8-7.728,3.182,3.182,0,0,1,18.162-8.77a4.961,4.961,0,0,1,1.976-.378,3.92,3.92,0,0,1,2.635.834,2.918,2.918,0,0,1,.975,2.345v3.893a4.294,4.294,0,0,0,.357,1.934V0ZM19.7-1.668a2.066,2.066,0,0,0,.979-.237,1.554,1.554,0,0,0,.664-.635V-4.084h-.9q-1.8,0-1.917,1.245l-.008.141a.96.96,0,0,0,.315.739A1.225,1.225,0,0,0,19.7-1.668Zm5.545-2.889a5.264,5.264,0,0,1,.984-3.329,3.187,3.187,0,0,1,2.652-1.262,2.8,2.8,0,0,1,2.3,1.013l.1-.847h2.175V-.3a3.839,3.839,0,0,1-.535,2.05A3.439,3.439,0,0,1,31.41,3.08a5.3,5.3,0,0,1-2.274.457,4.925,4.925,0,0,1-1.926-.394,3.418,3.418,0,0,1-1.419-1.017L26.853.664a2.81,2.81,0,0,0,2.175,1,2.057,2.057,0,0,0,1.486-.51,1.915,1.915,0,0,0,.531-1.448V-.772a2.775,2.775,0,0,1-2.183.938A3.179,3.179,0,0,1,26.243-1.1a5.262,5.262,0,0,1-1-3.358Zm2.4.179a3.278,3.278,0,0,0,.49,1.916,1.558,1.558,0,0,0,1.345.694,1.666,1.666,0,0,0,1.569-.823V-6.374A1.662,1.662,0,0,0,29.493-7.2a1.568,1.568,0,0,0-1.357.707A3.694,3.694,0,0,0,27.642-4.379Zm12.7-2.353a6.517,6.517,0,0,0-.863-.066,1.757,1.757,0,0,0-1.785.921V0h-2.4V-8.981h2.266l.066,1.071a2.223,2.223,0,0,1,2-1.237,2.514,2.514,0,0,1,.747.108ZM46.451,0a2.664,2.664,0,0,1-.241-.805,2.9,2.9,0,0,1-2.266.971A3.189,3.189,0,0,1,41.757-.6a2.456,2.456,0,0,1-.867-1.926,2.538,2.538,0,0,1,1.058-2.191,5.222,5.222,0,0,1,3.059-.772h1.1V-6a1.48,1.48,0,0,0-.32-1,1.257,1.257,0,0,0-1.009-.374,1.429,1.429,0,0,0-.95.291.987.987,0,0,0-.344.8h-2.4a2.41,2.41,0,0,1,.481-1.444A3.182,3.182,0,0,1,42.932-8.77a4.961,4.961,0,0,1,1.976-.378,3.92,3.92,0,0,1,2.635.834,2.918,2.918,0,0,1,.975,2.345v3.893a4.294,4.294,0,0,0,.357,1.934V0ZM44.467-1.668a2.066,2.066,0,0,0,.979-.237,1.554,1.554,0,0,0,.664-.635V-4.084h-.9q-1.8,0-1.917,1.245l-.008.141a.96.96,0,0,0,.315.739A1.225,1.225,0,0,0,44.467-1.668ZM52.61-8.981l.075,1a3.156,3.156,0,0,1,2.582-1.17,2.4,2.4,0,0,1,2.382,1.37,3.084,3.084,0,0,1,2.7-1.37,2.679,2.679,0,0,1,2.175.851,3.911,3.911,0,0,1,.714,2.561V0H60.828V-5.728a1.71,1.71,0,0,0-.3-1.116A1.324,1.324,0,0,0,59.475-7.2a1.5,1.5,0,0,0-1.494,1.029L57.989,0h-2.4V-5.719a1.689,1.689,0,0,0-.307-1.129A1.337,1.337,0,0,0,54.237-7.2a1.555,1.555,0,0,0-1.478.847V0h-2.4V-8.981ZM70.283,0a2.664,2.664,0,0,1-.241-.805,2.9,2.9,0,0,1-2.266.971A3.189,3.189,0,0,1,65.589-.6a2.456,2.456,0,0,1-.867-1.926A2.538,2.538,0,0,1,65.78-4.715a5.222,5.222,0,0,1,3.059-.772h1.1V-6a1.48,1.48,0,0,0-.32-1,1.257,1.257,0,0,0-1.009-.374,1.429,1.429,0,0,0-.95.291.987.987,0,0,0-.344.8h-2.4A2.41,2.41,0,0,1,65.4-7.728,3.182,3.182,0,0,1,66.763-8.77a4.961,4.961,0,0,1,1.976-.378,3.92,3.92,0,0,1,2.635.834,2.918,2.918,0,0,1,.975,2.345v3.893a4.294,4.294,0,0,0,.357,1.934V0ZM68.3-1.668a2.066,2.066,0,0,0,.979-.237,1.554,1.554,0,0,0,.664-.635V-4.084h-.9q-1.8,0-1.917,1.245L67.12-2.7a.96.96,0,0,0,.315.739A1.225,1.225,0,0,0,68.3-1.668Zm9.753-2.889A5.413,5.413,0,0,1,78.994-7.9a3.057,3.057,0,0,1,2.577-1.245,2.751,2.751,0,0,1,2.167.979V-12.75h2.407V0H83.979l-.116-.955A2.823,2.823,0,0,1,81.555.166a3.049,3.049,0,0,1-2.544-1.249A5.587,5.587,0,0,1,78.052-4.557Zm2.4.179a3.546,3.546,0,0,0,.44,1.937,1.433,1.433,0,0,0,1.278.673,1.605,1.605,0,0,0,1.569-.939v-3.55A1.582,1.582,0,0,0,82.186-7.2Q80.451-7.2,80.451-4.379ZM92.139.166a4.409,4.409,0,0,1-3.217-1.212,4.308,4.308,0,0,1-1.241-3.229v-.232a5.426,5.426,0,0,1,.523-2.42,3.838,3.838,0,0,1,1.482-1.644,4.159,4.159,0,0,1,2.187-.577,3.727,3.727,0,0,1,2.9,1.162,4.722,4.722,0,0,1,1.058,3.3v.979H90.113a2.229,2.229,0,0,0,.7,1.411,2.12,2.12,0,0,0,1.482.531,2.589,2.589,0,0,0,2.167-1l1.179,1.32A3.6,3.6,0,0,1,94.181-.261,4.793,4.793,0,0,1,92.139.166Zm-.274-7.379a1.5,1.5,0,0,0-1.158.484,2.5,2.5,0,0,0-.569,1.384h3.337v-.192a1.786,1.786,0,0,0-.432-1.238A1.547,1.547,0,0,0,91.865-7.213Zm15.581-3.677a11.546,11.546,0,0,0-1.328-.083q-1.627,0-1.627,1.386v.606h1.785v1.76H104.49V0h-2.407V-7.222h-1.336v-1.76h1.336v-.7a3.069,3.069,0,0,1,.979-2.4,4,4,0,0,1,2.723-.843q1.253,0,4.067.266V0h-2.407Zm9.778,9.978A3.008,3.008,0,0,1,114.767.166a2.837,2.837,0,0,1-2.2-.83,3.543,3.543,0,0,1-.776-2.432V-8.981h2.4v5.809q0,1.4,1.278,1.4a1.732,1.732,0,0,0,1.677-.848V-8.981h2.407V0H117.29ZM123.9-8.981V.49a3.213,3.213,0,0,1-.789,2.312,3,3,0,0,1-2.274.826,4.878,4.878,0,0,1-1.187-.141v-1.9a4.5,4.5,0,0,0,.755.075q1.087,0,1.087-1.154V-8.981Zm-2.6-2.324a1.181,1.181,0,0,1,.361-.888,1.356,1.356,0,0,1,.984-.349,1.356,1.356,0,0,1,.984.349,1.181,1.181,0,0,1,.361.888,1.178,1.178,0,0,1-.369.9,1.363,1.363,0,0,1-.975.349,1.363,1.363,0,0,1-.975-.349A1.178,1.178,0,0,1,121.3-11.306Zm4.1,6.732a5.326,5.326,0,0,1,.515-2.382A3.768,3.768,0,0,1,127.4-8.575a4.323,4.323,0,0,1,2.245-.573,4.09,4.09,0,0,1,2.968,1.112,4.464,4.464,0,0,1,1.282,3.021l.017.614a4.694,4.694,0,0,1-1.154,3.316,4.011,4.011,0,0,1-3.1,1.249,4.031,4.031,0,0,1-3.1-1.245A4.777,4.777,0,0,1,125.4-4.466Zm2.4.17a3.357,3.357,0,0,0,.481,1.958,1.588,1.588,0,0,0,1.378.678,1.592,1.592,0,0,0,1.361-.669,3.674,3.674,0,0,0,.49-2.141,3.324,3.324,0,0,0-.49-1.945,1.592,1.592,0,0,0-1.378-.69,1.566,1.566,0,0,0-1.361.686A3.736,3.736,0,0,0,127.8-4.4Z" transform="translate(996 3960.947)" fill="#12263f"/>
    <path id="Trazado_191500" data-name="Trazado 191500" d="M0,0V264" transform="translate(1147.585 3976.5)" fill="none" stroke="#707070" stroke-linecap="round" stroke-width="2"/>
    <path id="Trazado_191501" data-name="Trazado 191501" d="M3.359-4.008V0H1.016V-11.375H5.453a5.134,5.134,0,0,1,2.254.469A3.454,3.454,0,0,1,9.2-9.574a3.714,3.714,0,0,1,.523,1.965A3.266,3.266,0,0,1,8.582-4.973a4.767,4.767,0,0,1-3.168.965Zm0-1.9H5.453a2.059,2.059,0,0,0,1.418-.437,1.591,1.591,0,0,0,.488-1.25,1.876,1.876,0,0,0-.492-1.352,1.839,1.839,0,0,0-1.359-.531H3.359Zm12.406,3.57a.727.727,0,0,0-.41-.652,4.659,4.659,0,0,0-1.316-.426q-3.016-.633-3.016-2.562a2.323,2.323,0,0,1,.934-1.879A3.766,3.766,0,0,1,14.4-8.609a4.053,4.053,0,0,1,2.574.758,2.388,2.388,0,0,1,.965,1.969H15.68a1.092,1.092,0,0,0-.312-.8A1.322,1.322,0,0,0,14.391-7a1.351,1.351,0,0,0-.883.258.814.814,0,0,0-.312.656.7.7,0,0,0,.355.605,3.657,3.657,0,0,0,1.2.4,9.8,9.8,0,0,1,1.422.379A2.336,2.336,0,0,1,17.961-2.43a2.2,2.2,0,0,1-.992,1.871,4.28,4.28,0,0,1-2.562.715A4.47,4.47,0,0,1,12.52-.223a3.166,3.166,0,0,1-1.293-1.039,2.414,2.414,0,0,1-.469-1.426H12.9a1.179,1.179,0,0,0,.445.922,1.766,1.766,0,0,0,1.109.32,1.635,1.635,0,0,0,.98-.246A.766.766,0,0,0,15.766-2.336ZM23.3.156A4.15,4.15,0,0,1,20.277-.984a4.054,4.054,0,0,1-1.168-3.039v-.219A5.106,5.106,0,0,1,19.6-6.52,3.612,3.612,0,0,1,21-8.066a3.914,3.914,0,0,1,2.059-.543,3.508,3.508,0,0,1,2.73,1.094,4.444,4.444,0,0,1,1,3.1v.922H21.4a2.1,2.1,0,0,0,.66,1.328,2,2,0,0,0,1.395.5,2.437,2.437,0,0,0,2.039-.945L26.6-1.367A3.389,3.389,0,0,1,25.227-.246,4.511,4.511,0,0,1,23.3.156Zm-.258-6.945a1.411,1.411,0,0,0-1.09.455,2.357,2.357,0,0,0-.535,1.3h3.141v-.181a1.681,1.681,0,0,0-.406-1.165A1.456,1.456,0,0,0,23.047-6.789ZM33.125-.859A2.831,2.831,0,0,1,30.813.156a2.67,2.67,0,0,1-2.074-.781,3.335,3.335,0,0,1-.73-2.289V-8.453h2.258v5.467q0,1.322,1.2,1.322a1.63,1.63,0,0,0,1.578-.8V-8.453h2.266V0H33.188Zm3.539-3.43a5.094,5.094,0,0,1,.887-3.148,2.877,2.877,0,0,1,2.426-1.172,2.589,2.589,0,0,1,2.039.922V-12h2.266V0H42.242l-.109-.9A2.657,2.657,0,0,1,39.961.156,2.869,2.869,0,0,1,37.566-1.02,5.258,5.258,0,0,1,36.664-4.289Zm2.258.168A3.337,3.337,0,0,0,39.336-2.3a1.349,1.349,0,0,0,1.2.634,1.511,1.511,0,0,0,1.477-.884V-5.889a1.489,1.489,0,0,0-1.461-.884Q38.922-6.773,38.922-4.121ZM45.68-4.3a5.013,5.013,0,0,1,.484-2.242A3.546,3.546,0,0,1,47.559-8.07a4.069,4.069,0,0,1,2.113-.539,3.849,3.849,0,0,1,2.793,1.047,4.2,4.2,0,0,1,1.207,2.844l.016.578A4.418,4.418,0,0,1,52.6-1.02,3.775,3.775,0,0,1,49.688.156,3.793,3.793,0,0,1,46.77-1.016,4.5,4.5,0,0,1,45.68-4.2Zm2.258.16A3.16,3.16,0,0,0,48.391-2.3a1.5,1.5,0,0,0,1.3.638,1.5,1.5,0,0,0,1.281-.63,3.457,3.457,0,0,0,.461-2.015,3.128,3.128,0,0,0-.461-1.831,1.5,1.5,0,0,0-1.3-.649,1.474,1.474,0,0,0-1.281.646A3.516,3.516,0,0,0,47.938-4.144Zm10.656,2.48a1.481,1.481,0,0,0,1.016-.344,1.2,1.2,0,0,0,.406-.914h2.117a2.9,2.9,0,0,1-.469,1.574A3.093,3.093,0,0,1,60.4-.238a3.949,3.949,0,0,1-1.77.395A3.67,3.67,0,0,1,55.773-1,4.56,4.56,0,0,1,54.727-4.18v-.148a4.508,4.508,0,0,1,1.039-3.117,3.627,3.627,0,0,1,2.852-1.164,3.555,3.555,0,0,1,2.543.9,3.2,3.2,0,0,1,.973,2.4H60.016a1.551,1.551,0,0,0-.406-1.072,1.354,1.354,0,0,0-1.031-.412,1.36,1.36,0,0,0-1.191.575,3.333,3.333,0,0,0-.4,1.866v.235a3.375,3.375,0,0,0,.4,1.878A1.377,1.377,0,0,0,58.594-1.664ZM63.07-4.3a5.013,5.013,0,0,1,.484-2.242A3.546,3.546,0,0,1,64.949-8.07a4.069,4.069,0,0,1,2.113-.539,3.849,3.849,0,0,1,2.793,1.047,4.2,4.2,0,0,1,1.207,2.844l.016.578A4.418,4.418,0,0,1,69.992-1.02,3.775,3.775,0,0,1,67.078.156,3.793,3.793,0,0,1,64.16-1.016,4.5,4.5,0,0,1,63.07-4.2Zm2.258.16A3.16,3.16,0,0,0,65.781-2.3a1.5,1.5,0,0,0,1.3.638,1.5,1.5,0,0,0,1.281-.63,3.457,3.457,0,0,0,.461-2.015,3.128,3.128,0,0,0-.461-1.831,1.5,1.5,0,0,0-1.3-.649,1.474,1.474,0,0,0-1.281.646A3.516,3.516,0,0,0,65.328-4.144ZM67.508-12h2.461L67.8-9.578H65.969Zm4.609,7.711A5.094,5.094,0,0,1,73-7.437,2.877,2.877,0,0,1,75.43-8.609a2.589,2.589,0,0,1,2.039.922V-12h2.266V0H77.7l-.109-.9A2.657,2.657,0,0,1,75.414.156,2.869,2.869,0,0,1,73.02-1.02,5.258,5.258,0,0,1,72.117-4.289Zm2.258.168A3.337,3.337,0,0,0,74.789-2.3a1.349,1.349,0,0,0,1.2.634,1.511,1.511,0,0,0,1.477-.884V-5.889a1.489,1.489,0,0,0-1.461-.884Q74.375-6.773,74.375-4.121ZM83.867,0H81.6V-8.453h2.266Zm-2.4-10.641a1.112,1.112,0,0,1,.34-.836,1.277,1.277,0,0,1,.926-.328,1.28,1.28,0,0,1,.922.328,1.105,1.105,0,0,1,.344.836,1.108,1.108,0,0,1-.348.844,1.283,1.283,0,0,1-.918.328,1.283,1.283,0,0,1-.918-.328A1.108,1.108,0,0,1,81.469-10.641ZM85.4-4.289a4.954,4.954,0,0,1,.926-3.133,3,3,0,0,1,2.5-1.187,2.631,2.631,0,0,1,2.164.953l.094-.8h2.047V-.281a3.613,3.613,0,0,1-.5,1.93A3.236,3.236,0,0,1,91.2,2.9a4.985,4.985,0,0,1-2.141.43,4.635,4.635,0,0,1-1.812-.371A3.217,3.217,0,0,1,85.914,2l1-1.375a2.645,2.645,0,0,0,2.047.945,1.936,1.936,0,0,0,1.4-.48,1.8,1.8,0,0,0,.5-1.363V-.727A2.612,2.612,0,0,1,88.8.156,2.992,2.992,0,0,1,86.34-1.035,4.953,4.953,0,0,1,85.4-4.2Zm2.258.168a3.085,3.085,0,0,0,.461,1.8,1.466,1.466,0,0,0,1.266.653,1.568,1.568,0,0,0,1.477-.775V-6A1.564,1.564,0,0,0,89.4-6.773a1.476,1.476,0,0,0-1.277.665A3.477,3.477,0,0,0,87.656-4.121ZM94.508-4.3a5.013,5.013,0,0,1,.484-2.242A3.546,3.546,0,0,1,96.387-8.07,4.069,4.069,0,0,1,98.5-8.609a3.849,3.849,0,0,1,2.793,1.047A4.2,4.2,0,0,1,102.5-4.719l.016.578A4.418,4.418,0,0,1,101.43-1.02,3.775,3.775,0,0,1,98.516.156,3.793,3.793,0,0,1,95.6-1.016,4.5,4.5,0,0,1,94.508-4.2Zm2.258.16A3.16,3.16,0,0,0,97.219-2.3a1.5,1.5,0,0,0,1.3.638,1.5,1.5,0,0,0,1.281-.63,3.457,3.457,0,0,0,.461-2.015A3.128,3.128,0,0,0,99.8-6.14a1.5,1.5,0,0,0-1.3-.649,1.474,1.474,0,0,0-1.281.646A3.516,3.516,0,0,0,96.766-4.144Z" transform="translate(1197 3961.947)" fill="#12263f"/>
    <path id="Trazado_191502" data-name="Trazado 191502" d="M3.069,13H1.019V3.047H3.069ZM6.658,5.6l.062.854a2.582,2.582,0,0,1,2.126-.991,2.146,2.146,0,0,1,1.75.69,3.221,3.221,0,0,1,.588,2.064V13H9.208V8.27a1.282,1.282,0,0,0-.273-.913,1.224,1.224,0,0,0-.909-.284,1.359,1.359,0,0,0-1.251.711V13H4.8V5.6ZM14.766,13H12.783V5.6h1.982Zm-2.1-9.311a.973.973,0,0,1,.3-.731,1.281,1.281,0,0,1,1.617,0,.967.967,0,0,1,.3.731.97.97,0,0,1-.3.738,1.267,1.267,0,0,1-1.606,0A.97.97,0,0,1,12.667,3.689Zm6.8,7.854a1.3,1.3,0,0,0,.889-.3,1.054,1.054,0,0,0,.355-.8h1.853a2.534,2.534,0,0,1-.41,1.377,2.706,2.706,0,0,1-1.1.971,3.455,3.455,0,0,1-1.548.345A3.211,3.211,0,0,1,17,12.128a3.99,3.99,0,0,1-.916-2.786v-.13a3.944,3.944,0,0,1,.909-2.728,3.174,3.174,0,0,1,2.5-1.019,3.111,3.111,0,0,1,2.225.79,2.8,2.8,0,0,1,.851,2.1H20.713a1.358,1.358,0,0,0-.355-.938,1.321,1.321,0,0,0-1.945.142A2.916,2.916,0,0,0,18.061,9.2V9.4a2.953,2.953,0,0,0,.349,1.643A1.2,1.2,0,0,0,19.469,11.544ZM25.778,13H23.8V5.6h1.982Zm-2.1-9.311a.973.973,0,0,1,.3-.731,1.281,1.281,0,0,1,1.617,0,.967.967,0,0,1,.3.731.97.97,0,0,1-.3.738,1.267,1.267,0,0,1-1.606,0A.97.97,0,0,1,23.68,3.689ZM27.1,9.233a4.387,4.387,0,0,1,.424-1.962,3.1,3.1,0,0,1,1.22-1.333,3.56,3.56,0,0,1,1.849-.472,3.368,3.368,0,0,1,2.444.916,3.676,3.676,0,0,1,1.056,2.488l.014.506a3.866,3.866,0,0,1-.95,2.731,3.683,3.683,0,0,1-5.1,0A3.934,3.934,0,0,1,27.1,9.322Zm1.976.14a2.765,2.765,0,0,0,.4,1.612,1.424,1.424,0,0,0,2.256.007,3.025,3.025,0,0,0,.4-1.763,2.737,2.737,0,0,0-.4-1.6,1.311,1.311,0,0,0-1.135-.568,1.29,1.29,0,0,0-1.121.565A3.076,3.076,0,0,0,29.073,9.374ZM8.7,33.685a3.522,3.522,0,0,1-1.186,2.529,4.165,4.165,0,0,1-2.82.923,3.745,3.745,0,0,1-3.011-1.289,5.284,5.284,0,0,1-1.1-3.538V31.7a5.966,5.966,0,0,1,.506-2.529A3.791,3.791,0,0,1,2.54,27.495a4.05,4.05,0,0,1,2.184-.584,4.058,4.058,0,0,1,2.775.923,3.785,3.785,0,0,1,1.217,2.591H6.665a2.079,2.079,0,0,0-.537-1.4,1.987,1.987,0,0,0-1.4-.434,1.742,1.742,0,0,0-1.535.735,4.118,4.118,0,0,0-.523,2.28v.752a4.408,4.408,0,0,0,.489,2.358,1.71,1.71,0,0,0,1.542.745,2.025,2.025,0,0,0,1.418-.434,1.961,1.961,0,0,0,.537-1.343Zm.909-.451a4.387,4.387,0,0,1,.424-1.962,3.1,3.1,0,0,1,1.22-1.333,3.56,3.56,0,0,1,1.849-.472,3.368,3.368,0,0,1,2.444.916A3.676,3.676,0,0,1,16.6,32.871l.014.506a3.866,3.866,0,0,1-.95,2.731,3.3,3.3,0,0,1-2.55,1.029,3.319,3.319,0,0,1-2.553-1.025,3.934,3.934,0,0,1-.954-2.789Zm1.976.14a2.765,2.765,0,0,0,.4,1.612,1.424,1.424,0,0,0,2.256.007,3.025,3.025,0,0,0,.4-1.763,2.737,2.737,0,0,0-.4-1.6A1.311,1.311,0,0,0,13.1,31.06a1.29,1.29,0,0,0-1.121.565A3.076,3.076,0,0,0,11.587,33.374Zm8.066-3.77.062.854a2.582,2.582,0,0,1,2.126-.991,2.146,2.146,0,0,1,1.75.69,3.221,3.221,0,0,1,.588,2.064V37H22.2V32.27a1.282,1.282,0,0,0-.273-.913,1.224,1.224,0,0,0-.909-.284,1.359,1.359,0,0,0-1.251.711V37H17.794V29.6Zm8.388-1.818V29.6h1.265v1.449H28.041v3.691a.881.881,0,0,0,.157.588.79.79,0,0,0,.6.178,3.15,3.15,0,0,0,.581-.048v1.5a4.067,4.067,0,0,1-1.2.178,1.886,1.886,0,0,1-2.119-2.1V31.053h-1.08V29.6h1.08V27.785ZM34.692,37a2.194,2.194,0,0,1-.2-.663,2.39,2.39,0,0,1-1.866.8,2.626,2.626,0,0,1-1.8-.629,2.023,2.023,0,0,1-.714-1.586,2.09,2.09,0,0,1,.872-1.8,4.3,4.3,0,0,1,2.519-.636h.909v-.424a1.219,1.219,0,0,0-.263-.82,1.035,1.035,0,0,0-.831-.308,1.177,1.177,0,0,0-.783.239.813.813,0,0,0-.284.656H30.276a1.985,1.985,0,0,1,.4-1.189,2.621,2.621,0,0,1,1.121-.858,4.086,4.086,0,0,1,1.627-.311,3.228,3.228,0,0,1,2.17.687,2.4,2.4,0,0,1,.8,1.931v3.206a3.536,3.536,0,0,0,.294,1.593V37Zm-1.634-1.374a1.7,1.7,0,0,0,.807-.195,1.28,1.28,0,0,0,.547-.523V33.637h-.738q-1.483,0-1.579,1.025l-.007.116a.791.791,0,0,0,.26.608A1.009,1.009,0,0,0,33.059,35.626ZM37.6,33.247a4.457,4.457,0,0,1,.776-2.755A2.517,2.517,0,0,1,40.5,29.467a2.265,2.265,0,0,1,1.784.807V26.5H44.27V37H42.485l-.1-.786a2.325,2.325,0,0,1-1.9.923,2.511,2.511,0,0,1-2.1-1.029A4.6,4.6,0,0,1,37.6,33.247Zm1.976.147a2.92,2.92,0,0,0,.362,1.6A1.18,1.18,0,0,0,41,35.544a1.322,1.322,0,0,0,1.292-.774V31.847a1.3,1.3,0,0,0-1.278-.774Q39.58,31.073,39.58,33.394Zm5.913-.161a4.387,4.387,0,0,1,.424-1.962,3.1,3.1,0,0,1,1.22-1.333,3.56,3.56,0,0,1,1.849-.472,3.368,3.368,0,0,1,2.444.916,3.676,3.676,0,0,1,1.056,2.488l.014.506a3.866,3.866,0,0,1-.95,2.731,3.683,3.683,0,0,1-5.1,0,3.934,3.934,0,0,1-.954-2.789Zm1.976.14a2.765,2.765,0,0,0,.4,1.612,1.424,1.424,0,0,0,2.256.007,3.025,3.025,0,0,0,.4-1.763,2.737,2.737,0,0,0-.4-1.6,1.311,1.311,0,0,0-1.135-.568,1.29,1.29,0,0,0-1.121.565A3.076,3.076,0,0,0,47.469,33.374Zm10.4-1.918a5.367,5.367,0,0,0-.711-.055,1.447,1.447,0,0,0-1.47.759V37H53.717V29.6h1.866l.055.882a1.831,1.831,0,0,1,1.647-1.019,2.07,2.07,0,0,1,.615.089Zm7.232.444H58.994V30.287h6.111Zm0,2.96H58.994V33.247h6.111Zm8.347-1.976a5.042,5.042,0,0,1-.854,3.158,3.415,3.415,0,0,1-4.99.021,4.895,4.895,0,0,1-.882-3.076V31.155a4.976,4.976,0,0,1,.865-3.165,3.421,3.421,0,0,1,4.98-.01,4.879,4.879,0,0,1,.882,3.073Zm-1.976-2.014a3.645,3.645,0,0,0-.338-1.8,1.144,1.144,0,0,0-1.056-.564,1.123,1.123,0,0,0-1.029.537,3.411,3.411,0,0,0-.352,1.68v2.422a3.826,3.826,0,0,0,.332,1.81,1.128,1.128,0,0,0,1.063.592,1.109,1.109,0,0,0,1.046-.568,3.734,3.734,0,0,0,.335-1.738ZM2.939,59.353H7.294V61H.889V51.047H2.939Zm8.8,1.784a3.631,3.631,0,0,1-2.649-1,3.548,3.548,0,0,1-1.022-2.659v-.191A4.468,4.468,0,0,1,8.5,55.3a3.161,3.161,0,0,1,1.22-1.354,3.425,3.425,0,0,1,1.8-.475,3.07,3.07,0,0,1,2.389.957,3.889,3.889,0,0,1,.872,2.714v.807h-4.71a1.835,1.835,0,0,0,.578,1.162,1.746,1.746,0,0,0,1.22.438,2.132,2.132,0,0,0,1.784-.827l.971,1.087a2.966,2.966,0,0,1-1.2.981A3.947,3.947,0,0,1,11.744,61.137Zm-.226-6.077a1.234,1.234,0,0,0-.954.4A2.062,2.062,0,0,0,10.1,56.6h2.748V56.44a1.471,1.471,0,0,0-.355-1.02A1.274,1.274,0,0,0,11.519,55.06Zm7.793,6.077a3.631,3.631,0,0,1-2.649-1,3.548,3.548,0,0,1-1.022-2.659v-.191a4.468,4.468,0,0,1,.431-1.993,3.161,3.161,0,0,1,1.22-1.354,3.425,3.425,0,0,1,1.8-.475,3.07,3.07,0,0,1,2.389.957,3.889,3.889,0,0,1,.872,2.714v.807h-4.71a1.835,1.835,0,0,0,.578,1.162,1.746,1.746,0,0,0,1.22.438,2.132,2.132,0,0,0,1.784-.827L22.2,59.8a2.966,2.966,0,0,1-1.2.981A3.947,3.947,0,0,1,19.312,61.137Zm-.226-6.077a1.234,1.234,0,0,0-.954.4,2.062,2.062,0,0,0-.468,1.14h2.748V56.44a1.471,1.471,0,0,0-.355-1.02A1.274,1.274,0,0,0,19.086,55.06Zm8.545.4a5.367,5.367,0,0,0-.711-.055,1.447,1.447,0,0,0-1.47.759V61H23.475V53.6h1.866l.055.882a1.831,1.831,0,0,1,1.647-1.019,2.07,2.07,0,0,1,.615.089ZM33.886,53.6l.062.854a2.582,2.582,0,0,1,2.126-.991,2.146,2.146,0,0,1,1.75.69,3.221,3.221,0,0,1,.588,2.064V61H36.436V56.27a1.282,1.282,0,0,0-.273-.913,1.224,1.224,0,0,0-.909-.284A1.359,1.359,0,0,0,34,55.784V61H32.026V53.6Zm10.452,6.645a2.477,2.477,0,0,1-2.023.889,2.337,2.337,0,0,1-1.815-.684,2.918,2.918,0,0,1-.639-2V53.6h1.976v4.784q0,1.157,1.053,1.157a1.426,1.426,0,0,0,1.381-.7V53.6h1.982V61H44.393ZM43.456,50.5h2.153l-1.894,2.119H42.109Zm6.139,3.1.062.827a2.6,2.6,0,0,1,2.126-.964,1.973,1.973,0,0,1,1.962,1.128,2.54,2.54,0,0,1,2.222-1.128,2.206,2.206,0,0,1,1.791.7,3.221,3.221,0,0,1,.588,2.109V61H56.362V56.283a1.408,1.408,0,0,0-.246-.919,1.091,1.091,0,0,0-.868-.291,1.233,1.233,0,0,0-1.23.848L54.024,61H52.049V56.29a1.391,1.391,0,0,0-.253-.93,1.1,1.1,0,0,0-.861-.287,1.28,1.28,0,0,0-1.217.7V61H47.742V53.6Zm13.672,7.533a3.631,3.631,0,0,1-2.649-1A3.548,3.548,0,0,1,59.6,57.479v-.191a4.468,4.468,0,0,1,.431-1.993,3.161,3.161,0,0,1,1.22-1.354,3.425,3.425,0,0,1,1.8-.475,3.07,3.07,0,0,1,2.389.957,3.889,3.889,0,0,1,.872,2.714v.807H61.6a1.835,1.835,0,0,0,.578,1.162,1.746,1.746,0,0,0,1.22.438,2.132,2.132,0,0,0,1.784-.827l.971,1.087a2.966,2.966,0,0,1-1.2.981A3.947,3.947,0,0,1,63.267,61.137Zm-.226-6.077a1.234,1.234,0,0,0-.954.4,2.062,2.062,0,0,0-.468,1.14h2.748V56.44a1.471,1.471,0,0,0-.355-1.02A1.274,1.274,0,0,0,63.041,55.06Zm8.545.4a5.367,5.367,0,0,0-.711-.055,1.447,1.447,0,0,0-1.47.759V61H67.43V53.6H69.3l.055.882A1.831,1.831,0,0,1,71,53.467a2.07,2.07,0,0,1,.615.089Zm.4,1.777a4.387,4.387,0,0,1,.424-1.962,3.1,3.1,0,0,1,1.22-1.333,3.56,3.56,0,0,1,1.849-.472,3.368,3.368,0,0,1,2.444.916,3.676,3.676,0,0,1,1.056,2.488l.014.506a3.866,3.866,0,0,1-.95,2.731,3.683,3.683,0,0,1-5.1,0,3.934,3.934,0,0,1-.954-2.789Zm1.976.14a2.765,2.765,0,0,0,.4,1.612,1.424,1.424,0,0,0,2.256.007,3.025,3.025,0,0,0,.4-1.763,2.737,2.737,0,0,0-.4-1.6,1.311,1.311,0,0,0-1.135-.568,1.29,1.29,0,0,0-1.121.565A3.076,3.076,0,0,0,73.958,57.374ZM3.568,75.047l2.557,7.219,2.543-7.219h2.693V85H9.3V82.279l.205-4.7L6.822,85H5.414l-2.68-7.41.205,4.689V85H.889V75.047ZM15.107,85H13.125V77.6h1.982Zm-2.1-9.311a.973.973,0,0,1,.3-.731,1.281,1.281,0,0,1,1.617,0,1.044,1.044,0,0,1,0,1.47,1.267,1.267,0,0,1-1.606,0A.97.97,0,0,1,13.009,75.689Zm7.13,9.447a3.631,3.631,0,0,1-2.649-1,3.548,3.548,0,0,1-1.022-2.659v-.191A4.468,4.468,0,0,1,16.9,79.3a3.161,3.161,0,0,1,1.22-1.354,3.425,3.425,0,0,1,1.8-.475,3.07,3.07,0,0,1,2.389.957,3.889,3.889,0,0,1,.872,2.714v.807h-4.71a1.835,1.835,0,0,0,.578,1.162,1.746,1.746,0,0,0,1.22.438,2.132,2.132,0,0,0,1.784-.827l.971,1.087a2.966,2.966,0,0,1-1.2.981A3.947,3.947,0,0,1,20.139,85.137Zm-.226-6.077a1.234,1.234,0,0,0-.954.4,2.062,2.062,0,0,0-.468,1.14h2.748V80.44a1.471,1.471,0,0,0-.355-1.02A1.274,1.274,0,0,0,19.913,79.06ZM26.12,77.6l.062.854a2.582,2.582,0,0,1,2.126-.991,2.146,2.146,0,0,1,1.75.69,3.221,3.221,0,0,1,.588,2.064V85H28.67V80.27a1.282,1.282,0,0,0-.273-.913,1.224,1.224,0,0,0-.909-.284,1.359,1.359,0,0,0-1.251.711V85H24.261V77.6Zm8.388-1.818V77.6h1.265v1.449H34.508v3.691a.881.881,0,0,0,.157.588.79.79,0,0,0,.6.178,3.151,3.151,0,0,0,.581-.048v1.5a4.067,4.067,0,0,1-1.2.178,1.886,1.886,0,0,1-2.119-2.1V79.053h-1.08V77.6h1.08V75.785Zm6.521,3.671a5.367,5.367,0,0,0-.711-.055,1.447,1.447,0,0,0-1.47.759V85H36.873V77.6h1.866l.055.882a1.831,1.831,0,0,1,1.647-1.019,2.07,2.07,0,0,1,.615.089ZM46.061,85a2.194,2.194,0,0,1-.2-.663,2.39,2.39,0,0,1-1.866.8,2.626,2.626,0,0,1-1.8-.629,2.023,2.023,0,0,1-.714-1.586,2.09,2.09,0,0,1,.872-1.8,4.3,4.3,0,0,1,2.519-.636h.909v-.424a1.219,1.219,0,0,0-.263-.82,1.035,1.035,0,0,0-.831-.308,1.177,1.177,0,0,0-.783.239.813.813,0,0,0-.284.656H41.645a1.984,1.984,0,0,1,.4-1.189,2.621,2.621,0,0,1,1.121-.858,4.086,4.086,0,0,1,1.627-.311,3.228,3.228,0,0,1,2.17.687,2.4,2.4,0,0,1,.8,1.931v3.206a3.536,3.536,0,0,0,.294,1.593V85Zm-1.634-1.374a1.7,1.7,0,0,0,.807-.195,1.28,1.28,0,0,0,.547-.523V81.637h-.738q-1.483,0-1.579,1.025l-.007.116a.791.791,0,0,0,.26.608A1.009,1.009,0,0,0,44.427,83.626Zm8.859-.67a.637.637,0,0,0-.359-.571,4.077,4.077,0,0,0-1.152-.373q-2.639-.554-2.639-2.242a2.032,2.032,0,0,1,.817-1.644,3.3,3.3,0,0,1,2.136-.66,3.547,3.547,0,0,1,2.252.663,2.09,2.09,0,0,1,.844,1.723H53.211a.956.956,0,0,0-.273-.7,1.157,1.157,0,0,0-.854-.277,1.182,1.182,0,0,0-.772.226.712.712,0,0,0-.273.574.609.609,0,0,0,.311.53,3.2,3.2,0,0,0,1.049.349,8.571,8.571,0,0,1,1.244.332,2.044,2.044,0,0,1,1.565,1.989,1.929,1.929,0,0,1-.868,1.637,3.745,3.745,0,0,1-2.242.625,3.912,3.912,0,0,1-1.651-.332,2.77,2.77,0,0,1-1.131-.909,2.113,2.113,0,0,1-.41-1.248h1.873a1.031,1.031,0,0,0,.39.807,1.546,1.546,0,0,0,.971.28A1.43,1.43,0,0,0,53,83.52.67.67,0,0,0,53.286,82.956Zm8.5-5.353.062.854a2.582,2.582,0,0,1,2.126-.991,2.146,2.146,0,0,1,1.75.69,3.221,3.221,0,0,1,.588,2.064V85H64.333V80.27a1.282,1.282,0,0,0-.273-.913,1.224,1.224,0,0,0-.909-.284,1.359,1.359,0,0,0-1.251.711V85H59.924V77.6Zm10.452,6.645a2.477,2.477,0,0,1-2.023.889,2.337,2.337,0,0,1-1.815-.684,2.918,2.918,0,0,1-.639-2V77.6h1.976v4.784q0,1.157,1.053,1.157a1.426,1.426,0,0,0,1.381-.7V77.6h1.982V85H72.29ZM71.354,74.5h2.153l-1.894,2.119H70.007Zm6.139,3.1.062.827a2.6,2.6,0,0,1,2.126-.964,1.973,1.973,0,0,1,1.962,1.128,2.54,2.54,0,0,1,2.222-1.128,2.206,2.206,0,0,1,1.791.7,3.221,3.221,0,0,1,.588,2.109V85H84.26V80.283a1.408,1.408,0,0,0-.246-.919,1.091,1.091,0,0,0-.868-.291,1.233,1.233,0,0,0-1.23.848L81.922,85H79.946V80.29a1.391,1.391,0,0,0-.253-.93,1.1,1.1,0,0,0-.861-.287,1.28,1.28,0,0,0-1.217.7V85H75.64V77.6Zm13.672,7.533a3.631,3.631,0,0,1-2.649-1,3.548,3.548,0,0,1-1.022-2.659v-.191a4.468,4.468,0,0,1,.431-1.993,3.161,3.161,0,0,1,1.22-1.354,3.425,3.425,0,0,1,1.8-.475,3.07,3.07,0,0,1,2.389.957,3.889,3.889,0,0,1,.872,2.714v.807H89.5a1.835,1.835,0,0,0,.578,1.162,1.746,1.746,0,0,0,1.22.438,2.132,2.132,0,0,0,1.784-.827l.971,1.087a2.966,2.966,0,0,1-1.2.981A3.947,3.947,0,0,1,91.164,85.137Zm-.226-6.077a1.234,1.234,0,0,0-.954.4,2.062,2.062,0,0,0-.468,1.14h2.748V80.44a1.471,1.471,0,0,0-.355-1.02A1.274,1.274,0,0,0,90.938,79.06Zm8.545.4a5.367,5.367,0,0,0-.711-.055,1.447,1.447,0,0,0-1.47.759V85H95.327V77.6h1.866l.055.882A1.831,1.831,0,0,1,98.9,77.467a2.07,2.07,0,0,1,.615.089Zm.4,1.777a4.387,4.387,0,0,1,.424-1.962,3.1,3.1,0,0,1,1.22-1.333,3.56,3.56,0,0,1,1.849-.472,3.368,3.368,0,0,1,2.444.916,3.676,3.676,0,0,1,1.056,2.488l.014.506a3.866,3.866,0,0,1-.95,2.731,3.683,3.683,0,0,1-5.1,0,3.934,3.934,0,0,1-.954-2.789Zm1.976.14a2.765,2.765,0,0,0,.4,1.612,1.424,1.424,0,0,0,2.256.007,3.025,3.025,0,0,0,.4-1.763,2.737,2.737,0,0,0-.4-1.6,1.311,1.311,0,0,0-1.135-.568,1.29,1.29,0,0,0-1.121.565A3.076,3.076,0,0,0,101.855,81.374Zm13.768-.619-3.972-1.388v-1.9l5.954,2.5v1.606l-5.954,2.5V82.163Zm9.816.13a5.042,5.042,0,0,1-.854,3.158,3.415,3.415,0,0,1-4.99.021,4.895,4.895,0,0,1-.882-3.076V79.155a4.976,4.976,0,0,1,.865-3.165,3.421,3.421,0,0,1,4.98-.01,4.879,4.879,0,0,1,.882,3.073Zm-1.976-2.014a3.645,3.645,0,0,0-.338-1.8,1.144,1.144,0,0,0-1.056-.564,1.123,1.123,0,0,0-1.029.537,3.411,3.411,0,0,0-.352,1.68v2.422a3.826,3.826,0,0,0,.332,1.81,1.128,1.128,0,0,0,1.063.592,1.109,1.109,0,0,0,1.046-.568,3.734,3.734,0,0,0,.335-1.738Zm8.8-.46a2.466,2.466,0,0,1,1.976-.943q2.406,0,2.44,2.8V85h-1.976V80.317a1.374,1.374,0,0,0-.273-.94,1.172,1.172,0,0,0-.909-.3,1.345,1.345,0,0,0-1.258.67V85h-1.976V74.5h1.976ZM142.461,85a2.194,2.194,0,0,1-.2-.663,2.39,2.39,0,0,1-1.866.8,2.626,2.626,0,0,1-1.8-.629,2.023,2.023,0,0,1-.714-1.586,2.09,2.09,0,0,1,.872-1.8,4.3,4.3,0,0,1,2.519-.636h.909v-.424a1.219,1.219,0,0,0-.263-.82,1.035,1.035,0,0,0-.831-.308,1.177,1.177,0,0,0-.783.239.813.813,0,0,0-.284.656h-1.976a1.984,1.984,0,0,1,.4-1.189,2.621,2.621,0,0,1,1.121-.858,4.086,4.086,0,0,1,1.627-.311,3.228,3.228,0,0,1,2.17.687,2.4,2.4,0,0,1,.8,1.931v3.206a3.536,3.536,0,0,0,.294,1.593V85Zm-1.634-1.374a1.7,1.7,0,0,0,.807-.195,1.28,1.28,0,0,0,.547-.523V81.637h-.738q-1.483,0-1.579,1.025l-.007.116a.791.791,0,0,0,.26.608A1.009,1.009,0,0,0,140.827,83.626Zm7.93-.082a1.3,1.3,0,0,0,.889-.3,1.054,1.054,0,0,0,.355-.8h1.853a2.534,2.534,0,0,1-.41,1.377,2.706,2.706,0,0,1-1.1.971,3.455,3.455,0,0,1-1.548.345,3.211,3.211,0,0,1-2.5-1.008,3.99,3.99,0,0,1-.916-2.786v-.13a3.944,3.944,0,0,1,.909-2.728,3.174,3.174,0,0,1,2.5-1.019,3.111,3.111,0,0,1,2.225.79,2.8,2.8,0,0,1,.851,2.1H150a1.358,1.358,0,0,0-.355-.938,1.321,1.321,0,0,0-1.945.142,2.916,2.916,0,0,0-.352,1.633V81.4a2.953,2.953,0,0,0,.349,1.643A1.2,1.2,0,0,0,148.757,83.544Zm7.629,1.593a3.631,3.631,0,0,1-2.649-1,3.548,3.548,0,0,1-1.022-2.659v-.191a4.468,4.468,0,0,1,.431-1.993,3.161,3.161,0,0,1,1.22-1.354,3.425,3.425,0,0,1,1.8-.475,3.07,3.07,0,0,1,2.389.957,3.889,3.889,0,0,1,.872,2.714v.807h-4.71a1.835,1.835,0,0,0,.578,1.162,1.746,1.746,0,0,0,1.22.438,2.132,2.132,0,0,0,1.784-.827l.971,1.087a2.966,2.966,0,0,1-1.2.981A3.947,3.947,0,0,1,156.386,85.137Zm-.226-6.077a1.235,1.235,0,0,0-.954.4,2.062,2.062,0,0,0-.468,1.14h2.748V80.44a1.471,1.471,0,0,0-.355-1.02A1.274,1.274,0,0,0,156.16,79.06Zm8.545.4a5.367,5.367,0,0,0-.711-.055,1.447,1.447,0,0,0-1.47.759V85h-1.976V77.6h1.866l.055.882a1.831,1.831,0,0,1,1.647-1.019,2.07,2.07,0,0,1,.615.089ZM8.7,105.685a3.522,3.522,0,0,1-1.186,2.529,4.165,4.165,0,0,1-2.82.923,3.745,3.745,0,0,1-3.011-1.289,5.284,5.284,0,0,1-1.1-3.538V103.7a5.966,5.966,0,0,1,.506-2.529A3.791,3.791,0,0,1,2.54,99.495a4.05,4.05,0,0,1,2.184-.584,4.058,4.058,0,0,1,2.775.923,3.785,3.785,0,0,1,1.217,2.591H6.665a2.079,2.079,0,0,0-.537-1.4,1.987,1.987,0,0,0-1.4-.434,1.742,1.742,0,0,0-1.535.735,4.118,4.118,0,0,0-.523,2.28v.752a4.408,4.408,0,0,0,.489,2.358,1.71,1.71,0,0,0,1.542.745,2.025,2.025,0,0,0,1.418-.434,1.961,1.961,0,0,0,.537-1.343Zm.909-.451a4.387,4.387,0,0,1,.424-1.962,3.1,3.1,0,0,1,1.22-1.333,3.56,3.56,0,0,1,1.849-.472,3.368,3.368,0,0,1,2.444.916,3.676,3.676,0,0,1,1.056,2.488l.014.506a3.866,3.866,0,0,1-.95,2.731,3.3,3.3,0,0,1-2.55,1.029,3.319,3.319,0,0,1-2.553-1.025,3.934,3.934,0,0,1-.954-2.789Zm1.976.14a2.765,2.765,0,0,0,.4,1.612,1.424,1.424,0,0,0,2.256.007,3.025,3.025,0,0,0,.4-1.763,2.737,2.737,0,0,0-.4-1.6,1.311,1.311,0,0,0-1.135-.568,1.29,1.29,0,0,0-1.121.565A3.076,3.076,0,0,0,11.587,105.374Zm8.066-3.77.062.854a2.582,2.582,0,0,1,2.126-.991,2.146,2.146,0,0,1,1.75.69,3.221,3.221,0,0,1,.588,2.064V109H22.2v-4.73a1.282,1.282,0,0,0-.273-.913,1.224,1.224,0,0,0-.909-.284,1.359,1.359,0,0,0-1.251.711V109H17.794v-7.4Zm8.388-1.818V101.6h1.265v1.449H28.041v3.691a.881.881,0,0,0,.157.588.79.79,0,0,0,.6.178,3.151,3.151,0,0,0,.581-.048v1.5a4.067,4.067,0,0,1-1.2.178,1.886,1.886,0,0,1-2.119-2.1v-3.985h-1.08V101.6h1.08V99.785ZM34.692,109a2.194,2.194,0,0,1-.2-.663,2.39,2.39,0,0,1-1.866.8,2.626,2.626,0,0,1-1.8-.629,2.023,2.023,0,0,1-.714-1.586,2.09,2.09,0,0,1,.872-1.8,4.3,4.3,0,0,1,2.519-.636h.909v-.424a1.219,1.219,0,0,0-.263-.82,1.035,1.035,0,0,0-.831-.308,1.177,1.177,0,0,0-.783.239.813.813,0,0,0-.284.656H30.276a1.985,1.985,0,0,1,.4-1.189,2.621,2.621,0,0,1,1.121-.858,4.086,4.086,0,0,1,1.627-.311,3.228,3.228,0,0,1,2.17.687,2.4,2.4,0,0,1,.8,1.931v3.206a3.536,3.536,0,0,0,.294,1.593V109Zm-1.634-1.374a1.7,1.7,0,0,0,.807-.195,1.28,1.28,0,0,0,.547-.523v-1.271h-.738q-1.483,0-1.579,1.025l-.007.116a.791.791,0,0,0,.26.608A1.009,1.009,0,0,0,33.059,107.626Zm4.546-2.379a4.457,4.457,0,0,1,.776-2.755,2.517,2.517,0,0,1,2.123-1.025,2.265,2.265,0,0,1,1.784.807V98.5H44.27V109H42.485l-.1-.786a2.325,2.325,0,0,1-1.9.923,2.511,2.511,0,0,1-2.1-1.029A4.6,4.6,0,0,1,37.6,105.247Zm1.976.147a2.92,2.92,0,0,0,.362,1.6,1.18,1.18,0,0,0,1.053.555,1.322,1.322,0,0,0,1.292-.774v-2.923a1.3,1.3,0,0,0-1.278-.774Q39.58,103.073,39.58,105.394Zm5.913-.161a4.387,4.387,0,0,1,.424-1.962,3.1,3.1,0,0,1,1.22-1.333,3.56,3.56,0,0,1,1.849-.472,3.368,3.368,0,0,1,2.444.916,3.676,3.676,0,0,1,1.056,2.488l.014.506a3.866,3.866,0,0,1-.95,2.731,3.683,3.683,0,0,1-5.1,0,3.934,3.934,0,0,1-.954-2.789Zm1.976.14a2.765,2.765,0,0,0,.4,1.612,1.424,1.424,0,0,0,2.256.007,3.025,3.025,0,0,0,.4-1.763,2.737,2.737,0,0,0-.4-1.6,1.311,1.311,0,0,0-1.135-.568,1.29,1.29,0,0,0-1.121.565A3.076,3.076,0,0,0,47.469,105.374Zm10.4-1.918a5.367,5.367,0,0,0-.711-.055,1.447,1.447,0,0,0-1.47.759V109H53.717v-7.4h1.866l.055.882a1.831,1.831,0,0,1,1.647-1.019,2.07,2.07,0,0,1,.615.089Zm7.232.444H58.994v-1.613h6.111Zm0,2.96H58.994v-1.613h6.111Zm9.673-1.176a3.522,3.522,0,0,1-1.186,2.529,4.165,4.165,0,0,1-2.82.923,3.745,3.745,0,0,1-3.011-1.289,5.284,5.284,0,0,1-1.1-3.538V103.7a5.966,5.966,0,0,1,.506-2.529,3.791,3.791,0,0,1,1.446-1.678,4.518,4.518,0,0,1,4.959.338,3.785,3.785,0,0,1,1.217,2.591H72.741a2.079,2.079,0,0,0-.537-1.4,1.987,1.987,0,0,0-1.4-.434,1.742,1.742,0,0,0-1.535.735,4.118,4.118,0,0,0-.523,2.28v.752a4.408,4.408,0,0,0,.489,2.358,1.71,1.71,0,0,0,1.542.745,2.025,2.025,0,0,0,1.418-.434,1.961,1.961,0,0,0,.537-1.343Zm.909-.451a4.387,4.387,0,0,1,.424-1.962,3.1,3.1,0,0,1,1.22-1.333,3.56,3.56,0,0,1,1.849-.472,3.368,3.368,0,0,1,2.444.916,3.676,3.676,0,0,1,1.056,2.488l.014.506a3.866,3.866,0,0,1-.95,2.731,3.683,3.683,0,0,1-5.1,0,3.934,3.934,0,0,1-.954-2.789Zm1.976.14a2.765,2.765,0,0,0,.4,1.612,1.424,1.424,0,0,0,2.256.007,3.025,3.025,0,0,0,.4-1.763,2.737,2.737,0,0,0-.4-1.6,1.311,1.311,0,0,0-1.135-.568,1.29,1.29,0,0,0-1.121.565A3.076,3.076,0,0,0,77.663,105.374Zm8.066-3.77.062.854a2.582,2.582,0,0,1,2.126-.991,2.146,2.146,0,0,1,1.75.69,3.221,3.221,0,0,1,.588,2.064V109H88.279v-4.73a1.282,1.282,0,0,0-.273-.913,1.224,1.224,0,0,0-.909-.284,1.359,1.359,0,0,0-1.251.711V109H83.87v-7.4Zm8.388-1.818V101.6h1.265v1.449H94.117v3.691a.881.881,0,0,0,.157.588.79.79,0,0,0,.6.178,3.151,3.151,0,0,0,.581-.048v1.5a4.067,4.067,0,0,1-1.2.178,1.886,1.886,0,0,1-2.119-2.1v-3.985h-1.08V101.6h1.08V99.785ZM100.769,109a2.194,2.194,0,0,1-.2-.663,2.39,2.39,0,0,1-1.866.8,2.626,2.626,0,0,1-1.8-.629,2.023,2.023,0,0,1-.714-1.586,2.09,2.09,0,0,1,.872-1.8,4.3,4.3,0,0,1,2.519-.636h.909v-.424a1.219,1.219,0,0,0-.263-.82,1.035,1.035,0,0,0-.831-.308,1.177,1.177,0,0,0-.783.239.813.813,0,0,0-.284.656H96.353a1.985,1.985,0,0,1,.4-1.189,2.621,2.621,0,0,1,1.121-.858,4.086,4.086,0,0,1,1.627-.311,3.228,3.228,0,0,1,2.17.687,2.4,2.4,0,0,1,.8,1.931v3.206a3.536,3.536,0,0,0,.294,1.593V109Zm-1.634-1.374a1.7,1.7,0,0,0,.807-.195,1.28,1.28,0,0,0,.547-.523v-1.271H99.75q-1.483,0-1.579,1.025l-.007.116a.791.791,0,0,0,.26.608A1.009,1.009,0,0,0,99.135,107.626Zm4.546-2.379a4.457,4.457,0,0,1,.776-2.755,2.517,2.517,0,0,1,2.123-1.025,2.265,2.265,0,0,1,1.784.807V98.5h1.982V109h-1.784l-.1-.786a2.325,2.325,0,0,1-1.9.923,2.511,2.511,0,0,1-2.1-1.029A4.6,4.6,0,0,1,103.681,105.247Zm1.976.147a2.92,2.92,0,0,0,.362,1.6,1.18,1.18,0,0,0,1.053.555,1.322,1.322,0,0,0,1.292-.774v-2.923a1.3,1.3,0,0,0-1.278-.774Q105.656,103.073,105.656,105.394Zm5.913-.161a4.387,4.387,0,0,1,.424-1.962,3.1,3.1,0,0,1,1.22-1.333,3.56,3.56,0,0,1,1.849-.472,3.368,3.368,0,0,1,2.444.916,3.676,3.676,0,0,1,1.056,2.488l.014.506a3.866,3.866,0,0,1-.95,2.731,3.683,3.683,0,0,1-5.1,0,3.934,3.934,0,0,1-.954-2.789Zm1.976.14a2.765,2.765,0,0,0,.4,1.612,1.424,1.424,0,0,0,2.256.007,3.025,3.025,0,0,0,.4-1.763,2.737,2.737,0,0,0-.4-1.6,1.311,1.311,0,0,0-1.135-.568,1.29,1.29,0,0,0-1.121.565A3.076,3.076,0,0,0,113.545,105.374Zm10.4-1.918a5.367,5.367,0,0,0-.711-.055,1.447,1.447,0,0,0-1.47.759V109h-1.976v-7.4h1.866l.055.882a1.831,1.831,0,0,1,1.647-1.019,2.07,2.07,0,0,1,.615.089Zm4.936-.027h2.468v1.784h-2.468V108H127v-2.789H124.53v-1.784H127v-2.673h1.88ZM137.259,109h-1.976v-7.615l-2.358.731V100.51l4.122-1.477h.212ZM2.939,131.353H7.294V133H.889v-9.953H2.939Zm8.8,1.784a3.631,3.631,0,0,1-2.649-1,3.548,3.548,0,0,1-1.022-2.659v-.191A4.468,4.468,0,0,1,8.5,127.3a3.161,3.161,0,0,1,1.22-1.354,3.425,3.425,0,0,1,1.8-.475,3.07,3.07,0,0,1,2.389.957,3.889,3.889,0,0,1,.872,2.714v.807h-4.71a1.835,1.835,0,0,0,.578,1.162,1.746,1.746,0,0,0,1.22.438,2.132,2.132,0,0,0,1.784-.827l.971,1.087a2.966,2.966,0,0,1-1.2.981A3.947,3.947,0,0,1,11.744,133.137Zm-.226-6.077a1.234,1.234,0,0,0-.954.4,2.062,2.062,0,0,0-.468,1.14h2.748v-.158a1.471,1.471,0,0,0-.355-1.02A1.274,1.274,0,0,0,11.519,127.06Zm7.793,6.077a3.631,3.631,0,0,1-2.649-1,3.548,3.548,0,0,1-1.022-2.659v-.191a4.468,4.468,0,0,1,.431-1.993,3.161,3.161,0,0,1,1.22-1.354,3.425,3.425,0,0,1,1.8-.475,3.07,3.07,0,0,1,2.389.957,3.889,3.889,0,0,1,.872,2.714v.807h-4.71a1.835,1.835,0,0,0,.578,1.162,1.746,1.746,0,0,0,1.22.438,2.132,2.132,0,0,0,1.784-.827L22.2,131.8a2.966,2.966,0,0,1-1.2.981A3.947,3.947,0,0,1,19.312,133.137Zm-.226-6.077a1.234,1.234,0,0,0-.954.4,2.062,2.062,0,0,0-.468,1.14h2.748v-.158a1.471,1.471,0,0,0-.355-1.02A1.274,1.274,0,0,0,19.086,127.06Zm8.545.4a5.367,5.367,0,0,0-.711-.055,1.447,1.447,0,0,0-1.47.759V133H23.475v-7.4h1.866l.055.882a1.831,1.831,0,0,1,1.647-1.019,2.07,2.07,0,0,1,.615.089Zm6.255-1.853.062.854a2.582,2.582,0,0,1,2.126-.991,2.146,2.146,0,0,1,1.75.69,3.221,3.221,0,0,1,.588,2.064V133H36.436v-4.73a1.282,1.282,0,0,0-.273-.913,1.224,1.224,0,0,0-.909-.284,1.359,1.359,0,0,0-1.251.711V133H32.026v-7.4Zm10.452,6.645a2.477,2.477,0,0,1-2.023.889,2.337,2.337,0,0,1-1.815-.684,2.918,2.918,0,0,1-.639-2V125.6h1.976v4.784q0,1.157,1.053,1.157a1.426,1.426,0,0,0,1.381-.7V125.6h1.982V133H44.393Zm-.882-9.748h2.153l-1.894,2.119H42.109Zm6.139,3.1.062.827a2.6,2.6,0,0,1,2.126-.964,1.973,1.973,0,0,1,1.962,1.128,2.54,2.54,0,0,1,2.222-1.128,2.206,2.206,0,0,1,1.791.7,3.221,3.221,0,0,1,.588,2.109V133H56.362v-4.717a1.408,1.408,0,0,0-.246-.919,1.091,1.091,0,0,0-.868-.291,1.233,1.233,0,0,0-1.23.848L54.024,133H52.049v-4.71a1.391,1.391,0,0,0-.253-.93,1.1,1.1,0,0,0-.861-.287,1.28,1.28,0,0,0-1.217.7V133H47.742v-7.4Zm13.672,7.533a3.631,3.631,0,0,1-2.649-1,3.548,3.548,0,0,1-1.022-2.659v-.191a4.468,4.468,0,0,1,.431-1.993,3.161,3.161,0,0,1,1.22-1.354,3.425,3.425,0,0,1,1.8-.475,3.07,3.07,0,0,1,2.389.957,3.889,3.889,0,0,1,.872,2.714v.807H61.6a1.835,1.835,0,0,0,.578,1.162,1.746,1.746,0,0,0,1.22.438,2.132,2.132,0,0,0,1.784-.827l.971,1.087a2.966,2.966,0,0,1-1.2.981A3.947,3.947,0,0,1,63.267,133.137Zm-.226-6.077a1.234,1.234,0,0,0-.954.4,2.062,2.062,0,0,0-.468,1.14h2.748v-.158a1.471,1.471,0,0,0-.355-1.02A1.274,1.274,0,0,0,63.041,127.06Zm8.545.4a5.367,5.367,0,0,0-.711-.055,1.447,1.447,0,0,0-1.47.759V133H67.43v-7.4H69.3l.055.882A1.831,1.831,0,0,1,71,125.467a2.07,2.07,0,0,1,.615.089Zm.4,1.777a4.387,4.387,0,0,1,.424-1.962,3.1,3.1,0,0,1,1.22-1.333,3.56,3.56,0,0,1,1.849-.472,3.368,3.368,0,0,1,2.444.916,3.676,3.676,0,0,1,1.056,2.488l.014.506a3.866,3.866,0,0,1-.95,2.731,3.683,3.683,0,0,1-5.1,0,3.934,3.934,0,0,1-.954-2.789Zm1.976.14a2.765,2.765,0,0,0,.4,1.612,1.424,1.424,0,0,0,2.256.007,3.025,3.025,0,0,0,.4-1.763,2.737,2.737,0,0,0-.4-1.6,1.311,1.311,0,0,0-1.135-.568,1.29,1.29,0,0,0-1.121.565A3.076,3.076,0,0,0,73.958,129.374ZM6.877,152.933H2.939V157H.889v-9.953h6.48v1.661H2.939v2.57H6.877ZM10.514,157H8.531v-7.4h1.982Zm-2.1-9.311a.973.973,0,0,1,.3-.731,1.117,1.117,0,0,1,.81-.287,1.12,1.12,0,0,1,.807.287,1.044,1.044,0,0,1,0,1.47,1.122,1.122,0,0,1-.8.287,1.122,1.122,0,0,1-.8-.287A.97.97,0,0,1,8.415,147.689Zm5.544,1.914.062.854a2.582,2.582,0,0,1,2.126-.991,2.146,2.146,0,0,1,1.75.69,3.221,3.221,0,0,1,.588,2.064V157H16.509v-4.73a1.282,1.282,0,0,0-.273-.913,1.224,1.224,0,0,0-.909-.284,1.359,1.359,0,0,0-1.251.711V157H12.1v-7.4Zm11.361,0,.062.827a2.6,2.6,0,0,1,2.126-.964,1.973,1.973,0,0,1,1.962,1.128,2.54,2.54,0,0,1,2.222-1.128,2.206,2.206,0,0,1,1.791.7,3.221,3.221,0,0,1,.588,2.109V157H32.088v-4.717a1.408,1.408,0,0,0-.246-.919,1.091,1.091,0,0,0-.868-.291,1.233,1.233,0,0,0-1.23.848L29.75,157H27.774v-4.71a1.391,1.391,0,0,0-.253-.93,1.1,1.1,0,0,0-.861-.287,1.28,1.28,0,0,0-1.217.7V157H23.468v-7.4ZM37.673,157H35.69v-7.4h1.982Zm-2.1-9.311a.973.973,0,0,1,.3-.731,1.281,1.281,0,0,1,1.617,0,1.044,1.044,0,0,1,0,1.47,1.267,1.267,0,0,1-1.606,0A.97.97,0,0,1,35.574,147.689Zm7.13,9.447a3.631,3.631,0,0,1-2.649-1,3.548,3.548,0,0,1-1.022-2.659v-.191a4.468,4.468,0,0,1,.431-1.993,3.161,3.161,0,0,1,1.22-1.354,3.425,3.425,0,0,1,1.8-.475,3.07,3.07,0,0,1,2.389.957,3.889,3.889,0,0,1,.872,2.714v.807h-4.71a1.835,1.835,0,0,0,.578,1.162,1.746,1.746,0,0,0,1.22.438,2.132,2.132,0,0,0,1.784-.827l.971,1.087a2.966,2.966,0,0,1-1.2.981A3.947,3.947,0,0,1,42.7,157.137Zm-.226-6.077a1.234,1.234,0,0,0-.954.4,2.062,2.062,0,0,0-.468,1.14H43.8v-.158a1.471,1.471,0,0,0-.355-1.02A1.274,1.274,0,0,0,42.479,151.06Zm6.207-1.456.062.854a2.582,2.582,0,0,1,2.126-.991,2.146,2.146,0,0,1,1.75.69,3.221,3.221,0,0,1,.588,2.064V157H51.235v-4.73a1.282,1.282,0,0,0-.273-.913,1.224,1.224,0,0,0-.909-.284,1.359,1.359,0,0,0-1.251.711V157H46.826v-7.4Zm8.388-1.818V149.6h1.265v1.449H57.073v3.691a.881.881,0,0,0,.157.588.79.79,0,0,0,.6.178,3.15,3.15,0,0,0,.581-.048v1.5a4.067,4.067,0,0,1-1.2.178,1.886,1.886,0,0,1-2.119-2.1v-3.985h-1.08V149.6H55.1v-1.818Zm6.521,3.671a5.368,5.368,0,0,0-.711-.055,1.447,1.447,0,0,0-1.47.759V157H59.438v-7.4H61.3l.055.882a1.831,1.831,0,0,1,1.647-1.019,2.07,2.07,0,0,1,.615.089ZM68.626,157a2.194,2.194,0,0,1-.2-.663,2.39,2.39,0,0,1-1.866.8,2.626,2.626,0,0,1-1.8-.629,2.023,2.023,0,0,1-.714-1.586,2.09,2.09,0,0,1,.872-1.8,4.3,4.3,0,0,1,2.519-.636h.909v-.424a1.219,1.219,0,0,0-.263-.82,1.035,1.035,0,0,0-.831-.308,1.177,1.177,0,0,0-.783.239.813.813,0,0,0-.284.656H64.21a1.984,1.984,0,0,1,.4-1.189,2.621,2.621,0,0,1,1.121-.858,4.086,4.086,0,0,1,1.627-.311,3.228,3.228,0,0,1,2.17.687,2.4,2.4,0,0,1,.8,1.931v3.206a3.536,3.536,0,0,0,.294,1.593V157Zm-1.634-1.374a1.7,1.7,0,0,0,.807-.195,1.28,1.28,0,0,0,.547-.523v-1.271h-.738q-1.483,0-1.579,1.025l-.007.116a.791.791,0,0,0,.26.608A1.009,1.009,0,0,0,66.992,155.626Zm8.859-.67a.637.637,0,0,0-.359-.571,4.077,4.077,0,0,0-1.152-.373q-2.639-.554-2.639-2.242a2.032,2.032,0,0,1,.817-1.644,3.3,3.3,0,0,1,2.136-.66,3.547,3.547,0,0,1,2.252.663,2.09,2.09,0,0,1,.844,1.723H75.776a.956.956,0,0,0-.273-.7,1.157,1.157,0,0,0-.854-.277,1.182,1.182,0,0,0-.772.226.712.712,0,0,0-.273.574.609.609,0,0,0,.311.53,3.2,3.2,0,0,0,1.049.349,8.57,8.57,0,0,1,1.244.332,2.044,2.044,0,0,1,1.565,1.989,1.929,1.929,0,0,1-.868,1.637,3.745,3.745,0,0,1-2.242.625,3.912,3.912,0,0,1-1.651-.332,2.77,2.77,0,0,1-1.131-.909,2.113,2.113,0,0,1-.41-1.248h1.873a1.031,1.031,0,0,0,.39.807,1.546,1.546,0,0,0,.971.28,1.43,1.43,0,0,0,.858-.215A.67.67,0,0,0,75.852,154.956ZM6.877,176.687H2.939v2.666H7.561V181H.889v-9.953H7.547v1.661H2.939v2.372H6.877Zm5.763,2.27a.637.637,0,0,0-.359-.571,4.077,4.077,0,0,0-1.152-.373q-2.639-.554-2.639-2.242a2.032,2.032,0,0,1,.817-1.644,3.3,3.3,0,0,1,2.136-.66,3.547,3.547,0,0,1,2.252.663,2.09,2.09,0,0,1,.844,1.723H12.564a.956.956,0,0,0-.273-.7,1.157,1.157,0,0,0-.854-.277,1.182,1.182,0,0,0-.772.226.712.712,0,0,0-.273.574.609.609,0,0,0,.311.53,3.2,3.2,0,0,0,1.049.349,8.57,8.57,0,0,1,1.244.332,2.044,2.044,0,0,1,1.565,1.989,1.929,1.929,0,0,1-.868,1.637,3.745,3.745,0,0,1-2.242.625,3.912,3.912,0,0,1-1.651-.332,2.77,2.77,0,0,1-1.131-.909,2.113,2.113,0,0,1-.41-1.248h1.873a1.031,1.031,0,0,0,.39.807,1.546,1.546,0,0,0,.971.28,1.43,1.43,0,0,0,.858-.215A.67.67,0,0,0,12.64,178.956Zm6.269.588a1.3,1.3,0,0,0,.889-.3,1.054,1.054,0,0,0,.355-.8H22a2.534,2.534,0,0,1-.41,1.377,2.706,2.706,0,0,1-1.1.971,3.455,3.455,0,0,1-1.548.345,3.211,3.211,0,0,1-2.5-1.008,3.99,3.99,0,0,1-.916-2.786v-.13a3.944,3.944,0,0,1,.909-2.728,3.174,3.174,0,0,1,2.5-1.019,3.111,3.111,0,0,1,2.225.79,2.8,2.8,0,0,1,.851,2.1H20.152a1.358,1.358,0,0,0-.355-.938,1.321,1.321,0,0,0-1.945.142A2.916,2.916,0,0,0,17.5,177.2v.205a2.953,2.953,0,0,0,.349,1.643A1.2,1.2,0,0,0,18.908,179.544Zm8.381-4.088a5.368,5.368,0,0,0-.711-.055,1.447,1.447,0,0,0-1.47.759V181H23.133v-7.4H25l.055.882a1.831,1.831,0,0,1,1.647-1.019,2.07,2.07,0,0,1,.615.089ZM30.324,181H28.342v-7.4h1.982Zm-2.1-9.311a.973.973,0,0,1,.3-.731,1.281,1.281,0,0,1,1.617,0,1.044,1.044,0,0,1,0,1.47,1.267,1.267,0,0,1-1.606,0A.97.97,0,0,1,28.226,171.689Zm10.391,5.681a4.479,4.479,0,0,1-.759,2.772,2.513,2.513,0,0,1-2.119.995,2.309,2.309,0,0,1-1.921-.923l-.089.786H31.951V170.5h1.976v3.767a2.25,2.25,0,0,1,1.8-.8,2.534,2.534,0,0,1,2.123.995,4.485,4.485,0,0,1,.769,2.8Zm-1.976-.144a2.942,2.942,0,0,0-.355-1.637,1.2,1.2,0,0,0-1.06-.516,1.3,1.3,0,0,0-1.3.772v2.919a1.321,1.321,0,0,0,1.313.779A1.22,1.22,0,0,0,36.5,178.6,4.866,4.866,0,0,0,36.641,177.227ZM41.918,181H39.936v-7.4h1.982Zm-2.1-9.311a.973.973,0,0,1,.3-.731,1.281,1.281,0,0,1,1.617,0,1.044,1.044,0,0,1,0,1.47,1.267,1.267,0,0,1-1.606,0A.97.97,0,0,1,39.819,171.689Zm7.882,3.767a5.368,5.368,0,0,0-.711-.055,1.447,1.447,0,0,0-1.47.759V181H43.545v-7.4h1.866l.055.882a1.831,1.831,0,0,1,1.647-1.019,2.07,2.07,0,0,1,.615.089Zm5.688-5.188.93.54a3.647,3.647,0,0,0-.608,1.887v1.142H52.145v-1.025a3.113,3.113,0,0,1,.359-1.371A3.574,3.574,0,0,1,53.389,170.268Zm2.345,0,.93.54a3.647,3.647,0,0,0-.608,1.887v1.142H54.489v-1.025a3.113,3.113,0,0,1,.359-1.371A3.574,3.574,0,0,1,55.733,170.268Zm8.2,6.419H60v2.666H64.62V181H57.948v-9.953h6.658v1.661H60v2.372h3.938ZM67.778,181H65.8V170.5h1.982Zm6.932-7.4.062.854a2.582,2.582,0,0,1,2.126-.991,2.146,2.146,0,0,1,1.75.69,3.221,3.221,0,0,1,.588,2.064V181H77.26v-4.73a1.282,1.282,0,0,0-.273-.913,1.224,1.224,0,0,0-.909-.284,1.359,1.359,0,0,0-1.251.711V181H72.851v-7.4Zm10.452,6.645a2.477,2.477,0,0,1-2.023.889,2.337,2.337,0,0,1-1.815-.684,2.918,2.918,0,0,1-.639-2V173.6H82.66v4.784q0,1.157,1.053,1.157a1.426,1.426,0,0,0,1.381-.7V173.6h1.982V181H85.217ZM84.28,170.5h2.153l-1.894,2.119H82.934Zm6.139,3.1.062.827a2.6,2.6,0,0,1,2.126-.964,1.973,1.973,0,0,1,1.962,1.128,2.54,2.54,0,0,1,2.222-1.128,2.206,2.206,0,0,1,1.791.7,3.221,3.221,0,0,1,.588,2.109V181H97.187v-4.717a1.408,1.408,0,0,0-.246-.919,1.091,1.091,0,0,0-.868-.291,1.233,1.233,0,0,0-1.23.848L94.849,181H92.873v-4.71a1.391,1.391,0,0,0-.253-.93,1.1,1.1,0,0,0-.861-.287,1.28,1.28,0,0,0-1.217.7V181H88.566v-7.4Zm13.672,7.533a3.631,3.631,0,0,1-2.649-1,3.548,3.548,0,0,1-1.022-2.659v-.191a4.468,4.468,0,0,1,.431-1.993,3.161,3.161,0,0,1,1.22-1.354,3.425,3.425,0,0,1,1.8-.475,3.07,3.07,0,0,1,2.389.957,3.889,3.889,0,0,1,.872,2.714v.807h-4.71a1.835,1.835,0,0,0,.578,1.162,1.746,1.746,0,0,0,1.22.438,2.132,2.132,0,0,0,1.784-.827l.971,1.087a2.966,2.966,0,0,1-1.2.981A3.947,3.947,0,0,1,104.091,181.137Zm-.226-6.077a1.234,1.234,0,0,0-.954.4,2.062,2.062,0,0,0-.468,1.14h2.748v-.158a1.471,1.471,0,0,0-.355-1.02A1.274,1.274,0,0,0,103.865,175.06Zm8.545.4a5.368,5.368,0,0,0-.711-.055,1.447,1.447,0,0,0-1.47.759V181h-1.976v-7.4h1.866l.055.882a1.831,1.831,0,0,1,1.647-1.019,2.07,2.07,0,0,1,.615.089Zm.4,1.777a4.387,4.387,0,0,1,.424-1.962,3.1,3.1,0,0,1,1.22-1.333,3.56,3.56,0,0,1,1.849-.472,3.368,3.368,0,0,1,2.444.916,3.676,3.676,0,0,1,1.056,2.488l.014.506a3.866,3.866,0,0,1-.95,2.731,3.683,3.683,0,0,1-5.1,0,3.934,3.934,0,0,1-.954-2.789Zm1.976.14a2.765,2.765,0,0,0,.4,1.612,1.424,1.424,0,0,0,2.256.007,3.025,3.025,0,0,0,.4-1.763,2.737,2.737,0,0,0-.4-1.6,1.311,1.311,0,0,0-1.135-.568,1.29,1.29,0,0,0-1.121.565A3.076,3.076,0,0,0,114.782,177.374Zm9.427-.127a4.457,4.457,0,0,1,.776-2.755,2.517,2.517,0,0,1,2.123-1.025,2.265,2.265,0,0,1,1.784.807V170.5h1.982V181H129.09l-.1-.786a2.325,2.325,0,0,1-1.9.923,2.511,2.511,0,0,1-2.1-1.029A4.6,4.6,0,0,1,124.209,177.247Zm1.976.147a2.92,2.92,0,0,0,.362,1.6,1.18,1.18,0,0,0,1.053.555,1.322,1.322,0,0,0,1.292-.774v-2.923a1.3,1.3,0,0,0-1.278-.774Q126.185,175.073,126.185,177.394Zm9.625,3.743a3.631,3.631,0,0,1-2.649-1,3.548,3.548,0,0,1-1.022-2.659v-.191a4.468,4.468,0,0,1,.431-1.993,3.161,3.161,0,0,1,1.22-1.354,3.425,3.425,0,0,1,1.8-.475,3.07,3.07,0,0,1,2.389.957,3.889,3.889,0,0,1,.872,2.714v.807h-4.71a1.835,1.835,0,0,0,.578,1.162,1.746,1.746,0,0,0,1.22.438,2.132,2.132,0,0,0,1.784-.827l.971,1.087a2.966,2.966,0,0,1-1.2.981A3.947,3.947,0,0,1,135.81,181.137Zm-.226-6.077a1.234,1.234,0,0,0-.954.4,2.062,2.062,0,0,0-.468,1.14h2.748v-.158a1.471,1.471,0,0,0-.355-1.02A1.274,1.274,0,0,0,135.584,175.06Zm11.279,6.077a3.631,3.631,0,0,1-2.649-1,3.548,3.548,0,0,1-1.022-2.659v-.191a4.468,4.468,0,0,1,.431-1.993,3.161,3.161,0,0,1,1.22-1.354,3.425,3.425,0,0,1,1.8-.475,3.07,3.07,0,0,1,2.389.957,3.889,3.889,0,0,1,.872,2.714v.807H145.2a1.835,1.835,0,0,0,.578,1.162,1.746,1.746,0,0,0,1.22.438,2.132,2.132,0,0,0,1.784-.827l.971,1.087a2.966,2.966,0,0,1-1.2.981A3.947,3.947,0,0,1,146.863,181.137Zm-.226-6.077a1.234,1.234,0,0,0-.954.4,2.062,2.062,0,0,0-.468,1.14h2.748v-.158a1.471,1.471,0,0,0-.355-1.02A1.274,1.274,0,0,0,146.638,175.06Zm6.207-1.456.062.854a2.582,2.582,0,0,1,2.126-.991,2.146,2.146,0,0,1,1.75.69,3.221,3.221,0,0,1,.588,2.064V181h-1.976v-4.73a1.282,1.282,0,0,0-.273-.913,1.224,1.224,0,0,0-.909-.284,1.359,1.359,0,0,0-1.251.711V181h-1.976v-7.4Zm8.388-1.818V173.6H162.5v1.449h-1.265v3.691a.881.881,0,0,0,.157.588.79.79,0,0,0,.6.178,3.15,3.15,0,0,0,.581-.048v1.5a4.067,4.067,0,0,1-1.2.178,1.886,1.886,0,0,1-2.119-2.1v-3.985h-1.08V173.6h1.08v-1.818Zm5.77,9.352a3.631,3.631,0,0,1-2.649-1,3.548,3.548,0,0,1-1.022-2.659v-.191a4.468,4.468,0,0,1,.431-1.993,3.161,3.161,0,0,1,1.22-1.354,3.425,3.425,0,0,1,1.8-.475,3.07,3.07,0,0,1,2.389.957,3.889,3.889,0,0,1,.872,2.714v.807h-4.71a1.835,1.835,0,0,0,.578,1.162,1.746,1.746,0,0,0,1.22.438,2.132,2.132,0,0,0,1.784-.827l.971,1.087a2.966,2.966,0,0,1-1.2.981A3.947,3.947,0,0,1,167,181.137Zm-.226-6.077a1.234,1.234,0,0,0-.954.4,2.062,2.062,0,0,0-.468,1.14H168.1v-.158a1.471,1.471,0,0,0-.355-1.02A1.274,1.274,0,0,0,166.776,175.06Zm8.545.4a5.368,5.368,0,0,0-.711-.055,1.447,1.447,0,0,0-1.47.759V181h-1.976v-7.4h1.866l.055.882a1.831,1.831,0,0,1,1.647-1.019,2.07,2.07,0,0,1,.615.089Zm.4,1.777a4.387,4.387,0,0,1,.424-1.962,3.1,3.1,0,0,1,1.22-1.333,3.56,3.56,0,0,1,1.849-.472,3.368,3.368,0,0,1,2.444.916,3.676,3.676,0,0,1,1.056,2.488l.014.506a3.866,3.866,0,0,1-.95,2.731,3.683,3.683,0,0,1-5.1,0,3.934,3.934,0,0,1-.954-2.789Zm1.976.14a2.765,2.765,0,0,0,.4,1.612,1.424,1.424,0,0,0,2.256.007,3.025,3.025,0,0,0,.4-1.763,2.737,2.737,0,0,0-.4-1.6,1.311,1.311,0,0,0-1.135-.568,1.29,1.29,0,0,0-1.121.565A3.076,3.076,0,0,0,177.693,177.374Zm10.254,1.582a.637.637,0,0,0-.359-.571,4.077,4.077,0,0,0-1.152-.373q-2.639-.554-2.639-2.242a2.032,2.032,0,0,1,.817-1.644,3.3,3.3,0,0,1,2.136-.66,3.547,3.547,0,0,1,2.252.663,2.09,2.09,0,0,1,.844,1.723h-1.976a.956.956,0,0,0-.273-.7,1.157,1.157,0,0,0-.854-.277,1.182,1.182,0,0,0-.772.226.712.712,0,0,0-.273.574.609.609,0,0,0,.311.53,3.2,3.2,0,0,0,1.049.349,8.57,8.57,0,0,1,1.244.332,2.044,2.044,0,0,1,1.565,1.989,1.929,1.929,0,0,1-.868,1.637,3.745,3.745,0,0,1-2.242.625,3.912,3.912,0,0,1-1.651-.332,2.77,2.77,0,0,1-1.131-.909,2.113,2.113,0,0,1-.41-1.248h1.873a1.031,1.031,0,0,0,.39.807,1.546,1.546,0,0,0,.971.28,1.43,1.43,0,0,0,.858-.215A.67.67,0,0,0,187.947,178.956ZM7.417,189.37a4.436,4.436,0,0,1-.776,2.738,2.488,2.488,0,0,1-2.1,1.029,2.3,2.3,0,0,1-1.812-.779v3.486H.759V185.6H2.591l.068.725a2.322,2.322,0,0,1,1.873-.861,2.5,2.5,0,0,1,2.126,1.012,4.556,4.556,0,0,1,.759,2.789Zm-1.976-.144a2.911,2.911,0,0,0-.366-1.593,1.191,1.191,0,0,0-1.063-.561,1.294,1.294,0,0,0-1.278.711v3.028a1.316,1.316,0,0,0,1.292.731Q5.441,191.544,5.441,189.227Zm2.892.007a4.387,4.387,0,0,1,.424-1.962,3.1,3.1,0,0,1,1.22-1.333,3.56,3.56,0,0,1,1.849-.472,3.368,3.368,0,0,1,2.444.916,3.676,3.676,0,0,1,1.056,2.488l.014.506a3.866,3.866,0,0,1-.95,2.731,3.3,3.3,0,0,1-2.55,1.029,3.319,3.319,0,0,1-2.553-1.025,3.934,3.934,0,0,1-.954-2.789Zm1.976.14a2.765,2.765,0,0,0,.4,1.612,1.424,1.424,0,0,0,2.256.007,3.025,3.025,0,0,0,.4-1.763,2.737,2.737,0,0,0-.4-1.6,1.311,1.311,0,0,0-1.135-.568,1.29,1.29,0,0,0-1.121.565A3.076,3.076,0,0,0,10.309,189.374Zm10.254,1.582a.637.637,0,0,0-.359-.571,4.077,4.077,0,0,0-1.152-.373q-2.639-.554-2.639-2.242a2.032,2.032,0,0,1,.817-1.644,3.3,3.3,0,0,1,2.136-.66,3.547,3.547,0,0,1,2.252.663,2.09,2.09,0,0,1,.844,1.723H20.487a.956.956,0,0,0-.273-.7,1.157,1.157,0,0,0-.854-.277,1.182,1.182,0,0,0-.772.226.712.712,0,0,0-.273.574.609.609,0,0,0,.311.53,3.2,3.2,0,0,0,1.049.349,8.57,8.57,0,0,1,1.244.332,2.044,2.044,0,0,1,1.565,1.989,1.929,1.929,0,0,1-.868,1.637,3.745,3.745,0,0,1-2.242.625,3.912,3.912,0,0,1-1.651-.332,2.77,2.77,0,0,1-1.131-.909,2.113,2.113,0,0,1-.41-1.248h1.873a1.031,1.031,0,0,0,.39.807,1.546,1.546,0,0,0,.971.28,1.43,1.43,0,0,0,.858-.215A.67.67,0,0,0,20.563,190.956ZM25.84,193H23.857v-7.4H25.84Zm-2.1-9.311a.973.973,0,0,1,.3-.731,1.281,1.281,0,0,1,1.617,0,1.044,1.044,0,0,1,0,1.47,1.267,1.267,0,0,1-1.606,0A.97.97,0,0,1,23.741,183.689Zm6.091.1V185.6H31.1v1.449H29.832v3.691a.881.881,0,0,0,.157.588.79.79,0,0,0,.6.178,3.15,3.15,0,0,0,.581-.048v1.5a4.067,4.067,0,0,1-1.2.178,1.886,1.886,0,0,1-2.119-2.1v-3.985h-1.08V185.6h1.08v-1.818ZM34.282,193H32.3v-7.4h1.982Zm-2.1-9.311a.973.973,0,0,1,.3-.731,1.281,1.281,0,0,1,1.617,0,1.044,1.044,0,0,1,0,1.47,1.267,1.267,0,0,1-1.606,0A.97.97,0,0,1,32.184,183.689Zm6.494,6.9,1.374-4.983h2.064l-2.5,7.4H37.734l-2.5-7.4H37.3Zm3.9-1.354A4.387,4.387,0,0,1,43,187.271a3.1,3.1,0,0,1,1.22-1.333,3.56,3.56,0,0,1,1.849-.472,3.368,3.368,0,0,1,2.444.916,3.676,3.676,0,0,1,1.056,2.488l.014.506a3.866,3.866,0,0,1-.95,2.731,3.683,3.683,0,0,1-5.1,0,3.934,3.934,0,0,1-.954-2.789Zm1.976.14a2.765,2.765,0,0,0,.4,1.612,1.424,1.424,0,0,0,2.256.007,3.025,3.025,0,0,0,.4-1.763,2.737,2.737,0,0,0-.4-1.6,1.311,1.311,0,0,0-1.135-.568,1.29,1.29,0,0,0-1.121.565A3.076,3.076,0,0,0,44.55,189.374ZM54.8,190.956a.637.637,0,0,0-.359-.571,4.077,4.077,0,0,0-1.152-.373q-2.639-.554-2.639-2.242a2.032,2.032,0,0,1,.817-1.644,3.3,3.3,0,0,1,2.136-.66,3.547,3.547,0,0,1,2.252.663,2.09,2.09,0,0,1,.844,1.723H54.729a.956.956,0,0,0-.273-.7,1.157,1.157,0,0,0-.854-.277,1.182,1.182,0,0,0-.772.226.712.712,0,0,0-.273.574.609.609,0,0,0,.311.53,3.2,3.2,0,0,0,1.049.349,8.57,8.57,0,0,1,1.244.332,2.044,2.044,0,0,1,1.565,1.989,1.929,1.929,0,0,1-.868,1.637,3.745,3.745,0,0,1-2.242.625,3.912,3.912,0,0,1-1.651-.332,2.77,2.77,0,0,1-1.131-.909,2.113,2.113,0,0,1-.41-1.248h1.873a1.031,1.031,0,0,0,.39.807,1.546,1.546,0,0,0,.971.28,1.43,1.43,0,0,0,.858-.215A.67.67,0,0,0,54.8,190.956Zm10.083,2.181a3.631,3.631,0,0,1-2.649-1,3.548,3.548,0,0,1-1.022-2.659v-.191a4.468,4.468,0,0,1,.431-1.993,3.161,3.161,0,0,1,1.22-1.354,3.425,3.425,0,0,1,1.8-.475,3.07,3.07,0,0,1,2.389.957,3.889,3.889,0,0,1,.872,2.714v.807h-4.71a1.835,1.835,0,0,0,.578,1.162,1.746,1.746,0,0,0,1.22.438,2.132,2.132,0,0,0,1.784-.827l.971,1.087a2.966,2.966,0,0,1-1.2.981A3.947,3.947,0,0,1,64.887,193.137Zm-.226-6.077a1.234,1.234,0,0,0-.954.4,2.062,2.062,0,0,0-.468,1.14h2.748v-.158a1.471,1.471,0,0,0-.355-1.02A1.274,1.274,0,0,0,64.661,187.06Zm8.395,3.9a.637.637,0,0,0-.359-.571,4.077,4.077,0,0,0-1.152-.373q-2.639-.554-2.639-2.242a2.032,2.032,0,0,1,.817-1.644,3.3,3.3,0,0,1,2.136-.66,3.547,3.547,0,0,1,2.252.663,2.09,2.09,0,0,1,.844,1.723H72.98a.956.956,0,0,0-.273-.7,1.157,1.157,0,0,0-.854-.277,1.182,1.182,0,0,0-.772.226.712.712,0,0,0-.273.574.609.609,0,0,0,.311.53,3.2,3.2,0,0,0,1.049.349,8.57,8.57,0,0,1,1.244.332,2.044,2.044,0,0,1,1.565,1.989,1.929,1.929,0,0,1-.868,1.637,3.745,3.745,0,0,1-2.242.625,3.912,3.912,0,0,1-1.651-.332,2.77,2.77,0,0,1-1.131-.909,2.113,2.113,0,0,1-.41-1.248h1.873a1.031,1.031,0,0,0,.39.807,1.546,1.546,0,0,0,.971.28,1.43,1.43,0,0,0,.858-.215A.67.67,0,0,0,73.056,190.956Zm3.855-4.854-.93-.54a3.65,3.65,0,0,0,.608-1.907V182.5h1.572v1.06a3.123,3.123,0,0,1-.342,1.333A3.665,3.665,0,0,1,76.911,186.1Zm2.372,0-.93-.54a3.65,3.65,0,0,0,.608-1.907V182.5h1.572v1.06a3.123,3.123,0,0,1-.342,1.333A3.665,3.665,0,0,1,79.283,186.1Zm9.249,5.441a1.3,1.3,0,0,0,.889-.3,1.054,1.054,0,0,0,.355-.8h1.853a2.534,2.534,0,0,1-.41,1.377,2.706,2.706,0,0,1-1.1.971,3.455,3.455,0,0,1-1.548.345,3.211,3.211,0,0,1-2.5-1.008,3.99,3.99,0,0,1-.916-2.786v-.13a3.944,3.944,0,0,1,.909-2.728,3.174,3.174,0,0,1,2.5-1.019,3.111,3.111,0,0,1,2.225.79,2.8,2.8,0,0,1,.851,2.1H89.776a1.358,1.358,0,0,0-.355-.938,1.321,1.321,0,0,0-1.945.142,2.916,2.916,0,0,0-.352,1.633v.205a2.953,2.953,0,0,0,.349,1.643A1.2,1.2,0,0,0,88.532,191.544Zm3.917-2.311a4.387,4.387,0,0,1,.424-1.962,3.1,3.1,0,0,1,1.22-1.333,3.56,3.56,0,0,1,1.849-.472,3.368,3.368,0,0,1,2.444.916,3.676,3.676,0,0,1,1.056,2.488l.014.506a3.866,3.866,0,0,1-.95,2.731,3.683,3.683,0,0,1-5.1,0,3.934,3.934,0,0,1-.954-2.789Zm1.976.14a2.765,2.765,0,0,0,.4,1.612,1.424,1.424,0,0,0,2.256.007,3.025,3.025,0,0,0,.4-1.763,2.737,2.737,0,0,0-.4-1.6,1.311,1.311,0,0,0-1.135-.568,1.29,1.29,0,0,0-1.121.565A3.076,3.076,0,0,0,94.425,189.374Zm8.066-3.77.062.854a2.582,2.582,0,0,1,2.126-.991,2.146,2.146,0,0,1,1.75.69,3.221,3.221,0,0,1,.588,2.064V193h-1.976v-4.73a1.282,1.282,0,0,0-.273-.913,1.224,1.224,0,0,0-.909-.284,1.359,1.359,0,0,0-1.251.711V193h-1.976v-7.4Zm8.388-1.818V185.6h1.265v1.449h-1.265v3.691a.881.881,0,0,0,.157.588.79.79,0,0,0,.6.178,3.15,3.15,0,0,0,.581-.048v1.5a4.067,4.067,0,0,1-1.2.178,1.886,1.886,0,0,1-2.119-2.1v-3.985h-1.08V185.6h1.08v-1.818ZM117.53,193a2.194,2.194,0,0,1-.2-.663,2.39,2.39,0,0,1-1.866.8,2.626,2.626,0,0,1-1.8-.629,2.023,2.023,0,0,1-.714-1.586,2.09,2.09,0,0,1,.872-1.8,4.3,4.3,0,0,1,2.519-.636h.909v-.424a1.219,1.219,0,0,0-.263-.82,1.035,1.035,0,0,0-.831-.308,1.177,1.177,0,0,0-.783.239.813.813,0,0,0-.284.656h-1.976a1.984,1.984,0,0,1,.4-1.189,2.621,2.621,0,0,1,1.121-.858,4.086,4.086,0,0,1,1.627-.311,3.228,3.228,0,0,1,2.17.687,2.4,2.4,0,0,1,.8,1.931v3.206a3.536,3.536,0,0,0,.294,1.593V193Zm-1.634-1.374a1.7,1.7,0,0,0,.807-.195,1.28,1.28,0,0,0,.547-.523v-1.271h-.738q-1.483,0-1.579,1.025l-.007.116a.791.791,0,0,0,.26.608A1.009,1.009,0,0,0,115.9,191.626Zm4.546-2.379a4.457,4.457,0,0,1,.776-2.755,2.517,2.517,0,0,1,2.123-1.025,2.265,2.265,0,0,1,1.784.807V182.5h1.982V193h-1.784l-.1-.786a2.325,2.325,0,0,1-1.9.923,2.511,2.511,0,0,1-2.1-1.029A4.6,4.6,0,0,1,120.442,189.247Zm1.976.147a2.92,2.92,0,0,0,.362,1.6,1.18,1.18,0,0,0,1.053.555,1.322,1.322,0,0,0,1.292-.774v-2.923a1.3,1.3,0,0,0-1.278-.774Q122.418,187.073,122.418,189.394Zm5.913-.161a4.387,4.387,0,0,1,.424-1.962,3.1,3.1,0,0,1,1.22-1.333,3.56,3.56,0,0,1,1.849-.472,3.368,3.368,0,0,1,2.444.916,3.676,3.676,0,0,1,1.056,2.488l.014.506a3.866,3.866,0,0,1-.95,2.731,3.683,3.683,0,0,1-5.1,0,3.934,3.934,0,0,1-.954-2.789Zm1.976.14a2.765,2.765,0,0,0,.4,1.612,1.424,1.424,0,0,0,2.256.007,3.025,3.025,0,0,0,.4-1.763,2.737,2.737,0,0,0-.4-1.6,1.311,1.311,0,0,0-1.135-.568,1.29,1.29,0,0,0-1.121.565A3.076,3.076,0,0,0,130.307,189.374Zm10.4-1.918A5.368,5.368,0,0,0,140,187.4a1.447,1.447,0,0,0-1.47.759V193h-1.976v-7.4h1.866l.055.882a1.831,1.831,0,0,1,1.647-1.019,2.07,2.07,0,0,1,.615.089ZM6.877,212.933H2.939V217H.889v-9.953h6.48v1.661H2.939v2.57H6.877ZM10.514,217H8.531v-7.4h1.982Zm-2.1-9.311a.973.973,0,0,1,.3-.731,1.117,1.117,0,0,1,.81-.287,1.12,1.12,0,0,1,.807.287,1.044,1.044,0,0,1,0,1.47,1.122,1.122,0,0,1-.8.287,1.122,1.122,0,0,1-.8-.287A.97.97,0,0,1,8.415,207.689Zm5.544,1.914.062.854a2.582,2.582,0,0,1,2.126-.991,2.146,2.146,0,0,1,1.75.69,3.221,3.221,0,0,1,.588,2.064V217H16.509v-4.73a1.282,1.282,0,0,0-.273-.913,1.224,1.224,0,0,0-.909-.284,1.359,1.359,0,0,0-1.251.711V217H12.1v-7.4Z" transform="translate(1159 3994.947)" fill="#12263f"/>
    <path id="Trazado_190441" data-name="Trazado 190441" d="M2.91,0H83.818c1.607,0,2.91.975,2.91,2.177V16.548c0,1.2-1.3,2.177-2.91,2.177H2.91C1.3,18.725,0,17.751,0,16.548V2.177C0,.975,1.3,0,2.91,0Z" transform="translate(1018 4025.947)" fill="#75e3d9"/>
    <path id="Trazado_191503" data-name="Trazado 191503" d="M8.081-3.079A3.27,3.27,0,0,1,6.979-.73,3.868,3.868,0,0,1,4.361.127a3.478,3.478,0,0,1-2.8-1.2A4.906,4.906,0,0,1,.546-4.354v-.565a5.54,5.54,0,0,1,.47-2.349A3.52,3.52,0,0,1,2.358-8.826a3.761,3.761,0,0,1,2.028-.543,3.768,3.768,0,0,1,2.577.857,3.515,3.515,0,0,1,1.13,2.406h-1.9a1.93,1.93,0,0,0-.5-1.3,1.845,1.845,0,0,0-1.3-.4,1.618,1.618,0,0,0-1.425.682,3.824,3.824,0,0,0-.486,2.117v.7a4.093,4.093,0,0,0,.454,2.19,1.588,1.588,0,0,0,1.431.692,1.88,1.88,0,0,0,1.317-.4,1.821,1.821,0,0,0,.5-1.247ZM8.925-3.5a4.073,4.073,0,0,1,.394-1.822,2.881,2.881,0,0,1,1.133-1.238A3.306,3.306,0,0,1,12.168-7a3.128,3.128,0,0,1,2.269.851,3.414,3.414,0,0,1,.981,2.311l.013.47a3.59,3.59,0,0,1-.882,2.536,3.067,3.067,0,0,1-2.368.955A3.082,3.082,0,0,1,9.81-.825a3.653,3.653,0,0,1-.885-2.59Zm1.834.13a2.567,2.567,0,0,0,.368,1.5,1.215,1.215,0,0,0,1.054.518,1.217,1.217,0,0,0,1.041-.512A2.809,2.809,0,0,0,13.6-3.5a2.542,2.542,0,0,0-.375-1.488,1.217,1.217,0,0,0-1.054-.528,1.2,1.2,0,0,0-1.041.524A2.857,2.857,0,0,0,10.759-3.367Zm7.49-3.5.057.793A2.4,2.4,0,0,1,20.281-7a1.993,1.993,0,0,1,1.625.641,2.991,2.991,0,0,1,.546,1.917V0H20.617V-4.393a1.19,1.19,0,0,0-.254-.847,1.137,1.137,0,0,0-.844-.263,1.262,1.262,0,0,0-1.162.66V0H16.523V-6.868Zm7.789-1.688v1.688h1.174v1.346H26.038v3.428a.818.818,0,0,0,.146.546.733.733,0,0,0,.559.165,2.925,2.925,0,0,0,.54-.044v1.39a3.777,3.777,0,0,1-1.111.165A1.752,1.752,0,0,1,24.2-1.822v-3.7h-1V-6.868h1V-8.557ZM32.214,0a2.037,2.037,0,0,1-.184-.616A2.22,2.22,0,0,1,30.3.127a2.439,2.439,0,0,1-1.673-.584,1.878,1.878,0,0,1-.663-1.473,1.941,1.941,0,0,1,.809-1.676A3.994,3.994,0,0,1,31.11-4.2h.844v-.394a1.132,1.132,0,0,0-.244-.762.961.961,0,0,0-.771-.286,1.093,1.093,0,0,0-.727.222.755.755,0,0,0-.263.609H28.114a1.843,1.843,0,0,1,.368-1.1,2.434,2.434,0,0,1,1.041-.8A3.794,3.794,0,0,1,31.034-7a3,3,0,0,1,2.015.638,2.232,2.232,0,0,1,.746,1.793v2.977a3.284,3.284,0,0,0,.273,1.479V0ZM30.7-1.276a1.58,1.58,0,0,0,.749-.181,1.188,1.188,0,0,0,.508-.486V-3.123h-.686q-1.377,0-1.466.952l-.006.108a.734.734,0,0,0,.241.565A.937.937,0,0,0,30.7-1.276Zm4.221-2.209a4.139,4.139,0,0,1,.72-2.558A2.338,2.338,0,0,1,37.61-7a2.1,2.1,0,0,1,1.657.749v-3.5h1.841V0H39.451l-.089-.73A2.159,2.159,0,0,1,37.6.127a2.331,2.331,0,0,1-1.946-.955A4.272,4.272,0,0,1,34.918-3.485Zm1.834.137a2.711,2.711,0,0,0,.336,1.481,1.1,1.1,0,0,0,.978.515,1.227,1.227,0,0,0,1.2-.718V-4.785A1.21,1.21,0,0,0,38.08-5.5Q36.753-5.5,36.753-3.348ZM42.244-3.5a4.073,4.073,0,0,1,.394-1.822A2.881,2.881,0,0,1,43.77-6.557,3.306,3.306,0,0,1,45.487-7a3.128,3.128,0,0,1,2.269.851,3.414,3.414,0,0,1,.981,2.311l.013.47a3.59,3.59,0,0,1-.882,2.536A3.067,3.067,0,0,1,45.5.127a3.082,3.082,0,0,1-2.371-.952,3.653,3.653,0,0,1-.885-2.59Zm1.834.13a2.567,2.567,0,0,0,.368,1.5,1.215,1.215,0,0,0,1.054.518,1.217,1.217,0,0,0,1.041-.512A2.809,2.809,0,0,0,46.916-3.5a2.542,2.542,0,0,0-.375-1.488,1.217,1.217,0,0,0-1.054-.528,1.2,1.2,0,0,0-1.041.524A2.857,2.857,0,0,0,44.078-3.367Zm9.661-1.781a4.984,4.984,0,0,0-.66-.051,1.344,1.344,0,0,0-1.365.7V0H49.88V-6.868h1.733l.051.819A1.7,1.7,0,0,1,53.193-7a1.922,1.922,0,0,1,.571.083Zm9.953.413H58.018v-1.5h5.675Zm0,2.749H58.018v-1.5h5.675ZM74.68-3.821a4.682,4.682,0,0,1-.793,2.933A2.77,2.77,0,0,1,71.563.127a2.789,2.789,0,0,1-2.311-1,4.545,4.545,0,0,1-.819-2.856v-1.7a4.621,4.621,0,0,1,.8-2.939,2.79,2.79,0,0,1,2.314-1,2.793,2.793,0,0,1,2.311.993,4.531,4.531,0,0,1,.819,2.853Zm-1.834-1.87a3.384,3.384,0,0,0-.314-1.674,1.062,1.062,0,0,0-.981-.524,1.043,1.043,0,0,0-.955.5,3.167,3.167,0,0,0-.327,1.56v2.249A3.553,3.553,0,0,0,70.576-1.9a1.048,1.048,0,0,0,.987.55,1.03,1.03,0,0,0,.971-.527,3.468,3.468,0,0,0,.311-1.614Z" transform="translate(1022 4039.947)" fill="#12263f"/>
    <path id="Trazado_191504" data-name="Trazado 191504" d="M9.5,0h43a9.5,9.5,0,0,1,0,19H9.5a9.5,9.5,0,0,1,0-19Z" transform="translate(1030 4052.947)" fill="#75e3d9"/>
    <path id="Trazado_191505" data-name="Trazado 191505" d="M8.341,0h-1.9L2.729-6.081V0H.825V-9.242h1.9L6.443-3.148V-9.242h1.9ZM14-.7a2.3,2.3,0,0,1-1.879.825,2.17,2.17,0,0,1-1.685-.635,2.71,2.71,0,0,1-.594-1.86v-4.5h1.834v4.442q0,1.074.978,1.074A1.325,1.325,0,0,0,13.933-2V-6.868h1.841V0H14.047ZM13.178-9.75h2L13.419-7.782H11.927Zm5.7,2.882.057.768A2.414,2.414,0,0,1,20.909-7a1.832,1.832,0,0,1,1.822,1.047A2.358,2.358,0,0,1,24.794-7a2.049,2.049,0,0,1,1.663.651A2.991,2.991,0,0,1,27-4.386V0H25.162V-4.38a1.308,1.308,0,0,0-.229-.854,1.013,1.013,0,0,0-.806-.27,1.145,1.145,0,0,0-1.143.787L22.991,0H21.157V-4.374a1.292,1.292,0,0,0-.235-.863,1.023,1.023,0,0,0-.8-.267,1.189,1.189,0,0,0-1.13.647V0H17.158V-6.868Zm12.7,7A3.372,3.372,0,0,1,29.114-.8a3.294,3.294,0,0,1-.949-2.469v-.178a4.149,4.149,0,0,1,.4-1.85A2.935,2.935,0,0,1,29.7-6.554,3.18,3.18,0,0,1,31.37-7a2.85,2.85,0,0,1,2.219.889,3.611,3.611,0,0,1,.809,2.52v.749H30.024a1.7,1.7,0,0,0,.536,1.079,1.621,1.621,0,0,0,1.133.406,1.98,1.98,0,0,0,1.657-.768l.9,1.009A2.754,2.754,0,0,1,33.135-.2,3.665,3.665,0,0,1,31.573.127Zm-.209-5.643a1.146,1.146,0,0,0-.885.37,1.915,1.915,0,0,0-.435,1.058H32.6v-.147a1.366,1.366,0,0,0-.33-.947A1.183,1.183,0,0,0,31.364-5.516Zm7.935.368a4.984,4.984,0,0,0-.66-.051,1.344,1.344,0,0,0-1.365.7V0H35.439V-6.868h1.733l.051.819A1.7,1.7,0,0,1,38.752-7a1.922,1.922,0,0,1,.571.083Zm.368,1.65a4.073,4.073,0,0,1,.394-1.822,2.881,2.881,0,0,1,1.133-1.238A3.306,3.306,0,0,1,42.91-7a3.128,3.128,0,0,1,2.269.851,3.414,3.414,0,0,1,.981,2.311l.013.47a3.59,3.59,0,0,1-.882,2.536,3.067,3.067,0,0,1-2.368.955,3.082,3.082,0,0,1-2.371-.952,3.653,3.653,0,0,1-.885-2.59Zm1.834.13a2.567,2.567,0,0,0,.368,1.5,1.215,1.215,0,0,0,1.054.518,1.217,1.217,0,0,0,1.041-.512A2.809,2.809,0,0,0,44.338-3.5a2.542,2.542,0,0,0-.375-1.488,1.217,1.217,0,0,0-1.054-.528,1.2,1.2,0,0,0-1.041.524A2.857,2.857,0,0,0,41.5-3.367Z" transform="translate(1038 4065.947)" fill="#12263f"/>
    <path id="Trazado_190442" data-name="Trazado 190442" d="M-5449.706-7653.6h74.225l4.282,7.724-4.282,7.257h-74.225l-3.294-7.257Z" transform="translate(6473 11733.206)" fill="#75e3d9"/>
    <path id="Trazado_191506" data-name="Trazado 191506" d="M8.341,0h-1.9L2.729-6.081V0H.825V-9.242h1.9L6.443-3.148V-9.242h1.9ZM14-.7a2.3,2.3,0,0,1-1.879.825,2.17,2.17,0,0,1-1.685-.635,2.71,2.71,0,0,1-.594-1.86v-4.5h1.834v4.442q0,1.074.978,1.074A1.325,1.325,0,0,0,13.933-2V-6.868h1.841V0H14.047ZM13.178-9.75h2L13.419-7.782H11.927Zm5.7,2.882.057.768A2.414,2.414,0,0,1,20.909-7a1.832,1.832,0,0,1,1.822,1.047A2.358,2.358,0,0,1,24.794-7a2.049,2.049,0,0,1,1.663.651A2.991,2.991,0,0,1,27-4.386V0H25.162V-4.38a1.308,1.308,0,0,0-.229-.854,1.013,1.013,0,0,0-.806-.27,1.145,1.145,0,0,0-1.143.787L22.991,0H21.157V-4.374a1.292,1.292,0,0,0-.235-.863,1.023,1.023,0,0,0-.8-.267,1.189,1.189,0,0,0-1.13.647V0H17.158V-6.868Zm12.7,7A3.372,3.372,0,0,1,29.114-.8a3.294,3.294,0,0,1-.949-2.469v-.178a4.149,4.149,0,0,1,.4-1.85A2.935,2.935,0,0,1,29.7-6.554,3.18,3.18,0,0,1,31.37-7a2.85,2.85,0,0,1,2.219.889,3.611,3.611,0,0,1,.809,2.52v.749H30.024a1.7,1.7,0,0,0,.536,1.079,1.621,1.621,0,0,0,1.133.406,1.98,1.98,0,0,0,1.657-.768l.9,1.009A2.754,2.754,0,0,1,33.135-.2,3.665,3.665,0,0,1,31.573.127Zm-.209-5.643a1.146,1.146,0,0,0-.885.37,1.915,1.915,0,0,0-.435,1.058H32.6v-.147a1.366,1.366,0,0,0-.33-.947A1.183,1.183,0,0,0,31.364-5.516Zm7.935.368a4.984,4.984,0,0,0-.66-.051,1.344,1.344,0,0,0-1.365.7V0H35.439V-6.868h1.733l.051.819A1.7,1.7,0,0,1,38.752-7a1.922,1.922,0,0,1,.571.083Zm.368,1.65a4.073,4.073,0,0,1,.394-1.822,2.881,2.881,0,0,1,1.133-1.238A3.306,3.306,0,0,1,42.91-7a3.128,3.128,0,0,1,2.269.851,3.414,3.414,0,0,1,.981,2.311l.013.47a3.59,3.59,0,0,1-.882,2.536,3.067,3.067,0,0,1-2.368.955,3.082,3.082,0,0,1-2.371-.952,3.653,3.653,0,0,1-.885-2.59Zm1.834.13a2.567,2.567,0,0,0,.368,1.5,1.215,1.215,0,0,0,1.054.518,1.217,1.217,0,0,0,1.041-.512A2.809,2.809,0,0,0,44.338-3.5a2.542,2.542,0,0,0-.375-1.488,1.217,1.217,0,0,0-1.054-.528,1.2,1.2,0,0,0-1.041.524A2.857,2.857,0,0,0,41.5-3.367Zm12.784-.575L50.6-5.23V-7l5.529,2.317v1.492L50.6-.863V-2.634Zm9.115.121a4.682,4.682,0,0,1-.793,2.933A2.77,2.77,0,0,1,60.284.127a2.789,2.789,0,0,1-2.311-1,4.545,4.545,0,0,1-.819-2.856v-1.7a4.621,4.621,0,0,1,.8-2.939,2.79,2.79,0,0,1,2.314-1,2.793,2.793,0,0,1,2.311.993A4.531,4.531,0,0,1,63.4-5.522Zm-1.834-1.87a3.384,3.384,0,0,0-.314-1.674,1.062,1.062,0,0,0-.981-.524,1.043,1.043,0,0,0-.955.5,3.167,3.167,0,0,0-.327,1.56v2.249A3.553,3.553,0,0,0,59.3-1.9a1.048,1.048,0,0,0,.987.55,1.03,1.03,0,0,0,.971-.527,3.468,3.468,0,0,0,.311-1.614Z" transform="translate(1029 4091.947)" fill="#12263f"/>
    <path id="Trazado_191507" data-name="Trazado 191507" d="M0,0H144V18H0Z" transform="translate(989 4101.947)" fill="#75e3d9"/>
    <path id="Trazado_191508" data-name="Trazado 191508" d="M7.459-2.842A3.019,3.019,0,0,1,6.442-.674,3.57,3.57,0,0,1,4.025.117a3.21,3.21,0,0,1-2.581-1.1A4.529,4.529,0,0,1,.5-4.02v-.521A5.114,5.114,0,0,1,.938-6.709,3.249,3.249,0,0,1,2.177-8.147a3.471,3.471,0,0,1,1.872-.5,3.478,3.478,0,0,1,2.379.791A3.244,3.244,0,0,1,7.471-5.637H5.713a1.782,1.782,0,0,0-.46-1.2,1.7,1.7,0,0,0-1.2-.372,1.494,1.494,0,0,0-1.315.63,3.53,3.53,0,0,0-.448,1.954v.645A3.778,3.778,0,0,0,2.7-1.957a1.466,1.466,0,0,0,1.321.639A1.735,1.735,0,0,0,5.241-1.69,1.681,1.681,0,0,0,5.7-2.842Zm.719-.387A3.76,3.76,0,0,1,8.542-4.91,2.659,2.659,0,0,1,9.587-6.053a3.051,3.051,0,0,1,1.585-.4,2.887,2.887,0,0,1,2.095.785,3.151,3.151,0,0,1,.905,2.133l.012.434A3.314,3.314,0,0,1,13.37-.765a2.831,2.831,0,0,1-2.186.882A2.845,2.845,0,0,1,9-.762a3.372,3.372,0,0,1-.817-2.391Zm1.693.12a2.37,2.37,0,0,0,.34,1.382,1.121,1.121,0,0,0,.973.478,1.124,1.124,0,0,0,.961-.472,2.593,2.593,0,0,0,.346-1.511A2.346,2.346,0,0,0,12.145-4.6a1.124,1.124,0,0,0-.973-.487,1.105,1.105,0,0,0-.961.484A2.637,2.637,0,0,0,9.872-3.108ZM16.726-6.34l.053.732a2.213,2.213,0,0,1,1.822-.85,1.84,1.84,0,0,1,1.5.592,2.761,2.761,0,0,1,.5,1.77V0H18.911V-4.055a1.1,1.1,0,0,0-.234-.782A1.049,1.049,0,0,0,17.9-5.08a1.165,1.165,0,0,0-1.072.609V0H15.132V-6.34ZM23.855-7.9V-6.34h1.084V-5.1H23.855v3.164a.756.756,0,0,0,.135.5.677.677,0,0,0,.516.152,2.7,2.7,0,0,0,.5-.041V-.035a3.486,3.486,0,0,1-1.025.152,1.617,1.617,0,0,1-1.816-1.8V-5.1h-.926V-6.34h.926V-7.9ZM29.5,0a1.88,1.88,0,0,1-.17-.568,2.049,2.049,0,0,1-1.6.686,2.251,2.251,0,0,1-1.544-.539,1.734,1.734,0,0,1-.612-1.359,1.792,1.792,0,0,1,.747-1.547,3.686,3.686,0,0,1,2.159-.545h.779v-.363a1.045,1.045,0,0,0-.226-.7.887.887,0,0,0-.712-.264A1.009,1.009,0,0,0,27.648-5a.7.7,0,0,0-.243.563H25.711a1.7,1.7,0,0,1,.34-1.02,2.246,2.246,0,0,1,.961-.735,3.5,3.5,0,0,1,1.395-.267,2.767,2.767,0,0,1,1.86.589,2.06,2.06,0,0,1,.688,1.655v2.748A3.031,3.031,0,0,0,31.207-.1V0ZM28.1-1.178a1.458,1.458,0,0,0,.691-.167,1.1,1.1,0,0,0,.469-.448v-1.09h-.633q-1.271,0-1.354.879l-.006.1a.678.678,0,0,0,.223.521A.865.865,0,0,0,28.1-1.178Zm3.836-2.039A3.821,3.821,0,0,1,32.6-5.578a2.158,2.158,0,0,1,1.819-.879,1.942,1.942,0,0,1,1.529.691V-9h1.7V0H36.116l-.082-.674a1.993,1.993,0,0,1-1.629.791,2.152,2.152,0,0,1-1.8-.882A3.944,3.944,0,0,1,31.932-3.217Zm1.693.126a2.5,2.5,0,0,0,.311,1.367,1.012,1.012,0,0,0,.9.475,1.133,1.133,0,0,0,1.107-.663V-4.417a1.117,1.117,0,0,0-1.1-.663Q33.626-5.08,33.626-3.091Zm5.008-.138A3.76,3.76,0,0,1,39-4.91a2.659,2.659,0,0,1,1.046-1.143,3.051,3.051,0,0,1,1.585-.4,2.887,2.887,0,0,1,2.095.785,3.151,3.151,0,0,1,.905,2.133l.012.434a3.314,3.314,0,0,1-.814,2.341A2.831,2.831,0,0,1,41.64.117a2.845,2.845,0,0,1-2.188-.879,3.372,3.372,0,0,1-.817-2.391Zm1.693.12a2.37,2.37,0,0,0,.34,1.382,1.121,1.121,0,0,0,.973.478A1.124,1.124,0,0,0,42.6-1.72a2.593,2.593,0,0,0,.346-1.511A2.346,2.346,0,0,0,42.6-4.6a1.124,1.124,0,0,0-.973-.487,1.105,1.105,0,0,0-.961.484A2.637,2.637,0,0,0,40.327-3.108Zm8.858-1.644a4.6,4.6,0,0,0-.609-.047,1.24,1.24,0,0,0-1.26.65V0H45.623V-6.34h1.6l.047.756a1.569,1.569,0,0,1,1.412-.873,1.774,1.774,0,0,1,.527.076Zm9.067.381H53.015V-5.754h5.238Zm0,2.537H53.015V-3.217h5.238ZM69.412-2.842A3.019,3.019,0,0,1,68.4-.674a3.57,3.57,0,0,1-2.417.791A3.21,3.21,0,0,1,63.4-.987a4.529,4.529,0,0,1-.94-3.032v-.521a5.114,5.114,0,0,1,.434-2.168A3.249,3.249,0,0,1,64.13-8.147,3.471,3.471,0,0,1,66-8.648a3.478,3.478,0,0,1,2.379.791,3.244,3.244,0,0,1,1.043,2.221H67.666a1.782,1.782,0,0,0-.46-1.2A1.7,1.7,0,0,0,66-7.207a1.494,1.494,0,0,0-1.315.63,3.53,3.53,0,0,0-.448,1.954v.645a3.778,3.778,0,0,0,.419,2.021,1.466,1.466,0,0,0,1.321.639,1.735,1.735,0,0,0,1.216-.372,1.681,1.681,0,0,0,.46-1.151Zm.719-.387a3.76,3.76,0,0,1,.363-1.682,2.659,2.659,0,0,1,1.046-1.143,3.051,3.051,0,0,1,1.585-.4,2.887,2.887,0,0,1,2.095.785,3.151,3.151,0,0,1,.905,2.133l.012.434a3.314,3.314,0,0,1-.814,2.341,2.831,2.831,0,0,1-2.186.882,2.845,2.845,0,0,1-2.188-.879,3.372,3.372,0,0,1-.817-2.391Zm1.693.12a2.37,2.37,0,0,0,.34,1.382,1.121,1.121,0,0,0,.973.478A1.124,1.124,0,0,0,74.1-1.72a2.593,2.593,0,0,0,.346-1.511A2.346,2.346,0,0,0,74.1-4.6a1.124,1.124,0,0,0-.973-.487,1.105,1.105,0,0,0-.961.484A2.637,2.637,0,0,0,71.825-3.108ZM78.679-6.34l.053.732a2.213,2.213,0,0,1,1.822-.85,1.84,1.84,0,0,1,1.5.592,2.761,2.761,0,0,1,.5,1.77V0H80.865V-4.055a1.1,1.1,0,0,0-.234-.782,1.049,1.049,0,0,0-.779-.243,1.165,1.165,0,0,0-1.072.609V0H77.085V-6.34ZM85.808-7.9V-6.34h1.084V-5.1H85.808v3.164a.756.756,0,0,0,.135.5.677.677,0,0,0,.516.152,2.7,2.7,0,0,0,.5-.041V-.035a3.486,3.486,0,0,1-1.025.152,1.617,1.617,0,0,1-1.816-1.8V-5.1h-.926V-6.34h.926V-7.9ZM91.45,0a1.88,1.88,0,0,1-.17-.568,2.049,2.049,0,0,1-1.6.686,2.251,2.251,0,0,1-1.544-.539,1.734,1.734,0,0,1-.612-1.359,1.792,1.792,0,0,1,.747-1.547,3.686,3.686,0,0,1,2.159-.545h.779v-.363a1.045,1.045,0,0,0-.226-.7.887.887,0,0,0-.712-.264A1.009,1.009,0,0,0,89.6-5a.7.7,0,0,0-.243.563H87.664A1.7,1.7,0,0,1,88-5.455a2.246,2.246,0,0,1,.961-.735,3.5,3.5,0,0,1,1.395-.267,2.767,2.767,0,0,1,1.86.589,2.06,2.06,0,0,1,.688,1.655v2.748A3.031,3.031,0,0,0,93.161-.1V0Zm-1.4-1.178a1.458,1.458,0,0,0,.691-.167,1.1,1.1,0,0,0,.469-.448v-1.09h-.633q-1.271,0-1.354.879l-.006.1a.678.678,0,0,0,.223.521A.865.865,0,0,0,90.049-1.178Zm3.836-2.039a3.821,3.821,0,0,1,.665-2.361,2.158,2.158,0,0,1,1.819-.879,1.942,1.942,0,0,1,1.529.691V-9h1.7V0H98.069l-.082-.674a1.993,1.993,0,0,1-1.629.791,2.152,2.152,0,0,1-1.8-.882A3.944,3.944,0,0,1,93.886-3.217Zm1.693.126a2.5,2.5,0,0,0,.311,1.367,1.012,1.012,0,0,0,.9.475A1.133,1.133,0,0,0,97.9-1.911V-4.417a1.117,1.117,0,0,0-1.1-.663Q95.579-5.08,95.579-3.091Zm5.008-.138a3.76,3.76,0,0,1,.363-1.682A2.659,2.659,0,0,1,102-6.053a3.051,3.051,0,0,1,1.585-.4,2.887,2.887,0,0,1,2.095.785,3.151,3.151,0,0,1,.905,2.133l.012.434a3.314,3.314,0,0,1-.814,2.341,2.831,2.831,0,0,1-2.186.882A2.845,2.845,0,0,1,101.4-.762a3.372,3.372,0,0,1-.817-2.391Zm1.693.12a2.37,2.37,0,0,0,.34,1.382,1.121,1.121,0,0,0,.973.478,1.124,1.124,0,0,0,.961-.472,2.593,2.593,0,0,0,.346-1.511,2.346,2.346,0,0,0-.346-1.373,1.124,1.124,0,0,0-.973-.487,1.105,1.105,0,0,0-.961.484A2.637,2.637,0,0,0,102.281-3.108Zm8.858-1.644a4.6,4.6,0,0,0-.609-.047,1.24,1.24,0,0,0-1.26.65V0h-1.693V-6.34h1.6l.047.756a1.569,1.569,0,0,1,1.412-.873,1.774,1.774,0,0,1,.527.076Zm7.1-.023h2.115v1.529h-2.115V-.855h-1.611V-3.246h-2.121V-4.775h2.121V-7.066h1.611ZM128.284,0H126.59V-6.527l-2.021.627V-7.277L128.1-8.543h.182Z" transform="translate(996 4114.947)" fill="#12263f"/>
    <path id="Trazado_191509" data-name="Trazado 191509" d="M9.5,0h43a9.5,9.5,0,0,1,0,19H9.5a9.5,9.5,0,0,1,0-19Z" transform="translate(1030 4127.947)" fill="#75e3d9"/>
    <path id="Trazado_191510" data-name="Trazado 191510" d="M2,0H47a2,2,0,0,1,2,2V16a2,2,0,0,1-2,2H2a2,2,0,0,1-2-2V2A2,2,0,0,1,2,0Z" transform="translate(1037 4153.947)" fill="#75e3d9"/>
    <path id="Trazado_191511" data-name="Trazado 191511" d="M8.341,0h-1.9L2.729-6.081V0H.825V-9.242h1.9L6.443-3.148V-9.242h1.9ZM14-.7a2.3,2.3,0,0,1-1.879.825,2.17,2.17,0,0,1-1.685-.635,2.71,2.71,0,0,1-.594-1.86v-4.5h1.834v4.442q0,1.074.978,1.074A1.325,1.325,0,0,0,13.933-2V-6.868h1.841V0H14.047ZM13.178-9.75h2L13.419-7.782H11.927Zm5.7,2.882.057.768A2.414,2.414,0,0,1,20.909-7a1.832,1.832,0,0,1,1.822,1.047A2.358,2.358,0,0,1,24.794-7a2.049,2.049,0,0,1,1.663.651A2.991,2.991,0,0,1,27-4.386V0H25.162V-4.38a1.308,1.308,0,0,0-.229-.854,1.013,1.013,0,0,0-.806-.27,1.145,1.145,0,0,0-1.143.787L22.991,0H21.157V-4.374a1.292,1.292,0,0,0-.235-.863,1.023,1.023,0,0,0-.8-.267,1.189,1.189,0,0,0-1.13.647V0H17.158V-6.868Zm12.7,7A3.372,3.372,0,0,1,29.114-.8a3.294,3.294,0,0,1-.949-2.469v-.178a4.149,4.149,0,0,1,.4-1.85A2.935,2.935,0,0,1,29.7-6.554,3.18,3.18,0,0,1,31.37-7a2.85,2.85,0,0,1,2.219.889,3.611,3.611,0,0,1,.809,2.52v.749H30.024a1.7,1.7,0,0,0,.536,1.079,1.621,1.621,0,0,0,1.133.406,1.98,1.98,0,0,0,1.657-.768l.9,1.009A2.754,2.754,0,0,1,33.135-.2,3.665,3.665,0,0,1,31.573.127Zm-.209-5.643a1.146,1.146,0,0,0-.885.37,1.915,1.915,0,0,0-.435,1.058H32.6v-.147a1.366,1.366,0,0,0-.33-.947A1.183,1.183,0,0,0,31.364-5.516Zm7.935.368a4.984,4.984,0,0,0-.66-.051,1.344,1.344,0,0,0-1.365.7V0H35.439V-6.868h1.733l.051.819A1.7,1.7,0,0,1,38.752-7a1.922,1.922,0,0,1,.571.083Zm.368,1.65a4.073,4.073,0,0,1,.394-1.822,2.881,2.881,0,0,1,1.133-1.238A3.306,3.306,0,0,1,42.91-7a3.128,3.128,0,0,1,2.269.851,3.414,3.414,0,0,1,.981,2.311l.013.47a3.59,3.59,0,0,1-.882,2.536,3.067,3.067,0,0,1-2.368.955,3.082,3.082,0,0,1-2.371-.952,3.653,3.653,0,0,1-.885-2.59Zm1.834.13a2.567,2.567,0,0,0,.368,1.5,1.215,1.215,0,0,0,1.054.518,1.217,1.217,0,0,0,1.041-.512A2.809,2.809,0,0,0,44.338-3.5a2.542,2.542,0,0,0-.375-1.488,1.217,1.217,0,0,0-1.054-.528,1.2,1.2,0,0,0-1.041.524A2.857,2.857,0,0,0,41.5-3.367Z" transform="translate(1038 4140.947)" fill="#12263f"/>
    <path id="Trazado_191512" data-name="Trazado 191512" d="M8.081-3.079A3.27,3.27,0,0,1,6.979-.73,3.868,3.868,0,0,1,4.361.127a3.478,3.478,0,0,1-2.8-1.2A4.906,4.906,0,0,1,.546-4.354v-.565a5.54,5.54,0,0,1,.47-2.349A3.52,3.52,0,0,1,2.358-8.826a3.761,3.761,0,0,1,2.028-.543,3.768,3.768,0,0,1,2.577.857,3.515,3.515,0,0,1,1.13,2.406h-1.9a1.93,1.93,0,0,0-.5-1.3,1.845,1.845,0,0,0-1.3-.4,1.618,1.618,0,0,0-1.425.682,3.824,3.824,0,0,0-.486,2.117v.7a4.093,4.093,0,0,0,.454,2.19,1.588,1.588,0,0,0,1.431.692,1.88,1.88,0,0,0,1.317-.4,1.821,1.821,0,0,0,.5-1.247ZM11.146,0H9.306V-6.868h1.841ZM9.2-8.646a.9.9,0,0,1,.276-.679,1.037,1.037,0,0,1,.752-.267,1.04,1.04,0,0,1,.749.267.9.9,0,0,1,.279.679.9.9,0,0,1-.282.686,1.042,1.042,0,0,1-.746.267A1.042,1.042,0,0,1,9.48-7.96.9.9,0,0,1,9.2-8.646ZM15.818.127A3.372,3.372,0,0,1,13.359-.8a3.294,3.294,0,0,1-.949-2.469v-.178a4.149,4.149,0,0,1,.4-1.85,2.935,2.935,0,0,1,1.133-1.257A3.18,3.18,0,0,1,15.615-7a2.85,2.85,0,0,1,2.219.889,3.611,3.611,0,0,1,.809,2.52v.749H14.27a1.7,1.7,0,0,0,.536,1.079,1.621,1.621,0,0,0,1.133.406A1.98,1.98,0,0,0,17.6-2.12l.9,1.009A2.754,2.754,0,0,1,17.38-.2,3.665,3.665,0,0,1,15.818.127Zm-.209-5.643a1.146,1.146,0,0,0-.885.37,1.915,1.915,0,0,0-.435,1.058H16.84v-.147a1.366,1.366,0,0,0-.33-.947A1.183,1.183,0,0,0,15.609-5.516Zm7.935.368a4.984,4.984,0,0,0-.66-.051,1.344,1.344,0,0,0-1.365.7V0H19.684V-6.868h1.733l.051.819A1.7,1.7,0,0,1,23-7a1.922,1.922,0,0,1,.571.083Zm4.742,0a4.984,4.984,0,0,0-.66-.051,1.344,1.344,0,0,0-1.365.7V0H24.426V-6.868h1.733l.051.819A1.7,1.7,0,0,1,27.739-7a1.922,1.922,0,0,1,.571.083ZM32.208.127A3.372,3.372,0,0,1,29.748-.8,3.294,3.294,0,0,1,28.8-3.269v-.178a4.149,4.149,0,0,1,.4-1.85,2.935,2.935,0,0,1,1.133-1.257A3.18,3.18,0,0,1,32-7a2.85,2.85,0,0,1,2.219.889,3.611,3.611,0,0,1,.809,2.52v.749H30.659A1.7,1.7,0,0,0,31.2-1.758a1.621,1.621,0,0,0,1.133.406,1.98,1.98,0,0,0,1.657-.768l.9,1.009A2.754,2.754,0,0,1,33.77-.2,3.665,3.665,0,0,1,32.208.127ZM32-5.516a1.146,1.146,0,0,0-.885.37,1.915,1.915,0,0,0-.435,1.058H33.23v-.147a1.366,1.366,0,0,0-.33-.947A1.183,1.183,0,0,0,32-5.516Z" transform="translate(1044 4166.947)" fill="#12263f"/>
    <path id="Trazado_190443" data-name="Trazado 190443" d="M-5449.133-7653.6h87.143l.4,7.724-.4,7.257h-87.143l-3.868-7.257Z" transform="translate(6468.001 11832.862)" fill="#75e3d9"/>
    <path id="Trazado_191513" data-name="Trazado 191513" d="M6.386-4.005H2.729V-1.53H7.021V0H.825V-9.242H7.008V-7.7H2.729v2.2H6.386ZM9.888,0H8.047V-9.75H9.888Zm6.307-6.868.057.793A2.4,2.4,0,0,1,18.226-7a1.993,1.993,0,0,1,1.625.641A2.991,2.991,0,0,1,20.4-4.437V0H18.562V-4.393a1.19,1.19,0,0,0-.254-.847,1.137,1.137,0,0,0-.844-.263,1.262,1.262,0,0,0-1.162.66V0H14.468V-6.868ZM25.835-.7a2.3,2.3,0,0,1-1.879.825,2.17,2.17,0,0,1-1.685-.635,2.71,2.71,0,0,1-.594-1.86v-4.5h1.834v4.442q0,1.074.978,1.074A1.325,1.325,0,0,0,25.772-2V-6.868h1.841V0H25.886ZM25.016-9.75h2L25.258-7.782H23.766Zm5.635,2.882.057.768A2.414,2.414,0,0,1,32.683-7,1.832,1.832,0,0,1,34.5-5.948,2.358,2.358,0,0,1,36.568-7a2.049,2.049,0,0,1,1.663.651,2.991,2.991,0,0,1,.546,1.958V0H36.936V-4.38a1.308,1.308,0,0,0-.229-.854A1.013,1.013,0,0,0,35.9-5.5a1.145,1.145,0,0,0-1.143.787L34.765,0H32.93V-4.374a1.292,1.292,0,0,0-.235-.863,1.023,1.023,0,0,0-.8-.267,1.189,1.189,0,0,0-1.13.647V0H28.931V-6.868Zm12.63,7A3.372,3.372,0,0,1,40.822-.8a3.294,3.294,0,0,1-.949-2.469v-.178a4.149,4.149,0,0,1,.4-1.85,2.935,2.935,0,0,1,1.133-1.257A3.18,3.18,0,0,1,43.079-7a2.85,2.85,0,0,1,2.219.889,3.611,3.611,0,0,1,.809,2.52v.749H41.733a1.7,1.7,0,0,0,.536,1.079,1.621,1.621,0,0,0,1.133.406,1.98,1.98,0,0,0,1.657-.768l.9,1.009A2.754,2.754,0,0,1,44.843-.2,3.665,3.665,0,0,1,43.282.127Zm-.209-5.643a1.146,1.146,0,0,0-.885.37,1.915,1.915,0,0,0-.435,1.058H44.3v-.147a1.366,1.366,0,0,0-.33-.947A1.183,1.183,0,0,0,43.072-5.516Zm7.87.368a4.984,4.984,0,0,0-.66-.051,1.344,1.344,0,0,0-1.365.7V0H47.083V-6.868h1.733l.051.819A1.7,1.7,0,0,1,50.4-7a1.922,1.922,0,0,1,.571.083Zm.3,1.65a4.073,4.073,0,0,1,.394-1.822,2.881,2.881,0,0,1,1.133-1.238A3.306,3.306,0,0,1,54.489-7a3.128,3.128,0,0,1,2.269.851,3.414,3.414,0,0,1,.981,2.311l.013.47a3.59,3.59,0,0,1-.882,2.536A3.067,3.067,0,0,1,54.5.127a3.082,3.082,0,0,1-2.371-.952,3.653,3.653,0,0,1-.885-2.59Zm1.834.13a2.567,2.567,0,0,0,.368,1.5,1.215,1.215,0,0,0,1.054.518,1.217,1.217,0,0,0,1.041-.512A2.809,2.809,0,0,0,55.917-3.5a2.542,2.542,0,0,0-.375-1.488,1.217,1.217,0,0,0-1.054-.528,1.2,1.2,0,0,0-1.041.524A2.857,2.857,0,0,0,53.08-3.367ZM65.15.127A3.372,3.372,0,0,1,62.69-.8a3.294,3.294,0,0,1-.949-2.469v-.178a4.149,4.149,0,0,1,.4-1.85,2.935,2.935,0,0,1,1.133-1.257A3.18,3.18,0,0,1,64.947-7a2.85,2.85,0,0,1,2.219.889,3.611,3.611,0,0,1,.809,2.52v.749H63.6a1.7,1.7,0,0,0,.536,1.079,1.621,1.621,0,0,0,1.133.406,1.98,1.98,0,0,0,1.657-.768l.9,1.009A2.754,2.754,0,0,1,66.711-.2,3.665,3.665,0,0,1,65.15.127ZM64.94-5.516a1.146,1.146,0,0,0-.885.37,1.915,1.915,0,0,0-.435,1.058h2.552v-.147a1.366,1.366,0,0,0-.33-.947A1.183,1.183,0,0,0,64.94-5.516ZM72.67-1.9a.591.591,0,0,0-.333-.53,3.785,3.785,0,0,0-1.07-.346q-2.45-.514-2.45-2.082a1.887,1.887,0,0,1,.759-1.527A3.06,3.06,0,0,1,71.559-7a3.293,3.293,0,0,1,2.092.616,1.94,1.94,0,0,1,.784,1.6H72.6a.888.888,0,0,0-.254-.651,1.075,1.075,0,0,0-.793-.257,1.1,1.1,0,0,0-.717.209.661.661,0,0,0-.254.533.565.565,0,0,0,.289.492,2.971,2.971,0,0,0,.974.324A7.958,7.958,0,0,1,73-3.821a1.9,1.9,0,0,1,1.454,1.847,1.792,1.792,0,0,1-.806,1.52,3.478,3.478,0,0,1-2.082.581,3.632,3.632,0,0,1-1.533-.308,2.572,2.572,0,0,1-1.051-.844A1.962,1.962,0,0,1,68.6-2.184h1.739a.958.958,0,0,0,.362.749,1.435,1.435,0,0,0,.9.26,1.328,1.328,0,0,0,.8-.2A.622.622,0,0,0,72.67-1.9Z" transform="translate(1024 4190.947)" fill="#12263f"/>
    <path id="Trazado_191514" data-name="Trazado 191514" d="M16.5,0A16.5,16.5,0,1,1,0,16.5,16.5,16.5,0,0,1,16.5,0Z" transform="translate(1045 4201.947)" fill="#75e3d9"/>
    <path id="Trazado_191515" data-name="Trazado 191515" d="M19,0A19,19,0,1,1,0,19,19,19,0,0,1,19,0Z" transform="translate(1042 3979.947)" fill="#75e3d9"/>
    <path id="Trazado_191516" data-name="Trazado 191516" d="M6.877-4.067H2.939V0H.889V-9.953h6.48v1.661H2.939v2.57H6.877ZM10.514,0H8.531V-7.4h1.982Zm-2.1-9.311a.973.973,0,0,1,.3-.731,1.117,1.117,0,0,1,.81-.287,1.12,1.12,0,0,1,.807.287.967.967,0,0,1,.3.731.97.97,0,0,1-.3.738,1.122,1.122,0,0,1-.8.287,1.122,1.122,0,0,1-.8-.287A.97.97,0,0,1,8.415-9.311ZM13.959-7.4l.062.854a2.582,2.582,0,0,1,2.126-.991,2.146,2.146,0,0,1,1.75.69,3.221,3.221,0,0,1,.588,2.064V0H16.509V-4.73a1.282,1.282,0,0,0-.273-.913,1.224,1.224,0,0,0-.909-.284,1.359,1.359,0,0,0-1.251.711V0H12.1V-7.4Z" transform="translate(1052 4222.947)" fill="#12263f"/>
    <path id="Trazado_191517" data-name="Trazado 191517" d="M2.85,0H.946V-9.242h1.9ZM6.183-6.868l.057.793A2.4,2.4,0,0,1,8.214-7a1.993,1.993,0,0,1,1.625.641,2.991,2.991,0,0,1,.546,1.917V0H8.55V-4.393A1.19,1.19,0,0,0,8.3-5.24,1.137,1.137,0,0,0,7.452-5.5a1.262,1.262,0,0,0-1.162.66V0H4.456V-6.868ZM13.711,0H11.87V-6.868h1.841ZM11.762-8.646a.9.9,0,0,1,.276-.679,1.037,1.037,0,0,1,.752-.267,1.04,1.04,0,0,1,.749.267.9.9,0,0,1,.279.679.9.9,0,0,1-.282.686,1.042,1.042,0,0,1-.746.267,1.042,1.042,0,0,1-.746-.267A.9.9,0,0,1,11.762-8.646Zm6.316,7.293a1.2,1.2,0,0,0,.825-.279.979.979,0,0,0,.33-.743h1.72a2.353,2.353,0,0,1-.381,1.279,2.513,2.513,0,0,1-1.025.9A3.208,3.208,0,0,1,18.11.127a2.982,2.982,0,0,1-2.323-.936A3.705,3.705,0,0,1,14.936-3.4v-.121a3.663,3.663,0,0,1,.844-2.533A2.947,2.947,0,0,1,18.1-7a2.889,2.889,0,0,1,2.066.733,2.6,2.6,0,0,1,.79,1.952h-1.72a1.261,1.261,0,0,0-.33-.871,1.1,1.1,0,0,0-.838-.335,1.1,1.1,0,0,0-.968.467,2.708,2.708,0,0,0-.327,1.516v.191a2.742,2.742,0,0,0,.324,1.526A1.119,1.119,0,0,0,18.078-1.352ZM23.937,0H22.1V-6.868h1.841ZM21.988-8.646a.9.9,0,0,1,.276-.679,1.037,1.037,0,0,1,.752-.267,1.04,1.04,0,0,1,.749.267.9.9,0,0,1,.279.679.9.9,0,0,1-.282.686,1.042,1.042,0,0,1-.746.267,1.042,1.042,0,0,1-.746-.267A.9.9,0,0,1,21.988-8.646ZM25.162-3.5a4.073,4.073,0,0,1,.394-1.822,2.881,2.881,0,0,1,1.133-1.238A3.306,3.306,0,0,1,28.406-7a3.127,3.127,0,0,1,2.269.851,3.414,3.414,0,0,1,.981,2.311l.013.47a3.59,3.59,0,0,1-.882,2.536,3.067,3.067,0,0,1-2.368.955,3.082,3.082,0,0,1-2.371-.952,3.653,3.653,0,0,1-.885-2.59ZM27-3.367a2.567,2.567,0,0,0,.368,1.5,1.215,1.215,0,0,0,1.054.518,1.217,1.217,0,0,0,1.041-.512A2.809,2.809,0,0,0,29.834-3.5a2.542,2.542,0,0,0-.375-1.488,1.217,1.217,0,0,0-1.054-.528,1.2,1.2,0,0,0-1.041.524A2.857,2.857,0,0,0,27-3.367Z" transform="translate(1045 4003.947)" fill="#12263f"/>
    <path id="Trazado_191518" data-name="Trazado 191518" d="M5.537,0l5.537,5.742H0Z" transform="translate(1066.074 4078.606) rotate(180)" fill="#707070"/>
    <path id="Trazado_191519" data-name="Trazado 191519" d="M5.537,0l5.537,5.742H0Z" transform="translate(1066.074 4101.03) rotate(180)" fill="#707070"/>
    <path id="Trazado_191520" data-name="Trazado 191520" d="M5.537,0l5.537,5.742H0Z" transform="translate(1066.074 4126.606) rotate(180)" fill="#707070"/>
    <path id="Trazado_191521" data-name="Trazado 191521" d="M5.537,0l5.537,5.742H0Z" transform="translate(1066.074 4153.606) rotate(180)" fill="#707070"/>
    <path id="Trazado_191522" data-name="Trazado 191522" d="M5.537,0l5.537,5.742H0Z" transform="translate(1066.074 4178.606) rotate(180)" fill="#707070"/>
    <path id="Trazado_191523" data-name="Trazado 191523" d="M5.537,0l5.537,5.742H0Z" transform="translate(1066.074 4200.606) rotate(180)" fill="#707070"/>
    <path id="Trazado_191524" data-name="Trazado 191524" d="M5.537,0l5.537,5.742H0Z" transform="translate(1066.074 4051.606) rotate(180)" fill="#707070"/>
    <path id="Trazado_191525" data-name="Trazado 191525" d="M5.537,0l5.537,5.742H0Z" transform="translate(1066.074 4024.606) rotate(180)" fill="#707070"/>
  </g>
</svg>
