<svg xmlns="http://www.w3.org/2000/svg" xmlns:xlink="http://www.w3.org/1999/xlink" width="671.465" height="318.553" viewBox="0 0 671.465 318.553">
  <defs>
    <filter id="Rectángulo_293819" x="46.193" y="0" width="280.376" height="97.571" filterUnits="userSpaceOnUse">
      <feOffset dx="4" dy="4" input="SourceAlpha"/>
      <feGaussianBlur stdDeviation="2.5" result="blur"/>
      <feFlood flood-color="#888" flood-opacity="0.451"/>
      <feComposite operator="in" in2="blur"/>
      <feComposite in="SourceGraphic"/>
    </filter>
    <filter id="Rectángulo_293820" x="112.366" y="111.453" width="474.33" height="97.571" filterUnits="userSpaceOnUse">
      <feOffset dx="4" dy="4" input="SourceAlpha"/>
      <feGaussianBlur stdDeviation="2.5" result="blur-2"/>
      <feFlood flood-color="#888" flood-opacity="0.451"/>
      <feComposite operator="in" in2="blur-2"/>
      <feComposite in="SourceGraphic"/>
    </filter>
    <filter id="Rectángulo_293821" x="125.465" y="220.981" width="430.655" height="97.571" filterUnits="userSpaceOnUse">
      <feOffset dx="4" dy="4" input="SourceAlpha"/>
      <feGaussianBlur stdDeviation="2.5" result="blur-3"/>
      <feFlood flood-color="#888" flood-opacity="0.451"/>
      <feComposite operator="in" in2="blur-3"/>
      <feComposite in="SourceGraphic"/>
    </filter>
    <filter id="Rectángulo_293822" x="358.917" y="0" width="280.376" height="97.571" filterUnits="userSpaceOnUse">
      <feOffset dx="4" dy="4" input="SourceAlpha"/>
      <feGaussianBlur stdDeviation="2.5" result="blur-4"/>
      <feFlood flood-color="#888" flood-opacity="0.451"/>
      <feComposite operator="in" in2="blur-4"/>
      <feComposite in="SourceGraphic"/>
    </filter>
  </defs>
  <g id="Grupo_131831" data-name="Grupo 131831" transform="translate(-464 -8819)">
    <g id="Grupo_130794" data-name="Grupo 130794" transform="translate(500.616 8823)">
      <path id="Trazado_190815" data-name="Trazado 190815" d="M89.7,211.016V173.891a3.064,3.064,0,0,1,3.063-3.064c.035,0,.071,0,.1,0v0h65.921l-11.832,19.014,11.832,19.017H92.881A3.509,3.509,0,0,0,89.7,211.016Z" transform="translate(-89.695 -165.298)" fill="#dd740b"/>
      <g transform="matrix(1, 0, 0, 1, -36.62, -4)" filter="url(#Rectángulo_293819)">
        <path id="Rectángulo_293819-2" data-name="Rectángulo 293819" d="M17.695,0H246.68a17.7,17.7,0,0,1,17.7,17.7V63.877a17.695,17.695,0,0,1-17.695,17.695H17.694A17.694,17.694,0,0,1,0,63.877V17.695A17.695,17.695,0,0,1,17.695,0Z" transform="translate(50.19 4)" fill="#fff" stroke="#ffb30c" stroke-miterlimit="10" stroke-width="1"/>
      </g>
      <path id="Trazado_190816" data-name="Trazado 190816" d="M89.7,173.442V230.6a4.717,4.717,0,0,0,4.717,4.717c.056,0,.11-.007.163-.008v.008H196.068L177.851,206.04l18.217-29.277H94.594C91.811,176.491,90.278,175.011,89.7,173.442Z" transform="translate(-89.696 -164.929)" fill="#ffb30c"/>
    </g>
    <g id="Grupo_130795" data-name="Grupo 130795" transform="translate(566.789 8934.453)">
      <path id="Trazado_190817" data-name="Trazado 190817" d="M147.7,308.7V271.579a3.064,3.064,0,0,1,3.063-3.063c.035,0,.071,0,.1,0v0h65.921L204.957,287.53l11.832,19.017H150.881A3.51,3.51,0,0,0,147.7,308.7Z" transform="translate(-147.695 -262.986)" fill="#0a0a42"/>
      <g transform="matrix(1, 0, 0, 1, -102.79, -115.45)" filter="url(#Rectángulo_293820)">
        <path id="Rectángulo_293820-2" data-name="Rectángulo 293820" d="M17.7,0h422.94a17.7,17.7,0,0,1,17.7,17.7V63.877a17.695,17.695,0,0,1-17.695,17.695H17.694A17.694,17.694,0,0,1,0,63.877V17.7A17.7,17.7,0,0,1,17.7,0Z" transform="translate(116.37 115.45)" fill="#fff" stroke="#154f8d" stroke-miterlimit="10" stroke-width="1"/>
      </g>
      <path id="Trazado_190818" data-name="Trazado 190818" d="M147.7,271.131v57.156A4.718,4.718,0,0,0,152.413,333c.056,0,.11-.009.163-.009V333H254.068l-18.217-29.277,18.217-29.276H152.594C149.811,274.18,148.278,272.7,147.7,271.131Z" transform="translate(-147.696 -262.617)" fill="#154f8d"/>
    </g>
    <g id="Grupo_130796" data-name="Grupo 130796" transform="translate(593.465 9043.981)">
      <path id="Trazado_190819" data-name="Trazado 190819" d="M569.848,404.7V367.579a3.064,3.064,0,0,0-3.062-3.063c-.035,0-.072,0-.106,0v0H500.76l11.832,19.014L500.76,402.547h65.907A3.51,3.51,0,0,1,569.848,404.7Z" transform="translate(-141.622 -358.986)" fill="#705206"/>
      <g transform="matrix(1, 0, 0, 1, -129.47, -224.98)" filter="url(#Rectángulo_293821)">
        <path id="Rectángulo_293821-2" data-name="Rectángulo 293821" d="M17.7,0H396.96a17.7,17.7,0,0,1,17.7,17.7V63.876a17.7,17.7,0,0,1-17.7,17.7H17.694A17.694,17.694,0,0,1,0,63.877V17.7A17.7,17.7,0,0,1,17.7,0Z" transform="translate(544.12 306.55) rotate(180)" fill="#fff" stroke="#d09109" stroke-miterlimit="10" stroke-width="1"/>
      </g>
      <path id="Trazado_190820" data-name="Trazado 190820" d="M574.456,367.131v57.156A4.717,4.717,0,0,1,569.74,429c-.055,0-.108-.009-.162-.009V429H468.086L486.3,399.728l-18.217-29.277H569.559C572.342,370.18,573.875,368.7,574.456,367.131Z" transform="translate(-146.226 -358.617)" fill="#d09109"/>
    </g>
    <g id="Grupo_130797" data-name="Grupo 130797" transform="translate(826.917 8823)">
      <path id="Trazado_190821" data-name="Trazado 190821" d="M627.848,211.016V173.891a3.064,3.064,0,0,0-3.062-3.064c-.035,0-.072,0-.106,0v0H558.76l11.832,19.014L558.76,208.858h65.907A3.509,3.509,0,0,1,627.848,211.016Z" transform="translate(-349.901 -165.298)" fill="#0b88aa"/>
      <g transform="matrix(1, 0, 0, 1, -362.92, -4)" filter="url(#Rectángulo_293822)">
        <path id="Rectángulo_293822-2" data-name="Rectángulo 293822" d="M17.695,0H246.681a17.7,17.7,0,0,1,17.7,17.7V63.877a17.695,17.695,0,0,1-17.695,17.695H17.694A17.694,17.694,0,0,1,0,63.877V17.695A17.695,17.695,0,0,1,17.695,0Z" transform="translate(627.29 85.57) rotate(180)" fill="#fff" stroke="#0ddcf1" stroke-miterlimit="10" stroke-width="1"/>
      </g>
      <path id="Trazado_190822" data-name="Trazado 190822" d="M632.456,173.442V230.6a4.716,4.716,0,0,1-4.716,4.717c-.055,0-.108-.007-.162-.008v.008H526.086L544.3,206.04l-18.217-29.277H627.559C630.342,176.491,631.875,175.011,632.456,173.442Z" transform="translate(-354.505 -164.929)" fill="#0ddcf1"/>
    </g>
    <path id="Trazado_190823" data-name="Trazado 190823" d="M647.568,201.765l-15.154-15.151a7.074,7.074,0,0,0-.583-.543,2.586,2.586,0,0,0-4.193,1.582,2.319,2.319,0,0,0-.01.355l-.027-.023v32.322l.027-.022a2.564,2.564,0,0,0,1.921,2.172,2.729,2.729,0,0,0,2.784-.953q7.617-7.638,15.252-15.259C649.141,204.689,649.137,203.334,647.568,201.765Z" transform="translate(486.717 8659.768)" fill="#768691" fill-rule="evenodd" opacity="0.4"/>
    <path id="Trazado_190824" data-name="Trazado 190824" d="M58.783,201.765q7.575-7.576,15.152-15.151a7.079,7.079,0,0,1,.583-.543,2.586,2.586,0,0,1,4.193,1.582,2.325,2.325,0,0,1,.01.355l.029-.023v32.322l-.029-.022a2.564,2.564,0,0,1-1.921,2.172,2.73,2.73,0,0,1-2.784-.953q-7.617-7.638-15.252-15.259C57.208,204.689,57.214,203.334,58.783,201.765Z" transform="translate(406.398 8659.768)" fill="#768691" fill-rule="evenodd" opacity="0.4"/>
    <path id="Trazado_190825" data-name="Trazado 190825" d="M595.568,301.765l-15.153-15.151a7.075,7.075,0,0,0-.583-.543,2.586,2.586,0,0,0-4.193,1.582,2.318,2.318,0,0,0-.01.355l-.027-.023v32.322l.027-.023a2.564,2.564,0,0,0,1.921,2.173,2.733,2.733,0,0,0,2.784-.952q7.617-7.638,15.252-15.26C597.141,304.689,597.137,303.334,595.568,301.765Z" transform="translate(479.389 8673.859)" fill="#768691" fill-rule="evenodd" opacity="0.4"/>
    <path id="Trazado_190826" data-name="Trazado 190826" d="M116.783,301.765q7.575-7.576,15.152-15.151a7.075,7.075,0,0,1,.583-.543,2.586,2.586,0,0,1,4.193,1.582,2.326,2.326,0,0,1,.01.355l.029-.023v32.322l-.029-.023a2.564,2.564,0,0,1-1.921,2.173,2.733,2.733,0,0,1-2.784-.952q-7.617-7.638-15.252-15.26C115.208,304.689,115.214,303.334,116.783,301.765Z" transform="translate(414.571 8673.859)" fill="#768691" fill-rule="evenodd" opacity="0.4"/>
    <path id="Trazado_191592" data-name="Trazado 191592" d="M9.824-6.162H4.2v3.809h6.6V0H1.27V-14.219h9.512v2.373H4.2v3.389H9.824Zm5.107-4.4.088,1.221a3.689,3.689,0,0,1,3.037-1.416,3.066,3.066,0,0,1,2.5.986,4.6,4.6,0,0,1,.84,2.949V0H18.574V-6.758a1.831,1.831,0,0,0-.391-1.3,1.749,1.749,0,0,0-1.3-.405A1.942,1.942,0,0,0,15.1-7.451V0H12.275V-10.566Zm11.982-2.6v2.6h1.807V-8.5H26.914v5.273a1.259,1.259,0,0,0,.225.84A1.128,1.128,0,0,0,28-2.129a4.5,4.5,0,0,0,.83-.068V-.059A5.81,5.81,0,0,1,27.119.2q-2.969,0-3.027-3V-8.5H22.549v-2.07h1.543v-2.6ZM36.23-7.92A7.667,7.667,0,0,0,35.215-8a2.067,2.067,0,0,0-2.1,1.084V0H30.293V-10.566h2.666l.078,1.26a2.615,2.615,0,0,1,2.354-1.455,2.957,2.957,0,0,1,.879.127ZM43.418,0a3.134,3.134,0,0,1-.283-.947A3.415,3.415,0,0,1,40.469.2,3.752,3.752,0,0,1,37.9-.7a2.89,2.89,0,0,1-1.021-2.266A2.986,2.986,0,0,1,38.12-5.547a6.144,6.144,0,0,1,3.6-.908h1.3v-.605a1.741,1.741,0,0,0-.376-1.172,1.479,1.479,0,0,0-1.187-.439,1.682,1.682,0,0,0-1.118.342,1.161,1.161,0,0,0-.405.938H37.109a2.835,2.835,0,0,1,.566-1.7,3.744,3.744,0,0,1,1.6-1.226,5.837,5.837,0,0,1,2.324-.444,4.611,4.611,0,0,1,3.1.981A3.433,3.433,0,0,1,45.85-7.021v4.58a5.052,5.052,0,0,0,.42,2.275V0ZM41.084-1.963a2.431,2.431,0,0,0,1.152-.278,1.828,1.828,0,0,0,.781-.747V-4.8H41.963q-2.119,0-2.256,1.465l-.01.166a1.13,1.13,0,0,0,.371.869A1.441,1.441,0,0,0,41.084-1.963Zm6.494-3.4A6.368,6.368,0,0,1,48.687-9.3a3.6,3.6,0,0,1,3.032-1.465,3.236,3.236,0,0,1,2.549,1.152V-15H57.1V0H54.551l-.137-1.123A3.321,3.321,0,0,1,51.7.2a3.587,3.587,0,0,1-2.993-1.47A6.573,6.573,0,0,1,47.578-5.361Zm2.822.21a4.171,4.171,0,0,0,.518,2.279,1.686,1.686,0,0,0,1.5.792,1.888,1.888,0,0,0,1.846-1.105V-7.362a1.861,1.861,0,0,0-1.826-1.105Q50.4-8.467,50.4-5.151ZM65.41,0a3.134,3.134,0,0,1-.283-.947A3.415,3.415,0,0,1,62.461.2a3.752,3.752,0,0,1-2.573-.9,2.89,2.89,0,0,1-1.021-2.266,2.986,2.986,0,0,1,1.245-2.578,6.144,6.144,0,0,1,3.6-.908h1.3v-.605a1.741,1.741,0,0,0-.376-1.172,1.479,1.479,0,0,0-1.187-.439,1.682,1.682,0,0,0-1.118.342,1.161,1.161,0,0,0-.405.938H59.1a2.835,2.835,0,0,1,.566-1.7,3.744,3.744,0,0,1,1.6-1.226,5.837,5.837,0,0,1,2.324-.444,4.611,4.611,0,0,1,3.1.981,3.433,3.433,0,0,1,1.147,2.759v4.58a5.052,5.052,0,0,0,.42,2.275V0ZM63.076-1.963a2.431,2.431,0,0,0,1.152-.278,1.828,1.828,0,0,0,.781-.747V-4.8H63.955Q61.836-4.8,61.7-3.34l-.01.166a1.13,1.13,0,0,0,.371.869A1.441,1.441,0,0,0,63.076-1.963ZM75.732-2.92a.909.909,0,0,0-.513-.815,5.824,5.824,0,0,0-1.646-.532q-3.77-.791-3.77-3.2a2.9,2.9,0,0,1,1.167-2.349,4.708,4.708,0,0,1,3.052-.942,5.067,5.067,0,0,1,3.218.947,2.985,2.985,0,0,1,1.206,2.461H75.625a1.366,1.366,0,0,0-.391-1,1.653,1.653,0,0,0-1.221-.4,1.689,1.689,0,0,0-1.1.322,1.017,1.017,0,0,0-.391.82.87.87,0,0,0,.444.757,4.571,4.571,0,0,0,1.5.5,12.244,12.244,0,0,1,1.777.474,2.92,2.92,0,0,1,2.236,2.842A2.756,2.756,0,0,1,77.236-.7a5.35,5.35,0,0,1-3.2.894,5.588,5.588,0,0,1-2.358-.474,3.957,3.957,0,0,1-1.616-1.3,3.018,3.018,0,0,1-.586-1.782h2.676a1.473,1.473,0,0,0,.557,1.152,2.208,2.208,0,0,0,1.387.4,2.044,2.044,0,0,0,1.226-.308A.957.957,0,0,0,75.732-2.92ZM85.4-5.781a14.987,14.987,0,0,1,.6-4.258,11.236,11.236,0,0,1,1.758-3.579,6.564,6.564,0,0,1,2.52-2.163l.547,1.523A6.8,6.8,0,0,0,88.594-11a15.1,15.1,0,0,0-.8,5.156v.3a15.391,15.391,0,0,0,.791,5.176A6.93,6.93,0,0,0,90.82,2.949l-.547,1.494a6.566,6.566,0,0,1-2.476-2.1,11.048,11.048,0,0,1-1.753-3.481A14.9,14.9,0,0,1,85.4-5.264Zm15.635-.381H95.41v3.809h6.6V0H92.48V-14.219h9.512v2.373H95.41v3.389h5.625Zm7.373.605a14.221,14.221,0,0,1-.635,4.248,11.531,11.531,0,0,1-1.826,3.6A6.579,6.579,0,0,1,103.4,4.443l-.547-1.494a6.867,6.867,0,0,0,2.188-3.223,14.923,14.923,0,0,0,.83-5.01V-5.8a15.261,15.261,0,0,0-.8-5.146,7.158,7.158,0,0,0-2.222-3.34l.547-1.494a6.582,6.582,0,0,1,2.5,2.09,11.383,11.383,0,0,1,1.826,3.525A14.12,14.12,0,0,1,108.408-6Z" transform="translate(630.465 8871.684)" fill="#12263f"/>
    <path id="Trazado_191593" data-name="Trazado 191593" d="M9.824-6.162H4.2v3.809h6.6V0H1.27V-14.219h9.512v2.373H4.2v3.389H9.824Zm5.107-4.4.088,1.221a3.689,3.689,0,0,1,3.037-1.416,3.066,3.066,0,0,1,2.5.986,4.6,4.6,0,0,1,.84,2.949V0H18.574V-6.758a1.831,1.831,0,0,0-.391-1.3,1.749,1.749,0,0,0-1.3-.405A1.942,1.942,0,0,0,15.1-7.451V0H12.275V-10.566Zm11.982-2.6v2.6h1.807V-8.5H26.914v5.273a1.259,1.259,0,0,0,.225.84A1.128,1.128,0,0,0,28-2.129a4.5,4.5,0,0,0,.83-.068V-.059A5.81,5.81,0,0,1,27.119.2q-2.969,0-3.027-3V-8.5H22.549v-2.07h1.543v-2.6ZM36.23-7.92A7.667,7.667,0,0,0,35.215-8a2.067,2.067,0,0,0-2.1,1.084V0H30.293V-10.566h2.666l.078,1.26a2.615,2.615,0,0,1,2.354-1.455,2.957,2.957,0,0,1,.879.127ZM43.418,0a3.134,3.134,0,0,1-.283-.947A3.415,3.415,0,0,1,40.469.2,3.752,3.752,0,0,1,37.9-.7a2.89,2.89,0,0,1-1.021-2.266A2.986,2.986,0,0,1,38.12-5.547a6.144,6.144,0,0,1,3.6-.908h1.3v-.605a1.741,1.741,0,0,0-.376-1.172,1.479,1.479,0,0,0-1.187-.439,1.682,1.682,0,0,0-1.118.342,1.161,1.161,0,0,0-.405.938H37.109a2.835,2.835,0,0,1,.566-1.7,3.744,3.744,0,0,1,1.6-1.226,5.837,5.837,0,0,1,2.324-.444,4.611,4.611,0,0,1,3.1.981A3.433,3.433,0,0,1,45.85-7.021v4.58a5.052,5.052,0,0,0,.42,2.275V0ZM41.084-1.963a2.431,2.431,0,0,0,1.152-.278,1.828,1.828,0,0,0,.781-.747V-4.8H41.963q-2.119,0-2.256,1.465l-.01.166a1.13,1.13,0,0,0,.371.869A1.441,1.441,0,0,0,41.084-1.963Zm6.494-3.4A6.368,6.368,0,0,1,48.687-9.3a3.6,3.6,0,0,1,3.032-1.465,3.236,3.236,0,0,1,2.549,1.152V-15H57.1V0H54.551l-.137-1.123A3.321,3.321,0,0,1,51.7.2a3.587,3.587,0,0,1-2.993-1.47A6.573,6.573,0,0,1,47.578-5.361Zm2.822.21a4.171,4.171,0,0,0,.518,2.279,1.686,1.686,0,0,0,1.5.792,1.888,1.888,0,0,0,1.846-1.105V-7.362a1.861,1.861,0,0,0-1.826-1.105Q50.4-8.467,50.4-5.151ZM65.41,0a3.134,3.134,0,0,1-.283-.947A3.415,3.415,0,0,1,62.461.2a3.752,3.752,0,0,1-2.573-.9,2.89,2.89,0,0,1-1.021-2.266,2.986,2.986,0,0,1,1.245-2.578,6.144,6.144,0,0,1,3.6-.908h1.3v-.605a1.741,1.741,0,0,0-.376-1.172,1.479,1.479,0,0,0-1.187-.439,1.682,1.682,0,0,0-1.118.342,1.161,1.161,0,0,0-.405.938H59.1a2.835,2.835,0,0,1,.566-1.7,3.744,3.744,0,0,1,1.6-1.226,5.837,5.837,0,0,1,2.324-.444,4.611,4.611,0,0,1,3.1.981,3.433,3.433,0,0,1,1.147,2.759v4.58a5.052,5.052,0,0,0,.42,2.275V0ZM63.076-1.963a2.431,2.431,0,0,0,1.152-.278,1.828,1.828,0,0,0,.781-.747V-4.8H63.955Q61.836-4.8,61.7-3.34l-.01.166a1.13,1.13,0,0,0,.371.869A1.441,1.441,0,0,0,63.076-1.963ZM75.732-2.92a.909.909,0,0,0-.513-.815,5.824,5.824,0,0,0-1.646-.532q-3.77-.791-3.77-3.2a2.9,2.9,0,0,1,1.167-2.349,4.708,4.708,0,0,1,3.052-.942,5.067,5.067,0,0,1,3.218.947,2.985,2.985,0,0,1,1.206,2.461H75.625a1.366,1.366,0,0,0-.391-1,1.653,1.653,0,0,0-1.221-.4,1.689,1.689,0,0,0-1.1.322,1.017,1.017,0,0,0-.391.82.87.87,0,0,0,.444.757,4.571,4.571,0,0,0,1.5.5,12.244,12.244,0,0,1,1.777.474,2.92,2.92,0,0,1,2.236,2.842A2.756,2.756,0,0,1,77.236-.7a5.35,5.35,0,0,1-3.2.894,5.588,5.588,0,0,1-2.358-.474,3.957,3.957,0,0,1-1.616-1.3,3.018,3.018,0,0,1-.586-1.782h2.676a1.473,1.473,0,0,0,.557,1.152,2.208,2.208,0,0,0,1.387.4,2.044,2.044,0,0,0,1.226-.308A.957.957,0,0,0,75.732-2.92Zm5.449,4.141h-2.1l5.234-15.439h2.1ZM95.322-3.73A1.5,1.5,0,0,0,94.736-5a7.685,7.685,0,0,0-2.109-.937,14.953,14.953,0,0,1-2.412-.972,3.941,3.941,0,0,1-2.422-3.525,3.434,3.434,0,0,1,.649-2.056,4.236,4.236,0,0,1,1.865-1.411,7.02,7.02,0,0,1,2.729-.508,6.39,6.39,0,0,1,2.715.552A4.323,4.323,0,0,1,97.6-12.3a4.076,4.076,0,0,1,.659,2.285h-2.93a1.917,1.917,0,0,0-.615-1.519,2.529,2.529,0,0,0-1.729-.542,2.7,2.7,0,0,0-1.67.454,1.432,1.432,0,0,0-.6,1.2,1.372,1.372,0,0,0,.7,1.162,7.889,7.889,0,0,0,2.056.879,8.882,8.882,0,0,1,3.643,1.865A3.715,3.715,0,0,1,98.262-3.75a3.422,3.422,0,0,1-1.4,2.9A6.113,6.113,0,0,1,93.105.2a7.26,7.26,0,0,1-2.988-.6,4.729,4.729,0,0,1-2.056-1.646,4.214,4.214,0,0,1-.708-2.422h2.939q0,2.354,2.813,2.354a2.736,2.736,0,0,0,1.631-.425A1.382,1.382,0,0,0,95.322-3.73ZM106.182,0a3.134,3.134,0,0,1-.283-.947A3.415,3.415,0,0,1,103.232.2a3.752,3.752,0,0,1-2.573-.9,2.89,2.89,0,0,1-1.021-2.266,2.986,2.986,0,0,1,1.245-2.578,6.144,6.144,0,0,1,3.6-.908h1.3v-.605a1.741,1.741,0,0,0-.376-1.172,1.479,1.479,0,0,0-1.187-.439,1.682,1.682,0,0,0-1.118.342,1.161,1.161,0,0,0-.405.938H99.873a2.835,2.835,0,0,1,.566-1.7,3.744,3.744,0,0,1,1.6-1.226,5.837,5.837,0,0,1,2.324-.444,4.611,4.611,0,0,1,3.1.981,3.433,3.433,0,0,1,1.147,2.759v4.58a5.052,5.052,0,0,0,.42,2.275V0Zm-2.334-1.963A2.431,2.431,0,0,0,105-2.241a1.828,1.828,0,0,0,.781-.747V-4.8h-1.055q-2.119,0-2.256,1.465l-.01.166a1.13,1.13,0,0,0,.371.869A1.441,1.441,0,0,0,103.848-1.963ZM113.76,0h-2.832V-15h2.832Zm5.3,0H116.23V-10.566h2.832Zm-3-13.3a1.39,1.39,0,0,1,.425-1.045,1.6,1.6,0,0,1,1.157-.41,1.6,1.6,0,0,1,1.152.41,1.382,1.382,0,0,1,.43,1.045,1.386,1.386,0,0,1-.435,1.055,1.6,1.6,0,0,1-1.147.41,1.6,1.6,0,0,1-1.147-.41A1.386,1.386,0,0,1,116.064-13.3Zm4.883,7.939A6.368,6.368,0,0,1,122.056-9.3a3.6,3.6,0,0,1,3.032-1.465,3.236,3.236,0,0,1,2.549,1.152V-15h2.832V0H127.92l-.137-1.123A3.321,3.321,0,0,1,125.068.2a3.587,3.587,0,0,1-2.993-1.47A6.573,6.573,0,0,1,120.947-5.361Zm2.822.21a4.171,4.171,0,0,0,.518,2.279,1.686,1.686,0,0,0,1.5.792,1.888,1.888,0,0,0,1.846-1.105V-7.362a1.861,1.861,0,0,0-1.826-1.105Q123.77-8.467,123.77-5.151ZM138.779,0a3.134,3.134,0,0,1-.283-.947A3.415,3.415,0,0,1,135.83.2a3.752,3.752,0,0,1-2.573-.9,2.889,2.889,0,0,1-1.021-2.266,2.986,2.986,0,0,1,1.245-2.578,6.144,6.144,0,0,1,3.6-.908h1.3v-.605A1.741,1.741,0,0,0,138-8.232a1.479,1.479,0,0,0-1.187-.439,1.682,1.682,0,0,0-1.118.342,1.161,1.161,0,0,0-.405.938h-2.822a2.835,2.835,0,0,1,.566-1.7,3.744,3.744,0,0,1,1.6-1.226,5.837,5.837,0,0,1,2.324-.444,4.611,4.611,0,0,1,3.1.981,3.433,3.433,0,0,1,1.147,2.759v4.58a5.052,5.052,0,0,0,.42,2.275V0Zm-2.334-1.963a2.431,2.431,0,0,0,1.152-.278,1.828,1.828,0,0,0,.781-.747V-4.8h-1.055q-2.119,0-2.256,1.465l-.01.166a1.13,1.13,0,0,0,.371.869A1.441,1.441,0,0,0,136.445-1.963ZM149.1-2.92a.909.909,0,0,0-.513-.815,5.824,5.824,0,0,0-1.646-.532q-3.77-.791-3.77-3.2a2.9,2.9,0,0,1,1.167-2.349,4.708,4.708,0,0,1,3.052-.942,5.067,5.067,0,0,1,3.218.947,2.985,2.985,0,0,1,1.206,2.461h-2.822a1.366,1.366,0,0,0-.391-1,1.653,1.653,0,0,0-1.221-.4,1.689,1.689,0,0,0-1.1.322,1.017,1.017,0,0,0-.391.82.87.87,0,0,0,.444.757,4.571,4.571,0,0,0,1.5.5,12.244,12.244,0,0,1,1.777.474,2.92,2.92,0,0,1,2.236,2.842A2.756,2.756,0,0,1,150.605-.7,5.35,5.35,0,0,1,147.4.2a5.588,5.588,0,0,1-2.358-.474,3.957,3.957,0,0,1-1.616-1.3,3.018,3.018,0,0,1-.586-1.782h2.676a1.473,1.473,0,0,0,.557,1.152,2.208,2.208,0,0,0,1.387.4,2.044,2.044,0,0,0,1.226-.308A.957.957,0,0,0,149.1-2.92Zm9.668-2.861a14.987,14.987,0,0,1,.6-4.258,11.236,11.236,0,0,1,1.758-3.579,6.564,6.564,0,0,1,2.52-2.163l.547,1.523A6.8,6.8,0,0,0,161.963-11a15.1,15.1,0,0,0-.8,5.156v.3a15.391,15.391,0,0,0,.791,5.176,6.93,6.93,0,0,0,2.236,3.311l-.547,1.494a6.566,6.566,0,0,1-2.476-2.1,11.048,11.048,0,0,1-1.753-3.481,14.9,14.9,0,0,1-.645-4.121ZM174.4-6.162h-5.625v3.809h6.6V0H165.85V-14.219h9.512v2.373h-6.582v3.389H174.4Zm3.4,7.383h-2.1l5.234-15.439h2.1ZM191.943-3.73A1.5,1.5,0,0,0,191.357-5a7.685,7.685,0,0,0-2.109-.937,14.953,14.953,0,0,1-2.412-.972,3.941,3.941,0,0,1-2.422-3.525,3.434,3.434,0,0,1,.649-2.056,4.236,4.236,0,0,1,1.865-1.411,7.021,7.021,0,0,1,2.729-.508,6.39,6.39,0,0,1,2.715.552,4.323,4.323,0,0,1,1.851,1.558,4.076,4.076,0,0,1,.659,2.285h-2.93a1.917,1.917,0,0,0-.615-1.519,2.529,2.529,0,0,0-1.729-.542,2.7,2.7,0,0,0-1.67.454,1.432,1.432,0,0,0-.6,1.2,1.372,1.372,0,0,0,.7,1.162,7.889,7.889,0,0,0,2.056.879,8.882,8.882,0,0,1,3.643,1.865,3.715,3.715,0,0,1,1.143,2.773,3.422,3.422,0,0,1-1.4,2.9A6.113,6.113,0,0,1,189.727.2a7.26,7.26,0,0,1-2.988-.6,4.729,4.729,0,0,1-2.056-1.646,4.214,4.214,0,0,1-.708-2.422h2.939q0,2.354,2.813,2.354a2.736,2.736,0,0,0,1.631-.425A1.382,1.382,0,0,0,191.943-3.73Zm9.6-1.826a14.221,14.221,0,0,1-.635,4.248,11.531,11.531,0,0,1-1.826,3.6,6.579,6.579,0,0,1-2.549,2.148l-.547-1.494a6.867,6.867,0,0,0,2.188-3.223,14.923,14.923,0,0,0,.83-5.01V-5.8a15.261,15.261,0,0,0-.8-5.146,7.158,7.158,0,0,0-2.222-3.34l.547-1.494a6.581,6.581,0,0,1,2.5,2.09,11.383,11.383,0,0,1,1.826,3.525A14.12,14.12,0,0,1,201.543-6Z" transform="translate(721.465 8981.684)" fill="#12263f"/>
    <path id="Trazado_191594" data-name="Trazado 191594" d="M12.246,0H7.295V-15.762L2.432-14.341v-3.75l9.36-3.237h.454Z" transform="translate(538.465 8874.684)" fill="#fff"/>
    <path id="Trazado_191595" data-name="Trazado 191595" d="M5.815-12.729H8.145q2.769,0,2.769-2.71a2.343,2.343,0,0,0-.659-1.721,2.5,2.5,0,0,0-1.86-.667,2.676,2.676,0,0,0-1.707.571,1.743,1.743,0,0,0-.725,1.421H1.025a5.053,5.053,0,0,1,.938-3,6.191,6.191,0,0,1,2.6-2.058,8.89,8.89,0,0,1,3.655-.74,8.735,8.735,0,0,1,5.6,1.626,5.405,5.405,0,0,1,2.036,4.468,4.505,4.505,0,0,1-.842,2.6,6,6,0,0,1-2.454,1.985A5.734,5.734,0,0,1,15.22-9.089a4.919,4.919,0,0,1,.967,3.1,5.5,5.5,0,0,1-2.2,4.57A9.12,9.12,0,0,1,8.218.293a9.458,9.458,0,0,1-3.889-.8A6.093,6.093,0,0,1,1.611-2.717,5.751,5.751,0,0,1,.688-5.933H5.654a2.223,2.223,0,0,0,.791,1.7,2.793,2.793,0,0,0,1.948.718,2.925,2.925,0,0,0,2.08-.725,2.424,2.424,0,0,0,.776-1.853,2.833,2.833,0,0,0-.806-2.285,3.368,3.368,0,0,0-2.227-.674h-2.4Z" transform="translate(610.465 8984.684)" fill="#fff"/>
    <path id="Trazado_191596" data-name="Trazado 191596" d="M8.643-3.73A1.5,1.5,0,0,0,8.057-5a7.685,7.685,0,0,0-2.109-.937,14.953,14.953,0,0,1-2.412-.972,3.941,3.941,0,0,1-2.422-3.525A3.434,3.434,0,0,1,1.763-12.5a4.236,4.236,0,0,1,1.865-1.411,7.02,7.02,0,0,1,2.729-.508,6.39,6.39,0,0,1,2.715.552A4.323,4.323,0,0,1,10.923-12.3a4.076,4.076,0,0,1,.659,2.285H8.652a1.917,1.917,0,0,0-.615-1.519,2.529,2.529,0,0,0-1.729-.542,2.7,2.7,0,0,0-1.67.454,1.432,1.432,0,0,0-.6,1.2,1.372,1.372,0,0,0,.7,1.162A7.889,7.889,0,0,0,6.8-8.389a8.882,8.882,0,0,1,3.643,1.865A3.715,3.715,0,0,1,11.582-3.75a3.422,3.422,0,0,1-1.4,2.9A6.113,6.113,0,0,1,6.426.2a7.26,7.26,0,0,1-2.988-.6A4.729,4.729,0,0,1,1.382-2.051,4.214,4.214,0,0,1,.674-4.473H3.613q0,2.354,2.813,2.354a2.736,2.736,0,0,0,1.631-.425A1.382,1.382,0,0,0,8.643-3.73ZM19.5,0a3.134,3.134,0,0,1-.283-.947A3.415,3.415,0,0,1,16.553.2a3.752,3.752,0,0,1-2.573-.9,2.89,2.89,0,0,1-1.021-2.266A2.986,2.986,0,0,1,14.2-5.547a6.144,6.144,0,0,1,3.6-.908h1.3v-.605a1.741,1.741,0,0,0-.376-1.172,1.479,1.479,0,0,0-1.187-.439,1.682,1.682,0,0,0-1.118.342,1.161,1.161,0,0,0-.405.938H13.193a2.835,2.835,0,0,1,.566-1.7,3.744,3.744,0,0,1,1.6-1.226,5.837,5.837,0,0,1,2.324-.444,4.611,4.611,0,0,1,3.1.981,3.433,3.433,0,0,1,1.147,2.759v4.58a5.052,5.052,0,0,0,.42,2.275V0ZM17.168-1.963a2.431,2.431,0,0,0,1.152-.278,1.828,1.828,0,0,0,.781-.747V-4.8H18.047q-2.119,0-2.256,1.465l-.01.166a1.13,1.13,0,0,0,.371.869A1.441,1.441,0,0,0,17.168-1.963ZM27.08,0H24.248V-15H27.08Zm5.3,0H29.551V-10.566h2.832Zm-3-13.3a1.39,1.39,0,0,1,.425-1.045,1.6,1.6,0,0,1,1.157-.41,1.6,1.6,0,0,1,1.152.41,1.382,1.382,0,0,1,.43,1.045,1.386,1.386,0,0,1-.435,1.055,1.6,1.6,0,0,1-1.147.41,1.6,1.6,0,0,1-1.147-.41A1.386,1.386,0,0,1,29.385-13.3Zm4.883,7.939A6.368,6.368,0,0,1,35.376-9.3a3.6,3.6,0,0,1,3.032-1.465,3.236,3.236,0,0,1,2.549,1.152V-15h2.832V0H41.24L41.1-1.123A3.321,3.321,0,0,1,38.389.2,3.587,3.587,0,0,1,35.4-1.274,6.573,6.573,0,0,1,34.268-5.361Zm2.822.21a4.171,4.171,0,0,0,.518,2.279,1.686,1.686,0,0,0,1.5.792,1.888,1.888,0,0,0,1.846-1.105V-7.362a1.861,1.861,0,0,0-1.826-1.105Q37.09-8.467,37.09-5.151ZM52.1,0a3.134,3.134,0,0,1-.283-.947A3.415,3.415,0,0,1,49.15.2a3.752,3.752,0,0,1-2.573-.9,2.89,2.89,0,0,1-1.021-2.266A2.986,2.986,0,0,1,46.8-5.547a6.144,6.144,0,0,1,3.6-.908h1.3v-.605a1.741,1.741,0,0,0-.376-1.172,1.479,1.479,0,0,0-1.187-.439,1.682,1.682,0,0,0-1.118.342,1.161,1.161,0,0,0-.405.938H45.791a2.835,2.835,0,0,1,.566-1.7,3.744,3.744,0,0,1,1.6-1.226,5.837,5.837,0,0,1,2.324-.444,4.611,4.611,0,0,1,3.1.981,3.433,3.433,0,0,1,1.147,2.759v4.58a5.052,5.052,0,0,0,.42,2.275V0ZM49.766-1.963a2.431,2.431,0,0,0,1.152-.278,1.828,1.828,0,0,0,.781-.747V-4.8H50.645q-2.119,0-2.256,1.465l-.01.166a1.13,1.13,0,0,0,.371.869A1.441,1.441,0,0,0,49.766-1.963ZM62.422-2.92a.909.909,0,0,0-.513-.815,5.824,5.824,0,0,0-1.646-.532q-3.77-.791-3.77-3.2a2.9,2.9,0,0,1,1.167-2.349,4.708,4.708,0,0,1,3.052-.942,5.067,5.067,0,0,1,3.218.947,2.985,2.985,0,0,1,1.206,2.461H62.314a1.366,1.366,0,0,0-.391-1,1.653,1.653,0,0,0-1.221-.4,1.689,1.689,0,0,0-1.1.322,1.017,1.017,0,0,0-.391.82.87.87,0,0,0,.444.757,4.571,4.571,0,0,0,1.5.5,12.244,12.244,0,0,1,1.777.474,2.92,2.92,0,0,1,2.236,2.842A2.756,2.756,0,0,1,63.926-.7a5.35,5.35,0,0,1-3.2.894,5.588,5.588,0,0,1-2.358-.474,3.957,3.957,0,0,1-1.616-1.3,3.018,3.018,0,0,1-.586-1.782h2.676a1.473,1.473,0,0,0,.557,1.152,2.208,2.208,0,0,0,1.387.4,2.044,2.044,0,0,0,1.226-.308A.957.957,0,0,0,62.422-2.92ZM72.09-5.781a14.987,14.987,0,0,1,.6-4.258,11.236,11.236,0,0,1,1.758-3.579,6.564,6.564,0,0,1,2.52-2.163l.547,1.523A6.8,6.8,0,0,0,75.283-11a15.1,15.1,0,0,0-.8,5.156v.3a15.391,15.391,0,0,0,.791,5.176A6.93,6.93,0,0,0,77.51,2.949l-.547,1.494a6.566,6.566,0,0,1-2.476-2.1,11.048,11.048,0,0,1-1.753-3.481,14.9,14.9,0,0,1-.645-4.121ZM86.543-3.73A1.5,1.5,0,0,0,85.957-5a7.685,7.685,0,0,0-2.109-.937,14.953,14.953,0,0,1-2.412-.972,3.941,3.941,0,0,1-2.422-3.525,3.434,3.434,0,0,1,.649-2.056,4.236,4.236,0,0,1,1.865-1.411,7.02,7.02,0,0,1,2.729-.508,6.39,6.39,0,0,1,2.715.552A4.323,4.323,0,0,1,88.823-12.3a4.076,4.076,0,0,1,.659,2.285h-2.93a1.917,1.917,0,0,0-.615-1.519,2.529,2.529,0,0,0-1.729-.542,2.7,2.7,0,0,0-1.67.454,1.432,1.432,0,0,0-.6,1.2,1.372,1.372,0,0,0,.7,1.162,7.889,7.889,0,0,0,2.056.879A8.882,8.882,0,0,1,88.34-6.523,3.715,3.715,0,0,1,89.482-3.75a3.422,3.422,0,0,1-1.4,2.9A6.113,6.113,0,0,1,84.326.2a7.26,7.26,0,0,1-2.988-.6,4.729,4.729,0,0,1-2.056-1.646,4.214,4.214,0,0,1-.708-2.422h2.939q0,2.354,2.813,2.354a2.736,2.736,0,0,0,1.631-.425A1.382,1.382,0,0,0,86.543-3.73Zm9.6-1.826a14.221,14.221,0,0,1-.635,4.248,11.531,11.531,0,0,1-1.826,3.6,6.579,6.579,0,0,1-2.549,2.148l-.547-1.494A6.867,6.867,0,0,0,92.773-.273a14.923,14.923,0,0,0,.83-5.01V-5.8a15.261,15.261,0,0,0-.8-5.146,7.158,7.158,0,0,0-2.222-3.34l.547-1.494a6.582,6.582,0,0,1,2.5,2.09,11.383,11.383,0,0,1,1.826,3.525A14.12,14.12,0,0,1,96.143-6Z" transform="translate(870.465 8871.684)" fill="#12263f"/>
    <path id="Trazado_191597" data-name="Trazado 191597" d="M16.187,0H1.3V-3.223L8.159-10.43q2.534-2.886,2.534-4.585a3.189,3.189,0,0,0-.6-2.095,2.144,2.144,0,0,0-1.743-.718,2.171,2.171,0,0,0-1.831.959,3.943,3.943,0,0,0-.7,2.4H.864A7,7,0,0,1,1.846-18.1,6.882,6.882,0,0,1,4.57-20.7a8.094,8.094,0,0,1,3.9-.937,7.962,7.962,0,0,1,5.325,1.6,5.7,5.7,0,0,1,1.868,4.585A6.658,6.658,0,0,1,15.19-13a10.76,10.76,0,0,1-1.458,2.5,36.715,36.715,0,0,1-3.186,3.508L7.793-3.809h8.394Z" transform="translate(1048.465 8874.684)" fill="#12263f"/>
    <path id="Trazado_191598" data-name="Trazado 191598" d="M4.385,0H1.455V-14.219h2.93ZM9.561-10.566l.088,1.182a3.713,3.713,0,0,1,3.037-1.377,2.818,2.818,0,0,1,2.8,1.611,3.628,3.628,0,0,1,3.174-1.611,3.152,3.152,0,0,1,2.559,1,4.6,4.6,0,0,1,.84,3.013V0H19.229V-6.738a2.012,2.012,0,0,0-.352-1.313,1.558,1.558,0,0,0-1.24-.415,1.761,1.761,0,0,0-1.758,1.211L15.889,0H13.066V-6.729a1.988,1.988,0,0,0-.361-1.328,1.573,1.573,0,0,0-1.23-.41,1.829,1.829,0,0,0-1.738,1V0H6.914V-10.566ZM33.74-5.186a6.337,6.337,0,0,1-1.108,3.911A3.554,3.554,0,0,1,29.639.2,3.292,3.292,0,0,1,27.051-.918v4.98H24.229V-10.566h2.617l.1,1.035a3.317,3.317,0,0,1,2.676-1.23,3.578,3.578,0,0,1,3.037,1.445A6.509,6.509,0,0,1,33.74-5.332Zm-2.822-.205A4.159,4.159,0,0,0,30.4-7.666a1.7,1.7,0,0,0-1.519-.8,1.848,1.848,0,0,0-1.826,1.016v4.326A1.879,1.879,0,0,0,28.9-2.08Q30.918-2.08,30.918-5.391Zm4.131.01a6.267,6.267,0,0,1,.605-2.8,4.432,4.432,0,0,1,1.743-1.9,5.086,5.086,0,0,1,2.642-.674A4.812,4.812,0,0,1,43.53-9.453,5.252,5.252,0,0,1,45.039-5.9l.02.723a5.523,5.523,0,0,1-1.357,3.9A4.718,4.718,0,0,1,40.059.2,4.742,4.742,0,0,1,36.411-1.27a5.62,5.62,0,0,1-1.362-3.984Zm2.822.2a3.95,3.95,0,0,0,.566,2.3,1.868,1.868,0,0,0,1.621.8,1.873,1.873,0,0,0,1.6-.787,4.322,4.322,0,0,0,.576-2.518,3.91,3.91,0,0,0-.576-2.289,1.873,1.873,0,0,0-1.621-.812,1.842,1.842,0,0,0-1.6.807A4.395,4.395,0,0,0,37.871-5.181ZM52.734-7.92A7.667,7.667,0,0,0,51.719-8a2.067,2.067,0,0,0-2.1,1.084V0H46.8V-10.566h2.666l.078,1.26a2.615,2.615,0,0,1,2.354-1.455,2.957,2.957,0,0,1,.879.127Zm5.225-5.244v2.6h1.807V-8.5H57.959v5.273a1.259,1.259,0,0,0,.225.84,1.128,1.128,0,0,0,.859.254,4.5,4.5,0,0,0,.83-.068V-.059A5.81,5.81,0,0,1,58.164.2q-2.969,0-3.027-3V-8.5H53.594v-2.07h1.543v-2.6ZM67.461,0a3.134,3.134,0,0,1-.283-.947A3.415,3.415,0,0,1,64.512.2a3.752,3.752,0,0,1-2.573-.9,2.89,2.89,0,0,1-1.021-2.266,2.986,2.986,0,0,1,1.245-2.578,6.144,6.144,0,0,1,3.6-.908h1.3v-.605a1.741,1.741,0,0,0-.376-1.172A1.479,1.479,0,0,0,65.5-8.672a1.682,1.682,0,0,0-1.118.342,1.161,1.161,0,0,0-.405.938H61.152a2.835,2.835,0,0,1,.566-1.7,3.744,3.744,0,0,1,1.6-1.226,5.837,5.837,0,0,1,2.324-.444,4.611,4.611,0,0,1,3.1.981,3.433,3.433,0,0,1,1.147,2.759v4.58a5.052,5.052,0,0,0,.42,2.275V0ZM65.127-1.963a2.431,2.431,0,0,0,1.152-.278,1.828,1.828,0,0,0,.781-.747V-4.8H66.006q-2.119,0-2.256,1.465l-.01.166a1.13,1.13,0,0,0,.371.869A1.441,1.441,0,0,0,65.127-1.963Zm9.531-8.6.088,1.221a3.689,3.689,0,0,1,3.037-1.416,3.066,3.066,0,0,1,2.5.986,4.6,4.6,0,0,1,.84,2.949V0H78.3V-6.758a1.831,1.831,0,0,0-.391-1.3,1.749,1.749,0,0,0-1.3-.405,1.942,1.942,0,0,0-1.787,1.016V0H72V-10.566Zm11.982-2.6v2.6h1.807V-8.5H86.641v5.273a1.259,1.259,0,0,0,.225.84,1.128,1.128,0,0,0,.859.254,4.5,4.5,0,0,0,.83-.068V-.059A5.81,5.81,0,0,1,86.846.2q-2.969,0-3.027-3V-8.5H82.275v-2.07h1.543v-2.6ZM94.883.2A5.187,5.187,0,0,1,91.1-1.23a5.068,5.068,0,0,1-1.46-3.8V-5.3a6.383,6.383,0,0,1,.615-2.847A4.515,4.515,0,0,1,92-10.083a4.893,4.893,0,0,1,2.573-.679,4.385,4.385,0,0,1,3.413,1.367,5.555,5.555,0,0,1,1.245,3.877v1.152H92.5a2.622,2.622,0,0,0,.825,1.66,2.5,2.5,0,0,0,1.743.625,3.046,3.046,0,0,0,2.549-1.182L99-1.709a4.237,4.237,0,0,1-1.719,1.4A5.639,5.639,0,0,1,94.883.2Zm-.322-8.682a1.764,1.764,0,0,0-1.362.569,2.946,2.946,0,0,0-.669,1.628h3.926v-.226a2.1,2.1,0,0,0-.508-1.457A1.819,1.819,0,0,0,94.561-8.486Z" transform="translate(735.465 9091.684)" fill="#12263f"/>
    <path id="Trazado_191599" data-name="Trazado 191599" d="M14.341-8.335h2.168v3.809H14.341V0H9.4V-4.526H1.157L.864-7.544,9.4-21.284v-.044h4.937Zm-8.774,0H9.4V-14.9l-.308.5Z" transform="translate(965.465 9096.684)" fill="#fff"/>
  </g>
</svg>
