<svg xmlns="http://www.w3.org/2000/svg" width="73.104" height="91" viewBox="0 0 73.104 91">
  <g id="Grupo_128885" data-name="Grupo 128885" transform="translate(-472.164 -1048.443)">
    <path id="Trazado_189661" data-name="Trazado 189661" d="M472.165,1098.6q0-18.924,0-37.846c0-2.584.163-2.748,2.69-2.752,1.9,0,3.793-.053,5.685.021.96.037,1.208-.3,1.182-1.208-.059-2.071.025-4.147-.033-6.218-.042-1.488.524-2.155,2.073-2.152q24.787.038,49.573,0a2.826,2.826,0,0,1,2.164.961q4.369,4.425,8.8,8.792a3.037,3.037,0,0,1,.971,2.351q-.028,33.582,0,67.164c0,1.574-.575,2.283-2.2,2.209-1.832-.083-3.685.12-5.5-.059-1.677-.165-1.982.494-1.875,1.97.124,1.708.033,3.433.028,5.151-.008,2.206-.252,2.458-2.447,2.459q-18.745.006-37.491,0-10.572,0-21.144,0c-2.14,0-2.464-.319-2.465-2.461Q472.16,1117.789,472.165,1098.6Zm6.7-37.675c-.412-.026-.824-.072-1.236-.075-2.609-.024-2.609-.021-2.609,2.612v69.473c0,3.806,0,3.806,3.852,3.6.532.019,1.063.054,1.6.054,16.88,0,33.76-.021,50.639.042,1.514.006,1.8-.4,1.8-1.844-.055-16.88-.035-33.76-.035-50.64,0-4.027-.046-8.056.029-12.082.022-1.177-.321-1.5-1.471-1.453-2.128.09-4.264-.005-6.4.035-1.426.026-2.063-.6-2.039-2.027.034-2.013-.073-4.032.037-6.04.073-1.342-.257-1.789-1.7-1.771-6.692.087-13.385.029-20.078.041Q490.053,1060.874,478.863,1060.925Zm56.852,36.773c0,8.052-.02,16.1.016,24.155.008,1.694-.765,4.014.322,4.914,1.031.853,3.27.2,4.972.305,1.085.07,1.4-.275,1.4-1.382q-.05-31.614,0-63.229c0-1.006-.286-1.339-1.3-1.309-2.188.066-4.38.009-6.571.024-1.4.009-2.058-.614-2.026-2.052.047-2.071-.084-4.15.045-6.214.085-1.359-.349-1.639-1.655-1.634-13.794.051-27.589.029-41.383.036-1.59,0-3.714-.552-4.629.25-1.062.931-.165,3.116-.366,4.737-.178,1.432.377,1.74,1.745,1.734,12.314-.054,24.629-.011,36.943-.06a4.1,4.1,0,0,1,3.253,1.371c2.624,2.733,5.312,5.405,8.033,8.041a3.75,3.75,0,0,1,1.233,2.96C535.694,1079.463,535.715,1088.581,535.715,1097.7Zm-.347-44.141c0,1.371,0,2.542,0,3.713,0,.563.01,1.108.794,1.063a15.691,15.691,0,0,0,3.9-.2Zm-9.529,9.724c0,1.174.015,2.333-.006,3.49-.011.631.177,1.017.887,1.008,1.2-.014,2.4,0,3.672,0Z" fill="#050505" fill-rule="evenodd"/>
    <path id="Trazado_189662" data-name="Trazado 189662" d="M491.013,1083.362q11.191-.037,22.382-.072c6.693-.012,13.386.046,20.078-.041,1.447-.019,1.778.429,1.7,1.771-.11,2.008,0,4.027-.037,6.04-.024,1.422.613,2.053,2.039,2.027,2.132-.04,4.267.055,6.4-.035,1.15-.049,1.493.275,1.471,1.453-.075,4.026-.029,8.055-.029,12.082,0,16.88-.02,33.76.035,50.64.005,1.441-.285,1.85-1.8,1.844-16.879-.062-33.76-.039-50.639-.042-.532,0-1.064-.036-1.6-.054Q491.016,1121.167,491.013,1083.362Zm17.779,7.441c-2.723,0-5.445-.029-8.168.011a2.228,2.228,0,0,0-2.5,2.522c-.037,1.952-.032,3.906,0,5.859.027,1.811.792,2.586,2.589,2.619,1.834.033,3.67,0,5.5.016.389,0,.855-.179,1.143.245.483.712-.141,3.141-.93,3.6-2.559,1.473-5.13,2.926-7.688,4.4-2.253,1.3-2.244,2.252.024,3.564,2.607,1.508,5.2,3.041,7.833,4.5,1.458.808.752,2.114.732,3.163-.022,1.122-1.114.506-1.7.552-1.353.105-2.721.013-4.081.05a2.439,2.439,0,0,0-2.5,1.879c-.6,2.16-1.212,4.32-1.713,6.5-.363,1.581.381,2.5,2.019,2.594,1.18.07,2.369-.026,3.55.033,1.453.073,3.381-.657,4.222.309.717.824.252,2.7.26,4.11.019,3.079.006,3.079-3.1,3.162-1.942.053-2.624.734-2.646,2.715-.021,1.893-.028,3.788,0,5.682.029,1.79.8,2.583,2.614,2.609,3.018.042,6.037.035,9.055,0,1.928-.021,2.749-.737,2.719-2.679-.022-1.393.6-1.477,1.7-1.466,4.5.047,9,.022,13.495.019,2.5,0,2.682-.194,2.684-2.762,0-3.492.023-6.984-.014-10.476-.01-.867.153-1.316,1.155-1.248,6.5.446,5.339-1.25,5.374-5.685.034-4.353.806-5.621-5.226-5.306-.99.051-1.335-.246-1.309-1.273.066-2.6.033-5.208.018-7.812-.011-2-.4-2.4-2.371-2.4-3.551-.012-7.1,0-10.654-.009a3.252,3.252,0,0,1-1.736-.2c-2.761-1.6-5.54-3.16-8.276-4.8-1.265-.756-.594-2.065-.552-3.081.037-.906,1.036-.453,1.593-.475,1.6-.064,3.2-.011,4.793-.025,2.148-.019,2.826-.7,2.851-2.892.02-1.775.024-3.552,0-5.327-.03-2.064-.735-2.777-2.773-2.792C514.119,1090.787,511.455,1090.8,508.792,1090.8Z" transform="translate(-12.15 -22.437)" fill="#eaf6ff" fill-rule="evenodd"/>
    <path id="Trazado_189663" data-name="Trazado 189663" d="M557.852,1102.568c0-9.117-.021-18.235.024-27.352a3.75,3.75,0,0,0-1.233-2.96c-2.721-2.636-5.409-5.309-8.033-8.041a4.1,4.1,0,0,0-3.253-1.371c-12.314.048-24.629.006-36.943.06-1.368.006-1.923-.3-1.745-1.734.2-1.621-.7-3.806.366-4.737.915-.8,3.039-.25,4.629-.25,13.794-.007,27.589.015,41.383-.036,1.307-.005,1.74.274,1.655,1.634-.129,2.064,0,4.143-.045,6.214-.032,1.438.63,2.061,2.026,2.052,2.19-.015,4.382.043,6.571-.024,1.014-.031,1.3.3,1.3,1.309q-.039,31.614,0,63.229c0,1.107-.313,1.452-1.4,1.382-1.7-.109-3.941.548-4.972-.305-1.087-.9-.314-3.219-.322-4.914C557.831,1118.671,557.852,1110.62,557.852,1102.568Z" transform="translate(-22.137 -4.87)" fill="#b9ddfc" fill-rule="evenodd"/>
    <path id="Trazado_189664" data-name="Trazado 189664" d="M484.037,1083.423q0,37.806.006,75.611c-3.852.205-3.852.205-3.852-3.6V1085.96c0-2.633,0-2.635,2.609-2.612C483.213,1083.352,483.625,1083.4,484.037,1083.423Z" transform="translate(-5.175 -22.498)" fill="#b9ddfc" fill-rule="evenodd"/>
    <path id="Trazado_189665" data-name="Trazado 189665" d="M650.012,1062.834l4.693,4.578a15.7,15.7,0,0,1-3.9.2c-.784.044-.8-.5-.794-1.063C650.016,1065.376,650.012,1064.205,650.012,1062.834Z" transform="translate(-114.644 -9.277)" fill="#00defc" fill-rule="evenodd"/>
    <path id="Trazado_189666" data-name="Trazado 189666" d="M623.192,1090.2l4.554,4.495c-1.277,0-2.474-.011-3.672,0-.71.009-.9-.377-.887-1.008C623.206,1092.529,623.192,1091.371,623.192,1090.2Z" transform="translate(-97.353 -26.915)" fill="#00defc" fill-rule="evenodd"/>
    <path id="Trazado_189667" data-name="Trazado 189667" d="M519.747,1104.488c2.664,0,5.327-.015,7.99.005,2.038.015,2.743.728,2.773,2.792.026,1.776.022,3.552,0,5.327-.025,2.191-.7,2.873-2.851,2.892-1.6.014-3.2-.039-4.793.025-.557.023-1.555-.43-1.593.475-.042,1.016-.713,2.324.552,3.081,2.736,1.637,5.515,3.2,8.276,4.8a3.254,3.254,0,0,0,1.736.2c3.551.011,7.1,0,10.654.009,1.969.006,2.359.4,2.371,2.4.015,2.6.048,5.21-.018,7.813-.026,1.027.318,1.324,1.309,1.273,6.032-.315,5.26.952,5.226,5.306-.035,4.435,1.123,6.131-5.374,5.685-1-.068-1.164.381-1.155,1.248.037,3.492.017,6.984.014,10.476,0,2.568-.188,2.76-2.684,2.761-4.5,0-9,.028-13.495-.018-1.1-.011-1.72.073-1.7,1.466.031,1.942-.791,2.659-2.719,2.68-3.018.033-6.037.04-9.055,0-1.819-.026-2.586-.818-2.614-2.608-.031-1.893-.024-3.788,0-5.682.022-1.981.7-2.663,2.646-2.715,3.1-.084,3.117-.084,3.1-3.162-.009-1.41.457-3.286-.26-4.11-.84-.966-2.769-.236-4.222-.309-1.181-.059-2.37.037-3.55-.033-1.638-.1-2.382-1.012-2.019-2.594.5-2.184,1.111-4.345,1.713-6.5a2.439,2.439,0,0,1,2.5-1.879c1.36-.037,2.728.056,4.081-.05.585-.046,1.677.57,1.7-.552.02-1.049.726-2.355-.732-3.164-2.633-1.462-5.226-3-7.833-4.5-2.268-1.312-2.278-2.267-.024-3.564,2.559-1.473,5.129-2.926,7.688-4.4.789-.454,1.413-2.884.93-3.6-.288-.424-.754-.242-1.143-.245-1.834-.017-3.67.018-5.5-.016-1.8-.032-2.561-.808-2.589-2.619-.03-1.953-.035-3.907,0-5.859a2.228,2.228,0,0,1,2.5-2.522C514.3,1104.46,517.024,1104.488,519.747,1104.488Zm14.791,53.721c2.072,0,4.146-.053,6.215.022,1.04.038,1.308-.337,1.281-1.321-.062-2.248-.02-4.5-.02-6.749,0-3.542,0-3.542-3.457-3.579-.237,0-.474,0-.71-.007a2.242,2.242,0,0,1-2.435-2.445c-.033-2.012-.026-4.026,0-6.039a2.29,2.29,0,0,1,2.56-2.51c.947-.014,1.9-.052,2.841.008s1.245-.3,1.22-1.225c-.055-2.07-.075-4.146.006-6.215.043-1.106-.453-1.248-1.376-1.234-2.841.045-5.684,0-8.526.025a3.545,3.545,0,0,0-1.907.207c-2.813,1.625-5.656,3.2-8.445,4.864-1.174.7-.515,1.942-.534,2.917-.021,1.043.962.612,1.51.625,2.13.053,4.264-.026,6.393.043,1.821.059,2.575,1.084,2.141,2.817-.5,2-1.081,3.989-1.6,5.99a2.626,2.626,0,0,1-2.82,2.175c-1.243,0-2.5.094-3.728-.021-1.479-.137-2.222.212-1.979,1.891a22.5,22.5,0,0,1,.028,3.193c0,2.534,0,2.534,2.5,2.54,2.69.007,3.151.37,3.306,2.954.052.856.3,1.108,1.14,1.089C530.273,1158.176,532.406,1158.209,534.537,1158.209Zm-13.973-19.8h-4.078c-3.943,0-3.915.007-4.872,3.826-.284,1.13-.123,1.578,1.173,1.549,3.367-.075,6.737-.025,10.106-.025,4.184,0,4.14-.011,5.161-4.139.252-1.021.034-1.241-.929-1.223C524.938,1138.433,522.75,1138.405,520.564,1138.4Zm-.655-25.75h3.731c4.256,0,4.23,0,4.036-4.208-.038-.825-.23-1.129-1.1-1.122q-6.839.057-13.679,0c-.8-.006-1.023.284-.987,1.031a24.236,24.236,0,0,1-.005,3.018c-.075.981.221,1.338,1.257,1.3C515.406,1112.6,517.658,1112.654,519.909,1112.654Zm7.344,12.9c-2.408-1.4-4.643-2.682-6.868-3.988a1.02,1.02,0,0,0-1.142,0c-2.225,1.3-4.457,2.579-6.894,3.987,2.4,1.381,4.593,2.612,6.75,3.9a1.245,1.245,0,0,0,1.453-.026C522.71,1128.145,524.89,1126.909,527.253,1125.55Zm16.21,18.189c1.356,0,2.711.01,4.066-.006.383,0,.953.123.973-.463.049-1.469.072-2.947-.025-4.412-.043-.655-.74-.425-1.164-.431-1.767-.025-3.535-.011-5.3-.011-3.847,0-3.807,0-3.792,3.923,0,1.049.224,1.5,1.357,1.422C540.865,1143.671,542.166,1143.741,543.462,1143.739Zm-23.515,18.607c1.064,0,2.13-.047,3.191.014.934.054,1.2-.47,1.027-1.191-.332-1.366.868-3-.719-4.132-.039-.028-.115-.008-.174-.008-2.3,0-4.609,0-6.914,0-.394,0-.906-.09-.9.538.023,1.525-.49,3.239.233,4.509.452.792,2.09.165,3.191.264C519.236,1162.374,519.593,1162.348,519.948,1162.346Z" transform="translate(-23.105 -36.122)" fill="#070707" fill-rule="evenodd"/>
    <path id="Trazado_189668" data-name="Trazado 189668" d="M558.253,1198.9c-2.132,0-4.264-.033-6.394.017-.835.019-1.089-.233-1.14-1.089-.156-2.585-.616-2.947-3.306-2.955-2.5-.006-2.5-.006-2.5-2.54a22.5,22.5,0,0,0-.028-3.193c-.243-1.679.5-2.028,1.979-1.891,1.233.114,2.485.019,3.728.021a2.626,2.626,0,0,0,2.82-2.175c.516-2,1.1-3.986,1.6-5.99.434-1.733-.321-2.758-2.141-2.817-2.129-.069-4.263.01-6.393-.043-.548-.013-1.532.418-1.51-.625.02-.975-.64-2.216.534-2.917,2.789-1.665,5.632-3.239,8.445-4.864a3.547,3.547,0,0,1,1.907-.207c2.842-.021,5.685.02,8.526-.025.923-.014,1.419.128,1.376,1.234-.081,2.069-.061,4.144-.006,6.215.025.93-.287,1.284-1.22,1.225s-1.894-.022-2.841-.008a2.29,2.29,0,0,0-2.56,2.51c-.023,2.013-.031,4.027,0,6.039a2.242,2.242,0,0,0,2.435,2.445c.236.009.474,0,.71.007,3.457.038,3.457.038,3.457,3.579,0,2.25-.043,4.5.02,6.749.027.984-.241,1.359-1.281,1.321C562.4,1198.848,560.325,1198.9,558.253,1198.9Z" transform="translate(-46.821 -76.813)" fill="#e7eaec" fill-rule="evenodd"/>
    <path id="Trazado_189669" data-name="Trazado 189669" d="M526.89,1199.921c2.187,0,4.374.028,6.56-.013.963-.018,1.181.2.929,1.223-1.021,4.129-.977,4.139-5.161,4.139-3.369,0-6.739-.05-10.106.025-1.3.029-1.456-.419-1.173-1.549.958-3.819.929-3.826,4.872-3.826Z" transform="translate(-29.432 -97.638)" fill="#f3606a" fill-rule="evenodd"/>
    <path id="Trazado_189670" data-name="Trazado 189670" d="M526.953,1117.814c-2.25,0-4.5-.053-6.75.024-1.036.035-1.332-.322-1.257-1.3a24.232,24.232,0,0,0,.005-3.018c-.036-.747.184-1.037.987-1.031q6.839.051,13.679,0c.872-.007,1.064.3,1.1,1.123.195,4.209.22,4.208-4.036,4.208Z" transform="translate(-30.15 -41.282)" fill="#6bf4c1" fill-rule="evenodd"/>
    <path id="Trazado_189671" data-name="Trazado 189671" d="M535.128,1156.221c-2.363,1.359-4.543,2.595-6.7,3.867a1.244,1.244,0,0,1-1.453.026c-2.157-1.283-4.345-2.514-6.75-3.9,2.437-1.408,4.669-2.691,6.894-3.987a1.02,1.02,0,0,1,1.142,0C530.485,1153.538,532.721,1154.825,535.128,1156.221Z" transform="translate(-30.981 -66.793)" fill="#f8db74" fill-rule="evenodd"/>
    <path id="Trazado_189672" data-name="Trazado 189672" d="M598.259,1205.26c-1.3,0-2.6-.069-3.887.022-1.133.08-1.353-.373-1.357-1.422-.015-3.923-.055-3.923,3.792-3.923,1.768,0,3.536-.014,5.3.011.424.006,1.121-.224,1.164.431.1,1.465.074,2.942.025,4.411-.02.586-.59.459-.973.463C600.971,1205.269,599.615,1205.26,598.259,1205.26Z" transform="translate(-77.902 -97.642)" fill="#84c1f4" fill-rule="evenodd"/>
    <path id="Trazado_189673" data-name="Trazado 189673" d="M533.187,1257.659c-.354,0-.711.027-1.063,0-1.1-.1-2.74.528-3.191-.264-.723-1.27-.21-2.984-.233-4.509-.009-.628.5-.537.9-.538,2.3-.007,4.61,0,6.914,0,.059,0,.135-.021.175.008,1.587,1.133.387,2.766.719,4.131.175.721-.094,1.245-1.027,1.191C535.317,1257.612,534.251,1257.659,533.187,1257.659Z" transform="translate(-36.344 -131.434)" fill="#85c1f4" fill-rule="evenodd"/>
  </g>
</svg>
