<svg xmlns="http://www.w3.org/2000/svg" width="187" height="187" viewBox="0 0 187 187">
  <g id="Grupo_131828" data-name="Grupo 131828" transform="translate(-1021 -7197)">
    <g id="Grupo_128141" data-name="Grupo 128141" transform="translate(1030.92 7206.731)">
      <g id="Elipse_157" data-name="Elipse 157" transform="translate(0.08 0.269)" fill="#f3f9ff" stroke="#26defc" stroke-linejoin="round" stroke-width="10">
        <circle cx="83.5" cy="83.5" r="83.5" stroke="none"/>
        <circle cx="83.5" cy="83.5" r="88.5" fill="none"/>
      </g>
    </g>
    <g id="Grupo_131470" data-name="Grupo 131470" transform="translate(1064 7252)">
      <path id="Trazado_191005" data-name="Trazado 191005" d="M-1039.864,451.465q-22.156,0-44.314,0c-4.664,0-6.349-1.666-6.349-6.263q0-32.643,0-65.285c0-4.437,1.951-6.442,6.342-6.443q44.314-.013,88.629,0c4.389,0,6.348,2.008,6.349,6.438q0,32.741,0,65.484c0,4.339-1.744,6.068-6.144,6.07Q-1017.608,451.471-1039.864,451.465Zm.124-60.284c-15.43,0-30.86.019-46.29-.032-1.382-.005-1.745.344-1.74,1.733.049,17.607.028,35.212.036,52.819,0,2.309.615,2.947,2.934,2.948q44.906.016,89.813,0c2.413,0,2.99-.622,2.991-3.091.005-17.54-.021-35.081.044-52.621.005-1.565-.495-1.792-1.892-1.786C-1009.143,391.2-1024.442,391.181-1039.74,391.181Zm-.226-2.8h23.145c7.78,0,15.561-.03,23.342.03,1.225.009,1.582-.3,1.519-1.528-.107-2.1-.029-4.218-.03-6.328,0-3.822-.472-4.288-4.355-4.288h-87.04c-.528,0-1.056-.018-1.583.01a2.6,2.6,0,0,0-2.773,2.892c0,2.439.1,4.885-.037,7.317-.087,1.543.363,1.939,1.919,1.934C-1070.562,388.358-1055.265,388.383-1039.967,388.383Z" transform="translate(1090.528 -373.466)" fill="#0d0d0d" fill-rule="evenodd"/>
      <path id="Trazado_191006" data-name="Trazado 191006" d="M-1039.331,393.81c15.3,0,30.6.018,45.9-.03,1.4-.005,1.9.221,1.892,1.786-.064,17.54-.038,35.081-.043,52.621,0,2.469-.578,3.091-2.991,3.091q-44.907.014-89.813,0c-2.319,0-2.933-.639-2.934-2.948-.009-17.606.012-35.212-.036-52.819,0-1.389.358-1.739,1.74-1.733C-1070.191,393.829-1054.761,393.81-1039.331,393.81Zm-14.748,45.093a1.946,1.946,0,0,1,.158-1.455c.8-2.451.454-2.944-2.085-2.951-3.034-.009-6.068-.033-9.1.015-.917.015-1.289-.211-1.245-1.2.077-1.711.012-3.428.024-5.142.018-3.006,1.193-4.217,4.175-4.241,3.232-.027,6.465.076,9.692-.044,1.531-.056,2.048.339,1.959,1.929-.131,2.34.22,2.6,2.563,2.607q8.21.017,16.42,0c3.041,0,3.047-.023,3.159-3.058.02-.566-.368-1.455.767-1.44,6.129.084,12.808-1.637,16.91,5.132.066.109.193.179.277.28,1.01,1.214,1.95,1.022,2.969-.045,1.547-1.623,3.161-3.179,4.743-4.768,1.851-1.861,1.987-2.251-.044-3.92-3.508-2.882-5.809-6.151-4.815-10.948a1.375,1.375,0,0,0-.019-.394,6.132,6.132,0,0,0-6.073-5.855,17.956,17.956,0,0,0-2.57-.005c-1.349.109-1.76-.19-1.19-1.627.872-2.2.349-2.841-2.039-2.845q-9.6-.017-19.19,0c-3.212,0-3.283-.023-4.292,3.009a1.822,1.822,0,0,1-2.1,1.481c-3.824-.07-7.649-.042-11.474-.015a1.625,1.625,0,0,1-1.819-1.048,5.639,5.639,0,0,0-5.538-3.416c-4.088-.03-8.178-.057-12.266.008a5.836,5.836,0,0,0-6.065,5.739,5.83,5.83,0,0,0,6.053,5.947c4.087.078,8.177.044,12.266.01a5.832,5.832,0,0,0,5.579-3.393c.255-.515.388-1.083,1.192-1.078,4.136.03,8.272.014,12.559.014-.245.8-.413,1.36-.589,1.915-.578,1.822-.159,2.53,1.7,2.539,7.122.033,14.244.005,21.366.02a1.965,1.965,0,0,0,2.051-1.457c1.2-3.039,1.234-3.023,4.542-3.022.462,0,.924-.014,1.385,0,2.427.1,3.529,1.267,3.789,3.642.413,3.8-.069,7.188-3.593,9.468a2.947,2.947,0,0,0-.7.7,3.036,3.036,0,0,1-2.744,1.173c-3.1-.073-6.2-.131-9.3.02-1.588.077-1.828-.5-1.773-1.886.093-2.385-.175-2.58-2.585-2.584q-8.309-.008-16.618,0c-2.82,0-2.977.077-2.9,2.859.038,1.347-.409,1.625-1.656,1.595-3.427-.081-6.858-.067-10.287-.016-4.152.061-6.618,2.569-6.661,6.691-.018,1.78-.06,3.563.018,5.34.045,1.018-.225,1.383-1.3,1.337-2.041-.086-4.09.041-6.131-.048a2.174,2.174,0,0,0-2.48,1.7c-.716,2.186-1.534,4.338-2.309,6.5-1.087,3.036-.783,3.488,2.378,3.489,6.33,0,12.663-.094,18.991.053,2.217.05,3.492-.568,3.9-2.8a1.826,1.826,0,0,1,2.084-1.763c10.484.077,20.97.053,31.455.024a1.742,1.742,0,0,1,1.94,1.167,5.144,5.144,0,0,0,4.8,3.254c4.547.086,9.1.146,13.645-.023a5.624,5.624,0,0,0,5.386-5.929,5.769,5.769,0,0,0-5.754-5.626c-4.285-.075-8.573-.05-12.858-.009a5.3,5.3,0,0,0-5.1,3.115,2.006,2.006,0,0,1-2.256,1.289c-5.143-.034-10.287-.016-15.431-.016Z" transform="translate(1090.118 -376.095)" fill="#fff1d1" fill-rule="evenodd"/>
      <path id="Trazado_191007" data-name="Trazado 191007" d="M-1039.56,388.8c-15.3,0-30.6-.025-45.893.038-1.556.005-2.006-.391-1.919-1.934.136-2.432.036-4.878.037-7.317a2.6,2.6,0,0,1,2.773-2.892c.527-.028,1.055-.01,1.583-.01h87.04c3.884,0,4.355.467,4.355,4.288,0,2.11-.078,4.224.03,6.328.063,1.226-.294,1.537-1.519,1.528-7.78-.06-15.561-.03-23.342-.03Zm15.731-4.683q12.856,0,25.713,0c.593,0,1.188,0,1.778-.048a1.212,1.212,0,0,0,1.166-1.138,1.247,1.247,0,0,0-1.025-1.469,7.87,7.87,0,0,0-1.763-.123q-25.714-.008-51.428,0a7.32,7.32,0,0,0-1.941.212,1.169,1.169,0,0,0-.794,1.419,1.127,1.127,0,0,0,1,1.058,14.178,14.178,0,0,0,1.774.082Q-1036.587,384.121-1023.828,384.116Zm-56.8.046c1.11-.388,3.184.777,3.15-1.461-.03-1.927-1.909-1.328-3.1-1.335s-3.054-.561-3.106,1.346C-1083.74,384.764-1081.805,383.88-1080.631,384.162Zm21.254.013c.986-.387,2.938.679,2.972-1.39.033-2-1.833-1.425-3.015-1.418-1.243.008-3.224-.626-3.2,1.44C-1062.591,384.754-1060.653,383.9-1059.377,384.176Zm-10.947-.064c.766,0,1.355.006,1.941,0,.911-.012,1.56-.427,1.55-1.375s-.711-1.334-1.582-1.389a11.553,11.553,0,0,0-1.762,0c-1.142.107-2.882-.509-2.94,1.333C-1073.182,384.8-1071.262,383.854-1070.323,384.111Z" transform="translate(1090.121 -373.882)" fill="#0ddcf1" fill-rule="evenodd"/>
      <path id="Trazado_191008" data-name="Trazado 191008" d="M-1053.311,439.665h15.954c5.144,0,10.288-.018,15.431.016a2.006,2.006,0,0,0,2.256-1.289,5.3,5.3,0,0,1,5.1-3.115c4.285-.041,8.573-.066,12.858.009a5.769,5.769,0,0,1,5.754,5.626,5.624,5.624,0,0,1-5.386,5.929c-4.543.169-9.1.109-13.645.023a5.144,5.144,0,0,1-4.8-3.254,1.742,1.742,0,0,0-1.94-1.167c-10.484.03-20.97.053-31.455-.024a1.826,1.826,0,0,0-2.084,1.763c-.408,2.232-1.684,2.851-3.9,2.8-6.327-.147-12.661-.051-18.991-.053-3.161,0-3.466-.454-2.379-3.489.775-2.165,1.593-4.317,2.309-6.5a2.174,2.174,0,0,1,2.48-1.7c2.041.089,4.09-.038,6.13.048,1.073.046,1.343-.319,1.3-1.337-.078-1.777-.036-3.56-.018-5.34.043-4.122,2.509-6.63,6.661-6.691,3.428-.051,6.859-.065,10.287.016,1.247.03,1.694-.248,1.656-1.595-.08-2.782.078-2.858,2.9-2.859q8.309,0,16.618,0c2.41,0,2.678.2,2.585,2.584-.055,1.387.185,1.963,1.773,1.886,3.092-.151,6.2-.093,9.3-.02a3.036,3.036,0,0,0,2.744-1.173,2.947,2.947,0,0,1,.7-.7c3.524-2.28,4.006-5.671,3.593-9.468-.259-2.375-1.362-3.541-3.789-3.642-.461-.018-.923,0-1.385,0-3.307,0-3.346-.017-4.542,3.022a1.966,1.966,0,0,1-2.051,1.457c-7.121-.015-14.244.013-21.366-.02-1.857-.01-2.276-.717-1.7-2.539.177-.555.344-1.115.589-1.915-4.287,0-8.423.016-12.559-.014-.8-.005-.937.562-1.192,1.078a5.832,5.832,0,0,1-5.579,3.393c-4.088.035-8.178.069-12.265-.01a5.83,5.83,0,0,1-6.053-5.947,5.836,5.836,0,0,1,6.065-5.739c4.087-.065,8.177-.038,12.266-.008a5.638,5.638,0,0,1,5.538,3.416,1.625,1.625,0,0,0,1.819,1.048c3.825-.027,7.651-.056,11.474.015a1.821,1.821,0,0,0,2.1-1.481c1.009-3.031,1.08-3.009,4.292-3.009q9.6,0,19.19,0c2.388,0,2.911.644,2.039,2.845-.57,1.437-.159,1.736,1.19,1.627a17.956,17.956,0,0,1,2.57.005,6.132,6.132,0,0,1,6.073,5.855,1.375,1.375,0,0,1,.019.394c-.994,4.8,1.308,8.066,4.815,10.948,2.031,1.669,1.9,2.059.044,3.92-1.582,1.589-3.2,3.145-4.743,4.768-1.019,1.067-1.959,1.26-2.969.045-.084-.1-.211-.172-.277-.28-4.1-6.769-10.781-5.048-16.91-5.132-1.135-.015-.747.874-.767,1.44-.112,3.036-.118,3.057-3.159,3.058q-8.21,0-16.42,0c-2.343,0-2.694-.267-2.563-2.607.089-1.591-.427-1.985-1.959-1.929-3.227.119-6.46.017-9.692.044-2.982.024-4.157,1.235-4.175,4.241-.011,1.714.053,3.432-.024,5.142-.044.989.327,1.214,1.245,1.2,3.032-.048,6.066-.024,9.1-.015,2.539.007,2.882.5,2.085,2.951A1.947,1.947,0,0,0-1053.311,439.665Zm33.623-37.2h-14.7c-4.843,0-4.792.017-6.4,4.544-.47,1.323-.343,1.692,1.136,1.662,4.138-.084,8.278-.03,12.418-.03,5.633,0,5.634,0,7.4-5.322A7.715,7.715,0,0,0-1019.687,402.461Zm-36.366,35.576H-1071c-4.708,0-4.708,0-6.234,4.49-.043.125-.108.241-.159.362-.374.876-.219,1.289.869,1.283,5.735-.037,11.47-.028,17.206,0,.751,0,1.217-.172,1.465-.948C-1057.318,441.544-1056.7,439.89-1056.053,438.037Zm47.966,0c-2.1,0-4.208-.043-6.309.014a3.1,3.1,0,0,0-3.266,2.994,3.047,3.047,0,0,0,3.169,3.077q6.307.1,12.617,0a3,3,0,0,0,3.151-3.077,3.064,3.064,0,0,0-3.251-2.994C-1004.011,438-1006.05,438.04-1008.087,438.04Zm-61.2-29.4c1.973,0,3.946.026,5.917-.008,2.208-.038,3.625-1.243,3.654-3.036s-1.388-3.1-3.568-3.118q-5.917-.061-11.835,0c-2.208.023-3.571,1.292-3.532,3.131s1.388,2.983,3.643,3.022C-1073.1,408.662-1071.189,408.636-1069.282,408.636Zm30.736,11.613h-3.946c-4.593,0-4.527,0-4.545,4.605-.006,1.389.493,1.6,1.7,1.579,3.419-.067,6.84-.023,10.26-.023,4.878,0,4.829,0,4.738-4.826-.023-1.2-.46-1.388-1.495-1.357C-1034.073,420.294-1036.31,420.25-1038.547,420.25Zm34.577,3.036c-.183-.21-.331-.4-.5-.571-1.02-1.028-2.065-2.031-3.059-3.084-.475-.5-.771-.4-1.283,0-3.835,3.029-3.844,4.174-.087,7.312.591.493.922.54,1.444-.022.94-1.013,1.942-1.967,2.913-2.952C-1004.363,423.787-1004.211,423.576-1003.97,423.285Z" transform="translate(1089.35 -376.857)" fill="#080808" fill-rule="evenodd"/>
      <path id="Trazado_191009" data-name="Trazado 191009" d="M-1018.589,384.808q-12.758,0-25.516,0a14.185,14.185,0,0,1-1.774-.082,1.127,1.127,0,0,1-1-1.058,1.169,1.169,0,0,1,.794-1.419,7.319,7.319,0,0,1,1.941-.212q25.715-.016,51.428,0a7.869,7.869,0,0,1,1.763.123,1.247,1.247,0,0,1,1.025,1.469,1.212,1.212,0,0,1-1.166,1.138c-.59.051-1.185.048-1.778.048Q-1005.734,384.81-1018.589,384.808Z" transform="translate(1084.882 -374.574)" fill="#0d0d0d" fill-rule="evenodd"/>
      <path id="Trazado_191010" data-name="Trazado 191010" d="M-1080.081,384.847c-1.174-.282-3.11.6-3.053-1.45.052-1.907,1.907-1.355,3.106-1.346s3.067-.591,3.1,1.335C-1076.9,385.625-1078.971,384.459-1080.081,384.847Z" transform="translate(1089.572 -374.567)" fill="#0e0e0e" fill-rule="evenodd"/>
      <path id="Trazado_191011" data-name="Trazado 191011" d="M-1055.695,384.86c-1.276-.279-3.214.578-3.24-1.369-.026-2.066,1.954-1.432,3.2-1.44,1.182-.007,3.048-.582,3.015,1.418C-1052.757,385.539-1054.708,384.472-1055.695,384.86Z" transform="translate(1086.439 -374.566)" fill="#0f0f0f" fill-rule="evenodd"/>
      <path id="Trazado_191012" data-name="Trazado 191012" d="M-1068.2,384.8c-.938-.257-2.859.692-2.793-1.436.057-1.842,1.8-1.226,2.94-1.333a11.559,11.559,0,0,1,1.762,0c.87.055,1.571.439,1.582,1.389s-.638,1.362-1.55,1.375C-1066.848,384.806-1067.436,384.8-1068.2,384.8Z" transform="translate(1088 -374.571)" fill="#0e0e0e" fill-rule="evenodd"/>
      <path id="Trazado_191013" data-name="Trazado 191013" d="M-1013.682,402.877a7.715,7.715,0,0,1-.145.854c-1.768,5.323-1.769,5.322-7.4,5.322-4.14,0-8.28-.055-12.418.03-1.479.03-1.606-.339-1.136-1.662,1.606-4.526,1.556-4.544,6.4-4.544Z" transform="translate(1083.345 -377.273)" fill="#ffb30c" fill-rule="evenodd"/>
      <path id="Trazado_191014" data-name="Trazado 191014" d="M-1055.482,443.742c-.65,1.853-1.265,3.507-1.8,5.183-.248.776-.714.952-1.465.948-5.736-.024-11.471-.033-17.206,0-1.087.006-1.243-.407-.869-1.283.051-.121.116-.238.159-.362,1.526-4.49,1.526-4.49,6.234-4.49Z" transform="translate(1088.779 -382.562)" fill="#ffb30c" fill-rule="evenodd"/>
      <path id="Trazado_191015" data-name="Trazado 191015" d="M-998.608,443.743c2.037,0,4.076-.043,6.111.012a3.064,3.064,0,0,1,3.251,2.994,3,3,0,0,1-3.151,3.077q-6.307.107-12.617,0a3.047,3.047,0,0,1-3.169-3.077,3.1,3.1,0,0,1,3.266-2.994C-1002.815,443.7-1000.711,443.743-998.608,443.743Z" transform="translate(1079.871 -382.56)" fill="#ffb30c" fill-rule="evenodd"/>
      <path id="Trazado_191016" data-name="Trazado 191016" d="M-1068.869,409.049c-1.906,0-3.813.025-5.72-.008-2.256-.038-3.605-1.182-3.643-3.022s1.324-3.108,3.532-3.131q5.917-.065,11.835,0c2.18.023,3.6,1.318,3.568,3.118s-1.446,3-3.654,3.036C-1064.924,409.075-1066.9,409.049-1068.869,409.049Z" transform="translate(1088.937 -377.27)" fill="#cc8f08" fill-rule="evenodd"/>
      <path id="Trazado_191017" data-name="Trazado 191017" d="M-1033.434,423.306c2.236,0,4.474.044,6.709-.021,1.035-.03,1.471.159,1.495,1.357.091,4.826.14,4.826-4.738,4.826-3.42,0-6.842-.044-10.261.023-1.2.023-1.7-.191-1.7-1.579.018-4.605-.048-4.605,4.545-4.605Z" transform="translate(1084.238 -379.914)" fill="#ffb30c" fill-rule="evenodd"/>
      <path id="Trazado_191018" data-name="Trazado 191018" d="M-993.6,426.2c-.241.291-.393.5-.573.684-.971.985-1.973,1.939-2.913,2.952-.522.562-.853.515-1.444.022-3.757-3.138-3.748-4.283.087-7.312.512-.4.808-.506,1.283,0,.994,1.053,2.039,2.056,3.059,3.084C-993.936,425.8-993.788,425.993-993.6,426.2Z" transform="translate(1078.985 -379.775)" fill="#154f8d" fill-rule="evenodd"/>
    </g>
  </g>
</svg>
