<svg xmlns="http://www.w3.org/2000/svg" width="505" height="199" viewBox="0 0 505 199">
  <g id="Grupo_131789" data-name="Grupo 131789" transform="translate(-915 -5432.701)">
    <g id="Trazado_191304" data-name="Trazado 191304" transform="translate(915 5432.701)" fill="rgba(185,221,252,0.15)" stroke-linecap="round">
      <path d="M 495 197 L 10 197 C 5.588799953460693 197 2 193.4111938476562 2 189 L 2 10 C 2 5.588799953460693 5.588799953460693 2 10 2 L 495 2 C 499.4111938476562 2 503 5.588799953460693 503 10 L 503 189 C 503 193.4111938476562 499.4111938476562 197 495 197 Z" stroke="none"/>
      <path d="M 10 4 C 6.69158935546875 4 4 6.691604614257812 4 10 L 4 189 C 4 192.3083953857422 6.69158935546875 195 10 195 L 495 195 C 498.3084106445312 195 501 192.3083953857422 501 189 L 501 10 C 501 6.691604614257812 498.3084106445312 4 495 4 L 10 4 M 10 0 L 495 0 C 500.5228576660156 0 505 4.477127075195312 505 10 L 505 189 C 505 194.5228729248047 500.5228576660156 199 495 199 L 10 199 C 4.477142333984375 199 0 194.5228729248047 0 189 L 0 10 C 0 4.477127075195312 4.477142333984375 0 10 0 Z" stroke="none" fill="#b9ddfc"/>
    </g>
    <path id="Trazado_191306" data-name="Trazado 191306" d="M8.9,11.568H4.052v3.059h5.73V17H.967V4.2H9.8V6.585H4.052v2.7H8.9ZM14.089,7.49v9.835a3.452,3.452,0,0,1-.967,2.6,3.714,3.714,0,0,1-2.672.914,6.308,6.308,0,0,1-1.4-.149V18.45a5.667,5.667,0,0,0,.835.079,1.084,1.084,0,0,0,1.23-1.222V7.49ZM10.9,5.029a1.334,1.334,0,0,1,.457-1.043,1.718,1.718,0,0,1,1.187-.407,1.718,1.718,0,0,1,1.187.407,1.334,1.334,0,0,1,.457,1.043,1.334,1.334,0,0,1-.457,1.043,1.718,1.718,0,0,1-1.187.407,1.718,1.718,0,0,1-1.187-.407A1.334,1.334,0,0,1,10.9,5.029Zm9.466,12.146a4.889,4.889,0,0,1-3.542-1.305,4.507,4.507,0,0,1-1.354-3.4v-.246a5.84,5.84,0,0,1,.541-2.575,3.955,3.955,0,0,1,1.578-1.727,4.763,4.763,0,0,1,2.461-.611,4.117,4.117,0,0,1,3.164,1.244,4.887,4.887,0,0,1,1.16,3.467v1.151H18.483a2.135,2.135,0,0,0,.694,1.257,2.066,2.066,0,0,0,1.389.457,2.662,2.662,0,0,0,2.2-.984l1.354,1.6a3.784,3.784,0,0,1-1.569,1.217A5.3,5.3,0,0,1,20.364,17.176ZM20.03,9.6q-1.3,0-1.547,1.723h2.988v-.229a1.467,1.467,0,0,0-.36-1.1A1.434,1.434,0,0,0,20.03,9.6ZM28.362,7.49l.1,1.116a3.27,3.27,0,0,1,2.716-1.292,2.407,2.407,0,0,1,2.435,1.433A3.165,3.165,0,0,1,36.4,7.314q2.892,0,2.971,3.5V17H36.4V11a1.813,1.813,0,0,0-.246-1.063,1.048,1.048,0,0,0-.9-.334,1.4,1.4,0,0,0-1.31.782l.009.123V17H30.99V11.015a1.906,1.906,0,0,0-.237-1.081,1.045,1.045,0,0,0-.905-.334,1.42,1.42,0,0,0-1.3.782V17H25.585V7.49ZM49.9,12.315a5.735,5.735,0,0,1-1,3.538A3.2,3.2,0,0,1,46.2,17.176a2.742,2.742,0,0,1-2.153-.958v4.438H41.089V7.49h2.769l.088.879a2.742,2.742,0,0,1,2.241-1.055,3.224,3.224,0,0,1,2.733,1.3,5.805,5.805,0,0,1,.976,3.564Zm-2.962-.185q0-2.531-1.477-2.531a1.394,1.394,0,0,0-1.406.756V14.1a1.439,1.439,0,0,0,1.424.791q1.415,0,1.459-2.443ZM54.325,17H51.354V3.5h2.971Zm1.45-4.843a5.613,5.613,0,0,1,.554-2.536A3.96,3.96,0,0,1,57.92,7.912a4.791,4.791,0,0,1,2.435-.6,4.373,4.373,0,0,1,3.366,1.323,5.076,5.076,0,0,1,1.23,3.6v.105a4.925,4.925,0,0,1-1.235,3.529,4.384,4.384,0,0,1-3.344,1.305,4.434,4.434,0,0,1-3.261-1.217,4.761,4.761,0,0,1-1.327-3.3Zm2.962.185a3.538,3.538,0,0,0,.413,1.934,1.376,1.376,0,0,0,1.222.615q1.582,0,1.617-2.435v-.3q0-2.558-1.635-2.558-1.485,0-1.608,2.206Zm11.628-.167a5.809,5.809,0,0,1,.976-3.56,3.211,3.211,0,0,1,2.725-1.3,2.731,2.731,0,0,1,2.145,1V3.5h2.971V17H76.518l-.149-1.02a2.8,2.8,0,0,1-2.32,1.2,3.205,3.205,0,0,1-2.689-1.3A5.993,5.993,0,0,1,70.365,12.175Zm2.962.185q0,2.531,1.477,2.531a1.458,1.458,0,0,0,1.406-.826V10.443A1.419,1.419,0,0,0,74.821,9.6q-1.371,0-1.485,2.215Zm12.138,4.816a4.889,4.889,0,0,1-3.542-1.305,4.507,4.507,0,0,1-1.354-3.4v-.246a5.84,5.84,0,0,1,.541-2.575,3.955,3.955,0,0,1,1.578-1.727,4.763,4.763,0,0,1,2.461-.611,4.117,4.117,0,0,1,3.164,1.244,4.887,4.887,0,0,1,1.16,3.467v1.151H83.584a2.135,2.135,0,0,0,.694,1.257,2.066,2.066,0,0,0,1.389.457,2.662,2.662,0,0,0,2.2-.984l1.354,1.6a3.784,3.784,0,0,1-1.569,1.217A5.3,5.3,0,0,1,85.465,17.176ZM85.131,9.6q-1.3,0-1.547,1.723h2.988v-.229a1.467,1.467,0,0,0-.36-1.1A1.434,1.434,0,0,0,85.131,9.6Zm15.68,6.372a3.054,3.054,0,0,1-2.54,1.2,3,3,0,0,1-2.369-.91,3.826,3.826,0,0,1-.8-2.615V7.49H98.06v6.179a1.065,1.065,0,0,0,1.187,1.222,1.548,1.548,0,0,0,1.45-.729V7.49h2.979V17H100.9Zm7.207-8.481.1,1.116a3.225,3.225,0,0,1,2.716-1.292,2.713,2.713,0,0,1,2.219.888,4.226,4.226,0,0,1,.76,2.672V17h-2.971V11a1.6,1.6,0,0,0-.29-1.059,1.342,1.342,0,0,0-1.055-.338,1.413,1.413,0,0,0-1.292.686V17H105.24V7.49Zm20.742,4.825a5.735,5.735,0,0,1-1,3.538,3.2,3.2,0,0,1-2.694,1.323,2.742,2.742,0,0,1-2.153-.958v4.438h-2.962V7.49h2.769l.088.879a2.742,2.742,0,0,1,2.241-1.055,3.224,3.224,0,0,1,2.733,1.3,5.805,5.805,0,0,1,.976,3.564Zm-2.962-.185q0-2.531-1.477-2.531a1.394,1.394,0,0,0-1.406.756V14.1a1.439,1.439,0,0,0,1.424.791q1.415,0,1.459-2.443Zm9.246,2.2a.684.684,0,0,0-.4-.606,6.016,6.016,0,0,0-1.5-.475,6.853,6.853,0,0,1-1.828-.646,3.062,3.062,0,0,1-1.1-.971,2.319,2.319,0,0,1-.378-1.31,2.628,2.628,0,0,1,1.081-2.158,4.453,4.453,0,0,1,2.83-.848,4.934,4.934,0,0,1,3.023.853,2.666,2.666,0,0,1,1.143,2.241h-2.971q0-1.143-1.2-1.143a1.194,1.194,0,0,0-.782.259.8.8,0,0,0-.316.646.737.737,0,0,0,.387.642,3.654,3.654,0,0,0,1.235.4,10.671,10.671,0,0,1,1.49.378A2.706,2.706,0,0,1,137.9,14.24a2.491,2.491,0,0,1-1.156,2.118,5.068,5.068,0,0,1-2.993.817,5.172,5.172,0,0,1-2.18-.439,3.645,3.645,0,0,1-1.494-1.2,2.707,2.707,0,0,1-.536-1.591h2.769a1.145,1.145,0,0,0,.439.962,1.808,1.808,0,0,0,1.081.3,1.422,1.422,0,0,0,.91-.246A.787.787,0,0,0,135.044,14.328Zm8.842,2.848a4.889,4.889,0,0,1-3.542-1.305,4.507,4.507,0,0,1-1.354-3.4v-.246a5.84,5.84,0,0,1,.541-2.575,3.955,3.955,0,0,1,1.578-1.727,4.763,4.763,0,0,1,2.461-.611,4.117,4.117,0,0,1,3.164,1.244,4.887,4.887,0,0,1,1.16,3.467v1.151H142a2.135,2.135,0,0,0,.694,1.257,2.066,2.066,0,0,0,1.389.457,2.662,2.662,0,0,0,2.2-.984l1.354,1.6a3.784,3.784,0,0,1-1.569,1.217A5.3,5.3,0,0,1,143.886,17.176ZM143.552,9.6q-1.3,0-1.547,1.723h2.988v-.229a1.467,1.467,0,0,0-.36-1.1A1.434,1.434,0,0,0,143.552,9.6Zm11.2,6.372a3.054,3.054,0,0,1-2.54,1.2,3,3,0,0,1-2.369-.91,3.826,3.826,0,0,1-.8-2.615V7.49H152v6.179a1.065,1.065,0,0,0,1.187,1.222,1.548,1.548,0,0,0,1.45-.729V7.49h2.979V17h-2.777Zm4.113-3.8a5.809,5.809,0,0,1,.976-3.56,3.211,3.211,0,0,1,2.725-1.3,2.731,2.731,0,0,1,2.145,1V3.5h2.971V17h-2.663l-.149-1.02a2.8,2.8,0,0,1-2.32,1.2,3.205,3.205,0,0,1-2.689-1.3A5.993,5.993,0,0,1,158.862,12.175Zm2.962.185q0,2.531,1.477,2.531a1.458,1.458,0,0,0,1.406-.826V10.443a1.419,1.419,0,0,0-1.389-.844q-1.371,0-1.485,2.215Zm7.163-.2a5.613,5.613,0,0,1,.554-2.536,3.96,3.96,0,0,1,1.591-1.709,4.791,4.791,0,0,1,2.435-.6,4.373,4.373,0,0,1,3.366,1.323,5.076,5.076,0,0,1,1.23,3.6v.105a4.925,4.925,0,0,1-1.235,3.529,4.384,4.384,0,0,1-3.344,1.305,4.434,4.434,0,0,1-3.261-1.217,4.761,4.761,0,0,1-1.327-3.3Zm2.962.185a3.538,3.538,0,0,0,.413,1.934,1.376,1.376,0,0,0,1.222.615q1.582,0,1.617-2.435v-.3q0-2.558-1.635-2.558-1.485,0-1.608,2.206Zm11.54,2.549a1.317,1.317,0,0,0,.967-.338,1.241,1.241,0,0,0,.334-.945h2.777a3.288,3.288,0,0,1-1.121,2.566,4.168,4.168,0,0,1-2.887,1,4.22,4.22,0,0,1-3.27-1.3,5.125,5.125,0,0,1-1.2-3.6v-.123a5.792,5.792,0,0,1,.532-2.544,3.872,3.872,0,0,1,1.534-1.7,4.573,4.573,0,0,1,2.373-.593,4.116,4.116,0,0,1,2.944,1.028,3.647,3.647,0,0,1,1.09,2.786H184.79A1.626,1.626,0,0,0,184.43,10a1.244,1.244,0,0,0-.967-.4q-1.151,0-1.345,1.468a10.357,10.357,0,0,0-.062,1.283,4.068,4.068,0,0,0,.343,1.986A1.187,1.187,0,0,0,183.489,14.891Zm4.957-2.733A5.613,5.613,0,0,1,189,9.622a3.96,3.96,0,0,1,1.591-1.709,4.791,4.791,0,0,1,2.435-.6,4.373,4.373,0,0,1,3.366,1.323,5.076,5.076,0,0,1,1.23,3.6v.105a4.925,4.925,0,0,1-1.235,3.529,4.384,4.384,0,0,1-3.344,1.305,4.434,4.434,0,0,1-3.261-1.217,4.761,4.761,0,0,1-1.327-3.3Zm2.962.185a3.538,3.538,0,0,0,.413,1.934,1.376,1.376,0,0,0,1.222.615q1.582,0,1.617-2.435v-.3q0-2.558-1.635-2.558-1.485,0-1.608,2.206ZM193.43,3.5h3.129l-2.443,2.76-2.417,0Zm5.124,8.675a5.809,5.809,0,0,1,.976-3.56,3.211,3.211,0,0,1,2.725-1.3,2.731,2.731,0,0,1,2.145,1V3.5h2.971V17h-2.663l-.149-1.02a2.8,2.8,0,0,1-2.32,1.2,3.205,3.205,0,0,1-2.689-1.3A5.993,5.993,0,0,1,198.554,12.175Zm2.962.185q0,2.531,1.477,2.531a1.458,1.458,0,0,0,1.406-.826V10.443A1.419,1.419,0,0,0,203.01,9.6q-1.371,0-1.485,2.215ZM212.177,17h-2.971V7.49h2.971ZM209.03,5.029a1.334,1.334,0,0,1,.457-1.043,1.934,1.934,0,0,1,2.373,0,1.334,1.334,0,0,1,.457,1.043,1.334,1.334,0,0,1-.457,1.043,1.934,1.934,0,0,1-2.373,0A1.334,1.334,0,0,1,209.03,5.029Zm4.623,7.146a6.421,6.421,0,0,1,.475-2.549,3.821,3.821,0,0,1,1.362-1.709,3.591,3.591,0,0,1,2.065-.6,2.855,2.855,0,0,1,2.32,1l.105-.826h2.689V16.64a4.009,4.009,0,0,1-.584,2.184,3.75,3.75,0,0,1-1.692,1.424,6.219,6.219,0,0,1-2.566.5,5.365,5.365,0,0,1-2.026-.4,3.657,3.657,0,0,1-1.5-1.028l1.239-1.74a2.716,2.716,0,0,0,2.18.976,1.764,1.764,0,0,0,1.969-2.021v-.3a2.781,2.781,0,0,1-2.153.94,3.437,3.437,0,0,1-2.812-1.332,5.517,5.517,0,0,1-1.072-3.564Zm2.971.185a3.383,3.383,0,0,0,.439,1.85,1.387,1.387,0,0,0,1.23.681,1.573,1.573,0,0,0,1.4-.642v-4a1.534,1.534,0,0,0-1.38-.65,1.4,1.4,0,0,0-1.239.708A3.858,3.858,0,0,0,216.624,12.359Zm7.356-.2a5.613,5.613,0,0,1,.554-2.536,3.96,3.96,0,0,1,1.591-1.709,4.791,4.791,0,0,1,2.435-.6,4.373,4.373,0,0,1,3.366,1.323,5.076,5.076,0,0,1,1.23,3.6v.105a4.925,4.925,0,0,1-1.235,3.529,4.384,4.384,0,0,1-3.344,1.305,4.434,4.434,0,0,1-3.261-1.217,4.761,4.761,0,0,1-1.327-3.3Zm2.962.185a3.538,3.538,0,0,0,.413,1.934,1.376,1.376,0,0,0,1.222.615q1.582,0,1.617-2.435v-.3q0-2.558-1.635-2.558-1.485,0-1.608,2.206Zm9.36,1.784a1.686,1.686,0,0,1,1.169.417,1.457,1.457,0,0,1,0,2.136,1.844,1.844,0,0,1-2.342,0,1.456,1.456,0,0,1,0-2.127A1.672,1.672,0,0,1,236.3,14.126Zm0-7.014a1.686,1.686,0,0,1,1.169.417,1.457,1.457,0,0,1,0,2.136,1.844,1.844,0,0,1-2.342,0,1.456,1.456,0,0,1,0-2.127A1.672,1.672,0,0,1,236.3,7.112ZM3.508,65H1.164V53.625H3.508ZM14.93,65H12.586L8.023,57.516V65H5.68V53.625H8.023l4.57,7.5v-7.5H14.93Zm4.539,0H17.125V53.625h2.344Zm11.1-3.789A4.025,4.025,0,0,1,29.215,64.1a4.76,4.76,0,0,1-3.223,1.055,4.28,4.28,0,0,1-3.441-1.473A6.038,6.038,0,0,1,21.3,59.641v-.7a6.819,6.819,0,0,1,.578-2.891,4.332,4.332,0,0,1,1.652-1.918,4.629,4.629,0,0,1,2.5-.668A4.637,4.637,0,0,1,29.2,54.523a4.326,4.326,0,0,1,1.391,2.961H28.242a2.376,2.376,0,0,0-.613-1.6,2.271,2.271,0,0,0-1.605-.5,1.991,1.991,0,0,0-1.754.84,4.707,4.707,0,0,0-.6,2.605V59.7a5.038,5.038,0,0,0,.559,2.7,1.954,1.954,0,0,0,1.762.852,2.314,2.314,0,0,0,1.621-.5,2.241,2.241,0,0,0,.613-1.535ZM34.6,65H32.258V53.625H34.6Zm11.516-5.43a6.867,6.867,0,0,1-.594,2.945,4.472,4.472,0,0,1-1.7,1.953,5.021,5.021,0,0,1-5.059.008,4.515,4.515,0,0,1-1.719-1.941,6.67,6.67,0,0,1-.617-2.9V59.07a6.831,6.831,0,0,1,.605-2.957,4.508,4.508,0,0,1,1.711-1.961,5.014,5.014,0,0,1,5.055,0,4.508,4.508,0,0,1,1.711,1.961,6.811,6.811,0,0,1,.605,2.949Zm-2.375-.516a4.787,4.787,0,0,0-.641-2.719,2.263,2.263,0,0,0-3.648-.012,4.732,4.732,0,0,0-.648,2.691v.555a4.847,4.847,0,0,0,.641,2.7,2.243,2.243,0,0,0,3.656.035,4.819,4.819,0,0,0,.641-2.7ZM7.859,84.07h-4.5v3.047H8.641V89H1.016V77.625H8.625v1.9H3.359v2.711h4.5Zm6.586,2.594a.727.727,0,0,0-.41-.652,4.659,4.659,0,0,0-1.316-.426Q9.7,84.953,9.7,83.023a2.323,2.323,0,0,1,.934-1.879,3.766,3.766,0,0,1,2.441-.754,4.053,4.053,0,0,1,2.574.758,2.388,2.388,0,0,1,.965,1.969H14.359a1.092,1.092,0,0,0-.312-.8A1.322,1.322,0,0,0,13.07,82a1.351,1.351,0,0,0-.883.258.814.814,0,0,0-.312.656.7.7,0,0,0,.355.605,3.657,3.657,0,0,0,1.2.4,9.8,9.8,0,0,1,1.422.379,2.336,2.336,0,0,1,1.789,2.273,2.2,2.2,0,0,1-.992,1.871,4.28,4.28,0,0,1-2.562.715,4.47,4.47,0,0,1-1.887-.379,3.166,3.166,0,0,1-1.293-1.039,2.414,2.414,0,0,1-.469-1.426h2.141a1.179,1.179,0,0,0,.445.922,1.766,1.766,0,0,0,1.109.32,1.635,1.635,0,0,0,.98-.246A.766.766,0,0,0,14.445,86.664Zm7.164.672a1.481,1.481,0,0,0,1.016-.344,1.2,1.2,0,0,0,.406-.914h2.117a2.9,2.9,0,0,1-.469,1.574,3.093,3.093,0,0,1-1.262,1.109,3.949,3.949,0,0,1-1.77.395A3.67,3.67,0,0,1,18.789,88a4.56,4.56,0,0,1-1.047-3.184v-.148a4.508,4.508,0,0,1,1.039-3.117,3.627,3.627,0,0,1,2.852-1.164,3.555,3.555,0,0,1,2.543.9,3.2,3.2,0,0,1,.973,2.4H23.031a1.551,1.551,0,0,0-.406-1.072,1.51,1.51,0,0,0-2.223.163,3.333,3.333,0,0,0-.4,1.866v.235a3.375,3.375,0,0,0,.4,1.878A1.377,1.377,0,0,0,21.609,87.336Zm9.578-4.672a6.134,6.134,0,0,0-.812-.062,1.654,1.654,0,0,0-1.68.867V89H26.438V80.547H28.57l.063,1.008a2.092,2.092,0,0,1,1.883-1.164,2.366,2.366,0,0,1,.7.1ZM34.656,89H32.391V80.547h2.266Zm-2.4-10.641a1.112,1.112,0,0,1,.34-.836,1.465,1.465,0,0,1,1.848,0,1.193,1.193,0,0,1,0,1.68,1.448,1.448,0,0,1-1.836,0A1.108,1.108,0,0,1,32.258,78.359Zm11.875,6.492a5.119,5.119,0,0,1-.867,3.168,2.872,2.872,0,0,1-2.422,1.137,2.639,2.639,0,0,1-2.2-1.055l-.1.9H36.516V77h2.258v4.3a2.571,2.571,0,0,1,2.055-.914,2.9,2.9,0,0,1,2.426,1.137,5.126,5.126,0,0,1,.879,3.2Zm-2.258-.164a3.363,3.363,0,0,0-.406-1.871,1.374,1.374,0,0,0-1.211-.59,1.489,1.489,0,0,0-1.484.883v3.336a1.509,1.509,0,0,0,1.5.891,1.394,1.394,0,0,0,1.438-1.078A5.562,5.562,0,0,0,41.875,84.688ZM50.422,89a2.507,2.507,0,0,1-.227-.758,2.732,2.732,0,0,1-2.133.914A3,3,0,0,1,46,88.438a2.312,2.312,0,0,1-.816-1.812,2.389,2.389,0,0,1,1-2.062,4.915,4.915,0,0,1,2.879-.727H50.1v-.484a1.393,1.393,0,0,0-.3-.937,1.183,1.183,0,0,0-.949-.352,1.345,1.345,0,0,0-.895.273.929.929,0,0,0-.324.75H45.375a2.268,2.268,0,0,1,.453-1.359,3,3,0,0,1,1.281-.98,4.669,4.669,0,0,1,1.859-.355,3.689,3.689,0,0,1,2.48.785,2.747,2.747,0,0,1,.918,2.207v3.664a4.041,4.041,0,0,0,.336,1.82V89Zm-1.867-1.57a1.945,1.945,0,0,0,.922-.223,1.462,1.462,0,0,0,.625-.6V85.156h-.844q-1.7,0-1.8,1.172l-.008.133a.9.9,0,0,0,.3.7A1.153,1.153,0,0,0,48.555,87.43Zm10.961-10.7,1.063.617a4.168,4.168,0,0,0-.7,2.156v1.3H58.094V79.641a3.557,3.557,0,0,1,.41-1.566A4.085,4.085,0,0,1,59.516,76.734Zm2.68,0,1.063.617a4.168,4.168,0,0,0-.7,2.156v1.3H60.773V79.641a3.557,3.557,0,0,1,.41-1.566A4.085,4.085,0,0,1,62.2,76.734ZM73.977,89H71.633L67.07,81.516V89H64.727V77.625H67.07l4.57,7.5v-7.5h2.336Zm1.547-4.3a5.013,5.013,0,0,1,.484-2.242A3.546,3.546,0,0,1,77.4,80.93a4.069,4.069,0,0,1,2.113-.539,3.849,3.849,0,0,1,2.793,1.047,4.2,4.2,0,0,1,1.207,2.844l.016.578a4.418,4.418,0,0,1-1.086,3.121,4.209,4.209,0,0,1-5.832,0,4.5,4.5,0,0,1-1.09-3.187Zm2.258.16a3.16,3.16,0,0,0,.453,1.843,1.628,1.628,0,0,0,2.578.008,3.457,3.457,0,0,0,.461-2.015,3.128,3.128,0,0,0-.461-1.831,1.5,1.5,0,0,0-1.3-.649,1.474,1.474,0,0,0-1.281.646A3.516,3.516,0,0,0,77.781,84.856Zm9.258-4.309.07.945a2.971,2.971,0,0,1,2.43-1.1,2.255,2.255,0,0,1,2.242,1.289,2.9,2.9,0,0,1,2.539-1.289,2.521,2.521,0,0,1,2.047.8,3.681,3.681,0,0,1,.672,2.41V89H94.773V83.609a1.61,1.61,0,0,0-.281-1.051,1.246,1.246,0,0,0-.992-.332,1.409,1.409,0,0,0-1.406.969L92.1,89H89.844V83.617a1.59,1.59,0,0,0-.289-1.062,1.259,1.259,0,0,0-.984-.328,1.463,1.463,0,0,0-1.391.8V89H84.922V80.547Zm19.352,4.3a5.119,5.119,0,0,1-.867,3.168,2.872,2.872,0,0,1-2.422,1.137,2.639,2.639,0,0,1-2.2-1.055l-.1.9H98.773V77h2.258v4.3a2.571,2.571,0,0,1,2.055-.914,2.9,2.9,0,0,1,2.426,1.137,5.126,5.126,0,0,1,.879,3.2Zm-2.258-.164a3.363,3.363,0,0,0-.406-1.871,1.374,1.374,0,0,0-1.211-.59,1.489,1.489,0,0,0-1.484.883v3.336a1.509,1.509,0,0,0,1.5.891,1.394,1.394,0,0,0,1.438-1.078A5.562,5.562,0,0,0,104.133,84.688Zm8.4-2.023a6.134,6.134,0,0,0-.812-.062,1.654,1.654,0,0,0-1.68.867V89h-2.258V80.547h2.133l.063,1.008a2.092,2.092,0,0,1,1.883-1.164,2.366,2.366,0,0,1,.7.1Zm4.828,6.492a4.15,4.15,0,0,1-3.027-1.141,4.054,4.054,0,0,1-1.168-3.039v-.219a5.106,5.106,0,0,1,.492-2.277,3.612,3.612,0,0,1,1.395-1.547,3.914,3.914,0,0,1,2.059-.543,3.508,3.508,0,0,1,2.73,1.094,4.444,4.444,0,0,1,1,3.1v.922h-5.383a2.1,2.1,0,0,0,.66,1.328,2,2,0,0,0,1.395.5,2.437,2.437,0,0,0,2.039-.945l1.109,1.242a3.389,3.389,0,0,1-1.375,1.121A4.511,4.511,0,0,1,117.359,89.156Zm-.258-6.945a1.411,1.411,0,0,0-1.09.455,2.357,2.357,0,0,0-.535,1.3h3.141v-.181a1.681,1.681,0,0,0-.406-1.165A1.456,1.456,0,0,0,117.1,82.211Zm5.664-1.094L121.7,80.5a4.172,4.172,0,0,0,.7-2.18V77h1.8v1.211a3.569,3.569,0,0,1-.391,1.523A4.188,4.188,0,0,1,122.766,81.117Zm2.711,0-1.062-.617a4.172,4.172,0,0,0,.7-2.18V77h1.8v1.211a3.569,3.569,0,0,1-.391,1.523A4.188,4.188,0,0,1,125.477,81.117Zm-122.117,30H8.336V113H1.016V101.625H3.359Zm10.063,2.039a4.15,4.15,0,0,1-3.027-1.141,4.054,4.054,0,0,1-1.168-3.039v-.219a5.106,5.106,0,0,1,.492-2.277,3.612,3.612,0,0,1,1.395-1.547,3.914,3.914,0,0,1,2.059-.543,3.508,3.508,0,0,1,2.73,1.094,4.444,4.444,0,0,1,1,3.1v.922H11.516a2.1,2.1,0,0,0,.66,1.328,2,2,0,0,0,1.395.5,2.437,2.437,0,0,0,2.039-.945l1.109,1.242a3.389,3.389,0,0,1-1.375,1.121A4.511,4.511,0,0,1,13.422,113.156Zm-.258-6.945a1.411,1.411,0,0,0-1.09.455,2.357,2.357,0,0,0-.535,1.3H14.68v-.181a1.681,1.681,0,0,0-.406-1.165A1.456,1.456,0,0,0,13.164,106.211ZM23.078,113a2.507,2.507,0,0,1-.227-.758,2.732,2.732,0,0,1-2.133.914,3,3,0,0,1-2.059-.719,2.312,2.312,0,0,1-.816-1.812,2.389,2.389,0,0,1,1-2.062,4.915,4.915,0,0,1,2.879-.727h1.039v-.484a1.393,1.393,0,0,0-.3-.937,1.183,1.183,0,0,0-.949-.352,1.345,1.345,0,0,0-.895.273.929.929,0,0,0-.324.75H18.031a2.268,2.268,0,0,1,.453-1.359,3,3,0,0,1,1.281-.98,4.669,4.669,0,0,1,1.859-.355,3.689,3.689,0,0,1,2.48.785,2.747,2.747,0,0,1,.918,2.207v3.664a4.041,4.041,0,0,0,.336,1.82V113Zm-1.867-1.57a1.945,1.945,0,0,0,.922-.223,1.462,1.462,0,0,0,.625-.6v-1.453h-.844q-1.7,0-1.8,1.172l-.008.133a.9.9,0,0,0,.3.7A1.153,1.153,0,0,0,21.211,111.43ZM40.141,113H37.8l-4.562-7.484V113H30.891V101.625h2.344l4.57,7.5v-7.5h2.336Zm1.547-4.3a5.013,5.013,0,0,1,.484-2.242,3.546,3.546,0,0,1,1.395-1.523,4.069,4.069,0,0,1,2.113-.539,3.849,3.849,0,0,1,2.793,1.047,4.2,4.2,0,0,1,1.207,2.844l.016.578a4.418,4.418,0,0,1-1.086,3.121,4.209,4.209,0,0,1-5.832,0,4.5,4.5,0,0,1-1.09-3.187Zm2.258.16A3.16,3.16,0,0,0,44.4,110.7a1.628,1.628,0,0,0,2.578.008,3.457,3.457,0,0,0,.461-2.015,3.128,3.128,0,0,0-.461-1.831,1.5,1.5,0,0,0-1.3-.649,1.474,1.474,0,0,0-1.281.646A3.516,3.516,0,0,0,43.945,108.856Zm9.258-4.309.07.945a2.971,2.971,0,0,1,2.43-1.1,2.255,2.255,0,0,1,2.242,1.289,2.9,2.9,0,0,1,2.539-1.289,2.521,2.521,0,0,1,2.047.8,3.681,3.681,0,0,1,.672,2.41V113H60.938v-5.391a1.61,1.61,0,0,0-.281-1.051,1.246,1.246,0,0,0-.992-.332,1.409,1.409,0,0,0-1.406.969l.008,5.8H56.008v-5.383a1.59,1.59,0,0,0-.289-1.062,1.259,1.259,0,0,0-.984-.328,1.463,1.463,0,0,0-1.391.8V113H51.086v-8.453Zm19.352,4.3a5.119,5.119,0,0,1-.867,3.168,2.872,2.872,0,0,1-2.422,1.137,2.639,2.639,0,0,1-2.2-1.055l-.1.9H64.938V101H67.2v4.3a2.571,2.571,0,0,1,2.055-.914,2.9,2.9,0,0,1,2.426,1.137,5.126,5.126,0,0,1,.879,3.2Zm-2.258-.164a3.363,3.363,0,0,0-.406-1.871,1.374,1.374,0,0,0-1.211-.59,1.489,1.489,0,0,0-1.484.883v3.336a1.509,1.509,0,0,0,1.5.891,1.394,1.394,0,0,0,1.438-1.078A5.562,5.562,0,0,0,70.3,108.688Zm8.4-2.023a6.134,6.134,0,0,0-.812-.062,1.654,1.654,0,0,0-1.68.867V113H73.945v-8.453h2.133l.063,1.008a2.092,2.092,0,0,1,1.883-1.164,2.366,2.366,0,0,1,.7.1Zm4.828,6.492a4.15,4.15,0,0,1-3.027-1.141,4.054,4.054,0,0,1-1.168-3.039v-.219a5.106,5.106,0,0,1,.492-2.277,3.612,3.612,0,0,1,1.395-1.547,3.914,3.914,0,0,1,2.059-.543A3.508,3.508,0,0,1,86,105.484a4.444,4.444,0,0,1,1,3.1v.922H81.617a2.1,2.1,0,0,0,.66,1.328,2,2,0,0,0,1.395.5,2.437,2.437,0,0,0,2.039-.945l1.109,1.242a3.389,3.389,0,0,1-1.375,1.121A4.511,4.511,0,0,1,83.523,113.156Zm-.258-6.945a1.411,1.411,0,0,0-1.09.455,2.357,2.357,0,0,0-.535,1.3h3.141v-.181a1.681,1.681,0,0,0-.406-1.165A1.456,1.456,0,0,0,83.266,106.211ZM7.859,132.07h-4.5v3.047H8.641V137H1.016V125.625H8.625v1.9H3.359v2.711h4.5Zm6.586,2.594a.727.727,0,0,0-.41-.652,4.659,4.659,0,0,0-1.316-.426Q9.7,132.953,9.7,131.023a2.323,2.323,0,0,1,.934-1.879,3.766,3.766,0,0,1,2.441-.754,4.053,4.053,0,0,1,2.574.758,2.388,2.388,0,0,1,.965,1.969H14.359a1.092,1.092,0,0,0-.312-.8A1.322,1.322,0,0,0,13.07,130a1.351,1.351,0,0,0-.883.258.814.814,0,0,0-.312.656.7.7,0,0,0,.355.605,3.657,3.657,0,0,0,1.2.4,9.8,9.8,0,0,1,1.422.379,2.336,2.336,0,0,1,1.789,2.273,2.205,2.205,0,0,1-.992,1.871,4.28,4.28,0,0,1-2.562.715,4.47,4.47,0,0,1-1.887-.379,3.166,3.166,0,0,1-1.293-1.039,2.414,2.414,0,0,1-.469-1.426h2.141a1.179,1.179,0,0,0,.445.922,1.766,1.766,0,0,0,1.109.32,1.635,1.635,0,0,0,.98-.246A.766.766,0,0,0,14.445,134.664Zm7.164.672a1.481,1.481,0,0,0,1.016-.344,1.2,1.2,0,0,0,.406-.914h2.117a2.9,2.9,0,0,1-.469,1.574,3.093,3.093,0,0,1-1.262,1.109,3.949,3.949,0,0,1-1.77.395A3.67,3.67,0,0,1,18.789,136a4.56,4.56,0,0,1-1.047-3.184v-.148a4.508,4.508,0,0,1,1.039-3.117,3.627,3.627,0,0,1,2.852-1.164,3.555,3.555,0,0,1,2.543.9,3.2,3.2,0,0,1,.973,2.4H23.031a1.551,1.551,0,0,0-.406-1.072,1.51,1.51,0,0,0-2.223.163,3.333,3.333,0,0,0-.4,1.866v.235a3.375,3.375,0,0,0,.4,1.878A1.377,1.377,0,0,0,21.609,135.336Zm9.578-4.672a6.133,6.133,0,0,0-.812-.062,1.654,1.654,0,0,0-1.68.867V137H26.438v-8.453H28.57l.063,1.008a2.092,2.092,0,0,1,1.883-1.164,2.366,2.366,0,0,1,.7.1ZM34.656,137H32.391v-8.453h2.266Zm-2.4-10.641a1.112,1.112,0,0,1,.34-.836,1.465,1.465,0,0,1,1.848,0,1.193,1.193,0,0,1,0,1.68,1.448,1.448,0,0,1-1.836,0A1.108,1.108,0,0,1,32.258,126.359Zm11.875,6.492a5.119,5.119,0,0,1-.867,3.168,2.872,2.872,0,0,1-2.422,1.137,2.639,2.639,0,0,1-2.2-1.055l-.1.9H36.516V125h2.258v4.3a2.571,2.571,0,0,1,2.055-.914,2.9,2.9,0,0,1,2.426,1.137,5.126,5.126,0,0,1,.879,3.2Zm-2.258-.164a3.363,3.363,0,0,0-.406-1.871,1.374,1.374,0,0,0-1.211-.59,1.489,1.489,0,0,0-1.484.883v3.336a1.509,1.509,0,0,0,1.5.891,1.394,1.394,0,0,0,1.438-1.078A5.562,5.562,0,0,0,41.875,132.688ZM50.422,137a2.507,2.507,0,0,1-.227-.758,2.732,2.732,0,0,1-2.133.914A3,3,0,0,1,46,136.438a2.312,2.312,0,0,1-.816-1.812,2.389,2.389,0,0,1,1-2.062,4.915,4.915,0,0,1,2.879-.727H50.1v-.484a1.393,1.393,0,0,0-.3-.937,1.183,1.183,0,0,0-.949-.352,1.345,1.345,0,0,0-.895.273.929.929,0,0,0-.324.75H45.375a2.268,2.268,0,0,1,.453-1.359,3,3,0,0,1,1.281-.98,4.669,4.669,0,0,1,1.859-.355,3.689,3.689,0,0,1,2.48.785,2.747,2.747,0,0,1,.918,2.207v3.664a4.041,4.041,0,0,0,.336,1.82V137Zm-1.867-1.57a1.945,1.945,0,0,0,.922-.223,1.462,1.462,0,0,0,.625-.6v-1.453h-.844q-1.7,0-1.8,1.172l-.008.133a.9.9,0,0,0,.3.7A1.153,1.153,0,0,0,48.555,135.43ZM67.484,137H65.141l-4.562-7.484V137H58.234V125.625h2.344l4.57,7.5v-7.5h2.336Zm1.547-4.3a5.013,5.013,0,0,1,.484-2.242,3.546,3.546,0,0,1,1.395-1.523,4.069,4.069,0,0,1,2.113-.539,3.849,3.849,0,0,1,2.793,1.047,4.2,4.2,0,0,1,1.207,2.844l.016.578a4.418,4.418,0,0,1-1.086,3.121,4.209,4.209,0,0,1-5.832,0,4.5,4.5,0,0,1-1.09-3.187Zm2.258.16a3.16,3.16,0,0,0,.453,1.843,1.628,1.628,0,0,0,2.578.008,3.457,3.457,0,0,0,.461-2.015,3.128,3.128,0,0,0-.461-1.831,1.5,1.5,0,0,0-1.3-.649,1.474,1.474,0,0,0-1.281.646A3.516,3.516,0,0,0,71.289,132.856Zm9.258-4.309.07.945a2.971,2.971,0,0,1,2.43-1.1,2.255,2.255,0,0,1,2.242,1.289,2.9,2.9,0,0,1,2.539-1.289,2.521,2.521,0,0,1,2.047.8,3.681,3.681,0,0,1,.672,2.41V137H88.281v-5.391A1.61,1.61,0,0,0,88,130.559a1.246,1.246,0,0,0-.992-.332,1.409,1.409,0,0,0-1.406.969l.008,5.8H83.352v-5.383a1.59,1.59,0,0,0-.289-1.062,1.259,1.259,0,0,0-.984-.328,1.463,1.463,0,0,0-1.391.8V137H78.43v-8.453Zm19.352,4.3a5.119,5.119,0,0,1-.867,3.168,2.872,2.872,0,0,1-2.422,1.137,2.639,2.639,0,0,1-2.2-1.055l-.1.9H92.281V125h2.258v4.3a2.571,2.571,0,0,1,2.055-.914,2.9,2.9,0,0,1,2.426,1.137,5.126,5.126,0,0,1,.879,3.2Zm-2.258-.164a3.363,3.363,0,0,0-.406-1.871,1.374,1.374,0,0,0-1.211-.59,1.489,1.489,0,0,0-1.484.883v3.336a1.509,1.509,0,0,0,1.5.891,1.394,1.394,0,0,0,1.438-1.078A5.562,5.562,0,0,0,97.641,132.688Zm8.4-2.023a6.133,6.133,0,0,0-.812-.062,1.654,1.654,0,0,0-1.68.867V137h-2.258v-8.453h2.133l.063,1.008a2.092,2.092,0,0,1,1.883-1.164,2.366,2.366,0,0,1,.7.1Zm4.828,6.492a4.15,4.15,0,0,1-3.027-1.141,4.054,4.054,0,0,1-1.168-3.039v-.219a5.106,5.106,0,0,1,.492-2.277,3.612,3.612,0,0,1,1.395-1.547,3.914,3.914,0,0,1,2.059-.543,3.508,3.508,0,0,1,2.73,1.094,4.444,4.444,0,0,1,1,3.1v.922h-5.383a2.1,2.1,0,0,0,.66,1.328,2,2,0,0,0,1.395.5,2.437,2.437,0,0,0,2.039-.945l1.109,1.242a3.389,3.389,0,0,1-1.375,1.121A4.511,4.511,0,0,1,110.867,137.156Zm-.258-6.945a1.411,1.411,0,0,0-1.09.455,2.357,2.357,0,0,0-.535,1.3h3.141v-.181a1.681,1.681,0,0,0-.406-1.165A1.456,1.456,0,0,0,110.609,130.211ZM7.859,156.352h-4.5V161H1.016V149.625H8.422v1.9H3.359v2.938h4.5ZM12.273,161H9.93V149.625h2.344ZM23.7,161H21.352l-4.562-7.484V161H14.445V149.625h2.344l4.57,7.5v-7.5H23.7Z" transform="translate(960 5452.701)" fill="#12263f"/>
    <path id="Trazado_191305" data-name="Trazado 191305" d="M10,0H122.936a10,10,0,0,1,10,10V122.936a10,10,0,0,1-10,10H10a10,10,0,0,1-10-10V10A10,10,0,0,1,10,0Z" transform="translate(1207 5534.701) rotate(-45)" fill="#b9ddfc"/>
    <path id="Trazado_190448" data-name="Trazado 190448" d="M1384.884,1330.263c2.765,2.046,1.695,3.411-.075,4.878a39.253,39.253,0,0,0-3.755,3.732c-1.453,1.587-2.81,3.345-4.962.118.876,3.822-1.358,3.5-3.5,3.418-1.847-.074-3.7-.045-5.548-.006-2,.042-4.269.448-2.936-3.443-2.569,3.481-3.917,1.2-5.418-.342-1.231-1.265-2.494-2.5-3.742-3.749-2.041-2.043-2.041-2.043-.081-4.178-.1-.126-.213-.367-.289-.355-2.271.364-3.041-.551-2.8-2.831a57.542,57.542,0,0,0,.044-6.05c0-3.166,0-3.166,3.3-3.51-2.954-1.871-1.543-3.254.161-4.735a34.686,34.686,0,0,0,3.917-3.926c1.465-1.757,2.8-2.567,4.752.64-.508-3.357.608-4.349,3.1-3.885,1.066.2.922-.675.922-1.327,0-4.625-.036-9.249.032-13.873a2.017,2.017,0,0,0-1.2-1.924,5.681,5.681,0,0,1-2.73-6.272,5.755,5.755,0,0,1,4.711-4.7,5.588,5.588,0,0,1,6.252,2.746,2.123,2.123,0,0,0,2.2,1.177,31.96,31.96,0,0,1,5.292.018,5.189,5.189,0,0,0,5.607-2.634,3.086,3.086,0,0,0,.488-3.1c-1.563-4.684,1.458-10.016,6.354-10.272,7.2-.377,14.463-.733,21.647.244a20.987,20.987,0,0,1,13.944,8.265,4.348,4.348,0,0,0,2.866,1.734,12.615,12.615,0,0,1,7.684,4.449,3.27,3.27,0,0,0,3.02,1.293c1.676-.1,3.365-.078,5.043-.01,2.182.088,3.929-.055,5.515-2.2,2.067-2.795,6.3-2.417,8.635.226a5.71,5.71,0,0,1-.865,8.634,3.513,3.513,0,0,0-1.66,3.475c.067,3.868.177,7.745-.037,11.6-.125,2.218.638,2.641,2.646,2.519,2.932-.178,5.883-.068,8.826-.039,3.26.032,4.722,1.507,4.727,4.822q.028,17.406,0,34.812c-.006,3.276-1.5,4.752-4.788,4.761-7.817.023-15.636.007-23.486.007-.147,1.054.7,1.529,1.137,2.161a38,38,0,0,1,6.948,21.978,16.077,16.077,0,0,1-16.137,16.212c-16.984.057-33.969.018-50.955.016-11.742,0-18.885-8.048-17.538-19.749,1.961-17.052,13.276-29.884,29.911-33.94,1.192-.29,2.476-.363,2.971-1.916.529-1.658.646-2.714-1.3-3.76a20.913,20.913,0,0,1-11.083-15.36c-.264-1.472-.733-2.056-2.362-2.033a5.918,5.918,0,0,1-5.971-4.474,5.659,5.659,0,0,1,2.839-6.646c1.589-.835,1.224-1.5.5-2.568-2.927-4.352-4.364-9.044-3.027-14.509-2.718,0-5.317.073-7.908-.032-1.16-.047-1.179,1.054-1.8,1.4-3.7,2.052-2.885,5.524-2.9,8.744-.012,2.859.023,5.719-.015,8.577-.014.954.059,1.5,1.3,1.534,2.638.08,2.635.177,3.008,3.238,1.884-3.035,3.256-1.439,4.721.205,1.173,1.316,2.466,2.528,3.735,3.755,1.464,1.414,3.587,2.739-.19,4.743,4.08-.755,3.716,1.543,3.606,3.763a46.36,46.36,0,0,0,.008,5.547C1388.337,1329.51,1388.2,1331.181,1384.884,1330.263Zm29.254,48.455c6.889,0,13.779-.039,20.667.031,1.411.015,1.838-.363,1.821-1.8q-.113-9.7-.01-19.407c.02-2.106-.737-3.068-2.938-3.06q-19.28.07-38.562,0c-2.194-.007-2.966.94-2.946,3.053.065,6.384.082,12.771-.016,19.155-.026,1.65.427,2.093,2.073,2.069C1400.863,1378.661,1407.5,1378.718,1414.138,1378.718Zm22.461-80.655c3.576-3.705,5.055-7.442,3.325-11.885a9.322,9.322,0,0,0-8.405-6.256,4.113,4.113,0,0,1-3.4-2.044,17.316,17.316,0,0,0-12.164-7.764c-6.762-.886-13.584-.374-20.374-.255-2.032.036-3.232,1.679-3.36,3.788a3.944,3.944,0,0,0,3.376,4.079,12.745,12.745,0,0,0,3.016.055c1.372-.123,1.614.484,1.71,1.737.146,1.9-.47,2.562-2.372,2.357-1.491-.161-3.083.179-4.446-.583-1.34-.75-1.979-.031-2.7.886-3.9,4.976-3.474,11.484,1.308,17.213-.122-3.891,2.1-5.819,5.2-7.276,5.01-2.355,9.919-4.927,14.885-7.38a14.068,14.068,0,0,1,4.222-1.8c0,1.735.064,3.33-.019,4.918-.069,1.318.373,1.8,1.728,1.636,3.333-.392,6.674-.711,10.017-1.015,6.041-.55,8.4,1.582,8.455,7.595C1436.6,1296.56,1436.6,1297.046,1436.6,1298.063Zm36.307,34.068c0-4.029-.046-8.06.026-12.088.024-1.306-.154-1.907-1.712-1.891q-12.463.123-24.929,0c-1.4-.012-1.633.48-1.625,1.72.046,8.311.06,16.622-.01,24.931-.012,1.4.48,1.631,1.72,1.625,8.31-.047,16.621-.06,24.931.01,1.4.011,1.645-.479,1.625-1.72C1472.866,1340.526,1472.906,1336.328,1472.906,1332.13Zm-70.684,18.333c-.39-2.48-.745-4.715-1.089-6.951-.19-1.236-.445-1.878-2.079-1.35-13.488,4.365-23.712,19.016-22.992,33.141a12.335,12.335,0,0,0,10.345,11.393c1.331.194,1.979.072,1.811-1.6a38.809,38.809,0,0,1-.032-6.3,3.321,3.321,0,0,0-2.579-3.793c-2.481-.652-1.617-2.6-1.327-3.8.294-1.214,1.657-.209,2.549-.086.4.056.784.186,1.328.318,0-4.916-.032-9.7.01-14.489.034-3.987,2.474-6.424,6.441-6.486C1397.114,1350.432,1399.623,1350.464,1402.222,1350.464Zm38.411,21a5.153,5.153,0,0,1,.975-.234c1.014.016,2.411-1.472,2.936.131.454,1.385.729,3.241-1.719,3.829-1.584.382-2.316,1.729-2.219,3.508a38.144,38.144,0,0,1-.034,6.3c-.205,1.829.552,1.911,1.95,1.678a12.287,12.287,0,0,0,10.216-12.019c.2-13.467-8.34-26.338-21.043-31.71-3.6-1.524-3.6-1.524-4.283,2.467a32.484,32.484,0,0,1-.621,3.468c-.349,1.222-.071,1.661,1.235,1.606,1.931-.08,3.867-.033,5.8-.017,4.437.036,6.785,2.407,6.8,6.9C1440.647,1361.984,1440.633,1366.6,1440.633,1371.461Zm-8.937-54.58c-4.93,2.136-9.233,1.714-12.668-2.111-3.45-3.843-3.353-8.175-.805-12.6h-7.7c2.518,4.258,2.659,8.376-.361,12.123-3.435,4.263-7.93,4.8-12.915,2.681,1.1,6.936,8.576,12.96,16.208,13.285C1421.931,1330.62,1429.76,1325.036,1431.7,1316.881Zm12.421-31c1.819,6.555-1.077,11.428-5.212,15.921,1.454.559,3.115.686,3.7,1.884,1.393,2.83,3.789,2.413,6.161,2.379a47.318,47.318,0,0,1,5.786.04c2.018.221,2.362-.6,2.256-2.376-.149-2.51-.012-5.034-.044-7.551-.043-3.279.893-6.859-2.92-8.974-.615-.342-.681-1.4-1.818-1.355C1449.446,1285.952,1446.855,1285.879,1444.118,1285.879Zm-3.713,57.27a4.826,4.826,0,0,0,.214-.807c.008-8.723.031-17.446-.029-26.167-.006-.7.763-2.147-.693-2.068-1.351.073-3.324-.916-3.759,1.87-1.089,6.976-5.038,12.069-11.077,15.631-.735.433-2.148.358-1.694,1.956.407,1.436.436,2.964,2.421,3.358A39.343,39.343,0,0,1,1440.405,1343.149ZM1381.136,1316c-.067-1.348-2.353-3.009-3.615-2.622a3.981,3.981,0,0,1-4.985-1.785c-1.356-2.1-3.757-2.118-5.08-.017a4.006,4.006,0,0,1-4.743,1.9c-2.265-.546-3.952,1.232-3.445,3.581a4.012,4.012,0,0,1-2.028,4.692,2.826,2.826,0,0,0-.012,4.959,4.006,4.006,0,0,1,2.041,4.686c-.536,2.489,1.077,4.027,3.668,3.521a4.014,4.014,0,0,1,4.515,1.954,2.823,2.823,0,0,0,5.072.011,4.005,4.005,0,0,1,4.745-1.892c2.263.547,3.96-1.233,3.438-3.58a4.023,4.023,0,0,1,1.807-4.578c2.27-1.511,2.278-3.688.015-5.185a4.014,4.014,0,0,1-1.822-4.571A6.568,6.568,0,0,1,1381.136,1316Zm31.132-26.788c-5.046,2.519-9.819,4.9-14.591,7.284a2.376,2.376,0,0,0-1.264,3.222c5.864-3.078,12.105-1.592,18.122-1.62,5.985-.028,12.158-1.378,18.026,1.655,0-1.589.015-2.929,0-4.268-.035-2.758-.512-3.246-3.323-3.008-4.007.339-8.014.727-12.007,1.2C1412.535,1294.236,1412.54,1294.287,1412.268,1289.208Zm2.147,93.6c-6.714,0-13.428-.018-20.142.021-.833,0-2.141-.609-2.058,1.223.065,1.428.431,2.484,2.017,2.674a12.751,12.751,0,0,0,1.509.024q18.632,0,37.264,0a9.53,9.53,0,0,0,1.758-.053c1.587-.3,1.811-1.479,1.8-2.854-.017-1.691-1.281-1-2-1C1427.844,1382.783,1421.13,1382.8,1414.415,1382.8Zm44.562-68.718c4.105,0,8.213-.086,12.314.042,1.718.052,1.618-.848,1.608-2-.011-1.128.153-2.042-1.587-2.022q-12.44.135-24.88,0c-1.514-.014-1.834.521-1.744,1.875.081,1.192-.184,2.23,1.725,2.156C1450.594,1313.975,1454.787,1314.087,1458.976,1314.087Zm-50.677-6.014a6.015,6.015,0,1,0-6.139,6.021A6.1,6.1,0,0,0,1408.3,1308.073Zm18.25,6.021a6.017,6.017,0,1,0-6.06-6.1A6.1,6.1,0,0,0,1426.549,1314.094Zm-16.02,19.867c-.237.041-.941-.4-1.14.507-.14.637-.442,1.315.267,1.842q2.122,1.58,4.235,3.172a.836.836,0,0,0,1.128-.078c1.339-1.016,2.668-2.043,4.03-3.024.837-.6.533-1.368.3-2.044-.274-.789-.98-.424-1.515-.322A20.037,20.037,0,0,1,1410.53,1333.962Zm-4.476,12.981c.7-.387,1.363-.727,2-1.108,4.613-2.748,4.61-2.836-.023-5.628a3.685,3.685,0,0,0-.407-.289c-1.156-.493-2.923.628-2.682,1.832C1405.282,1343.445,1405.212,1345.242,1406.053,1346.942Zm16.682,0c.845-1.7.776-3.5,1.113-5.193a1.945,1.945,0,0,0-2.66-1.8c-1.472.932-3.424,1.865-3.958,3.261-.363.951,2.131,1.623,3.309,2.469A24.161,24.161,0,0,0,1422.736,1346.942Zm15.071-40.879c-1.9-.317-1.1,1.248-1.19,2.145-.089.945-.35,2.051,1.358,1.923,1.426-.107,2.594-.466,2.595-2.053S1439.407,1306,1437.807,1306.063ZM1392.2,1308c-.161-.745.571-2.146-1.415-1.976-1.432.122-2.587.5-2.563,2.084s1.21,1.923,2.629,2.019C1392.593,1310.25,1392.149,1309.094,1392.2,1308ZM1372,1283.793c-.2-1.136-.811-1.9-1.968-1.9a1.841,1.841,0,0,0-2.006,2.045,1.815,1.815,0,0,0,1.919,1.885C1371.231,1285.837,1371.868,1285.023,1372,1283.793Zm88.825.028A2,2,0,0,0,1459,1281.9a1.968,1.968,0,1,0-.165,3.925C1459.994,1285.823,1460.609,1285.059,1460.826,1283.821Zm-51.784,66.188c1.265-.018,3.8,1.585,3.092-1.888Zm10.611.188c-1.047-.627-1.738-1.917-3.117-1.583a1.472,1.472,0,0,0-.073,1.154C1417.279,1351.141,1418.548,1350.2,1419.652,1350.2Z" transform="translate(-113.379 4206.211)" fill="#030303" fill-rule="evenodd"/>
    <path id="Trazado_190449" data-name="Trazado 190449" d="M1423.873,1400.151c-6.637,0-13.276-.056-19.911.039-1.646.024-2.1-.42-2.073-2.069.1-6.384.081-12.77.016-19.154-.02-2.113.752-3.06,2.946-3.053q19.281.069,38.562,0c2.2-.008,2.958.954,2.938,3.06q-.1,9.7.01,19.407c.017,1.438-.409,1.817-1.821,1.8C1437.652,1400.113,1430.762,1400.151,1423.873,1400.151Zm.282-17.775c0-2.471-.031-2.515-1.326-2.283a6.192,6.192,0,0,0-4.747,6.278,6.06,6.06,0,0,0,11.965.965c.08-.447.336-1.268-.3-1.216-1.343.113-2.951-1.007-4.011.887a1.886,1.886,0,1,1-2.6-2.578A1.83,1.83,0,0,0,1424.155,1382.377Z" transform="translate(-123.113 4184.777)" fill="#eaf6ff" fill-rule="evenodd"/>
    <path id="Trazado_190450" data-name="Trazado 190450" d="M1445.374,1299.053c0-1.017,0-1.5,0-1.989-.055-6.013-2.415-8.145-8.455-7.595-3.343.3-6.684.622-10.017,1.015-1.355.161-1.8-.318-1.728-1.636.082-1.588.018-3.183.018-4.918a14.068,14.068,0,0,0-4.222,1.8c-4.966,2.452-9.875,5.025-14.885,7.38-3.1,1.456-5.318,3.385-5.2,7.276-4.782-5.729-5.207-12.238-1.308-17.214.717-.917,1.355-1.637,2.7-.886,1.363.762,2.955.422,4.446.583,1.9.2,2.518-.457,2.372-2.357-.1-1.253-.339-1.861-1.71-1.737a12.744,12.744,0,0,1-3.016-.055,3.944,3.944,0,0,1-3.376-4.079c.128-2.109,1.327-3.752,3.36-3.789,6.79-.118,13.612-.63,20.374.255a17.316,17.316,0,0,1,12.164,7.764,4.113,4.113,0,0,0,3.4,2.044,9.323,9.323,0,0,1,8.406,6.256C1450.429,1291.612,1448.95,1295.348,1445.374,1299.053Z" transform="translate(-122.154 4205.221)" fill="#af7745" fill-rule="evenodd"/>
    <path id="Trazado_190451" data-name="Trazado 190451" d="M1495.286,1344.814c0,4.2-.04,8.4.024,12.591.02,1.24-.225,1.731-1.625,1.72-8.31-.07-16.621-.057-24.93-.01-1.24.006-1.732-.225-1.72-1.625.07-8.309.056-16.62.01-24.931-.007-1.24.226-1.732,1.625-1.72q12.463.105,24.929,0c1.558-.016,1.736.584,1.712,1.891C1495.24,1336.754,1495.286,1340.785,1495.286,1344.814ZM1481,1355.094c3.019,0,6.04-.058,9.057.022,1.826.048,1.185-1.24,1.2-2.071s.585-2.073-1.222-2.052c-5.87.068-11.742.081-17.611-.006-1.983-.03-1.268,1.293-1.339,2.208-.075.955-.343,2.012,1.365,1.934C1475.294,1355,1478.15,1355.1,1481,1355.094Zm-2.063-8.072c2.178,0,4.369-.135,6.533.042,1.762.143,1.86-.7,1.809-2.049-.045-1.23.13-2.2-1.742-2.122-4.184.163-8.381.124-12.57.011-1.535-.04-2.073.334-1.946,1.923.1,1.311-.131,2.453,1.884,2.24A57.4,57.4,0,0,1,1478.938,1347.022Zm6.52-12.151c-1.592,0-3.2.125-4.769-.033-1.793-.18-1.606.92-1.546,2.016.053.979-.484,2.216,1.434,2.131,3.093-.137,6.2-.075,9.293-.015,1.052.02,1.385-.246,1.47-1.373.151-2.035-.227-3.184-2.622-2.757A18.859,18.859,0,0,1,1485.458,1334.87Zm-14.307,2.182c-.667,1.742.331,1.942,1.891,1.94,1.464,0,2.215-.14,2.175-1.959-.037-1.7-.367-2.277-2.178-2.231C1471.392,1334.843,1470.715,1335.253,1471.151,1337.052Z" transform="translate(-135.758 4193.527)" fill="#eaf6ff" fill-rule="evenodd"/>
    <path id="Trazado_190452" data-name="Trazado 190452" d="M1408.073,1368.886c-2.6,0-5.109-.031-7.616.008-3.967.061-6.407,2.5-6.441,6.486-.042,4.786-.01,9.573-.01,14.489-.544-.132-.932-.263-1.328-.318-.892-.124-2.255-1.128-2.549.086-.29,1.2-1.154,3.145,1.327,3.8a3.321,3.321,0,0,1,2.579,3.793,38.783,38.783,0,0,0,.032,6.3c.168,1.668-.481,1.791-1.811,1.6a12.336,12.336,0,0,1-10.345-11.393c-.72-14.125,9.5-28.776,22.992-33.141,1.634-.528,1.889.114,2.079,1.35C1407.327,1364.171,1407.682,1366.406,1408.073,1368.886Z" transform="translate(-119.229 4187.789)" fill="#0ddcf1" fill-rule="evenodd"/>
    <path id="Trazado_190453" data-name="Trazado 190453" d="M1458.677,1389.889c0-4.857.014-9.477,0-14.1-.018-4.49-2.365-6.861-6.8-6.9-1.933-.016-3.87-.063-5.8.017-1.306.055-1.583-.383-1.235-1.606a32.518,32.518,0,0,0,.621-3.468c.679-3.991.679-3.991,4.283-2.467,12.7,5.371,21.244,18.242,21.043,31.71a12.287,12.287,0,0,1-10.216,12.018c-1.4.234-2.156.151-1.95-1.678a38.144,38.144,0,0,0,.034-6.3c-.1-1.779.635-3.126,2.219-3.508,2.448-.588,2.173-2.444,1.719-3.829-.525-1.6-1.922-.116-2.936-.131A5.141,5.141,0,0,0,1458.677,1389.889Z" transform="translate(-131.423 4187.783)" fill="#0ddcf1" fill-rule="evenodd"/>
    <path id="Trazado_190454" data-name="Trazado 190454" d="M1442.657,1325.715c-1.937,8.155-9.765,13.739-18.246,13.376-7.632-.326-15.111-6.349-16.208-13.285,4.985,2.121,9.48,1.582,12.915-2.681,3.021-3.747,2.88-7.865.361-12.123h7.7c-2.548,4.427-2.645,8.759.8,12.6C1433.424,1327.429,1437.727,1327.852,1442.657,1325.715Zm-17.32,9.375a8.119,8.119,0,0,0,6.379-2.932c.548-.667,2.156-1.531.666-2.559-1.006-.694-2.177-2.129-3.738-.13a4.019,4.019,0,0,1-6.531.048c-1.647-2.1-2.978-.581-3.927.189-1.223.992.327,1.89.934,2.6A8.133,8.133,0,0,0,1425.337,1335.09Z" transform="translate(-124.34 4197.377)" fill="#eacbb0" fill-rule="evenodd"/>
    <path id="Trazado_190455" data-name="Trazado 190455" d="M1382.106,1326.717a6.6,6.6,0,0,0-.429,1.072,4.014,4.014,0,0,0,1.822,4.571c2.264,1.5,2.256,3.674-.015,5.185a4.024,4.024,0,0,0-1.808,4.578c.522,2.347-1.175,4.127-3.438,3.58a4,4,0,0,0-4.745,1.892,2.823,2.823,0,0,1-5.072-.011,4.014,4.014,0,0,0-4.515-1.954c-2.592.506-4.2-1.031-3.668-3.521a4.006,4.006,0,0,0-2.041-4.686,2.826,2.826,0,0,1,.012-4.959,4.011,4.011,0,0,0,2.028-4.692c-.508-2.348,1.18-4.126,3.444-3.581a4.006,4.006,0,0,0,4.743-1.9c1.323-2.1,3.724-2.083,5.08.017a3.981,3.981,0,0,0,4.985,1.785C1379.753,1323.708,1382.039,1325.369,1382.106,1326.717Zm-11.218-1.874a10.1,10.1,0,1,0,10.174,10.029A10.121,10.121,0,0,0,1370.888,1324.843Z" transform="translate(-114.35 4195.49)" fill="#eaf6ff" fill-rule="evenodd"/>
    <path id="Trazado_190456" data-name="Trazado 190456" d="M1422.981,1294.92c.272,5.08.267,5.028,4.959,4.469,3.993-.476,8-.863,12.007-1.2,2.81-.239,3.288.25,3.323,3.008.018,1.339,0,2.679,0,4.268-5.868-3.033-12.041-1.684-18.026-1.655-6.017.028-12.259-1.459-18.122,1.62a2.376,2.376,0,0,1,1.264-3.222C1413.162,1299.817,1417.935,1297.438,1422.981,1294.92Z" transform="translate(-124.092 4200.499)" fill="#eacbb0" fill-rule="evenodd"/>
    <path id="Trazado_190457" data-name="Trazado 190457" d="M1424.163,1411.035c6.715,0,13.429-.022,20.144.03.72.006,1.984-.687,2,1,.014,1.375-.21,2.552-1.8,2.854a9.542,9.542,0,0,1-1.758.053q-18.632,0-37.264,0a12.726,12.726,0,0,1-1.509-.024c-1.586-.19-1.952-1.246-2.017-2.674-.083-1.833,1.225-1.218,2.058-1.223C1410.735,1411.017,1417.449,1411.035,1424.163,1411.035Z" transform="translate(-123.127 4177.981)" fill="#eaf6ff" fill-rule="evenodd"/>
    <path id="Trazado_190458" data-name="Trazado 190458" d="M1481.36,1324.832c-4.189,0-8.382-.112-12.564.05-1.909.074-1.645-.964-1.725-2.156-.09-1.353.23-1.888,1.744-1.874q12.439.114,24.88,0c1.74-.02,1.576.894,1.587,2.022.01,1.156.11,2.057-1.608,2C1489.573,1324.746,1485.465,1324.832,1481.36,1324.832Z" transform="translate(-135.763 4195.466)" fill="#f9b300" fill-rule="evenodd"/>
    <path id="Trazado_190459" data-name="Trazado 190459" d="M1419.024,1316.881a6.015,6.015,0,1,1-5.894-6.013A6.1,6.1,0,0,1,1419.024,1316.881Zm-5.912,2.056a2,2,0,0,0,1.9-2.207,2.007,2.007,0,0,0-4.008.186C1411.021,1318.2,1411.85,1318.828,1413.112,1318.937Z" transform="translate(-124.104 4197.403)" fill="#cbd0d8" fill-rule="evenodd"/>
    <path id="Trazado_190460" data-name="Trazado 190460" d="M1443.108,1322.9a6.017,6.017,0,1,1,5.97-5.938A6.092,6.092,0,0,1,1443.108,1322.9Zm2.005-6.121a1.992,1.992,0,0,0-2.2-1.9,2.007,2.007,0,0,0,.185,4.007C1444.374,1318.875,1445.006,1318.046,1445.113,1316.782Z" transform="translate(-129.938 4197.403)" fill="#cbd0d8" fill-rule="evenodd"/>
    <path id="Trazado_190461" data-name="Trazado 190461" d="M1424.371,1350.424a20.038,20.038,0,0,0,7.3.053c.535-.1,1.241-.467,1.515.322.234.676.539,1.442-.3,2.044-1.363.981-2.692,2.008-4.03,3.024a.836.836,0,0,1-1.128.078q-2.112-1.595-4.235-3.172c-.708-.527-.407-1.2-.267-1.842C1423.43,1350.022,1424.134,1350.465,1424.371,1350.424Z" transform="translate(-127.221 4189.749)" fill="#eacbb0" fill-rule="evenodd"/>
    <path id="Trazado_190462" data-name="Trazado 190462" d="M1418.863,1364.839c-.841-1.7-.772-3.5-1.111-5.193-.241-1.2,1.526-2.325,2.682-1.832a3.668,3.668,0,0,1,.407.289c4.634,2.792,4.636,2.88.023,5.628C1420.226,1364.112,1419.564,1364.452,1418.863,1364.839Z" transform="translate(-126.188 4188.314)" fill="#0ddcf1" fill-rule="evenodd"/>
    <path id="Trazado_190463" data-name="Trazado 190463" d="M1438.5,1364.831a24.188,24.188,0,0,1-2.2-1.265c-1.178-.846-3.672-1.518-3.309-2.469.533-1.4,2.485-2.329,3.958-3.262a1.945,1.945,0,0,1,2.659,1.8C1439.278,1361.332,1439.346,1363.127,1438.5,1364.831Z" transform="translate(-129.145 4188.322)" fill="#0ddcf1" fill-rule="evenodd"/>
    <path id="Trazado_190464" data-name="Trazado 190464" d="M1458.228,1315.825c1.6-.059,2.763.425,2.763,2.015s-1.169,1.946-2.595,2.053c-1.708.128-1.447-.978-1.358-1.923C1457.123,1317.072,1456.33,1315.507,1458.228,1315.825Z" transform="translate(-133.8 4196.449)" fill="#eacbb0" fill-rule="evenodd"/>
    <path id="Trazado_190465" data-name="Trazado 190465" d="M1400.982,1317.762c-.046,1.092.4,2.248-1.349,2.128-1.418-.1-2.6-.43-2.629-2.02s1.131-1.962,2.563-2.084C1401.553,1315.616,1400.821,1317.017,1400.982,1317.762Z" transform="translate(-122.166 4196.452)" fill="#eacbb0" fill-rule="evenodd"/>
    <path id="Trazado_190466" data-name="Trazado 190466" d="M1375.924,1287.743c-.133,1.231-.77,2.045-2.055,2.03a1.815,1.815,0,0,1-1.919-1.885,1.841,1.841,0,0,1,2.006-2.044C1375.113,1285.846,1375.729,1286.607,1375.924,1287.743Z" transform="translate(-117.303 4202.261)" fill="#f9b300" fill-rule="evenodd"/>
    <path id="Trazado_190467" data-name="Trazado 190467" d="M1486.139,1287.77c-.217,1.238-.832,2-1.988,2a1.968,1.968,0,1,1,.165-3.925A2,2,0,0,1,1486.139,1287.77Z" transform="translate(-138.691 4202.262)" fill="#f9b300" fill-rule="evenodd"/>
    <path id="Trazado_190468" data-name="Trazado 190468" d="M1422.844,1369.911l3.092-1.888C1426.645,1371.5,1424.108,1369.893,1422.844,1369.911Z" transform="translate(-127.182 4186.31)" fill="#0ddcf1" fill-rule="evenodd"/>
    <path id="Trazado_190469" data-name="Trazado 190469" d="M1435.221,1370.2c-1.1.005-2.374.944-3.19-.43a1.47,1.47,0,0,1,.073-1.154C1433.484,1368.286,1434.175,1369.576,1435.221,1370.2Z" transform="translate(-128.948 4186.204)" fill="#0ddcf1" fill-rule="evenodd"/>
    <path id="Trazado_190470" data-name="Trazado 190470" d="M1428.053,1383.361a1.83,1.83,0,0,1-1.011,2.053,1.885,1.885,0,1,0,2.6,2.578c1.06-1.894,2.668-.774,4.011-.887.632-.052.375.769.3,1.216a6.061,6.061,0,1,1-7.218-7.243C1428.022,1380.847,1428.048,1380.89,1428.053,1383.361Z" transform="translate(-127.012 4183.793)" fill="#030303" fill-rule="evenodd"/>
    <path id="Trazado_190471" data-name="Trazado 190471" d="M1481.96,1359.947c-2.851,0-5.708-.093-8.552.035-1.708.077-1.439-.979-1.365-1.934.072-.915-.643-2.238,1.339-2.208,5.869.086,11.74.074,17.61.006,1.807-.021,1.233,1.206,1.222,2.052s.628,2.12-1.2,2.071C1488,1359.889,1484.979,1359.947,1481.96,1359.947Z" transform="translate(-136.718 4188.674)" fill="#030303" fill-rule="evenodd"/>
    <path id="Trazado_190472" data-name="Trazado 190472" d="M1479.894,1349.925a57.4,57.4,0,0,0-6.031.046c-2.015.213-1.779-.929-1.884-2.24-.127-1.589.411-1.963,1.946-1.923,4.188.113,8.385.152,12.57-.011,1.871-.073,1.7.892,1.742,2.122.051,1.352-.047,2.192-1.809,2.049C1484.263,1349.789,1482.073,1349.925,1479.894,1349.925Z" transform="translate(-136.715 4190.625)" fill="#030303" fill-rule="evenodd"/>
    <path id="Trazado_190473" data-name="Trazado 190473" d="M1488.365,1335.813a18.871,18.871,0,0,0,3.26-.031c2.394-.427,2.772.722,2.622,2.757-.085,1.127-.417,1.393-1.47,1.373-3.1-.06-6.2-.122-9.293.016-1.917.085-1.381-1.152-1.434-2.131-.06-1.1-.247-2.2,1.546-2.016C1485.17,1335.938,1486.774,1335.813,1488.365,1335.813Z" transform="translate(-138.666 4192.584)" fill="#030303" fill-rule="evenodd"/>
    <path id="Trazado_190474" data-name="Trazado 190474" d="M1472.091,1338.006c-.435-1.8.241-2.209,1.888-2.251,1.811-.046,2.141.536,2.178,2.232.04,1.819-.712,1.956-2.175,1.959C1472.422,1339.948,1471.424,1339.749,1472.091,1338.006Z" transform="translate(-136.699 4192.573)" fill="#030303" fill-rule="evenodd"/>
    <path id="Trazado_190475" data-name="Trazado 190475" d="M1427.63,1339.292a8.134,8.134,0,0,1-6.217-2.788c-.608-.706-2.157-1.6-.934-2.6.949-.77,2.28-2.292,3.927-.189a4.019,4.019,0,0,0,6.531-.048c1.561-2,2.732-.565,3.738.13,1.49,1.027-.118,1.892-.666,2.559A8.119,8.119,0,0,1,1427.63,1339.292Z" transform="translate(-126.633 4193.175)" fill="#030303" fill-rule="evenodd"/>
    <path id="Trazado_190476" data-name="Trazado 190476" d="M1371.882,1325.835a10.1,10.1,0,1,1-10.029,10.175A10.123,10.123,0,0,1,1371.882,1325.835Zm-.046,4.055a6.047,6.047,0,1,0,6.164,5.993A6.1,6.1,0,0,0,1371.836,1329.89Z" transform="translate(-115.343 4194.498)" fill="#030303" fill-rule="evenodd"/>
    <path id="Trazado_190477" data-name="Trazado 190477" d="M1414.078,1319.9c-1.262-.109-2.091-.737-2.107-2.02a2.007,2.007,0,0,1,4.008-.186A2,2,0,0,1,1414.078,1319.9Z" transform="translate(-125.07 4196.437)" fill="#030303" fill-rule="evenodd"/>
    <path id="Trazado_190478" data-name="Trazado 190478" d="M1446.079,1317.747c-.107,1.264-.739,2.093-2.021,2.106a2.006,2.006,0,0,1-.185-4.007A1.992,1.992,0,0,1,1446.079,1317.747Z" transform="translate(-130.903 4196.438)" fill="#030303" fill-rule="evenodd"/>
    <path id="Trazado_190479" data-name="Trazado 190479" d="M1372.812,1330.867a6.047,6.047,0,1,1-5.927,6.226A6.091,6.091,0,0,1,1372.812,1330.867Z" transform="translate(-116.319 4193.521)" fill="#f9b300" fill-rule="evenodd"/>
    <path id="Trazado_190480" data-name="Trazado 190480" d="M1406.88,1305.1s-2.584,19.129,4.345,25.759l13.741,4.3,8.495-3.217,7.939-5.337s4.935-8.865,1.778-23.125l-4.011,1.214-17.9-1.214-2.435-2.011Z" transform="translate(-123.991 4199.229)" fill="#eacbb0" fill-rule="evenodd"/>
  </g>
</svg>
