<svg xmlns="http://www.w3.org/2000/svg" xmlns:xlink="http://www.w3.org/1999/xlink" width="388.05" height="389.333" viewBox="0 0 388.05 389.333">
  <defs>
    <linearGradient id="linear-gradient" x1="-0.16" y1="-0.191" x2="1.984" y2="2.225" gradientUnits="objectBoundingBox">
      <stop offset="0" stop-color="#f9b776"/>
      <stop offset="1" stop-color="#f47960"/>
    </linearGradient>
    <linearGradient id="linear-gradient-2" x1="-485.336" y1="-0.196" x2="-483.065" y2="2.22" xlink:href="#linear-gradient"/>
    <linearGradient id="linear-gradient-3" x1="2.58" y1="-4.058" x2="-0.86" y2="3.366" xlink:href="#linear-gradient"/>
    <linearGradient id="linear-gradient-4" x1="3.788" y1="-6.36" x2="0.301" y2="1.144" xlink:href="#linear-gradient"/>
    <linearGradient id="linear-gradient-5" x1="0.511" y1="1.753" x2="0.489" y2="-0.794" xlink:href="#linear-gradient"/>
    <linearGradient id="linear-gradient-6" x1="7.618" y1="-25.308" x2="7.695" y2="-26.695" xlink:href="#linear-gradient"/>
  </defs>
  <g id="Grupo_131790" data-name="Grupo 131790" transform="translate(-239 -5822.701)">
    <path id="Trazado_189992" data-name="Trazado 189992" d="M1039.4,855.116a140.343,140.343,0,0,1-21.464,18.076c-70.023,50.238-152.876,35.595-170.486,32.018-26-5.28-76.263-15.489-112.6-58.222-54.979-64.653-46.417-166.512-3.771-233.75,7.8-12.3,49-63.851,132.749-74.8,50.683-6.627,109.762-9.972,152.547,25.87C1106.178,639.55,1099.786,791.548,1039.4,855.116Z" transform="translate(-457.332 5301.581)" fill="#fee4a9" opacity="0.72"/>
    <g id="Grupo_129362" data-name="Grupo 129362" transform="translate(269.437 5822.701)">
      <g id="Grupo_129360" data-name="Grupo 129360">
        <path id="Trazado_189993" data-name="Trazado 189993" d="M722.808,526.382H1018.3c8.059,0,14.547,9.237,14.4,20.5l-4.157,320.446c-.2,15.08-9.07,27.109-27.23,26.92l-286.2-5.021c-.515-.139-6.856-9.118-6.851-20.144L708.4,546.5C708.41,535.388,714.856,526.382,722.808,526.382Z" transform="translate(-708.266 -526.382)" fill="none"/>
        <path id="Trazado_189994" data-name="Trazado 189994" d="M726.474,531.574h283.745c7.733,0,13.967,8.777,13.827,19.478l-3.992,304.467c-.187,14.329-8.709,25.758-19.07,25.578l-274.816-4.77c-7.573-.13-13.66-8.662-13.656-19.138l.132-306.494C712.649,540.132,718.84,531.574,726.474,531.574Z" transform="translate(-705.417 -522.899)" fill="#dbf6f4"/>
      </g>
      <g id="Grupo_129361" data-name="Grupo 129361" transform="translate(7.094 7.724)">
        <path id="Rectángulo_293530" data-name="Rectángulo 293530" d="M2.162,0h306.9A2.039,2.039,0,0,1,311.1,2.039V46.564a0,0,0,0,1,0,0H0a0,0,0,0,1,0,0V2.162A2.162,2.162,0,0,1,2.162,0Z" fill="#0ddcf1"/>
        <path id="Trazado_189995" data-name="Trazado 189995" d="M945.521,553.763l-161.4-1.531c-3.8-.035-6.864-2.548-6.866-5.638v-5.382c0-2.38,2.38-4.313,5.314-4.313H946.679c2.894,0,5.178,2,4.966,4.336l-.775,8.542C950.664,552.045,948.323,553.789,945.521,553.763Z" transform="translate(-669.076 -527.05)" fill="#113356"/>
        <path id="Trazado_189996" data-name="Trazado 189996" d="M1004.947,581.871H722.422a3.386,3.386,0,0,1-3.4-3.378V569.45a3.389,3.389,0,0,1,3.424-3.382l282.527,2.49a3.386,3.386,0,0,1,3.365,3.379v6.557A3.387,3.387,0,0,1,1004.947,581.871Z" transform="translate(-708.141 -507.482)" fill="#0d8791"/>
        <path id="Trazado_189997" data-name="Trazado 189997" d="M764.789,552.8a8.27,8.27,0,1,1,8.271-8.271A8.28,8.28,0,0,1,764.789,552.8Zm0-15.6a7.328,7.328,0,1,0,7.325,7.327A7.335,7.335,0,0,0,764.789,537.2Z" transform="translate(-682.988 -527.478)" fill="#113356"/>
        <path id="Trazado_189998" data-name="Trazado 189998" d="M748.633,553.18a8.27,8.27,0,1,1,8.273-8.271A8.281,8.281,0,0,1,748.633,553.18Zm0-15.6a7.328,7.328,0,1,0,7.328,7.327A7.336,7.336,0,0,0,748.633,537.582Z" transform="translate(-693.827 -527.224)" fill="#113356"/>
        <path id="Trazado_189999" data-name="Trazado 189999" d="M733.109,553.18a8.27,8.27,0,1,1,8.271-8.271A8.28,8.28,0,0,1,733.109,553.18Zm0-15.6a7.328,7.328,0,1,0,7.327,7.327A7.336,7.336,0,0,0,733.109,537.582Z" transform="translate(-704.241 -527.224)" fill="#113356"/>
        <path id="Trazado_190000" data-name="Trazado 190000" d="M845.716,595.547l-52.84-.441a3,3,0,0,1-2.974-3.023l.013-1.472a3,3,0,0,1,2.924-2.972l52.853-1.307a3,3,0,0,1,3.073,3.021l-.027,3.218A3,3,0,0,1,845.716,595.547Z" transform="translate(-660.591 -493.887)" fill="#fff" opacity="0.6"/>
        <path id="Trazado_190001" data-name="Trazado 190001" d="M863.253,684.676l-77.8-.645a4.759,4.759,0,0,1-4.719-4.8l.647-77.918a4.758,4.758,0,0,1,4.677-4.719l76.821,1.457a5.937,5.937,0,0,1,5.825,5.985l-.655,75.918A4.757,4.757,0,0,1,863.253,684.676Z" transform="translate(-666.74 -487.001)" fill="#fff" opacity="0.6"/>
        <path id="Trazado_190002" data-name="Trazado 190002" d="M786.884,595.547l-52.84-.441a3,3,0,0,1-2.973-3.023l.012-1.472a3,3,0,0,1,2.922-2.972l52.857-1.307a3,3,0,0,1,3.071,3.021l-.028,3.218A3,3,0,0,1,786.884,595.547Z" transform="translate(-700.06 -493.887)" fill="#0d8791"/>
        <path id="Trazado_190003" data-name="Trazado 190003" d="M804.423,684.676l-77.8-.645a4.759,4.759,0,0,1-4.719-4.8l.648-77.918a4.757,4.757,0,0,1,4.677-4.719l76.821,1.457a5.937,5.937,0,0,1,5.825,5.985l-.655,75.918A4.758,4.758,0,0,1,804.423,684.676Z" transform="translate(-706.209 -487.001)" fill="#0d8791"/>
        <path id="Trazado_190004" data-name="Trazado 190004" d="M904.721,596.649l-52.842-.44a2.994,2.994,0,0,1-2.971-3.021l.012-1.475a3,3,0,0,1,2.922-2.971l52.857-1.308a3,3,0,0,1,3.071,3.021l-.027,3.221A3,3,0,0,1,904.721,596.649Z" transform="translate(-621.004 -493.148)" fill="#fff" opacity="0.6"/>
        <path id="Trazado_190005" data-name="Trazado 190005" d="M922.26,685.779l-77.8-.647a4.757,4.757,0,0,1-4.72-4.8l.648-77.915a4.762,4.762,0,0,1,4.677-4.72l76.821,1.457a5.938,5.938,0,0,1,5.825,5.987l-.655,75.92A4.759,4.759,0,0,1,922.26,685.779Z" transform="translate(-627.154 -486.262)" fill="#fff" opacity="0.6"/>
        <rect id="Rectángulo_293531" data-name="Rectángulo 293531" width="280.169" height="13.755" rx="0.75" transform="translate(19.044 211.406)" fill="#0d8791"/>
        <path id="Rectángulo_293532" data-name="Rectángulo 293532" d="M.749,0H279.418a.749.749,0,0,1,.749.749V13.005a.75.75,0,0,1-.75.75H.75a.75.75,0,0,1-.75-.75V.749A.749.749,0,0,1,.749,0Z" transform="translate(19.656 233.116)" fill="#0d8791"/>
        <path id="Trazado_190006" data-name="Trazado 190006" d="M867.058,648.461s-20.112,17.292-7.332,49.523L890.9,710.916l26.255-9.517-12.707-49.2-6.884-7.2Z" transform="translate(-616.6 -454.526)" fill="#9e6f08"/>
        <path id="Trazado_190007" data-name="Trazado 190007" d="M887.943,646.374s23.8,29.449,6.386,56.741l-11.36-12.253-1.818-44.489Z" transform="translate(-599.374 -453.605)" fill="#9e6f08"/>
        <path id="Rectángulo_293533" data-name="Rectángulo 293533" d="M.75,0H279.418a.749.749,0,0,1,.749.749V13.005a.75.75,0,0,1-.75.75H.75a.75.75,0,0,1-.75-.75V.75A.75.75,0,0,1,.75,0Z" transform="translate(17.593 257.545)" fill="#0d8791"/>
        <path id="Rectángulo_293534" data-name="Rectángulo 293534" d="M.751,0H279.416a.749.749,0,0,1,.749.749V13.007a.75.75,0,0,1-.75.75H.749A.749.749,0,0,1,0,13.008V.751A.751.751,0,0,1,.751,0Z" transform="translate(18.205 279.255)" fill="#0d8791"/>
        <path id="Rectángulo_293535" data-name="Rectángulo 293535" d="M.75,0H279.418a.749.749,0,0,1,.749.749V13.006a.75.75,0,0,1-.75.75H.75a.75.75,0,0,1-.75-.75V.75A.75.75,0,0,1,.75,0Z" transform="translate(17.593 302.169)" fill="#0d8791"/>
      </g>
    </g>
    <g id="Grupo_129366" data-name="Grupo 129366" transform="translate(458.987 6019.057)">
      <g id="Grupo_129365" data-name="Grupo 129365">
        <path id="Trazado_190008" data-name="Trazado 190008" d="M867.749,645.338c-.159.3-4.976,3.7-4.976,3.7s-3.35,18.438,2.792,27.518,27.065-7.086,27.065-7.086.573,20.31,6.486-2.832c1.357-5.31,4.07-23.426-5.38-22.448C881.55,645.447,867.749,645.338,867.749,645.338Z" transform="translate(-794.771 -643.731)" fill="#9e6f08"/>
        <path id="Trazado_190009" data-name="Trazado 190009" d="M859.8,682.1a43.3,43.3,0,0,1,13.14-6.112c1.766-.48,11.3,2.289,17.185,2.154,8.087-.186,16.32-3.866,22.985-2.2,6.622,1.649,12.042,3.8,15.17,6.03,9.365,6.66,14.866,19.082,18.216,31.386a42.882,42.882,0,0,1-14.331,9.409l-1.474,59.8-35.364,18.1-40.364-20.266,1.445-58.443s-12.816-5.97-13.758-8.14S848.494,689.873,859.8,682.1Z" transform="translate(-807.716 -622.692)" fill="#f9b300"/>
        <path id="Trazado_190010" data-name="Trazado 190010" d="M844.482,698.274s-17.177,47.619,21.991,67.19c8.134-1.081,5.006-14.585,5.006-14.585s-17.02-3.766-11.907-43.492C854.863,703.517,844.482,698.274,844.482,698.274Z" transform="translate(-808.947 -607.418)" fill="url(#linear-gradient)"/>
        <path id="Trazado_190011" data-name="Trazado 190011" d="M915.347,698.274s11.822,49.709-21.99,67.19c-8.131-1.081-5-14.585-5-14.585s13.716-6.754,11.907-43.492C904.966,703.517,915.347,698.274,915.347,698.274Z" transform="translate(-777.394 -607.418)" fill="url(#linear-gradient-2)"/>
        <path id="Rectángulo_293536" data-name="Rectángulo 293536" d="M.421,0h76.7a.421.421,0,0,1,.421.421V51.948a.422.422,0,0,1-.422.422H.421A.421.421,0,0,1,0,51.949V.421A.421.421,0,0,1,.421,0Z" transform="translate(46.785 109.021)" fill="#0db1c1"/>
        <path id="Trazado_190012" data-name="Trazado 190012" d="M879.548,719.469c.409,2.779-1.078,5.3-3.855,5.713a5.088,5.088,0,0,1-5.776-4.287c-.409-2.779.86-5.537,3.639-5.948A5.475,5.475,0,0,1,879.548,719.469Z" transform="translate(-789.417 -596.266)" fill="#063b75"/>
        <g id="Grupo_129363" data-name="Grupo 129363" transform="translate(121.95 175.343)">
          <path id="Trazado_190013" data-name="Trazado 190013" d="M929.165,750.276c-8.876-2.038-29.386-.941-29.386-.941l-.834,2.257-1.383,11.232s19.534,3.521,29.165,3.512a9.04,9.04,0,0,0,2.7-.4c.294-.262.578-.537.852-.834C934.365,760.637,933.183,754.086,929.165,750.276Z" transform="translate(-892.77 -748.702)" fill="#768691"/>
          <path id="Trazado_190014" data-name="Trazado 190014" d="M917.355,750c-.277-.079-.572-.152-.879-.222,4.019,3.81,5.2,10.361,1.115,14.822-.274.3-.558.571-.852.834C923.961,763.189,924.815,752.1,917.355,750Z" transform="translate(-880.08 -748.206)" fill="#94b0c9"/>
          <path id="Trazado_190015" data-name="Trazado 190015" d="M895.808,748.838l3.472.149a6.683,6.683,0,0,1,4.881,2.525,8.226,8.226,0,0,1,1.791,5.629,6.488,6.488,0,0,1-1.88,4.284,5.266,5.266,0,0,1-4.064,1.544l-5.315-.379Z" transform="translate(-894.694 -748.838)" fill="url(#linear-gradient-3)"/>
        </g>
        <g id="Grupo_129364" data-name="Grupo 129364" transform="translate(0 175.042)">
          <path id="Trazado_190016" data-name="Trazado 190016" d="M827.016,749.453c8.923-1.766,29.4-.04,29.4-.04l.775,2.286,1.1,11.267s-19.615,2.921-29.239,2.615a9.006,9.006,0,0,1-2.692-.486,11.6,11.6,0,0,1-.83-.859C821.561,759.651,822.9,753.138,827.016,749.453Z" transform="translate(-820.74 -748.658)" fill="#768691"/>
          <path id="Trazado_190017" data-name="Trazado 190017" d="M827.1,749.329c.279-.068.576-.134.885-.2-4.112,3.684-5.455,10.2-1.484,14.783a11.65,11.65,0,0,0,.83.859C820.167,762.307,819.59,751.2,827.1,749.329Z" transform="translate(-821.709 -748.338)" fill="#94b0c9"/>
          <path id="Trazado_190018" data-name="Trazado 190018" d="M850.751,748.84l-3.475.042a6.639,6.639,0,0,0-4.939,2.371,8.185,8.185,0,0,0-1.933,5.574,6.529,6.529,0,0,0,1.773,4.341,5.3,5.3,0,0,0,4.023,1.669l5.324-.217Z" transform="translate(-809.169 -748.536)" fill="url(#linear-gradient-4)"/>
        </g>
        <path id="Trazado_190019" data-name="Trazado 190019" d="M967.045,732.227c-4.025-9.265-13.87-10.767-22.249-6.436-.144.192-53.2,27.386-100,39.3a50.764,50.764,0,0,1,2.177,13.354q.043,1.5-.047,2.962c35.882-1.843,74.825-13.808,108.29-24.326C965.6,753.738,971.5,742.493,967.045,732.227Z" transform="translate(-806.217 -590.514)" fill="#113356"/>
        <path id="Trazado_190020" data-name="Trazado 190020" d="M941.264,779.662a30.822,30.822,0,0,1,3.017-14.458c.062-.206.135-.4.2-.6-2.672-.829-6.124-1.95-10.658-3.489-33.227-11.367-58.576-22.849-82.769-36.069-9.4-5.135-20.084-1.691-23.092,9.427-2.685,9.928,3.409,17.865,12.162,21.384,30.094,12.087,74.3,23.128,101.192,24.936C941.3,780.412,941.274,780.038,941.264,779.662Z" transform="translate(-817.942 -591.022)" fill="#113356"/>
        <path id="Trazado_190021" data-name="Trazado 190021" d="M860.746,681.97s3.574,15.484,20.925,15.165c17.671-.322,19.245-15.215,19.245-15.215l-11.542-2.469-.964-12.862-17.364,1.285-.321,12.219Z" transform="translate(-795.519 -628.675)" fill="url(#linear-gradient-5)"/>
        <path id="Trazado_190022" data-name="Trazado 190022" d="M870.831,643.9s-18.487,35.815,3.444,44.5c15.471,6.129,25.169-23.783,22.276-31.884-4.473-12.527-7.419-11.04-7.419-11.04Z" transform="translate(-793.639 -643.898)" fill="url(#linear-gradient-6)"/>
        <path id="Trazado_190023" data-name="Trazado 190023" d="M883.356,651.61c-.052-.147-.1-.277-.139-.4.072.658.109,1.348.117,2.055.03-.5.05-1.008.068-1.516C883.386,651.707,883.372,651.655,883.356,651.61Z" transform="translate(-780.444 -638.99)" fill="#fff"/>
        <path id="Trazado_190024" data-name="Trazado 190024" d="M883.334,651.658c-.027-.245-.054-.488-.09-.725C884.195,652.517,882.367,648.825,883.334,651.658Z" transform="translate(-780.561 -639.434)" fill="#fff"/>
        <path id="Trazado_190025" data-name="Trazado 190025" d="M868.249,654.115s-3.2-4.83-4.653.112-.533,11.77,2.4,8.6S868.249,654.115,868.249,654.115Z" transform="translate(-794.064 -638.462)" fill="none"/>
      </g>
    </g>
    <g id="Grupo_129368" data-name="Grupo 129368" transform="translate(384.493 5913.075)">
      <path id="Trazado_190026" data-name="Trazado 190026" d="M926.808,662.978H788.21a11.086,11.086,0,0,1-11.085-11.085V591.553a11.084,11.084,0,0,1,11.439-11.078l138.6,4.433a11.083,11.083,0,0,1,10.73,11.08v55.906A11.084,11.084,0,0,1,926.808,662.978Z" transform="translate(-777.125 -580.469)" fill="#154f8d"/>
      <path id="Trazado_190027" data-name="Trazado 190027" d="M838.217,629.577l18.419,22.254,7.114-22.254Z" transform="translate(-736.139 -547.524)" fill="#154f8d"/>
      <g id="Grupo_129367" data-name="Grupo 129367" transform="translate(32.39 17.172)">
        <path id="Trazado_190028" data-name="Trazado 190028" d="M827.5,631.1,796.51,615.046v-5.089L827.5,593.8v8.311l-21.167,10.321L827.5,622.824Z" transform="translate(-796.51 -588.698)" fill="#fff"/>
        <path id="Trazado_190029" data-name="Trazado 190029" d="M842.912,591.183l-15.9,49.122-8.259-.072,16.132-49.487Z" transform="translate(-781.585 -590.747)" fill="#fff"/>
        <path id="Trazado_190030" data-name="Trazado 190030" d="M836.644,622.932l19.115-8.826-19.115-11.22v-8.044l27.53,17.533v4.672l-27.53,13.893Z" transform="translate(-769.585 -587.999)" fill="#fff"/>
      </g>
    </g>
    <path id="Trazado_190031" data-name="Trazado 190031" d="M868.649,658.917s19.464.592,24.732-5.649c0,0,1.115,13.648,10.861,14.761l1.952-11.616s-15.157-31.547-39.187-7.877l-8.613,12.436,3.931,3.681Z" transform="translate(-338.11 5372.363)" fill="#9e6f08"/>
  </g>
</svg>
