<svg xmlns="http://www.w3.org/2000/svg" width="295" height="305" viewBox="0 0 295 305">
  <g id="Grupo_131791" data-name="Grupo 131791" transform="translate(-180 -6588.701)">
    <path id="Trazado_191307" data-name="Trazado 191307" d="M0,0H295V305H0Z" transform="translate(180 6588.701)" fill="#b9ddfc"/>
    <path id="Trazado_191308" data-name="Trazado 191308" d="M0,0H295V77H0Z" transform="translate(180 6816.701)" fill="#084a93"/>
    <path id="Trazado_191311" data-name="Trazado 191311" d="M27.219,18.078H22.052L21.15,21H17.122L22.858,5.359H26.4L32.182,21h-4.05Zm-4.265-2.911h3.362L24.63,9.742Zm13.009-5.79.118,1.364A3.942,3.942,0,0,1,39.4,9.162a3.316,3.316,0,0,1,2.712,1.085,5.165,5.165,0,0,1,.929,3.266V21H39.412V13.663a1.961,1.961,0,0,0-.354-1.294,1.64,1.64,0,0,0-1.289-.414,1.726,1.726,0,0,0-1.579.838V21h-3.62V9.377ZM51.593,21a4.088,4.088,0,0,1-.344-1.042,3.366,3.366,0,0,1-2.793,1.257,4.124,4.124,0,0,1-2.793-.994,3.163,3.163,0,0,1-1.149-2.5,3.251,3.251,0,0,1,1.4-2.857,7.114,7.114,0,0,1,4.061-.967h1.117v-.615q0-1.608-1.386-1.608a1.133,1.133,0,0,0-1.289,1.274h-3.62a3.245,3.245,0,0,1,1.434-2.736,6.027,6.027,0,0,1,3.658-1.051A5.284,5.284,0,0,1,53.4,10.247a3.772,3.772,0,0,1,1.321,2.976v5.146a5.269,5.269,0,0,0,.494,2.449V21Zm-2.267-2.363a2.019,2.019,0,0,0,1.123-.29,1.818,1.818,0,0,0,.639-.655V15.833H50.036q-1.891,0-1.891,1.7a1.036,1.036,0,0,0,.333.8A1.205,1.205,0,0,0,49.327,18.637ZM60.542,21H56.911V4.5h3.631Zm6.048,0H62.958V9.377h3.631ZM62.744,6.369A1.63,1.63,0,0,1,63.3,5.094a2.364,2.364,0,0,1,2.9,0,1.63,1.63,0,0,1,.559,1.275A1.63,1.63,0,0,1,66.2,7.644a2.364,2.364,0,0,1-2.9,0A1.63,1.63,0,0,1,62.744,6.369ZM73.088,18.207h5.3V21H68.512V18.98l5.156-6.811H68.738V9.377h9.528v1.955ZM86.688,21a4.087,4.087,0,0,1-.344-1.042,3.366,3.366,0,0,1-2.793,1.257,4.124,4.124,0,0,1-2.793-.994,3.163,3.163,0,0,1-1.149-2.5,3.251,3.251,0,0,1,1.4-2.857,7.114,7.114,0,0,1,4.061-.967h1.117v-.615q0-1.608-1.386-1.608a1.133,1.133,0,0,0-1.289,1.274h-3.62a3.245,3.245,0,0,1,1.434-2.736A6.027,6.027,0,0,1,84.98,9.162a5.284,5.284,0,0,1,3.513,1.085,3.772,3.772,0,0,1,1.321,2.976v5.146a5.269,5.269,0,0,0,.494,2.449V21Zm-2.267-2.363a2.019,2.019,0,0,0,1.123-.29,1.818,1.818,0,0,0,.639-.655V15.833H85.13q-1.891,0-1.891,1.7a1.036,1.036,0,0,0,.333.8A1.205,1.205,0,0,0,84.421,18.637Zm14.427-5.983-1.192-.086a2.142,2.142,0,0,0-2.191,1.074V21h-3.62V9.377h3.395l.118,1.493A2.8,2.8,0,0,1,97.9,9.162a3.53,3.53,0,0,1,1.01.129Zm12.407,8.562a5.975,5.975,0,0,1-4.329-1.6,5.509,5.509,0,0,1-1.654-4.152v-.3a7.138,7.138,0,0,1,.661-3.147,4.834,4.834,0,0,1,1.928-2.111,5.821,5.821,0,0,1,3.008-.747,5.031,5.031,0,0,1,3.867,1.52,5.973,5.973,0,0,1,1.418,4.238v1.407h-7.2a2.609,2.609,0,0,0,.849,1.536,2.525,2.525,0,0,0,1.7.559,3.254,3.254,0,0,0,2.686-1.2l1.654,1.955a4.624,4.624,0,0,1-1.917,1.488A6.48,6.48,0,0,1,111.255,21.215Zm-.408-9.26q-1.59,0-1.891,2.105h3.652v-.279a1.793,1.793,0,0,0-.44-1.348A1.753,1.753,0,0,0,110.847,11.955ZM121.428,21H117.8V4.5h3.631Zm18.5-5.726a7.009,7.009,0,0,1-1.219,4.324,3.909,3.909,0,0,1-3.292,1.617,3.351,3.351,0,0,1-2.632-1.171v5.425h-3.62V9.377h3.384l.107,1.074a3.351,3.351,0,0,1,2.739-1.289,3.941,3.941,0,0,1,3.341,1.584,7.1,7.1,0,0,1,1.192,4.356Zm-3.62-.226q0-3.094-1.8-3.094a1.7,1.7,0,0,0-1.719.924v4.576a1.759,1.759,0,0,0,1.74.967q1.729,0,1.783-2.986Zm12.246-2.4-1.192-.086a2.142,2.142,0,0,0-2.191,1.074V21h-3.62V9.377h3.395l.118,1.493a2.8,2.8,0,0,1,2.546-1.708,3.53,3.53,0,0,1,1.01.129Zm.462,2.428a6.86,6.86,0,0,1,.677-3.1,4.84,4.84,0,0,1,1.944-2.089,5.856,5.856,0,0,1,2.976-.73,5.344,5.344,0,0,1,4.114,1.617,6.2,6.2,0,0,1,1.5,4.4v.129a6.019,6.019,0,0,1-1.509,4.313,5.359,5.359,0,0,1-4.087,1.6,5.42,5.42,0,0,1-3.985-1.488,5.819,5.819,0,0,1-1.622-4.034Zm3.62.226a4.325,4.325,0,0,0,.5,2.363,1.682,1.682,0,0,0,1.493.752q1.934,0,1.977-2.976v-.365q0-3.126-2-3.126-1.815,0-1.966,2.7Zm19.98-.021a7.084,7.084,0,0,1-1.182,4.394,3.958,3.958,0,0,1-3.33,1.536,3.435,3.435,0,0,1-2.857-1.407L165.1,21h-3.244V4.5h3.62v5.812a3.314,3.314,0,0,1,2.61-1.149,3.959,3.959,0,0,1,3.352,1.558,7.121,7.121,0,0,1,1.182,4.383Zm-3.631-.231a4.725,4.725,0,0,0-.446-2.386,1.5,1.5,0,0,0-1.37-.713,1.733,1.733,0,0,0-1.7.933V17.5a1.743,1.743,0,0,0,1.719.922,1.537,1.537,0,0,0,1.622-1.244A8.934,8.934,0,0,0,168.984,15.054ZM178.029,21H174.4V4.5h3.631Zm7.853.215a5.975,5.975,0,0,1-4.329-1.6,5.509,5.509,0,0,1-1.654-4.152v-.3a7.138,7.138,0,0,1,.661-3.147,4.834,4.834,0,0,1,1.928-2.111,5.821,5.821,0,0,1,3.008-.747,5.031,5.031,0,0,1,3.867,1.52,5.973,5.973,0,0,1,1.418,4.238v1.407h-7.2a2.609,2.609,0,0,0,.849,1.536,2.525,2.525,0,0,0,1.7.559,3.254,3.254,0,0,0,2.686-1.2l1.654,1.955a4.624,4.624,0,0,1-1.917,1.488A6.48,6.48,0,0,1,185.881,21.215Zm-.408-9.26q-1.59,0-1.891,2.105h3.652v-.279a1.793,1.793,0,0,0-.44-1.348A1.753,1.753,0,0,0,185.473,11.955Zm10.184-2.578.118,1.364a4,4,0,0,1,3.319-1.579,2.942,2.942,0,0,1,2.976,1.751,3.868,3.868,0,0,1,3.416-1.751q3.534,0,3.631,4.275V21h-3.631V13.663a2.216,2.216,0,0,0-.3-1.3,1.28,1.28,0,0,0-1.1-.408,1.715,1.715,0,0,0-1.6.956l.011.15V21h-3.631V13.685a2.329,2.329,0,0,0-.29-1.321,1.277,1.277,0,0,0-1.106-.408,1.736,1.736,0,0,0-1.59.956V21h-3.62V9.377ZM217.732,21a4.088,4.088,0,0,1-.344-1.042,3.366,3.366,0,0,1-2.793,1.257,4.124,4.124,0,0,1-2.793-.994,3.163,3.163,0,0,1-1.149-2.5,3.251,3.251,0,0,1,1.4-2.857,7.114,7.114,0,0,1,4.061-.967h1.117v-.615q0-1.608-1.386-1.608a1.133,1.133,0,0,0-1.289,1.274h-3.62a3.245,3.245,0,0,1,1.434-2.736,6.027,6.027,0,0,1,3.658-1.051,5.284,5.284,0,0,1,3.513,1.085,3.772,3.772,0,0,1,1.321,2.976v5.146a5.269,5.269,0,0,0,.494,2.449V21Zm-2.267-2.363a2.019,2.019,0,0,0,1.123-.29,1.818,1.818,0,0,0,.639-.655V15.833h-1.053q-1.891,0-1.891,1.7a1.036,1.036,0,0,0,.333.8A1.205,1.205,0,0,0,215.465,18.637Z" transform="translate(208 6841.701)" fill="#fff"/>
    <g id="Grupo_129380" data-name="Grupo 129380" transform="translate(0 313.701)">
      <rect id="Rectángulo_293538" data-name="Rectángulo 293538" width="120" height="120" transform="translate(268 6329)" fill="none"/>
      <g id="idea" transform="translate(250.913 6329)">
        <path id="Trazado_190845" data-name="Trazado 190845" d="M335.408,51.776c0,16.4-8.4,27.543-19.953,34.059h-24.2V10C314.327,10,335.408,23.649,335.408,51.776Z" transform="translate(-205.879 -7.656)" fill="#ffb30b"/>
        <path id="Trazado_190846" data-name="Trazado 190846" d="M315.455,333.563v21.892l-8.126,9.209H291.252v-31.1Z" transform="translate(-205.879 -255.384)" fill="#00defc"/>
        <path id="Trazado_190847" data-name="Trazado 190847" d="M303.938,466.262a8.376,8.376,0,0,1-8.376,8.376h-4.309v-8.376Z" transform="translate(-205.879 -356.982)" fill="#00defc"/>
        <path id="Trazado_190848" data-name="Trazado 190848" d="M81.728,83.811V26.041C81.728,15.828,75.9,10,65.687,10c-8.743,0-15.6,5.7-16.041,13.823a13.41,13.41,0,0,0,4.7,11.19c-.094,0-.188-.007-.282-.007a21.712,21.712,0,0,0-18.8,32.574,21.712,21.712,0,0,0,18.8,32.574c.124,0,.247-.007.37-.009-3.832,2.668-4.79,6.937-4.79,10.257,0,9.406,7.873,14.91,16.041,14.91,10.213,0,16.041-5.828,16.041-16.041V83.811Z" transform="translate(-7.656 -7.656)" fill="#fee4a9"/>
        <path id="Trazado_190849" data-name="Trazado 190849" d="M315.844,10.9C307.573,3.87,296.12,0,283.6,0a2.344,2.344,0,0,0-2.344,2.344v7.979a2.344,2.344,0,0,0,4.688,0V4.737c10.485.443,19.956,3.86,26.87,9.733,8.242,7,12.6,17.255,12.6,29.65,0,17.351-9.789,26.8-18.233,31.715H294.561V50.373h5.374a9.569,9.569,0,1,0,0-19.139h-.493a9.58,9.58,0,0,0-9.568,9.57v4.881H285.94V31.262a2.344,2.344,0,0,0-4.688,0v86.395A2.344,2.344,0,0,0,283.6,120h4.31a10.722,10.722,0,0,0,10.461-8.376h1.306a2.343,2.343,0,0,0,1.757-.793l8.126-9.209a2.344,2.344,0,0,0,.586-1.551V79.526A41.316,41.316,0,0,0,324.091,66.1a40.671,40.671,0,0,0,6-21.98c0-13.813-4.928-25.3-14.251-33.222ZM294.561,40.805a4.887,4.887,0,0,1,4.881-4.883h.493a4.882,4.882,0,1,1,0,9.764h-5.374Zm-8.621,51.028,19.515-5.906v7.755l-19.515,5.906Zm19.515-10.8-19.515,5.906V80.523h19.515ZM289.873,50.373V75.835H285.94V50.373Zm2.3,63.172a5.993,5.993,0,0,1-4.265,1.767h-1.966v-3.689h7.528A6.024,6.024,0,0,1,292.171,113.546Zm6.444-6.609H285.939v-2.45l19.515-5.906v.605Z" transform="translate(-198.223 0)"/>
        <path id="Trazado_190850" data-name="Trazado 190850" d="M58.03,0C47.88,0,40.15,6.746,39.649,16.041a15.6,15.6,0,0,0,2.339,9.372,23.939,23.939,0,0,0-8.5,3.355,2.344,2.344,0,0,0,2.52,3.952,19.3,19.3,0,0,1,10.4-3.026l.074,0,.18,0h.029a2.344,2.344,0,0,0,1.573-4.081,11.143,11.143,0,0,1-3.935-9.327c.363-6.725,6.125-11.606,13.7-11.606,8.961,0,13.7,4.736,13.7,13.7v83.231c0,8.961-4.736,13.7-13.7,13.7a14.883,14.883,0,0,1-9.562-3.367,11.7,11.7,0,0,1-4.136-9.2c0-2.6.657-6.155,3.786-8.333a2.344,2.344,0,0,0-1.378-4.267l-.2.005c-.045,0-.09,0-.135,0A19.368,19.368,0,0,1,29.634,61.1a2.344,2.344,0,0,0,0-2.348,19.358,19.358,0,0,1-2.6-9.684,2.344,2.344,0,0,0-4.688,0A24.064,24.064,0,0,0,24.94,59.925,24.059,24.059,0,0,0,41.823,94.4a15.822,15.822,0,0,0-2.178,8.342,16.49,16.49,0,0,0,5.78,12.765A19.366,19.366,0,0,0,58.03,120c11.512,0,18.385-6.873,18.385-18.385V18.385C76.415,6.873,69.542,0,58.03,0Z" transform="translate(0 0)"/>
        <path id="Trazado_190851" data-name="Trazado 190851" d="M165.735,156.97a11.189,11.189,0,0,0-11.176-11.176,2.344,2.344,0,1,0,0,4.688,6.5,6.5,0,0,1,6.489,6.489,2.344,2.344,0,1,0,4.688,0Z" transform="translate(-99.429 -111.624)"/>
        <path id="Trazado_190852" data-name="Trazado 190852" d="M154.619,350.735a2.344,2.344,0,1,0,0,4.688,5.128,5.128,0,0,1,5.122,5.122,2.344,2.344,0,1,0,4.687,0A9.82,9.82,0,0,0,154.619,350.735Z" transform="translate(-99.475 -268.531)"/>
        <path id="Trazado_190853" data-name="Trazado 190853" d="M95.418,237.37A10.638,10.638,0,0,1,84.793,248a2.344,2.344,0,0,0,0,4.688,15.331,15.331,0,0,0,15.313-15.313,2.344,2.344,0,1,0-4.687,0Z" transform="translate(-46.014 -179.942)"/>
        <path id="Trazado_190854" data-name="Trazado 190854" d="M35.315,155.661a2.343,2.343,0,1,0,1.268-3.061A2.366,2.366,0,0,0,35.315,155.661Z" transform="translate(-9.794 -116.702)"/>
        <path id="Trazado_190855" data-name="Trazado 190855" d="M282.328,83.758a2.343,2.343,0,1,0-.647-3.248A2.366,2.366,0,0,0,282.328,83.758Z" transform="translate(-198.256 -60.848)"/>
      </g>
    </g>
  </g>
</svg>
