<svg xmlns="http://www.w3.org/2000/svg" xmlns:xlink="http://www.w3.org/1999/xlink" width="617.369" height="477" viewBox="0 0 617.369 477">
  <defs>
    <radialGradient id="radial-gradient" cx="0.018" cy="0.582" r="0.854" gradientTransform="translate(567.438 171.86) rotate(180) scale(1.478 1)" gradientUnits="objectBoundingBox">
      <stop offset="0" stop-color="#b4299a"/>
      <stop offset="0.304" stop-color="#851e84"/>
      <stop offset="0.994" stop-color="#11054d"/>
      <stop offset="1" stop-color="#10054d"/>
    </radialGradient>
    <linearGradient id="linear-gradient" x1="382.243" y1="92.38" x2="379.347" y2="91.665" gradientUnits="objectBoundingBox">
      <stop offset="0" stop-color="#45108a"/>
      <stop offset="0.16" stop-color="#2f0b5f"/>
      <stop offset="0.321" stop-color="#1e073d"/>
      <stop offset="0.486" stop-color="#110422"/>
      <stop offset="0.652" stop-color="#07010f"/>
      <stop offset="0.822" stop-color="#010003"/>
      <stop offset="1"/>
    </linearGradient>
    <linearGradient id="linear-gradient-2" x1="1.268" y1="0.883" x2="-0.016" y2="0.247" xlink:href="#linear-gradient"/>
    <linearGradient id="linear-gradient-3" x1="1.268" y1="0.883" x2="-0.016" y2="0.247" xlink:href="#linear-gradient"/>
  </defs>
  <g id="Grupo_131774" data-name="Grupo 131774" transform="translate(-814.631 -85)">
    <g id="Grupo_131729" data-name="Grupo 131729" transform="translate(-6.001 0.271)">
      <g id="Grupo_128834" data-name="Grupo 128834" transform="translate(488.012 64.231)">
        <g id="Grupo_128876" data-name="Grupo 128876" transform="translate(417.989 48.874)">
          <path id="Shadow" d="M780.436,325.784l44.155-25.49c1.56-.9,1.56-2.365,0-3.262L581.229,156.526a6.231,6.231,0,0,0-5.647,0l-44.157,25.5c-1.56.9-1.56,2.358,0,3.26l243.364,140.5A6.242,6.242,0,0,0,780.436,325.784Z" transform="translate(-325.678 62.11)" fill="none"/>
          <g id="PC" transform="translate(211.223)">
            <g id="Monitor">
              <g id="Grupo_128836" data-name="Grupo 128836" transform="translate(49.306 240.6)">
                <g id="Grupo_128834-2" data-name="Grupo 128834" transform="translate(0)">
                  <path id="Trazado_189397" data-name="Trazado 189397" d="M602.028,275.647l-35.556-20.559c-3.663-2.117-5.5-4.887-5.5-7.663s-.015-4.946-.015-4.946l42.786-24.24a7.834,7.834,0,0,0,3.541-6.13V168.274l62.1,35.884,0,43.838a7.821,7.821,0,0,1-3.539,6.128l-37.276,21.523C621.242,279.88,609.357,279.88,602.028,275.647Z" transform="translate(-560.96 -168.274)" fill="#0ddcf1"/>
                </g>
                <g id="Grupo_128835" data-name="Grupo 128835" transform="translate(0)" opacity="0.5">
                  <path id="Trazado_189398" data-name="Trazado 189398" d="M602.028,275.647l-35.556-20.559c-3.663-2.117-5.5-4.887-5.5-7.663s-.015-4.946-.015-4.946l42.786-24.24a7.834,7.834,0,0,0,3.541-6.13V168.274l62.1,35.884,0,43.838a7.821,7.821,0,0,1-3.539,6.128l-37.276,21.523C621.242,279.88,609.357,279.88,602.028,275.647Z" transform="translate(-560.96 -168.274)"/>
                </g>
                <path id="Trazado_189399" data-name="Trazado 189399" d="M612.28,242.642v4.926l11.38-6.56a7.826,7.826,0,0,0,3.537-6.13V191.046l-11.832-6.824c-.246,3-.51,6.11-.754,9.135l8.295,4.8v34.249a7.769,7.769,0,0,1-3.535,6.126Z" transform="translate(-518.762 -155.161)" fill="#0ddcf1"/>
                <path id="Trazado_189400" data-name="Trazado 189400" d="M612.28,242.642v4.926l11.38-6.56a7.826,7.826,0,0,0,3.537-6.13V191.046l-11.832-6.824c-.246,3-.51,6.11-.754,9.135l8.295,4.8v34.249a7.769,7.769,0,0,1-3.535,6.126Z" transform="translate(-518.762 -155.161)" opacity="0.7"/>
                <path id="Trazado_189401" data-name="Trazado 189401" d="M665.106,242.316a7.819,7.819,0,0,1-3.541,6.132l-32.988,19.044c-7.331,4.233-19.214,4.233-26.547,0l-35.57-20.553c-7.333-4.233-7.333-11.092,0-15.323l33-19.059A7.824,7.824,0,0,0,603,206.429V172.176l62.1,35.887Z" transform="translate(-560.96 -165.066)" fill="#abf1f3"/>
                <path id="Trazado_189402" data-name="Trazado 189402" d="M665.106,242.316a7.819,7.819,0,0,1-3.541,6.132l-32.988,19.044c-7.331,4.233-19.214,4.233-26.547,0l-35.57-20.553c-7.333-4.233-7.333-11.092,0-15.323l33-19.059A7.824,7.824,0,0,0,603,206.429V172.176l62.1,35.887Z" transform="translate(-560.96 -165.066)" fill="none" opacity="0.3"/>
                <path id="Trazado_189403" data-name="Trazado 189403" d="M578.134,216.726v0l7.207-4.162a7.824,7.824,0,0,0,3.541-6.132V172.176l62.1,35.887v34.253a7.819,7.819,0,0,1-3.541,6.132l-7.083,4.089Z" transform="translate(-546.838 -165.066)" fill="#0ddcf1" opacity="0.7"/>
                <path id="Trazado_189404" data-name="Trazado 189404" d="M578.134,216.726v0l7.207-4.162a7.824,7.824,0,0,0,3.541-6.132V172.176l62.1,35.887v34.253a7.819,7.819,0,0,1-3.541,6.132l-7.083,4.089Z" transform="translate(-546.838 -165.066)" opacity="0.4"/>
                <path id="Trazado_189405" data-name="Trazado 189405" d="M560.964,209v4.942c0,2.784,1.841,5.54,5.5,7.663l35.561,20.548A26.6,26.6,0,0,0,614.69,245.3v-4.926a26.641,26.641,0,0,1-12.668-3.145L566.46,216.662C562.8,214.557,560.964,211.778,560.964,209Z" transform="translate(-560.956 -134.788)" fill="#0ddcf1"/>
                <path id="Trazado_189406" data-name="Trazado 189406" d="M560.964,209v4.942c0,2.784,1.841,5.54,5.5,7.663l35.561,20.548A26.6,26.6,0,0,0,614.69,245.3v-4.926a26.641,26.641,0,0,1-12.668-3.145L566.46,216.662C562.8,214.557,560.964,211.778,560.964,209Z" transform="translate(-560.956 -134.788)" opacity="0.2"/>
              </g>
              <path id="Trazado_189407" data-name="Trazado 189407" d="M787.066,401.38a9.5,9.5,0,0,1-8.576-.155C747.962,383.6,568.851,280.192,538.326,262.568A9.782,9.782,0,0,1,533.9,254.9V44.692a9.489,9.489,0,0,1,4.151-7.506,9.494,9.494,0,0,1,8.574.16L786.787,176a9.782,9.782,0,0,1,4.426,7.664l0,210.213A9.478,9.478,0,0,1,787.066,401.38Z" transform="translate(-533.902 -36.24)" fill="#00b1c9"/>
              <path id="Trazado_189408" data-name="Trazado 189408" d="M787.066,401.38a9.5,9.5,0,0,1-8.576-.155C747.962,383.6,568.851,280.192,538.326,262.568A9.782,9.782,0,0,1,533.9,254.9V44.692C533.9,41.871,789.358,400.058,787.066,401.38Z" transform="translate(-533.902 -36.24)" opacity="0.3"/>
              <path id="Trazado_189409" data-name="Trazado 189409" d="M778.488,398.834,538.326,260.175a9.772,9.772,0,0,1-4.424-7.659V42.3c0-2.821,1.979-3.963,4.424-2.555L778.486,178.4a9.772,9.772,0,0,1,4.425,7.661l0,210.215C782.915,399.1,780.932,400.242,778.488,398.834Z" transform="translate(-533.902 -33.854)" fill="#0ddcf1"/>
              <path id="Trazado_189410" data-name="Trazado 189410" d="M778.488,398.834,538.326,260.175a9.772,9.772,0,0,1-4.424-7.659V42.3c0-2.821,1.979-3.963,4.424-2.555L778.486,178.4a9.772,9.772,0,0,1,4.425,7.661l0,210.215C782.915,399.1,780.932,400.242,778.488,398.834Z" transform="translate(-533.902 -33.854)" fill="#bddbf1"/>
              <path id="Trazado_189411" data-name="Trazado 189411" d="M778.488,398.834,538.326,260.175a9.772,9.772,0,0,1-4.424-7.659V42.3c0-2.821,1.979-3.963,4.424-2.555L778.486,178.4a9.772,9.772,0,0,1,4.425,7.661l0,210.215C782.915,399.1,780.932,400.242,778.488,398.834Z" transform="translate(-533.902 -33.854)" fill="none" opacity="0.5"/>
              <path id="Trazado_189412" data-name="Trazado 189412" d="M668.482,250.848a8.271,8.271,0,0,0,12.076-7.684v-23.64l-8.295,4.8v23.642C672.263,250.538,670.628,251.7,668.482,250.848Z" transform="translate(-423.243 114.465)" fill="#0db1c1"/>
              <path id="Trazado_189414" data-name="Trazado 189414" d="M782.915,287.025v23.644c0,2.815-1.982,3.962-4.426,2.553L538.326,174.563A9.772,9.772,0,0,1,533.9,166.9V143.26Z" transform="translate(-533.902 51.758)" fill="#bddbf1"/>
              <path id="Trazado_189415" data-name="Trazado 189415" d="M782.915,287.025v23.644c0,2.815-1.982,3.962-4.426,2.553L538.326,174.563A9.772,9.772,0,0,1,533.9,166.9V143.26Z" transform="translate(-533.902 51.758)" fill="none" opacity="0.5"/>
              <path id="Trazado_189416" data-name="Trazado 189416" d="M770.872,349.06l0-166.377a5.872,5.872,0,0,0-2.655-4.6L541.117,46.968c-1.465-.846-2.655-.159-2.655,1.533l-.005,166.381a5.866,5.866,0,0,0,2.655,4.6L768.219,350.592C769.682,351.434,770.872,350.751,770.872,349.06Z" transform="translate(-530.157 -27.716)" fill="#94b0c9"/>
              <path id="Trazado_189417" data-name="Trazado 189417" d="M604.1,188.221a9.179,9.179,0,0,1,4.149,7.191c0,2.646-1.857,3.721-4.149,2.4a9.176,9.176,0,0,1-4.151-7.192C599.951,187.971,601.81,186.9,604.1,188.221Z" transform="translate(-479.593 88.262)" fill="#0ddcf1"/>
              <path id="Trazado_189418" data-name="Trazado 189418" d="M604.1,188.221a9.179,9.179,0,0,1,4.149,7.191c0,2.646-1.857,3.721-4.149,2.4a9.176,9.176,0,0,1-4.151-7.192C599.951,187.971,601.81,186.9,604.1,188.221Z" transform="translate(-479.593 88.262)" fill="#fff" opacity="0.5"/>
              <path id="Trazado_189419" data-name="Trazado 189419" d="M669.839,119.526a9.408,9.408,0,0,1,1.308,4.372V310.48l8.295-4.8V119.115a9.163,9.163,0,0,0-1.306-4.372Z" transform="translate(-422.127 28.31)" fill="#00b1c9"/>
            </g>
          </g>
          <g id="Keyboard" transform="translate(127.362 300.271)">
            <path id="Shadow-2" data-name="Shadow" d="M733.294,311.158,673.284,345.9a7.418,7.418,0,0,1-6.724.005L489.276,243.694c-1.857-1.072-1.86-2.812,0-3.887l60.009-34.741a7.418,7.418,0,0,1,6.724-.007L733.29,307.275C735.149,308.346,735.151,310.084,733.294,311.158Z" transform="translate(-487.882 -198.358)" fill="#073666"/>
            <g id="Keyboard-2" data-name="Keyboard" transform="translate(5.027)">
              <g id="Grupo_128837" data-name="Grupo 128837">
                <path id="Trazado_189421" data-name="Trazado 189421" d="M490.643,236.31a2.361,2.361,0,0,1,1.39-1.944l56.379-32.542a7.435,7.435,0,0,1,6.724,0L727.159,301.3a2.372,2.372,0,0,1,1.389,1.942v5.911a2.353,2.353,0,0,1-1.394,1.942l-56.348,32.542a7.446,7.446,0,0,1-6.73-.011L492.033,244.313a2.363,2.363,0,0,1-1.39-1.933C490.638,241.674,490.643,237.011,490.643,236.31Z" transform="translate(-490.641 -201.02)" fill="#0ddcf1"/>
                <path id="Trazado_189422" data-name="Trazado 189422" d="M490.643,236.31a2.361,2.361,0,0,1,1.39-1.944l56.379-32.542a7.435,7.435,0,0,1,6.724,0L727.159,301.3a2.372,2.372,0,0,1,1.389,1.942v5.911a2.353,2.353,0,0,1-1.394,1.942l-56.348,32.542a7.446,7.446,0,0,1-6.73-.011L492.033,244.313a2.363,2.363,0,0,1-1.39-1.933C490.638,241.674,490.643,237.011,490.643,236.31Z" transform="translate(-490.641 -201.02)" opacity="0.5"/>
                <path id="Trazado_189423" data-name="Trazado 189423" d="M670.8,337.58l56.348-32.4c1.859-1.068,1.86-2.8.005-3.88l-172.022-99.48a7.435,7.435,0,0,0-6.724,0l-56.379,32.542c-1.855,1.075-1.855,2.814,0,3.889L664.075,337.57A7.463,7.463,0,0,0,670.8,337.58Z" transform="translate(-490.64 -201.02)" fill="#bddbf1"/>
                <path id="Trazado_189424" data-name="Trazado 189424" d="M587.783,292.252V298.3a6.937,6.937,0,0,0,3.158-.776l56.33-32.54a2.377,2.377,0,0,0,1.4-1.943v-5.926a2.379,2.379,0,0,1-1.4,1.941l-56.33,32.409A6.919,6.919,0,0,1,587.783,292.252Z" transform="translate(-410.765 -154.897)" fill="#0ddcf1"/>
                <path id="Trazado_189425" data-name="Trazado 189425" d="M587.783,292.252V298.3a6.937,6.937,0,0,0,3.158-.776l56.33-32.54a2.377,2.377,0,0,0,1.4-1.943v-5.926a2.379,2.379,0,0,1-1.4,1.941l-56.33,32.409A6.919,6.919,0,0,1,587.783,292.252Z" transform="translate(-410.765 -154.897)" opacity="0.7"/>
              </g>
              <g id="Grupo_128838" data-name="Grupo 128838" transform="translate(9.378 6.059)">
                <path id="Trazado_189426" data-name="Trazado 189426" d="M554.051,225.979l-6.423,3.706a.861.861,0,0,1-.41.1l-5.921-3.3,6.908-3.885Z" transform="translate(-458.366 -189.334)" fill="#113356"/>
                <path id="Trazado_189427" data-name="Trazado 189427" d="M549.806,223.524l-6.449,3.727a.82.82,0,0,1-.381.084l-.239-.016-5.682-3.282,6.908-3.881Z" transform="translate(-461.853 -191.345)" fill="#113356"/>
                <path id="Trazado_189428" data-name="Trazado 189428" d="M562.841,231.055l-6.447,3.723a.89.89,0,0,1-.377.082l-9.587-5.407,6.908-3.885Z" transform="translate(-454.146 -186.894)" fill="#113356"/>
                <path id="Trazado_189429" data-name="Trazado 189429" d="M565.431,232.55l-6.44,3.719a.861.861,0,0,1-.386.087l-5.926-3.295,6.908-3.887Z" transform="translate(-449.007 -183.928)" fill="#113356"/>
                <path id="Trazado_189430" data-name="Trazado 189430" d="M581.72,266.3l-5.92-3.3,6.906-3.881,5.844,3.375-6.451,3.721A.859.859,0,0,1,581.72,266.3Z" transform="translate(-429.996 -159.3)" fill="#113356"/>
                <path id="Trazado_189431" data-name="Trazado 189431" d="M569.672,235l-6.413,3.7a.8.8,0,0,1-.415.1l-5.924-3.295,6.91-3.883Z" transform="translate(-445.52 -181.915)" fill="#113356"/>
                <path id="Trazado_189432" data-name="Trazado 189432" d="M543.409,225.371l5.846,3.375-6.434,3.714a.844.844,0,0,1-.4.089l-5.922-3.3Z" transform="translate(-462.308 -187.056)" fill="#113356"/>
                <path id="Trazado_189433" data-name="Trazado 189433" d="M554.82,245.242l-5.924-3.3,6.91-3.883,5.846,3.373-6.44,3.717A.813.813,0,0,1,554.82,245.242Z" transform="translate(-452.118 -176.622)" fill="#113356"/>
                <path id="Trazado_189434" data-name="Trazado 189434" d="M538.187,230.105l-5.926-3.3,6.912-3.887,5.84,3.378-6.447,3.723A.9.9,0,0,1,538.187,230.105Z" transform="translate(-465.796 -189.072)" fill="#113356"/>
                <path id="Trazado_189435" data-name="Trazado 189435" d="M559.061,247.69l-5.924-3.3,6.908-3.885,5.846,3.375-6.413,3.7A.823.823,0,0,1,559.061,247.69Z" transform="translate(-448.631 -174.609)" fill="#113356"/>
                <path id="Trazado_189436" data-name="Trazado 189436" d="M563.3,250.138l-5.921-3.3,6.908-3.88,5.848,3.369-6.451,3.727A.876.876,0,0,1,563.3,250.138Z" transform="translate(-445.144 -172.595)" fill="#113356"/>
                <path id="Trazado_189437" data-name="Trazado 189437" d="M549.273,244.316l-12.426-7.052,15.633-8.931,6.664,3.845-8.173,4.718a.4.4,0,0,0-.231.335.363.363,0,0,0,.2.3l5.159,2.976-6.407,3.7A.791.791,0,0,1,549.273,244.316Z" transform="translate(-462.025 -184.621)" fill="#113356"/>
                <path id="Trazado_189438" data-name="Trazado 189438" d="M578.154,239.9l-6.44,3.721a.894.894,0,0,1-.387.084l-5.926-3.295,6.908-3.885Z" transform="translate(-438.546 -177.888)" fill="#113356"/>
                <path id="Trazado_189439" data-name="Trazado 189439" d="M550.583,242.794l-5.928-3.3,6.91-3.881,5.844,3.369-6.4,3.7A.857.857,0,0,1,550.583,242.794Z" transform="translate(-455.605 -178.634)" fill="#113356"/>
                <path id="Trazado_189440" data-name="Trazado 189440" d="M598.9,265.157l-5.922-3.3,6.91-3.885,5.844,3.378-6.414,3.7A.83.83,0,0,1,598.9,265.157Z" transform="translate(-415.875 -160.25)" fill="#113356"/>
                <path id="Trazado_189441" data-name="Trazado 189441" d="M612.082,259.483l-6.463,3.728a.946.946,0,0,1-.366.075l-.239-.015-5.683-3.282,6.91-3.88Z" transform="translate(-410.649 -161.781)" fill="#113356"/>
                <path id="Trazado_189442" data-name="Trazado 189442" d="M592.987,267.275l-.239-.015-5.684-3.282,6.908-3.881,5.846,3.371-6.451,3.727A.893.893,0,0,1,592.987,267.275Z" transform="translate(-420.733 -158.503)" fill="#113356"/>
                <path id="Trazado_189443" data-name="Trazado 189443" d="M590.2,271.2l-5.924-3.293,6.912-3.885,5.844,3.371-6.414,3.7A.827.827,0,0,1,590.2,271.2Z" transform="translate(-423.024 -155.274)" fill="#113356"/>
                <path id="Trazado_189444" data-name="Trazado 189444" d="M607.841,257.031l-6.449,3.725a.831.831,0,0,1-.381.084l-5.922-3.3L602,253.66Z" transform="translate(-414.136 -163.796)" fill="#113356"/>
                <path id="Trazado_189445" data-name="Trazado 189445" d="M585.96,268.757l-5.919-3.3,6.9-3.88,5.846,3.369-6.443,3.719A.842.842,0,0,1,585.96,268.757Z" transform="translate(-426.509 -157.286)" fill="#113356"/>
                <path id="Trazado_189446" data-name="Trazado 189446" d="M595.119,249.686l-6.442,3.721a.851.851,0,0,1-.388.086l-5.924-3.291,6.908-3.887Z" transform="translate(-424.598 -169.835)" fill="#113356"/>
                <path id="Trazado_189447" data-name="Trazado 189447" d="M590.88,247.236l-6.429,3.714a.854.854,0,0,1-.406.1l-5.92-3.3,6.91-3.88Z" transform="translate(-428.085 -171.847)" fill="#113356"/>
                <path id="Trazado_189448" data-name="Trazado 189448" d="M586.639,244.789l-6.414,3.7a.823.823,0,0,1-.417.1l-5.924-3.3,6.912-3.881Z" transform="translate(-431.572 -173.862)" fill="#113356"/>
                <path id="Trazado_189449" data-name="Trazado 189449" d="M599.363,252.134l-6.416,3.706a.81.81,0,0,1-.412.1l-5.93-3.295,6.91-3.885Z" transform="translate(-421.112 -167.822)" fill="#113356"/>
                <path id="Trazado_189450" data-name="Trazado 189450" d="M582.394,242.346l-6.445,3.721a.859.859,0,0,1-.381.084l-5.926-3.3,6.914-3.887Z" transform="translate(-435.059 -175.876)" fill="#113356"/>
                <path id="Trazado_189451" data-name="Trazado 189451" d="M603.6,254.584l-6.442,3.719a.925.925,0,0,1-.39.091l-5.922-3.3,6.912-3.881Z" transform="translate(-417.624 -165.808)" fill="#113356"/>
                <path id="Trazado_189452" data-name="Trazado 189452" d="M573.915,237.441l-6.456,3.732a.826.826,0,0,1-.372.082l-5.926-3.3,6.908-3.887Z" transform="translate(-442.033 -179.902)" fill="#113356"/>
                <path id="Trazado_189453" data-name="Trazado 189453" d="M563.319,236.86l-6.424,3.712a.937.937,0,0,1-.412.1l-.237-.018-5.68-3.278,6.9-3.883Z" transform="translate(-450.744 -180.381)" fill="#113356"/>
                <path id="Trazado_189454" data-name="Trazado 189454" d="M540.432,218.115l-6.418,3.708a.859.859,0,0,1-.408.1l-5.926-3.3,6.91-3.881Z" transform="translate(-469.563 -195.796)" fill="#113356"/>
                <path id="Trazado_189455" data-name="Trazado 189455" d="M536.193,215.67l-6.425,3.7a.8.8,0,0,1-.4.1l-5.926-3.295,6.91-3.887Z" transform="translate(-473.05 -197.81)" fill="#113356"/>
                <path id="Trazado_189456" data-name="Trazado 189456" d="M567.556,239.315l-6.425,3.708a.85.85,0,0,1-.4.1l-5.92-3.3,6.91-3.889Z" transform="translate(-447.258 -178.37)" fill="#113356"/>
                <path id="Trazado_189457" data-name="Trazado 189457" d="M531.949,213.222l-6.42,3.7a.84.84,0,0,1-.406.1l-5.924-3.3,6.908-3.885Z" transform="translate(-476.536 -199.823)" fill="#113356"/>
                <path id="Trazado_189458" data-name="Trazado 189458" d="M552.246,238.217l-.239-.015-5.682-3.278,6.906-3.883,5.847,3.373-6.423,3.7A.828.828,0,0,1,552.246,238.217Z" transform="translate(-454.232 -182.394)" fill="#113356"/>
                <path id="Trazado_189459" data-name="Trazado 189459" d="M535.641,220.879l-6.411,3.7a.806.806,0,0,1-.423.109l-5.919-3.3,6.9-3.881Z" transform="translate(-473.502 -193.52)" fill="#113356"/>
                <path id="Trazado_189460" data-name="Trazado 189460" d="M527.162,215.983l-6.411,3.7a.848.848,0,0,1-.423.111l-5.922-3.295,6.908-3.883Z" transform="translate(-480.477 -197.546)" fill="#113356"/>
                <path id="Trazado_189461" data-name="Trazado 189461" d="M524.568,222.242l-5.922-3.3,6.91-3.883,5.847,3.371-6.445,3.716A.812.812,0,0,1,524.568,222.242Z" transform="translate(-476.991 -195.533)" fill="#113356"/>
                <path id="Trazado_189462" data-name="Trazado 189462" d="M511.66,222.313a.979.979,0,0,1-.366.075l-.241-.018-5.68-3.28,15.639-8.925,5.848,3.373Z" transform="translate(-487.905 -199.56)" fill="#113356"/>
                <path id="Trazado_189463" data-name="Trazado 189463" d="M571.8,241.759l-6.422,3.706a.833.833,0,0,1-.41.1l-.239-.015-5.684-3.284,6.908-3.881Z" transform="translate(-443.771 -176.355)" fill="#113356"/>
                <path id="Trazado_189464" data-name="Trazado 189464" d="M519.776,225.006l-.241-.016-5.682-3.28,6.908-3.88,5.846,3.369-6.423,3.706A.848.848,0,0,1,519.776,225.006Z" transform="translate(-480.931 -193.257)" fill="#113356"/>
                <path id="Trazado_189465" data-name="Trazado 189465" d="M515.534,222.557l-5.922-3.3,6.91-3.88,5.846,3.373-6.4,3.692A.816.816,0,0,1,515.534,222.557Z" transform="translate(-484.419 -195.271)" fill="#113356"/>
                <path id="Trazado_189466" data-name="Trazado 189466" d="M593,254l-6.414,3.7a.868.868,0,0,1-.417.1l-5.92-3.295,6.906-3.883Z" transform="translate(-426.335 -166.288)" fill="#113356"/>
                <path id="Trazado_189467" data-name="Trazado 189467" d="M601.483,258.9l-6.411,3.7a.79.79,0,0,1-.415.106l-.239-.015-5.685-3.282,6.908-3.881Z" transform="translate(-419.362 -162.261)" fill="#113356"/>
                <path id="Trazado_189468" data-name="Trazado 189468" d="M584.5,262.381l-5.922-3.3,6.914-3.883,5.842,3.371-6.454,3.727A.927.927,0,0,1,584.5,262.381Z" transform="translate(-427.709 -162.529)" fill="#113356"/>
                <path id="Trazado_189469" data-name="Trazado 189469" d="M588.747,264.829l-5.924-3.295,6.912-3.885,5.842,3.375-6.449,3.721A.875.875,0,0,1,588.747,264.829Z" transform="translate(-424.221 -160.516)" fill="#113356"/>
                <path id="Trazado_189470" data-name="Trazado 189470" d="M580.265,259.931l-.239-.018-5.685-3.278,6.908-3.881,5.848,3.371-6.414,3.7A.864.864,0,0,1,580.265,259.931Z" transform="translate(-431.196 -164.541)" fill="#113356"/>
                <path id="Trazado_189471" data-name="Trazado 189471" d="M576.041,244.207l-6.431,3.71a.855.855,0,0,1-.4.1l-.239-.018-5.684-3.282,6.906-3.878Z" transform="translate(-440.283 -174.34)" fill="#113356"/>
                <path id="Trazado_189472" data-name="Trazado 189472" d="M571.784,255.032l-5.924-3.291,6.906-3.887,5.848,3.373-6.414,3.7A.8.8,0,0,1,571.784,255.032Z" transform="translate(-438.169 -168.57)" fill="#113356"/>
                <path id="Trazado_189473" data-name="Trazado 189473" d="M576.021,257.486l-5.921-3.3,6.908-3.883,5.846,3.373L576.4,257.4A.9.9,0,0,1,576.021,257.486Z" transform="translate(-434.682 -166.555)" fill="#113356"/>
                <path id="Trazado_189474" data-name="Trazado 189474" d="M584.525,249.1l-6.414,3.7a.817.817,0,0,1-.421.1l-5.92-3.293,6.908-3.887Z" transform="translate(-433.311 -170.316)" fill="#113356"/>
                <path id="Trazado_189475" data-name="Trazado 189475" d="M597.246,256.452l-6.414,3.7a.815.815,0,0,1-.417.106l-5.922-3.295,6.908-3.889Z" transform="translate(-422.849 -164.277)" fill="#113356"/>
                <path id="Trazado_189476" data-name="Trazado 189476" d="M580.284,246.657l-6.424,3.7a.832.832,0,0,1-.41.1l-5.922-3.3,6.91-3.883Z" transform="translate(-436.798 -172.329)" fill="#113356"/>
                <path id="Trazado_189477" data-name="Trazado 189477" d="M588.761,251.556l-6.411,3.7a.88.88,0,0,1-.419.106l-.241-.018-5.68-3.28,6.906-3.885Z" transform="translate(-429.823 -168.302)" fill="#113356"/>
                <path id="Trazado_189478" data-name="Trazado 189478" d="M567.545,252.588l-5.926-3.295,6.91-3.889,5.846,3.375-6.44,3.717A.832.832,0,0,1,567.545,252.588Z" transform="translate(-441.656 -170.583)" fill="#113356"/>
                <path id="Trazado_189479" data-name="Trazado 189479" d="M545.567,221.082l-6.451,3.721a.875.875,0,0,1-.381.086l-5.92-3.3,6.908-3.883Z" transform="translate(-465.341 -193.36)" fill="#113356"/>
                <path id="Trazado_189480" data-name="Trazado 189480" d="M610.481,258.558l5.846,3.371-6.453,3.723a.836.836,0,0,1-.379.084l-.241-.016-5.686-3.284Z" transform="translate(-407.163 -159.768)" fill="#113356"/>
                <path id="Trazado_189481" data-name="Trazado 189481" d="M604.123,260.421l8.69,5.018-6.449,3.723a.818.818,0,0,1-.379.084l-.241-.016-8.53-4.922Z" transform="translate(-412.388 -158.236)" fill="#113356"/>
                <path id="Trazado_189482" data-name="Trazado 189482" d="M615.626,254.811l7.067,4.078-6.424,3.71a.887.887,0,0,1-.41.1l-7.141-4Z" transform="translate(-402.929 -162.849)" fill="#113356"/>
                <path id="Trazado_189483" data-name="Trazado 189483" d="M595.429,266.471l7.063,4.082-6.411,3.7a.833.833,0,0,1-.417.1l-7.143-4Z" transform="translate(-419.536 -153.262)" fill="#113356"/>
                <path id="Trazado_189484" data-name="Trazado 189484" d="M598.217,262.547l10.724,6.19-6.449,3.721a.852.852,0,0,1-.383.086l-.239-.018-10.565-6.1Z" transform="translate(-417.247 -156.488)" fill="#113356"/>
                <path id="Trazado_189485" data-name="Trazado 189485" d="M608.556,258.479l-5.924-3.295,6.908-3.887,5.846,3.373-6.414,3.707A.858.858,0,0,1,608.556,258.479Z" transform="translate(-407.933 -165.739)" fill="#113356"/>
                <path id="Trazado_189486" data-name="Trazado 189486" d="M598.432,273.742l-6.418,3.706a.856.856,0,0,1-.408.1l-8.769-4.946,6.906-3.878Z" transform="translate(-424.21 -151.408)" fill="#113356"/>
                <path id="Trazado_189487" data-name="Trazado 189487" d="M604.313,256.031l-5.922-3.3,6.908-3.885,5.842,3.373-6.447,3.723A.85.85,0,0,1,604.313,256.031Z" transform="translate(-411.42 -167.751)" fill="#113356"/>
                <path id="Trazado_189488" data-name="Trazado 189488" d="M585.506,245.169l-.239-.015-5.686-3.28,6.908-3.883,5.844,3.371-6.427,3.712A.863.863,0,0,1,585.506,245.169Z" transform="translate(-426.886 -176.679)" fill="#113356"/>
                <path id="Trazado_189489" data-name="Trazado 189489" d="M581.263,242.724l-5.922-3.3,6.91-3.885,5.844,3.375-6.429,3.71A.845.845,0,0,1,581.263,242.724Z" transform="translate(-430.373 -178.694)" fill="#113356"/>
                <path id="Trazado_189490" data-name="Trazado 189490" d="M589.746,247.62l-.239-.015-5.684-3.282,6.906-3.887,5.846,3.378-6.414,3.7A.852.852,0,0,1,589.746,247.62Z" transform="translate(-423.398 -174.668)" fill="#113356"/>
                <path id="Trazado_189491" data-name="Trazado 189491" d="M595.833,251.131l-.239-.015-5.685-3.28,6.91-3.883,5.84,3.375-6.425,3.708A.825.825,0,0,1,595.833,251.131Z" transform="translate(-418.395 -171.777)" fill="#113356"/>
                <path id="Trazado_189492" data-name="Trazado 189492" d="M600.072,253.581l-5.922-3.3,6.908-3.883,5.844,3.375-6.44,3.717A.878.878,0,0,1,600.072,253.581Z" transform="translate(-414.908 -169.764)" fill="#113356"/>
                <path id="Trazado_189493" data-name="Trazado 189493" d="M512.776,224.288l-6.462,3.734a.962.962,0,0,1-.364.075l-.241-.016-5.684-3.282,6.906-3.885Z" transform="translate(-492.302 -190.722)" fill="#113356"/>
                <path id="Trazado_189494" data-name="Trazado 189494" d="M534.879,237.043l-6.414,3.7a.816.816,0,0,1-.417.113l-5.924-3.3,6.908-3.881Z" transform="translate(-474.132 -180.229)" fill="#113356"/>
                <path id="Trazado_189495" data-name="Trazado 189495" d="M524.747,231.2l-6.42,3.7a.836.836,0,0,1-.41.1l-.239-.015-13.412-7.739,6.906-3.885Z" transform="translate(-488.814 -188.707)" fill="#113356"/>
                <path id="Trazado_189496" data-name="Trazado 189496" d="M530.638,234.6l-6.409,3.7a.816.816,0,0,1-.425.106l-5.922-3.291,6.91-3.885Z" transform="translate(-477.619 -182.244)" fill="#113356"/>
                <path id="Trazado_189497" data-name="Trazado 189497" d="M526.4,232.148l-6.385,3.683a.779.779,0,0,1-.448.12l-5.92-3.289,6.908-3.885Z" transform="translate(-481.106 -184.256)" fill="#113356"/>
                <path id="Trazado_189498" data-name="Trazado 189498" d="M577.025,240.273l-.239-.016-5.685-3.28,6.908-3.883,5.846,3.373-6.414,3.7A.809.809,0,0,1,577.025,240.273Z" transform="translate(-433.86 -180.707)" fill="#113356"/>
                <path id="Trazado_189499" data-name="Trazado 189499" d="M511.426,215.7l5.846,3.377-15.2,8.772a.905.905,0,0,1-.366.075l-.239-.015-5.682-3.278Z" transform="translate(-495.787 -195.011)" fill="#113356"/>
                <path id="Trazado_189500" data-name="Trazado 189500" d="M586.984,267.135l-6.411,3.7a.829.829,0,0,1-.415.1l-7.141-4,6.9-3.887Z" transform="translate(-432.285 -156.072)" fill="#113356"/>
                <path id="Trazado_189501" data-name="Trazado 189501" d="M598.777,273.942l-6.4,3.694a.844.844,0,0,1-.426.111l-.24-.016-43.916-25.353,6.906-3.887Z" transform="translate(-453.026 -168.046)" fill="#113356"/>
                <path id="Trazado_189502" data-name="Trazado 189502" d="M577.48,263.858l-5.922-3.295,6.906-3.883,5.848,3.371-6.444,3.719A.876.876,0,0,1,577.48,263.858Z" transform="translate(-433.484 -161.312)" fill="#113356"/>
                <path id="Trazado_189503" data-name="Trazado 189503" d="M591.9,269.966l-6.412,3.7a.793.793,0,0,1-.414.108l-7.147-4,6.91-3.881Z" transform="translate(-428.25 -153.739)" fill="#113356"/>
                <path id="Trazado_189504" data-name="Trazado 189504" d="M556.857,249.734l-6.422,3.706a.858.858,0,0,1-.41.1l-.241-.018-6.9-3.98,6.912-3.885Z" transform="translate(-457.065 -170.375)" fill="#113356"/>
                <path id="Trazado_189505" data-name="Trazado 189505" d="M547.032,244.066l-6.434,3.719a.881.881,0,0,1-.4.087l-.239-.016-6.9-3.983,6.908-3.887Z" transform="translate(-465.138 -175.039)" fill="#113356"/>
                <path id="Trazado_189506" data-name="Trazado 189506" d="M551.945,246.9l-6.449,3.727a.921.921,0,0,1-.383.084L537.97,246.7l6.91-3.878Z" transform="translate(-461.102 -172.706)" fill="#113356"/>
                <path id="Trazado_189507" data-name="Trazado 189507" d="M542.858,241.655l-6.423,3.7a.829.829,0,0,1-.41.1l-.239-.016-8.528-4.926,6.908-3.883Z" transform="translate(-469.91 -177.794)" fill="#113356"/>
                <path id="Trazado_189508" data-name="Trazado 189508" d="M533.944,227.655l-.239-.016-5.685-3.282,6.91-3.885,5.844,3.375-6.434,3.716A.849.849,0,0,1,533.944,227.655Z" transform="translate(-469.283 -191.085)" fill="#113356"/>
                <path id="Trazado_189509" data-name="Trazado 189509" d="M528.6,235.634l-.239-.015-5.684-3.28,6.906-3.881,5.848,3.371-6.436,3.714A.814.814,0,0,1,528.6,235.634Z" transform="translate(-473.677 -184.518)" fill="#113356"/>
                <path id="Trazado_189510" data-name="Trazado 189510" d="M548.14,246.92l-16.089-9.17,6.908-3.881,16.012,9.241-6.455,3.726A.866.866,0,0,1,548.14,246.92Z" transform="translate(-465.969 -180.069)" fill="#113356"/>
                <path id="Trazado_189511" data-name="Trazado 189511" d="M519.224,230.223l-.241-.011-5.684-3.291,6.91-3.88,5.844,3.377-6.449,3.723A.843.843,0,0,1,519.224,230.223Z" transform="translate(-481.387 -188.971)" fill="#113356"/>
                <path id="Trazado_189512" data-name="Trazado 189512" d="M514.981,227.777l-.239-.018-5.682-3.282,6.906-3.881,5.846,3.375-6.434,3.714A.881.881,0,0,1,514.981,227.777Z" transform="translate(-484.872 -190.983)" fill="#113356"/>
                <path id="Trazado_189513" data-name="Trazado 189513" d="M547.8,246.721l-5.926-3.3,6.908-3.881,5.846,3.369-6.42,3.706A.807.807,0,0,1,547.8,246.721Z" transform="translate(-457.894 -175.405)" fill="#113356"/>
                <path id="Trazado_189514" data-name="Trazado 189514" d="M524.016,227.454l-.239-.016-5.682-3.278L525,220.278l5.846,3.373-6.405,3.694A.815.815,0,0,1,524.016,227.454Z" transform="translate(-477.444 -191.244)" fill="#113356"/>
                <path id="Trazado_189515" data-name="Trazado 189515" d="M569,258.962l-5.92-3.3,6.9-3.883,5.848,3.373-6.443,3.721A.87.87,0,0,1,569,258.962Z" transform="translate(-440.458 -165.34)" fill="#113356"/>
                <path id="Trazado_189516" data-name="Trazado 189516" d="M552.031,249.165l-5.917-3.295,6.9-3.883,5.846,3.373-6.464,3.728A.843.843,0,0,1,552.031,249.165Z" transform="translate(-454.405 -173.394)" fill="#113356"/>
                <path id="Trazado_189517" data-name="Trazado 189517" d="M573.239,261.405l-.241-.013-5.68-3.282,6.9-3.88,5.847,3.369-6.451,3.725A.873.873,0,0,1,573.239,261.405Z" transform="translate(-436.97 -163.326)" fill="#113356"/>
                <path id="Trazado_189518" data-name="Trazado 189518" d="M564.755,256.512l-5.92-3.293,6.906-3.885,5.848,3.371-6.471,3.732A.915.915,0,0,1,564.755,256.512Z" transform="translate(-443.946 -167.353)" fill="#113356"/>
                <path id="Trazado_189519" data-name="Trazado 189519" d="M560.516,254.063l-.239-.015-5.682-3.28,6.906-3.883,5.846,3.371-6.414,3.7A.863.863,0,0,1,560.516,254.063Z" transform="translate(-447.432 -169.366)" fill="#113356"/>
                <path id="Trazado_189520" data-name="Trazado 189520" d="M556.277,251.615l-.241-.016-5.684-3.28,6.908-3.881,5.848,3.369-6.451,3.727A.906.906,0,0,1,556.277,251.615Z" transform="translate(-450.92 -171.379)" fill="#113356"/>
                <path id="Trazado_189521" data-name="Trazado 189521" d="M566.7,234.31l-5.922-3.3,6.91-3.88,5.846,3.373-6.414,3.7A.816.816,0,0,1,566.7,234.31Z" transform="translate(-442.352 -185.608)" fill="#113356"/>
                <path id="Trazado_189522" data-name="Trazado 189522" d="M510.742,225.327l-.239-.015-5.685-3.282,6.912-3.883,5.844,3.375-6.449,3.723A.888.888,0,0,1,510.742,225.327Z" transform="translate(-488.361 -192.996)" fill="#113356"/>
                <path id="Trazado_189523" data-name="Trazado 189523" d="M558.214,229.413l-5.922-3.295,6.91-3.883,5.846,3.373-6.416,3.7A.832.832,0,0,1,558.214,229.413Z" transform="translate(-449.326 -189.635)" fill="#113356"/>
                <path id="Trazado_189524" data-name="Trazado 189524" d="M548.794,223.975l-5.92-3.293,6.908-3.887,5.846,3.377-6.424,3.7A.809.809,0,0,1,548.794,223.975Z" transform="translate(-457.07 -194.108)" fill="#113356"/>
                <path id="Trazado_189525" data-name="Trazado 189525" d="M553.032,226.424l-5.917-3.3,6.9-3.881,5.848,3.373-6.423,3.706A.831.831,0,0,1,553.032,226.424Z" transform="translate(-453.582 -192.094)" fill="#113356"/>
                <path id="Trazado_189526" data-name="Trazado 189526" d="M570.937,236.759l-5.921-3.295,6.906-3.885,5.844,3.375-6.429,3.708A.833.833,0,0,1,570.937,236.759Z" transform="translate(-438.863 -183.596)" fill="#113356"/>
                <path id="Trazado_189527" data-name="Trazado 189527" d="M562.453,231.863l-.239-.016-5.682-3.282,6.91-3.881,5.846,3.373-6.416,3.7A.836.836,0,0,1,562.453,231.863Z" transform="translate(-445.838 -187.622)" fill="#113356"/>
                <path id="Trazado_189528" data-name="Trazado 189528" d="M544.552,221.529l-5.919-3.3,6.906-3.885,5.846,3.377-6.423,3.7A.8.8,0,0,1,544.552,221.529Z" transform="translate(-460.557 -196.122)" fill="#113356"/>
                <path id="Trazado_189529" data-name="Trazado 189529" d="M527.926,209.671l-5.919-3.3,3.756-2.03,5.85,3.377-3.287,1.855A.86.86,0,0,1,527.926,209.671Z" transform="translate(-474.227 -204.345)" fill="#113356"/>
                <path id="Trazado_189530" data-name="Trazado 189530" d="M520.88,214.576l-5.922-3.3,6.906-3.881,5.846,3.371-6.418,3.706A.853.853,0,0,1,520.88,214.576Z" transform="translate(-480.024 -201.835)" fill="#113356"/>
                <path id="Trazado_189531" data-name="Trazado 189531" d="M540.649,217.017l-.241-.018-5.676-3.282,3.752-2.028,5.846,3.378-3.271,1.85A.828.828,0,0,1,540.649,217.017Z" transform="translate(-463.764 -198.306)" fill="#113356"/>
                <path id="Trazado_189532" data-name="Trazado 189532" d="M536.408,214.568l-.241-.016-5.676-3.284,3.75-2.026,5.849,3.377-3.3,1.866A.88.88,0,0,1,536.408,214.568Z" transform="translate(-467.251 -200.318)" fill="#113356"/>
                <path id="Trazado_189533" data-name="Trazado 189533" d="M532.169,212.118l-5.919-3.295,3.752-2.03,5.846,3.378-3.3,1.864A.9.9,0,0,1,532.169,212.118Z" transform="translate(-470.739 -202.332)" fill="#113356"/>
              </g>
            </g>
          </g>
        </g>
        <g id="Grupo_128879" data-name="Grupo 128879" transform="translate(468.29 105.195)">
          <g id="Speech_Bubble" data-name="Speech Bubble" transform="translate(0 97.04)">
            <g id="Speech_Bubble-2" data-name="Speech Bubble">
              <path id="Trazado_189621" data-name="Trazado 189621" d="M476.165,120.617,450.84,135.266a2.006,2.006,0,0,0-.9,1.567v30.951a1.961,1.961,0,0,0,.909,1.556l3.6,2.045a2.017,2.017,0,0,0,1.813-.005l25.324-14.655a1.993,1.993,0,0,0,.9-1.562V124.214a1.967,1.967,0,0,0-.909-1.558l-3.6-2.045A2.013,2.013,0,0,0,476.165,120.617Z" transform="translate(-442.021 -120.399)" fill="#d9980a"/>
              <path id="Trazado_189622" data-name="Trazado 189622" d="M456.256,164.38a2.068,2.068,0,0,1-1.815.007l-3.6-2.046a1.967,1.967,0,0,1-.909-1.556V129.833a1.862,1.862,0,0,1,.288-.92l5.4,3.1c-.168.279-.266.6-.266.111v30.945C455.354,164.381,455.722,164.686,456.256,164.38Z" transform="translate(-442.021 -113.399)" fill="#d9980a"/>
              <path id="Trazado_189623" data-name="Trazado 189623" d="M482.34,124.05c-.069-.456-.441-.623-.891-.359l-25.32,14.647a1.82,1.82,0,0,0-.638.678l-5.4-3.1a1.8,1.8,0,0,1,.621-.647l25.326-14.649a2.013,2.013,0,0,1,1.811-.005l3.6,2.041A1.99,1.99,0,0,1,482.34,124.05Z" transform="translate(-441.893 -120.399)" fill="#fff" opacity="0.4"/>
              <g id="Grupo_128877" data-name="Grupo 128877" transform="translate(0 3.168)">
                <path id="Trazado_189624" data-name="Trazado 189624" d="M451.031,147.864c-.569-.337-4.9-2.777-5.035-2.857a.841.841,0,0,1-.179-1.288l7.69-8.818,5.414,3.1-8.043,8.594A.852.852,0,0,0,451.031,147.864Z" transform="translate(-445.592 -111.644)" fill="#ffb30c"/>
                <path id="Trazado_189625" data-name="Trazado 189625" d="M451.031,147.864c-.569-.337-4.9-2.777-5.035-2.857a.841.841,0,0,1-.179-1.288l7.69-8.818,5.414,3.1-8.043,8.594A.852.852,0,0,0,451.031,147.864Z" transform="translate(-445.592 -111.644)" fill="#fff" opacity="0.4"/>
                <path id="Trazado_189626" data-name="Trazado 189626" d="M482.877,122.262l-25.324,14.647a1.987,1.987,0,0,0-.9,1.567V148.5l-8.049,8.59a.809.809,0,0,0,.516,1.385l7.533-.55h0v11.5c0,.578.4.813.9.525L482.877,155.3a1.988,1.988,0,0,0,.9-1.562V122.785C483.781,122.206,483.376,121.972,482.877,122.262Z" transform="translate(-443.318 -122.138)" fill="#ffb30c"/>
              </g>
            </g>
            <path id="X" d="M471.788,144.943l-5.15-3.892L472,130.815a1.946,1.946,0,1,0-3.448-1.808l-5.057,9.665-4.634-3.5a1.945,1.945,0,1,0-2.347,3.1l5.151,3.894-5.132,9.806a1.945,1.945,0,0,0,3.446,1.806l4.831-9.232,4.632,3.5a1.946,1.946,0,1,0,2.347-3.105Z" transform="translate(-437.248 -114.181)" fill="#fafafa"/>
          </g>
          <g id="Speech_Bubble-3" data-name="Speech Bubble" transform="translate(0 48.52)">
            <g id="Speech_Bubble-4" data-name="Speech Bubble">
              <path id="Trazado_189627" data-name="Trazado 189627" d="M456.256,137.753a2.086,2.086,0,0,1-1.815.011l-3.6-2.054c-.5-.275-.909-.975-.909-.771V103.99a3.008,3.008,0,0,1,.288-1.7l5.4,3.105a2.992,2.992,0,0,0-.266,1.669v30.946C455.354,137.756,455.722,138.059,456.256,137.753Z" transform="translate(-442.021 -86.773)" fill="#1a2e35"/>
              <path id="Trazado_189628" data-name="Trazado 189628" d="M482.34,97.423c-.069-.459-.441-.618-.891-.363l-25.32,14.653a1.834,1.834,0,0,0-.638.678l-5.4-3.105a1.8,1.8,0,0,1,.621-.643l25.326-14.651a2.024,2.024,0,0,1,1.811-.009l3.6,2.045A1.994,1.994,0,0,1,482.34,97.423Z" transform="translate(-441.893 -93.773)" fill="#375a64"/>
              <path id="Trazado_189629" data-name="Trazado 189629" d="M451.031,121.234c-.569-.337-4.9-2.775-5.035-2.854a.843.843,0,0,1-.179-1.29l7.69-8.814,5.414,3.1-8.043,8.6A.848.848,0,0,0,451.031,121.234Z" transform="translate(-445.592 -81.848)" fill="#375a64"/>
              <path id="Trazado_189630" data-name="Trazado 189630" d="M482.877,95.636l-25.324,14.647a1.994,1.994,0,0,0-.9,1.565v10.022l-8.049,8.59a.813.813,0,0,0,.516,1.39l7.533-.552h0v11.5c0,.574.4.813.9.523l25.324-14.649a2,2,0,0,0,.9-1.569V96.159C483.781,95.581,483.376,95.348,482.877,95.636Z" transform="translate(-443.318 -92.343)" fill="#2b454e"/>
            </g>
            <g id="_" data-name="&lt;/&gt;" transform="translate(16.408 17.104)">
              <path id="Trazado_189631" data-name="Trazado 189631" d="M454.6,116.469a1.369,1.369,0,0,1,.1-.552,3.707,3.707,0,0,1,.279-.512l5.224-8.444a.5.5,0,0,1,.086-.1.36.36,0,0,1,.057-.046.157.157,0,0,1,.2.007.353.353,0,0,1,.077.262v3.256a1.443,1.443,0,0,1-.149.678c-.1.184-.191.33-.266.445l-2.285,3.511,2.285.891a1.28,1.28,0,0,1,.266.124c.1.066.149.23.149.5v3.256a.8.8,0,0,1-.077.346.536.536,0,0,1-.2.235.194.194,0,0,1-.057.022.126.126,0,0,1-.086,0l-5.224-2.409a.771.771,0,0,1-.279-.19.7.7,0,0,1-.1-.439Z" transform="translate(-454.597 -100.177)" fill="#0ddcf1"/>
              <path id="Trazado_189632" data-name="Trazado 189632" d="M462.833,105.138a2.384,2.384,0,0,1,.2-.527.923.923,0,0,1,.379-.412l1.749-1.01a.152.152,0,0,1,.2.016.342.342,0,0,1,.084.261,1.041,1.041,0,0,1-.025.2l-4.413,18.809a2.4,2.4,0,0,1-.184.51.952.952,0,0,1-.392.425l-1.711.993a.156.156,0,0,1-.2-.022.328.328,0,0,1-.086-.259.747.747,0,0,1,.027-.195Z" transform="translate(-451.444 -103.159)" fill="#0ddcf1"/>
              <path id="Trazado_189633" data-name="Trazado 189633" d="M468.83,107.668a1.4,1.4,0,0,1-.1.547,3.821,3.821,0,0,1-.282.519l-5.224,8.439a.567.567,0,0,1-.084.1.6.6,0,0,1-.058.047.152.152,0,0,1-.2-.011.35.35,0,0,1-.077-.257V113.8a1.336,1.336,0,0,1,.149-.669c.1-.179.191-.328.266-.437l2.287-3.532-2.287-.873a.971.971,0,0,1-.266-.137c-.1-.069-.149-.239-.149-.5v-3.258a.805.805,0,0,1,.077-.348.54.54,0,0,1,.2-.233c.018-.009.038-.015.058-.024a.263.263,0,0,1,.084,0l5.224,2.411a.742.742,0,0,1,.282.191.718.718,0,0,1,.1.437Z" transform="translate(-447.843 -102.648)" fill="#0ddcf1"/>
            </g>
          </g>
          <g id="Speech_Bubble-5" data-name="Speech Bubble" transform="translate(0 0)">
            <g id="Speech_Bubble-6" data-name="Speech Bubble">
              <path id="Trazado_189634" data-name="Trazado 189634" d="M476.165,67.367,450.84,82.02c-.5.288-.9.986-.9,2.34v30.955c0-.206.406.494.909.774l3.6,2.046a2.023,2.023,0,0,0,1.813-.007l25.324-14.651a2,2,0,0,0,.9-1.567V70.957a1.98,1.98,0,0,0-.909-1.556l-3.6-2.041A2.013,2.013,0,0,0,476.165,67.367Z" transform="translate(-442.021 -67.146)" fill="#0ddcf1"/>
              <path id="Trazado_189635" data-name="Trazado 189635" d="M456.256,111.128a2.08,2.08,0,0,1-1.815.007l-3.6-2.048c-.5-.279-.909-.979-.909-.773V77.359a2.975,2.975,0,0,1,.288-1.7l5.4,3.1c-.168.281-.266.6-.266.111v30.949C455.354,111.131,455.722,111.432,456.256,111.128Z" transform="translate(-442.021 -60.146)" opacity="0.2"/>
              <path id="Trazado_189636" data-name="Trazado 189636" d="M482.34,70.8c-.069-.457-.441-.62-.891-.363l-25.32,14.653a1.862,1.862,0,0,0-.638.678l-5.4-3.1a1.785,1.785,0,0,1,.621-.647l25.326-14.651a2.036,2.036,0,0,1,1.811-.009l3.6,2.046A1.994,1.994,0,0,1,482.34,70.8Z" transform="translate(-441.893 -67.147)" fill="#fff" opacity="0.4"/>
              <g id="Grupo_128878" data-name="Grupo 128878" transform="translate(0 3.169)">
                <path id="Trazado_189637" data-name="Trazado 189637" d="M451.031,94.611c-.569-.337-4.9-2.773-5.035-2.855a.841.841,0,0,1-.179-1.288l7.69-8.822,5.414,3.109-8.043,8.592A.849.849,0,0,0,451.031,94.611Z" transform="translate(-445.592 -58.394)" fill="#0ddcf1"/>
                <path id="Trazado_189638" data-name="Trazado 189638" d="M451.031,94.611c-.569-.337-4.9-2.773-5.035-2.855a.841.841,0,0,1-.179-1.288l7.69-8.822,5.414,3.109-8.043,8.592A.849.849,0,0,0,451.031,94.611Z" transform="translate(-445.592 -58.394)" fill="#fff" opacity="0.4"/>
                <path id="Trazado_189639" data-name="Trazado 189639" d="M482.877,69.008,457.553,83.657a1.992,1.992,0,0,0-.9,1.565V95.247l-8.049,8.592a.808.808,0,0,0,.516,1.383l7.533-.549h0v11.5c0,.576.4.813.9.525l25.324-14.651a2,2,0,0,0,.9-1.567V69.528C483.781,68.955,483.376,68.722,482.877,69.008Z" transform="translate(-443.318 -68.886)" fill="#0ddcf1"/>
              </g>
            </g>
            <path id="Check" d="M472.525,73.776a2.252,2.252,0,0,0-2.947,1.2l-8.5,20.231-2.025-1.97a2.249,2.249,0,1,0-3.134,3.227l4.388,4.266a2.248,2.248,0,0,0,3.641-.74l9.782-23.27A2.254,2.254,0,0,0,472.525,73.776Z" transform="translate(-437.664 -61.84)" fill="#fafafa"/>
          </g>
        </g>
        <g id="Grupo_128880" data-name="Grupo 128880" transform="translate(823.065 72.794)">
          <path id="Trazado_189640" data-name="Trazado 189640" d="M673.659,98.153,654.8,87.262v4.264l18.864,10.892ZM671.945,107l-15.817-9.129v4.264l15.817,9.131Zm14.671-1.367-9.909-5.72v4.26l9.909,5.722ZM674.8,93.235l4.574,2.644V91.613L674.8,88.974Zm15.626-10.657,20.578,11.881V90.2L690.428,78.316ZM703,105.254,682.424,93.373v4.266L703,109.522Zm-20.387,12.173,20.581,11.883v-4.264l-20.581-11.883Zm24.963-19.371-7.431-4.291v4.264l7.431,4.293Zm-17.911,13.6,7.429,4.291v-4.264l-7.429-4.29ZM643.742,80.882l-3.459-2v4.264l3.459,2Zm31.252,32.145,4.572,2.639V111.4l-4.572-2.642ZM653.079,96.112l-12.8-7.389v4.264l12.8,7.387Zm7.812-34.849-12.956-7.482v4.266l12.956,7.48Zm-9.146,28.5V85.5l-4.955-2.859V86.9Zm35.443.784,9.908,5.722V92.007l-9.908-5.722ZM682.8,78.179l4.574,2.642V76.556L682.8,73.917ZM665.275,77.9l18.864,10.89v-4.26L665.275,73.635Zm-12.388-1.576-12.6-7.276v4.264l12.6,7.278ZM696.523,72v4.26l9.909,5.722V77.718Zm12.958,11.744,8.313,4.8V84.277l-8.313-4.8Zm8.313,75.937-17.648-10.194v4.266l17.648,10.188Zm-7.169-55.6,7.169,4.142v-4.264l-7.169-4.14Zm-4.574,7.2,11.743,6.782V113.8l-11.743-6.779Zm.19,19.79,11.553,6.669v-4.264L706.241,126.8Zm-6.1-13.357L717.794,127.9v-4.264l-17.648-10.192Zm13.909-21.49,3.739,2.159V94.117l-3.739-2.159ZM661.082,55.8l13.339,7.7V59.235l-13.339-7.7ZM697.1,147.728l-7.429-4.29V147.7l7.429,4.29ZM662.227,71.873l-10.482-6.05v4.264l10.482,6.05Zm-13.53-7.81L640.283,59.2V63.47l8.413,4.856Zm7.242,18.283,15.813,9.133V87.212l-15.813-9.131ZM644.884,52.021l-4.6-2.655V53.63l4.6,2.657Zm19.055,15.267,15.815,9.131V72.155l-15.815-9.131Zm13.528-2.03L693.476,74.5V70.236L677.468,61Zm28.584,83.168,11.743,6.781v-4.262l-11.743-6.779Zm-23.627-13.64L703,146.667V142.4l-20.577-11.881Zm-7.622-4.4,4.574,2.64V128.76l-4.574-2.639Zm-18.864-10.893,15.813,9.133v-4.266l-15.813-9.129Z" transform="translate(-640.283 -49.366)" fill="url(#radial-gradient)" style="mix-blend-mode: color-dodge;isolation: isolate"/>
          <path id="Uni칩n_1" data-name="Uni칩n 1" d="M0,79.664V75.4l46.247,26.951v4.262Zm0-8.733V66.667L46.247,93.616V97.88ZM0,53.463V49.2L46.247,76.148v4.264Zm0-9.842V39.357L46.247,66.308V70.57Zm0-9.839V29.519L46.247,56.469v4.264Zm0-9.839V19.68L46.247,46.629v4.264ZM0,14.1V9.84L46.247,36.787v4.266ZM0,4.266V0L46.247,26.951v4.261Z" transform="translate(80.677 36.963)" fill="url(#linear-gradient)" style="mix-blend-mode: screen;isolation: isolate"/>
        </g>
        <g id="Grupo_128881" data-name="Grupo 128881" transform="translate(512.894 20.874)">
          <path id="Trazado_189649" data-name="Trazado 189649" d="M523.684,75.019a29.928,29.928,0,0,1-1.629-2.81l-4.062-1.228-.4-1.02a34.067,34.067,0,0,1-1.684-5.638l-.487-2.393,3.765-.476v-.1c0-.408.018-.824.058-1.252l-3.6-4.6.288-1.086a12.612,12.612,0,0,1,1.926-4.188l1.438-1.994,4.195,3.577-.58-3.118L470.07,20.874V48.948l53.062,28.4Z" transform="translate(-470.07 -20.874)" fill="url(#linear-gradient-2)" style="mix-blend-mode: screen;isolation: isolate"/>
          <path id="Trazado_189650" data-name="Trazado 189650" d="M522.524,62.072a17,17,0,0,0-.146-2.083l3.471-.439a31.331,31.331,0,0,0-1.574-5.257l-3.956-1.2a27.871,27.871,0,0,0-2.462-4.248l.947-3.991a31.889,31.889,0,0,0-3.788-3.994l-2.13,2.755a17.229,17.229,0,0,0-1.74-1.174,13.451,13.451,0,0,0-1.74-.836L507.277,36.4a10.6,10.6,0,0,0-3.79-.383l.948,5.088a5.423,5.423,0,0,0-2.462,1.4l-3.956-3.371a10.362,10.362,0,0,0-1.574,3.439l3.473,4.448a13.154,13.154,0,0,0-.148,1.913,16.973,16.973,0,0,0,.148,2.083l-3.473.439a31.548,31.548,0,0,0,1.574,5.257l3.956,1.2a27.7,27.7,0,0,0,2.462,4.246l-.948,3.993a31.5,31.5,0,0,0,3.79,3.994l2.128-2.755a17.214,17.214,0,0,0,1.74,1.172,13.478,13.478,0,0,0,1.74.838l2.13,5.213a10.541,10.541,0,0,0,3.788.383l-.947-5.088a5.42,5.42,0,0,0,2.462-1.4l3.956,3.373a10.3,10.3,0,0,0,1.574-3.44l-3.471-4.448A13.165,13.165,0,0,0,522.524,62.072Zm-11.378-1.327a10.067,10.067,0,0,1-4.57-7.881c0-2.9,2.046-4.062,4.57-2.6a10.062,10.062,0,0,1,4.568,7.881C515.714,61.037,513.67,62.2,511.146,60.746Z" transform="translate(-448.386 -8.456)" fill="#9f19ab" opacity="0.5" style="mix-blend-mode: color-dodge;isolation: isolate"/>
        </g>
        <g id="Grupo_128882" data-name="Grupo 128882" transform="translate(793.685 395.589)">
          <path id="Trazado_189651" data-name="Trazado 189651" d="M677.774,280.652a29.743,29.743,0,0,1-1.629-2.81l-4.062-1.228-.4-1.02A33.79,33.79,0,0,1,670,269.955l-.487-2.391,3.767-.477v-.1c0-.406.016-.824.057-1.25l-3.6-4.6.29-1.084a12.6,12.6,0,0,1,1.924-4.189l1.438-1.994,4.195,3.577-.578-3.118L624.16,226.507v28.075l53.064,28.4Z" transform="translate(-624.16 -226.507)" fill="url(#linear-gradient-3)" style="mix-blend-mode: screen;isolation: isolate"/>
          <path id="Trazado_189652" data-name="Trazado 189652" d="M676.613,267.705a16.95,16.95,0,0,0-.146-2.081l3.471-.441a31.309,31.309,0,0,0-1.574-5.255l-3.956-1.2a28.088,28.088,0,0,0-2.46-4.248l.946-3.991a31.743,31.743,0,0,0-3.789-3.994l-2.13,2.755a16.726,16.726,0,0,0-1.74-1.172,13.115,13.115,0,0,0-1.74-.836l-2.128-5.215a10.6,10.6,0,0,0-3.79-.383l.948,5.088a5.442,5.442,0,0,0-2.462,1.4l-3.956-3.371a10.342,10.342,0,0,0-1.573,3.439L654,252.654a13.174,13.174,0,0,0-.148,1.913A16.973,16.973,0,0,0,654,256.65l-3.471.439a31.324,31.324,0,0,0,1.573,5.257l3.956,1.2a27.819,27.819,0,0,0,2.462,4.246l-.948,3.993a31.517,31.517,0,0,0,3.79,3.994l2.128-2.755a17.43,17.43,0,0,0,1.74,1.173,13.834,13.834,0,0,0,1.74.838l2.13,5.212a10.5,10.5,0,0,0,3.789.383l-.946-5.088a5.418,5.418,0,0,0,2.46-1.4l3.956,3.371a10.288,10.288,0,0,0,1.574-3.44l-3.471-4.448A13.165,13.165,0,0,0,676.613,267.705Zm-11.378-1.325a10.073,10.073,0,0,1-4.57-7.881c0-2.9,2.046-4.064,4.57-2.606a10.062,10.062,0,0,1,4.57,7.881C669.805,266.67,667.761,267.838,665.235,266.381Z" transform="translate(-602.475 -214.089)" fill="#9f19ab" opacity="0.5" style="mix-blend-mode: color-dodge;isolation: isolate"/>
        </g>
      </g>
    </g>
    <rect id="Rect치ngulo_293915" data-name="Rect치ngulo 293915" width="610" height="477" transform="translate(814.631 85)" fill="none"/>
  </g>
</svg>
