<svg xmlns="http://www.w3.org/2000/svg" width="104.965" height="72.598" viewBox="0 0 104.965 72.598">
  <g id="Grupo_131778" data-name="Grupo 131778" transform="translate(12467.542 11972.482)">
    <path id="Trazado_189653" data-name="Trazado 189653" d="M421.963,246.893l.025,13.165a1.282,1.282,0,0,0,1.181,1.259l9,.565,0,12.684h0a.764.764,0,0,0,.44.641l9.486,5.483a2.444,2.444,0,0,0,1.2.247v.015a2.234,2.234,0,0,0,.9-.168l9.618-4.457a3.516,3.516,0,0,1,2.2-.13,56.964,56.964,0,0,0,7.467,1.774,1.816,1.816,0,0,1,1.389,1.351l1.206,6.336a1.421,1.421,0,0,0,.519.831v0a1.416,1.416,0,0,0,.884.331l13.951,0a1.4,1.4,0,0,0,.8-.3,1.2,1.2,0,0,0,.18-.163,1.892,1.892,0,0,0,.193-.17v-.147c.077-.132.207-.233.234-.383l1.2-6.336a1.819,1.819,0,0,1,1.389-1.351A57.038,57.038,0,0,0,492.9,276.2a3.522,3.522,0,0,1,2.2.13l9.618,4.457a2.176,2.176,0,0,0,.58.094v.069a3.374,3.374,0,0,0,.339-.008c.09,0,.161,0,.249-.006a2.221,2.221,0,0,0,.909-.237l.021-.006,9.49-5.483a.892.892,0,0,0,.337-.32l.017-.017a.583.583,0,0,0,.075-.249c0-.017.013-.027.013-.038h0l0-3.024.006-2.249,0-.126v-.013h0l0-6.61-.377-.645.507-.034,8.7-.557.165-.01c.09-.006.145-.084.226-.107a1.26,1.26,0,0,0,.6-.291c.113-.115.122-.293.184-.446.056-.134.165-.245.167-.4v-.013h0l0-7.052V253l0-4.947v-7.062a1.277,1.277,0,0,0-1.181-1.254l-9.006-.572.006-12.663-.006.015a.768.768,0,0,0-.436-.681l-9.488-5.475a2.56,2.56,0,0,0-2.1-.1l-9.617,4.459a3.551,3.551,0,0,1-2.2.13,57.258,57.258,0,0,0-7.467-1.778,1.817,1.817,0,0,1-1.391-1.345l-1.2-6.34a1.486,1.486,0,0,0-1.4-1.162H467.483a1.487,1.487,0,0,0-1.4,1.162l-1.2,6.34a1.815,1.815,0,0,1-1.389,1.345,57.152,57.152,0,0,0-7.465,1.778,3.551,3.551,0,0,1-2.2-.13l-9.618-4.459a2.56,2.56,0,0,0-2.1.1l-9.488,5.475a.754.754,0,0,0-.436.695l-.006-.006,0,12.64-9,.572a1.276,1.276,0,0,0-1.181,1.257v5.649A1.213,1.213,0,0,0,421.963,246.893Zm36.466,4.476c8.851-5.112,23.2-5.112,32.057,0,.668.387,1.288.783,1.862,1.183a18.955,18.955,0,0,1-1.86,1.221c-8.853,5.112-23.208,5.113-32.059,0a18.794,18.794,0,0,1-1.853-1.215A22.009,22.009,0,0,1,458.429,251.369Z" transform="translate(-12889.505 -12186.709)" fill="#0ddcf1"/>
    <path id="Trazado_189654" data-name="Trazado 189654" d="M421.963,246.893l.025,13.165a1.282,1.282,0,0,0,1.181,1.259l9,.565,0,12.684h0a.764.764,0,0,0,.44.641l9.486,5.483a2.444,2.444,0,0,0,1.2.247v.015a2.234,2.234,0,0,0,.9-.168l9.618-4.457a3.516,3.516,0,0,1,2.2-.13,56.964,56.964,0,0,0,7.467,1.774,1.816,1.816,0,0,1,1.389,1.351l1.206,6.336a1.421,1.421,0,0,0,.519.831v0a1.416,1.416,0,0,0,.884.331l13.951,0a1.4,1.4,0,0,0,.8-.3,1.2,1.2,0,0,0,.18-.163,1.892,1.892,0,0,0,.193-.17v-.147c.077-.132.207-.233.234-.383l1.2-6.336a1.819,1.819,0,0,1,1.389-1.351A57.038,57.038,0,0,0,492.9,276.2a3.522,3.522,0,0,1,2.2.13l9.618,4.457a2.176,2.176,0,0,0,.58.094v.069a3.374,3.374,0,0,0,.339-.008c.09,0,.161,0,.249-.006a2.221,2.221,0,0,0,.909-.237l.021-.006,9.49-5.483a.892.892,0,0,0,.337-.32l.017-.017a.583.583,0,0,0,.075-.249c0-.017.013-.027.013-.038h0l0-3.024.006-2.249,0-.126v-.013h0l0-6.61-.377-.645.507-.034,8.7-.557.165-.01c.09-.006.145-.084.226-.107a1.26,1.26,0,0,0,.6-.291c.113-.115.122-.293.184-.446.056-.134.165-.245.167-.4v-.013h0l0-7.052V253l0-4.947v-7.062a1.277,1.277,0,0,0-1.181-1.254l-9.006-.572.006-12.663-.006.015a.768.768,0,0,0-.436-.681l-9.488-5.475a2.56,2.56,0,0,0-2.1-.1l-9.617,4.459a3.551,3.551,0,0,1-2.2.13,57.258,57.258,0,0,0-7.467-1.778,1.817,1.817,0,0,1-1.391-1.345l-1.2-6.34a1.486,1.486,0,0,0-1.4-1.162H467.483a1.487,1.487,0,0,0-1.4,1.162l-1.2,6.34a1.815,1.815,0,0,1-1.389,1.345,57.152,57.152,0,0,0-7.465,1.778,3.551,3.551,0,0,1-2.2-.13l-9.618-4.459a2.56,2.56,0,0,0-2.1.1l-9.488,5.475a.754.754,0,0,0-.436.695l-.006-.006,0,12.64-9,.572a1.276,1.276,0,0,0-1.181,1.257v5.649A1.213,1.213,0,0,0,421.963,246.893Zm36.466,4.476c8.851-5.112,23.2-5.112,32.057,0,.668.387,1.288.783,1.862,1.183a18.955,18.955,0,0,1-1.86,1.221c-8.853,5.112-23.208,5.113-32.059,0a18.794,18.794,0,0,1-1.853-1.215A22.009,22.009,0,0,1,458.429,251.369Z" transform="translate(-12889.505 -12186.709)" opacity="0.2"/>
    <path id="Trazado_189655" data-name="Trazado 189655" d="M504.7,220.263l-9.617,4.459a3.551,3.551,0,0,1-2.2.13,57.254,57.254,0,0,0-7.467-1.778,1.817,1.817,0,0,1-1.391-1.345l-1.2-6.34a1.485,1.485,0,0,0-1.4-1.162H467.47a1.487,1.487,0,0,0-1.4,1.162l-1.2,6.34a1.815,1.815,0,0,1-1.389,1.345,57.154,57.154,0,0,0-7.465,1.778,3.55,3.55,0,0,1-2.2-.13l-9.618-4.459a2.56,2.56,0,0,0-2.1.1l-9.488,5.475a.707.707,0,0,0-.063,1.284l7.519,5.412a1.007,1.007,0,0,1,.14,1.546,18.779,18.779,0,0,0-2.685,3.722,2.329,2.329,0,0,1-1.709,1.135l-12.644.8a1.276,1.276,0,0,0-1.181,1.257v7.054a1.274,1.274,0,0,0,1.181,1.255l12.642.8a2.343,2.343,0,0,1,1.709,1.137,18.858,18.858,0,0,0,2.687,3.724,1,1,0,0,1-.14,1.544l-7.519,5.408a.709.709,0,0,0,.063,1.286l9.488,5.477a2.568,2.568,0,0,0,2.1.1l9.617-4.459a3.55,3.55,0,0,1,2.2-.13,56.959,56.959,0,0,0,7.467,1.778,1.808,1.808,0,0,1,1.389,1.349l1.2,6.334a1.481,1.481,0,0,0,1.4,1.164H481.42a1.483,1.483,0,0,0,1.407-1.164l1.2-6.338a1.812,1.812,0,0,1,1.389-1.345,56.881,56.881,0,0,0,7.467-1.778,3.55,3.55,0,0,1,2.2.13l9.618,4.459a2.568,2.568,0,0,0,2.1-.1l9.488-5.477a.709.709,0,0,0,.063-1.286l-7.519-5.408a1,1,0,0,1-.14-1.544,18.849,18.849,0,0,0,2.685-3.724,2.347,2.347,0,0,1,1.707-1.137l12.646-.8a1.276,1.276,0,0,0,1.181-1.255v-7.058a1.277,1.277,0,0,0-1.181-1.254l-12.646-.8a2.329,2.329,0,0,1-1.707-1.135,18.7,18.7,0,0,0-2.685-3.722,1.006,1.006,0,0,1,.14-1.546l7.519-5.412a.708.708,0,0,0-.063-1.284l-9.488-5.475A2.56,2.56,0,0,0,504.7,220.263Zm-14.229,15c8.851,5.112,8.851,13.4,0,18.508s-23.208,5.113-32.059,0-8.851-13.4,0-18.508S481.623,230.151,490.475,235.265Z" transform="translate(-12889.492 -12186.709)" fill="#0ddcf1"/>
    <path id="Trazado_189656" data-name="Trazado 189656" d="M473.1,245.765l-3.785-2.721v-8.962a1.777,1.777,0,0,1,.522-.126l12.644-.8a1.27,1.27,0,0,0,1.181-1.255v12.03a1.288,1.288,0,0,1-1.181,1.24h-.006l-.161.01-7.188.457-2.027.13Z" transform="translate(-12846.238 -12170.563)" opacity="0.15"/>
    <path id="Trazado_189657" data-name="Trazado 189657" d="M459.8,240.3a3.058,3.058,0,0,1,.725.193l9.613,4.455a2.49,2.49,0,0,0,1.236.159v12.011a3.046,3.046,0,0,1-.647,0h-.008v-.063a2.14,2.14,0,0,1-.582-.094l-9.62-4.457a2.952,2.952,0,0,0-.718-.163Z" transform="translate(-12854.93 -12162.886)" opacity="0.15"/>
    <path id="Trazado_189658" data-name="Trazado 189658" d="M453.677,248.983a1.236,1.236,0,0,0,.18-.452l1.2-6.338a1.534,1.534,0,0,1,.189-.48v12.024a1.456,1.456,0,0,0-.189.469l-1.2,6.336a.731.731,0,0,1-.18.3Z" transform="translate(-12860.526 -12161.594)" opacity="0.15"/>
    <path id="Trazado_189659" data-name="Trazado 189659" d="M444.288,241.715a1.59,1.59,0,0,1,.186.477l1.206,6.338a1.23,1.23,0,0,0,.182.455v12.009a1.3,1.3,0,0,1-.182-.454l-1.206-6.336a1.235,1.235,0,0,0-.186-.432Z" transform="translate(-12869.105 -12161.592)" opacity="0.15"/>
    <path id="Trazado_189660" data-name="Trazado 189660" d="M432.938,245.106a2.458,2.458,0,0,0,1.231-.159l9.62-4.455a3.058,3.058,0,0,1,.725-.193v12.018a2.666,2.666,0,0,0-.725.186l-9.62,4.457a2.218,2.218,0,0,1-.9.172v-.019a2.786,2.786,0,0,1-.335-.012Z" transform="translate(-12879.477 -12162.886)" opacity="0.15"/>
  </g>
</svg>
