<svg xmlns="http://www.w3.org/2000/svg" width="236.368" height="308.393" viewBox="0 0 236.368 308.393">
  <g id="Grupo_131775" data-name="Grupo 131775" transform="translate(12301.813 12279.03)">
    <g id="Grupo_128852" data-name="Grupo 128852" transform="translate(-12301.813 -12279.03)">
      <g id="Grupo_128846" data-name="Grupo 128846">
        <g id="Grupo_128843" data-name="Grupo 128843" transform="translate(0 2.505)">
          <g id="Grupo_128840" data-name="Grupo 128840">
            <g id="Grupo_128839" data-name="Grupo 128839">
              <path id="Trazado_189534" data-name="Trazado 189534" d="M524.671,51.031V217.962a7.665,7.665,0,0,0,3.471,6.01l225,130.145a2.221,2.221,0,0,0,1.148.328,2.051,2.051,0,0,0,.445-.057,1.244,1.244,0,0,0,.3-.1c.067-.035.124-.071.182-.1s.135-.093.2-.137a1.314,1.314,0,0,0,.193-.169,2.7,2.7,0,0,0,.636-.911,4.335,4.335,0,0,0,.364-1.753V185.123a7.679,7.679,0,0,0-3.469-6.006l-225-130.089a2.517,2.517,0,0,0-2.334-.3,1.564,1.564,0,0,0-.3.173l-.024.02a1.205,1.205,0,0,0-.226.226.746.746,0,0,0-.1.126.627.627,0,0,0-.113.186,1.474,1.474,0,0,0-.2.441,1.186,1.186,0,0,0-.08.308.077.077,0,0,0-.013.067,1.493,1.493,0,0,0-.055.319C524.682,50.734,524.671,50.882,524.671,51.031Z" transform="translate(-524.671 -48.56)" fill="#ffb30c"/>
              <path id="Trazado_189535" data-name="Trazado 189535" d="M526.63,50.384a1.5,1.5,0,0,1,.6.222l225,130.089a5.928,5.928,0,0,1,2.558,4.428V351.214a2.524,2.524,0,0,1-.206,1.013.929.929,0,0,1-.2.308l-.062.055-.049.033-.007,0a.682.682,0,0,1-.21-.084l-225-130.147a5.846,5.846,0,0,1-2.558-4.432V51.031a1.9,1.9,0,0,1,.011-.2l.036-.066.015-.149.075-.233M526.6,48.56a1.842,1.842,0,0,0-.793.171,1.564,1.564,0,0,0-.3.173l-.024.02a1.205,1.205,0,0,0-.226.226.747.747,0,0,0-.1.126.627.627,0,0,0-.113.186,1.474,1.474,0,0,0-.2.441,1.186,1.186,0,0,0-.08.308.077.077,0,0,0-.013.067,1.493,1.493,0,0,0-.055.319c-.013.137-.024.284-.024.434V217.962a7.665,7.665,0,0,0,3.471,6.01l225,130.145a2.272,2.272,0,0,0,1.1.328h.046a2.051,2.051,0,0,0,.445-.057,1.243,1.243,0,0,0,.3-.1c.067-.035.124-.071.182-.1s.135-.093.2-.137a1.313,1.313,0,0,0,.193-.169,2.7,2.7,0,0,0,.636-.911,4.335,4.335,0,0,0,.364-1.753V185.123a7.679,7.679,0,0,0-3.469-6.006l-225-130.089a3.18,3.18,0,0,0-1.542-.468Z" transform="translate(-524.671 -48.56)" fill="#ffb30c"/>
            </g>
          </g>
        </g>
        <g id="Grupo_128844" data-name="Grupo 128844" transform="translate(0.007)">
          <path id="Trazado_189537" data-name="Trazado 189537" d="M525.3,49.862a2.517,2.517,0,0,1,2.334.3l225,130.089a7.679,7.679,0,0,1,3.47,6.006V197.59l4.428-2.6V183.743a7.65,7.65,0,0,0-3.46-6L532.056,47.653a2.41,2.41,0,0,0-2.515-.2C528.914,47.825,526.037,49.476,525.3,49.862Z" transform="translate(-524.165 -47.185)" fill="#0ddcf1"/>
          <path id="Trazado_189538" data-name="Trazado 189538" d="M524.675,51.006c.015-2.189,1.558-3.072,3.464-1.975l225,130.091a7.661,7.661,0,0,1,3.466,6l0,11.34L524.675,62.386Z" transform="translate(-524.675 -46.055)" fill="#0ddcf1"/>
          <path id="Trazado_189539" data-name="Trazado 189539" d="M527.625,50.161,752.616,180.248a7.112,7.112,0,0,1,2.442,2.575l4.4-2.553a6.893,6.893,0,0,0-2.413-2.527l-225-130.091a2.433,2.433,0,0,0-2.518-.2c-.621.381-3.5,2.017-4.23,2.409A2.51,2.51,0,0,1,527.625,50.161Z" transform="translate(-524.159 -47.185)" fill="#fff" opacity="0.4"/>
          <path id="Trazado_189540" data-name="Trazado 189540" d="M656.852,134.955l0-11.267a7.159,7.159,0,0,0-1.055-3.47l-4.415,2.54a7.011,7.011,0,0,1,1.035,3.446v11.338Z" transform="translate(-420.491 12.867)" opacity="0.15"/>
        </g>
        <g id="Grupo_128845" data-name="Grupo 128845" transform="translate(4.825 9.496)">
          <path id="Trazado_189541" data-name="Trazado 189541" d="M537.018,57.078a5.172,5.172,0,0,1,1.957,4.147c0,1.664-.876,2.509-1.957,1.882a5.159,5.159,0,0,1-1.959-4.142C535.059,57.3,535.935,56.454,537.018,57.078Z" transform="translate(-520.955 -48.716)" fill="#375a64"/>
          <path id="Trazado_189542" data-name="Trazado 189542" d="M533.148,54.841a5.164,5.164,0,0,1,1.957,4.144c0,1.666-.877,2.509-1.957,1.888a5.178,5.178,0,0,1-1.959-4.147C531.189,55.06,532.067,54.215,533.148,54.841Z" transform="translate(-524.137 -50.556)" fill="#375a64"/>
          <path id="Trazado_189543" data-name="Trazado 189543" d="M529.278,52.6a5.168,5.168,0,0,1,1.959,4.147c0,1.662-.877,2.507-1.959,1.882a5.16,5.16,0,0,1-1.959-4.144C527.319,52.82,528.2,51.978,529.278,52.6Z" transform="translate(-527.319 -52.396)" fill="#375a64"/>
        </g>
        <path id="Trazado_189544" data-name="Trazado 189544" d="M651.252,288.561c.126-.078.273-.159.434-.248.319-.195.682-.4,1.068-.6l.011-.011c.193-.113.386-.231.581-.33a.1.1,0,0,1,.046-.026c.319-.179.625-.361.909-.521l.764-.434c.2-.124.363-.2.432-.237a1.949,1.949,0,0,0,.592-.476,2.78,2.78,0,0,0,.466-.709,4.3,4.3,0,0,0,.4-1.833V128.3l-4.428,2.6V285.649a5.125,5.125,0,0,1-.364,1.753,2.7,2.7,0,0,1-.636.911.585.585,0,0,1-.193.169A.276.276,0,0,1,651.252,288.561Z" transform="translate(-420.589 19.511)" fill="#2b454e" opacity="0.9"/>
      </g>
    </g>
    <g id="Grupo_131728" data-name="Grupo 131728" transform="translate(-12251.347 -12179.335)">
      <g id="Grupo_128847" data-name="Grupo 128847" transform="translate(106.253 54.943)">
        <path id="Trazado_189545" data-name="Trazado 189545" d="M610.674,164.159s8.189-5.292,9.248-5.326l23.268-.729-9.25,4.92v.408Z" transform="translate(-610.674 -110.62)" fill="#1a2e35"/>
        <path id="Trazado_189546" data-name="Trazado 189546" d="M610.674,202.527V183.182l23.267-.727v-.408l-23.267-27.735V134.969l39.9,49.6v14.576Z" transform="translate(-610.674 -129.643)" fill="#fafafa"/>
        <path id="Trazado_189547" data-name="Trazado 189547" d="M610.674,137.373l9.248-5.326,39.9,49.592-9.25,5.33Z" transform="translate(-610.674 -132.046)" fill="#375a64"/>
        <path id="Trazado_189548" data-name="Trazado 189548" d="M641.82,159.261v14.576l-9.25,5.33V164.591Z" transform="translate(-592.669 -109.669)" fill="#2b454e"/>
      </g>
      <g id="Grupo_128848" data-name="Grupo 128848" transform="translate(51.666)">
        <path id="Trazado_189549" data-name="Trazado 189549" d="M580.718,104.819l11.945,6.9,30.876,113.171-12.386-7.152Z" transform="translate(-580.718 -99.491)" fill="#fafafa"/>
        <path id="Trazado_189550" data-name="Trazado 189550" d="M580.718,107.223l9.249-5.328,11.944,6.9-9.25,5.328Z" transform="translate(-580.718 -101.895)" fill="#375a64"/>
        <path id="Trazado_189551" data-name="Trazado 189551" d="M596.522,105.679l-9.25,5.328,30.878,113.17,9.248-5.33Z" transform="translate(-575.328 -98.783)" fill="#2b454e"/>
      </g>
      <g id="Grupo_128850" data-name="Grupo 128850" transform="translate(0 16.634)">
        <path id="Trazado_189552" data-name="Trazado 189552" d="M594.009,150.12l-9.249,5.33-23.266-28.008,9.25-5.328Z" transform="translate(-544.859 -101.904)" fill="#1a2e35"/>
        <g id="Grupo_128849" data-name="Grupo 128849" transform="translate(0 5.332)">
          <path id="Trazado_189553" data-name="Trazado 189553" d="M569,134.562l23.267,27.6V181.5l-39.9-49.46V117.471l39.9-3.522v19.338L569,134.156Z" transform="translate(-552.365 -113.949)" fill="#fafafa"/>
        </g>
        <path id="Trazado_189554" data-name="Trazado 189554" d="M601.514,111.023l-9.249,5.331-39.9,3.524,9.25-5.331Z" transform="translate(-552.365 -111.023)" fill="#375a64"/>
        <path id="Trazado_189555" data-name="Trazado 189555" d="M574.261,116.354v19.338l9.249-5.33v-19.34" transform="translate(-534.361 -111.023)" fill="#2b454e"/>
        <path id="Trazado_189556" data-name="Trazado 189556" d="M583.51,137.483l-9.249,5.33v19.338l9.249-5.328Z" transform="translate(-534.361 -89.266)" fill="#2b454e"/>
      </g>
    </g>
  </g>
</svg>
