<?xml version="1.0" encoding="utf-8"?>
<!-- Generator: Adobe Illustrator 26.1.0, SVG Export Plug-In . SVG Version: 6.00 Build 0)  -->
<svg version="1.1" id="Capa_1" xmlns="http://www.w3.org/2000/svg" xmlns:xlink="http://www.w3.org/1999/xlink" x="0px" y="0px"
	 viewBox="0 0 617.4 477" style="enable-background:new 0 0 617.4 477;" xml:space="preserve">
<style type="text/css">
	.st0{fill:none;}
	.st1{fill:#0DDCF1;}
	.st2{opacity:0.5;}
	.st3{opacity:0.7;enable-background:new    ;}
	.st4{fill:#ABF1F3;}
	.st5{opacity:0.7;fill:#0DDCF1;enable-background:new    ;}
	.st6{opacity:0.4;enable-background:new    ;}
	.st7{opacity:0.2;enable-background:new    ;}
	.st8{fill:#00B1C9;}
	.st9{opacity:0.3;enable-background:new    ;}
	.st10{fill:#BDDBF1;}
	.st11{fill:#0DB1C1;}
	.st12{fill:#94B0C9;}
	.st13{opacity:0.5;fill:#FFFFFF;enable-background:new    ;}
	.st14{fill:#073666;}
	.st15{opacity:0.5;enable-background:new    ;}
	.st16{fill:#113356;}
	.st17{fill:#D9980A;}
	.st18{opacity:0.4;fill:#FFFFFF;enable-background:new    ;}
	.st19{fill:#FFB30C;}
	.st20{fill:#FAFAFA;}
	.st21{fill:#1A2E35;}
	.st22{fill:#375A64;}
	.st23{fill:#2B454E;}
	.st24{fill:url(#Trazado_189640_00000085937761348278791590000010586064669973108619_);}
	.st25{fill:url(#Trazado_189649_00000165204627391210539200000005671056131213440422_);}
	.st26{opacity:0.5;fill:#9F19AB;enable-background:new    ;}
	.st27{fill:url(#Trazado_189651_00000110440043303912255010000014357052547279250821_);}
</style>
<g id="Grupo_131774" transform="translate(-814.631 -85)">
	<g id="Grupo_131729" transform="translate(-6.001 0.271)">
		<g id="Grupo_128834" transform="translate(488.012 64.231)">
			<g id="Grupo_128876" transform="translate(417.989 48.874)">
				<path id="Shadow" class="st0" d="M454.8,387.9l44.2-25.5c1.6-0.9,1.6-2.4,0-3.3L255.6,218.6c-1.8-0.9-3.9-0.9-5.6,0l-44.2,25.5
					c-1.6,0.9-1.6,2.4,0,3.3l243.4,140.5C450.9,388.8,453,388.8,454.8,387.9z"/>
				<g id="PC" transform="translate(211.223)">
					<g id="Monitor">
						<g id="Grupo_128836" transform="translate(49.306 240.6)">
							<g id="Grupo_128834-2" transform="translate(0)">
								<path id="Trazado_189397" class="st1" d="M41.1,107.4L5.5,86.8C1.8,84.7,0,81.9,0,79.2s0-4.9,0-4.9L42.8,50
									c2.1-1.4,3.4-3.6,3.5-6.1V0l62.1,35.9v43.8c-0.1,2.5-1.4,4.8-3.5,6.1l-37.3,21.5C60.3,111.6,48.4,111.6,41.1,107.4z"/>
							</g>
							<g id="Grupo_128835" transform="translate(0)" class="st2">
								<path id="Trazado_189398" d="M41.1,107.4L5.5,86.8C1.8,84.7,0,81.9,0,79.2s0-4.9,0-4.9L42.8,50c2.1-1.4,3.4-3.6,3.5-6.1V0
									l62.1,35.9v43.8c-0.1,2.5-1.4,4.8-3.5,6.1l-37.3,21.5C60.3,111.6,48.4,111.6,41.1,107.4z"/>
							</g>
							<path id="Trazado_189399" class="st1" d="M93.5,87.5v4.9l11.4-6.6c2.1-1.4,3.4-3.6,3.5-6.1V35.9l-11.8-6.8
								c-0.2,3-0.5,6.1-0.8,9.1l8.3,4.8v34.2c-0.1,2.5-1.4,4.8-3.5,6.1L93.5,87.5z"/>
							<path id="Trazado_189400" class="st3" d="M93.5,87.5v4.9l11.4-6.6c2.1-1.4,3.4-3.6,3.5-6.1V35.9l-11.8-6.8
								c-0.2,3-0.5,6.1-0.8,9.1l8.3,4.8v34.2c-0.1,2.5-1.4,4.8-3.5,6.1L93.5,87.5z"/>
							<path id="Trazado_189401" class="st4" d="M104.1,77.2c-0.1,2.5-1.4,4.8-3.5,6.1l-33,19c-7.3,4.2-19.2,4.2-26.5,0L5.5,81.9
								c-7.3-4.2-7.3-11.1,0-15.3l33-19.1c2.1-1.4,3.4-3.6,3.5-6.1V7.1L104.1,43L104.1,77.2z"/>
							<path id="Trazado_189402" class="st0" d="M104.1,77.2c-0.1,2.5-1.4,4.8-3.5,6.1l-33,19c-7.3,4.2-19.2,4.2-26.5,0L5.5,81.9
								c-7.3-4.2-7.3-11.1,0-15.3l33-19.1c2.1-1.4,3.4-3.6,3.5-6.1V7.1L104.1,43L104.1,77.2z"/>
							<path id="Trazado_189403" class="st5" d="M31.3,51.7L31.3,51.7l7.2-4.2c2.1-1.4,3.4-3.6,3.5-6.1V7.1L104.1,43v34.3
								c-0.1,2.5-1.4,4.8-3.5,6.1l-7.1,4.1L31.3,51.7z"/>
							<path id="Trazado_189404" class="st6" d="M31.3,51.7L31.3,51.7l7.2-4.2c2.1-1.4,3.4-3.6,3.5-6.1V7.1L104.1,43v34.3
								c-0.1,2.5-1.4,4.8-3.5,6.1l-7.1,4.1L31.3,51.7z"/>
							<path id="Trazado_189405" class="st1" d="M0,74.2v4.9c0,2.8,1.8,5.5,5.5,7.7l35.6,20.5c3.9,2.1,8.2,3.2,12.7,3.1v-4.9
								c-4.4,0-8.8-1.1-12.7-3.1L5.5,81.9C1.8,79.8,0,77,0,74.2z"/>
							<path id="Trazado_189406" class="st7" d="M0,74.2v4.9c0,2.8,1.8,5.5,5.5,7.7l35.6,20.5c3.9,2.1,8.2,3.2,12.7,3.1v-4.9
								c-4.4,0-8.8-1.1-12.7-3.1L5.5,81.9C1.8,79.8,0,77,0,74.2z"/>
						</g>
						<path id="Trazado_189407" class="st8" d="M253.2,365.1c-2.7,1.3-5.9,1.3-8.6-0.2C214.1,347.4,34.9,244,4.4,226.3
							c-2.6-1.7-4.3-4.6-4.4-7.7V8.5c0.1-3,1.7-5.8,4.2-7.5c2.7-1.3,5.9-1.3,8.6,0.2l240.2,138.7c2.6,1.7,4.3,4.5,4.4,7.7v210.2
							C257.2,360.7,255.7,363.4,253.2,365.1z"/>
						<path id="Trazado_189408" class="st9" d="M253.2,365.1c-2.7,1.3-5.9,1.3-8.6-0.2C214.1,347.4,34.9,244,4.4,226.3
							c-2.6-1.7-4.3-4.6-4.4-7.7V8.5C0,5.6,255.5,363.8,253.2,365.1z"/>
						<path id="Trazado_189409" class="st1" d="M244.6,365L4.4,226.3c-2.6-1.7-4.3-4.5-4.4-7.7V8.4c0-2.8,2-4,4.4-2.6l240.2,138.7
							c2.6,1.7,4.3,4.5,4.4,7.7v210.2C249,365.2,247,366.4,244.6,365z"/>
						<path id="Trazado_189410" class="st10" d="M244.6,365L4.4,226.3c-2.6-1.7-4.3-4.5-4.4-7.7V8.4c0-2.8,2-4,4.4-2.6l240.2,138.7
							c2.6,1.7,4.3,4.5,4.4,7.7v210.2C249,365.2,247,366.4,244.6,365z"/>
						<path id="Trazado_189411" class="st0" d="M244.6,365L4.4,226.3c-2.6-1.7-4.3-4.5-4.4-7.7V8.4c0-2.8,2-4,4.4-2.6l240.2,138.7
							c2.6,1.7,4.3,4.5,4.4,7.7v210.2C249,365.2,247,366.4,244.6,365z"/>
						<path id="Trazado_189412" class="st11" d="M245.2,365.3c4.1,2.1,9,0.5,11.2-3.5c0.7-1.3,1-2.7,0.9-4.2V334l-8.3,4.8v23.6
							C249,365,247.4,366.2,245.2,365.3z"/>
						<path id="Trazado_189414" class="st10" d="M249,338.8v23.6c0,2.8-2,4-4.4,2.6L4.4,226.3c-2.6-1.7-4.3-4.5-4.4-7.7V195
							L249,338.8z"/>
						<path id="Trazado_189415" class="st0" d="M249,338.8v23.6c0,2.8-2,4-4.4,2.6L4.4,226.3c-2.6-1.7-4.3-4.5-4.4-7.7V195
							L249,338.8z"/>
						<path id="Trazado_189416" class="st12" d="M240.7,321.3V155c-0.1-1.9-1.1-3.6-2.7-4.6L11,19.3c-1.5-0.8-2.7-0.2-2.7,1.5
							l0,166.4c0.1,1.9,1.1,3.6,2.7,4.6l227.1,131.1C239.5,323.7,240.7,323,240.7,321.3z"/>
						<path id="Trazado_189417" class="st1" d="M124.5,276.5c2.4,1.6,4,4.3,4.1,7.2c0,2.6-1.9,3.7-4.1,2.4c-2.5-1.6-4-4.3-4.2-7.2
							C120.4,276.2,122.2,275.2,124.5,276.5z"/>
						<path id="Trazado_189418" class="st13" d="M124.5,276.5c2.4,1.6,4,4.3,4.1,7.2c0,2.6-1.9,3.7-4.1,2.4c-2.5-1.6-4-4.3-4.2-7.2
							C120.4,276.2,122.2,275.2,124.5,276.5z"/>
						<path id="Trazado_189419" class="st8" d="M247.7,147.8c0.8,1.3,1.2,2.8,1.3,4.4v186.6l8.3-4.8V147.4c-0.1-1.5-0.5-3-1.3-4.4
							L247.7,147.8z"/>
					</g>
				</g>
				<g id="Keyboard" transform="translate(127.362 300.271)">
					<path id="Shadow-2" class="st14" d="M245.4,112.8l-60,34.7c-2.1,1.1-4.6,1.1-6.7,0L1.4,45.3c-1.9-1.1-1.9-2.8,0-3.9l60-34.7
						c2.1-1.1,4.6-1.1,6.7,0l177.3,102.2C247.3,110,247.3,111.7,245.4,112.8z"/>
					<g id="Keyboard-2" transform="translate(5.027)">
						<g id="Grupo_128837">
							<path id="Trazado_189421" class="st1" d="M0,35.3c0.1-0.9,0.6-1.6,1.4-1.9L57.8,0.8c2.1-1.1,4.6-1.1,6.7,0l172,99.5
								c0.8,0.4,1.3,1.1,1.4,1.9v5.9c-0.1,0.9-0.6,1.6-1.4,1.9l-56.3,32.5c-2.1,1.1-4.6,1.1-6.7,0L1.4,43.3
								c-0.8-0.3-1.3-1.1-1.4-1.9C0,40.7,0,36,0,35.3z"/>
							<path id="Trazado_189422" class="st15" d="M0,35.3c0.1-0.9,0.6-1.6,1.4-1.9L57.8,0.8c2.1-1.1,4.6-1.1,6.7,0l172,99.5
								c0.8,0.4,1.3,1.1,1.4,1.9v5.9c-0.1,0.9-0.6,1.6-1.4,1.9l-56.3,32.5c-2.1,1.1-4.6,1.1-6.7,0L1.4,43.3
								c-0.8-0.3-1.3-1.1-1.4-1.9C0,40.7,0,36,0,35.3z"/>
							<path id="Trazado_189423" class="st10" d="M180.2,136.6l56.3-32.4c1.9-1.1,1.9-2.8,0-3.9L64.5,0.8c-2.1-1.1-4.6-1.1-6.7,0
								L1.4,33.3c-1.9,1.1-1.9,2.8,0,3.9l172,99.3C175.5,137.6,178,137.6,180.2,136.6z"/>
							<path id="Trazado_189424" class="st1" d="M177,137.4v6c1.1,0,2.2-0.3,3.2-0.8l56.3-32.5c0.8-0.3,1.3-1.1,1.4-1.9v-5.9
								c-0.1,0.9-0.6,1.6-1.4,1.9l-56.3,32.4C179.2,137.1,178.1,137.3,177,137.4z"/>
							<path id="Trazado_189425" class="st3" d="M177,137.4v6c1.1,0,2.2-0.3,3.2-0.8l56.3-32.5c0.8-0.3,1.3-1.1,1.4-1.9v-5.9
								c-0.1,0.9-0.6,1.6-1.4,1.9l-56.3,32.4C179.2,137.1,178.1,137.3,177,137.4z"/>
						</g>
						<g id="Grupo_128838" transform="translate(9.378 6.059)">
							<path id="Trazado_189426" class="st16" d="M95.7,36.6l-6.4,3.7c-0.1,0.1-0.3,0.1-0.4,0.1l-5.9-3.3l6.9-3.9L95.7,36.6z"/>
							<path id="Trazado_189427" class="st16" d="M88,32.2l-6.4,3.7C81.4,36,81.3,36,81.1,36l-0.2,0l-5.7-3.3l6.9-3.9L88,32.2z"/>
							<path id="Trazado_189428" class="st16" d="M108.7,44.2l-6.4,3.7c-0.1,0.1-0.2,0.1-0.4,0.1l-9.6-5.4l6.9-3.9L108.7,44.2z"/>
							<path id="Trazado_189429" class="st16" d="M116.4,48.6l-6.4,3.7c-0.1,0.1-0.3,0.1-0.4,0.1l-5.9-3.3l6.9-3.9L116.4,48.6z"/>
							<path id="Trazado_189430" class="st16" d="M151.7,107l-5.9-3.3l6.9-3.9l5.8,3.4l-6.5,3.7C152,107,151.9,107,151.7,107z"/>
							<path id="Trazado_189431" class="st16" d="M124.2,53.1l-6.4,3.7c-0.1,0.1-0.3,0.1-0.4,0.1l-5.9-3.3l6.9-3.9L124.2,53.1z"/>
							<path id="Trazado_189432" class="st16" d="M81.1,38.3l5.8,3.4l-6.4,3.7c-0.1,0.1-0.3,0.1-0.4,0.1l-5.9-3.3L81.1,38.3z"/>
							<path id="Trazado_189433" class="st16" d="M102.7,68.6l-5.9-3.3l6.9-3.9l5.8,3.4l-6.4,3.7C103,68.6,102.8,68.6,102.7,68.6z"
								/>
							<path id="Trazado_189434" class="st16" d="M72.4,41l-5.9-3.3l6.9-3.9l5.8,3.4l-6.4,3.7C72.7,41,72.5,41,72.4,41z"/>
							<path id="Trazado_189435" class="st16" d="M110.4,73.1l-5.9-3.3l6.9-3.9l5.8,3.4l-6.4,3.7C110.7,73,110.6,73.1,110.4,73.1z"
								/>
							<path id="Trazado_189436" class="st16" d="M118.2,77.5l-5.9-3.3l6.9-3.9l5.8,3.4l-6.5,3.7C118.4,77.5,118.3,77.5,118.2,77.5z
								"/>
							<path id="Trazado_189437" class="st16" d="M87.2,59.7l-12.4-7.1l15.6-8.9l6.7,3.8l-8.2,4.7c-0.1,0.1-0.2,0.2-0.2,0.3
								c0,0.1,0.1,0.2,0.2,0.3l5.2,3l-6.4,3.7C87.5,59.7,87.4,59.7,87.2,59.7z"/>
							<path id="Trazado_189438" class="st16" d="M139.6,62l-6.4,3.7c-0.1,0.1-0.3,0.1-0.4,0.1l-5.9-3.3l6.9-3.9L139.6,62z"/>
							<path id="Trazado_189439" class="st16" d="M95,64.2l-5.9-3.3L96,57l5.8,3.4L95.4,64C95.3,64.1,95.1,64.2,95,64.2z"/>
							<path id="Trazado_189440" class="st16" d="M183,104.9l-5.9-3.3l6.9-3.9l5.8,3.4l-6.4,3.7C183.3,104.9,183.2,104.9,183,104.9z
								"/>
							<path id="Trazado_189441" class="st16" d="M201.4,97.7l-6.5,3.7c-0.1,0-0.2,0.1-0.4,0.1l-0.2,0l-5.7-3.3l6.9-3.9L201.4,97.7z
								"/>
							<path id="Trazado_189442" class="st16" d="M172.3,108.8l-0.2,0l-5.7-3.3l6.9-3.9l5.8,3.4l-6.5,3.7
								C172.5,108.7,172.4,108.8,172.3,108.8z"/>
							<path id="Trazado_189443" class="st16" d="M167.2,115.9l-5.9-3.3l6.9-3.9l5.8,3.4l-6.4,3.7
								C167.5,115.9,167.3,115.9,167.2,115.9z"/>
							<path id="Trazado_189444" class="st16" d="M193.7,93.2l-6.4,3.7c-0.1,0.1-0.2,0.1-0.4,0.1l-5.9-3.3l6.9-3.9L193.7,93.2z"/>
							<path id="Trazado_189445" class="st16" d="M159.5,111.5l-5.9-3.3l6.9-3.9l5.8,3.4l-6.4,3.7
								C159.7,111.4,159.6,111.5,159.5,111.5z"/>
							<path id="Trazado_189446" class="st16" d="M170.5,79.9l-6.4,3.7c-0.1,0.1-0.3,0.1-0.4,0.1l-5.9-3.3l6.9-3.9L170.5,79.9z"/>
							<path id="Trazado_189447" class="st16" d="M162.8,75.4l-6.4,3.7c-0.1,0.1-0.3,0.1-0.4,0.1l-5.9-3.3l6.9-3.9L162.8,75.4z"/>
							<path id="Trazado_189448" class="st16" d="M155.1,70.9l-6.4,3.7c-0.1,0.1-0.3,0.1-0.4,0.1l-5.9-3.3l6.9-3.9L155.1,70.9z"/>
							<path id="Trazado_189449" class="st16" d="M178.3,84.3l-6.4,3.7c-0.1,0.1-0.3,0.1-0.4,0.1l-5.9-3.3l6.9-3.9L178.3,84.3z"/>
							<path id="Trazado_189450" class="st16" d="M147.3,66.5l-6.4,3.7c-0.1,0.1-0.2,0.1-0.4,0.1l-5.9-3.3l6.9-3.9L147.3,66.5z"/>
							<path id="Trazado_189451" class="st16" d="M186,88.8l-6.4,3.7c-0.1,0.1-0.3,0.1-0.4,0.1l-5.9-3.3l6.9-3.9L186,88.8z"/>
							<path id="Trazado_189452" class="st16" d="M131.9,57.5l-6.5,3.7c-0.1,0.1-0.2,0.1-0.4,0.1l-5.9-3.3l6.9-3.9L131.9,57.5z"/>
							<path id="Trazado_189453" class="st16" d="M112.6,56.5l-6.4,3.7c-0.1,0.1-0.3,0.1-0.4,0.1l-0.2,0L99.8,57l6.9-3.9L112.6,56.5
								z"/>
							<path id="Trazado_189454" class="st16" d="M70.9,22.3L64.5,26c-0.1,0.1-0.3,0.1-0.4,0.1l-5.9-3.3l6.9-3.9L70.9,22.3z"/>
							<path id="Trazado_189455" class="st16" d="M63.1,17.9l-6.4,3.7c-0.1,0.1-0.3,0.1-0.4,0.1l-5.9-3.3l6.9-3.9L63.1,17.9z"/>
							<path id="Trazado_189456" class="st16" d="M120.3,60.9l-6.4,3.7c-0.1,0.1-0.3,0.1-0.4,0.1l-5.9-3.3l6.9-3.9L120.3,60.9z"/>
							<path id="Trazado_189457" class="st16" d="M55.4,13.4L49,17.1c-0.1,0.1-0.3,0.1-0.4,0.1l-5.9-3.3l6.9-3.9L55.4,13.4z"/>
							<path id="Trazado_189458" class="st16" d="M98,55.8l-0.2,0l-5.7-3.3l6.9-3.9l5.8,3.4l-6.4,3.7C98.3,55.8,98.2,55.8,98,55.8z"
								/>
							<path id="Trazado_189459" class="st16" d="M62.1,27.4l-6.4,3.7c-0.1,0.1-0.3,0.1-0.4,0.1l-5.9-3.3l6.9-3.9L62.1,27.4z"/>
							<path id="Trazado_189460" class="st16" d="M46.7,18.4l-6.4,3.7c-0.1,0.1-0.3,0.1-0.4,0.1L33.9,19l6.9-3.9L46.7,18.4z"/>
							<path id="Trazado_189461" class="st16" d="M47.6,26.7l-5.9-3.3l6.9-3.9l5.8,3.4L48,26.6C47.8,26.7,47.7,26.7,47.6,26.7z"/>
							<path id="Trazado_189462" class="st16" d="M23.8,22.8c-0.1,0-0.2,0.1-0.4,0.1l-0.2,0l-5.7-3.3l15.6-8.9L39,14L23.8,22.8z"/>
							<path id="Trazado_189463" class="st16" d="M128,65.4l-6.4,3.7c-0.1,0.1-0.3,0.1-0.4,0.1l-0.2,0l-5.7-3.3l6.9-3.9L128,65.4z"
								/>
							<path id="Trazado_189464" class="st16" d="M38.8,31.7l-0.2,0l-5.7-3.3l6.9-3.9l5.8,3.4l-6.4,3.7C39.1,31.7,39,31.8,38.8,31.7
								z"/>
							<path id="Trazado_189465" class="st16" d="M31.1,27.3L25.2,24l6.9-3.9l5.8,3.4l-6.4,3.7C31.4,27.2,31.3,27.3,31.1,27.3z"/>
							<path id="Trazado_189466" class="st16" d="M166.7,87.7l-6.4,3.7c-0.1,0.1-0.3,0.1-0.4,0.1l-5.9-3.3l6.9-3.9L166.7,87.7z"/>
							<path id="Trazado_189467" class="st16" d="M182.1,96.6l-6.4,3.7c-0.1,0.1-0.3,0.1-0.4,0.1l-0.2,0l-5.7-3.3l6.9-3.9
								L182.1,96.6z"/>
							<path id="Trazado_189468" class="st16" d="M156.8,99.9l-5.9-3.3l6.9-3.9l5.8,3.4l-6.5,3.7C157.1,99.8,156.9,99.9,156.8,99.9z
								"/>
							<path id="Trazado_189469" class="st16" d="M164.5,104.3l-5.9-3.3l6.9-3.9l5.8,3.4l-6.4,3.7
								C164.8,104.3,164.7,104.3,164.5,104.3z"/>
							<path id="Trazado_189470" class="st16" d="M149.1,95.4l-0.2,0l-5.7-3.3l6.9-3.9l5.8,3.4l-6.4,3.7
								C149.4,95.4,149.2,95.4,149.1,95.4z"/>
							<path id="Trazado_189471" class="st16" d="M135.8,69.9l-6.4,3.7c-0.1,0.1-0.3,0.1-0.4,0.1l-0.2,0l-5.7-3.3l6.9-3.9
								L135.8,69.9z"/>
							<path id="Trazado_189472" class="st16" d="M133.6,86.5l-5.9-3.3l6.9-3.9l5.8,3.4l-6.4,3.7C133.9,86.4,133.8,86.5,133.6,86.5z
								"/>
							<path id="Trazado_189473" class="st16" d="M141.3,90.9l-5.9-3.3l6.9-3.9l5.8,3.4l-6.5,3.7C141.6,90.9,141.5,90.9,141.3,90.9z
								"/>
							<path id="Trazado_189474" class="st16" d="M151.2,78.8l-6.4,3.7c-0.1,0.1-0.3,0.1-0.4,0.1l-5.9-3.3l6.9-3.9L151.2,78.8z"/>
							<path id="Trazado_189475" class="st16" d="M174.4,92.2l-6.4,3.7c-0.1,0.1-0.3,0.1-0.4,0.1l-5.9-3.3l6.9-3.9L174.4,92.2z"/>
							<path id="Trazado_189476" class="st16" d="M143.5,74.3l-6.4,3.7c-0.1,0.1-0.3,0.1-0.4,0.1l-5.9-3.3l6.9-3.9L143.5,74.3z"/>
							<path id="Trazado_189477" class="st16" d="M158.9,83.3l-6.4,3.7c-0.1,0.1-0.3,0.1-0.4,0.1l-0.2,0l-5.7-3.3l6.9-3.9
								L158.9,83.3z"/>
							<path id="Trazado_189478" class="st16" d="M125.9,82l-5.9-3.3l6.9-3.9l5.8,3.4l-6.4,3.7C126.2,82,126,82,125.9,82z"/>
							<path id="Trazado_189479" class="st16" d="M80.2,27.7l-6.5,3.7c-0.1,0.1-0.2,0.1-0.4,0.1l-5.9-3.3l6.9-3.9L80.2,27.7z"/>
							<path id="Trazado_189480" class="st16" d="M203.3,98.8l5.8,3.4l-6.5,3.7c-0.1,0.1-0.2,0.1-0.4,0.1l-0.2,0l-5.7-3.3
								L203.3,98.8z"/>
							<path id="Trazado_189481" class="st16" d="M191.7,102.2l8.7,5l-6.4,3.7c-0.1,0.1-0.2,0.1-0.4,0.1l-0.2,0l-8.5-4.9
								L191.7,102.2z"/>
							<path id="Trazado_189482" class="st16" d="M212.7,92l7.1,4.1l-6.4,3.7c-0.1,0.1-0.3,0.1-0.4,0.1l-7.1-4L212.7,92z"/>
							<path id="Trazado_189483" class="st16" d="M175.9,113.2l7.1,4.1l-6.4,3.7c-0.1,0.1-0.3,0.1-0.4,0.1l-7.1-4L175.9,113.2z"/>
							<path id="Trazado_189484" class="st16" d="M181,106.1l10.7,6.2l-6.4,3.7c-0.1,0.1-0.3,0.1-0.4,0.1l-0.2,0l-10.6-6.1
								L181,106.1z"/>
							<path id="Trazado_189485" class="st16" d="M200.6,92.7l-5.9-3.3l6.9-3.9l5.8,3.4l-6.4,3.7C200.9,92.7,200.8,92.7,200.6,92.7z
								"/>
							<path id="Trazado_189486" class="st16" d="M174.2,122.3l-6.4,3.7c-0.1,0.1-0.3,0.1-0.4,0.1l-8.8-4.9l6.9-3.9L174.2,122.3z"/>
							<path id="Trazado_189487" class="st16" d="M192.9,88.3L187,85l6.9-3.9l5.8,3.4l-6.4,3.7C193.2,88.2,193,88.3,192.9,88.3z"/>
							<path id="Trazado_189488" class="st16" d="M158.6,68.5l-0.2,0l-5.7-3.3l6.9-3.9l5.8,3.4l-6.4,3.7
								C158.9,68.5,158.8,68.5,158.6,68.5z"/>
							<path id="Trazado_189489" class="st16" d="M150.9,64l-5.9-3.3l6.9-3.9l5.8,3.4l-6.4,3.7C151.2,64,151,64,150.9,64z"/>
							<path id="Trazado_189490" class="st16" d="M166.3,73l-0.2,0l-5.7-3.3l6.9-3.9l5.8,3.4l-6.4,3.7C166.6,72.9,166.5,73,166.3,73
								z"/>
							<path id="Trazado_189491" class="st16" d="M177.4,79.4l-0.2,0l-5.7-3.3l6.9-3.9l5.8,3.4l-6.4,3.7
								C177.7,79.3,177.6,79.4,177.4,79.4z"/>
							<path id="Trazado_189492" class="st16" d="M185.2,83.8l-5.9-3.3l6.9-3.9L192,80l-6.4,3.7C185.4,83.8,185.3,83.8,185.2,83.8z"
								/>
							<path id="Trazado_189493" class="st16" d="M20.5,33.6L14,37.3c-0.1,0-0.2,0.1-0.4,0.1l-0.2,0l-5.7-3.3l6.9-3.9L20.5,33.6z"/>
							<path id="Trazado_189494" class="st16" d="M60.7,56.8l-6.4,3.7c-0.1,0.1-0.3,0.1-0.4,0.1L48,57.3l6.9-3.9L60.7,56.8z"/>
							<path id="Trazado_189495" class="st16" d="M35.9,42.5l-6.4,3.7c-0.1,0.1-0.3,0.1-0.4,0.1l-0.2,0l-13.4-7.7l6.9-3.9L35.9,42.5
								z"/>
							<path id="Trazado_189496" class="st16" d="M53,52.4l-6.4,3.7c-0.1,0.1-0.3,0.1-0.4,0.1l-5.9-3.3l6.9-3.9L53,52.4z"/>
							<path id="Trazado_189497" class="st16" d="M45.3,47.9l-6.4,3.7c-0.1,0.1-0.3,0.1-0.4,0.1l-5.9-3.3l6.9-3.9L45.3,47.9z"/>
							<path id="Trazado_189498" class="st16" d="M143.2,59.6l-0.2,0l-5.7-3.3l6.9-3.9l5.8,3.4l-6.4,3.7
								C143.5,59.5,143.3,59.6,143.2,59.6z"/>
							<path id="Trazado_189499" class="st16" d="M15.6,20.7l5.8,3.4L6.3,32.8c-0.1,0.1-0.2,0.1-0.4,0.1l-0.2,0L0,29.6L15.6,20.7z"
								/>
							<path id="Trazado_189500" class="st16" d="M154.7,111.1l-6.4,3.7c-0.1,0.1-0.3,0.1-0.4,0.1l-7.1-4l6.9-3.9L154.7,111.1z"/>
							<path id="Trazado_189501" class="st16" d="M145.8,105.9l-6.4,3.7c-0.1,0.1-0.3,0.1-0.4,0.1l-0.2,0L94.8,84.3l6.9-3.9
								L145.8,105.9z"/>
							<path id="Trazado_189502" class="st16" d="M144,102.5l-5.9-3.3l6.9-3.9l5.8,3.4l-6.4,3.7C144.3,102.5,144.1,102.5,144,102.5z
								"/>
							<path id="Trazado_189503" class="st16" d="M163.7,116.2l-6.4,3.7c-0.1,0.1-0.3,0.1-0.4,0.1l-7.1-4l6.9-3.9L163.7,116.2z"/>
							<path id="Trazado_189504" class="st16" d="M99.8,79.4l-6.4,3.7c-0.1,0.1-0.3,0.1-0.4,0.1l-0.2,0l-6.9-4l6.9-3.9L99.8,79.4z"
								/>
							<path id="Trazado_189505" class="st16" d="M81.9,69l-6.4,3.7c-0.1,0.1-0.3,0.1-0.4,0.1l-0.2,0l-6.9-4l6.9-3.9L81.9,69z"/>
							<path id="Trazado_189506" class="st16" d="M90.8,74.2l-6.4,3.7C84.3,78,84.1,78,84,78l-7.1-4l6.9-3.9L90.8,74.2z"/>
							<path id="Trazado_189507" class="st16" d="M72.9,63.9l-6.4,3.7c-0.1,0.1-0.3,0.1-0.4,0.1l-0.2,0l-8.5-4.9l6.9-3.9L72.9,63.9z
								"/>
							<path id="Trazado_189508" class="st16" d="M64.7,36.6l-0.2,0l-5.7-3.3l6.9-3.9l5.8,3.4l-6.4,3.7
								C64.9,36.5,64.8,36.6,64.7,36.6z"/>
							<path id="Trazado_189509" class="st16" d="M54.9,51.1l-0.2,0L49,47.8l6.9-3.9l5.8,3.4L55.3,51C55.2,51.1,55.1,51.1,54.9,51.1
								z"/>
							<path id="Trazado_189510" class="st16" d="M82.2,66.9l-16.1-9.2l6.9-3.9L89,63l-6.5,3.7C82.4,66.8,82.3,66.9,82.2,66.9z"/>
							<path id="Trazado_189511" class="st16" d="M37.8,41.3l-0.2,0L31.9,38l6.9-3.9l5.8,3.4l-6.4,3.7C38.1,41.2,38,41.3,37.8,41.3z
								"/>
							<path id="Trazado_189512" class="st16" d="M30.1,36.8l-0.2,0l-5.7-3.3l6.9-3.9l5.8,3.4l-6.4,3.7
								C30.4,36.8,30.2,36.8,30.1,36.8z"/>
							<path id="Trazado_189513" class="st16" d="M89.9,71.3L84,68l6.9-3.9l5.8,3.4l-6.4,3.7C90.2,71.3,90,71.3,89.9,71.3z"/>
							<path id="Trazado_189514" class="st16" d="M46.6,36.2l-0.2,0l-5.7-3.3l6.9-3.9l5.8,3.4L47,36.1
								C46.9,36.2,46.7,36.2,46.6,36.2z"/>
							<path id="Trazado_189515" class="st16" d="M128.5,93.6l-5.9-3.3l6.9-3.9l5.8,3.4l-6.4,3.7C128.8,93.6,128.7,93.6,128.5,93.6z
								"/>
							<path id="Trazado_189516" class="st16" d="M97.6,75.8l-5.9-3.3l6.9-3.9l5.8,3.4L98,75.7C97.9,75.7,97.8,75.8,97.6,75.8z"/>
							<path id="Trazado_189517" class="st16" d="M136.3,98.1l-0.2,0l-5.7-3.3l6.9-3.9l5.8,3.4l-6.5,3.7
								C136.5,98.1,136.4,98.1,136.3,98.1z"/>
							<path id="Trazado_189518" class="st16" d="M120.8,89.2l-5.9-3.3l6.9-3.9l5.8,3.4l-6.5,3.7C121.1,89.1,120.9,89.2,120.8,89.2z
								"/>
							<path id="Trazado_189519" class="st16" d="M113.1,84.7l-0.2,0l-5.7-3.3l6.9-3.9l5.8,3.4l-6.4,3.7
								C113.4,84.7,113.2,84.7,113.1,84.7z"/>
							<path id="Trazado_189520" class="st16" d="M105.4,80.2l-0.2,0l-5.7-3.3l6.9-3.9l5.8,3.4l-6.5,3.7
								C105.6,80.2,105.5,80.2,105.4,80.2z"/>
							<path id="Trazado_189521" class="st16" d="M124.3,48.7l-5.9-3.3l6.9-3.9l5.8,3.4l-6.4,3.7C124.6,48.7,124.5,48.7,124.3,48.7z
								"/>
							<path id="Trazado_189522" class="st16" d="M22.4,32.3l-0.2,0L16.5,29l6.9-3.9l5.8,3.4l-6.4,3.7
								C22.6,32.3,22.5,32.3,22.4,32.3z"/>
							<path id="Trazado_189523" class="st16" d="M108.9,39.8l-5.9-3.3l6.9-3.9l5.8,3.4l-6.4,3.7C109.2,39.7,109,39.8,108.9,39.8z"
								/>
							<path id="Trazado_189524" class="st16" d="M91.7,29.9l-5.9-3.3l6.9-3.9l5.8,3.4l-6.4,3.7C92,29.8,91.9,29.9,91.7,29.9z"/>
							<path id="Trazado_189525" class="st16" d="M99.4,34.3L93.5,31l6.9-3.9l5.8,3.4l-6.4,3.7C99.7,34.3,99.6,34.3,99.4,34.3z"/>
							<path id="Trazado_189526" class="st16" d="M132.1,53.2l-5.9-3.3l6.9-3.9l5.8,3.4l-6.4,3.7C132.4,53.1,132.2,53.2,132.1,53.2z
								"/>
							<path id="Trazado_189527" class="st16" d="M116.6,44.2l-0.2,0l-5.7-3.3l6.9-3.9l5.8,3.4l-6.4,3.7
								C116.9,44.2,116.8,44.2,116.6,44.2z"/>
							<path id="Trazado_189528" class="st16" d="M84,25.4l-5.9-3.3l6.9-3.9l5.8,3.4l-6.4,3.7C84.3,25.4,84.1,25.4,84,25.4z"/>
							<path id="Trazado_189529" class="st16" d="M53.7,5.3L47.8,2l3.8-2l5.8,3.4l-3.3,1.9C54,5.3,53.8,5.3,53.7,5.3z"/>
							<path id="Trazado_189530" class="st16" d="M40.9,12.7l-5.9-3.3l6.9-3.9l5.8,3.4l-6.4,3.7C41.1,12.7,41,12.7,40.9,12.7z"/>
							<path id="Trazado_189531" class="st16" d="M76.9,18.7l-0.2,0L71,15.4l3.8-2l5.8,3.4l-3.3,1.9C77.2,18.7,77,18.7,76.9,18.7z"
								/>
							<path id="Trazado_189532" class="st16" d="M69.2,14.2l-0.2,0l-5.7-3.3l3.8-2l5.8,3.4l-3.3,1.9C69.4,14.2,69.3,14.3,69.2,14.2
								z"/>
							<path id="Trazado_189533" class="st16" d="M61.4,9.8l-5.9-3.3l3.8-2l5.8,3.4l-3.3,1.9C61.7,9.8,61.6,9.8,61.4,9.8z"/>
						</g>
					</g>
				</g>
			</g>
			<g id="Grupo_128879" transform="translate(468.29 105.195)">
				<g id="Speech_Bubble" transform="translate(0 97.04)">
					<g id="Speech_Bubble-2">
						<path id="Trazado_189621" class="st17" d="M34.1,0.2L8.8,14.9c-0.5,0.3-0.9,0.9-0.9,1.6v31c0,0.6,0.4,1.2,0.9,1.6l3.6,2
							c0.6,0.3,1.2,0.3,1.8,0l25.3-14.7c0.5-0.3,0.9-0.9,0.9-1.6V3.8c0-0.6-0.4-1.2-0.9-1.6l-3.6-2C35.4-0.1,34.7-0.1,34.1,0.2z"/>
						<path id="Trazado_189622" class="st17" d="M14.2,51c-0.6,0.3-1.2,0.3-1.8,0l-3.6-2c-0.5-0.3-0.9-0.9-0.9-1.6v-31
							c0-0.3,0.1-0.6,0.3-0.9l5.4,3.1c-0.2,0.3-0.3,0.6-0.3,0.1v30.9C13.3,51,13.7,51.3,14.2,51z"/>
						<path id="Trazado_189623" class="st18" d="M40.4,3.7C40.4,3.2,40,3,39.6,3.3L14.2,17.9c-0.3,0.2-0.5,0.4-0.6,0.7l-5.4-3.1
							c0.1-0.3,0.4-0.5,0.6-0.6L34.1,0.2c0.6-0.3,1.2-0.3,1.8,0l3.6,2C40,2.6,40.4,3.1,40.4,3.7z"/>
						<g id="Grupo_128877" transform="translate(0 3.168)">
							<path id="Trazado_189624" class="st19" d="M5.4,36.2c-0.6-0.3-4.9-2.8-5-2.9c-0.4-0.2-0.5-0.8-0.3-1.2c0,0,0.1-0.1,0.1-0.1
								l7.7-8.8l5.4,3.1l-8,8.6C5,35.3,5,35.8,5.4,36.2C5.4,36.2,5.4,36.2,5.4,36.2z"/>
							<path id="Trazado_189625" class="st18" d="M5.4,36.2c-0.6-0.3-4.9-2.8-5-2.9c-0.4-0.2-0.5-0.8-0.3-1.2c0,0,0.1-0.1,0.1-0.1
								l7.7-8.8l5.4,3.1l-8,8.6C5,35.3,5,35.8,5.4,36.2C5.4,36.2,5.4,36.2,5.4,36.2z"/>
							<path id="Trazado_189626" class="st19" d="M39.6,0.1L14.2,14.8c-0.5,0.3-0.9,0.9-0.9,1.6v10l-8,8.6c-0.3,0.3-0.3,0.8,0,1.1
								c0.1,0.1,0.3,0.2,0.5,0.2l7.5-0.6l0,0v11.5c0,0.6,0.4,0.8,0.9,0.5l25.3-14.6c0.5-0.3,0.9-0.9,0.9-1.6v-31
								C40.5,0.1,40.1-0.2,39.6,0.1z"/>
						</g>
					</g>
					<path id="X" class="st20" d="M34.5,30.8l-5.1-3.9l5.4-10.2c0.5-1,0.1-2.1-0.8-2.6c-1-0.5-2.1-0.1-2.6,0.8l-5.1,9.7L21.6,21
						c-0.8-0.7-2.1-0.5-2.7,0.3s-0.5,2.1,0.3,2.7c0,0,0.1,0,0.1,0.1l5.2,3.9l-5.1,9.8c-0.5,1-0.1,2.1,0.8,2.6s2.1,0.1,2.6-0.8l0,0
						l4.8-9.2l4.6,3.5c0.9,0.6,2.1,0.5,2.7-0.4C35.6,32.6,35.4,31.4,34.5,30.8L34.5,30.8L34.5,30.8z"/>
				</g>
				<g id="Speech_Bubble-3" transform="translate(0 48.52)">
					<g id="Speech_Bubble-4">
						<path id="Trazado_189627" class="st21" d="M14.2,51c-0.6,0.3-1.2,0.3-1.8,0l-3.6-2.1c-0.5-0.3-0.9-1-0.9-0.8V17.2
							c-0.1-0.6,0-1.2,0.3-1.7l5.4,3.1c-0.2,0.5-0.3,1.1-0.3,1.7v30.9C13.3,51,13.7,51.3,14.2,51z"/>
						<path id="Trazado_189628" class="st22" d="M40.4,3.6C40.4,3.2,40,3,39.6,3.3L14.2,17.9c-0.3,0.2-0.5,0.4-0.6,0.7l-5.4-3.1
							c0.1-0.3,0.4-0.5,0.6-0.6L34.1,0.2c0.6-0.3,1.2-0.3,1.8,0l3.6,2C40,2.6,40.4,3.1,40.4,3.6z"/>
						<path id="Trazado_189629" class="st22" d="M5.4,39.4c-0.6-0.3-4.9-2.8-5-2.9c-0.4-0.2-0.5-0.8-0.3-1.2c0,0,0.1-0.1,0.1-0.1
							l7.7-8.8l5.4,3.1l-8,8.6C5,38.5,5,39,5.4,39.4C5.4,39.3,5.4,39.4,5.4,39.4z"/>
						<path id="Trazado_189630" class="st23" d="M39.6,3.3L14.2,17.9c-0.5,0.3-0.9,0.9-0.9,1.6v10l-8,8.6c-0.3,0.3-0.3,0.8,0,1.1
							c0.1,0.1,0.3,0.2,0.5,0.2l7.5-0.6l0,0v11.5c0,0.6,0.4,0.8,0.9,0.5l25.3-14.6c0.5-0.3,0.9-0.9,0.9-1.6V3.8
							C40.5,3.2,40.1,3,39.6,3.3z"/>
					</g>
					<g id="_" transform="translate(16.408 17.104)">
						<path id="Trazado_189631" class="st1" d="M0,16.3c0-0.2,0-0.4,0.1-0.6c0.1-0.2,0.2-0.3,0.3-0.5l5.2-8.4c0,0,0.1-0.1,0.1-0.1
							c0,0,0,0,0.1,0c0.1,0,0.1,0,0.2,0C6,6.7,6,6.8,6,6.9v3.3c0,0.2,0,0.5-0.1,0.7c-0.1,0.2-0.2,0.3-0.3,0.4l-2.3,3.5l2.3,0.9
							c0.1,0,0.2,0.1,0.3,0.1C6,15.9,6,16,6,16.3v3.3c0,0.1,0,0.2-0.1,0.3c0,0.1-0.1,0.2-0.2,0.2c0,0,0,0-0.1,0c0,0-0.1,0-0.1,0
							l-5.2-2.4c-0.1,0-0.2-0.1-0.3-0.2C0,17.4,0,17.3,0,17.1V16.3z"/>
						<path id="Trazado_189632" class="st1" d="M11.4,2c0-0.2,0.1-0.4,0.2-0.5C11.7,1.3,11.8,1.1,12,1l1.7-1c0.1,0,0.1,0,0.2,0
							C14,0.1,14,0.2,14,0.3c0,0.1,0,0.1,0,0.2L9.6,19.3c0,0.2-0.1,0.3-0.2,0.5C9.3,20,9.2,20.2,9,20.3l-1.7,1c-0.1,0-0.1,0-0.2,0
							C7,21.2,7,21.1,7,21c0-0.1,0-0.1,0-0.2L11.4,2z"/>
						<path id="Trazado_189633" class="st1" d="M21,5c0,0.2,0,0.4-0.1,0.5c-0.1,0.2-0.2,0.4-0.3,0.5l-5.2,8.4c0,0-0.1,0.1-0.1,0.1
							c0,0,0,0-0.1,0c-0.1,0-0.1,0-0.2,0C15,14.6,15,14.5,15,14.4v-3.3c0-0.2,0-0.5,0.1-0.7c0.1-0.2,0.2-0.3,0.3-0.4l2.3-3.5
							l-2.3-0.9c-0.1,0-0.2-0.1-0.3-0.1C15,5.4,15,5.3,15,5V1.7c0-0.1,0-0.2,0.1-0.3c0-0.1,0.1-0.2,0.2-0.2c0,0,0,0,0.1,0
							c0,0,0.1,0,0.1,0l5.2,2.4c0.1,0,0.2,0.1,0.3,0.2C21,3.9,21,4,21,4.2V5z"/>
					</g>
				</g>
				<g id="Speech_Bubble-5" transform="translate(0 0)">
					<g id="Speech_Bubble-6">
						<path id="Trazado_189634" class="st1" d="M34.1,0.2L8.8,14.9c-0.5,0.3-0.9,1-0.9,2.3v31c0-0.2,0.4,0.5,0.9,0.8l3.6,2
							c0.6,0.3,1.2,0.3,1.8,0l25.3-14.7c0.5-0.3,0.9-0.9,0.9-1.6v-31c0-0.6-0.4-1.2-0.9-1.6l-3.6-2C35.4-0.1,34.7-0.1,34.1,0.2z"/>
						<path id="Trazado_189635" class="st7" d="M14.2,51c-0.6,0.3-1.2,0.3-1.8,0l-3.6-2c-0.5-0.3-0.9-1-0.9-0.8v-31
							c-0.1-0.6,0-1.2,0.3-1.7l5.4,3.1c-0.2,0.3-0.3,0.6-0.3,0.1v30.9C13.3,51,13.7,51.3,14.2,51z"/>
						<path id="Trazado_189636" class="st18" d="M40.4,3.7C40.4,3.2,40,3,39.6,3.3L14.2,17.9c-0.3,0.2-0.5,0.4-0.6,0.7l-5.4-3.1
							c0.1-0.3,0.4-0.5,0.6-0.6L34.1,0.2c0.6-0.3,1.2-0.3,1.8,0l3.6,2C40,2.6,40.4,3.1,40.4,3.7z"/>
						<g id="Grupo_128878" transform="translate(0 3.169)">
							<path id="Trazado_189637" class="st1" d="M5.4,36.2c-0.6-0.3-4.9-2.8-5-2.9c-0.4-0.2-0.5-0.8-0.3-1.2c0,0,0.1-0.1,0.1-0.1
								l7.7-8.8l5.4,3.1l-8,8.6C5,35.3,5,35.8,5.4,36.2C5.4,36.2,5.4,36.2,5.4,36.2z"/>
							<path id="Trazado_189638" class="st18" d="M5.4,36.2c-0.6-0.3-4.9-2.8-5-2.9c-0.4-0.2-0.5-0.8-0.3-1.2c0,0,0.1-0.1,0.1-0.1
								l7.7-8.8l5.4,3.1l-8,8.6C5,35.3,5,35.8,5.4,36.2C5.4,36.2,5.4,36.2,5.4,36.2z"/>
							<path id="Trazado_189639" class="st1" d="M39.6,0.1L14.2,14.8c-0.5,0.3-0.9,0.9-0.9,1.6v10l-8,8.6c-0.3,0.3-0.3,0.8,0,1.1
								c0.1,0.1,0.3,0.2,0.5,0.2l7.5-0.5l0,0v11.5c0,0.6,0.4,0.8,0.9,0.5l25.3-14.7c0.5-0.3,0.9-0.9,0.9-1.6v-31
								C40.5,0.1,40.1-0.2,39.6,0.1z"/>
						</g>
					</g>
					<path id="Check" class="st20" d="M34.9,11.9c-1.1-0.5-2.5,0.1-2.9,1.2l-8.5,20.2l-2-2c-0.9-0.9-2.3-0.8-3.2,0
						c-0.9,0.9-0.8,2.3,0,3.2l4.4,4.3c0.9,0.9,2.3,0.8,3.2,0c0.2-0.2,0.4-0.4,0.5-0.7l9.8-23.3C36.5,13.7,36,12.4,34.9,11.9z"/>
				</g>
			</g>
			<g id="Grupo_128880" transform="translate(823.065 72.794)">
				
					<linearGradient id="Trazado_189640_00000138554014447928877660000010621253932270525110_" gradientUnits="userSpaceOnUse" x1="-483.4545" y1="400.6096" x2="-482.7779" y2="400.6096" gradientTransform="matrix(-114.5672 0 0 114.575 -55310.5117 -45842.5586)">
					<stop  offset="0" style="stop-color:#FFFFFF;stop-opacity:0.5"/>
					<stop  offset="1" style="stop-color:#FFFFFF;stop-opacity:0"/>
				</linearGradient>
				<path id="Trazado_189640" style="fill:url(#Trazado_189640_00000138554014447928877660000010621253932270525110_);" d="
					M33.4,48.8L14.5,37.9v4.3l18.9,10.9L33.4,48.8z M31.7,57.6l-15.8-9.1v4.3l15.8,9.1V57.6z M46.3,56.3l-9.9-5.7v4.3l9.9,5.7V56.3z
					 M34.5,43.9l4.6,2.6v-4.3l-4.6-2.6V43.9z M50.1,33.2l20.6,11.9v-4.3L50.1,29L50.1,33.2z M62.7,55.9L42.1,44v4.3l20.6,11.9V55.9z
					 M42.3,68.1l20.6,11.9v-4.3L42.3,63.8V68.1z M67.3,48.7l-7.4-4.3v4.3l7.4,4.3V48.7z M49.4,62.3l7.4,4.3v-4.3L49.4,58V62.3z
					 M3.5,31.5l-3.5-2v4.3l3.5,2V31.5z M34.7,63.7l4.6,2.6V62l-4.6-2.6V63.7z M12.8,46.7L0,39.4v4.3L12.8,51V46.7z M20.6,11.9
					l-13-7.5v4.3l13,7.5V11.9z M11.5,40.4v-4.3l-5-2.9v4.3L11.5,40.4z M46.9,41.2l9.9,5.7v-4.3l-9.9-5.7V41.2z M42.5,28.8l4.6,2.6
					v-4.3l-4.6-2.6V28.8z M25,28.5l18.9,10.9v-4.3L25,24.3V28.5z M12.6,27L0,19.7v4.3l12.6,7.3V27z M56.2,22.6v4.3l9.9,5.7v-4.3
					L56.2,22.6z M69.2,34.4l8.3,4.8v-4.3l-8.3-4.8V34.4z M77.5,110.3l-17.6-10.2v4.3l17.6,10.2V110.3z M70.3,54.7l7.2,4.1v-4.3
					l-7.2-4.1V54.7z M65.8,61.9l11.7,6.8v-4.3l-11.7-6.8V61.9z M66,81.7l11.6,6.7v-4.3L66,77.4V81.7z M59.9,68.3l17.7,10.2v-4.3
					L59.9,64.1L59.9,68.3z M73.8,46.9l3.7,2.2v-4.3l-3.7-2.2V46.9z M20.8,6.4l13.3,7.7V9.9L20.8,2.2V6.4z M56.8,98.4l-7.4-4.3v4.3
					l7.4,4.3V98.4z M21.9,22.5l-10.5-6.1v4.3l10.5,6.1V22.5z M8.4,14.7L0,9.8v4.3L8.4,19L8.4,14.7z M15.7,33l15.8,9.1v-4.3
					l-15.8-9.1V33z M4.6,2.7L0,0v4.3l4.6,2.7V2.7z M23.7,17.9l15.8,9.1v-4.3l-15.8-9.1V17.9z M37.2,15.9l16,9.2v-4.3l-16-9.2
					L37.2,15.9z M65.8,99.1l11.7,6.8v-4.3l-11.7-6.8V99.1z M42.1,85.4l20.6,11.9V93L42.1,81.2L42.1,85.4z M34.5,81l4.6,2.6v-4.3
					l-4.6-2.6V81z M15.7,70.1l15.8,9.1V75l-15.8-9.1V70.1z"/>
			</g>
			<g id="Grupo_128881" transform="translate(512.894 20.874)">
				
					<linearGradient id="Trazado_189649_00000052066126744400138510000010508043265518063275_" gradientUnits="userSpaceOnUse" x1="-545.0488" y1="619.1735" x2="-546.3328" y2="619.8094" gradientTransform="matrix(53.614 0 0 -56.474 29290.2402 35017.0664)">
					<stop  offset="0" style="stop-color:#FFFFFF;stop-opacity:0.5"/>
					<stop  offset="1" style="stop-color:#FFFFFF;stop-opacity:0"/>
				</linearGradient>
				<path id="Trazado_189649" style="fill:url(#Trazado_189649_00000052066126744400138510000010508043265518063275_);" d="
					M53.6,54.1c-0.6-0.9-1.1-1.8-1.6-2.8l-4.1-1.2l-0.4-1c-0.7-1.8-1.3-3.7-1.7-5.6l-0.5-2.4l3.8-0.5v-0.1c0-0.4,0-0.8,0.1-1.3
					l-3.6-4.6l0.3-1.1c0.4-1.5,1-2.9,1.9-4.2l1.4-2l4.2,3.6l-0.6-3.1L0,0v28.1l53.1,28.4L53.6,54.1z"/>
				<path id="Trazado_189650" class="st26" d="M74.1,53.6c0-0.7-0.1-1.4-0.1-2.1l3.5-0.4c-0.4-1.8-0.9-3.6-1.6-5.3l-4-1.2
					c-0.7-1.5-1.5-2.9-2.5-4.2l0.9-4c-1.1-1.4-2.4-2.8-3.8-4l-2.1,2.8c-0.6-0.4-1.1-0.8-1.7-1.2c-0.6-0.3-1.1-0.6-1.7-0.8l-2.1-5.2
					c-1.2-0.4-2.5-0.5-3.8-0.4l0.9,5.1c-0.9,0.2-1.8,0.7-2.5,1.4l-4-3.4c-0.7,1-1.3,2.2-1.6,3.4l3.5,4.4c-0.1,0.6-0.1,1.3-0.1,1.9
					c0,0.7,0.1,1.4,0.1,2.1L48.1,43c0.4,1.8,0.9,3.6,1.6,5.3l4,1.2c0.7,1.5,1.5,2.9,2.5,4.2l-0.9,4c1.1,1.4,2.4,2.8,3.8,4l2.1-2.8
					c0.6,0.4,1.1,0.8,1.7,1.2c0.6,0.3,1.1,0.6,1.7,0.8l2.1,5.2c1.2,0.4,2.5,0.5,3.8,0.4l-0.9-5.1c0.9-0.2,1.8-0.7,2.5-1.4l4,3.4
					c0.7-1,1.3-2.2,1.6-3.4L74,55.5C74.1,54.9,74.1,54.3,74.1,53.6z M62.8,52.3c-2.7-1.7-4.4-4.7-4.6-7.9c0-2.9,2-4.1,4.6-2.6
					c2.7,1.7,4.4,4.7,4.6,7.9C67.3,52.6,65.3,53.7,62.8,52.3L62.8,52.3z"/>
			</g>
			<g id="Grupo_128882" transform="translate(793.685 395.589)">
				
					<linearGradient id="Trazado_189651_00000140698830371594094660000007663095583690624152_" gradientUnits="userSpaceOnUse" x1="-825.8398" y1="244.4585" x2="-827.1238" y2="245.0945" gradientTransform="matrix(53.614 0 0 -56.475 44344.5742 13855.6592)">
					<stop  offset="0" style="stop-color:#FFFFFF;stop-opacity:0.5"/>
					<stop  offset="1" style="stop-color:#FFFFFF;stop-opacity:0"/>
				</linearGradient>
				<path id="Trazado_189651" style="fill:url(#Trazado_189651_00000140698830371594094660000007663095583690624152_);" d="
					M53.6,54.1c-0.6-0.9-1.1-1.8-1.6-2.8l-4.1-1.2l-0.4-1c-0.7-1.8-1.3-3.7-1.7-5.6l-0.5-2.4l3.8-0.5v-0.1c0-0.4,0-0.8,0.1-1.2
					l-3.6-4.6l0.3-1.1c0.4-1.5,1-2.9,1.9-4.2l1.4-2l4.2,3.6l-0.6-3.1L0,0v28.1l53.1,28.4L53.6,54.1z"/>
				<path id="Trazado_189652" class="st26" d="M74.1,53.6c0-0.7-0.1-1.4-0.1-2.1l3.5-0.4c-0.4-1.8-0.9-3.6-1.6-5.3l-4-1.2
					c-0.7-1.5-1.5-2.9-2.5-4.2l0.9-4c-1.1-1.4-2.4-2.8-3.8-4l-2.1,2.8c-0.6-0.4-1.1-0.8-1.7-1.2c-0.6-0.3-1.1-0.6-1.7-0.8l-2.1-5.2
					c-1.2-0.4-2.5-0.5-3.8-0.4l0.9,5.1c-0.9,0.2-1.8,0.7-2.5,1.4l-4-3.4c-0.7,1-1.3,2.2-1.6,3.4l3.5,4.5c-0.1,0.6-0.1,1.3-0.1,1.9
					c0,0.7,0.1,1.4,0.1,2.1L48.1,43c0.4,1.8,0.9,3.6,1.6,5.3l4,1.2c0.7,1.5,1.5,2.9,2.5,4.2l-0.9,4c1.1,1.4,2.4,2.8,3.8,4l2.1-2.8
					c0.6,0.4,1.1,0.8,1.7,1.2c0.6,0.3,1.1,0.6,1.7,0.8l2.1,5.2c1.2,0.4,2.5,0.5,3.8,0.4l-0.9-5.1c0.9-0.2,1.8-0.7,2.5-1.4l4,3.4
					c0.7-1,1.3-2.2,1.6-3.4L74,55.5C74.1,54.9,74.1,54.3,74.1,53.6z M62.8,52.3c-2.7-1.7-4.4-4.7-4.6-7.9c0-2.9,2-4.1,4.6-2.6
					c2.7,1.7,4.4,4.7,4.6,7.9C67.3,52.6,65.3,53.7,62.8,52.3L62.8,52.3z"/>
			</g>
		</g>
	</g>
	<rect id="Rectángulo_293915" x="814.6" y="85" class="st0" width="610" height="477"/>
</g>
</svg>
