<svg xmlns="http://www.w3.org/2000/svg" width="76.525" height="53.992" viewBox="0 0 76.525 53.992">
  <g id="Grupo_131777" data-name="Grupo 131777" transform="translate(12496.214 12036.635)">
    <path id="Trazado_189612" data-name="Trazado 189612" d="M494.514,208.066v-.016l-.006,0h0a.434.434,0,0,0-.06-.213l0-.009c0-3.934.009-10.757.007-11.187l0-.022a.948.948,0,0,0-.193-.538l-3.495-4.871a1.667,1.667,0,0,0-1.44-.676l-9.135,1.531a2.8,2.8,0,0,1-1.746-.5c-.569-.4-1.179-.78-1.811-1.141l.011-7.267-.007.013c.007-.3-.273-.574-.727-.68l-9.273-2.218a1.726,1.726,0,0,0-1.492.282l-4.435,4.667a2.126,2.126,0,0,1-1.458.454,48.735,48.735,0,0,0-6.039.007,2.371,2.371,0,0,1-1.629-.705l-3.969-4.178a1.835,1.835,0,0,0-1.553-.569l-9.638,2.3a.635.635,0,0,0-.5.638.054.054,0,0,0,0,.031c0,.4-.006,3.849-.006,7.2a24,24,0,0,0-2.148,1.367,2.473,2.473,0,0,1-1.587.27l-8.849-1.489a1.567,1.567,0,0,0-1.407.412l-3.841,5.35a.408.408,0,0,0-.08.237l0,.042c0,.811-.02,13.822-.02,13.9a.453.453,0,0,0,.073.222c0,4-.009,6.868-.016,7.034a.967.967,0,0,0,.2.57l3.493,4.869a1.67,1.67,0,0,0,1.441.678l9.131-1.536a2.846,2.846,0,0,1,1.746.5c.572.4,1.179.778,1.815,1.148l-.009,7.236c-.018.3.272.589.731.7l9.266,2.21a1.715,1.715,0,0,0,1.5-.277l4.437-4.663a2.06,2.06,0,0,1,1.456-.456,50.957,50.957,0,0,0,6.039-.007,2.36,2.36,0,0,1,1.627.7l3.973,4.177a1.836,1.836,0,0,0,1.551.574l9.636-2.307a.619.619,0,0,0,.492-.53c.024-.157.013-7.34.013-7.34a24.979,24.979,0,0,0,2.15-1.365,2.426,2.426,0,0,1,1.585-.273l8.851,1.494a1.562,1.562,0,0,0,1.4-.415l3.843-5.352a.436.436,0,0,0,.082-.246c0-.253.015-9.277.013-9.767Zm-51.6.279c.423-.3.88-.585,1.376-.877,6.626-3.821,17.353-3.819,23.977,0,.483.282.937.574,1.347.862a12.627,12.627,0,0,1-1.454.946c-4.705,2.677-11.9,3.623-18.392,2.074a20.57,20.57,0,0,1-5.436-2.081A13.414,13.414,0,0,1,442.919,208.345Z" transform="translate(-12914.203 -12216.839)" fill="#ffb30c"/>
    <path id="Trazado_189613" data-name="Trazado 189613" d="M494.514,208.066v-.016l-.006,0h0a.434.434,0,0,0-.06-.213l0-.009c0-3.934.009-10.757.007-11.187l0-.022a.948.948,0,0,0-.193-.538l-3.495-4.871a1.667,1.667,0,0,0-1.44-.676l-9.135,1.531a2.8,2.8,0,0,1-1.746-.5c-.569-.4-1.179-.78-1.811-1.141l.011-7.267-.007.013c.007-.3-.273-.574-.727-.68l-9.273-2.218a1.726,1.726,0,0,0-1.492.282l-4.435,4.667a2.126,2.126,0,0,1-1.458.454,48.735,48.735,0,0,0-6.039.007,2.371,2.371,0,0,1-1.629-.705l-3.969-4.178a1.835,1.835,0,0,0-1.553-.569l-9.638,2.3a.635.635,0,0,0-.5.638.054.054,0,0,0,0,.031c0,.4-.006,3.849-.006,7.2a24,24,0,0,0-2.148,1.367,2.473,2.473,0,0,1-1.587.27l-8.849-1.489a1.567,1.567,0,0,0-1.407.412l-3.841,5.35a.408.408,0,0,0-.08.237l0,.042c0,.811-.02,13.822-.02,13.9a.453.453,0,0,0,.073.222c0,4-.009,6.868-.016,7.034a.967.967,0,0,0,.2.57l3.493,4.869a1.67,1.67,0,0,0,1.441.678l9.131-1.536a2.846,2.846,0,0,1,1.746.5c.572.4,1.179.778,1.815,1.148l-.009,7.236c-.018.3.272.589.731.7l9.266,2.21a1.715,1.715,0,0,0,1.5-.277l4.437-4.663a2.06,2.06,0,0,1,1.456-.456,50.957,50.957,0,0,0,6.039-.007,2.36,2.36,0,0,1,1.627.7l3.973,4.177a1.836,1.836,0,0,0,1.551.574l9.636-2.307a.619.619,0,0,0,.492-.53c.024-.157.013-7.34.013-7.34a24.979,24.979,0,0,0,2.15-1.365,2.426,2.426,0,0,1,1.585-.273l8.851,1.494a1.562,1.562,0,0,0,1.4-.415l3.843-5.352a.436.436,0,0,0,.082-.246c0-.253.015-9.277.013-9.767Zm-51.6.279c.423-.3.88-.585,1.376-.877,6.626-3.821,17.353-3.819,23.977,0,.483.282.937.574,1.347.862a12.627,12.627,0,0,1-1.454.946c-4.705,2.677-11.9,3.623-18.392,2.074a20.57,20.57,0,0,1-5.436-2.081A13.414,13.414,0,0,1,442.919,208.345Z" transform="translate(-12914.203 -12216.839)" opacity="0.2"/>
    <path id="Trazado_189614" data-name="Trazado 189614" d="M427.421,193.358a9.5,9.5,0,0,0-.013,3.021.974.974,0,0,1-.62,1.066l-8.337,2.633a.544.544,0,0,0-.392.532c.005.169,0,2.713,0,2.713a.477.477,0,0,1-.069-.2c.007-4.734.018-12.65.018-13.344V189.2c.013.251.264.5.669.625l7.878,2.5A1.081,1.081,0,0,1,427.421,193.358Z" transform="translate(-12914.201 -12209.446)" opacity="0.15"/>
    <path id="Trazado_189615" data-name="Trazado 189615" d="M430.513,197.953v9.786a1.336,1.336,0,0,0-.334.009l-9.135,1.531a1.086,1.086,0,0,1-.465-.038v-9.767a1.174,1.174,0,0,0,.487.027l9.131-1.536A1,1,0,0,1,430.513,197.953Z" transform="translate(-12912.072 -12202.251)" opacity="0.15"/>
    <path id="Trazado_189616" data-name="Trazado 189616" d="M439.464,201.538v9.782a1.421,1.421,0,0,0-.561.319l-4.434,4.663a1.365,1.365,0,0,1-.805.324v-9.782a1.317,1.317,0,0,0,.825-.317l4.441-4.674A1.418,1.418,0,0,1,439.464,201.538Z" transform="translate(-12901.314 -12199.298)" opacity="0.15"/>
    <path id="Trazado_189617" data-name="Trazado 189617" d="M446.876,206.823V216.6a1.976,1.976,0,0,1-.882-.521L442.02,211.9a2.533,2.533,0,0,0-1.046-.616v-9.778a2.548,2.548,0,0,1,1.066.616l3.973,4.177A2.012,2.012,0,0,0,446.876,206.823Z" transform="translate(-12895.304 -12199.322)" opacity="0.15"/>
    <path id="Trazado_189618" data-name="Trazado 189618" d="M454.394,197.959v9.784a2,2,0,0,0-.964.29,25.273,25.273,0,0,1-2.15,1.361s.013-2.234.011-2.538a.955.955,0,0,0-.1-.4l-2.314-4.585a.836.836,0,0,1,.288-1.164,26.306,26.306,0,0,0,4.284-2.451A1.946,1.946,0,0,1,454.394,197.959Z" transform="translate(-12888.901 -12202.24)" opacity="0.15"/>
    <path id="Trazado_189619" data-name="Trazado 189619" d="M462.056,195.495c0,.487-.011,9.51-.011,9.767a.508.508,0,0,1-.089.25l-3.841,5.348a1.124,1.124,0,0,1-.656.375v-9.767a1.2,1.2,0,0,0,.682-.385l3.836-5.356A.359.359,0,0,0,462.056,195.495Z" transform="translate(-12881.749 -12204.267)" opacity="0.15"/>
    <g id="Grupo_128875" data-name="Grupo 128875" transform="translate(-12496.195 -12036.635)">
      <path id="Trazado_189620" data-name="Trazado 189620" d="M435.919,183.168a.054.054,0,0,0,0,.031.879.879,0,0,0,.106.37l2.307,4.576a.829.829,0,0,1-.29,1.163c-.734.344-1.451.707-2.128,1.1a24.254,24.254,0,0,0-2.148,1.367,2.473,2.473,0,0,1-1.587.27l-8.849-1.489a1.567,1.567,0,0,0-1.407.412l-3.841,5.35a.408.408,0,0,0-.08.237l0,.042c.015.25.264.494.672.621l7.878,2.5a1.074,1.074,0,0,1,.86,1.042,9.483,9.483,0,0,0-.007,3.019.977.977,0,0,1-.62,1.064l-8.339,2.642a.528.528,0,0,0-.392.525,1,1,0,0,0,.2.539l3.5,4.869a1.631,1.631,0,0,0,1.44.674l9.131-1.534a2.784,2.784,0,0,1,1.74.5,27.342,27.342,0,0,0,3.7,2.13c.543.266.844.738.667,1.1l-2.513,4.969c-.177.357.129.747.68.886l9.274,2.212a1.72,1.72,0,0,0,1.494-.277l4.441-4.67a2.108,2.108,0,0,1,1.454-.459,49.764,49.764,0,0,0,6.035,0,2.394,2.394,0,0,1,1.633.7l3.974,4.18a1.866,1.866,0,0,0,1.545.576l9.638-2.311a.673.673,0,0,0,.4-1.03l-2.312-4.581a.836.836,0,0,1,.29-1.164,26.87,26.87,0,0,0,4.279-2.458,2.421,2.421,0,0,1,1.585-.273l8.854,1.487a1.552,1.552,0,0,0,1.4-.412l3.838-5.346a.381.381,0,0,0,.08-.239l.005,0c0-.016-.005-.02-.005-.02a.435.435,0,0,0-.06-.213l0-.009a1.047,1.047,0,0,0-.6-.419l-7.879-2.493c-.552-.177-.928-.634-.862-1.044a9.688,9.688,0,0,0,.011-3.018.969.969,0,0,1,.618-1.066l8.344-2.639a.527.527,0,0,0,.381-.508l0-.022a.948.948,0,0,0-.193-.538l-3.5-4.871a1.667,1.667,0,0,0-1.44-.676l-9.135,1.531a2.8,2.8,0,0,1-1.746-.5c-.569-.4-1.179-.78-1.811-1.141-.6-.344-1.234-.674-1.886-.993-.545-.255-.849-.733-.671-1.086l2.517-4.98a.406.406,0,0,0,.044-.195c.007-.3-.273-.574-.727-.68l-9.273-2.218a1.731,1.731,0,0,0-1.494.282l-4.433,4.667a2.126,2.126,0,0,1-1.458.454,48.735,48.735,0,0,0-6.039.007,2.371,2.371,0,0,1-1.629-.705l-3.969-4.178a1.835,1.835,0,0,0-1.553-.569l-9.638,2.3A.635.635,0,0,0,435.919,183.168Zm35.058,14.3c.082.084.16.16.239.248a2.18,2.18,0,0,1,.162.18c.12.131.233.27.343.414.129.164.246.333.361.5q.1.159.2.323c.031.053.06.106.089.157a5.99,5.99,0,0,1-.463,6.759,10.3,10.3,0,0,1-2.3,2.276,12.627,12.627,0,0,1-1.454.946c-4.705,2.677-11.9,3.623-18.392,2.072a20.507,20.507,0,0,1-5.436-2.079,13.7,13.7,0,0,1-1.418-.922,9.478,9.478,0,0,1-2.892-3.216.118.118,0,0,1-.018-.044,1.718,1.718,0,0,1-.1-.191,1.771,1.771,0,0,1-.087-.2,1.18,1.18,0,0,1-.091-.213,5.991,5.991,0,0,1,.862-5.917c3.588-4.995,13.5-7.367,22.148-5.3A17.056,17.056,0,0,1,470.977,197.471Z" transform="translate(-417.999 -180.205)" fill="#ffb30c"/>
    </g>
  </g>
</svg>
