<svg xmlns="http://www.w3.org/2000/svg" width="107.274" height="233.58" viewBox="0 0 107.274 233.58">
  <g id="Grupo_131776" data-name="Grupo 131776" transform="translate(12374.456 12250.239)">
    <g id="Grupo_131727" data-name="Grupo 131727" transform="translate(-12374.456 -12250.239)">
      <g id="Grupo_128860" data-name="Grupo 128860">
        <g id="Grupo_128857" data-name="Grupo 128857" transform="translate(0 2.505)" opacity="0.8">
          <g id="Grupo_128854" data-name="Grupo 128854" opacity="0.91">
            <g id="Grupo_128853" data-name="Grupo 128853">
              <path id="Trazado_189557" data-name="Trazado 189557" d="M484.806,66.83V233.763a7.668,7.668,0,0,0,3.471,6.008l95.9,55.331a2.292,2.292,0,0,0,1.15.332,2.071,2.071,0,0,0,.445-.06,1.338,1.338,0,0,0,.3-.1c.069-.036.126-.071.182-.1s.137-.093.2-.139a1.16,1.16,0,0,0,.195-.171,2.726,2.726,0,0,0,.636-.909,4.322,4.322,0,0,0,.366-1.753V126.11a7.69,7.69,0,0,0-3.473-6.01l-95.9-55.273a2.52,2.52,0,0,0-2.333-.3,1.721,1.721,0,0,0-.3.171l-.024.026a.959.959,0,0,0-.226.228.559.559,0,0,0-.1.124.58.58,0,0,0-.115.182,1.53,1.53,0,0,0-.2.443,1.271,1.271,0,0,0-.08.308c-.011.02-.024.046-.011.067a1.515,1.515,0,0,0-.056.319C484.819,66.533,484.806,66.683,484.806,66.83Z" transform="translate(-484.806 -64.359)" fill="#b9ddfc"/>
              <path id="Trazado_189558" data-name="Trazado 189558" d="M486.761,66.181a1.5,1.5,0,0,1,.605.224l95.9,55.271a5.948,5.948,0,0,1,2.564,4.434V292.2a2.469,2.469,0,0,1-.208,1.01.915.915,0,0,1-.2.306l-.069.066-.006,0-.036.029h0a.627.627,0,0,1-.219-.087l-95.9-55.333a5.834,5.834,0,0,1-2.558-4.428V66.83c0-.062.005-.124.011-.2l.029-.049.016-.153.077-.248m-.025-1.822a1.854,1.854,0,0,0-.791.169,1.72,1.72,0,0,0-.3.171l-.024.026a.959.959,0,0,0-.226.228.559.559,0,0,0-.1.124.58.58,0,0,0-.115.182,1.53,1.53,0,0,0-.2.443,1.271,1.271,0,0,0-.08.308c-.011.02-.024.046-.011.067a1.515,1.515,0,0,0-.056.319c-.011.137-.024.286-.024.434V233.763a7.668,7.668,0,0,0,3.471,6.008l95.9,55.331a2.323,2.323,0,0,0,1.112.332h.038a2.073,2.073,0,0,0,.445-.06,1.338,1.338,0,0,0,.3-.1c.069-.036.126-.071.182-.1s.137-.093.2-.139a1.16,1.16,0,0,0,.195-.171,2.726,2.726,0,0,0,.636-.909,4.322,4.322,0,0,0,.366-1.753V126.11a7.69,7.69,0,0,0-3.473-6.01l-95.9-55.273a3.156,3.156,0,0,0-1.542-.468Z" transform="translate(-484.806 -64.359)" fill="#b9ddfc"/>
            </g>
          </g>
        </g>
        <g id="Grupo_128858" data-name="Grupo 128858" transform="translate(0.007)">
          <path id="Trazado_189560" data-name="Trazado 189560" d="M485.431,65.659a2.52,2.52,0,0,1,2.332.3l95.9,55.273a7.69,7.69,0,0,1,3.473,6.01v11.333l4.424-2.595V124.725a7.647,7.647,0,0,0-3.459-6L492.19,63.454a2.419,2.419,0,0,0-2.517-.206C489.05,63.625,486.169,65.274,485.431,65.659Z" transform="translate(-484.299 -62.984)" fill="#0ddcf1"/>
          <path id="Trazado_189561" data-name="Trazado 189561" d="M484.81,66.8c.015-2.187,1.56-3.074,3.464-1.972l95.9,55.274a7.66,7.66,0,0,1,3.466,6l0,11.338L484.81,78.183Z" transform="translate(-484.81 -61.854)" fill="#0ddcf1"/>
          <path id="Trazado_189562" data-name="Trazado 189562" d="M487.76,65.959l95.9,55.276A7.079,7.079,0,0,1,586.1,123.8l4.406-2.551a6.973,6.973,0,0,0-2.413-2.529L492.186,63.45a2.447,2.447,0,0,0-2.518-.206c-.621.384-3.5,2.017-4.229,2.411A2.509,2.509,0,0,1,487.76,65.959Z" transform="translate(-484.294 -62.984)" fill="#fff" opacity="0.4"/>
          <path id="Trazado_189563" data-name="Trazado 189563" d="M546.145,109.7l0-11.269a7.17,7.17,0,0,0-1.055-3.47L540.671,97.5a6.987,6.987,0,0,1,1.037,3.444v11.336Z" transform="translate(-438.878 -36.691)" opacity="0.15"/>
        </g>
        <g id="Grupo_128859" data-name="Grupo 128859" transform="translate(4.825 9.495)">
          <path id="Trazado_189564" data-name="Trazado 189564" d="M497.151,72.878a5.164,5.164,0,0,1,1.959,4.146c0,1.666-.877,2.511-1.959,1.884a5.171,5.171,0,0,1-1.957-4.146C495.194,73.095,496.07,72.253,497.151,72.878Z" transform="translate(-481.09 -64.514)" fill="#375a64"/>
          <path id="Trazado_189565" data-name="Trazado 189565" d="M493.282,70.639a5.172,5.172,0,0,1,1.959,4.146c0,1.667-.878,2.511-1.959,1.884a5.16,5.16,0,0,1-1.957-4.146C491.325,70.859,492.2,70.015,493.282,70.639Z" transform="translate(-484.271 -66.354)" fill="#375a64"/>
          <path id="Trazado_189566" data-name="Trazado 189566" d="M489.415,68.4a5.178,5.178,0,0,1,1.957,4.149c0,1.666-.877,2.509-1.957,1.884a5.165,5.165,0,0,1-1.961-4.146C487.454,68.62,488.332,67.778,489.415,68.4Z" transform="translate(-487.454 -68.195)" fill="#375a64"/>
        </g>
        <path id="Trazado_189567" data-name="Trazado 189567" d="M540.544,263.306c.126-.08.273-.159.432-.251.319-.191.683-.4,1.071-.6l.009-.009c.193-.115.388-.23.581-.328a.088.088,0,0,1,.046-.027c.319-.18.623-.361.909-.519s.558-.321.764-.435.364-.2.432-.239a1.974,1.974,0,0,0,.592-.476,2.659,2.659,0,0,0,.467-.707,4.312,4.312,0,0,0,.4-1.831V103.041l-4.424,2.595V260.393a5.227,5.227,0,0,1-.366,1.753,2.725,2.725,0,0,1-.636.909.594.594,0,0,1-.195.171A.253.253,0,0,1,540.544,263.306Z" transform="translate(-438.975 -30.047)" fill="#2b454e" opacity="0.9"/>
      </g>
      <g id="Grupo_128873" data-name="Grupo 128873" transform="translate(6.689 49.415)">
        <g id="Grupo_128861" data-name="Grupo 128861" transform="translate(56.769 21.184)">
          <path id="Trazado_189568" data-name="Trazado 189568" d="M537.977,113.641a.513.513,0,0,1-.177.445l-2.491,2.281a.125.125,0,0,1-.115.02c-.033-.015-.053-.02-.062-.025a.554.554,0,0,1-.2-.239.852.852,0,0,1-.08-.354v-1.733a1.562,1.562,0,0,1,.051-.476.7.7,0,0,1,.175-.27l1.316-1.2-1.316-2.726a2.668,2.668,0,0,1-.175-.472,2.284,2.284,0,0,1-.051-.538V106.62a.349.349,0,0,1,.08-.253.158.158,0,0,1,.2-.016c.009.009.029.022.062.049a.484.484,0,0,1,.115.153l2.491,5.157a1.366,1.366,0,0,1,.177.649Z" transform="translate(-507.111 -97.947)" fill="#0ddcf1"/>
          <path id="Trazado_189569" data-name="Trazado 189569" d="M536.6,121.4a1,1,0,0,1,.022.193.328.328,0,0,1-.082.25.15.15,0,0,1-.2.015l-.9-.518a.911.911,0,0,1-.379-.415,2.255,2.255,0,0,1-.177-.492l-4.275-18.215a.928.928,0,0,1-.024-.191.341.341,0,0,1,.082-.253.146.146,0,0,1,.195-.015l.937.541a.925.925,0,0,1,.366.4,2.591,2.591,0,0,1,.188.51Z" transform="translate(-510.614 -101.727)" fill="#0ddcf1"/>
          <path id="Trazado_189570" data-name="Trazado 189570" d="M527.936,105.893a.517.517,0,0,1,.177-.443l2.493-2.281a.122.122,0,0,1,.113-.022l.064.027a.522.522,0,0,1,.2.239.833.833,0,0,1,.078.348V105.5a1.579,1.579,0,0,1-.049.476.665.665,0,0,1-.175.268l-1.317,1.21,1.317,2.722a2.784,2.784,0,0,1,.175.472,2.288,2.288,0,0,1,.049.534v1.735a.351.351,0,0,1-.078.255.151.151,0,0,1-.2.013c-.007,0-.029-.02-.064-.044a.507.507,0,0,1-.113-.157l-2.493-5.157a1.4,1.4,0,0,1-.177-.643Z" transform="translate(-512.8 -100.564)" fill="#0ddcf1"/>
          <path id="Trazado_189571" data-name="Trazado 189571" d="M525.464,105.4a.633.633,0,0,1,.241.3.975.975,0,0,1,.1.426v1.906a.415.415,0,0,1-.1.313.188.188,0,0,1-.241.018l-1.175-.68a.647.647,0,0,1-.241-.293,1.013,1.013,0,0,1-.1-.432v-1.906a.417.417,0,0,1,.1-.312.184.184,0,0,1,.241-.018Z" transform="translate(-516.081 -99.299)" fill="#0ddcf1"/>
          <path id="Trazado_189572" data-name="Trazado 189572" d="M523.308,104.146a.682.682,0,0,1,.239.3,1.017,1.017,0,0,1,.1.43v1.906a.426.426,0,0,1-.1.315.179.179,0,0,1-.239.013l-1.177-.678a.652.652,0,0,1-.241-.292,1.018,1.018,0,0,1-.1-.43V103.8a.418.418,0,0,1,.1-.31.182.182,0,0,1,.241-.016Z" transform="translate(-517.856 -100.324)" fill="#0ddcf1"/>
          <path id="Trazado_189573" data-name="Trazado 189573" d="M521.148,102.9a.635.635,0,0,1,.241.293,1.009,1.009,0,0,1,.1.428v1.91a.419.419,0,0,1-.1.312.186.186,0,0,1-.241.015l-1.175-.678a.671.671,0,0,1-.241-.3.982.982,0,0,1-.1-.426v-1.908a.419.419,0,0,1,.1-.312.186.186,0,0,1,.241-.015Z" transform="translate(-519.63 -101.347)" fill="#0ddcf1"/>
        </g>
        <path id="Trazado_189574" data-name="Trazado 189574" d="M562.552,132.357,504.929,99.092c-.682-.392-1.234-.113-1.234.621a2.638,2.638,0,0,0,1.234,2.046l57.623,33.269c.678.392,1.228.115,1.228-.623A2.651,2.651,0,0,0,562.552,132.357Z" transform="translate(-475.964 -82.855)" fill="#0ddcf1"/>
        <path id="Trazado_189575" data-name="Trazado 189575" d="M552.4,144.076l-57.621-33.269c-.68-.392-1.232-.113-1.232.621a2.647,2.647,0,0,0,1.232,2.048L552.4,146.744c.682.39,1.232.113,1.232-.621A2.631,2.631,0,0,0,552.4,144.076Z" transform="translate(-484.306 -73.222)" fill="#e1e1e1"/>
        <path id="Trazado_189576" data-name="Trazado 189576" d="M538.847,142.1l-27.578-15.91c-.68-.394-1.232-.117-1.232.625a2.644,2.644,0,0,0,1.232,2.043l27.578,15.91c.682.394,1.232.115,1.232-.623A2.639,2.639,0,0,0,538.847,142.1Z" transform="translate(-470.749 -60.574)" fill="#e1e1e1"/>
        <path id="Trazado_189577" data-name="Trazado 189577" d="M538.847,147.96l-27.578-15.912c-.68-.394-1.232-.115-1.232.621a2.647,2.647,0,0,0,1.232,2.046l27.578,15.912c.682.39,1.232.111,1.232-.625A2.627,2.627,0,0,0,538.847,147.96Z" transform="translate(-470.749 -55.757)" fill="#e1e1e1"/>
        <path id="Trazado_189578" data-name="Trazado 189578" d="M512.666,103.582l-22.955-13.3c-.682-.394-1.234-.118-1.234.621a2.65,2.65,0,0,0,1.234,2.048l22.955,13.3c.682.394,1.234.115,1.234-.62A2.639,2.639,0,0,0,512.666,103.582Z" transform="translate(-488.477 -90.102)" fill="#0ddcf1"/>
        <path id="Trazado_189579" data-name="Trazado 189579" d="M562.552,196.786l-57.623-33.265c-.682-.394-1.234-.117-1.234.623a2.643,2.643,0,0,0,1.234,2.043l57.623,33.269c.678.394,1.228.113,1.228-.623A2.651,2.651,0,0,0,562.552,196.786Z" transform="translate(-475.964 -29.88)" fill="#0ddcf1"/>
        <path id="Trazado_189580" data-name="Trazado 189580" d="M512.666,168.011,489.711,154.7c-.682-.388-1.234-.113-1.234.625a2.63,2.63,0,0,0,1.234,2.045l22.955,13.3c.682.392,1.234.115,1.234-.625A2.626,2.626,0,0,0,512.666,168.011Z" transform="translate(-488.477 -37.127)" fill="#0ddcf1"/>
        <path id="Trazado_189581" data-name="Trazado 189581" d="M512.666,150.467l-22.955-13.3c-.682-.4-1.234-.115-1.234.621a2.633,2.633,0,0,0,1.234,2.046l22.955,13.3c.682.394,1.234.117,1.234-.621A2.647,2.647,0,0,0,512.666,150.467Z" transform="translate(-488.477 -51.55)" fill="#0ddcf1"/>
        <path id="Trazado_189582" data-name="Trazado 189582" d="M512.666,156.324l-22.955-13.3c-.682-.392-1.234-.113-1.234.625a2.644,2.644,0,0,0,1.234,2.046l22.955,13.3c.682.392,1.234.113,1.234-.623A2.644,2.644,0,0,0,512.666,156.324Z" transform="translate(-488.477 -46.735)" fill="#0ddcf1"/>
        <path id="Trazado_189583" data-name="Trazado 189583" d="M562.552,190.934l-57.623-33.265c-.682-.392-1.234-.117-1.234.623a2.641,2.641,0,0,0,1.234,2.045L562.552,193.6c.678.4,1.228.115,1.228-.623A2.654,2.654,0,0,0,562.552,190.934Z" transform="translate(-475.964 -34.691)" fill="#f5f5f5"/>
        <path id="Trazado_189584" data-name="Trazado 189584" d="M518.87,154.011l-12.9-7.449c-.681-.39-1.232-.111-1.232.625a2.64,2.64,0,0,0,1.232,2.046l12.9,7.444c.68.394,1.232.115,1.232-.623A2.641,2.641,0,0,0,518.87,154.011Z" transform="translate(-475.105 -43.822)" fill="#0ddcf1"/>
        <g id="Grupo_128862" data-name="Grupo 128862" transform="translate(51.745 40.606)">
          <path id="Trazado_189585" data-name="Trazado 189585" d="M551.716,131.983,518.1,112.562c-.682-.39-1.232-.113-1.232.625a2.645,2.645,0,0,0,1.232,2.048l33.611,19.416c.678.4,1.228.113,1.228-.623A2.642,2.642,0,0,0,551.716,131.983Z" transform="translate(-516.873 -112.385)" fill="#0ddcf1"/>
          <path id="Trazado_189586" data-name="Trazado 189586" d="M551.716,131.983,518.1,112.562c-.682-.39-1.232-.113-1.232.625a2.645,2.645,0,0,0,1.232,2.048l33.611,19.416c.678.4,1.228.113,1.228-.623A2.642,2.642,0,0,0,551.716,131.983Z" transform="translate(-516.873 -112.385)" fill="#fff" opacity="0.6"/>
        </g>
        <g id="Grupo_128863" data-name="Grupo 128863" transform="translate(73.953 64.09)">
          <path id="Trazado_189587" data-name="Trazado 189587" d="M541.7,132.041l-11.406-6.589c-.68-.4-1.23-.117-1.23.62a2.633,2.633,0,0,0,1.23,2.045l11.406,6.591c.678.394,1.228.113,1.228-.621A2.639,2.639,0,0,0,541.7,132.041Z" transform="translate(-529.06 -125.272)" fill="#0ddcf1"/>
          <path id="Trazado_189588" data-name="Trazado 189588" d="M541.7,132.041l-11.406-6.589c-.68-.4-1.23-.117-1.23.62a2.633,2.633,0,0,0,1.23,2.045l11.406,6.591c.678.394,1.228.113,1.228-.621A2.639,2.639,0,0,0,541.7,132.041Z" transform="translate(-529.06 -125.272)" fill="#fff" opacity="0.6"/>
        </g>
        <g id="Grupo_128864" data-name="Grupo 128864" transform="translate(73.953 74.762)">
          <path id="Trazado_189589" data-name="Trazado 189589" d="M541.7,137.9l-11.406-6.589c-.68-.394-1.23-.109-1.23.625a2.642,2.642,0,0,0,1.23,2.045l11.406,6.593c.678.39,1.228.111,1.228-.625A2.651,2.651,0,0,0,541.7,137.9Z" transform="translate(-529.06 -131.129)" fill="#0ddcf1"/>
          <path id="Trazado_189590" data-name="Trazado 189590" d="M541.7,137.9l-11.406-6.589c-.68-.394-1.23-.109-1.23.625a2.642,2.642,0,0,0,1.23,2.045l11.406,6.593c.678.39,1.228.111,1.228-.625A2.651,2.651,0,0,0,541.7,137.9Z" transform="translate(-529.06 -131.129)" fill="#fff" opacity="0.6"/>
        </g>
        <g id="Grupo_128865" data-name="Grupo 128865" transform="translate(73.953 85.434)">
          <path id="Trazado_189591" data-name="Trazado 189591" d="M541.7,143.754l-11.406-6.589c-.68-.4-1.23-.115-1.23.621a2.64,2.64,0,0,0,1.23,2.046l11.406,6.591c.678.394,1.228.113,1.228-.623A2.648,2.648,0,0,0,541.7,143.754Z" transform="translate(-529.06 -136.986)" fill="#0ddcf1"/>
          <path id="Trazado_189592" data-name="Trazado 189592" d="M541.7,143.754l-11.406-6.589c-.68-.4-1.23-.115-1.23.621a2.64,2.64,0,0,0,1.23,2.046l11.406,6.591c.678.394,1.228.113,1.228-.623A2.648,2.648,0,0,0,541.7,143.754Z" transform="translate(-529.06 -136.986)" fill="#fff" opacity="0.6"/>
        </g>
        <g id="Grupo_128866" data-name="Grupo 128866" transform="translate(73.953 96.108)">
          <path id="Trazado_189593" data-name="Trazado 189593" d="M541.7,149.611,530.29,143.02c-.68-.392-1.23-.113-1.23.625a2.645,2.645,0,0,0,1.23,2.046l11.406,6.589c.678.394,1.228.117,1.228-.625A2.647,2.647,0,0,0,541.7,149.611Z" transform="translate(-529.06 -142.843)" fill="#0ddcf1"/>
          <path id="Trazado_189594" data-name="Trazado 189594" d="M541.7,149.611,530.29,143.02c-.68-.392-1.23-.113-1.23.625a2.645,2.645,0,0,0,1.23,2.046l11.406,6.589c.678.394,1.228.117,1.228-.625A2.647,2.647,0,0,0,541.7,149.611Z" transform="translate(-529.06 -142.843)" fill="#fff" opacity="0.6"/>
        </g>
        <g id="Grupo_128867" data-name="Grupo 128867" transform="translate(32.354 29.439)">
          <path id="Trazado_189595" data-name="Trazado 189595" d="M522.08,114.846l-14.615-8.412c-.682-.392-1.234-.113-1.234.623a2.639,2.639,0,0,0,1.234,2.046l14.615,8.41c.681.4,1.232.113,1.232-.621A2.639,2.639,0,0,0,522.08,114.846Z" transform="translate(-506.232 -106.257)" fill="#0ddcf1"/>
          <path id="Trazado_189596" data-name="Trazado 189596" d="M522.08,114.846l-14.615-8.412c-.682-.392-1.234-.113-1.234.623a2.639,2.639,0,0,0,1.234,2.046l14.615,8.41c.681.4,1.232.113,1.232-.621A2.639,2.639,0,0,0,522.08,114.846Z" transform="translate(-506.232 -106.257)" fill="#fff" opacity="0.6"/>
        </g>
        <g id="Grupo_128868" data-name="Grupo 128868" transform="translate(19.392 75.257)">
          <path id="Trazado_189597" data-name="Trazado 189597" d="M533.959,151l-33.61-19.416c-.682-.4-1.23-.115-1.23.62a2.626,2.626,0,0,0,1.23,2.045l33.61,19.422c.68.392,1.232.113,1.232-.621A2.644,2.644,0,0,0,533.959,151Z" transform="translate(-499.119 -131.401)" fill="#f5f5f5"/>
        </g>
        <g id="Grupo_128869" data-name="Grupo 128869" transform="translate(0 74.779)">
          <path id="Trazado_189598" data-name="Trazado 189598" d="M523.32,150.733l-33.61-19.416c-.682-.394-1.234-.115-1.234.623a2.635,2.635,0,0,0,1.234,2.045l33.608,19.42c.682.392,1.232.109,1.232-.623A2.648,2.648,0,0,0,523.32,150.733Z" transform="translate(-488.477 -131.138)" fill="#f5f5f5"/>
        </g>
        <g id="Grupo_128870" data-name="Grupo 128870" transform="translate(0 64.09)">
          <path id="Trazado_189599" data-name="Trazado 189599" d="M504.325,133.862l-14.614-8.41c-.682-.4-1.234-.117-1.234.62a2.633,2.633,0,0,0,1.234,2.045l14.614,8.412c.68.394,1.232.115,1.232-.623A2.638,2.638,0,0,0,504.325,133.862Z" transform="translate(-488.477 -125.272)" fill="#f5f5f5"/>
        </g>
        <g id="Grupo_128871" data-name="Grupo 128871" transform="translate(33.256 40.587)">
          <path id="Trazado_189600" data-name="Trazado 189600" d="M541.568,131.97l-33.61-19.42c-.68-.39-1.232-.109-1.232.625a2.644,2.644,0,0,0,1.232,2.046l33.61,19.42c.682.392,1.234.111,1.234-.625A2.641,2.641,0,0,0,541.568,131.97Z" transform="translate(-506.727 -112.375)" fill="#0ddcf1"/>
          <path id="Trazado_189601" data-name="Trazado 189601" d="M541.568,131.97l-33.61-19.42c-.68-.39-1.232-.109-1.232.625a2.644,2.644,0,0,0,1.232,2.046l33.61,19.42c.682.392,1.234.111,1.234-.625A2.641,2.641,0,0,0,541.568,131.97Z" transform="translate(-506.727 -112.375)" fill="#fff" opacity="0.6"/>
        </g>
        <g id="Grupo_128872" data-name="Grupo 128872" transform="translate(13.867 29.419)">
          <path id="Trazado_189602" data-name="Trazado 189602" d="M511.933,114.832l-14.614-8.408c-.68-.394-1.232-.115-1.232.623a2.641,2.641,0,0,0,1.232,2.043l14.614,8.413c.682.392,1.232.115,1.232-.623A2.645,2.645,0,0,0,511.933,114.832Z" transform="translate(-496.087 -106.246)" fill="#0ddcf1"/>
          <path id="Trazado_189603" data-name="Trazado 189603" d="M511.933,114.832l-14.614-8.408c-.68-.394-1.232-.115-1.232.623a2.641,2.641,0,0,0,1.232,2.043l14.614,8.413c.682.392,1.232.115,1.232-.623A2.645,2.645,0,0,0,511.933,114.832Z" transform="translate(-496.087 -106.246)" fill="#fff" opacity="0.6"/>
        </g>
      </g>
    </g>
  </g>
</svg>
