<svg xmlns="http://www.w3.org/2000/svg" xmlns:xlink="http://www.w3.org/1999/xlink" width="400" height="541.727" viewBox="0 0 400 541.727">
  <defs>
    <clipPath id="clip-path">
      <rect id="Rectángulo_293743" data-name="Rectángulo 293743" width="365" height="511" transform="translate(0 0)" fill="#fff" stroke="#707070" stroke-width="1"/>
    </clipPath>
  </defs>
  <g id="Grupo_131822" data-name="Grupo 131822" transform="translate(-1020 -469)">
    <rect id="Rectángulo_293528" data-name="Rectángulo 293528" width="243.966" height="247.594" rx="10" transform="translate(1192.51 816.585) rotate(-135)" fill="#b9ddfc"/>
    <g id="Enmascarar_grupo_118" data-name="Enmascarar grupo 118" transform="translate(1055 499.727)" clip-path="url(#clip-path)">
      <g id="Grupo_130603" data-name="Grupo 130603" transform="translate(-0.989 2.176)">
        <g id="Grupo_130525" data-name="Grupo 130525" transform="translate(0 146.939)">
          <g id="Grupo_130502" data-name="Grupo 130502">
            <rect id="Rectángulo_293738" data-name="Rectángulo 293738" width="70.989" height="95.526" fill="#fee4a9"/>
          </g>
          <g id="Grupo_130513" data-name="Grupo 130513" transform="translate(23.843 26.51)">
            <g id="Grupo_130507" data-name="Grupo 130507">
              <g id="Grupo_130503" data-name="Grupo 130503">
                <path id="Trazado_190486" data-name="Trazado 190486" d="M1962.693,1121.939h-35.361a1.16,1.16,0,0,1,0-2.319h35.361a1.16,1.16,0,0,1,0,2.319Z" transform="translate(-1926.213 -1119.62)" fill="#636363"/>
              </g>
              <g id="Grupo_130504" data-name="Grupo 130504" transform="translate(4.637 6.311)">
                <path id="Trazado_190487" data-name="Trazado 190487" d="M1958.056,1125.981h-30.723a1.16,1.16,0,0,1,0-2.319h30.723a1.16,1.16,0,0,1,0,2.319Z" transform="translate(-1926.213 -1123.662)" fill="#636363"/>
              </g>
              <g id="Grupo_130505" data-name="Grupo 130505" transform="translate(4.637 12.624)">
                <path id="Trazado_190488" data-name="Trazado 190488" d="M1958.056,1130.024h-30.723a1.16,1.16,0,0,1,0-2.319h30.723a1.16,1.16,0,0,1,0,2.319Z" transform="translate(-1926.213 -1127.705)" fill="#636363"/>
              </g>
              <g id="Grupo_130506" data-name="Grupo 130506" transform="translate(3.091 18.936)">
                <path id="Trazado_190489" data-name="Trazado 190489" d="M1959.6,1134.066h-32.269a1.16,1.16,0,0,1,0-2.319H1959.6a1.16,1.16,0,0,1,0,2.319Z" transform="translate(-1926.213 -1131.747)" fill="#636363"/>
              </g>
            </g>
            <g id="Grupo_130512" data-name="Grupo 130512" opacity="0.4">
              <g id="Grupo_130508" data-name="Grupo 130508">
                <path id="Trazado_190490" data-name="Trazado 190490" d="M1962.693,1121.939h-35.361a1.16,1.16,0,0,1,0-2.319h35.361a1.16,1.16,0,0,1,0,2.319Z" transform="translate(-1926.213 -1119.62)" fill="#636363"/>
              </g>
              <g id="Grupo_130509" data-name="Grupo 130509" transform="translate(4.637 6.311)">
                <path id="Trazado_190491" data-name="Trazado 190491" d="M1958.056,1125.981h-30.723a1.16,1.16,0,0,1,0-2.319h30.723a1.16,1.16,0,0,1,0,2.319Z" transform="translate(-1926.213 -1123.662)" fill="#636363"/>
              </g>
              <g id="Grupo_130510" data-name="Grupo 130510" transform="translate(4.637 12.624)">
                <path id="Trazado_190492" data-name="Trazado 190492" d="M1958.056,1130.024h-30.723a1.16,1.16,0,0,1,0-2.319h30.723a1.16,1.16,0,0,1,0,2.319Z" transform="translate(-1926.213 -1127.705)" fill="#636363"/>
              </g>
              <g id="Grupo_130511" data-name="Grupo 130511" transform="translate(3.091 18.936)">
                <path id="Trazado_190493" data-name="Trazado 190493" d="M1959.6,1134.066h-32.269a1.16,1.16,0,0,1,0-2.319H1959.6a1.16,1.16,0,0,1,0,2.319Z" transform="translate(-1926.213 -1131.747)" fill="#636363"/>
              </g>
            </g>
          </g>
          <g id="Grupo_130524" data-name="Grupo 130524" transform="translate(6.308 55.532)">
            <g id="Grupo_130518" data-name="Grupo 130518">
              <g id="Grupo_130514" data-name="Grupo 130514">
                <path id="Trazado_190494" data-name="Trazado 190494" d="M1979.705,1121.939h-51.851c-2.187,0-2.19-2.319,0-2.319h51.851c2.187,0,2.191,2.319,0,2.319Z" transform="translate(-1926.213 -1119.62)" fill="#636363"/>
              </g>
              <g id="Grupo_130515" data-name="Grupo 130515" transform="translate(4.637 6.311)">
                <path id="Trazado_190495" data-name="Trazado 190495" d="M1974.995,1125.981h-47.066c-2.285,0-2.29-2.319,0-2.319h47.066c2.285,0,2.289,2.319,0,2.319Z" transform="translate(-1926.213 -1123.662)" fill="#636363"/>
              </g>
              <g id="Grupo_130516" data-name="Grupo 130516" transform="translate(4.637 12.624)">
                <path id="Trazado_190496" data-name="Trazado 190496" d="M1974.995,1130.024h-47.066c-2.285,0-2.29-2.319,0-2.319h47.066c2.285,0,2.289,2.319,0,2.319Z" transform="translate(-1926.213 -1127.705)" fill="#636363"/>
              </g>
              <g id="Grupo_130517" data-name="Grupo 130517" transform="translate(3.092 18.936)">
                <path id="Trazado_190497" data-name="Trazado 190497" d="M1976.567,1134.066H1927.9c-2.249,0-2.254-2.319,0-2.319h48.666c2.249,0,2.253,2.319,0,2.319Z" transform="translate(-1926.213 -1131.747)" fill="#636363"/>
              </g>
            </g>
            <g id="Grupo_130523" data-name="Grupo 130523" opacity="0.4">
              <g id="Grupo_130519" data-name="Grupo 130519">
                <path id="Trazado_190498" data-name="Trazado 190498" d="M1979.705,1121.939h-51.851c-2.187,0-2.19-2.319,0-2.319h51.851c2.187,0,2.191,2.319,0,2.319Z" transform="translate(-1926.213 -1119.62)" fill="#636363"/>
              </g>
              <g id="Grupo_130520" data-name="Grupo 130520" transform="translate(4.637 6.311)">
                <path id="Trazado_190499" data-name="Trazado 190499" d="M1974.995,1125.981h-47.066c-2.285,0-2.29-2.319,0-2.319h47.066c2.285,0,2.289,2.319,0,2.319Z" transform="translate(-1926.213 -1123.662)" fill="#636363"/>
              </g>
              <g id="Grupo_130521" data-name="Grupo 130521" transform="translate(4.637 12.624)">
                <path id="Trazado_190500" data-name="Trazado 190500" d="M1974.995,1130.024h-47.066c-2.285,0-2.29-2.319,0-2.319h47.066c2.285,0,2.289,2.319,0,2.319Z" transform="translate(-1926.213 -1127.705)" fill="#636363"/>
              </g>
              <g id="Grupo_130522" data-name="Grupo 130522" transform="translate(3.092 18.936)">
                <path id="Trazado_190501" data-name="Trazado 190501" d="M1976.567,1134.066H1927.9c-2.249,0-2.254-2.319,0-2.319h48.666c2.249,0,2.253,2.319,0,2.319Z" transform="translate(-1926.213 -1131.747)" fill="#636363"/>
              </g>
            </g>
          </g>
        </g>
        <g id="Grupo_130561" data-name="Grupo 130561" transform="translate(30.156)">
          <g id="Grupo_130526" data-name="Grupo 130526">
            <rect id="Rectángulo_293739" data-name="Rectángulo 293739" width="64.535" height="86.842" fill="#fdb32b"/>
            <rect id="Rectángulo_293740" data-name="Rectángulo 293740" width="64.535" height="86.842" fill="#fff" opacity="0.6"/>
          </g>
          <g id="Grupo_130543" data-name="Grupo 130543" transform="translate(39.561 8.53)">
            <g id="Grupo_130527" data-name="Grupo 130527">
              <path id="Trazado_190502" data-name="Trazado 190502" d="M1942.523,1006.261h-15.59c-.658,0-.659-2.108,0-2.108h15.59c.658,0,.658,2.108,0,2.108Z" transform="translate(-1926.44 -1004.153)" fill="#1a2e35"/>
            </g>
            <g id="Grupo_130528" data-name="Grupo 130528" transform="translate(4.216 5.738)">
              <path id="Trazado_190503" data-name="Trazado 190503" d="M1938.381,1009.936H1926.86c-.56,0-.56-2.108,0-2.108h11.521c.56,0,.56,2.108,0,2.108Z" transform="translate(-1926.44 -1007.828)" fill="#1a2e35"/>
            </g>
            <g id="Grupo_130529" data-name="Grupo 130529" transform="translate(4.216 11.477)">
              <path id="Trazado_190504" data-name="Trazado 190504" d="M1938.381,1013.611H1926.86c-.56,0-.56-2.108,0-2.108h11.521c.56,0,.56,2.108,0,2.108Z" transform="translate(-1926.44 -1011.503)" fill="#1a2e35"/>
            </g>
            <g id="Grupo_130530" data-name="Grupo 130530" transform="translate(2.811 17.215)">
              <path id="Trazado_190505" data-name="Trazado 190505" d="M1939.76,1017.286h-12.873c-.6,0-.6-2.108,0-2.108h12.873c.6,0,.6,2.108,0,2.108Z" transform="translate(-1926.44 -1015.178)" fill="#1a2e35"/>
            </g>
            <g id="Grupo_130531" data-name="Grupo 130531" transform="translate(0 28.692)">
              <path id="Trazado_190506" data-name="Trazado 190506" d="M1942.523,1024.636h-15.59c-.658,0-.659-2.108,0-2.108h15.59c.658,0,.658,2.108,0,2.108Z" transform="translate(-1926.44 -1022.528)" fill="#1a2e35"/>
            </g>
            <g id="Grupo_130532" data-name="Grupo 130532" transform="translate(4.216 34.43)">
              <path id="Trazado_190507" data-name="Trazado 190507" d="M1938.381,1028.311H1926.86c-.56,0-.56-2.108,0-2.108h11.521c.56,0,.56,2.108,0,2.108Z" transform="translate(-1926.44 -1026.203)" fill="#1a2e35"/>
            </g>
            <g id="Grupo_130533" data-name="Grupo 130533" transform="translate(4.216 40.169)">
              <path id="Trazado_190508" data-name="Trazado 190508" d="M1938.381,1031.986H1926.86c-.56,0-.56-2.108,0-2.108h11.521c.56,0,.56,2.108,0,2.108Z" transform="translate(-1926.44 -1029.878)" fill="#1a2e35"/>
            </g>
            <g id="Grupo_130534" data-name="Grupo 130534" transform="translate(2.811 45.907)">
              <path id="Trazado_190509" data-name="Trazado 190509" d="M1939.76,1035.661h-12.873c-.6,0-.6-2.108,0-2.108h12.873c.6,0,.6,2.108,0,2.108Z" transform="translate(-1926.44 -1033.553)" fill="#1a2e35"/>
            </g>
            <g id="Grupo_130535" data-name="Grupo 130535" opacity="0.4">
              <path id="Trazado_190510" data-name="Trazado 190510" d="M1942.523,1006.261h-15.59c-.658,0-.659-2.108,0-2.108h15.59c.658,0,.658,2.108,0,2.108Z" transform="translate(-1926.44 -1004.153)" fill="#fff"/>
            </g>
            <g id="Grupo_130536" data-name="Grupo 130536" transform="translate(4.216 5.738)" opacity="0.4">
              <path id="Trazado_190511" data-name="Trazado 190511" d="M1938.381,1009.936H1926.86c-.56,0-.56-2.108,0-2.108h11.521c.56,0,.56,2.108,0,2.108Z" transform="translate(-1926.44 -1007.828)" fill="#fff"/>
            </g>
            <g id="Grupo_130537" data-name="Grupo 130537" transform="translate(4.216 11.477)" opacity="0.4">
              <path id="Trazado_190512" data-name="Trazado 190512" d="M1938.381,1013.611H1926.86c-.56,0-.56-2.108,0-2.108h11.521c.56,0,.56,2.108,0,2.108Z" transform="translate(-1926.44 -1011.503)" fill="#fff"/>
            </g>
            <g id="Grupo_130538" data-name="Grupo 130538" transform="translate(2.811 17.215)" opacity="0.4">
              <path id="Trazado_190513" data-name="Trazado 190513" d="M1939.76,1017.286h-12.873c-.6,0-.6-2.108,0-2.108h12.873c.6,0,.6,2.108,0,2.108Z" transform="translate(-1926.44 -1015.178)" fill="#fff"/>
            </g>
            <g id="Grupo_130539" data-name="Grupo 130539" transform="translate(0 28.692)" opacity="0.4">
              <path id="Trazado_190514" data-name="Trazado 190514" d="M1942.523,1024.636h-15.59c-.658,0-.659-2.108,0-2.108h15.59c.658,0,.658,2.108,0,2.108Z" transform="translate(-1926.44 -1022.528)" fill="#fff"/>
            </g>
            <g id="Grupo_130540" data-name="Grupo 130540" transform="translate(4.216 34.43)" opacity="0.4">
              <path id="Trazado_190515" data-name="Trazado 190515" d="M1938.381,1028.311H1926.86c-.56,0-.56-2.108,0-2.108h11.521c.56,0,.56,2.108,0,2.108Z" transform="translate(-1926.44 -1026.203)" fill="#fff"/>
            </g>
            <g id="Grupo_130541" data-name="Grupo 130541" transform="translate(4.216 40.169)" opacity="0.4">
              <path id="Trazado_190516" data-name="Trazado 190516" d="M1938.381,1031.986H1926.86c-.56,0-.56-2.108,0-2.108h11.521c.56,0,.56,2.108,0,2.108Z" transform="translate(-1926.44 -1029.878)" fill="#fff"/>
            </g>
            <g id="Grupo_130542" data-name="Grupo 130542" transform="translate(2.811 45.907)" opacity="0.4">
              <path id="Trazado_190517" data-name="Trazado 190517" d="M1939.76,1035.661h-12.873c-.6,0-.6-2.108,0-2.108h12.873c.6,0,.6,2.108,0,2.108Z" transform="translate(-1926.44 -1033.553)" fill="#fff"/>
            </g>
          </g>
          <g id="Grupo_130560" data-name="Grupo 130560" transform="translate(20.213 8.53)">
            <g id="Grupo_130544" data-name="Grupo 130544">
              <path id="Trazado_190518" data-name="Trazado 190518" d="M1942.523,1006.261h-15.59c-.658,0-.659-2.108,0-2.108h15.59c.658,0,.658,2.108,0,2.108Z" transform="translate(-1926.44 -1004.153)" fill="#1a2e35"/>
            </g>
            <g id="Grupo_130545" data-name="Grupo 130545" transform="translate(4.216 5.738)">
              <path id="Trazado_190519" data-name="Trazado 190519" d="M1938.381,1009.936H1926.86c-.56,0-.56-2.108,0-2.108h11.521c.56,0,.56,2.108,0,2.108Z" transform="translate(-1926.44 -1007.828)" fill="#1a2e35"/>
            </g>
            <g id="Grupo_130546" data-name="Grupo 130546" transform="translate(4.216 11.477)">
              <path id="Trazado_190520" data-name="Trazado 190520" d="M1938.381,1013.611H1926.86c-.56,0-.56-2.108,0-2.108h11.521c.56,0,.56,2.108,0,2.108Z" transform="translate(-1926.44 -1011.503)" fill="#1a2e35"/>
            </g>
            <g id="Grupo_130547" data-name="Grupo 130547" transform="translate(2.811 17.215)">
              <path id="Trazado_190521" data-name="Trazado 190521" d="M1939.76,1017.286h-12.873c-.6,0-.6-2.108,0-2.108h12.873c.6,0,.6,2.108,0,2.108Z" transform="translate(-1926.44 -1015.178)" fill="#1a2e35"/>
            </g>
            <g id="Grupo_130548" data-name="Grupo 130548" transform="translate(0 28.692)">
              <path id="Trazado_190522" data-name="Trazado 190522" d="M1942.523,1024.636h-15.59c-.658,0-.659-2.108,0-2.108h15.59c.658,0,.658,2.108,0,2.108Z" transform="translate(-1926.44 -1022.528)" fill="#1a2e35"/>
            </g>
            <g id="Grupo_130549" data-name="Grupo 130549" transform="translate(4.216 34.43)">
              <path id="Trazado_190523" data-name="Trazado 190523" d="M1938.381,1028.311H1926.86c-.56,0-.56-2.108,0-2.108h11.521c.56,0,.56,2.108,0,2.108Z" transform="translate(-1926.44 -1026.203)" fill="#1a2e35"/>
            </g>
            <g id="Grupo_130550" data-name="Grupo 130550" transform="translate(4.216 40.169)">
              <path id="Trazado_190524" data-name="Trazado 190524" d="M1938.381,1031.986H1926.86c-.56,0-.56-2.108,0-2.108h11.521c.56,0,.56,2.108,0,2.108Z" transform="translate(-1926.44 -1029.878)" fill="#1a2e35"/>
            </g>
            <g id="Grupo_130551" data-name="Grupo 130551" transform="translate(2.811 45.907)">
              <path id="Trazado_190525" data-name="Trazado 190525" d="M1939.76,1035.661h-12.873c-.6,0-.6-2.108,0-2.108h12.873c.6,0,.6,2.108,0,2.108Z" transform="translate(-1926.44 -1033.553)" fill="#1a2e35"/>
            </g>
            <g id="Grupo_130552" data-name="Grupo 130552" opacity="0.4">
              <path id="Trazado_190526" data-name="Trazado 190526" d="M1942.523,1006.261h-15.59c-.658,0-.659-2.108,0-2.108h15.59c.658,0,.658,2.108,0,2.108Z" transform="translate(-1926.44 -1004.153)" fill="#fff"/>
            </g>
            <g id="Grupo_130553" data-name="Grupo 130553" transform="translate(4.216 5.738)" opacity="0.4">
              <path id="Trazado_190527" data-name="Trazado 190527" d="M1938.381,1009.936H1926.86c-.56,0-.56-2.108,0-2.108h11.521c.56,0,.56,2.108,0,2.108Z" transform="translate(-1926.44 -1007.828)" fill="#fff"/>
            </g>
            <g id="Grupo_130554" data-name="Grupo 130554" transform="translate(4.216 11.477)" opacity="0.4">
              <path id="Trazado_190528" data-name="Trazado 190528" d="M1938.381,1013.611H1926.86c-.56,0-.56-2.108,0-2.108h11.521c.56,0,.56,2.108,0,2.108Z" transform="translate(-1926.44 -1011.503)" fill="#fff"/>
            </g>
            <g id="Grupo_130555" data-name="Grupo 130555" transform="translate(2.811 17.215)" opacity="0.4">
              <path id="Trazado_190529" data-name="Trazado 190529" d="M1939.76,1017.286h-12.873c-.6,0-.6-2.108,0-2.108h12.873c.6,0,.6,2.108,0,2.108Z" transform="translate(-1926.44 -1015.178)" fill="#fff"/>
            </g>
            <g id="Grupo_130556" data-name="Grupo 130556" transform="translate(0 28.692)" opacity="0.4">
              <path id="Trazado_190530" data-name="Trazado 190530" d="M1942.523,1024.636h-15.59c-.658,0-.659-2.108,0-2.108h15.59c.658,0,.658,2.108,0,2.108Z" transform="translate(-1926.44 -1022.528)" fill="#fff"/>
            </g>
            <g id="Grupo_130557" data-name="Grupo 130557" transform="translate(4.216 34.43)" opacity="0.4">
              <path id="Trazado_190531" data-name="Trazado 190531" d="M1938.381,1028.311H1926.86c-.56,0-.56-2.108,0-2.108h11.521c.56,0,.56,2.108,0,2.108Z" transform="translate(-1926.44 -1026.203)" fill="#fff"/>
            </g>
            <g id="Grupo_130558" data-name="Grupo 130558" transform="translate(4.216 40.169)" opacity="0.4">
              <path id="Trazado_190532" data-name="Trazado 190532" d="M1938.381,1031.986H1926.86c-.56,0-.56-2.108,0-2.108h11.521c.56,0,.56,2.108,0,2.108Z" transform="translate(-1926.44 -1029.878)" fill="#fff"/>
            </g>
            <g id="Grupo_130559" data-name="Grupo 130559" transform="translate(2.811 45.907)" opacity="0.4">
              <path id="Trazado_190533" data-name="Trazado 190533" d="M1939.76,1035.661h-12.873c-.6,0-.6-2.108,0-2.108h12.873c.6,0,.6,2.108,0,2.108Z" transform="translate(-1926.44 -1033.553)" fill="#fff"/>
            </g>
          </g>
        </g>
        <g id="Grupo_130592" data-name="Grupo 130592" transform="translate(61.76 72.15)">
          <g id="Grupo_130562" data-name="Grupo 130562">
            <rect id="Rectángulo_293741" data-name="Rectángulo 293741" width="64.535" height="86.842" fill="#fdb32b"/>
            <rect id="Rectángulo_293742" data-name="Rectángulo 293742" width="64.535" height="86.842" fill="#fff" opacity="0.8"/>
          </g>
          <g id="Grupo_130591" data-name="Grupo 130591" transform="translate(23.166 7.935)">
            <g id="Grupo_130576" data-name="Grupo 130576">
              <g id="Grupo_130563" data-name="Grupo 130563">
                <path id="Trazado_190534" data-name="Trazado 190534" d="M1939.364,1036.9h-32.146a1.055,1.055,0,0,1,0-2.108h32.146a1.055,1.055,0,0,1,0,2.108Z" transform="translate(-1906.2 -1034.794)" fill="#1a2e35"/>
              </g>
              <g id="Grupo_130564" data-name="Grupo 130564" transform="translate(4.216 5.738)">
                <path id="Trazado_190535" data-name="Trazado 190535" d="M1935.148,1040.577h-27.93a1.055,1.055,0,0,1,0-2.108h27.93a1.055,1.055,0,0,1,0,2.108Z" transform="translate(-1906.2 -1038.469)" fill="#1a2e35"/>
              </g>
              <g id="Grupo_130565" data-name="Grupo 130565" transform="translate(4.216 11.477)">
                <path id="Trazado_190536" data-name="Trazado 190536" d="M1935.148,1044.252h-27.93a1.055,1.055,0,0,1,0-2.108h27.93a1.055,1.055,0,0,1,0,2.108Z" transform="translate(-1906.2 -1042.144)" fill="#1a2e35"/>
              </g>
              <g id="Grupo_130566" data-name="Grupo 130566" transform="translate(2.811 17.215)">
                <path id="Trazado_190537" data-name="Trazado 190537" d="M1936.553,1047.927h-29.335a1.055,1.055,0,0,1,0-2.108h29.335a1.055,1.055,0,0,1,0,2.108Z" transform="translate(-1906.2 -1045.819)" fill="#1a2e35"/>
              </g>
              <g id="Grupo_130567" data-name="Grupo 130567" transform="translate(8.432 22.954)">
                <path id="Trazado_190538" data-name="Trazado 190538" d="M1930.932,1051.6h-23.714a1.055,1.055,0,0,1,0-2.108h23.714a1.055,1.055,0,0,1,0,2.108Z" transform="translate(-1906.2 -1049.494)" fill="#1a2e35"/>
              </g>
              <g id="Grupo_130568" data-name="Grupo 130568" transform="translate(0 28.692)">
                <path id="Trazado_190539" data-name="Trazado 190539" d="M1939.364,1055.277h-32.146a1.055,1.055,0,0,1,0-2.108h32.146a1.055,1.055,0,0,1,0,2.108Z" transform="translate(-1906.2 -1053.169)" fill="#1a2e35"/>
              </g>
              <g id="Grupo_130569" data-name="Grupo 130569" transform="translate(4.216 34.43)">
                <path id="Trazado_190540" data-name="Trazado 190540" d="M1935.148,1058.952h-27.93a1.055,1.055,0,0,1,0-2.108h27.93a1.055,1.055,0,0,1,0,2.108Z" transform="translate(-1906.2 -1056.844)" fill="#1a2e35"/>
              </g>
              <g id="Grupo_130570" data-name="Grupo 130570" transform="translate(4.216 40.169)">
                <path id="Trazado_190541" data-name="Trazado 190541" d="M1935.148,1062.627h-27.93a1.054,1.054,0,0,1,0-2.108h27.93a1.054,1.054,0,0,1,0,2.108Z" transform="translate(-1906.2 -1060.519)" fill="#1a2e35"/>
              </g>
              <g id="Grupo_130571" data-name="Grupo 130571" transform="translate(8.432 51.65)">
                <path id="Trazado_190542" data-name="Trazado 190542" d="M1930.932,1069.98h-23.714a1.055,1.055,0,0,1,0-2.108h23.714a1.055,1.055,0,0,1,0,2.108Z" transform="translate(-1906.2 -1067.872)" fill="#1a2e35"/>
              </g>
              <g id="Grupo_130572" data-name="Grupo 130572" transform="translate(0 57.388)">
                <path id="Trazado_190543" data-name="Trazado 190543" d="M1939.364,1073.655h-32.146a1.055,1.055,0,0,1,0-2.108h32.146a1.055,1.055,0,0,1,0,2.108Z" transform="translate(-1906.2 -1071.547)" fill="#1a2e35"/>
              </g>
              <g id="Grupo_130573" data-name="Grupo 130573" transform="translate(4.216 63.127)">
                <path id="Trazado_190544" data-name="Trazado 190544" d="M1935.148,1077.33h-27.93a1.055,1.055,0,0,1,0-2.108h27.93a1.055,1.055,0,0,1,0,2.108Z" transform="translate(-1906.2 -1075.222)" fill="#1a2e35"/>
              </g>
              <g id="Grupo_130574" data-name="Grupo 130574" transform="translate(4.216 68.865)">
                <path id="Trazado_190545" data-name="Trazado 190545" d="M1935.148,1081h-27.93a1.055,1.055,0,0,1,0-2.108h27.93a1.055,1.055,0,0,1,0,2.108Z" transform="translate(-1906.2 -1078.897)" fill="#1a2e35"/>
              </g>
              <g id="Grupo_130575" data-name="Grupo 130575" transform="translate(2.811 45.907)">
                <path id="Trazado_190546" data-name="Trazado 190546" d="M1936.553,1066.3h-29.335a1.055,1.055,0,0,1,0-2.108h29.335a1.055,1.055,0,0,1,0,2.108Z" transform="translate(-1906.2 -1064.194)" fill="#1a2e35"/>
              </g>
            </g>
            <g id="Grupo_130590" data-name="Grupo 130590" opacity="0.4">
              <g id="Grupo_130577" data-name="Grupo 130577">
                <path id="Trazado_190547" data-name="Trazado 190547" d="M1939.364,1036.9h-32.146a1.055,1.055,0,0,1,0-2.108h32.146a1.055,1.055,0,0,1,0,2.108Z" transform="translate(-1906.2 -1034.794)" fill="#fff"/>
              </g>
              <g id="Grupo_130578" data-name="Grupo 130578" transform="translate(4.216 5.738)">
                <path id="Trazado_190548" data-name="Trazado 190548" d="M1935.148,1040.577h-27.93a1.055,1.055,0,0,1,0-2.108h27.93a1.055,1.055,0,0,1,0,2.108Z" transform="translate(-1906.2 -1038.469)" fill="#fff"/>
              </g>
              <g id="Grupo_130579" data-name="Grupo 130579" transform="translate(4.216 11.477)">
                <path id="Trazado_190549" data-name="Trazado 190549" d="M1935.148,1044.252h-27.93a1.055,1.055,0,0,1,0-2.108h27.93a1.055,1.055,0,0,1,0,2.108Z" transform="translate(-1906.2 -1042.144)" fill="#fff"/>
              </g>
              <g id="Grupo_130580" data-name="Grupo 130580" transform="translate(2.811 17.215)">
                <path id="Trazado_190550" data-name="Trazado 190550" d="M1936.553,1047.927h-29.335a1.055,1.055,0,0,1,0-2.108h29.335a1.055,1.055,0,0,1,0,2.108Z" transform="translate(-1906.2 -1045.819)" fill="#fff"/>
              </g>
              <g id="Grupo_130581" data-name="Grupo 130581" transform="translate(8.432 22.954)">
                <path id="Trazado_190551" data-name="Trazado 190551" d="M1930.932,1051.6h-23.714a1.055,1.055,0,0,1,0-2.108h23.714a1.055,1.055,0,0,1,0,2.108Z" transform="translate(-1906.2 -1049.494)" fill="#fff"/>
              </g>
              <g id="Grupo_130582" data-name="Grupo 130582" transform="translate(0 28.692)">
                <path id="Trazado_190552" data-name="Trazado 190552" d="M1939.364,1055.277h-32.146a1.055,1.055,0,0,1,0-2.108h32.146a1.055,1.055,0,0,1,0,2.108Z" transform="translate(-1906.2 -1053.169)" fill="#fff"/>
              </g>
              <g id="Grupo_130583" data-name="Grupo 130583" transform="translate(4.216 34.43)">
                <path id="Trazado_190553" data-name="Trazado 190553" d="M1935.148,1058.952h-27.93a1.055,1.055,0,0,1,0-2.108h27.93a1.055,1.055,0,0,1,0,2.108Z" transform="translate(-1906.2 -1056.844)" fill="#fff"/>
              </g>
              <g id="Grupo_130584" data-name="Grupo 130584" transform="translate(4.216 40.169)">
                <path id="Trazado_190554" data-name="Trazado 190554" d="M1935.148,1062.627h-27.93a1.054,1.054,0,0,1,0-2.108h27.93a1.054,1.054,0,0,1,0,2.108Z" transform="translate(-1906.2 -1060.519)" fill="#fff"/>
              </g>
              <g id="Grupo_130585" data-name="Grupo 130585" transform="translate(8.432 51.65)">
                <path id="Trazado_190555" data-name="Trazado 190555" d="M1930.932,1069.98h-23.714a1.055,1.055,0,0,1,0-2.108h23.714a1.055,1.055,0,0,1,0,2.108Z" transform="translate(-1906.2 -1067.872)" fill="#fff"/>
              </g>
              <g id="Grupo_130586" data-name="Grupo 130586" transform="translate(0 57.388)">
                <path id="Trazado_190556" data-name="Trazado 190556" d="M1939.364,1073.655h-32.146a1.055,1.055,0,0,1,0-2.108h32.146a1.055,1.055,0,0,1,0,2.108Z" transform="translate(-1906.2 -1071.547)" fill="#fff"/>
              </g>
              <g id="Grupo_130587" data-name="Grupo 130587" transform="translate(4.216 63.127)">
                <path id="Trazado_190557" data-name="Trazado 190557" d="M1935.148,1077.33h-27.93a1.055,1.055,0,0,1,0-2.108h27.93a1.055,1.055,0,0,1,0,2.108Z" transform="translate(-1906.2 -1075.222)" fill="#fff"/>
              </g>
              <g id="Grupo_130588" data-name="Grupo 130588" transform="translate(4.216 68.865)">
                <path id="Trazado_190558" data-name="Trazado 190558" d="M1935.148,1081h-27.93a1.055,1.055,0,0,1,0-2.108h27.93a1.055,1.055,0,0,1,0,2.108Z" transform="translate(-1906.2 -1078.897)" fill="#fff"/>
              </g>
              <g id="Grupo_130589" data-name="Grupo 130589" transform="translate(2.811 45.907)">
                <path id="Trazado_190559" data-name="Trazado 190559" d="M1936.553,1066.3h-29.335a1.055,1.055,0,0,1,0-2.108h29.335a1.055,1.055,0,0,1,0,2.108Z" transform="translate(-1906.2 -1064.194)" fill="#fff"/>
              </g>
            </g>
          </g>
        </g>
        <g id="Grupo_130604" data-name="Grupo 130604" transform="translate(131.18 6.025)">
          <g id="Grupo_130562-2" data-name="Grupo 130562">
            <rect id="Rectángulo_293741-2" data-name="Rectángulo 293741" width="55.579" height="74.79" fill="#fdb32b"/>
            <rect id="Rectángulo_293742-2" data-name="Rectángulo 293742" width="55.579" height="74.79" fill="#fff" opacity="0.67"/>
          </g>
          <g id="Grupo_130591-2" data-name="Grupo 130591" transform="translate(19.95 6.834)">
            <g id="Grupo_130576-2" data-name="Grupo 130576">
              <g id="Grupo_130563-2" data-name="Grupo 130563">
                <path id="Trazado_190534-2" data-name="Trazado 190534" d="M1934.761,1036.609h-27.684a.908.908,0,0,1,0-1.816h27.684a.908.908,0,0,1,0,1.816Z" transform="translate(-1906.2 -1034.794)" fill="#1a2e35"/>
              </g>
              <g id="Grupo_130564-2" data-name="Grupo 130564" transform="translate(3.631 4.942)">
                <path id="Trazado_190535-2" data-name="Trazado 190535" d="M1931.13,1040.284h-24.053a.908.908,0,0,1,0-1.815h24.053a.908.908,0,0,1,0,1.815Z" transform="translate(-1906.2 -1038.469)" fill="#1a2e35"/>
              </g>
              <g id="Grupo_130565-2" data-name="Grupo 130565" transform="translate(3.631 9.884)">
                <path id="Trazado_190536-2" data-name="Trazado 190536" d="M1931.13,1043.959h-24.053a.908.908,0,0,1,0-1.815h24.053a.908.908,0,0,1,0,1.815Z" transform="translate(-1906.2 -1042.144)" fill="#1a2e35"/>
              </g>
              <g id="Grupo_130566-2" data-name="Grupo 130566" transform="translate(2.421 14.826)">
                <path id="Trazado_190537-2" data-name="Trazado 190537" d="M1932.34,1047.634h-25.263a.908.908,0,0,1,0-1.815h25.263a.908.908,0,0,1,0,1.815Z" transform="translate(-1906.2 -1045.819)" fill="#1a2e35"/>
              </g>
              <g id="Grupo_130567-2" data-name="Grupo 130567" transform="translate(7.262 19.768)">
                <path id="Trazado_190538-2" data-name="Trazado 190538" d="M1927.5,1051.309h-20.422a.908.908,0,0,1,0-1.816H1927.5a.908.908,0,0,1,0,1.816Z" transform="translate(-1906.2 -1049.494)" fill="#1a2e35"/>
              </g>
              <g id="Grupo_130568-2" data-name="Grupo 130568" transform="translate(0 24.71)">
                <path id="Trazado_190539-2" data-name="Trazado 190539" d="M1934.761,1054.984h-27.684a.908.908,0,0,1,0-1.816h27.684a.908.908,0,0,1,0,1.816Z" transform="translate(-1906.2 -1053.169)" fill="#1a2e35"/>
              </g>
              <g id="Grupo_130569-2" data-name="Grupo 130569" transform="translate(3.631 29.652)">
                <path id="Trazado_190540-2" data-name="Trazado 190540" d="M1931.13,1058.659h-24.053a.908.908,0,0,1,0-1.815h24.053a.908.908,0,0,1,0,1.815Z" transform="translate(-1906.2 -1056.844)" fill="#1a2e35"/>
              </g>
              <g id="Grupo_130570-2" data-name="Grupo 130570" transform="translate(3.631 34.594)">
                <path id="Trazado_190541-2" data-name="Trazado 190541" d="M1931.13,1062.334h-24.053a.908.908,0,0,1,0-1.815h24.053a.908.908,0,0,1,0,1.815Z" transform="translate(-1906.2 -1060.519)" fill="#1a2e35"/>
              </g>
              <g id="Grupo_130571-2" data-name="Grupo 130571" transform="translate(7.262 44.482)">
                <path id="Trazado_190542-2" data-name="Trazado 190542" d="M1927.5,1069.687h-20.422a.908.908,0,0,1,0-1.816H1927.5a.908.908,0,0,1,0,1.816Z" transform="translate(-1906.2 -1067.872)" fill="#1a2e35"/>
              </g>
              <g id="Grupo_130572-2" data-name="Grupo 130572" transform="translate(0 49.424)">
                <path id="Trazado_190543-2" data-name="Trazado 190543" d="M1934.761,1073.362h-27.684a.908.908,0,0,1,0-1.815h27.684a.908.908,0,0,1,0,1.815Z" transform="translate(-1906.2 -1071.547)" fill="#1a2e35"/>
              </g>
              <g id="Grupo_130573-2" data-name="Grupo 130573" transform="translate(3.631 54.366)">
                <path id="Trazado_190544-2" data-name="Trazado 190544" d="M1931.13,1077.037h-24.053a.908.908,0,0,1,0-1.815h24.053a.908.908,0,0,1,0,1.815Z" transform="translate(-1906.2 -1075.222)" fill="#1a2e35"/>
              </g>
              <g id="Grupo_130574-2" data-name="Grupo 130574" transform="translate(3.631 59.308)">
                <path id="Trazado_190545-2" data-name="Trazado 190545" d="M1931.13,1080.712h-24.053a.908.908,0,0,1,0-1.815h24.053a.908.908,0,0,1,0,1.815Z" transform="translate(-1906.2 -1078.897)" fill="#1a2e35"/>
              </g>
              <g id="Grupo_130575-2" data-name="Grupo 130575" transform="translate(2.421 39.536)">
                <path id="Trazado_190546-2" data-name="Trazado 190546" d="M1932.34,1066.009h-25.263a.908.908,0,0,1,0-1.815h25.263a.908.908,0,0,1,0,1.815Z" transform="translate(-1906.2 -1064.194)" fill="#1a2e35"/>
              </g>
            </g>
            <g id="Grupo_130590-2" data-name="Grupo 130590" opacity="0.4">
              <g id="Grupo_130577-2" data-name="Grupo 130577">
                <path id="Trazado_190547-2" data-name="Trazado 190547" d="M1934.761,1036.609h-27.684a.908.908,0,0,1,0-1.816h27.684a.908.908,0,0,1,0,1.816Z" transform="translate(-1906.2 -1034.794)" fill="#fff"/>
              </g>
              <g id="Grupo_130578-2" data-name="Grupo 130578" transform="translate(3.631 4.942)">
                <path id="Trazado_190548-2" data-name="Trazado 190548" d="M1931.13,1040.284h-24.053a.908.908,0,0,1,0-1.815h24.053a.908.908,0,0,1,0,1.815Z" transform="translate(-1906.2 -1038.469)" fill="#fff"/>
              </g>
              <g id="Grupo_130579-2" data-name="Grupo 130579" transform="translate(3.631 9.884)">
                <path id="Trazado_190549-2" data-name="Trazado 190549" d="M1931.13,1043.959h-24.053a.908.908,0,0,1,0-1.815h24.053a.908.908,0,0,1,0,1.815Z" transform="translate(-1906.2 -1042.144)" fill="#fff"/>
              </g>
              <g id="Grupo_130580-2" data-name="Grupo 130580" transform="translate(2.421 14.826)">
                <path id="Trazado_190550-2" data-name="Trazado 190550" d="M1932.34,1047.634h-25.263a.908.908,0,0,1,0-1.815h25.263a.908.908,0,0,1,0,1.815Z" transform="translate(-1906.2 -1045.819)" fill="#fff"/>
              </g>
              <g id="Grupo_130581-2" data-name="Grupo 130581" transform="translate(7.262 19.768)">
                <path id="Trazado_190551-2" data-name="Trazado 190551" d="M1927.5,1051.309h-20.422a.908.908,0,0,1,0-1.816H1927.5a.908.908,0,0,1,0,1.816Z" transform="translate(-1906.2 -1049.494)" fill="#fff"/>
              </g>
              <g id="Grupo_130582-2" data-name="Grupo 130582" transform="translate(0 24.71)">
                <path id="Trazado_190552-2" data-name="Trazado 190552" d="M1934.761,1054.984h-27.684a.908.908,0,0,1,0-1.816h27.684a.908.908,0,0,1,0,1.816Z" transform="translate(-1906.2 -1053.169)" fill="#fff"/>
              </g>
              <g id="Grupo_130583-2" data-name="Grupo 130583" transform="translate(3.631 29.652)">
                <path id="Trazado_190553-2" data-name="Trazado 190553" d="M1931.13,1058.659h-24.053a.908.908,0,0,1,0-1.815h24.053a.908.908,0,0,1,0,1.815Z" transform="translate(-1906.2 -1056.844)" fill="#fff"/>
              </g>
              <g id="Grupo_130584-2" data-name="Grupo 130584" transform="translate(3.631 34.594)">
                <path id="Trazado_190554-2" data-name="Trazado 190554" d="M1931.13,1062.334h-24.053a.908.908,0,0,1,0-1.815h24.053a.908.908,0,0,1,0,1.815Z" transform="translate(-1906.2 -1060.519)" fill="#fff"/>
              </g>
              <g id="Grupo_130585-2" data-name="Grupo 130585" transform="translate(7.262 44.482)">
                <path id="Trazado_190555-2" data-name="Trazado 190555" d="M1927.5,1069.687h-20.422a.908.908,0,0,1,0-1.816H1927.5a.908.908,0,0,1,0,1.816Z" transform="translate(-1906.2 -1067.872)" fill="#fff"/>
              </g>
              <g id="Grupo_130586-2" data-name="Grupo 130586" transform="translate(0 49.424)">
                <path id="Trazado_190556-2" data-name="Trazado 190556" d="M1934.761,1073.362h-27.684a.908.908,0,0,1,0-1.815h27.684a.908.908,0,0,1,0,1.815Z" transform="translate(-1906.2 -1071.547)" fill="#fff"/>
              </g>
              <g id="Grupo_130587-2" data-name="Grupo 130587" transform="translate(3.631 54.366)">
                <path id="Trazado_190557-2" data-name="Trazado 190557" d="M1931.13,1077.037h-24.053a.908.908,0,0,1,0-1.815h24.053a.908.908,0,0,1,0,1.815Z" transform="translate(-1906.2 -1075.222)" fill="#fff"/>
              </g>
              <g id="Grupo_130588-2" data-name="Grupo 130588" transform="translate(3.631 59.308)">
                <path id="Trazado_190558-2" data-name="Trazado 190558" d="M1931.13,1080.712h-24.053a.908.908,0,0,1,0-1.815h24.053a.908.908,0,0,1,0,1.815Z" transform="translate(-1906.2 -1078.897)" fill="#fff"/>
              </g>
              <g id="Grupo_130589-2" data-name="Grupo 130589" transform="translate(2.421 39.536)">
                <path id="Trazado_190559-2" data-name="Trazado 190559" d="M1932.34,1066.009h-25.263a.908.908,0,0,1,0-1.815h25.263a.908.908,0,0,1,0,1.815Z" transform="translate(-1906.2 -1064.194)" fill="#fff"/>
              </g>
            </g>
          </g>
        </g>
        <g id="Grupo_130602" data-name="Grupo 130602" transform="translate(25.198 51.421)">
          <path id="Trazado_190560" data-name="Trazado 190560" d="M1839.175,1069.406c4.054,5.732-4.889,23.97-4.889,23.97l40.29,4.878-7.881-43.921S1834.389,1062.64,1839.175,1069.406Z" transform="translate(-1629.119 -975.477)" fill="#e67b62"/>
          <path id="Trazado_190561" data-name="Trazado 190561" d="M1841.747,1075.656c.625-3.341.644-6.4-.636-8.216-2.975-4.2,8.379-9.005,17.4-12.037C1856.377,1059.672,1850.352,1070.472,1841.747,1075.656Z" transform="translate(-1631.054 -973.511)" opacity="0.2"/>
          <g id="Grupo_130593" data-name="Grupo 130593" transform="translate(74.862 694.032)">
            <path id="Trazado_190562" data-name="Trazado 190562" d="M1876.089,1271.014l-4.295,41,18.91,3.55,11.364-39.57Z" transform="translate(-1837.963 -1271.014)" fill="#e67b62"/>
            <path id="Trazado_190563" data-name="Trazado 190563" d="M1908.076,1283.119l22.227,4.452a1.829,1.829,0,0,1,1.468,1.749l.395,18.889a3.028,3.028,0,0,1-3.589,3.069c-7.986-1.746-15.021-3.611-25-5.6-11.774-2.357-9.068-.349-22.948-2.925-8.361-1.561-7.989-11.348-4.358-11.1,16.588,1.2,19.249-3.344,26.653-7.887A7.284,7.284,0,0,1,1908.076,1283.119Z" transform="translate(-1873.825 -1249.134)" fill="#1a2e35"/>
            <path id="Trazado_190564" data-name="Trazado 190564" d="M1893.23,1302.129l-21.436-2.827,2.964-28.288,25.979,4.974Z" transform="translate(-1836.631 -1271.014)" opacity="0.2"/>
          </g>
          <g id="Grupo_130594" data-name="Grupo 130594" transform="translate(256.964 684.271)">
            <path id="Trazado_190565" data-name="Trazado 190565" d="M1812.411,1269.03l12.87,50.82,18.153-2.554-4.822-49.721Z" transform="translate(-1792.839 -1267.575)" fill="#e67b62"/>
            <path id="Trazado_190566" data-name="Trazado 190566" d="M1839.124,1284.771l22.613-1.59a1.821,1.821,0,0,1,1.877,1.294l5.383,18.11a3.036,3.036,0,0,1-2.646,3.91c-8.163.431-15.442.5-25.591,1.226-11.975.846-8.835,2.064-22.9,3.257-8.478.709-10.708-8.825-7.143-9.554,16.316-3.231,17.676-8.321,23.613-14.664A7.308,7.308,0,0,1,1839.124,1284.771Z" transform="translate(-1809.082 -1238.883)" fill="#1a2e35"/>
            <path id="Trazado_190567" data-name="Trazado 190567" d="M1842.128,1305.017l-19.836,3.041-9.485-37.456c8.7-.929,22.939-2.354,25.728-2.632Z" transform="translate(-1792.651 -1266.85)" opacity="0.2"/>
          </g>
          <path id="Trazado_190568" data-name="Trazado 190568" d="M1910.695,1131.173s6.26,18.167,7.169,62.389c.546,26.424,3.126,68.255,5.119,97.645.582,8.6,1.113,16.131,1.528,21.9a69.118,69.118,0,0,0,5.056,21.285c1.936,4.713,4.364,11.169,6.865,19.223a304.891,304.891,0,0,1,10.873,50.005c6.615,49.536,14.218,145.5,14.218,145.5l-24.515,3.18-60.342-223.641L1812.352,1131Z" transform="translate(-1653.794 -834.479)" fill="#636363"/>
          <path id="Trazado_190569" data-name="Trazado 190569" d="M1841.986,1195.011l2.6-19.468,21.046-17.79,7.076-3.483s-16.388,41.365-12.28,95.513Z" transform="translate(-1649.109 -791.683)" opacity="0.2"/>
          <path id="Trazado_190570" data-name="Trazado 190570" d="M1865.9,1136.305l-29.5,415.371,24.972,4.247s33.4-114.943,39.052-178.488a164.284,164.284,0,0,0,.733-20.286,79.706,79.706,0,0,1,3.384-25.557l3.506-11.862,19.684-66.607a113.524,113.524,0,0,1,19.485-38.464c10.235-12.912,22.9-37.933,17.642-79.56l-92.418-6.4Z" transform="translate(-1726.604 -838.714)" fill="#636363"/>
          <g id="Grupo_130597" data-name="Grupo 130597" transform="translate(192.589 138.852)">
            <g id="Grupo_130595" data-name="Grupo 130595" transform="translate(0 125.642)">
              <path id="Trazado_190571" data-name="Trazado 190571" d="M1876.361,1123.781s-14.349-2.938-19.158-2.487c-4.026.381-15.362,5.043-15.362,5.043a6.612,6.612,0,0,0-2.431,11.137s7.884,10.1,11.822,10.936c7.858,1.664,30.406-10.4,30.406-10.4Z" transform="translate(-1837.285 -1116.909)" fill="#e67b62"/>
              <path id="Trazado_190572" data-name="Trazado 190572" d="M1842.778,1119.719l7.97,25.7-7.647.636-7.011-22.456Z" transform="translate(-1803 -1119.719)" fill="#1a2e35"/>
              <path id="Trazado_190573" data-name="Trazado 190573" d="M1842.778,1119.719l7.97,25.7-7.647.636-7.011-22.456Z" transform="translate(-1803 -1119.719)" fill="#fff" opacity="0.2"/>
            </g>
            <path id="Trazado_190574" data-name="Trazado 190574" d="M1856.051,1078.687c3.657-5.008,11.484-3.966,14.11,1.653,8.94,19.132,31.522,69.864,31.61,94.493.108,30.707-90.146,48.883-90.146,48.883l-5.451-17.647,62.1-38.152-17.866-42.092S1845.969,1092.5,1856.051,1078.687Z" transform="translate(-1769.091 -1075.465)" fill="#084a93"/>
            <path id="Trazado_190575" data-name="Trazado 190575" d="M1856.051,1078.687c3.657-5.008,11.484-3.966,14.11,1.653,8.94,19.132,31.522,69.864,31.61,94.493.108,30.707-90.146,48.883-90.146,48.883l-5.451-17.647,62.1-38.152-17.866-42.092S1845.969,1092.5,1856.051,1078.687Z" transform="translate(-1769.091 -1075.465)" opacity="0.1"/>
            <g id="Grupo_130596" data-name="Grupo 130596" transform="translate(66.318 6.272)" opacity="0.4">
              <path id="Trazado_190576" data-name="Trazado 190576" d="M1822.3,1077.674l9.73,1.338,5.6,4.011-6.672,68.079-12.452-29.339S1814.642,1092.786,1822.3,1077.674Z" transform="translate(-1803.497 -1077.674)"/>
              <path id="Trazado_190577" data-name="Trazado 190577" d="M1820.468,1125.4l25.781-15.839-3.75,38.251c-5.385,2.024-10.774,3.821-15.882,5.4Z" transform="translate(-1820.468 -1019.028)"/>
            </g>
          </g>
          <path id="Trazado_190578" data-name="Trazado 190578" d="M1817.4,1251.632s44.431,14.542,117.217,2.771L1969.5,1107.36c2.609-11-2.922-22.446-12.816-27.908-14.979-8.267-44.6-16.063-103.064-12.836a32.6,32.6,0,0,0-29.916,25.072Z" transform="translate(-1676.742 -954.258)" fill="#ffb30b"/>
          <g id="Grupo_130598" data-name="Grupo 130598" transform="translate(198.643 102.345)">
            <path id="Trazado_190579" data-name="Trazado 190579" d="M1888.815,1078.826l-4.446-10.428s-17.5-8.841-47.22-4.676l-7.058,8.171S1863.351,1072.7,1888.815,1078.826Z" transform="translate(-1830.091 -1062.606)" fill="#1a2e35"/>
          </g>
          <path id="Trazado_190580" data-name="Trazado 190580" d="M1852.843,1043.1c-.4,1.658.147,3.206,1.258,3.458s2.427-.945,2.774-2.567-.151-3.205-1.269-3.438S1853.261,1041.446,1852.843,1043.1Z" transform="translate(-1663.836 -1000.883)" fill="#1a2e35"/>
          <path id="Trazado_190581" data-name="Trazado 190581" d="M1864.993,1043.191l-11.35,11.092a12.069,12.069,0,0,0,10.252,3.24Z" transform="translate(-1674.489 -995.967)" fill="#d54c38"/>
          <path id="Trazado_190582" data-name="Trazado 190582" d="M1899.085,1067.889c-4.344,22.253-5.692,31.776-18.786,41.916-19.243,9.628-46.748,5.383-49.286-17.656-2.294-20.731,5.178-53.556,28.845-59.955,16.87-4.554,34.231,5.079,38.774,21.517A30.127,30.127,0,0,1,1899.085,1067.889Z" transform="translate(-1643.847 -1018.27)" fill="#e67b62"/>
          <path id="Trazado_190583" data-name="Trazado 190583" d="M1858.124,1043.084a.917.917,0,0,1-.761-.389,6.956,6.956,0,0,0-5.55-3.228.881.881,0,0,1-.908-.863.947.947,0,0,1,.911-.92,8.652,8.652,0,0,1,7.07,3.992.9.9,0,0,1-.258,1.25l0,0A1.015,1.015,0,0,1,1858.124,1043.084Z" transform="translate(-1660.758 -1006.096)" fill="#1a2e35"/>
          <path id="Trazado_190584" data-name="Trazado 190584" d="M1856.282,1163.5l2.973-53.857,19.249-25.48,10.538-9.759,8.12,5.688S1896.039,1109.771,1856.282,1163.5Z" transform="translate(-1714.153 -938.569)" opacity="0.4"/>
          <path id="Trazado_190585" data-name="Trazado 190585" d="M1946.518,1100.059c-10.661,19.587-14.795,31.167-18.448,36.034a2.2,2.2,0,0,1-2.084.854l-62.321-9.051a2.214,2.214,0,0,0-2.422,1.507l-5.02,15.434a2.217,2.217,0,0,0,1.394,2.782l58.429,19.8a30.406,30.406,0,0,0,31.108-5.454c16.092-14.17,28.457-29.916,39.716-52.166,4.485-8.866,14.9-25.265-2.2-39.688C1970.474,1058.146,1953.593,1087.059,1946.518,1100.059Z" transform="translate(-1810.65 -951.679)" fill="#084a93"/>
          <path id="Trazado_190586" data-name="Trazado 190586" d="M1946.518,1100.059c-10.661,19.587-14.795,31.167-18.448,36.034a2.2,2.2,0,0,1-2.084.854l-62.321-9.051a2.214,2.214,0,0,0-2.422,1.507l-5.02,15.434a2.217,2.217,0,0,0,1.394,2.782l58.429,19.8a30.406,30.406,0,0,0,31.108-5.454c16.092-14.17,28.457-29.916,39.716-52.166,4.485-8.866,14.9-25.265-2.2-39.688C1970.474,1058.146,1953.593,1087.059,1946.518,1100.059Z" transform="translate(-1810.65 -951.679)" fill="#fff" opacity="0.1"/>
          <path id="Trazado_190587" data-name="Trazado 190587" d="M1953.736,1106.9l-12.85-15.09a11.013,11.013,0,0,0-5.312-3.438l-30.224-8.787a2.213,2.213,0,0,0-2.6,1.124h0a2.213,2.213,0,0,0,1.136,3.049l12.494,5.113a2.222,2.222,0,0,1,1.37,2.231l-.619,7.555a11.021,11.021,0,0,0,6.42,10.928l9.087,4.137c.353.136.7.276,1.053.415l15.592,5.241a2.211,2.211,0,0,0,2.861-1.6l2.059-8.943A2.21,2.21,0,0,0,1953.736,1106.9Z" transform="translate(-1902.515 -929.206)" fill="#e67b62"/>
          <g id="Grupo_130599" data-name="Grupo 130599" transform="translate(40.429 172.654)">
            <path id="Trazado_190588" data-name="Trazado 190588" d="M1915.858,1090.849l-7.7,19.434a2.213,2.213,0,0,1-3.03,1.172l-2.554-1.246a2.215,2.215,0,0,1-1.091-2.8l7.344-18.633a2.215,2.215,0,0,1,2.394-1.377l2.913.449A2.211,2.211,0,0,1,1915.858,1090.849Z" transform="translate(-1901.329 -1087.371)" fill="#1a2e35"/>
          </g>
          <g id="Grupo_130600" data-name="Grupo 130600" transform="translate(106.34 706.103)">
            <path id="Trazado_190589" data-name="Trazado 190589" d="M1904.864,1280.46l-3.875,10.265-29.435-4.551.82-10.909Z" transform="translate(-1871.554 -1275.265)" fill="#084a93"/>
            <path id="Trazado_190590" data-name="Trazado 190590" d="M1904.864,1280.46l-3.875,10.265-29.435-4.551.82-10.909Z" transform="translate(-1871.554 -1275.265)" opacity="0.2"/>
          </g>
          <g id="Grupo_130601" data-name="Grupo 130601" transform="translate(278.998 707.165)">
            <path id="Trazado_190591" data-name="Trazado 190591" d="M1842.619,1275.639l.463,10.776-29.521,3.946-2.295-10.7Z" transform="translate(-1811.266 -1275.639)" fill="#084a93"/>
            <path id="Trazado_190592" data-name="Trazado 190592" d="M1842.619,1275.639l.463,10.776-29.521,3.946-2.295-10.7Z" transform="translate(-1811.266 -1275.639)" opacity="0.2"/>
          </g>
          <path id="Trazado_190593" data-name="Trazado 190593" d="M1866.068,1118.764s-3.3-4.682-13.241.735c0,0-14.1-15.788-14.543-30.58,0,0-10.419-1.927-9.548-8.659s5.835-15.541,4.787-21.642-11.18-22.128-2.572-29.24,9.624,1.36,14.5,2.274,34.316,1.968,38.078,22.807c0,0,14.84,15.487,1.965,35.4S1866.068,1118.764,1866.068,1118.764Z" transform="translate(-1626.054 -1026.558)"/>
          <path id="Trazado_190595" data-name="Trazado 190595" d="M1850.469,1044.84a17.524,17.524,0,0,0-7.506,11.192c-1.13,6.041,4.551,8.509,10.085,6.371,5.013-1.933,11.577-7.407,10.194-13.264S1855.3,1041.691,1850.469,1044.84Z" transform="translate(-1642.196 -995.853)" fill="#e67b62"/>
        </g>
      </g>
    </g>
  </g>
</svg>
