<svg xmlns="http://www.w3.org/2000/svg" width="400" height="232" viewBox="0 0 400 232">
  <g id="Grupo_131821" data-name="Grupo 131821" transform="translate(-600 -5744.074)">
    <g id="Trazado_191565" data-name="Trazado 191565" transform="translate(600 5744.074)" fill="#fff" opacity="0.74">
      <path d="M 389 231.5 L 11 231.5 C 5.210299968719482 231.5 0.5 226.7897033691406 0.5 221 L 0.5 11 C 0.5 5.210299968719482 5.210299968719482 0.5 11 0.5 L 389 0.5 C 394.7897033691406 0.5 399.5 5.210299968719482 399.5 11 L 399.5 221 C 399.5 226.7897033691406 394.7897033691406 231.5 389 231.5 Z" stroke="none"/>
      <path d="M 11 1 C 5.485992431640625 1 1 5.485992431640625 1 11 L 1 221 C 1 226.5140075683594 5.485992431640625 231 11 231 L 389 231 C 394.5140075683594 231 399 226.5140075683594 399 221 L 399 11 C 399 5.485992431640625 394.5140075683594 1 389 1 L 11 1 M 11 0 L 389 0 C 395.0751647949219 0 400 4.924850463867188 400 11 L 400 221 C 400 227.0751495361328 395.0751647949219 232 389 232 L 11 232 C 4.924835205078125 232 0 227.0751495361328 0 221 L 0 11 C 0 4.924850463867188 4.924835205078125 0 11 0 Z" stroke="none" fill="#707070"/>
    </g>
    <path id="Trazado_191566" data-name="Trazado 191566" d="M5.537,0l5.537,5.742H0Z" transform="translate(837.592 5923.407) rotate(-90)" fill="#707070"/>
    <path id="Trazado_190484" data-name="Trazado 190484" d="M91.5,83.584H0V0H44" transform="translate(885.5 5917.658) rotate(180)" fill="none" stroke="#707070" stroke-width="1"/>
    <path id="Trazado_190482" data-name="Trazado 190482" d="M3.112,0h86.5a3.045,3.045,0,0,1,3.112,2.973V22.593a3.045,3.045,0,0,1-3.112,2.973H3.112A3.045,3.045,0,0,1,0,22.593V2.973A3.045,3.045,0,0,1,3.112,0Z" transform="translate(754.5 5788.074)" fill="#75e3d9"/>
    <path id="Trazado_191567" data-name="Trazado 191567" d="M5.537,0l5.537,5.742H0Z" transform="translate(806.575 5785.233) rotate(180)" fill="#707070"/>
    <path id="Trazado_190481" data-name="Trazado 190481" d="M2.047,0H58.953C60.084,0,61,1.331,61,2.973V22.593c0,1.642-.916,2.973-2.047,2.973H2.047C.916,25.566,0,24.235,0,22.593V2.973C0,1.331.916,0,2.047,0Z" transform="translate(770.5 5752.074)" fill="#75e3d9"/>
    <path id="Trazado_190485" data-name="Trazado 190485" d="M2.047,0H58.953C60.084,0,61,1.331,61,2.973V22.593c0,1.642-.916,2.973-2.047,2.973H2.047C.916,25.566,0,24.235,0,22.593V2.973C0,1.331.916,0,2.047,0Z" transform="translate(770.5 5943.074)" fill="#75e3d9"/>
    <path id="Trazado_191568" data-name="Trazado 191568" d="M5.537,0l5.537,5.742H0Z" transform="translate(806.575 5850.733) rotate(180)" fill="#707070"/>
    <path id="Trazado_191569" data-name="Trazado 191569" d="M5.537,0l5.537,5.742H0Z" transform="translate(749.409 5829.325) rotate(90)" fill="#707070"/>
    <path id="Trazado_190446" data-name="Trazado 190446" d="M-5450.209-7653.6h62.919l.288,13.4-.288,12.593h-62.919L-5453-7640.2Z" transform="translate(6221.502 13558.675)" fill="#75e3d9"/>
    <path id="Trazado_191570" data-name="Trazado 191570" d="M5.537,0l5.537,5.742H0Z" transform="translate(806.575 5886.733) rotate(180)" fill="#707070"/>
    <path id="Trazado_191571" data-name="Trazado 191571" d="M-10.932-2.425a.977.977,0,0,0-.381-.828,5,5,0,0,0-1.371-.609,9.72,9.72,0,0,1-1.568-.632,2.562,2.562,0,0,1-1.574-2.292A2.232,2.232,0,0,1-15.4-8.122a2.753,2.753,0,0,1,1.212-.917,4.563,4.563,0,0,1,1.774-.33,4.154,4.154,0,0,1,1.765.359A2.81,2.81,0,0,1-9.45-8a2.649,2.649,0,0,1,.428,1.485h-1.9a1.246,1.246,0,0,0-.4-.987,1.644,1.644,0,0,0-1.124-.352,1.756,1.756,0,0,0-1.085.3.931.931,0,0,0-.387.778.892.892,0,0,0,.454.755,5.128,5.128,0,0,0,1.336.571A5.773,5.773,0,0,1-9.764-4.24a2.415,2.415,0,0,1,.743,1.8A2.224,2.224,0,0,1-9.93-.555a3.974,3.974,0,0,1-2.444.682,4.719,4.719,0,0,1-1.942-.39,3.074,3.074,0,0,1-1.336-1.07,2.739,2.739,0,0,1-.46-1.574H-14.2q0,1.53,1.828,1.53a1.778,1.778,0,0,0,1.06-.276A.9.9,0,0,0-10.932-2.425ZM-3.871-.7A2.3,2.3,0,0,1-5.749.127,2.17,2.17,0,0,1-7.435-.508a2.71,2.71,0,0,1-.594-1.86v-4.5h1.834v4.442q0,1.074.978,1.074A1.325,1.325,0,0,0-3.934-2V-6.868h1.841V0H-3.82ZM.881-6.868.938-6.1A2.414,2.414,0,0,1,2.912-7,1.832,1.832,0,0,1,4.734-5.948,2.358,2.358,0,0,1,6.8-7a2.049,2.049,0,0,1,1.663.651,2.991,2.991,0,0,1,.546,1.958V0H7.165V-4.38a1.308,1.308,0,0,0-.229-.854A1.013,1.013,0,0,0,6.13-5.5a1.145,1.145,0,0,0-1.143.787L4.994,0H3.16V-4.374a1.292,1.292,0,0,0-.235-.863,1.023,1.023,0,0,0-.8-.267A1.189,1.189,0,0,0,1-4.856V0H-.839V-6.868ZM14.265,0a2.037,2.037,0,0,1-.184-.616,2.22,2.22,0,0,1-1.733.743,2.439,2.439,0,0,1-1.673-.584,1.878,1.878,0,0,1-.663-1.473,1.941,1.941,0,0,1,.809-1.676A3.994,3.994,0,0,1,13.16-4.2H14v-.394a1.132,1.132,0,0,0-.244-.762.961.961,0,0,0-.771-.286,1.093,1.093,0,0,0-.727.222A.755.755,0,0,0,12-4.805H10.164a1.843,1.843,0,0,1,.368-1.1,2.434,2.434,0,0,1,1.041-.8A3.794,3.794,0,0,1,13.084-7a3,3,0,0,1,2.015.638,2.232,2.232,0,0,1,.746,1.793v2.977a3.284,3.284,0,0,0,.273,1.479V0ZM12.748-1.276a1.58,1.58,0,0,0,.749-.181A1.188,1.188,0,0,0,14-1.942V-3.123h-.686q-1.377,0-1.466.952l-.006.108a.734.734,0,0,0,.241.565A.937.937,0,0,0,12.748-1.276Z" transform="translate(802 5922.074)" fill="#12263f"/>
    <path id="Trazado_191572" data-name="Trazado 191572" d="M6.877-4.067H2.939V0H.889V-9.953h6.48v1.661H2.939v2.57H6.877ZM10.514,0H8.531V-7.4h1.982Zm-2.1-9.311a.973.973,0,0,1,.3-.731,1.117,1.117,0,0,1,.81-.287,1.12,1.12,0,0,1,.807.287.967.967,0,0,1,.3.731.97.97,0,0,1-.3.738,1.122,1.122,0,0,1-.8.287,1.122,1.122,0,0,1-.8-.287A.97.97,0,0,1,8.415-9.311ZM13.959-7.4l.062.854a2.582,2.582,0,0,1,2.126-.991,2.146,2.146,0,0,1,1.75.69,3.221,3.221,0,0,1,.588,2.064V0H16.509V-4.73a1.282,1.282,0,0,0-.273-.913,1.224,1.224,0,0,0-.909-.284,1.359,1.359,0,0,0-1.251.711V0H12.1V-7.4Z" transform="translate(792 5960.074)" fill="#12263f"/>
    <path id="Trazado_191573" data-name="Trazado 191573" d="M5.537,0l5.537,5.742H0Z" transform="translate(806.575 5939.733) rotate(180)" fill="#707070"/>
    <path id="Trazado_190447" data-name="Trazado 190447" d="M-3931.247-7334.341H-4016.5V-7386h33" transform="translate(4731 13221.074)" fill="none" stroke="#707070" stroke-width="1"/>
    <path id="Trazado_191574" data-name="Trazado 191574" d="M9.5,0h80a9.5,9.5,0,0,1,0,19H9.5a9.5,9.5,0,0,1,0-19Z" transform="translate(752 5824.074)" fill="#75e3d9"/>
    <path id="Trazado_191575" data-name="Trazado 191575" d="M2.85,0H.946V-9.242h1.9ZM13.565-4.735H7.89v-1.5h5.675Zm0,2.749H7.89v-1.5h5.675ZM22.788,0H20.954V-7.071l-2.19.679V-7.884l3.828-1.371h.2Zm3.555,2.317-.958-.5.229-.413A3.3,3.3,0,0,0,26.051-.14V-1.562H27.6l-.006,1.27a3.3,3.3,0,0,1-.355,1.422A3.645,3.645,0,0,1,26.343,2.317ZM33.42,0H31.586V-7.071l-2.19.679V-7.884l3.828-1.371h.2Zm9.223-3.821A4.682,4.682,0,0,1,41.85-.889,2.77,2.77,0,0,1,39.527.127a2.789,2.789,0,0,1-2.311-1A4.545,4.545,0,0,1,36.4-3.726v-1.7a4.621,4.621,0,0,1,.8-2.939,2.79,2.79,0,0,1,2.314-1,2.793,2.793,0,0,1,2.311.993,4.531,4.531,0,0,1,.819,2.853Zm-1.834-1.87a3.384,3.384,0,0,0-.314-1.674,1.062,1.062,0,0,0-.981-.524,1.043,1.043,0,0,0-.955.5,3.167,3.167,0,0,0-.327,1.56v2.249A3.553,3.553,0,0,0,38.54-1.9a1.048,1.048,0,0,0,.987.55,1.03,1.03,0,0,0,.971-.527,3.468,3.468,0,0,0,.311-1.614ZM50.1-3.821a4.682,4.682,0,0,1-.793,2.933A2.77,2.77,0,0,1,46.985.127a2.789,2.789,0,0,1-2.311-1,4.545,4.545,0,0,1-.819-2.856v-1.7a4.621,4.621,0,0,1,.8-2.939,2.79,2.79,0,0,1,2.314-1,2.793,2.793,0,0,1,2.311.993A4.531,4.531,0,0,1,50.1-5.522Zm-1.834-1.87a3.384,3.384,0,0,0-.314-1.674,1.062,1.062,0,0,0-.981-.524,1.043,1.043,0,0,0-.955.5,3.167,3.167,0,0,0-.327,1.56v2.249A3.553,3.553,0,0,0,46-1.9a1.048,1.048,0,0,0,.987.55,1.03,1.03,0,0,0,.971-.527,3.468,3.468,0,0,0,.311-1.614Zm3.625,8.009-.958-.5.229-.413A3.3,3.3,0,0,0,51.6-.14V-1.562h1.549l-.006,1.27a3.3,3.3,0,0,1-.355,1.422A3.645,3.645,0,0,1,51.892,2.317ZM58.97,0H57.135V-7.071l-2.19.679V-7.884l3.828-1.371h.2Z" transform="translate(771 5837.074)" fill="#12263f"/>
    <path id="Trazado_191576" data-name="Trazado 191576" d="M2.85,0H.946V-9.242h1.9ZM6.183-6.868l.057.793A2.4,2.4,0,0,1,8.214-7a1.993,1.993,0,0,1,1.625.641,2.991,2.991,0,0,1,.546,1.917V0H8.55V-4.393A1.19,1.19,0,0,0,8.3-5.24,1.137,1.137,0,0,0,7.452-5.5a1.262,1.262,0,0,0-1.162.66V0H4.456V-6.868ZM13.711,0H11.87V-6.868h1.841ZM11.762-8.646a.9.9,0,0,1,.276-.679,1.037,1.037,0,0,1,.752-.267,1.04,1.04,0,0,1,.749.267.9.9,0,0,1,.279.679.9.9,0,0,1-.282.686,1.042,1.042,0,0,1-.746.267,1.042,1.042,0,0,1-.746-.267A.9.9,0,0,1,11.762-8.646Zm6.316,7.293a1.2,1.2,0,0,0,.825-.279.979.979,0,0,0,.33-.743h1.72a2.353,2.353,0,0,1-.381,1.279,2.513,2.513,0,0,1-1.025.9A3.208,3.208,0,0,1,18.11.127a2.982,2.982,0,0,1-2.323-.936A3.705,3.705,0,0,1,14.936-3.4v-.121a3.663,3.663,0,0,1,.844-2.533A2.947,2.947,0,0,1,18.1-7a2.889,2.889,0,0,1,2.066.733,2.6,2.6,0,0,1,.79,1.952h-1.72a1.261,1.261,0,0,0-.33-.871,1.1,1.1,0,0,0-.838-.335,1.1,1.1,0,0,0-.968.467,2.708,2.708,0,0,0-.327,1.516v.191a2.742,2.742,0,0,0,.324,1.526A1.119,1.119,0,0,0,18.078-1.352ZM23.937,0H22.1V-6.868h1.841ZM21.988-8.646a.9.9,0,0,1,.276-.679,1.037,1.037,0,0,1,.752-.267,1.04,1.04,0,0,1,.749.267.9.9,0,0,1,.279.679.9.9,0,0,1-.282.686,1.042,1.042,0,0,1-.746.267,1.042,1.042,0,0,1-.746-.267A.9.9,0,0,1,21.988-8.646ZM25.162-3.5a4.073,4.073,0,0,1,.394-1.822,2.881,2.881,0,0,1,1.133-1.238A3.306,3.306,0,0,1,28.406-7a3.127,3.127,0,0,1,2.269.851,3.414,3.414,0,0,1,.981,2.311l.013.47a3.59,3.59,0,0,1-.882,2.536,3.067,3.067,0,0,1-2.368.955,3.082,3.082,0,0,1-2.371-.952,3.653,3.653,0,0,1-.885-2.59ZM27-3.367a2.567,2.567,0,0,0,.368,1.5,1.215,1.215,0,0,0,1.054.518,1.217,1.217,0,0,0,1.041-.512A2.809,2.809,0,0,0,29.834-3.5a2.542,2.542,0,0,0-.375-1.488,1.217,1.217,0,0,0-1.054-.528,1.2,1.2,0,0,0-1.041.524A2.857,2.857,0,0,0,27-3.367Z" transform="translate(786 5769.074)" fill="#12263f"/>
    <path id="Trazado_191577" data-name="Trazado 191577" d="M-30.2-2.238A.9.9,0,0,0-30.555-3a4.611,4.611,0,0,0-1.266-.562,8.972,8.972,0,0,1-1.447-.583,2.365,2.365,0,0,1-1.453-2.115,2.06,2.06,0,0,1,.39-1.233,2.542,2.542,0,0,1,1.119-.847,4.212,4.212,0,0,1,1.638-.3,3.834,3.834,0,0,1,1.629.331,2.594,2.594,0,0,1,1.11.935,2.445,2.445,0,0,1,.4,1.371H-30.2a1.15,1.15,0,0,0-.369-.911A1.517,1.517,0,0,0-31.6-7.248a1.621,1.621,0,0,0-1,.272.859.859,0,0,0-.357.718.823.823,0,0,0,.419.7,4.733,4.733,0,0,0,1.233.527,5.329,5.329,0,0,1,2.186,1.119A2.229,2.229,0,0,1-28.44-2.25a2.053,2.053,0,0,1-.838,1.737,3.668,3.668,0,0,1-2.256.63,4.356,4.356,0,0,1-1.793-.36A2.837,2.837,0,0,1-34.56-1.23a2.528,2.528,0,0,1-.425-1.453h1.764q0,1.412,1.688,1.412a1.642,1.642,0,0,0,.979-.255A.829.829,0,0,0-30.2-2.238Zm6.459,1.594a2.124,2.124,0,0,1-1.734.762,2,2,0,0,1-1.556-.586,2.5,2.5,0,0,1-.548-1.717V-6.34h1.693v4.1q0,.991.9.991a1.223,1.223,0,0,0,1.184-.6V-6.34h1.7V0H-23.7Zm4.326-5.7.053.709a2.228,2.228,0,0,1,1.822-.826,1.691,1.691,0,0,1,1.682.967,2.177,2.177,0,0,1,1.9-.967,1.891,1.891,0,0,1,1.535.6,2.761,2.761,0,0,1,.5,1.808V0h-1.7V-4.043a1.207,1.207,0,0,0-.211-.788.935.935,0,0,0-.744-.249,1.057,1.057,0,0,0-1.055.727L-15.622,0h-1.693V-4.037a1.193,1.193,0,0,0-.217-.8.944.944,0,0,0-.738-.246,1.1,1.1,0,0,0-1.043.6V0h-1.693V-6.34ZM-7.124,0a1.88,1.88,0,0,1-.17-.568,2.049,2.049,0,0,1-1.6.686,2.251,2.251,0,0,1-1.544-.539,1.734,1.734,0,0,1-.612-1.359A1.792,1.792,0,0,1-10.3-3.328a3.686,3.686,0,0,1,2.159-.545h.779v-.363a1.045,1.045,0,0,0-.226-.7A.887.887,0,0,0-8.3-5.2,1.009,1.009,0,0,0-8.973-5a.7.7,0,0,0-.243.563H-10.91a1.7,1.7,0,0,1,.34-1.02,2.246,2.246,0,0,1,.961-.735,3.5,3.5,0,0,1,1.395-.267,2.767,2.767,0,0,1,1.86.589,2.06,2.06,0,0,1,.688,1.655v2.748A3.031,3.031,0,0,0-5.413-.1V0Zm-1.4-1.178a1.458,1.458,0,0,0,.691-.167,1.1,1.1,0,0,0,.469-.448v-1.09H-8q-1.271,0-1.354.879l-.006.1a.678.678,0,0,0,.223.521A.865.865,0,0,0-8.525-1.178Zm43.351-2.35A4.322,4.322,0,0,1,34.094-.82,2.557,2.557,0,0,1,31.95.117,2.574,2.574,0,0,1,29.817-.8a4.2,4.2,0,0,1-.756-2.637V-5.01A4.265,4.265,0,0,1,29.8-7.723a2.576,2.576,0,0,1,2.136-.926,2.578,2.578,0,0,1,2.133.917A4.182,4.182,0,0,1,34.827-5.1ZM33.133-5.254a3.124,3.124,0,0,0-.29-1.546.98.98,0,0,0-.905-.484.963.963,0,0,0-.882.46,2.924,2.924,0,0,0-.3,1.44v2.076a3.279,3.279,0,0,0,.284,1.551.967.967,0,0,0,.911.507.951.951,0,0,0,.9-.487,3.2,3.2,0,0,0,.287-1.49Z" transform="translate(802 5805.074)" fill="#12263f"/>
    <path id="Trazado_191578" data-name="Trazado 191578" d="M25.818,0H0" transform="translate(801.795 5800.918)" fill="none" stroke="#707070" stroke-width="1"/>
    <path id="Trazado_191579" data-name="Trazado 191579" d="M5.193,0l5.193,8.85H0Z" transform="translate(799.074 5806.267) rotate(-90)" fill="#707070"/>
    <path id="Trazado_191580" data-name="Trazado 191580" d="M5.537,0l5.537,5.742H0Z" transform="translate(806.575 5821.233) rotate(180)" fill="#707070"/>
    <path id="Trazado_190483" data-name="Trazado 190483" d="M4.676,0H134.658c2.582,0,4.676,1.331,4.676,2.973V22.593c0,1.642-2.093,2.973-4.676,2.973H4.676C2.093,25.566,0,24.235,0,22.593V2.973C0,1.331,2.093,0,4.676,0Z" transform="translate(731.5 5853.074)" fill="#75e3d9"/>
    <path id="Trazado_191581" data-name="Trazado 191581" d="M-54.689-2.238A.9.9,0,0,0-55.041-3a4.611,4.611,0,0,0-1.266-.562,8.972,8.972,0,0,1-1.447-.583,2.365,2.365,0,0,1-1.453-2.115,2.06,2.06,0,0,1,.39-1.233A2.542,2.542,0,0,1-57.7-8.344a4.212,4.212,0,0,1,1.638-.3,3.834,3.834,0,0,1,1.629.331,2.594,2.594,0,0,1,1.11.935,2.445,2.445,0,0,1,.4,1.371h-1.758a1.15,1.15,0,0,0-.369-.911,1.517,1.517,0,0,0-1.037-.325,1.621,1.621,0,0,0-1,.272.859.859,0,0,0-.357.718.823.823,0,0,0,.419.7,4.733,4.733,0,0,0,1.233.527,5.329,5.329,0,0,1,2.186,1.119,2.229,2.229,0,0,1,.686,1.664,2.053,2.053,0,0,1-.838,1.737,3.668,3.668,0,0,1-2.256.63,4.356,4.356,0,0,1-1.793-.36,2.837,2.837,0,0,1-1.233-.987,2.528,2.528,0,0,1-.425-1.453h1.764q0,1.412,1.688,1.412a1.642,1.642,0,0,0,.979-.255A.829.829,0,0,0-54.689-2.238Zm6.459,1.594a2.124,2.124,0,0,1-1.734.762,2,2,0,0,1-1.556-.586,2.5,2.5,0,0,1-.548-1.717V-6.34h1.693v4.1q0,.991.9.991a1.223,1.223,0,0,0,1.184-.6V-6.34h1.7V0h-1.594Zm4.326-5.7.053.709a2.228,2.228,0,0,1,1.822-.826,1.691,1.691,0,0,1,1.682.967,2.177,2.177,0,0,1,1.9-.967,1.891,1.891,0,0,1,1.535.6,2.761,2.761,0,0,1,.5,1.808V0h-1.7V-4.043a1.207,1.207,0,0,0-.211-.788.935.935,0,0,0-.744-.249,1.057,1.057,0,0,0-1.055.727L-40.108,0H-41.8V-4.037a1.193,1.193,0,0,0-.217-.8.944.944,0,0,0-.738-.246,1.1,1.1,0,0,0-1.043.6V0h-1.693V-6.34ZM-31.61,0a1.88,1.88,0,0,1-.17-.568,2.049,2.049,0,0,1-1.6.686,2.251,2.251,0,0,1-1.544-.539,1.734,1.734,0,0,1-.612-1.359,1.792,1.792,0,0,1,.747-1.547,3.686,3.686,0,0,1,2.159-.545h.779v-.363a1.045,1.045,0,0,0-.226-.7.887.887,0,0,0-.712-.264A1.009,1.009,0,0,0-33.459-5a.7.7,0,0,0-.243.563H-35.4a1.7,1.7,0,0,1,.34-1.02,2.246,2.246,0,0,1,.961-.735A3.5,3.5,0,0,1-32.7-6.457a2.767,2.767,0,0,1,1.86.589,2.06,2.06,0,0,1,.688,1.655v2.748A3.031,3.031,0,0,0-29.9-.1V0Zm-1.4-1.178a1.458,1.458,0,0,0,.691-.167,1.1,1.1,0,0,0,.469-.448v-1.09h-.633q-1.271,0-1.354.879l-.006.1a.678.678,0,0,0,.223.521A.865.865,0,0,0-33.011-1.178Zm43.921-.574a.546.546,0,0,0-.308-.489,3.494,3.494,0,0,0-.987-.319Q7.354-3.035,7.354-4.482a1.742,1.742,0,0,1,.7-1.409,2.825,2.825,0,0,1,1.831-.565,3.04,3.04,0,0,1,1.931.568,1.791,1.791,0,0,1,.724,1.477H10.846a.819.819,0,0,0-.234-.6A.992.992,0,0,0,9.88-5.25a1.013,1.013,0,0,0-.662.193.61.61,0,0,0-.234.492.522.522,0,0,0,.267.454,2.743,2.743,0,0,0,.9.3,7.346,7.346,0,0,1,1.066.284,1.752,1.752,0,0,1,1.342,1.705,1.654,1.654,0,0,1-.744,1.4A3.21,3.21,0,0,1,9.891.117,3.353,3.353,0,0,1,8.476-.167a2.374,2.374,0,0,1-.97-.779,1.811,1.811,0,0,1-.352-1.069H8.76a.884.884,0,0,0,.334.691,1.325,1.325,0,0,0,.832.24,1.226,1.226,0,0,0,.735-.185A.574.574,0,0,0,10.911-1.752ZM17.264-.645A2.124,2.124,0,0,1,15.53.117a2,2,0,0,1-1.556-.586,2.5,2.5,0,0,1-.548-1.717V-6.34H15.12v4.1q0,.991.9.991a1.223,1.223,0,0,0,1.184-.6V-6.34h1.7V0H17.311Zm4.326-5.7.053.709a2.228,2.228,0,0,1,1.822-.826,1.691,1.691,0,0,1,1.682.967,2.177,2.177,0,0,1,1.9-.967,1.891,1.891,0,0,1,1.535.6,2.761,2.761,0,0,1,.5,1.808V0h-1.7V-4.043a1.207,1.207,0,0,0-.211-.788.935.935,0,0,0-.744-.249,1.057,1.057,0,0,0-1.055.727L25.387,0H23.693V-4.037a1.193,1.193,0,0,0-.217-.8.944.944,0,0,0-.738-.246,1.1,1.1,0,0,0-1.043.6V0H20V-6.34ZM33.885,0a1.88,1.88,0,0,1-.17-.568,2.049,2.049,0,0,1-1.6.686,2.251,2.251,0,0,1-1.544-.539,1.734,1.734,0,0,1-.612-1.359,1.792,1.792,0,0,1,.747-1.547,3.686,3.686,0,0,1,2.159-.545h.779v-.363a1.045,1.045,0,0,0-.226-.7.887.887,0,0,0-.712-.264A1.009,1.009,0,0,0,32.036-5a.7.7,0,0,0-.243.563H30.1a1.7,1.7,0,0,1,.34-1.02A2.246,2.246,0,0,1,31.4-6.19a3.5,3.5,0,0,1,1.395-.267,2.767,2.767,0,0,1,1.86.589,2.06,2.06,0,0,1,.688,1.655v2.748A3.031,3.031,0,0,0,35.6-.1V0Zm-1.4-1.178a1.458,1.458,0,0,0,.691-.167,1.1,1.1,0,0,0,.469-.448v-1.09h-.633q-1.271,0-1.354.879l-.006.1a.678.678,0,0,0,.223.521A.865.865,0,0,0,32.484-1.178Zm10.2-3.6H44.8v1.529H42.689V-.855H41.077V-3.246H38.956V-4.775h2.121V-7.066h1.611ZM50.432,0H48.674V-8.531h1.758Zm2.685-5.64-1.84-.521.346-1.06,1.822.732-.117-2.043h1.148L54.36-6.447l1.775-.72L56.481-6.1l-1.875.521,1.23,1.559-.932.662L53.838-5.065,52.783-3.413l-.932-.633ZM59.008,0H57.25V-8.531h1.758Z" transform="translate(802 5870.074)" fill="#12263f"/>
    <path id="Trazado_191582" data-name="Trazado 191582" d="M25.818,0H0" transform="translate(779.795 5865.918)" fill="none" stroke="#707070" stroke-width="1"/>
    <path id="Trazado_191583" data-name="Trazado 191583" d="M5.193,0l5.193,8.85H0Z" transform="translate(777.075 5871.267) rotate(-90)" fill="#707070"/>
  </g>
</svg>
