<?xml version="1.0" encoding="utf-8"?>
<!-- Generator: Adobe Illustrator 26.1.0, SVG Export Plug-In . SVG Version: 6.00 Build 0)  -->
<svg version="1.1" id="Capa_1" xmlns="http://www.w3.org/2000/svg" xmlns:xlink="http://www.w3.org/1999/xlink" x="0px" y="0px"
	 viewBox="0 0 671.5 318.6" style="enable-background:new 0 0 671.5 318.6;" xml:space="preserve">
<style type="text/css">
	.st0{fill:#DD740B;}
	.st1{fill:#FFFFFF;stroke:#FFB30C;stroke-miterlimit:10;}
	.st2{fill:#FFB30C;}
	.st3{fill:#0A0A42;}
	.st4{fill:#FFFFFF;stroke:#154F8D;stroke-miterlimit:10;}
	.st5{fill:#154F8D;}
	.st6{fill:#705206;}
	.st7{fill:#FFFFFF;stroke:#D09109;stroke-miterlimit:10;}
	.st8{fill:#D09109;}
	.st9{fill:#0B88AA;}
	.st10{fill:#FFFFFF;stroke:#0DDCF1;stroke-miterlimit:10;}
	.st11{fill:#0DDCF1;}
	.st12{opacity:0.4;fill-rule:evenodd;clip-rule:evenodd;fill:#768691;enable-background:new    ;}
	.st13{fill:#12263F;}
</style>
<g id="Grupo_131831" transform="translate(-464 -8819)">
	<g id="Grupo_130794" transform="translate(500.616 8823)">
		<path id="Trazado_190815" class="st0" d="M0,45.7V8.6c0-1.7,1.4-3.1,3.1-3.1c0,0,0.1,0,0.1,0l0,0h65.9l-11.8,19l11.8,19H3.2
			C1.8,43.6,0.5,44.4,0,45.7z"/>
		<g transform="matrix(1, 0, 0, 1, -36.62, -4)">
			<path id="Rect치ngulo_293819-2" class="st1" d="M67.9,4h229c9.8,0,17.7,7.9,17.7,17.7c0,0,0,0,0,0v46.2c0,9.8-7.9,17.7-17.7,17.7
				c0,0,0,0,0,0h-229c-9.8,0-17.7-7.9-17.7-17.7c0,0,0,0,0,0V21.7C50.2,11.9,58.1,4,67.9,4C67.9,4,67.9,4,67.9,4z"/>
		</g>
		<path id="Trazado_190816" class="st2" d="M0,8.5v57.2c0,2.6,2.1,4.7,4.7,4.7c0.1,0,0.1,0,0.2,0v0h101.5L88.2,41.1l18.2-29.3H4.9
			C2.1,11.6,0.6,10.1,0,8.5z"/>
	</g>
	<g id="Grupo_130795" transform="translate(566.789 8934.453)">
		<path id="Trazado_190817" class="st3" d="M0,45.7V8.6c0-1.7,1.4-3.1,3.1-3.1c0,0,0.1,0,0.1,0l0,0h65.9l-11.8,19l11.8,19H3.2
			C1.8,43.6,0.5,44.4,0,45.7z"/>
		<g transform="matrix(1, 0, 0, 1, -102.79, -115.45)">
			<path id="Rect치ngulo_293820-2" class="st4" d="M134.1,115.4H557c9.8,0,17.7,7.9,17.7,17.7c0,0,0,0,0,0v46.2
				c0,9.8-7.9,17.7-17.7,17.7l0,0h-423c-9.8,0-17.7-7.9-17.7-17.7c0,0,0,0,0,0v-46.2C116.4,123.4,124.3,115.4,134.1,115.4z"/>
		</g>
		<path id="Trazado_190818" class="st5" d="M0,8.5v57.2c0,2.6,2.1,4.7,4.7,4.7c0.1,0,0.1,0,0.2,0v0h101.5L88.2,41.1l18.2-29.3H4.9
			C2.1,11.6,0.6,10.1,0,8.5z"/>
	</g>
	<g id="Grupo_130796" transform="translate(593.465 9043.981)">
		<path id="Trazado_190819" class="st6" d="M428.2,45.7V8.6c0-1.7-1.4-3.1-3.1-3.1c0,0-0.1,0-0.1,0l0,0h-65.9l11.8,19l-11.8,19H425
			C426.4,43.6,427.7,44.4,428.2,45.7z"/>
		<g transform="matrix(1, 0, 0, 1, -129.47, -224.98)">
			<path id="Rect치ngulo_293821-2" class="st7" d="M526.4,306.5H147.2c-9.8,0-17.7-7.9-17.7-17.7c0,0,0,0,0,0v-46.2
				c0-9.8,7.9-17.7,17.7-17.7l0,0h379.3c9.8,0,17.7,7.9,17.7,17.7c0,0,0,0,0,0v46.2C544.1,298.6,536.2,306.5,526.4,306.5z"/>
		</g>
		<path id="Trazado_190820" class="st8" d="M428.2,8.5v57.2c0,2.6-2.1,4.7-4.7,4.7c-0.1,0-0.1,0-0.2,0v0H321.9l18.2-29.3l-18.2-29.3
			h101.5C426.1,11.6,427.6,10.1,428.2,8.5z"/>
	</g>
	<g id="Grupo_130797" transform="translate(826.917 8823)">
		<path id="Trazado_190821" class="st9" d="M277.9,45.7V8.6c0-1.7-1.4-3.1-3.1-3.1c0,0-0.1,0-0.1,0l0,0h-65.9l11.8,19l-11.8,19h65.9
			C276.2,43.6,277.4,44.4,277.9,45.7z"/>
		<g transform="matrix(1, 0, 0, 1, -362.92, -4)">
			<path id="Rect치ngulo_293822-2" class="st10" d="M609.6,85.6h-229c-9.8,0-17.7-7.9-17.7-17.7c0,0,0,0,0,0V21.7
				c0-9.8,7.9-17.7,17.7-17.7c0,0,0,0,0,0h229c9.8,0,17.7,7.9,17.7,17.7c0,0,0,0,0,0v46.2C627.3,77.6,619.4,85.6,609.6,85.6
				C609.6,85.6,609.6,85.6,609.6,85.6z"/>
		</g>
		<path id="Trazado_190822" class="st11" d="M278,8.5v57.2c0,2.6-2.1,4.7-4.7,4.7c0,0,0,0,0,0c-0.1,0-0.1,0-0.2,0v0H171.6l18.2-29.3
			l-18.2-29.3h101.5C275.8,11.6,277.4,10.1,278,8.5z"/>
	</g>
	<path id="Trazado_190823" class="st12" d="M1134.3,8861.5l-15.2-15.2c-0.2-0.2-0.4-0.4-0.6-0.5c-1.1-0.9-2.7-0.7-3.6,0.4
		c-0.3,0.4-0.5,0.8-0.6,1.2c0,0.1,0,0.2,0,0.4l0,0v32.3l0,0c0.1,1.1,0.9,1.9,1.9,2.2c1,0.3,2.1-0.1,2.8-1
		c5.1-5.1,10.2-10.2,15.3-15.3C1135.9,8864.5,1135.9,8863.1,1134.3,8861.5z"/>
	<path id="Trazado_190824" class="st12" d="M465.2,8861.5c5.1-5.1,10.1-10.1,15.2-15.2c0.2-0.2,0.4-0.4,0.6-0.5
		c1.1-0.9,2.7-0.7,3.6,0.4c0.3,0.4,0.5,0.8,0.6,1.2c0,0.1,0,0.2,0,0.4l0,0v32.3l0,0c-0.1,1.1-0.9,1.9-1.9,2.2c-1,0.3-2.1-0.1-2.8-1
		c-5.1-5.1-10.2-10.2-15.3-15.3C463.6,8864.5,463.6,8863.1,465.2,8861.5z"/>
	<path id="Trazado_190825" class="st12" d="M1075,8975.6l-15.2-15.2c-0.2-0.2-0.4-0.4-0.6-0.5c-1.1-0.9-2.7-0.7-3.6,0.4
		c-0.3,0.4-0.5,0.8-0.6,1.2c0,0.1,0,0.2,0,0.4l0,0v32.3l0,0c0.1,1.1,0.9,1.9,1.9,2.2c1,0.3,2.1-0.1,2.8-1
		c5.1-5.1,10.2-10.2,15.3-15.3C1076.5,8978.5,1076.5,8977.2,1075,8975.6z"/>
	<path id="Trazado_190826" class="st12" d="M531.4,8975.6c5-5,10.1-10.1,15.2-15.2c0.2-0.2,0.4-0.4,0.6-0.5c1.1-0.9,2.7-0.7,3.6,0.4
		c0.3,0.4,0.5,0.8,0.6,1.2c0,0.1,0,0.2,0,0.4l0,0v32.3l0,0c-0.1,1.1-0.9,1.9-1.9,2.2c-1,0.3-2.1-0.1-2.8-1
		c-5.1-5.1-10.2-10.2-15.3-15.3C529.8,8978.5,529.8,8977.2,531.4,8975.6z"/>
	<path id="Trazado_191592" class="st13" d="M640.3,8865.5h-5.6v3.8h6.6v2.4h-9.5v-14.2h9.5v2.4h-6.6v3.4h5.6V8865.5z M645.4,8861.1
		l0.1,1.2c0.7-0.9,1.9-1.5,3-1.4c0.9-0.1,1.9,0.3,2.5,1c0.6,0.9,0.9,1.9,0.8,2.9v6.8H649v-6.8c0-0.5-0.1-0.9-0.4-1.3
		c-0.4-0.3-0.8-0.5-1.3-0.4c-0.7,0-1.4,0.4-1.8,1v7.5h-2.8v-10.6L645.4,8861.1z M657.4,8858.5v2.6h1.8v2.1h-1.8v5.3
		c0,0.3,0.1,0.6,0.2,0.8c0.2,0.2,0.6,0.3,0.9,0.3c0.3,0,0.6,0,0.8-0.1v2.1c-0.6,0.2-1.1,0.3-1.7,0.3c-2,0-3-1-3-3v-5.7H653v-2.1h1.5
		v-2.6L657.4,8858.5z M666.7,8863.8c-0.3,0-0.7-0.1-1-0.1c-0.9-0.1-1.7,0.3-2.1,1.1v6.9h-2.8v-10.6h2.7l0.1,1.3
		c0.4-0.9,1.4-1.5,2.4-1.5c0.3,0,0.6,0,0.9,0.1L666.7,8863.8z M673.9,8871.7c-0.1-0.3-0.2-0.6-0.3-0.9c-0.7,0.8-1.7,1.2-2.7,1.1
		c-0.9,0-1.9-0.3-2.6-0.9c-0.7-0.6-1-1.4-1-2.3c-0.1-1,0.4-2,1.2-2.6c1.1-0.7,2.3-1,3.6-0.9h1.3v-0.6c0-0.4-0.1-0.8-0.4-1.2
		c-0.3-0.3-0.7-0.5-1.2-0.4c-0.4,0-0.8,0.1-1.1,0.3c-0.3,0.2-0.4,0.6-0.4,0.9h-2.8c0-0.6,0.2-1.2,0.6-1.7c0.4-0.5,1-1,1.6-1.2
		c0.7-0.3,1.5-0.5,2.3-0.4c1.1-0.1,2.2,0.3,3.1,1c0.8,0.7,1.2,1.7,1.2,2.8v4.6c0,0.8,0.1,1.6,0.4,2.3v0.2H673.9z M671.5,8869.7
		c0.4,0,0.8-0.1,1.2-0.3c0.3-0.2,0.6-0.4,0.8-0.7v-1.8h-1.1c-1.4,0-2.2,0.5-2.3,1.5l0,0.2c0,0.3,0.1,0.6,0.4,0.9
		C670.8,8869.6,671.2,8869.7,671.5,8869.7z M678,8866.3c-0.1-1.4,0.3-2.8,1.1-3.9c0.7-1,1.8-1.5,3-1.5c1,0,1.9,0.4,2.5,1.2v-5.4h2.8
		v15H685l-0.1-1.1c-0.6,0.9-1.6,1.3-2.7,1.3c-1.2,0-2.3-0.5-3-1.5C678.4,8869.2,678,8867.8,678,8866.3L678,8866.3z M680.9,8866.5
		c0,0.8,0.1,1.6,0.5,2.3c0.3,0.5,0.9,0.8,1.5,0.8c0.8,0.1,1.5-0.4,1.8-1.1v-4.2c-0.3-0.7-1-1.2-1.8-1.1
		C681.5,8863.2,680.9,8864.3,680.9,8866.5L680.9,8866.5z M695.9,8871.7c-0.1-0.3-0.2-0.6-0.3-0.9c-0.7,0.8-1.7,1.2-2.7,1.1
		c-0.9,0-1.9-0.3-2.6-0.9c-0.7-0.6-1-1.4-1-2.3c-0.1-1,0.4-2,1.2-2.6c1.1-0.7,2.3-1,3.6-0.9h1.3v-0.6c0-0.4-0.1-0.8-0.4-1.2
		c-0.3-0.3-0.7-0.5-1.2-0.4c-0.4,0-0.8,0.1-1.1,0.3c-0.3,0.2-0.4,0.6-0.4,0.9h-2.8c0-0.6,0.2-1.2,0.6-1.7c0.4-0.5,1-1,1.6-1.2
		c0.7-0.3,1.5-0.5,2.3-0.4c1.1-0.1,2.2,0.3,3.1,1c0.8,0.7,1.2,1.7,1.1,2.8v4.6c0,0.8,0.1,1.6,0.4,2.3v0.2H695.9z M693.5,8869.7
		c0.4,0,0.8-0.1,1.2-0.3c0.3-0.2,0.6-0.4,0.8-0.7v-1.8h-1.1c-1.4,0-2.2,0.5-2.3,1.5l0,0.2c0,0.3,0.1,0.6,0.4,0.9
		C692.8,8869.6,693.2,8869.7,693.5,8869.7z M706.2,8868.8c0-0.3-0.2-0.7-0.5-0.8c-0.5-0.3-1.1-0.4-1.6-0.5c-2.5-0.5-3.8-1.6-3.8-3.2
		c0-0.9,0.4-1.8,1.2-2.3c0.9-0.7,2-1,3.1-0.9c1.1-0.1,2.3,0.3,3.2,0.9c0.8,0.6,1.2,1.5,1.2,2.5h-2.8c0-0.4-0.1-0.7-0.4-1
		c-0.3-0.3-0.8-0.4-1.2-0.4c-0.4,0-0.8,0.1-1.1,0.3c-0.3,0.2-0.4,0.5-0.4,0.8c0,0.3,0.2,0.6,0.4,0.8c0.5,0.3,1,0.4,1.5,0.5
		c0.6,0.1,1.2,0.3,1.8,0.5c1.3,0.3,2.2,1.5,2.2,2.8c0,0.9-0.5,1.8-1.2,2.3c-0.9,0.6-2.1,0.9-3.2,0.9c-0.8,0-1.6-0.1-2.4-0.5
		c-0.6-0.3-1.2-0.7-1.6-1.3c-0.4-0.5-0.6-1.1-0.6-1.8h2.7c0,0.4,0.2,0.9,0.6,1.2c0.4,0.3,0.9,0.4,1.4,0.4c0.4,0,0.9-0.1,1.2-0.3
		C706,8869.4,706.2,8869.1,706.2,8868.8z M715.9,8865.9c0-1.4,0.2-2.9,0.6-4.3c0.4-1.3,1-2.5,1.8-3.6c0.6-0.9,1.5-1.7,2.5-2.2
		l0.5,1.5c-1,0.8-1.8,2-2.2,3.3c-0.6,1.7-0.8,3.4-0.8,5.2v0.3c0,1.8,0.2,3.5,0.8,5.2c0.4,1.3,1.2,2.5,2.2,3.3l-0.5,1.5
		c-1-0.5-1.8-1.2-2.5-2.1c-0.8-1-1.4-2.2-1.8-3.5c-0.4-1.3-0.6-2.7-0.6-4.1V8865.9z M731.5,8865.5h-5.6v3.8h6.6v2.4h-9.5v-14.2h9.5
		v2.4h-6.6v3.4h5.6V8865.5z M738.9,8866.1c0,1.4-0.2,2.9-0.6,4.2c-0.4,1.3-1,2.5-1.8,3.6c-0.7,0.9-1.5,1.7-2.5,2.2l-0.5-1.5
		c1-0.8,1.8-2,2.2-3.2c0.6-1.6,0.8-3.3,0.8-5v-0.5c0-1.7-0.2-3.5-0.8-5.1c-0.4-1.3-1.2-2.5-2.2-3.3l0.5-1.5c1,0.5,1.9,1.2,2.5,2.1
		c0.8,1.1,1.4,2.3,1.8,3.5c0.4,1.3,0.7,2.8,0.7,4.2V8866.1z"/>
	<path id="Trazado_191593" class="st13" d="M731.3,8975.5h-5.6v3.8h6.6v2.4h-9.5v-14.2h9.5v2.4h-6.6v3.4h5.6V8975.5z M736.4,8971.1
		l0.1,1.2c0.7-0.9,1.9-1.5,3-1.4c0.9-0.1,1.9,0.3,2.5,1c0.6,0.9,0.9,1.9,0.8,2.9v6.8H740v-6.8c0-0.5-0.1-0.9-0.4-1.3
		c-0.4-0.3-0.8-0.5-1.3-0.4c-0.7,0-1.4,0.4-1.8,1v7.5h-2.8v-10.6L736.4,8971.1z M748.4,8968.5v2.6h1.8v2.1h-1.8v5.3
		c0,0.3,0.1,0.6,0.2,0.8c0.2,0.2,0.6,0.3,0.9,0.3c0.3,0,0.6,0,0.8-0.1v2.1c-0.6,0.2-1.1,0.3-1.7,0.3c-2,0-3-1-3-3v-5.7H744v-2.1h1.5
		v-2.6L748.4,8968.5z M757.7,8973.8c-0.3,0-0.7-0.1-1-0.1c-0.9-0.1-1.7,0.3-2.1,1.1v6.9h-2.8v-10.6h2.7l0.1,1.3
		c0.4-0.9,1.4-1.5,2.4-1.5c0.3,0,0.6,0,0.9,0.1L757.7,8973.8z M764.9,8981.7c-0.1-0.3-0.2-0.6-0.3-0.9c-0.7,0.8-1.7,1.2-2.7,1.1
		c-0.9,0-1.9-0.3-2.6-0.9c-0.7-0.6-1-1.4-1-2.3c-0.1-1,0.4-2,1.2-2.6c1.1-0.7,2.3-1,3.6-0.9h1.3v-0.6c0-0.4-0.1-0.8-0.4-1.2
		c-0.3-0.3-0.7-0.5-1.2-0.4c-0.4,0-0.8,0.1-1.1,0.3c-0.3,0.2-0.4,0.6-0.4,0.9h-2.8c0-0.6,0.2-1.2,0.6-1.7c0.4-0.5,1-1,1.6-1.2
		c0.7-0.3,1.5-0.5,2.3-0.4c1.1-0.1,2.2,0.3,3.1,1c0.8,0.7,1.2,1.7,1.2,2.8v4.6c0,0.8,0.1,1.6,0.4,2.3v0.2H764.9z M762.5,8979.7
		c0.4,0,0.8-0.1,1.2-0.3c0.3-0.2,0.6-0.4,0.8-0.7v-1.8h-1.1c-1.4,0-2.2,0.5-2.3,1.5l0,0.2c0,0.3,0.1,0.6,0.4,0.9
		C761.8,8979.6,762.2,8979.7,762.5,8979.7z M769,8976.3c-0.1-1.4,0.3-2.8,1.1-3.9c0.7-1,1.8-1.5,3-1.5c1,0,1.9,0.4,2.5,1.2v-5.4h2.8
		v15H776l-0.1-1.1c-0.6,0.9-1.6,1.3-2.7,1.3c-1.2,0-2.3-0.5-3-1.5C769.4,8979.2,769,8977.8,769,8976.3L769,8976.3z M771.9,8976.5
		c0,0.8,0.1,1.6,0.5,2.3c0.3,0.5,0.9,0.8,1.5,0.8c0.8,0.1,1.5-0.4,1.8-1.1v-4.2c-0.3-0.7-1-1.2-1.8-1.1
		C772.5,8973.2,771.9,8974.3,771.9,8976.5L771.9,8976.5z M786.9,8981.7c-0.1-0.3-0.2-0.6-0.3-0.9c-0.7,0.8-1.7,1.2-2.7,1.1
		c-0.9,0-1.9-0.3-2.6-0.9c-0.7-0.6-1-1.4-1-2.3c-0.1-1,0.4-2,1.2-2.6c1.1-0.7,2.3-1,3.6-0.9h1.3v-0.6c0-0.4-0.1-0.8-0.4-1.2
		c-0.3-0.3-0.7-0.5-1.2-0.4c-0.4,0-0.8,0.1-1.1,0.3c-0.3,0.2-0.4,0.6-0.4,0.9h-2.8c0-0.6,0.2-1.2,0.6-1.7c0.4-0.5,1-1,1.6-1.2
		c0.7-0.3,1.5-0.5,2.3-0.4c1.1-0.1,2.2,0.3,3.1,1c0.8,0.7,1.2,1.7,1.1,2.8v4.6c0,0.8,0.1,1.6,0.4,2.3v0.2H786.9z M784.5,8979.7
		c0.4,0,0.8-0.1,1.2-0.3c0.3-0.2,0.6-0.4,0.8-0.7v-1.8h-1.1c-1.4,0-2.2,0.5-2.3,1.5l0,0.2c0,0.3,0.1,0.6,0.4,0.9
		C783.8,8979.6,784.2,8979.7,784.5,8979.7z M797.2,8978.8c0-0.3-0.2-0.7-0.5-0.8c-0.5-0.3-1.1-0.4-1.6-0.5c-2.5-0.5-3.8-1.6-3.8-3.2
		c0-0.9,0.4-1.8,1.2-2.3c0.9-0.7,2-1,3.1-0.9c1.1-0.1,2.3,0.3,3.2,0.9c0.8,0.6,1.2,1.5,1.2,2.5h-2.8c0-0.4-0.1-0.7-0.4-1
		c-0.3-0.3-0.8-0.4-1.2-0.4c-0.4,0-0.8,0.1-1.1,0.3c-0.3,0.2-0.4,0.5-0.4,0.8c0,0.3,0.2,0.6,0.4,0.8c0.5,0.3,1,0.4,1.5,0.5
		c0.6,0.1,1.2,0.3,1.8,0.5c1.3,0.3,2.2,1.5,2.2,2.8c0,0.9-0.5,1.8-1.2,2.3c-0.9,0.6-2.1,0.9-3.2,0.9c-0.8,0-1.6-0.1-2.4-0.5
		c-0.6-0.3-1.2-0.7-1.6-1.3c-0.4-0.5-0.6-1.1-0.6-1.8h2.7c0,0.4,0.2,0.9,0.6,1.2c0.4,0.3,0.9,0.4,1.4,0.4c0.4,0,0.9-0.1,1.2-0.3
		C797,8979.4,797.2,8979.1,797.2,8978.8z M802.6,8982.9h-2.1l5.2-15.4h2.1L802.6,8982.9z M816.8,8978c0-0.5-0.2-1-0.6-1.3
		c-0.7-0.4-1.4-0.7-2.1-0.9c-0.8-0.3-1.6-0.6-2.4-1c-1.4-0.6-2.4-2-2.4-3.5c0-0.7,0.2-1.5,0.6-2.1c0.5-0.6,1.1-1.1,1.9-1.4
		c0.9-0.3,1.8-0.5,2.7-0.5c0.9,0,1.9,0.2,2.7,0.6c0.8,0.3,1.4,0.9,1.8,1.6c0.4,0.7,0.7,1.5,0.7,2.3h-2.9c0-0.6-0.2-1.1-0.6-1.5
		c-0.5-0.4-1.1-0.6-1.7-0.5c-0.6,0-1.2,0.1-1.7,0.5c-0.4,0.3-0.6,0.7-0.6,1.2c0,0.5,0.3,0.9,0.7,1.2c0.6,0.4,1.3,0.7,2.1,0.9
		c1.3,0.3,2.6,1,3.6,1.9c0.8,0.7,1.2,1.7,1.1,2.8c0,1.1-0.5,2.2-1.4,2.9c-1.1,0.8-2.4,1.1-3.8,1c-1,0-2-0.2-3-0.6
		c-0.8-0.3-1.5-0.9-2.1-1.6c-0.5-0.7-0.7-1.6-0.7-2.4h2.9c0,1.6,0.9,2.4,2.8,2.4c0.6,0,1.1-0.1,1.6-0.4
		C816.6,8978.9,816.8,8978.4,816.8,8978z M827.6,8981.7c-0.1-0.3-0.2-0.6-0.3-0.9c-0.7,0.8-1.7,1.2-2.7,1.1c-0.9,0-1.9-0.3-2.6-0.9
		c-0.7-0.6-1-1.4-1-2.3c-0.1-1,0.4-2,1.2-2.6c1.1-0.7,2.3-1,3.6-0.9h1.3v-0.6c0-0.4-0.1-0.8-0.4-1.2c-0.3-0.3-0.7-0.5-1.2-0.4
		c-0.4,0-0.8,0.1-1.1,0.3c-0.3,0.2-0.4,0.6-0.4,0.9h-2.8c0-0.6,0.2-1.2,0.6-1.7c0.4-0.5,1-1,1.6-1.2c0.7-0.3,1.5-0.5,2.3-0.4
		c1.1-0.1,2.2,0.3,3.1,1c0.8,0.7,1.2,1.7,1.1,2.8v4.6c0,0.8,0.1,1.6,0.4,2.3v0.2H827.6z M825.3,8979.7c0.4,0,0.8-0.1,1.2-0.3
		c0.3-0.2,0.6-0.4,0.8-0.7v-1.8h-1.1c-1.4,0-2.2,0.5-2.3,1.5l0,0.2c0,0.3,0.1,0.6,0.4,0.9C824.6,8979.6,824.9,8979.7,825.3,8979.7z
		 M835.2,8981.7h-2.8v-15h2.8V8981.7z M840.5,8981.7h-2.8v-10.6h2.8L840.5,8981.7z M837.5,8968.4c0-0.4,0.1-0.8,0.4-1
		c0.3-0.3,0.7-0.4,1.2-0.4c0.4,0,0.8,0.1,1.2,0.4c0.3,0.3,0.4,0.7,0.4,1c0,0.4-0.1,0.8-0.4,1.1c-0.3,0.3-0.7,0.4-1.1,0.4
		c-0.4,0-0.8-0.1-1.1-0.4C837.7,8969.2,837.5,8968.8,837.5,8968.4L837.5,8968.4z M842.4,8976.3c-0.1-1.4,0.3-2.8,1.1-3.9
		c0.7-1,1.8-1.5,3-1.5c1,0,1.9,0.4,2.5,1.2v-5.4h2.8v15h-2.5l-0.1-1.1c-0.6,0.9-1.7,1.3-2.7,1.3c-1.2,0-2.3-0.5-3-1.5
		C842.7,8979.2,842.3,8977.8,842.4,8976.3L842.4,8976.3z M845.2,8976.5c0,0.8,0.1,1.6,0.5,2.3c0.3,0.5,0.9,0.8,1.5,0.8
		c0.8,0.1,1.5-0.4,1.8-1.1v-4.2c-0.3-0.7-1-1.2-1.8-1.1C845.9,8973.2,845.2,8974.3,845.2,8976.5L845.2,8976.5z M860.2,8981.7
		c-0.1-0.3-0.2-0.6-0.3-0.9c-0.7,0.8-1.7,1.2-2.7,1.1c-0.9,0-1.9-0.3-2.6-0.9c-0.7-0.6-1-1.4-1-2.3c-0.1-1,0.4-2,1.2-2.6
		c1.1-0.7,2.3-1,3.6-0.9h1.3v-0.6c0-0.4-0.1-0.8-0.4-1.2c-0.3-0.3-0.7-0.5-1.2-0.4c-0.4,0-0.8,0.1-1.1,0.3c-0.3,0.2-0.4,0.6-0.4,0.9
		h-2.8c0-0.6,0.2-1.2,0.6-1.7c0.4-0.5,1-1,1.6-1.2c0.7-0.3,1.5-0.5,2.3-0.4c1.1-0.1,2.2,0.3,3.1,1c0.8,0.7,1.2,1.7,1.1,2.8v4.6
		c0,0.8,0.1,1.6,0.4,2.3v0.2H860.2z M857.9,8979.7c0.4,0,0.8-0.1,1.2-0.3c0.3-0.2,0.6-0.4,0.8-0.7v-1.8h-1.1c-1.4,0-2.2,0.5-2.3,1.5
		l0,0.2c0,0.3,0.1,0.6,0.4,0.9C857.2,8979.6,857.5,8979.7,857.9,8979.7z M870.6,8978.8c0-0.3-0.2-0.7-0.5-0.8
		c-0.5-0.3-1.1-0.4-1.6-0.5c-2.5-0.5-3.8-1.6-3.8-3.2c0-0.9,0.4-1.8,1.2-2.3c0.9-0.7,2-1,3.1-0.9c1.1-0.1,2.3,0.3,3.2,0.9
		c0.8,0.6,1.2,1.5,1.2,2.5h-2.8c0-0.4-0.1-0.7-0.4-1c-0.3-0.3-0.8-0.4-1.2-0.4c-0.4,0-0.8,0.1-1.1,0.3c-0.3,0.2-0.4,0.5-0.4,0.8
		c0,0.3,0.2,0.6,0.4,0.8c0.5,0.3,1,0.4,1.5,0.5c0.6,0.1,1.2,0.3,1.8,0.5c1.3,0.3,2.2,1.5,2.2,2.8c0,0.9-0.5,1.8-1.2,2.3
		c-0.9,0.6-2.1,0.9-3.2,0.9c-0.8,0-1.6-0.1-2.4-0.5c-0.6-0.3-1.2-0.7-1.6-1.3c-0.4-0.5-0.6-1.1-0.6-1.8h2.7c0,0.4,0.2,0.9,0.6,1.2
		c0.4,0.3,0.9,0.4,1.4,0.4c0.4,0,0.9-0.1,1.2-0.3C870.4,8979.4,870.6,8979.1,870.6,8978.8z M880.2,8975.9c0-1.4,0.2-2.9,0.6-4.3
		c0.4-1.3,1-2.5,1.8-3.6c0.6-0.9,1.5-1.7,2.5-2.2l0.5,1.5c-1,0.8-1.8,2-2.2,3.3c-0.6,1.7-0.8,3.4-0.8,5.2v0.3c0,1.8,0.2,3.5,0.8,5.2
		c0.4,1.3,1.2,2.5,2.2,3.3l-0.5,1.5c-1-0.5-1.8-1.2-2.5-2.1c-0.8-1-1.4-2.2-1.8-3.5c-0.4-1.3-0.6-2.7-0.6-4.1L880.2,8975.9z
		 M895.9,8975.5h-5.6v3.8h6.6v2.4h-9.5v-14.2h9.5v2.4h-6.6v3.4h5.6V8975.5z M899.3,8982.9h-2.1l5.2-15.4h2.1L899.3,8982.9z
		 M913.4,8978c0-0.5-0.2-1-0.6-1.3c-0.7-0.4-1.4-0.7-2.1-0.9c-0.8-0.3-1.6-0.6-2.4-1c-1.4-0.6-2.4-2-2.4-3.5c0-0.7,0.2-1.5,0.6-2.1
		c0.5-0.6,1.1-1.1,1.9-1.4c0.9-0.3,1.8-0.5,2.7-0.5c0.9,0,1.9,0.2,2.7,0.6c0.8,0.3,1.4,0.9,1.9,1.6c0.4,0.7,0.7,1.5,0.7,2.3h-2.9
		c0-0.6-0.2-1.1-0.6-1.5c-0.5-0.4-1.1-0.6-1.7-0.5c-0.6,0-1.2,0.1-1.7,0.5c-0.4,0.3-0.6,0.7-0.6,1.2c0,0.5,0.3,0.9,0.7,1.2
		c0.6,0.4,1.3,0.7,2.1,0.9c1.3,0.3,2.6,1,3.6,1.9c0.8,0.7,1.2,1.7,1.1,2.8c0,1.1-0.5,2.2-1.4,2.9c-1.1,0.7-2.4,1.1-3.8,1
		c-1,0-2-0.2-3-0.6c-0.8-0.3-1.5-0.9-2.1-1.6c-0.5-0.7-0.7-1.6-0.7-2.4h2.9c0,1.6,0.9,2.4,2.8,2.4c0.6,0,1.1-0.1,1.6-0.4
		C913.2,8978.9,913.4,8978.4,913.4,8978z M923,8976.1c0,1.4-0.2,2.9-0.6,4.2c-0.4,1.3-1,2.5-1.8,3.6c-0.7,0.9-1.5,1.7-2.5,2.1
		l-0.5-1.5c1-0.8,1.8-2,2.2-3.2c0.6-1.6,0.8-3.3,0.8-5v-0.5c0-1.7-0.2-3.5-0.8-5.1c-0.4-1.3-1.2-2.5-2.2-3.3l0.5-1.5
		c1,0.5,1.9,1.2,2.5,2.1c0.8,1.1,1.4,2.3,1.8,3.5c0.4,1.3,0.7,2.8,0.7,4.2V8976.1z"/>
	<path id="Trazado_191596" class="st13" d="M879.1,8868c0-0.5-0.2-1-0.6-1.3c-0.7-0.4-1.4-0.7-2.1-0.9c-0.8-0.3-1.6-0.6-2.4-1
		c-1.4-0.6-2.4-2-2.4-3.5c0-0.7,0.2-1.5,0.6-2.1c0.5-0.6,1.1-1.1,1.9-1.4c0.9-0.3,1.8-0.5,2.7-0.5c0.9,0,1.9,0.2,2.7,0.6
		c0.8,0.3,1.4,0.9,1.9,1.6c0.4,0.7,0.7,1.5,0.7,2.3h-2.9c0-0.6-0.2-1.1-0.6-1.5c-0.5-0.4-1.1-0.6-1.7-0.5c-0.6,0-1.2,0.1-1.7,0.5
		c-0.4,0.3-0.6,0.7-0.6,1.2c0,0.5,0.3,0.9,0.7,1.2c0.6,0.4,1.3,0.7,2.1,0.9c1.3,0.3,2.6,1,3.6,1.9c0.8,0.7,1.2,1.7,1.1,2.8
		c0,1.1-0.5,2.2-1.4,2.9c-1.1,0.8-2.4,1.1-3.8,1c-1,0-2-0.2-3-0.6c-0.8-0.3-1.5-0.9-2.1-1.7c-0.5-0.7-0.7-1.6-0.7-2.4h2.9
		c0,1.6,0.9,2.4,2.8,2.4c0.6,0,1.1-0.1,1.6-0.4C878.9,8868.9,879.1,8868.4,879.1,8868z M890,8871.7c-0.1-0.3-0.2-0.6-0.3-0.9
		c-0.7,0.8-1.6,1.2-2.7,1.1c-0.9,0-1.9-0.3-2.6-0.9c-0.7-0.6-1-1.4-1-2.3c-0.1-1,0.4-2,1.2-2.6c1.1-0.7,2.3-1,3.6-0.9h1.3v-0.6
		c0-0.4-0.1-0.8-0.4-1.2c-0.3-0.3-0.7-0.5-1.2-0.4c-0.4,0-0.8,0.1-1.1,0.3c-0.3,0.2-0.4,0.6-0.4,0.9h-2.8c0-0.6,0.2-1.2,0.6-1.7
		c0.4-0.5,1-1,1.6-1.2c0.7-0.3,1.5-0.5,2.3-0.4c1.1-0.1,2.2,0.3,3.1,1c0.8,0.7,1.2,1.7,1.1,2.8v4.6c0,0.8,0.1,1.6,0.4,2.3v0.2H890z
		 M887.6,8869.7c0.4,0,0.8-0.1,1.2-0.3c0.3-0.2,0.6-0.4,0.8-0.7v-1.8h-1.1c-1.4,0-2.2,0.5-2.3,1.5l0,0.2c0,0.3,0.1,0.6,0.4,0.9
		C886.9,8869.6,887.3,8869.7,887.6,8869.7z M897.5,8871.7h-2.8v-15h2.8V8871.7z M902.8,8871.7H900v-10.6h2.8L902.8,8871.7z
		 M899.8,8858.4c0-0.4,0.1-0.8,0.4-1c0.3-0.3,0.7-0.4,1.2-0.4c0.4,0,0.8,0.1,1.2,0.4c0.3,0.3,0.4,0.7,0.4,1c0,0.4-0.1,0.8-0.4,1.1
		c-0.3,0.3-0.7,0.4-1.1,0.4c-0.4,0-0.8-0.1-1.1-0.4C900,8859.2,899.8,8858.8,899.8,8858.4L899.8,8858.4z M904.7,8866.3
		c-0.1-1.4,0.3-2.8,1.1-3.9c0.7-1,1.8-1.5,3-1.5c1,0,1.9,0.4,2.5,1.2v-5.4h2.8v15h-2.5l-0.1-1.1c-0.6,0.8-1.6,1.3-2.7,1.3
		c-1.2,0-2.3-0.5-3-1.5C905,8869.2,904.6,8867.8,904.7,8866.3L904.7,8866.3z M907.6,8866.5c0,0.8,0.1,1.6,0.5,2.3
		c0.3,0.5,0.9,0.8,1.5,0.8c0.8,0.1,1.5-0.4,1.8-1.1v-4.2c-0.3-0.7-1-1.2-1.8-1.1C908.2,8863.2,907.6,8864.3,907.6,8866.5
		L907.6,8866.5z M922.6,8871.7c-0.1-0.3-0.2-0.6-0.3-0.9c-0.7,0.8-1.7,1.2-2.7,1.1c-0.9,0-1.9-0.3-2.6-0.9c-0.7-0.6-1-1.4-1-2.3
		c-0.1-1,0.4-2,1.2-2.6c1.1-0.7,2.3-1,3.6-0.9h1.3v-0.6c0-0.4-0.1-0.8-0.4-1.2c-0.3-0.3-0.7-0.5-1.2-0.4c-0.4,0-0.8,0.1-1.1,0.3
		c-0.3,0.2-0.4,0.6-0.4,0.9h-2.8c0-0.6,0.2-1.2,0.6-1.7c0.4-0.5,1-1,1.6-1.2c0.7-0.3,1.5-0.5,2.3-0.4c1.1-0.1,2.2,0.3,3.1,1
		c0.8,0.7,1.2,1.7,1.1,2.8v4.6c0,0.8,0.1,1.6,0.4,2.3v0.2H922.6z M920.2,8869.7c0.4,0,0.8-0.1,1.2-0.3c0.3-0.2,0.6-0.4,0.8-0.7v-1.8
		h-1.1c-1.4,0-2.2,0.5-2.3,1.5l0,0.2c0,0.3,0.1,0.6,0.4,0.9C919.5,8869.6,919.9,8869.7,920.2,8869.7z M932.9,8868.8
		c0-0.3-0.2-0.7-0.5-0.8c-0.5-0.3-1.1-0.4-1.6-0.5c-2.5-0.5-3.8-1.6-3.8-3.2c0-0.9,0.4-1.8,1.2-2.3c0.9-0.7,2-1,3.1-0.9
		c1.1-0.1,2.3,0.3,3.2,0.9c0.8,0.6,1.2,1.5,1.2,2.5h-2.8c0-0.4-0.1-0.7-0.4-1c-0.3-0.3-0.8-0.4-1.2-0.4c-0.4,0-0.8,0.1-1.1,0.3
		c-0.3,0.2-0.4,0.5-0.4,0.8c0,0.3,0.2,0.6,0.4,0.8c0.5,0.3,1,0.4,1.5,0.5c0.6,0.1,1.2,0.3,1.8,0.5c1.3,0.3,2.2,1.5,2.2,2.8
		c0,0.9-0.5,1.8-1.2,2.3c-0.9,0.6-2.1,0.9-3.2,0.9c-0.8,0-1.6-0.1-2.4-0.5c-0.6-0.3-1.2-0.7-1.6-1.3c-0.4-0.5-0.6-1.1-0.6-1.8h2.7
		c0,0.4,0.2,0.9,0.6,1.2c0.4,0.3,0.9,0.4,1.4,0.4c0.4,0,0.9-0.1,1.2-0.3C932.7,8869.4,932.9,8869.1,932.9,8868.8z M942.6,8865.9
		c0-1.4,0.2-2.9,0.6-4.3c0.4-1.3,1-2.5,1.8-3.6c0.6-0.9,1.5-1.7,2.5-2.2l0.5,1.5c-1,0.8-1.8,2-2.2,3.3c-0.6,1.7-0.8,3.4-0.8,5.2v0.3
		c0,1.8,0.2,3.5,0.8,5.2c0.4,1.3,1.2,2.5,2.2,3.3l-0.5,1.5c-1-0.5-1.8-1.2-2.5-2.1c-0.8-1-1.4-2.2-1.8-3.5c-0.4-1.3-0.6-2.7-0.6-4.1
		L942.6,8865.9z M957,8868c0-0.5-0.2-1-0.6-1.3c-0.7-0.4-1.4-0.7-2.1-0.9c-0.8-0.3-1.6-0.6-2.4-1c-1.4-0.6-2.4-2-2.4-3.5
		c0-0.7,0.2-1.5,0.6-2.1c0.5-0.6,1.1-1.1,1.9-1.4c0.9-0.3,1.8-0.5,2.7-0.5c0.9,0,1.9,0.2,2.7,0.6c0.8,0.3,1.4,0.9,1.9,1.6
		c0.4,0.7,0.7,1.5,0.7,2.3H957c0-0.6-0.2-1.1-0.6-1.5c-0.5-0.4-1.1-0.6-1.7-0.5c-0.6,0-1.2,0.1-1.7,0.5c-0.4,0.3-0.6,0.7-0.6,1.2
		c0,0.5,0.3,0.9,0.7,1.2c0.6,0.4,1.3,0.7,2.1,0.9c1.3,0.3,2.6,1,3.6,1.9c0.8,0.7,1.2,1.7,1.1,2.8c0,1.1-0.5,2.2-1.4,2.9
		c-1.1,0.8-2.4,1.1-3.8,1c-1,0-2-0.2-3-0.6c-0.8-0.3-1.5-0.9-2.1-1.6c-0.5-0.7-0.7-1.6-0.7-2.4h2.9c0,1.6,0.9,2.4,2.8,2.4
		c0.6,0,1.1-0.1,1.6-0.4C956.8,8868.9,957,8868.4,957,8868z M966.6,8866.1c0,1.4-0.2,2.9-0.6,4.2c-0.4,1.3-1,2.5-1.8,3.6
		c-0.7,0.9-1.5,1.7-2.5,2.1l-0.5-1.5c1-0.8,1.8-2,2.2-3.2c0.6-1.6,0.8-3.3,0.8-5v-0.5c0-1.7-0.2-3.5-0.8-5.1
		c-0.4-1.3-1.2-2.5-2.2-3.3l0.5-1.5c1,0.5,1.9,1.2,2.5,2.1c0.8,1.1,1.4,2.3,1.8,3.5c0.4,1.3,0.7,2.8,0.7,4.2V8866.1z"/>
	<path id="Trazado_191598" class="st13" d="M739.9,9091.7h-2.9v-14.2h2.9V9091.7z M745,9081.1l0.1,1.2c0.7-0.9,1.9-1.4,3-1.4
		c1.2-0.1,2.3,0.5,2.8,1.6c0.7-1.1,1.9-1.7,3.2-1.6c1-0.1,1.9,0.3,2.6,1c0.6,0.9,0.9,1.9,0.8,3v6.7h-2.8v-6.7c0-0.5-0.1-0.9-0.4-1.3
		c-0.3-0.3-0.8-0.5-1.2-0.4c-0.8,0-1.5,0.5-1.8,1.2l0,7.3h-2.8v-6.7c0-0.5-0.1-0.9-0.4-1.3c-0.3-0.3-0.8-0.5-1.2-0.4
		c-0.7,0-1.4,0.4-1.7,1v7.5h-2.8v-10.6H745z M769.2,9086.5c0.1,1.4-0.3,2.8-1.1,3.9c-0.7,1-1.8,1.5-3,1.5c-1,0-1.9-0.4-2.6-1.1v5
		h-2.8v-14.6h2.6l0.1,1c0.7-0.8,1.6-1.3,2.7-1.2c1.2-0.1,2.3,0.5,3,1.4c0.8,1.2,1.2,2.6,1.1,4V9086.5z M766.4,9086.3
		c0-0.8-0.1-1.6-0.5-2.3c-0.3-0.5-0.9-0.8-1.5-0.8c-0.8-0.1-1.5,0.3-1.8,1v4.3c0.3,0.7,1.1,1.1,1.8,1
		C765.7,9089.6,766.4,9088.5,766.4,9086.3z M770.5,9086.3c0-1,0.2-1.9,0.6-2.8c0.4-0.8,1-1.5,1.7-1.9c0.8-0.5,1.7-0.7,2.6-0.7
		c1.3-0.1,2.5,0.4,3.5,1.3c0.9,1,1.5,2.2,1.5,3.6l0,0.7c0.1,1.4-0.4,2.8-1.4,3.9c-0.9,1-2.3,1.5-3.6,1.5c-1.4,0.1-2.7-0.5-3.6-1.5
		c-1-1.1-1.4-2.5-1.4-4V9086.3z M773.3,9086.5c-0.1,0.8,0.1,1.6,0.6,2.3c0.4,0.5,1,0.8,1.6,0.8c0.6,0,1.2-0.3,1.6-0.8
		c0.4-0.8,0.6-1.6,0.6-2.5c0-0.8-0.2-1.6-0.6-2.3c-0.4-0.5-1-0.8-1.6-0.8c-0.6,0-1.2,0.3-1.6,0.8
		C773.5,9084.8,773.3,9085.6,773.3,9086.5z M788.2,9083.8c-0.3,0-0.7-0.1-1-0.1c-0.9-0.1-1.7,0.3-2.1,1.1v6.9h-2.8v-10.6h2.7
		l0.1,1.3c0.4-0.9,1.4-1.5,2.4-1.5c0.3,0,0.6,0,0.9,0.1L788.2,9083.8z M793.4,9078.5v2.6h1.8v2.1h-1.8v5.3c0,0.3,0.1,0.6,0.2,0.8
		c0.2,0.2,0.5,0.3,0.9,0.3c0.3,0,0.6,0,0.8-0.1v2.1c-0.6,0.2-1.1,0.3-1.7,0.3c-2,0-3-1-3-3v-5.7h-1.5v-2.1h1.5v-2.6L793.4,9078.5z
		 M802.9,9091.7c-0.1-0.3-0.2-0.6-0.3-0.9c-0.7,0.8-1.7,1.2-2.7,1.1c-0.9,0-1.9-0.3-2.6-0.9c-0.7-0.6-1-1.4-1-2.3
		c-0.1-1,0.4-2,1.2-2.6c1.1-0.7,2.3-1,3.6-0.9h1.3v-0.6c0-0.4-0.1-0.8-0.4-1.2c-0.3-0.3-0.7-0.5-1.2-0.4c-0.4,0-0.8,0.1-1.1,0.3
		c-0.3,0.2-0.4,0.6-0.4,0.9h-2.8c0-0.6,0.2-1.2,0.6-1.7c0.4-0.5,1-1,1.6-1.2c0.7-0.3,1.5-0.5,2.3-0.4c1.1-0.1,2.2,0.3,3.1,1
		c0.8,0.7,1.2,1.7,1.1,2.8v4.6c0,0.8,0.1,1.6,0.4,2.3v0.2H802.9z M800.6,9089.7c0.4,0,0.8-0.1,1.2-0.3c0.3-0.2,0.6-0.4,0.8-0.7v-1.8
		h-1.1c-1.4,0-2.2,0.5-2.3,1.5l0,0.2c0,0.3,0.1,0.6,0.4,0.9C799.9,9089.6,800.2,9089.7,800.6,9089.7z M810.1,9081.1l0.1,1.2
		c0.7-0.9,1.9-1.5,3-1.4c0.9-0.1,1.9,0.3,2.5,1c0.6,0.9,0.9,1.9,0.8,2.9v6.8h-2.8v-6.8c0-0.5-0.1-0.9-0.4-1.3
		c-0.4-0.3-0.8-0.5-1.3-0.4c-0.7,0-1.4,0.4-1.8,1v7.4h-2.8v-10.6L810.1,9081.1z M822.1,9078.5v2.6h1.8v2.1h-1.8v5.3
		c0,0.3,0.1,0.6,0.2,0.8c0.2,0.2,0.5,0.3,0.9,0.3c0.3,0,0.6,0,0.8-0.1v2.1c-0.6,0.2-1.1,0.3-1.7,0.3c-2,0-3-1-3-3v-5.7h-1.5v-2.1
		h1.5v-2.6L822.1,9078.5z M830.3,9091.9c-1.4,0.1-2.8-0.5-3.8-1.4c-1-1-1.5-2.4-1.5-3.8v-0.3c0-1,0.2-2,0.6-2.8
		c0.4-0.8,1-1.5,1.7-1.9c0.8-0.5,1.7-0.7,2.6-0.7c1.3-0.1,2.5,0.4,3.4,1.4c0.9,1.1,1.3,2.5,1.2,3.9v1.2H828c0.1,0.6,0.4,1.2,0.8,1.7
		c0.5,0.4,1.1,0.6,1.7,0.6c1,0,1.9-0.4,2.5-1.2l1.4,1.6c-0.4,0.6-1,1.1-1.7,1.4C832,9091.7,831.2,9091.9,830.3,9091.9z M830,9083.2
		c-0.5,0-1,0.2-1.4,0.6c-0.4,0.5-0.6,1-0.7,1.6h3.9v-0.2c0-0.5-0.2-1.1-0.5-1.5C831,9083.4,830.5,9083.2,830,9083.2L830,9083.2z"/>
</g>
</svg>
