<svg xmlns="http://www.w3.org/2000/svg" width="295" height="305" viewBox="0 0 295 305">
  <g id="Grupo_131792" data-name="Grupo 131792" transform="translate(-495 -6588.701)">
    <path id="Trazado_191309" data-name="Trazado 191309" d="M0,0H295V305H0Z" transform="translate(495 6588.701)" fill="#b9ddfc"/>
    <path id="Trazado_191310" data-name="Trazado 191310" d="M0,0H295V77H0Z" transform="translate(495 6816.701)" fill="#084a93"/>
    <path id="Trazado_191312" data-name="Trazado 191312" d="M20.237,21V5.359h5.038A7.411,7.411,0,0,1,29,6.3a6.607,6.607,0,0,1,2.583,2.653,8.011,8.011,0,0,1,.94,3.84v.72a8.057,8.057,0,0,1-.908,3.851,6.635,6.635,0,0,1-2.557,2.664A7.248,7.248,0,0,1,25.382,21ZM24.007,8.271V18.1h1.311a2.933,2.933,0,0,0,2.492-1.155,5.659,5.659,0,0,0,.87-3.432v-.677a5.613,5.613,0,0,0-.87-3.416,2.984,2.984,0,0,0-2.535-1.149ZM38.112,21H34.481V9.377h3.631ZM34.266,6.369a1.63,1.63,0,0,1,.559-1.275,2.364,2.364,0,0,1,2.9,0,1.63,1.63,0,0,1,.559,1.275,1.63,1.63,0,0,1-.559,1.275,2.364,2.364,0,0,1-2.9,0A1.63,1.63,0,0,1,34.266,6.369Zm12.16,11.365a.836.836,0,0,0-.483-.741,7.353,7.353,0,0,0-1.837-.58,8.376,8.376,0,0,1-2.234-.79,3.743,3.743,0,0,1-1.343-1.187,2.835,2.835,0,0,1-.462-1.6A3.212,3.212,0,0,1,41.388,10.2a5.443,5.443,0,0,1,3.459-1.037,6.03,6.03,0,0,1,3.7,1.042,3.258,3.258,0,0,1,1.4,2.739H46.308q0-1.4-1.472-1.4a1.459,1.459,0,0,0-.956.317.981.981,0,0,0-.387.79.9.9,0,0,0,.473.784,4.466,4.466,0,0,0,1.509.494,13.042,13.042,0,0,1,1.821.462q2.621.9,2.621,3.233A3.044,3.044,0,0,1,48.5,20.216a6.2,6.2,0,0,1-3.658,1,6.322,6.322,0,0,1-2.664-.537,4.455,4.455,0,0,1-1.826-1.461,3.308,3.308,0,0,1-.655-1.944h3.384a1.4,1.4,0,0,0,.537,1.176,2.209,2.209,0,0,0,1.321.371,1.738,1.738,0,0,0,1.112-.3A.962.962,0,0,0,46.426,17.734Zm10.807,3.48a5.975,5.975,0,0,1-4.329-1.6,5.509,5.509,0,0,1-1.654-4.152v-.3a7.138,7.138,0,0,1,.661-3.147,4.834,4.834,0,0,1,1.928-2.111,5.821,5.821,0,0,1,3.008-.747,5.031,5.031,0,0,1,3.867,1.52,5.973,5.973,0,0,1,1.418,4.238v1.407h-7.2a2.609,2.609,0,0,0,.849,1.536,2.525,2.525,0,0,0,1.7.559,3.254,3.254,0,0,0,2.686-1.2l1.654,1.955A4.624,4.624,0,0,1,59.9,20.662,6.48,6.48,0,0,1,57.233,21.215Zm-.408-9.26q-1.59,0-1.891,2.105h3.652v-.279a1.793,1.793,0,0,0-.44-1.348A1.753,1.753,0,0,0,56.825,11.955ZM66.912,9.377l.118,1.364a3.942,3.942,0,0,1,3.319-1.579,3.316,3.316,0,0,1,2.712,1.085,5.165,5.165,0,0,1,.929,3.266V21H70.36V13.663a1.961,1.961,0,0,0-.354-1.294,1.64,1.64,0,0,0-1.289-.414,1.726,1.726,0,0,0-1.579.838V21h-3.62V9.377Zm6-4.791A3.132,3.132,0,0,1,72.2,6.665a2.216,2.216,0,0,1-1.767.854,3.486,3.486,0,0,1-1.579-.451,3.294,3.294,0,0,0-1.407-.451.807.807,0,0,0-.585.236.982.982,0,0,0-.242.73l-2.009-.107a3.149,3.149,0,0,1,.714-2.062,2.191,2.191,0,0,1,1.756-.87,3.626,3.626,0,0,1,1.407.4,8.642,8.642,0,0,0,1.1.451,2.127,2.127,0,0,0,.489.054.82.82,0,0,0,.591-.239.986.986,0,0,0,.247-.739ZM82.542,21a4.087,4.087,0,0,1-.344-1.042A3.366,3.366,0,0,1,79.4,21.215a4.124,4.124,0,0,1-2.793-.994,3.163,3.163,0,0,1-1.149-2.5,3.251,3.251,0,0,1,1.4-2.857,7.114,7.114,0,0,1,4.061-.967h1.117v-.615q0-1.608-1.386-1.608a1.133,1.133,0,0,0-1.289,1.274h-3.62a3.245,3.245,0,0,1,1.434-2.736,6.027,6.027,0,0,1,3.658-1.051,5.284,5.284,0,0,1,3.513,1.085,3.772,3.772,0,0,1,1.321,2.976v5.146a5.269,5.269,0,0,0,.494,2.449V21Zm-2.267-2.363a2.019,2.019,0,0,0,1.123-.29,1.818,1.818,0,0,0,.639-.655V15.833H80.984q-1.891,0-1.891,1.7a1.036,1.036,0,0,0,.333.8A1.205,1.205,0,0,0,80.275,18.637ZM94.7,12.653l-1.192-.086a2.142,2.142,0,0,0-2.191,1.074V21H87.7V9.377h3.395l.118,1.493a2.8,2.8,0,0,1,2.546-1.708,3.53,3.53,0,0,1,1.01.129Zm12.407,8.562a5.975,5.975,0,0,1-4.329-1.6,5.509,5.509,0,0,1-1.654-4.152v-.3a7.138,7.138,0,0,1,.661-3.147,4.834,4.834,0,0,1,1.928-2.111,5.821,5.821,0,0,1,3.008-.747,5.031,5.031,0,0,1,3.867,1.52,5.973,5.973,0,0,1,1.418,4.238v1.407h-7.2a2.609,2.609,0,0,0,.849,1.536,2.525,2.525,0,0,0,1.7.559,3.254,3.254,0,0,0,2.686-1.2l1.654,1.955a4.624,4.624,0,0,1-1.917,1.488A6.48,6.48,0,0,1,107.109,21.215Zm-.408-9.26q-1.59,0-1.891,2.105h3.652v-.279a1.793,1.793,0,0,0-.44-1.348A1.753,1.753,0,0,0,106.7,11.955ZM117.282,21h-3.631V4.5h3.631Zm14.255,0a4.088,4.088,0,0,1-.344-1.042,3.366,3.366,0,0,1-2.793,1.257,4.124,4.124,0,0,1-2.793-.994,3.163,3.163,0,0,1-1.149-2.5,3.251,3.251,0,0,1,1.4-2.857,7.114,7.114,0,0,1,4.061-.967h1.117v-.615q0-1.608-1.386-1.608a1.133,1.133,0,0,0-1.289,1.274h-3.62a3.245,3.245,0,0,1,1.434-2.736,6.027,6.027,0,0,1,3.658-1.051,5.284,5.284,0,0,1,3.513,1.085,3.772,3.772,0,0,1,1.321,2.976v5.146a5.269,5.269,0,0,0,.494,2.449V21Zm-2.267-2.363a2.019,2.019,0,0,0,1.123-.29,1.818,1.818,0,0,0,.639-.655V15.833h-1.053q-1.891,0-1.891,1.7a1.036,1.036,0,0,0,.333.8A1.205,1.205,0,0,0,129.27,18.637ZM140.485,21h-3.631V4.5h3.631Zm1.8-5.9a7.848,7.848,0,0,1,.58-3.115A4.67,4.67,0,0,1,144.535,9.9a4.389,4.389,0,0,1,2.524-.736,3.49,3.49,0,0,1,2.836,1.225l.129-1.01h3.287V20.56a4.9,4.9,0,0,1-.714,2.669,4.584,4.584,0,0,1-2.068,1.74,7.6,7.6,0,0,1-3.137.607,6.557,6.557,0,0,1-2.476-.483,4.47,4.47,0,0,1-1.832-1.257l1.515-2.127a3.319,3.319,0,0,0,2.664,1.192,2.156,2.156,0,0,0,2.406-2.471v-.365a3.4,3.4,0,0,1-2.632,1.149,4.2,4.2,0,0,1-3.437-1.627,6.743,6.743,0,0,1-1.311-4.356Zm3.631.226a4.135,4.135,0,0,0,.537,2.261,1.7,1.7,0,0,0,1.5.833,1.923,1.923,0,0,0,1.708-.784V12.75a1.875,1.875,0,0,0-1.687-.795,1.706,1.706,0,0,0-1.515.865A4.715,4.715,0,0,0,145.92,15.328Zm8.991-.247a6.86,6.86,0,0,1,.677-3.1,4.84,4.84,0,0,1,1.944-2.089,5.856,5.856,0,0,1,2.976-.73,5.344,5.344,0,0,1,4.114,1.617,6.2,6.2,0,0,1,1.5,4.4v.129a6.019,6.019,0,0,1-1.509,4.313,5.359,5.359,0,0,1-4.087,1.6,5.42,5.42,0,0,1-3.985-1.488,5.819,5.819,0,0,1-1.622-4.034Zm3.62.226a4.325,4.325,0,0,0,.5,2.363,1.682,1.682,0,0,0,1.493.752q1.934,0,1.977-2.976v-.365q0-3.126-2-3.126-1.815,0-1.966,2.7Zm16.221-2.653-1.192-.086a2.142,2.142,0,0,0-2.191,1.074V21h-3.62V9.377h3.395l.118,1.493a2.8,2.8,0,0,1,2.546-1.708,3.53,3.53,0,0,1,1.01.129ZM179.876,21h-3.631V9.377h3.631ZM176.031,6.369a1.63,1.63,0,0,1,.559-1.275,2.364,2.364,0,0,1,2.9,0,1.63,1.63,0,0,1,.559,1.275,1.63,1.63,0,0,1-.559,1.275,2.364,2.364,0,0,1-2.9,0A1.63,1.63,0,0,1,176.031,6.369Zm10.291.118v2.89h1.912v2.514h-1.912v5.317a1.358,1.358,0,0,0,.236.913,1.268,1.268,0,0,0,.935.258,5.311,5.311,0,0,0,.9-.064V20.9a6.681,6.681,0,0,1-2.041.312,3.792,3.792,0,0,1-2.761-.881,3.61,3.61,0,0,1-.892-2.675V11.891h-1.482V9.377H182.7V6.487Zm6.757,2.89.118,1.364a4,4,0,0,1,3.319-1.579,2.942,2.942,0,0,1,2.976,1.751,3.868,3.868,0,0,1,3.416-1.751q3.534,0,3.631,4.275V21h-3.631V13.663a2.216,2.216,0,0,0-.3-1.3,1.28,1.28,0,0,0-1.1-.408,1.715,1.715,0,0,0-1.6.956l.011.15V21h-3.631V13.685a2.329,2.329,0,0,0-.29-1.321,1.277,1.277,0,0,0-1.106-.408,1.736,1.736,0,0,0-1.59.956V21h-3.62V9.377Zm15.071,5.7a6.86,6.86,0,0,1,.677-3.1,4.84,4.84,0,0,1,1.944-2.089,5.856,5.856,0,0,1,2.976-.73,5.344,5.344,0,0,1,4.114,1.617,6.2,6.2,0,0,1,1.5,4.4v.129a6.019,6.019,0,0,1-1.509,4.313,5.359,5.359,0,0,1-4.087,1.6,5.42,5.42,0,0,1-3.985-1.488,5.819,5.819,0,0,1-1.622-4.034Zm3.62.226a4.325,4.325,0,0,0,.5,2.363,1.682,1.682,0,0,0,1.493.752q1.934,0,1.977-2.976v-.365q0-3.126-2-3.126-1.815,0-1.966,2.7Z" transform="translate(523 6841.701)" fill="#fff"/>
    <g id="Grupo_129379" data-name="Grupo 129379" transform="translate(0 313.701)">
      <rect id="Rectángulo_293427" data-name="Rectángulo 293427" width="120" height="120" transform="translate(583 6329)" fill="none"/>
      <g id="Grupo_129326" data-name="Grupo 129326" transform="translate(1195.007 5548.774)">
        <path id="Trazado_189945" data-name="Trazado 189945" d="M-561.37,780.228q20.589,0,41.181,0c6.228,0,9.587,3.383,9.591,9.66.01,17.464-.048,34.928.038,52.39.023,4.75,1.079,9.487-.007,14.254-.4,1.737.347,3.26,1.283,4.772,5.08,8.208,10.135,16.43,15.08,24.719a8.747,8.747,0,0,1-5.814,13.418c-3.546.721-7.049-.912-9.236-4.452q-6.2-10.041-12.3-20.147a2.6,2.6,0,0,0-2.4-1.618c-1.622-.033-2.415.3-2.181,2.106.271,2.091-.794,3.194-2.856,3.415a10.131,10.131,0,0,0-1.185.274c-2.52.585-2.967,1.7-1.563,3.908,2.193,3.442,2.194,3.443-.678,6.315-1.78,1.783-3.635,3.5-5.319,5.363-1.554,1.723-2.991,1.764-4.866.462-3.26-2.264-4.18-1.891-4.867,2.043-.4,2.306-1.5,3.179-3.784,3.083a76.346,76.346,0,0,0-8.281.013c-2.542.164-3.706-.88-4.119-3.323-.606-3.582-1.65-4.045-4.587-1.927-2.055,1.482-3.583,1.326-5.256-.534-1.845-2.05-3.822-3.992-5.857-5.856-1.7-1.557-1.845-3.037-.476-4.883.593-.8,1.546-1.529,1.386-2.723-.244-1.818-1.786-1.972-3.1-2.1-2.517-.251-3.683-1.5-3.412-4,.145-1.342-.47-1.61-1.682-1.6-5.36.052-10.721.036-16.082.018-5.956-.017-9.417-3.38-9.425-9.346q-.05-37.159,0-74.321c.008-6.111,3.411-9.379,9.587-9.382Q-581.961,780.219-561.37,780.228Zm22.557,93.143c-1.76-.421-2.546.284-3.067,2.041a12.967,12.967,0,0,1-4.655,6.682c-8.176,6.247-19.275,2.829-22.785-7-.223-.624,0-1.7-1.009-1.722-3.232-.07-6.466-.026-10.139-.026a3.7,3.7,0,0,0,2.624,1.386c3.37.753,5.715,6.167,3.728,9.034-1.076,1.551-.967,2.571.444,3.675a10.123,10.123,0,0,1,1.721,1.715c.984,1.254,1.953,1.462,3.23.359.852-.736,1.918-1.53,3.086-.981,1.964.925,4.2,1.3,5.87,2.83.677,3.951.677,3.951,4.5,3.95a4.2,4.2,0,0,1,.727.006c1.873.328,2.717-.42,3.064-2.333.568-3.139,6.072-5.624,8.643-3.8,1.942,1.378,3.094.979,4.346-.692a9.63,9.63,0,0,1,1.71-1.714,1.5,1.5,0,0,0,.215-2.469c-1.583-1.767-1.221-3.451-.421-5.559.968-2.55,2.27-4.16,5.051-4.381.353-.029.833-.118.708-.9A47.771,47.771,0,0,0-538.813,873.371Zm12.2-32.714c-.67-1.189-1.362-2.367-2-3.573-1.049-1.97-.429-3.13,1.75-3.245,1.051-.053,2.108.007,3.162.015a22.671,22.671,0,0,1,8.288,3.936V811.014c0-6.192,0-6.192-6.357-5.773a3.215,3.215,0,0,0-.481-.071q-41.641-.01-83.281-.06c-2.122,0-1.857,1.155-1.856,2.465q.013,25.205.011,50.407c0,1.375.1,2.747.152,4.121-.519,4.986.688,6.352,5.617,6.352h75.777c-.743-1.68-.735-1.772-1.676-1.85-6.621-.545-11.062-4.15-14.013-9.883-1.544-3.839-1.389-7.77-.642-11.734l-.033.037c.82-.518.8-1.509,1.243-2.241.546-.893.92-1.984,2.188-2,1.147-.016,1.595.936,2.111,1.763,1.238,1.983,2.493,3.955,3.741,5.93.34.631.636,1.292,1.027,1.89.925,1.413,5.569,1.58,6.654.262,2.389-2.9,2.47-3.954.486-7.186C-525.33,842.493-525.986,841.585-526.609,840.657Zm-34.867-40.425c14.538,0,29.077-.031,43.615.04,1.906.009,2.594-.5,2.483-2.463-.156-2.753-.017-5.521-.046-8.282-.031-2.965-1.377-4.391-4.277-4.393q-41.787-.026-83.575,0c-2.734,0-3.737,1.085-3.767,3.906-.03,2.842.134,5.7-.053,8.525-.144,2.184.6,2.73,2.737,2.716C-590.066,800.188-575.77,800.233-561.476,800.232Zm22.921,46.171c-1.786,9.047,3.467,16.3,11.672,16.614a4.131,4.131,0,0,1,3.8,2.366c5.481,9.1,11.042,18.149,16.555,27.229.911,1.5,1.929,2.836,3.772,3.176a4.959,4.959,0,0,0,5.376-1.973,5.186,5.186,0,0,0-.013-6.145c-5.294-8.644-10.506-17.337-15.869-25.936-1.521-2.442-2.247-4.388-.983-7.5,2.9-7.15-2.348-15.715-9.6-16.284,1.4,2.311,2.744,4.507,4.055,6.723,1.35,2.284-2.395,9.873-5.048,10.154-2.1.223-4.212.249-6.311.442a2.83,2.83,0,0,1-2.967-1.62C-535.453,851.356-536.882,849.12-538.555,846.4Zm-16.824,26.876c-2.592,0-5.185.054-7.775-.021-1.436-.041-1.706.361-1.046,1.639a9.312,9.312,0,0,0,8.5,5.509,9.272,9.272,0,0,0,8.7-5.183c.708-1.283.815-2.055-1.094-1.97C-550.516,873.362-552.95,873.279-555.379,873.279Z" transform="translate(0 0)" fill-rule="evenodd"/>
        <path id="Trazado_189946" data-name="Trazado 189946" d="M-523.47,835.059c-1.054-.009-2.111-.069-3.162-.015-2.18.114-2.8,1.275-1.75,3.245.642,1.206,1.334,2.384,2,3.573a17.556,17.556,0,0,1-1.388,2.225c-1.6,1.894-2.417,4.49-4.916,5.6-1.248-1.975-2.5-3.947-3.741-5.93-.516-.827-.964-1.779-2.111-1.763-1.268.017-1.642,1.108-2.188,2-.447.732-.423,1.723-1.245,2.242-.493-2.621-.073-5.267-.2-7.9-.066-1.335-.066-2.45,1.731-2.922,1.487-.388,1.7-2.608.367-2.965-2.551-.682-2.084-2.46-2.1-4.178-.017-1.865.027-3.732-.036-5.6a4.375,4.375,0,0,0-3.74-4.443,15.811,15.811,0,0,0-4.844-.146,1.645,1.645,0,0,0-1.608,1.8,1.665,1.665,0,0,0,1.659,1.757,21.083,21.083,0,0,0,2.915.067c1.458-.059,2.028.572,1.978,2.035-.077,2.269.072,4.548-.051,6.812-.073,1.35,1.279,2.516.738,3.671-1.072,2.291-.639,4.629-.683,6.944-.082,4.295-.023,4.307-4.356,4.733-1.155.114-2.164.464-2.205,1.778-.046,1.439.956,1.828,2.245,1.974,3.416.388,6.277-.42,8.229-3.458-.747,3.964-.9,7.895.642,11.734a7.756,7.756,0,0,0-2.917,1.157,37.768,37.768,0,0,1-15.816,4.181c-15.655.186-31.314.051-46.972.042-.052-1.374-.151-2.746-.152-4.121q-.014-25.2-.011-50.407c0-1.31-.266-2.469,1.856-2.465q41.64.109,83.281.06a3.206,3.206,0,0,1,.481.071c.01,3.481-.022,6.961.037,10.44C-521.4,823.031-521.4,829.155-523.47,835.059Zm-67.525-17.029c-4.954,0-6.481,1.553-6.487,6.594,0,1.623-.031,3.246.01,4.868.031,1.288-.042,2.24-1.663,2.722s-1.806,2.7-.3,3.076c2.218.558,1.959,1.98,1.951,3.5-.007,1.3,0,2.6,0,3.894,0,5.713,3.067,8.177,8.593,6.908a1.79,1.79,0,0,0,1.645-1.8,1.689,1.689,0,0,0-1.612-1.808,14.5,14.5,0,0,0-2.913-.07c-1.46.093-2.057-.491-2-1.976.077-2.187-.065-4.385.047-6.57.072-1.427-1.255-2.728-.742-3.933.983-2.306.661-4.63.7-6.952.064-4.351.017-4.359,4.328-4.777,1.138-.11,2.153-.391,2.173-1.771.022-1.489-.974-1.9-2.263-1.906Q-590.264,818.032-590.995,818.03Zm14.159,31.556c1.152-.065,1.651-.9,2.1-1.787q6.547-13.148,13.1-26.295c.63-1.262,1.08-2.526-.6-3.256-1.575-.687-2.136.578-2.688,1.688q-4.165,8.368-8.324,16.741c-1.622,3.26-3.277,6.507-4.857,9.788C-578.9,848.1-578.259,849.536-576.836,849.586Zm17.257-7.194a3.827,3.827,0,0,0,.943-.386c3.251-2.287,6.528-4.539,9.7-6.929,1.368-1.029,1.074-2.29-.258-3.2-3.015-2.056-6.076-4.045-9.115-6.066-1.083-.72-2.184-.914-2.947.329-.682,1.11-.111,1.988.9,2.649,1.831,1.2,3.585,2.535,5.486,3.609,1.8,1.016,1.393,1.661-.033,2.591-1.971,1.283-3.86,2.689-5.77,4.063a1.768,1.768,0,0,0-.743,2.133A1.765,1.765,0,0,0-559.579,842.392Zm-26.956-8.747c2.616-1.752,4.9-3.269,7.161-4.8,1.019-.69,1.806-1.542.908-2.8-.865-1.212-1.938-.86-2.975-.17-2.893,1.928-5.8,3.827-8.673,5.789-1.983,1.357-1.981,2.442.006,3.891,2.81,2.047,5.67,4.021,8.491,6.055,1.081.779,2.185,1.331,3.146-.012,1-1.393-.05-2.217-1.08-2.956C-581.773,837.044-584,835.455-586.535,833.645Z" transform="translate(-0.231 -1.205)" fill="#fff1d1" fill-rule="evenodd"/>
        <path id="Trazado_189947" data-name="Trazado 189947" d="M-561.232,800.47c-14.294,0-28.59-.045-42.883.048-2.134.014-2.88-.531-2.736-2.716.188-2.83.024-5.683.053-8.525.03-2.82,1.033-3.9,3.767-3.906q41.787-.024,83.575,0c2.9,0,4.246,1.428,4.277,4.393.029,2.761-.111,5.529.046,8.282.112,1.96-.577,2.471-2.483,2.463C-532.154,800.438-546.693,800.469-561.232,800.47Zm14.877-10.627c-8.273,0-16.547.1-24.816-.059-2.6-.051-2.641,1.221-2.621,3.126.02,1.855-.059,3.166,2.591,3.146q24.571-.184,49.147-.01c2.293.012,2.744-.849,2.62-2.856-.111-1.807.305-3.468-2.593-3.406C-530.132,789.958-538.245,789.844-546.355,789.844Zm-56.518,3.369a3,3,0,0,0,2.965,2.736,2.949,2.949,0,0,0,3.031-3.084,2.9,2.9,0,0,0-2.934-2.948A3.115,3.115,0,0,0-602.872,793.213Zm8.468-.249a3.043,3.043,0,0,0,2.938,2.99,3.031,3.031,0,0,0,3.1-3.044,2.981,2.981,0,0,0-2.923-2.989A3.055,3.055,0,0,0-594.4,792.964Zm8.518-.055a2.956,2.956,0,0,0,3.067,3.036,2.829,2.829,0,0,0,2.861-2.985,2.835,2.835,0,0,0-2.813-3.035A2.953,2.953,0,0,0-585.887,792.909Z" transform="translate(-0.244 -0.237)" fill="#ffb30c" fill-rule="evenodd"/>
        <path id="Trazado_189948" data-name="Trazado 189948" d="M-535.008,849.2c1.673,2.717,3.1,4.953,4.435,7.243a2.831,2.831,0,0,0,2.967,1.62c2.1-.193,4.216-.219,6.311-.442,2.653-.281,6.4-7.871,5.048-10.154-1.311-2.217-2.658-4.412-4.055-6.723,7.256.568,12.5,9.134,9.6,16.283-1.264,3.116-.538,5.062.983,7.5,5.362,8.6,10.575,17.293,15.869,25.936a5.186,5.186,0,0,1,.013,6.145,4.959,4.959,0,0,1-5.376,1.973c-1.844-.341-2.861-1.677-3.772-3.176-5.513-9.079-11.075-18.13-16.555-27.229a4.13,4.13,0,0,0-3.8-2.366C-531.541,865.5-536.794,858.245-535.008,849.2Zm40.26,44.583c-.217-1.829-1.274-2.985-3.142-2.924A2.815,2.815,0,0,0-500.822,894a2.8,2.8,0,0,0,3.1,2.973C-495.875,896.922-494.835,895.744-494.748,893.78Z" transform="translate(-3.547 -2.795)" fill="#e0e6e6" fill-rule="evenodd"/>
        <path id="Trazado_189949" data-name="Trazado 189949" d="M-606.991,865.807c15.658.009,31.317.144,46.972-.042a37.768,37.768,0,0,0,15.816-4.181,7.753,7.753,0,0,1,2.917-1.157c2.951,5.733,7.392,9.339,14.013,9.883.94.077.933.17,1.676,1.849h-75.777C-606.3,872.16-607.51,870.793-606.991,865.807Z" transform="translate(-0.234 -3.704)" fill="#fff1d1" fill-rule="evenodd"/>
        <path id="Trazado_189950" data-name="Trazado 189950" d="M-558.231,895.873c-1.671-1.526-3.906-1.9-5.87-2.83-1.168-.549-2.234.244-3.086.981-1.276,1.1-2.245.9-3.23-.359a10.126,10.126,0,0,0-1.721-1.715c-1.412-1.1-1.52-2.124-.444-3.675,1.988-2.867-.358-8.281-3.727-9.034a3.7,3.7,0,0,1-2.624-1.386c3.673,0,6.908-.044,10.139.026,1.012.022.786,1.1,1.009,1.722,3.51,9.825,14.609,13.243,22.785,7a12.967,12.967,0,0,0,4.655-6.682c.521-1.757,1.307-2.462,3.067-2.041-3.1,7.585-9.159,12.074-16.21,15.558C-555.081,894.22-557.13,894.137-558.231,895.873Z" transform="translate(-1.534 -4.504)" fill="#0ddcf1" fill-rule="evenodd"/>
        <path id="Trazado_189951" data-name="Trazado 189951" d="M-519.418,835.058c2.069-5.9,2.072-12.029,1.968-18.173-.059-3.479-.028-6.959-.037-10.44,6.357-.42,6.357-.42,6.357,5.773v26.776A22.671,22.671,0,0,0-519.418,835.058Z" transform="translate(-4.283 -1.204)" fill="#fff1d1" fill-rule="evenodd"/>
        <path id="Trazado_189952" data-name="Trazado 189952" d="M-557.229,895.874c1.1-1.736,3.151-1.653,4.742-2.44,7.052-3.483,13.108-7.973,16.21-15.558a47.779,47.779,0,0,1,7.592.107c.125.779-.355.869-.708.9-2.781.221-4.083,1.831-5.051,4.381-.8,2.108-1.163,3.791.421,5.559a1.5,1.5,0,0,1-.215,2.469,9.63,9.63,0,0,0-1.71,1.714c-1.251,1.671-2.4,2.071-4.346.692-2.571-1.824-8.075.661-8.643,3.8-.346,1.913-1.19,2.661-3.064,2.333a4.207,4.207,0,0,0-.727-.006C-556.552,899.825-556.552,899.825-557.229,895.874Z" transform="translate(-2.537 -4.505)" fill="#0ddcf1" fill-rule="evenodd"/>
        <path id="Trazado_189953" data-name="Trazado 189953" d="M-553.074,877.782c2.429,0,4.863.083,7.288-.026,1.909-.085,1.8.687,1.094,1.97a9.272,9.272,0,0,1-8.7,5.183,9.312,9.312,0,0,1-8.5-5.509c-.66-1.277-.39-1.68,1.046-1.639C-558.259,877.837-555.666,877.782-553.074,877.782Z" transform="translate(-2.306 -4.504)" fill="#fbfbfb" fill-rule="evenodd"/>
        <path id="Trazado_189954" data-name="Trazado 189954" d="M-529.076,851.4c2.5-1.106,3.313-3.7,4.916-5.6a17.545,17.545,0,0,0,1.388-2.225c.623.928,1.279,1.836,1.864,2.786,1.984,3.232,1.9,4.287-.486,7.186-1.085,1.317-5.729,1.15-6.654-.262C-528.44,852.7-528.736,852.035-529.076,851.4Z" transform="translate(-3.837 -2.926)" fill="#fff1d1" fill-rule="evenodd"/>
        <path id="Trazado_189955" data-name="Trazado 189955" d="M-539.28,846.758c-1.951,3.038-4.813,3.846-8.229,3.458-1.29-.146-2.291-.535-2.245-1.974.041-1.313,1.05-1.664,2.205-1.778,4.333-.425,4.274-.438,4.356-4.733.044-2.315-.389-4.653.683-6.944.541-1.155-.811-2.322-.738-3.671.123-2.264-.026-4.543.051-6.812.05-1.463-.52-2.095-1.978-2.035a21.084,21.084,0,0,1-2.915-.067,1.665,1.665,0,0,1-1.659-1.757,1.645,1.645,0,0,1,1.608-1.8,15.813,15.813,0,0,1,4.844.146,4.375,4.375,0,0,1,3.74,4.443c.063,1.864.019,3.731.036,5.6.016,1.718-.451,3.5,2.1,4.178,1.337.358,1.12,2.577-.367,2.965-1.8.471-1.8,1.586-1.731,2.922.13,2.634-.29,5.279.2,7.9Z" transform="translate(-2.882 -1.769)" fill-rule="evenodd"/>
        <path id="Trazado_189956" data-name="Trazado 189956" d="M-590.671,818.6h1.46c1.29,0,2.285.417,2.263,1.906-.02,1.38-1.035,1.662-2.173,1.771-4.311.418-4.265.425-4.328,4.777-.035,2.323.287,4.646-.7,6.952-.513,1.2.815,2.506.742,3.933-.112,2.185.03,4.383-.047,6.57-.052,1.485.545,2.069,2,1.976a14.5,14.5,0,0,1,2.913.07,1.689,1.689,0,0,1,1.612,1.808,1.79,1.79,0,0,1-1.645,1.8c-5.526,1.27-8.591-1.194-8.593-6.908,0-1.3-.006-2.6,0-3.894.009-1.523.267-2.945-1.951-3.5-1.51-.381-1.34-2.591.3-3.076s1.7-1.435,1.664-2.722c-.041-1.622-.011-3.245-.01-4.868C-597.152,820.15-595.625,818.6-590.671,818.6Z" transform="translate(-0.555 -1.772)" fill-rule="evenodd"/>
        <path id="Trazado_189957" data-name="Trazado 189957" d="M-575.445,850.155c-1.423-.051-2.061-1.484-1.272-3.122,1.58-3.281,3.234-6.528,4.857-9.788q4.162-8.371,8.324-16.741c.552-1.11,1.113-2.375,2.688-1.688,1.678.731,1.229,1.994.6,3.256q-6.561,13.143-13.1,26.295C-573.8,849.259-574.294,850.089-575.445,850.155Z" transform="translate(-1.621 -1.773)" fill-rule="evenodd"/>
        <path id="Trazado_189958" data-name="Trazado 189958" d="M-557.371,843.308a1.765,1.765,0,0,1-1.837-1.207,1.768,1.768,0,0,1,.743-2.133c1.91-1.374,3.8-2.78,5.77-4.063,1.426-.929,1.831-1.575.033-2.591-1.9-1.074-3.655-2.409-5.486-3.609-1.007-.661-1.578-1.539-.9-2.649.763-1.243,1.865-1.049,2.947-.329,3.039,2.021,6.1,4.011,9.115,6.066,1.332.909,1.625,2.17.258,3.2-3.174,2.389-6.452,4.641-9.7,6.929A3.824,3.824,0,0,1-557.371,843.308Z" transform="translate(-2.439 -2.121)" fill-rule="evenodd"/>
        <path id="Trazado_189959" data-name="Trazado 189959" d="M-585.781,834.561c2.533,1.81,4.761,3.4,6.984,5,1.03.739,2.076,1.563,1.08,2.956-.961,1.343-2.065.792-3.146.012-2.82-2.034-5.681-4.008-8.491-6.055-1.987-1.449-1.989-2.533-.006-3.891,2.868-1.962,5.78-3.861,8.673-5.789,1.037-.691,2.11-1.042,2.975.17.9,1.257.111,2.11-.908,2.8C-580.886,831.293-583.165,832.809-585.781,834.561Z" transform="translate(-0.984 -2.121)" fill-rule="evenodd"/>
        <path id="Trazado_189960" data-name="Trazado 189960" d="M-544.753,790.058c8.11,0,16.223.115,24.329-.06,2.9-.062,2.482,1.6,2.593,3.406.124,2.007-.327,2.868-2.62,2.856q-24.573-.145-49.146.01c-2.651.02-2.572-1.291-2.591-3.146-.02-1.9.025-3.176,2.621-3.126C-561.3,790.16-553.026,790.058-544.753,790.058Z" transform="translate(-1.846 -0.451)" fill="#0d0902" fill-rule="evenodd"/>
        <path id="Trazado_189961" data-name="Trazado 189961" d="M-602.679,793.433a3.115,3.115,0,0,1,3.063-3.3,2.9,2.9,0,0,1,2.934,2.948,2.949,2.949,0,0,1-3.031,3.084A3,3,0,0,1-602.679,793.433Z" transform="translate(-0.438 -0.457)" fill-rule="evenodd"/>
        <path id="Trazado_189962" data-name="Trazado 189962" d="M-593.8,793.184a3.054,3.054,0,0,1,3.116-3.043,2.981,2.981,0,0,1,2.923,2.989,3.031,3.031,0,0,1-3.1,3.044A3.041,3.041,0,0,1-593.8,793.184Z" transform="translate(-0.848 -0.458)" fill-rule="evenodd"/>
        <path id="Trazado_189963" data-name="Trazado 189963" d="M-584.871,793.129a2.953,2.953,0,0,1,3.116-2.984,2.835,2.835,0,0,1,2.813,3.035,2.829,2.829,0,0,1-2.861,2.985A2.956,2.956,0,0,1-584.871,793.129Z" transform="translate(-1.26 -0.457)" fill-rule="evenodd"/>
        <path id="Trazado_189964" data-name="Trazado 189964" d="M-493.076,896.206c-.087,1.964-1.127,3.142-2.974,3.194a2.8,2.8,0,0,1-3.1-2.973,2.815,2.815,0,0,1,2.932-3.146C-494.35,893.221-493.294,894.377-493.076,896.206Z" transform="translate(-5.219 -5.221)" fill="#ffb30c" fill-rule="evenodd"/>
      </g>
    </g>
  </g>
</svg>
