<svg xmlns="http://www.w3.org/2000/svg" width="295" height="305" viewBox="0 0 295 305">
  <g id="Grupo_131793" data-name="Grupo 131793" transform="translate(-812 -6588.701)">
    <path id="Trazado_191313" data-name="Trazado 191313" d="M0,0H295V305H0Z" transform="translate(812 6588.701)" fill="#b9ddfc"/>
    <path id="Trazado_191314" data-name="Trazado 191314" d="M0,0H295V77H0Z" transform="translate(812 6816.701)" fill="#084a93"/>
    <path id="Trazado_191315" data-name="Trazado 191315" d="M24.2,14.361h-5.93V18.1h7V21H14.5V5.359H25.3V8.271H18.271v3.3H24.2Zm7.154-1.783,1.687-3.2H36.8L33.74,15.038,36.952,21H33.17l-1.826-3.437L29.55,21h-3.8l3.223-5.962L25.919,9.377h3.8Zm17.4,2.7A7.009,7.009,0,0,1,47.538,19.6a3.909,3.909,0,0,1-3.292,1.617,3.351,3.351,0,0,1-2.632-1.171v5.425h-3.62V9.377h3.384l.107,1.074a3.351,3.351,0,0,1,2.739-1.289,3.941,3.941,0,0,1,3.341,1.584A7.1,7.1,0,0,1,48.757,15.1Zm-3.62-.226q0-3.094-1.8-3.094a1.7,1.7,0,0,0-1.719.924v4.576a1.759,1.759,0,0,0,1.74.967q1.729,0,1.783-2.986Zm12.246-2.4-1.192-.086A2.142,2.142,0,0,0,54,13.642V21h-3.62V9.377h3.395l.118,1.493a2.8,2.8,0,0,1,2.546-1.708,3.53,3.53,0,0,1,1.01.129Zm6.725,8.562a5.975,5.975,0,0,1-4.329-1.6,5.509,5.509,0,0,1-1.654-4.152v-.3a7.138,7.138,0,0,1,.661-3.147,4.834,4.834,0,0,1,1.928-2.111,5.821,5.821,0,0,1,3.008-.747,5.031,5.031,0,0,1,3.867,1.52,5.973,5.973,0,0,1,1.418,4.238v1.407h-7.2a2.609,2.609,0,0,0,.849,1.536,2.525,2.525,0,0,0,1.7.559,3.254,3.254,0,0,0,2.686-1.2l1.654,1.955a4.624,4.624,0,0,1-1.917,1.488A6.48,6.48,0,0,1,64.108,21.215Zm-.408-9.26q-1.59,0-1.891,2.105h3.652v-.279a1.793,1.793,0,0,0-.44-1.348A1.753,1.753,0,0,0,63.7,11.955Zm12.848,5.779a.836.836,0,0,0-.483-.741,7.353,7.353,0,0,0-1.837-.58,8.376,8.376,0,0,1-2.234-.79,3.743,3.743,0,0,1-1.343-1.187,2.834,2.834,0,0,1-.462-1.6A3.212,3.212,0,0,1,71.509,10.2a5.443,5.443,0,0,1,3.459-1.037,6.03,6.03,0,0,1,3.7,1.042,3.258,3.258,0,0,1,1.4,2.739H76.429q0-1.4-1.472-1.4a1.459,1.459,0,0,0-.956.317.981.981,0,0,0-.387.79.9.9,0,0,0,.473.784,4.466,4.466,0,0,0,1.509.494,13.043,13.043,0,0,1,1.821.462q2.621.9,2.621,3.233a3.044,3.044,0,0,1-1.413,2.589,6.2,6.2,0,0,1-3.658,1,6.322,6.322,0,0,1-2.664-.537,4.455,4.455,0,0,1-1.826-1.461,3.308,3.308,0,0,1-.655-1.944h3.384a1.4,1.4,0,0,0,.537,1.176,2.209,2.209,0,0,0,1.321.371,1.738,1.738,0,0,0,1.112-.3A.962.962,0,0,0,76.547,17.734ZM88.278,21a4.087,4.087,0,0,1-.344-1.042,3.366,3.366,0,0,1-2.793,1.257,4.124,4.124,0,0,1-2.793-.994,3.163,3.163,0,0,1-1.149-2.5,3.251,3.251,0,0,1,1.4-2.857,7.114,7.114,0,0,1,4.061-.967h1.117v-.615q0-1.608-1.386-1.608A1.133,1.133,0,0,0,85.1,12.95h-3.62a3.245,3.245,0,0,1,1.434-2.736A6.027,6.027,0,0,1,86.57,9.162a5.284,5.284,0,0,1,3.513,1.085A3.772,3.772,0,0,1,91.4,13.223v5.146a5.269,5.269,0,0,0,.494,2.449V21Zm-2.267-2.363a2.019,2.019,0,0,0,1.123-.29,1.818,1.818,0,0,0,.639-.655V15.833H86.72q-1.891,0-1.891,1.7a1.036,1.036,0,0,0,.333.8A1.205,1.205,0,0,0,86.011,18.637Zm14.427-5.983-1.192-.086a2.142,2.142,0,0,0-2.191,1.074V21h-3.62V9.377h3.395l.118,1.493a2.8,2.8,0,0,1,2.546-1.708,3.53,3.53,0,0,1,1.01.129Zm12.407,8.562a5.975,5.975,0,0,1-4.329-1.6,5.509,5.509,0,0,1-1.654-4.152v-.3a7.138,7.138,0,0,1,.661-3.147,4.834,4.834,0,0,1,1.928-2.111,5.821,5.821,0,0,1,3.008-.747,5.031,5.031,0,0,1,3.867,1.52,5.973,5.973,0,0,1,1.418,4.238v1.407h-7.2a2.609,2.609,0,0,0,.849,1.536,2.525,2.525,0,0,0,1.7.559,3.254,3.254,0,0,0,2.686-1.2l1.654,1.955a4.624,4.624,0,0,1-1.917,1.488A6.48,6.48,0,0,1,112.845,21.215Zm-.408-9.26q-1.59,0-1.891,2.105H114.2v-.279a1.793,1.793,0,0,0-.44-1.348A1.753,1.753,0,0,0,112.437,11.955ZM123.018,21h-3.631V4.5h3.631Zm14.255,0a4.088,4.088,0,0,1-.344-1.042,3.366,3.366,0,0,1-2.793,1.257,4.124,4.124,0,0,1-2.793-.994,3.163,3.163,0,0,1-1.149-2.5,3.251,3.251,0,0,1,1.4-2.857,7.114,7.114,0,0,1,4.061-.967h1.117v-.615q0-1.608-1.386-1.608a1.133,1.133,0,0,0-1.289,1.274h-3.62a3.245,3.245,0,0,1,1.434-2.736,6.027,6.027,0,0,1,3.658-1.051,5.284,5.284,0,0,1,3.513,1.085,3.772,3.772,0,0,1,1.321,2.976v5.146a5.269,5.269,0,0,0,.494,2.449V21Zm-2.267-2.363a2.019,2.019,0,0,0,1.123-.29,1.818,1.818,0,0,0,.639-.655V15.833h-1.053q-1.891,0-1.891,1.7a1.036,1.036,0,0,0,.333.8A1.205,1.205,0,0,0,135.006,18.637ZM146.221,21H142.59V4.5h3.631Zm1.8-5.9a7.848,7.848,0,0,1,.58-3.115A4.67,4.67,0,0,1,150.271,9.9a4.389,4.389,0,0,1,2.524-.736,3.49,3.49,0,0,1,2.836,1.225l.129-1.01h3.287V20.56a4.9,4.9,0,0,1-.714,2.669,4.584,4.584,0,0,1-2.068,1.74,7.6,7.6,0,0,1-3.137.607,6.557,6.557,0,0,1-2.476-.483,4.47,4.47,0,0,1-1.832-1.257l1.515-2.127A3.319,3.319,0,0,0,153,22.9a2.156,2.156,0,0,0,2.406-2.471v-.365a3.4,3.4,0,0,1-2.632,1.149,4.2,4.2,0,0,1-3.437-1.627,6.743,6.743,0,0,1-1.311-4.356Zm3.631.226a4.135,4.135,0,0,0,.537,2.261,1.7,1.7,0,0,0,1.5.833,1.923,1.923,0,0,0,1.708-.784V12.75a1.875,1.875,0,0,0-1.687-.795,1.706,1.706,0,0,0-1.515.865A4.715,4.715,0,0,0,151.657,15.328Zm8.991-.247a6.86,6.86,0,0,1,.677-3.1,4.84,4.84,0,0,1,1.944-2.089,5.856,5.856,0,0,1,2.976-.73,5.344,5.344,0,0,1,4.114,1.617,6.2,6.2,0,0,1,1.5,4.4v.129a6.019,6.019,0,0,1-1.509,4.313,5.359,5.359,0,0,1-4.087,1.6,5.42,5.42,0,0,1-3.985-1.488,5.819,5.819,0,0,1-1.622-4.034Zm3.62.226a4.325,4.325,0,0,0,.5,2.363,1.682,1.682,0,0,0,1.493.752q1.934,0,1.977-2.976v-.365q0-3.126-2-3.126-1.815,0-1.966,2.7Zm16.221-2.653-1.192-.086a2.142,2.142,0,0,0-2.191,1.074V21h-3.62V9.377h3.395L177,10.87a2.8,2.8,0,0,1,2.546-1.708,3.53,3.53,0,0,1,1.01.129ZM185.613,21h-3.631V9.377h3.631ZM181.767,6.369a1.63,1.63,0,0,1,.559-1.275,2.364,2.364,0,0,1,2.9,0,1.63,1.63,0,0,1,.559,1.275,1.63,1.63,0,0,1-.559,1.275,2.364,2.364,0,0,1-2.9,0A1.63,1.63,0,0,1,181.767,6.369Zm10.291.118v2.89h1.912v2.514h-1.912v5.317a1.358,1.358,0,0,0,.236.913,1.268,1.268,0,0,0,.935.258,5.311,5.311,0,0,0,.9-.064V20.9a6.681,6.681,0,0,1-2.041.312,3.792,3.792,0,0,1-2.761-.881,3.61,3.61,0,0,1-.892-2.675V11.891h-1.482V9.377h1.482V6.487Zm6.757,2.89.118,1.364a4,4,0,0,1,3.319-1.579,2.942,2.942,0,0,1,2.976,1.751,3.868,3.868,0,0,1,3.416-1.751q3.534,0,3.631,4.275V21h-3.631V13.663a2.216,2.216,0,0,0-.3-1.3,1.28,1.28,0,0,0-1.1-.408,1.715,1.715,0,0,0-1.6.956l.011.15V21h-3.631V13.685a2.329,2.329,0,0,0-.29-1.321,1.277,1.277,0,0,0-1.106-.408,1.736,1.736,0,0,0-1.59.956V21h-3.62V9.377Zm15.071,5.7a6.86,6.86,0,0,1,.677-3.1,4.84,4.84,0,0,1,1.944-2.089,5.856,5.856,0,0,1,2.976-.73,5.344,5.344,0,0,1,4.114,1.617,6.2,6.2,0,0,1,1.5,4.4v.129a6.019,6.019,0,0,1-1.509,4.313,5.359,5.359,0,0,1-4.087,1.6,5.42,5.42,0,0,1-3.985-1.488,5.819,5.819,0,0,1-1.622-4.034Zm3.62.226a4.325,4.325,0,0,0,.5,2.363,1.682,1.682,0,0,0,1.493.752q1.934,0,1.977-2.976v-.365q0-3.126-2-3.126-1.815,0-1.966,2.7Z" transform="translate(840 6841.701)" fill="#fff"/>
    <g id="Grupo_129378" data-name="Grupo 129378" transform="translate(0 313.701)">
      <rect id="Rectángulo_293539" data-name="Rectángulo 293539" width="120" height="120" transform="translate(900 6329)" fill="none"/>
      <g id="Grupo_129375" data-name="Grupo 129375" transform="translate(1545.147 5590.992)">
        <g id="Grupo_129374" data-name="Grupo 129374" transform="translate(-643.148 747.008)">
          <path id="Trazado_190032" data-name="Trazado 190032" d="M-559.2,748.525c.347-1.247,1.257-1.517,2.427-1.513,7.826.023,15.651-.032,23.476.035a5.51,5.51,0,0,1,5.757,5.881q.033,45.258,0,90.517a5.593,5.593,0,0,1-5.756,5.9c-.526.023-1.053.008-1.58.008h-100.9c-5.578,0-7.369-1.818-7.369-7.466q0-43.905,0-87.809c0-5.116,1.945-7.054,7.1-7.055q34.537,0,69.073,0c1.342,0,2.8-.256,3.349,1.507-.249,1.677-1.41,1.846-2.82,1.839-7.75-.034-15.5-.016-23.252-.016q-23.137,0-46.277,0c-3.257,0-3.763.518-3.778,3.816a45.048,45.048,0,0,1-.039,4.962c-.242,2.088.608,2.437,2.519,2.433q46.728-.082,93.455-.032c3.309,0,6.619-.044,9.928-.066,3.033.227,3.034.227,3.034-2.8,0-1.717.034-3.433-.009-5.15-.061-2.547-.795-3.18-3.472-3.1-7.358-.022-14.716-.06-22.073-.05C-557.8,750.367-558.987,750.234-559.2,748.525Zm-52.806,97.413c2.109.552,2.639-.283,2.627-2.389-.087-15.375-.04-30.748-.058-46.122,0-1.407-.022-2.746,1.67-3.245,1.744.458,1.674,1.817,1.675,3.219q.014,24.1.068,48.2c-.063.312.045.447.369.352q27.093.037,54.184.067c5.868,0,11.737-.052,17.606-.079,2.568-.137,2.982-.653,2.983-3.83q.006-37.277,0-74.553c0-2.849,0-2.849-2.992-2.625a5.888,5.888,0,0,0-.67-.077q-34.93-.007-69.862-.041c-1.43,0-1.742.421-1.729,1.772.065,6.911,0,13.822.054,20.733.01,1.377-.33,2.347-1.738,2.734-1.372-.483-1.635-1.524-1.627-2.859.042-6.622-.061-13.245.066-19.865.04-2.1-.491-2.981-2.634-2.4-8.424-.028-16.849.009-25.271-.135-1.986-.033-2.512.482-2.5,2.485.082,17.379.048,34.759.048,52.138,0,7.749-.012,15.5.009,23.248.006,2.528.658,3.32,2.9,3.326C-628.555,846.013-620.281,845.964-612.007,845.939Z" transform="translate(643.148 -747.008)" fill-rule="evenodd"/>
          <path id="Trazado_190033" data-name="Trazado 190033" d="M-559.057,748.591c.214,1.708,1.4,1.841,2.8,1.84,7.358-.01,14.716.028,22.073.05,1.05,3.646.354,7.365.447,11.05-3.309.022-6.619.066-9.928.066q-46.728,0-93.455.032c-1.911,0-2.761-.345-2.519-2.433a45.048,45.048,0,0,0,.039-4.962c.014-3.3.521-3.816,3.778-3.816q23.139-.006,46.277,0c7.751,0,15.5-.017,23.252.016,1.41.008,2.571-.162,2.82-1.839Z" transform="translate(643.004 -747.074)" fill="#0ddcf1" fill-rule="evenodd"/>
          <path id="Trazado_190034" data-name="Trazado 190034" d="M-604.5,846.373q-.039-24.1-.068-48.2c0-1.4.069-2.761-1.675-3.219q-.024-2.065-.05-4.127c1.407-.387,1.746-1.356,1.737-2.734-.051-6.911.012-13.822-.054-20.733-.012-1.352.3-1.776,1.729-1.772q34.93.073,69.862.041a5.888,5.888,0,0,1,.67.077q0,40.506.007,81.009c-5.868.027-11.737.081-17.606.079q-27.093-.016-54.184-.067Zm25.9-46.95c6.01,0,12.02-.012,18.029.008,1.352,0,2.79-.021,2.737-1.8-.048-1.614-1.44-1.642-2.7-1.641q-18.142.01-36.286,0c-1.324,0-2.812,0-2.74,1.809.065,1.6,1.434,1.63,2.7,1.627C-590.768,799.413-584.682,799.424-578.6,799.424Zm10.143,25.407q8.684,0,17.37,0c1.318,0,2.835.058,2.8-1.736-.03-1.61-1.433-1.6-2.7-1.6q-17.257.023-34.513,0c-1.27,0-2.668,0-2.691,1.611-.026,1.8,1.5,1.727,2.811,1.726Q-576.913,824.823-568.454,824.831Zm22.355-8.407q4.513,0,9.026,0c1.259,0,2.6-.05,2.64-1.708s-1.252-1.767-2.549-1.763q-9.139.026-18.277,0c-1.309,0-2.566.141-2.534,1.784.028,1.487,1.225,1.692,2.442,1.69C-552.266,816.419-549.183,816.424-546.1,816.424Zm-41.722-3.462c-3.149,0-6.3.014-9.445-.007-1.279-.01-2.327.352-2.3,1.8.026,1.339,1.094,1.658,2.235,1.66q9.444.013,18.887,0c1.225,0,2.37-.308,2.291-1.818-.077-1.48-1.229-1.654-2.452-1.645C-581.674,812.976-584.748,812.961-587.821,812.961Zm-.095,28.9c3.148,0,6.3-.012,9.444.006,1.26.008,2.329-.289,2.323-1.774-.006-1.371-1.059-1.683-2.2-1.685q-9.445-.019-18.888,0c-1.227,0-2.385.3-2.329,1.789.053,1.448,1.186,1.691,2.429,1.679C-594.062,841.844-590.989,841.862-587.916,841.862Zm9.464-69.573a1.8,1.8,0,0,0-1.363-1.674c-1.206-.262-1.769.531-2.156,1.5q-3.113,7.8-6.218,15.613c-.47,1.177-.866,2.452.68,3.022,1.526.564,2.053-.637,2.525-1.833,2-5.072,4.044-10.127,6.064-15.192C-578.729,773.244-578.6,772.737-578.452,772.288Zm-9.3,61.029c3.078,0,6.156-.017,9.233.008,1.245.011,2.362-.2,2.354-1.717-.007-1.391-1.076-1.619-2.222-1.618q-9.458.006-18.916,0c-1.154,0-2.232.24-2.251,1.6-.02,1.48,1.078,1.749,2.344,1.737C-594.053,833.3-590.9,833.317-587.748,833.317Zm-3.926-60.153a1.78,1.78,0,0,0-1.049-1.649,1.531,1.531,0,0,0-1.988.58c-1.582,2.542-3.111,5.117-4.656,7.683a1.565,1.565,0,0,0,.042,1.7c1.461,2.528,2.906,5.063,4.377,7.586a1.666,1.666,0,0,0,2.487.712A1.633,1.633,0,0,0-592,787.4a22.631,22.631,0,0,0-2.174-3.665c-1.824-2.206-1.563-4.153.1-6.315A13.819,13.819,0,0,0-591.674,773.164Zm24.221,7.371a9.362,9.362,0,0,0-.468-1.072q-2.063-3.475-4.155-6.932c-.561-.927-1.36-1.527-2.422-.938-1.161.642-1.077,1.66-.471,2.7,1.237,2.129,3.425,4.263,3.426,6.4s-2.178,4.289-3.406,6.43c-.589,1.024-.773,2.076.419,2.71,1.137.6,1.956-.007,2.554-1.069,1.284-2.282,2.632-4.528,3.93-6.8A11.985,11.985,0,0,0-567.453,780.536Zm-10.266,27.392c1.2,0,2.4.054,3.594-.015a1.625,1.625,0,0,0,1.716-1.694,1.589,1.589,0,0,0-1.668-1.736c-2.468-.075-4.941-.063-7.411,0a1.642,1.642,0,0,0-1.741,1.693,1.721,1.721,0,0,0,1.916,1.756C-580.116,807.958-578.917,807.934-577.72,807.928Zm10.8,8.461v.011c1.2,0,2.4.053,3.59-.017a1.6,1.6,0,0,0,1.734-1.668,1.561,1.561,0,0,0-1.656-1.724c-2.468-.057-4.939-.043-7.408-.013a1.641,1.641,0,0,0-1.762,1.66,1.623,1.623,0,0,0,1.688,1.732C-569.465,816.449-568.189,816.389-566.917,816.389Zm-27.31-8.462v.01c1.2,0,2.4.04,3.6-.011,1.1-.047,1.888-.552,1.878-1.775a1.6,1.6,0,0,0-1.742-1.671c-2.471-.058-4.946-.064-7.416.013a1.6,1.6,0,0,0-1.671,1.745,1.664,1.664,0,0,0,1.759,1.675C-596.627,807.975-595.425,807.927-594.227,807.927Zm27.121,25.382c1.276,0,2.553.021,3.828-.006a1.527,1.527,0,0,0,1.668-1.7,1.442,1.442,0,0,0-1.542-1.574c-2.552-.036-5.1-.032-7.656,0A1.512,1.512,0,0,0-572.4,831.6a1.572,1.572,0,0,0,1.686,1.7C-569.51,833.331-568.308,833.309-567.106,833.309Zm-28.561-8.485v-.01c.748,0,1.5.014,2.244,0a1.548,1.548,0,0,0,1.692-1.68,1.56,1.56,0,0,0-1.751-1.623c-1.421.009-2.843,0-4.265,0a1.6,1.6,0,0,0-1.813,1.578c-.056,1.2.736,1.714,1.871,1.737C-597.013,824.835-596.339,824.824-595.666,824.824Z" transform="translate(641.62 -747.779)" fill="#fff1d1" fill-rule="evenodd"/>
          <path id="Trazado_190035" data-name="Trazado 190035" d="M-611.861,846.708c-8.274.025-16.548.075-24.823.059-2.244-.006-2.9-.8-2.9-3.326-.021-7.749-.009-15.5-.009-23.248,0-17.379.034-34.759-.048-52.138-.01-2,.517-2.517,2.5-2.485,8.422.144,16.847.107,25.271.135Q-611.864,806.208-611.861,846.708ZM-628.152,799.4v.012c.974,0,1.951.048,2.922-.013a1.6,1.6,0,0,0,1.675-1.722,1.494,1.494,0,0,0-1.526-1.619c-2.018-.077-4.044-.077-6.062.018a1.488,1.488,0,0,0-1.463,1.676,1.567,1.567,0,0,0,1.534,1.629C-630.105,799.464-629.126,799.4-628.152,799.4Zm.253-28.859v.012c-1.05,0-2.1-.071-3.147.02a1.6,1.6,0,0,0-1.561,1.619,1.5,1.5,0,0,0,1.438,1.706c2.016.116,4.045.111,6.064.029a1.529,1.529,0,0,0,1.553-1.611,1.614,1.614,0,0,0-1.649-1.756C-626.094,770.473-627,770.536-627.9,770.536Zm-.195,45.845v.007c.974,0,1.954.075,2.92-.02a1.6,1.6,0,0,0,1.621-1.78A1.549,1.549,0,0,0-625.135,813c-1.946-.072-3.9-.062-5.844-.006a1.574,1.574,0,0,0-1.622,1.553,1.588,1.588,0,0,0,1.588,1.808A27.714,27.714,0,0,0-628.093,816.382Zm-.122,25.474v-.008c.974,0,1.952.041,2.923-.011a1.619,1.619,0,0,0,1.737-1.67,1.577,1.577,0,0,0-1.682-1.721c-1.87-.08-3.747-.077-5.619-.008a1.6,1.6,0,0,0-1.741,1.671c.015,1.2.78,1.712,1.909,1.742C-629.865,841.873-629.039,841.856-628.215,841.856Zm.024-33.954a26.69,26.69,0,0,0,3.146-.029,1.581,1.581,0,0,0,1.5-1.677,1.541,1.541,0,0,0-1.49-1.677,57.717,57.717,0,0,0-6.068,0,1.55,1.55,0,0,0-1.5,1.669,1.592,1.592,0,0,0,1.5,1.679A23.893,23.893,0,0,0-628.191,807.9Zm.223-17.043c.968,0,1.94.051,2.9-.013a1.492,1.492,0,0,0,1.5-1.616,1.444,1.444,0,0,0-1.487-1.611q-3.015-.079-6.034,0a1.463,1.463,0,0,0-1.51,1.6,1.5,1.5,0,0,0,1.5,1.624C-630.058,790.909-629.011,790.854-627.968,790.859Zm-.214-8.507c1.042,0,2.088.048,3.127-.013a1.455,1.455,0,0,0,1.489-1.609,1.486,1.486,0,0,0-1.493-1.626c-2.01-.065-4.026-.069-6.035,0a1.5,1.5,0,0,0-1.5,1.63,1.474,1.474,0,0,0,1.506,1.6C-630.122,782.4-629.151,782.352-628.182,782.352Zm.046,42.471v-.017c.969,0,1.938.031,2.905-.008a1.519,1.519,0,0,0,1.662-1.682,1.565,1.565,0,0,0-1.761-1.6c-1.789-.018-3.577-.012-5.366-.006-1.135,0-1.91.516-1.889,1.709.021,1.23.9,1.6,1.99,1.6C-629.775,824.827-628.955,824.824-628.136,824.824Zm.1,5.2v-.008c-.967,0-1.938-.035-2.9.01a1.525,1.525,0,0,0-1.645,1.7,1.507,1.507,0,0,0,1.573,1.556c1.936.051,3.875.049,5.811.008a1.527,1.527,0,0,0,1.635-1.715,1.471,1.471,0,0,0-1.565-1.541C-626.1,829.987-627.07,830.026-628.039,830.026Z" transform="translate(643.002 -747.778)" fill="#ffb30c" fill-rule="evenodd"/>
          <path id="Trazado_190036" data-name="Trazado 190036" d="M-529.141,846.715q0-40.5-.007-81.009c2.991-.223,2.992-.223,2.992,2.625q0,37.276,0,74.553C-526.159,846.062-526.573,846.578-529.141,846.715Z" transform="translate(638.422 -747.78)" fill="#fff1d1" fill-rule="evenodd"/>
          <path id="Trazado_190037" data-name="Trazado 190037" d="M-610.66,846.706q0-40.5-.007-81c2.143-.586,2.674.293,2.634,2.4-.127,6.62-.024,13.243-.066,19.865-.009,1.335.255,2.376,1.627,2.859q.026,2.062.051,4.127c-1.692.5-1.671,1.838-1.67,3.245.018,15.374-.029,30.747.058,46.122C-608.021,846.424-608.552,847.259-610.66,846.706Z" transform="translate(641.801 -747.776)" fill="#ffb30c" fill-rule="evenodd"/>
          <path id="Trazado_190038" data-name="Trazado 190038" d="M-529.179,761.613c-.093-3.686.6-7.4-.447-11.05,2.677-.078,3.411.556,3.472,3.1.042,1.717.01,3.434.009,5.15C-526.146,761.84-526.146,761.84-529.179,761.613Z" transform="translate(638.442 -747.156)" fill="#0ddcf1" fill-rule="evenodd"/>
          <path id="Trazado_190039" data-name="Trazado 190039" d="M-604.421,849.867l.369.352C-604.376,850.314-604.484,850.179-604.421,849.867Z" transform="translate(641.543 -751.272)" fill="#d8d7d7" fill-rule="evenodd"/>
          <path id="Trazado_190040" data-name="Trazado 190040" d="M-578.306,800.739c-6.085,0-12.171-.011-18.255.008-1.268,0-2.637-.023-2.7-1.627-.073-1.813,1.416-1.809,2.74-1.809q18.142,0,36.286,0c1.259,0,2.65.027,2.7,1.641.054,1.777-1.385,1.8-2.737,1.8C-566.286,800.727-572.3,800.739-578.306,800.739Z" transform="translate(641.329 -749.094)" fill-rule="evenodd"/>
          <path id="Trazado_190041" data-name="Trazado 190041" d="M-567.671,827.249q-8.46,0-16.919,0c-1.314,0-2.837.07-2.811-1.726.023-1.609,1.421-1.614,2.691-1.611q17.257.023,34.513,0c1.266,0,2.669-.009,2.7,1.6.033,1.794-1.485,1.737-2.8,1.736Q-558.986,827.24-567.671,827.249Z" transform="translate(640.837 -750.196)" fill-rule="evenodd"/>
          <path id="Trazado_190042" data-name="Trazado 190042" d="M-544,818.472c-3.084,0-6.167,0-9.252,0-1.217,0-2.415-.2-2.442-1.69-.032-1.643,1.225-1.788,2.534-1.784q9.137.032,18.277,0c1.3,0,2.584.1,2.549,1.763s-1.381,1.709-2.64,1.708Q-539.489,818.469-544,818.472Z" transform="translate(639.523 -749.827)" fill-rule="evenodd"/>
          <path id="Trazado_190043" data-name="Trazado 190043" d="M-587.53,815.01c3.073,0,6.146.014,9.218-.007,1.223-.01,2.375.165,2.452,1.645.079,1.511-1.066,1.816-2.291,1.818q-9.444.016-18.887,0c-1.142,0-2.209-.321-2.235-1.66-.029-1.452,1.02-1.814,2.3-1.8C-593.827,815.024-590.679,815.01-587.53,815.01Z" transform="translate(641.329 -749.827)" fill-rule="evenodd"/>
          <path id="Trazado_190044" data-name="Trazado 190044" d="M-587.625,845.01c-3.073,0-6.146-.017-9.219.01-1.243.012-2.376-.231-2.429-1.679-.056-1.486,1.1-1.788,2.329-1.789q9.444-.007,18.888,0c1.138,0,2.191.314,2.2,1.685.007,1.486-1.063,1.782-2.323,1.774C-581.329,845-584.477,845.01-587.625,845.01Z" transform="translate(641.329 -750.927)" fill-rule="evenodd"/>
          <path id="Trazado_190045" data-name="Trazado 190045" d="M-577.687,772.5c-.145.449-.277.956-.469,1.438-2.02,5.065-4.063,10.12-6.064,15.192-.472,1.2-1,2.4-2.525,1.833-1.545-.57-1.149-1.845-.68-3.022q3.113-7.8,6.218-15.613c.386-.97.95-1.763,2.156-1.5A1.8,1.8,0,0,1-577.687,772.5Z" transform="translate(640.855 -747.994)" fill-rule="evenodd"/>
          <path id="Trazado_190046" data-name="Trazado 190046" d="M-587.456,836.1c-3.153,0-6.305-.02-9.458.011-1.265.012-2.364-.257-2.344-1.737.018-1.363,1.1-1.6,2.251-1.6q9.458.012,18.916,0c1.146,0,2.215.227,2.222,1.618.008,1.516-1.109,1.727-2.354,1.717C-581.3,836.085-584.378,836.1-587.456,836.1Z" transform="translate(641.328 -750.564)" fill-rule="evenodd"/>
          <path id="Trazado_190047" data-name="Trazado 190047" d="M-591.385,773.414a13.819,13.819,0,0,1-2.393,4.254c-1.666,2.162-1.927,4.109-.1,6.315a22.631,22.631,0,0,1,2.174,3.665,1.633,1.633,0,0,1-.465,2.378,1.666,1.666,0,0,1-2.487-.712c-1.47-2.523-2.916-5.058-4.377-7.586a1.565,1.565,0,0,1-.042-1.7c1.544-2.566,3.074-5.141,4.656-7.683a1.531,1.531,0,0,1,1.988-.58A1.78,1.78,0,0,1-591.385,773.414Z" transform="translate(641.33 -748.029)" fill-rule="evenodd"/>
          <path id="Trazado_190048" data-name="Trazado 190048" d="M-566.118,780.785a11.985,11.985,0,0,1-.593,1.426c-1.3,2.274-2.646,4.52-3.93,6.8-.6,1.062-1.417,1.673-2.554,1.069-1.192-.634-1.007-1.686-.419-2.71,1.228-2.141,3.407-4.288,3.406-6.43s-2.189-4.266-3.426-6.4c-.607-1.044-.69-2.062.471-2.7,1.062-.589,1.862.011,2.422.938q2.092,3.457,4.155,6.932A9.362,9.362,0,0,1-566.118,780.785Z" transform="translate(640.284 -748.028)" fill-rule="evenodd"/>
          <path id="Trazado_190049" data-name="Trazado 190049" d="M-576.722,809.611c-1.2,0-2.4.027-3.594,0a1.721,1.721,0,0,1-1.916-1.756,1.642,1.642,0,0,1,1.741-1.693c2.469-.058,4.942-.07,7.411,0a1.589,1.589,0,0,1,1.668,1.736,1.625,1.625,0,0,1-1.716,1.694C-574.323,809.661-575.524,809.608-576.722,809.611Z" transform="translate(640.623 -749.458)" fill-rule="evenodd"/>
          <path id="Trazado_190050" data-name="Trazado 190050" d="M-565.452,818.437c-1.272,0-2.548.06-3.814-.019a1.623,1.623,0,0,1-1.688-1.732,1.641,1.641,0,0,1,1.762-1.66c2.468-.03,4.939-.044,7.408.013a1.561,1.561,0,0,1,1.656,1.724,1.6,1.6,0,0,1-1.734,1.668c-1.192.07-2.393.017-3.59.017Z" transform="translate(640.155 -749.827)" fill-rule="evenodd"/>
          <path id="Trazado_190051" data-name="Trazado 190051" d="M-593.937,809.607c-1.2,0-2.4.048-3.6-.014a1.664,1.664,0,0,1-1.759-1.675,1.6,1.6,0,0,1,1.671-1.745c2.47-.078,4.945-.072,7.416-.013a1.6,1.6,0,0,1,1.742,1.671c.011,1.223-.779,1.728-1.878,1.775-1.2.052-2.4.011-3.6.011Z" transform="translate(641.33 -749.459)" fill-rule="evenodd"/>
          <path id="Trazado_190052" data-name="Trazado 190052" d="M-565.64,836.1c-1.2,0-2.4.022-3.6-.006a1.572,1.572,0,0,1-1.686-1.7,1.512,1.512,0,0,1,1.588-1.568c2.553-.03,5.1-.034,7.656,0a1.442,1.442,0,0,1,1.542,1.574,1.527,1.527,0,0,1-1.668,1.7C-563.087,836.116-564.364,836.1-565.64,836.1Z" transform="translate(640.154 -750.565)" fill-rule="evenodd"/>
          <path id="Trazado_190053" data-name="Trazado 190053" d="M-595.375,827.243c-.673,0-1.347.011-2.021,0-1.135-.023-1.927-.541-1.871-1.737a1.6,1.6,0,0,1,1.813-1.578c1.422,0,2.844.009,4.265,0a1.56,1.56,0,0,1,1.751,1.623,1.548,1.548,0,0,1-1.692,1.68c-.748.018-1.5,0-2.244,0Z" transform="translate(641.329 -750.197)" fill-rule="evenodd"/>
          <path id="Trazado_190054" data-name="Trazado 190054" d="M-627.848,800.711c-.974,0-1.953.069-2.92-.019a1.567,1.567,0,0,1-1.534-1.629,1.488,1.488,0,0,1,1.463-1.676c2.018-.095,4.044-.095,6.062-.018a1.494,1.494,0,0,1,1.526,1.619,1.6,1.6,0,0,1-1.675,1.722c-.971.061-1.948.013-2.922.013Z" transform="translate(642.698 -749.094)" fill-rule="evenodd"/>
          <path id="Trazado_190055" data-name="Trazado 190055" d="M-627.595,770.75c.9,0,1.8-.063,2.7.018a1.614,1.614,0,0,1,1.649,1.756,1.529,1.529,0,0,1-1.553,1.611c-2.019.082-4.048.087-6.064-.029A1.5,1.5,0,0,1-632.3,772.4a1.6,1.6,0,0,1,1.561-1.619c1.042-.091,2.1-.02,3.147-.02Z" transform="translate(642.698 -747.992)" fill-rule="evenodd"/>
          <path id="Trazado_190056" data-name="Trazado 190056" d="M-627.789,818.431a27.714,27.714,0,0,1-2.92-.022A1.588,1.588,0,0,1-632.3,816.6a1.574,1.574,0,0,1,1.622-1.553c1.947-.057,3.9-.066,5.844.006a1.549,1.549,0,0,1,1.583,1.583,1.6,1.6,0,0,1-1.621,1.78c-.965.095-1.946.02-2.92.02Z" transform="translate(642.698 -749.827)" fill-rule="evenodd"/>
          <path id="Trazado_190057" data-name="Trazado 190057" d="M-627.911,845.005c-.824,0-1.65.017-2.474,0-1.128-.03-1.893-.546-1.909-1.742a1.6,1.6,0,0,1,1.741-1.671c1.872-.069,3.749-.072,5.619.008a1.577,1.577,0,0,1,1.682,1.721,1.619,1.619,0,0,1-1.737,1.67c-.971.052-1.949.011-2.923.011Z" transform="translate(642.698 -750.927)" fill-rule="evenodd"/>
          <path id="Trazado_190058" data-name="Trazado 190058" d="M-627.887,809.581a23.533,23.533,0,0,1-2.92-.03,1.592,1.592,0,0,1-1.5-1.679,1.55,1.55,0,0,1,1.5-1.669,57.717,57.717,0,0,1,6.068,0,1.541,1.541,0,0,1,1.49,1.677,1.581,1.581,0,0,1-1.5,1.677A26.3,26.3,0,0,1-627.887,809.581Z" transform="translate(642.698 -749.459)" fill-rule="evenodd"/>
          <path id="Trazado_190059" data-name="Trazado 190059" d="M-627.663,791.808c-1.043,0-2.091.053-3.129-.017a1.5,1.5,0,0,1-1.5-1.624,1.463,1.463,0,0,1,1.51-1.6q3.015-.076,6.034,0a1.444,1.444,0,0,1,1.487,1.611,1.492,1.492,0,0,1-1.5,1.616C-625.723,791.862-626.695,791.811-627.663,791.808Z" transform="translate(642.698 -748.73)" fill-rule="evenodd"/>
          <path id="Trazado_190060" data-name="Trazado 190060" d="M-627.878,782.935c-.968,0-1.939.048-2.9-.012a1.474,1.474,0,0,1-1.506-1.6,1.5,1.5,0,0,1,1.5-1.63c2.009-.073,4.025-.069,6.035,0a1.486,1.486,0,0,1,1.493,1.626,1.455,1.455,0,0,1-1.489,1.609C-625.789,782.983-626.835,782.935-627.878,782.935Z" transform="translate(642.698 -748.361)" fill-rule="evenodd"/>
          <path id="Trazado_190061" data-name="Trazado 190061" d="M-627.83,827.242c-.82,0-1.639,0-2.459,0-1.089-.007-1.969-.375-1.99-1.6-.021-1.193.754-1.705,1.889-1.709,1.789-.007,3.577-.013,5.366.006a1.565,1.565,0,0,1,1.761,1.6,1.519,1.519,0,0,1-1.662,1.682c-.967.038-1.936.008-2.905.008Z" transform="translate(642.697 -750.197)" fill-rule="evenodd"/>
          <path id="Trazado_190062" data-name="Trazado 190062" d="M-627.734,832.812c.969,0,1.939-.038,2.9.01a1.471,1.471,0,0,1,1.565,1.541,1.527,1.527,0,0,1-1.635,1.715c-1.935.041-3.874.043-5.811-.008a1.507,1.507,0,0,1-1.573-1.556,1.525,1.525,0,0,1,1.645-1.7c.966-.044,1.937-.01,2.9-.01Z" transform="translate(642.697 -750.564)" fill-rule="evenodd"/>
        </g>
        <path id="Trazado_190063" data-name="Trazado 190063" d="M-567.205,750.355h20.173v-3.337h-21.73Z" transform="translate(-3.083 0)" fill-rule="evenodd"/>
        <path id="Trazado_190064" data-name="Trazado 190064" d="M-604.643,783.8v18.488h-3.333V780.013l3.252,3.253" transform="translate(-1.458 -1.368)" fill-rule="evenodd"/>
      </g>
    </g>
  </g>
</svg>
