<svg xmlns="http://www.w3.org/2000/svg" width="295" height="305" viewBox="0 0 295 305">
  <g id="Grupo_131794" data-name="Grupo 131794" transform="translate(-1126 -6588.701)">
    <path id="Trazado_191316" data-name="Trazado 191316" d="M0,0H295V305H0Z" transform="translate(1126 6588.701)" fill="#b9ddfc"/>
    <path id="Trazado_191317" data-name="Trazado 191317" d="M0,0H295V77H0Z" transform="translate(1126 6816.701)" fill="#084a93"/>
    <path id="Trazado_191318" data-name="Trazado 191318" d="M20.419,14.361H14.49V18.1h7V21H10.719V5.359h10.8V8.271H14.49v3.3h5.93Zm6.338-4.984V21.4a4.219,4.219,0,0,1-1.182,3.18,4.539,4.539,0,0,1-3.266,1.117,7.71,7.71,0,0,1-1.708-.183V22.772a6.926,6.926,0,0,0,1.021.1,1.325,1.325,0,0,0,1.5-1.493v-12Zm-3.9-3.008a1.63,1.63,0,0,1,.559-1.275,2.364,2.364,0,0,1,2.9,0,1.63,1.63,0,0,1,.559,1.275,1.63,1.63,0,0,1-.559,1.275,2.364,2.364,0,0,1-2.9,0A1.63,1.63,0,0,1,22.858,6.369ZM34.427,21.215a5.975,5.975,0,0,1-4.329-1.6,5.509,5.509,0,0,1-1.654-4.152v-.3A7.138,7.138,0,0,1,29.1,12.02a4.834,4.834,0,0,1,1.928-2.111,5.821,5.821,0,0,1,3.008-.747,5.031,5.031,0,0,1,3.867,1.52,5.973,5.973,0,0,1,1.418,4.238v1.407h-7.2a2.609,2.609,0,0,0,.849,1.536,2.525,2.525,0,0,0,1.7.559,3.254,3.254,0,0,0,2.686-1.2l1.654,1.955A4.624,4.624,0,0,1,37.1,20.662,6.48,6.48,0,0,1,34.427,21.215Zm-.408-9.26q-1.59,0-1.891,2.105h3.652v-.279a1.793,1.793,0,0,0-.44-1.348A1.753,1.753,0,0,0,34.019,11.955ZM45.7,18.422a1.61,1.61,0,0,0,1.182-.414,1.517,1.517,0,0,0,.408-1.155H50.68a4.018,4.018,0,0,1-1.37,3.137,5.1,5.1,0,0,1-3.529,1.225,5.158,5.158,0,0,1-4-1.59,6.264,6.264,0,0,1-1.461-4.4v-.15a7.08,7.08,0,0,1,.65-3.11,4.732,4.732,0,0,1,1.875-2.073,5.589,5.589,0,0,1,2.9-.725,5.03,5.03,0,0,1,3.6,1.257,4.458,4.458,0,0,1,1.332,3.405H47.286a1.987,1.987,0,0,0-.44-1.386,1.52,1.52,0,0,0-1.182-.483q-1.407,0-1.644,1.794a12.659,12.659,0,0,0-.075,1.568,4.972,4.972,0,0,0,.419,2.428A1.45,1.45,0,0,0,45.7,18.422Zm13.438,1.321a3.732,3.732,0,0,1-3.1,1.472,3.661,3.661,0,0,1-2.9-1.112,4.676,4.676,0,0,1-.983-3.2V9.377h3.62v7.552a1.3,1.3,0,0,0,1.45,1.493,1.892,1.892,0,0,0,1.772-.892V9.377h3.642V21H59.242Zm10.4-1.321a1.61,1.61,0,0,0,1.182-.414,1.517,1.517,0,0,0,.408-1.155h3.395a4.018,4.018,0,0,1-1.37,3.137,5.1,5.1,0,0,1-3.529,1.225,5.158,5.158,0,0,1-4-1.59,6.264,6.264,0,0,1-1.461-4.4v-.15a7.08,7.08,0,0,1,.65-3.11,4.732,4.732,0,0,1,1.875-2.073,5.589,5.589,0,0,1,2.9-.725,5.03,5.03,0,0,1,3.6,1.257,4.458,4.458,0,0,1,1.332,3.405H71.123a1.987,1.987,0,0,0-.44-1.386,1.52,1.52,0,0,0-1.182-.483q-1.407,0-1.644,1.794a12.658,12.658,0,0,0-.075,1.568,4.972,4.972,0,0,0,.419,2.428A1.45,1.45,0,0,0,69.533,18.422ZM79.867,21H76.236V9.377h3.631ZM76.021,6.369a1.63,1.63,0,0,1,.559-1.275,2.364,2.364,0,0,1,2.9,0,1.63,1.63,0,0,1,.559,1.275,1.63,1.63,0,0,1-.559,1.275,2.364,2.364,0,0,1-2.9,0A1.63,1.63,0,0,1,76.021,6.369Zm5.618,8.712a6.86,6.86,0,0,1,.677-3.1A4.84,4.84,0,0,1,84.26,9.893a5.856,5.856,0,0,1,2.976-.73,5.344,5.344,0,0,1,4.114,1.617,6.2,6.2,0,0,1,1.5,4.4v.129a6.019,6.019,0,0,1-1.509,4.313,5.359,5.359,0,0,1-4.087,1.6,5.42,5.42,0,0,1-3.985-1.488,5.819,5.819,0,0,1-1.622-4.034Zm3.62.226a4.325,4.325,0,0,0,.5,2.363,1.682,1.682,0,0,0,1.493.752q1.934,0,1.977-2.976v-.365q0-3.126-2-3.126-1.815,0-1.966,2.7ZM87.73,4.5h3.824L88.568,7.873l-2.954-.005ZM97.774,9.377l.118,1.364a3.942,3.942,0,0,1,3.319-1.579,3.316,3.316,0,0,1,2.712,1.085,5.165,5.165,0,0,1,.929,3.266V21h-3.631V13.663a1.961,1.961,0,0,0-.354-1.294,1.64,1.64,0,0,0-1.289-.414A1.726,1.726,0,0,0,98,12.793V21h-3.62V9.377Zm19.207,6.553,1.934-6.553h3.878l-4.737,13.567-.2.494a3.6,3.6,0,0,1-3.566,2.256,5.674,5.674,0,0,1-1.493-.214V22.9h.473a2.476,2.476,0,0,0,1.166-.22,1.337,1.337,0,0,0,.6-.79l.29-.774-4.039-11.74h3.867Zm16.865.763,1.837-7.315H139.5L135.7,21h-3.7L128.217,9.377h3.824ZM146.962,21a4.088,4.088,0,0,1-.344-1.042,3.366,3.366,0,0,1-2.793,1.257,4.124,4.124,0,0,1-2.793-.994,3.163,3.163,0,0,1-1.149-2.5,3.251,3.251,0,0,1,1.4-2.857,7.114,7.114,0,0,1,4.061-.967h1.117v-.615q0-1.608-1.386-1.608a1.133,1.133,0,0,0-1.289,1.274h-3.62a3.245,3.245,0,0,1,1.434-2.736,6.027,6.027,0,0,1,3.658-1.051,5.284,5.284,0,0,1,3.513,1.085,3.772,3.772,0,0,1,1.321,2.976v5.146a5.269,5.269,0,0,0,.494,2.449V21ZM144.7,18.637a2.019,2.019,0,0,0,1.123-.29,1.818,1.818,0,0,0,.639-.655V15.833H145.4q-1.891,0-1.891,1.7a1.036,1.036,0,0,0,.333.8A1.205,1.205,0,0,0,144.7,18.637ZM155.911,21H152.28V4.5h3.631Zm6.048,0h-3.631V9.377h3.631ZM158.113,6.369a1.63,1.63,0,0,1,.559-1.275,2.364,2.364,0,0,1,2.9,0,1.63,1.63,0,0,1,.559,1.275,1.63,1.63,0,0,1-.559,1.275,2.364,2.364,0,0,1-2.9,0A1.63,1.63,0,0,1,158.113,6.369Zm5.618,8.733a7.1,7.1,0,0,1,1.192-4.351,3.925,3.925,0,0,1,3.33-1.59,3.338,3.338,0,0,1,2.621,1.225V4.5h3.631V21H171.25l-.183-1.246a3.428,3.428,0,0,1-2.836,1.461,3.918,3.918,0,0,1-3.287-1.59A7.325,7.325,0,0,1,163.731,15.1Zm3.62.226q0,3.094,1.8,3.094a1.782,1.782,0,0,0,1.719-1.01V12.986a1.734,1.734,0,0,0-1.7-1.031q-1.676,0-1.815,2.707ZM183.11,21a4.088,4.088,0,0,1-.344-1.042,3.366,3.366,0,0,1-2.793,1.257,4.124,4.124,0,0,1-2.793-.994,3.163,3.163,0,0,1-1.149-2.5,3.251,3.251,0,0,1,1.4-2.857,7.114,7.114,0,0,1,4.061-.967H182.6v-.615q0-1.608-1.386-1.608a1.133,1.133,0,0,0-1.289,1.274h-3.62a3.245,3.245,0,0,1,1.434-2.736A6.027,6.027,0,0,1,181.4,9.162a5.284,5.284,0,0,1,3.513,1.085,3.772,3.772,0,0,1,1.321,2.976v5.146a5.269,5.269,0,0,0,.494,2.449V21Zm-2.267-2.363a2.019,2.019,0,0,0,1.123-.29,1.818,1.818,0,0,0,.639-.655V15.833h-1.053q-1.891,0-1.891,1.7a1.036,1.036,0,0,0,.333.8A1.205,1.205,0,0,0,180.843,18.637Zm12.311-.215a1.61,1.61,0,0,0,1.182-.414,1.517,1.517,0,0,0,.408-1.155h3.395a4.018,4.018,0,0,1-1.37,3.137,5.1,5.1,0,0,1-3.529,1.225,5.158,5.158,0,0,1-4-1.59,6.264,6.264,0,0,1-1.461-4.4v-.15a7.08,7.08,0,0,1,.65-3.11,4.732,4.732,0,0,1,1.875-2.073,5.589,5.589,0,0,1,2.9-.725,5.03,5.03,0,0,1,3.6,1.257,4.458,4.458,0,0,1,1.332,3.405h-3.395a1.987,1.987,0,0,0-.44-1.386,1.52,1.52,0,0,0-1.182-.483q-1.407,0-1.644,1.794a12.659,12.659,0,0,0-.075,1.568,4.972,4.972,0,0,0,.419,2.428A1.45,1.45,0,0,0,193.154,18.422ZM203.488,21h-3.631V9.377h3.631ZM199.642,6.369a1.63,1.63,0,0,1,.559-1.275,2.364,2.364,0,0,1,2.9,0,1.63,1.63,0,0,1,.559,1.275,1.63,1.63,0,0,1-.559,1.275,2.364,2.364,0,0,1-2.9,0A1.63,1.63,0,0,1,199.642,6.369Zm5.618,8.712a6.86,6.86,0,0,1,.677-3.1,4.84,4.84,0,0,1,1.944-2.089,5.856,5.856,0,0,1,2.976-.73,5.344,5.344,0,0,1,4.114,1.617,6.2,6.2,0,0,1,1.5,4.4v.129a6.019,6.019,0,0,1-1.509,4.313,5.359,5.359,0,0,1-4.087,1.6,5.42,5.42,0,0,1-3.985-1.488,5.819,5.819,0,0,1-1.622-4.034Zm3.62.226a4.325,4.325,0,0,0,.5,2.363,1.682,1.682,0,0,0,1.493.752q1.934,0,1.977-2.976v-.365q0-3.126-2-3.126-1.815,0-1.966,2.7ZM211.351,4.5h3.824l-2.986,3.373-2.954-.005ZM221.4,9.377l.118,1.364a3.942,3.942,0,0,1,3.319-1.579,3.316,3.316,0,0,1,2.712,1.085,5.165,5.165,0,0,1,.929,3.266V21h-3.631V13.663a1.961,1.961,0,0,0-.354-1.294,1.64,1.64,0,0,0-1.289-.414,1.726,1.726,0,0,0-1.579.838V21H218V9.377Z" transform="translate(1154 6841.701)" fill="#fff"/>
    <g id="Grupo_129377" data-name="Grupo 129377" transform="translate(0 313.701)">
      <rect id="Rectángulo_293540" data-name="Rectángulo 293540" width="120" height="120" transform="translate(1214 6329)" fill="none"/>
      <g id="Grupo_129376" data-name="Grupo 129376" transform="translate(1864.389 5472.681)">
        <path id="Trazado_190065" data-name="Trazado 190065" d="M-590.672,962.443q-24.015,0-48.029,0c-5.215,0-8.908-2.564-10.243-7.049-1.313-4.411.293-8.447,4.631-11.277.852-.557,1.161-.935.66-1.879a9.823,9.823,0,0,1-.83-4.766q.021-28.914.011-57.829c0-6.633,3.669-10.316,10.279-10.318q43.619-.007,87.237,0c6.627,0,10.3,3.675,10.3,10.292q.01,28.794.025,57.586c0,2.084-1.052,4.1-.929,5.916.107,1.588,2.928,2.151,4.012,3.859,2.053,3.234,2.463,6.56.751,9.98a9.376,9.376,0,0,1-8.87,5.473c-13.151.037-26.3.015-39.452.015Zm.277-88.22q-21.8,0-43.591,0c-4.181,0-5.584,1.4-5.585,5.56q-.005,28.654,0,57.306c0,4.361,1.358,5.744,5.648,5.745q14.94.007,29.877.005c2.967,0,3.526.5,3.651,3.521.042,1.013.226,1.411,1.339,1.4,5.631-.053,11.265-.043,16.9-.006.982.006,1.39-.152,1.44-1.3.14-3.2.642-3.614,3.792-3.616q14.938-.009,29.877,0c4.026,0,5.5-1.443,5.5-5.407q.009-28.9,0-57.795c0-3.969-1.465-5.407-5.494-5.408Q-568.722,874.218-590.395,874.223Zm-.414,83.317q24.379,0,48.76-.009c3.188,0,5.328-1.96,5.391-4.783a4.825,4.825,0,0,0-4.928-4.985c-10.945-.054-21.89,0-32.834-.051-1.228-.006-1.453.373-1.475,1.52-.052,2.8-.73,3.4-3.521,3.406q-11.149.019-22.3,0c-2.791,0-3.42-.6-3.538-3.407-.036-.867.075-1.525-1.211-1.518-11.108.051-22.216-.013-33.323.067a4.78,4.78,0,0,0-4.676,5.211c.2,2.793,2.327,4.542,5.626,4.544Q-614.822,957.553-590.809,957.54Z" fill-rule="evenodd"/>
        <path id="Trazado_190066" data-name="Trazado 190066" d="M-588.777,875.031q21.672,0,43.347,0c4.028,0,5.493,1.439,5.494,5.408q.009,28.9,0,57.795c0,3.964-1.471,5.4-5.5,5.407q-14.938.009-29.877,0c-3.15,0-3.652.412-3.792,3.616-.05,1.15-.458,1.308-1.44,1.3-5.632-.037-11.266-.047-16.9.006-1.113.01-1.3-.388-1.339-1.4-.125-3.024-.684-3.518-3.651-3.521q-14.937-.014-29.877-.005c-4.29,0-5.647-1.384-5.648-5.745q0-28.654,0-57.306c0-4.164,1.4-5.559,5.585-5.56Q-610.574,875.027-588.777,875.031Zm-.209,63.714q20.2,0,40.41,0c3.071,0,3.736-.661,3.738-3.71q.009-25.716,0-51.432c0-3.014-.677-3.666-3.778-3.667q-40.289-.005-80.577,0c-3.246,0-3.857.607-3.858,3.83q-.006,25.594,0,51.188c0,3.183.629,3.791,3.9,3.792Q-609.069,938.75-588.986,938.745Z" transform="translate(-1.617 -0.808)" fill="#ffb30c" fill-rule="evenodd"/>
        <path id="Trazado_190067" data-name="Trazado 190067" d="M-590,970.458q-24.014,0-48.026-.005c-3.3,0-5.423-1.751-5.626-4.544a4.78,4.78,0,0,1,4.677-5.211c11.107-.08,22.215-.016,33.323-.067,1.285-.007,1.174.651,1.211,1.518.118,2.8.747,3.4,3.538,3.407q11.149.019,22.3,0c2.791-.005,3.469-.6,3.521-3.406.021-1.146.247-1.526,1.475-1.52,10.944.051,21.889,0,32.834.051a4.825,4.825,0,0,1,4.928,4.985c-.063,2.823-2.2,4.78-5.391,4.783Q-565.619,970.48-590,970.458Z" transform="translate(-0.81 -12.917)" fill="#0ddcf1" fill-rule="evenodd"/>
        <path id="Trazado_190068" data-name="Trazado 190068" d="M-588.179,939.553q-20.083,0-40.167,0c-3.27,0-3.9-.609-3.9-3.792q-.006-25.594,0-51.188c0-3.223.612-3.83,3.858-3.83q40.289-.005,80.577,0c3.1,0,3.778.653,3.778,3.667q.01,25.716,0,51.432c0,3.049-.667,3.708-3.738,3.71Q-567.973,939.559-588.179,939.553Zm-.205-4.9c12.414,0,24.83-.045,37.244.047,1.826.013,2.271-.419,2.26-2.255q-.127-22.3,0-44.595c.011-1.829-.424-2.261-2.255-2.255q-37,.1-74,0c-1.826-.006-2.271.416-2.26,2.253q.128,22.3,0,44.594c-.01,1.83.422,2.273,2.256,2.259C-612.887,934.608-600.635,934.653-588.384,934.653Z" transform="translate(-2.425 -1.615)" fill-rule="evenodd"/>
        <path id="Trazado_190069" data-name="Trazado 190069" d="M-587.584,935.453c-12.251,0-24.5-.045-36.754.047-1.834.014-2.266-.429-2.256-2.259q.125-22.3,0-44.594c-.01-1.836.434-2.259,2.26-2.253q37,.1,74,0c1.831-.006,2.266.427,2.255,2.255q-.125,22.3,0,44.595c.011,1.836-.434,2.268-2.26,2.255C-562.754,935.409-575.17,935.453-587.584,935.453Zm21.078-46.561c-4.24,0-8.479.033-12.718-.014-2.271-.026-3.269,1.012-3.225,3.264.057,2.853.012,5.707.015,8.56,0,1.886.935,2.886,2.837,2.887q13.087.012,26.172,0a2.543,2.543,0,0,0,2.844-2.881c.006-2.854-.04-5.708.016-8.56.044-2.248-.948-3.3-3.221-3.269C-558.026,888.925-562.267,888.892-566.506,888.892ZM-593.714,933c4.318,0,8.638-.021,12.957.009,1.779.013,3.181-.543,3.158-2.516-.021-1.815-1.332-2.406-3.025-2.4q-12.836.026-25.669,0c-1.691,0-3.008.574-3.035,2.392-.03,1.975,1.364,2.539,3.147,2.527C-602.026,932.98-597.87,933-593.714,933Zm10.079-26.956c-3.5,0-7.006.011-10.508,0-1.709-.007-2.959.672-2.935,2.487s1.306,2.43,3,2.425q10.386-.027,20.771,0c1.685.006,3.013-.559,3.056-2.373.046-1.97-1.335-2.562-3.124-2.546C-576.792,906.068-580.214,906.045-583.635,906.045Zm-.013,7.352c-3.422,0-6.843.024-10.264-.011-1.776-.017-3.182.53-3.164,2.507.015,1.813,1.318,2.417,3.013,2.413q10.385-.03,20.771,0c1.689.005,3.009-.572,3.044-2.385.037-1.971-1.351-2.552-3.137-2.534C-576.805,913.42-580.226,913.4-583.648,913.4Zm-30.65-21.777a2.473,2.473,0,0,0-1.243-2.376,1.958,1.958,0,0,0-2.495.081c-1.941,1.841-3.835,3.737-5.659,5.692a1.774,1.774,0,0,0,.013,2.472c1.83,1.951,3.709,3.863,5.676,5.675a2.02,2.02,0,0,0,2.879-.23,2.144,2.144,0,0,0,.415-3.057,12.165,12.165,0,0,0-2.148-2.313c-1.216-.973-1.106-1.673.011-2.673C-615.791,893.947-614.5,893.082-614.3,891.621Zm22.051,4.639a2.242,2.242,0,0,0-.726-1.752c-1.587-1.632-3.175-3.267-4.826-4.834a2.281,2.281,0,0,0-3.474-.056c-1.208,1.2-.969,2.477.131,3.657.883.946,2.372,1.809,2.508,2.85.17,1.3-1.612,2.03-2.5,3.052-1.05,1.215-1.368,2.457-.161,3.668s2.506.944,3.655-.173c1.515-1.474,3-2.977,4.484-4.486A2.577,2.577,0,0,0-592.246,896.26Zm-7.356,29.389c2.278,0,4.557-.009,6.836,0,1.711.01,2.935-.691,2.919-2.5-.016-1.661-1.156-2.4-2.774-2.4q-6.959,0-13.917,0c-1.615,0-2.766.714-2.8,2.378-.033,1.809,1.179,2.531,2.9,2.524C-604.16,925.643-601.881,925.649-599.6,925.649Zm40.39-7.358c2.034,0,4.069.048,6.1-.016a2.3,2.3,0,0,0,2.482-2.434,2.284,2.284,0,0,0-2.493-2.422c-3.985-.047-7.972-.031-11.958-.01a2.32,2.32,0,0,0-2.6,2.322c-.061,1.661.979,2.518,2.61,2.552C-563.118,918.326-561.165,918.294-559.212,918.291Zm-.183,7.358c1.952,0,3.9-.007,5.857,0,1.714.009,2.928-.712,2.9-2.519-.027-1.66-1.172-2.384-2.789-2.383q-5.735.007-11.469,0c-1.617,0-2.758.731-2.777,2.393-.02,1.811,1.2,2.52,2.911,2.509C-562.974,925.64-561.184,925.649-559.395,925.649Zm.019,7.353c1.952,0,3.9,0,5.856,0,1.718.005,2.923-.731,2.881-2.537-.039-1.66-1.194-2.368-2.808-2.365-3.823.005-7.646,0-11.469,0-1.618,0-2.737.745-2.761,2.41s1.064,2.459,2.688,2.479C-563.118,933.014-561.248,933-559.376,933Zm-52.467-32.316c-.007,1.61.663,2.512,1.875,2.825a2.232,2.232,0,0,0,2.88-1.62c.948-3.355,1.787-6.745,2.543-10.15a2.271,2.271,0,0,0-1.823-2.768,2.135,2.135,0,0,0-2.775,1.4C-610.171,893.871-611,897.427-611.843,900.685Zm7.387,10.242v.018c.732,0,1.464.025,2.194,0,1.627-.062,2.67-.883,2.623-2.543a2.32,2.32,0,0,0-2.574-2.345c-1.624-.031-3.256-.08-4.874.032a2.253,2.253,0,0,0-2.269,2.384,2.288,2.288,0,0,0,2.221,2.437A21.758,21.758,0,0,0-604.456,910.928Zm-.057,7.365v-.016a20.779,20.779,0,0,0,2.679-.021,2.284,2.284,0,0,0,2.206-2.448,2.255,2.255,0,0,0-2.285-2.372,45.016,45.016,0,0,0-5.117-.006,2.252,2.252,0,0,0-2.321,2.334,2.325,2.325,0,0,0,2.4,2.516C-606.144,918.351-605.326,918.293-604.513,918.293Zm-12.285,7.354c.813,0,1.629.044,2.438-.009a2.327,2.327,0,0,0,2.473-2.448,2.3,2.3,0,0,0-2.489-2.425c-1.623-.058-3.253-.071-4.875.011a2.268,2.268,0,0,0-2.352,2.309,2.317,2.317,0,0,0,2.37,2.543C-618.429,925.706-617.61,925.641-616.8,925.647Zm.074,2.458v.015a20.946,20.946,0,0,0-2.679.021,2.282,2.282,0,0,0-2.2,2.449,2.258,2.258,0,0,0,2.284,2.373,45.015,45.015,0,0,0,5.117.006,2.256,2.256,0,0,0,2.322-2.339,2.321,2.321,0,0,0-2.4-2.512C-615.094,928.048-615.911,928.105-616.724,928.105Z" transform="translate(-3.225 -2.416)" fill="#fff1d1" fill-rule="evenodd"/>
        <path id="Trazado_190070" data-name="Trazado 190070" d="M-559.232,889.3c4.239,0,8.48.033,12.719-.014,2.273-.026,3.265,1.022,3.221,3.269-.056,2.853-.01,5.707-.016,8.56A2.543,2.543,0,0,1-546.152,904q-13.085.012-26.172,0c-1.9,0-2.835-1-2.837-2.887,0-2.853.041-5.707-.016-8.56-.044-2.252.955-3.29,3.226-3.264C-567.711,889.334-563.472,889.3-559.232,889.3Zm0,4.9c-3.184,0-6.371.1-9.549-.033-2.282-.094-1.43,1.508-1.428,2.479s-.86,2.524,1.423,2.488q9.548-.153,19.1,0c2.279.038,1.429-1.512,1.426-2.484s.863-2.576-1.422-2.483C-552.86,894.3-556.048,894.2-559.232,894.2Z" transform="translate(-10.498 -2.825)" fill-rule="evenodd"/>
        <path id="Trazado_190071" data-name="Trazado 190071" d="M-590.869,939.872c-4.156,0-8.312-.021-12.468.009-1.783.013-3.177-.552-3.147-2.527.027-1.818,1.344-2.4,3.035-2.392q12.834.027,25.669,0c1.694,0,3,.587,3.025,2.4.023,1.974-1.379,2.529-3.158,2.516C-582.231,939.851-586.551,939.872-590.869,939.872Z" transform="translate(-6.07 -9.286)" fill-rule="evenodd"/>
        <path id="Trazado_190072" data-name="Trazado 190072" d="M-578.771,909.281c3.421,0,6.843.023,10.263-.009,1.789-.015,3.171.577,3.124,2.546-.043,1.814-1.371,2.379-3.056,2.373q-10.385-.032-20.771,0c-1.7,0-2.98-.61-3-2.425s1.226-2.494,2.935-2.487C-585.777,909.293-582.275,909.281-578.771,909.281Z" transform="translate(-8.088 -5.652)" fill-rule="evenodd"/>
        <path id="Trazado_190073" data-name="Trazado 190073" d="M-578.784,917.845c3.421,0,6.842.022,10.263-.009,1.786-.018,3.174.562,3.137,2.534-.034,1.813-1.355,2.39-3.044,2.385q-10.386-.032-20.771,0c-1.7,0-3-.6-3.013-2.413-.017-1.977,1.388-2.524,3.164-2.507C-585.626,917.869-582.206,917.845-578.784,917.845Z" transform="translate(-8.089 -6.863)" fill-rule="evenodd"/>
        <path id="Trazado_190074" data-name="Trazado 190074" d="M-613.9,892.024c-.205,1.461-1.494,2.326-2.552,3.272-1.117,1-1.227,1.7-.011,2.673a12.167,12.167,0,0,1,2.148,2.313,2.144,2.144,0,0,1-.415,3.057,2.019,2.019,0,0,1-2.879.23c-1.967-1.812-3.845-3.723-5.676-5.675a1.774,1.774,0,0,1-.013-2.472c1.824-1.955,3.718-3.851,5.659-5.692a1.958,1.958,0,0,1,2.495-.082A2.473,2.473,0,0,1-613.9,892.024Z" transform="translate(-3.621 -2.818)" fill-rule="evenodd"/>
        <path id="Trazado_190075" data-name="Trazado 190075" d="M-588.2,896.662a2.585,2.585,0,0,1-.909,1.926c-1.482,1.508-2.97,3.012-4.484,4.486-1.149,1.118-2.445,1.384-3.655.173s-.889-2.453.161-3.668c.886-1.022,2.668-1.75,2.5-3.052-.136-1.041-1.624-1.9-2.508-2.85-1.1-1.18-1.339-2.454-.131-3.657a2.281,2.281,0,0,1,3.474.056c1.651,1.568,3.238,3.2,4.826,4.834A2.249,2.249,0,0,1-588.2,896.662Z" transform="translate(-7.265 -2.819)" fill-rule="evenodd"/>
        <path id="Trazado_190076" data-name="Trazado 190076" d="M-596.758,931.31c-2.279,0-4.558-.006-6.836,0-1.716.007-2.928-.715-2.895-2.524.029-1.664,1.18-2.379,2.8-2.378q6.958.007,13.917,0c1.618,0,2.758.737,2.774,2.4.016,1.811-1.208,2.513-2.919,2.5C-592.2,931.3-594.48,931.31-596.758,931.31Z" transform="translate(-6.069 -8.076)" fill-rule="evenodd"/>
        <path id="Trazado_190077" data-name="Trazado 190077" d="M-549.5,922.74c-1.953,0-3.905.034-5.857-.009-1.631-.034-2.671-.891-2.61-2.552a2.32,2.32,0,0,1,2.6-2.322c3.985-.021,7.972-.037,11.958.01a2.285,2.285,0,0,1,2.493,2.422,2.3,2.3,0,0,1-2.482,2.434C-545.436,922.787-547.471,922.739-549.5,922.74Z" transform="translate(-12.932 -6.864)" fill-rule="evenodd"/>
        <path id="Trazado_190078" data-name="Trazado 190078" d="M-549.686,931.31c-1.789,0-3.579-.009-5.368,0-1.712.011-2.931-.7-2.911-2.509.019-1.662,1.161-2.393,2.777-2.393q5.735,0,11.469,0c1.617,0,2.763.724,2.789,2.383.029,1.807-1.185,2.528-2.9,2.519C-545.782,931.3-547.734,931.31-549.686,931.31Z" transform="translate(-12.933 -8.076)" fill-rule="evenodd"/>
        <path id="Trazado_190079" data-name="Trazado 190079" d="M-549.668,939.872c-1.872,0-3.742.015-5.613-.007-1.624-.02-2.712-.816-2.688-2.479s1.143-2.409,2.761-2.41c3.823,0,7.646,0,11.469,0,1.614,0,2.77.706,2.808,2.365.042,1.805-1.163,2.542-2.881,2.537C-545.763,939.869-547.716,939.873-549.668,939.872Z" transform="translate(-12.933 -9.288)" fill-rule="evenodd"/>
        <path id="Trazado_190080" data-name="Trazado 190080" d="M-609.412,901.093c.839-3.258,1.672-6.814,2.7-10.312a2.135,2.135,0,0,1,2.775-1.4,2.271,2.271,0,0,1,1.823,2.768c-.755,3.4-1.6,6.794-2.543,10.15a2.232,2.232,0,0,1-2.88,1.62C-608.749,903.6-609.419,902.7-609.412,901.093Z" transform="translate(-5.655 -2.823)" fill-rule="evenodd"/>
        <path id="Trazado_190081" data-name="Trazado 190081" d="M-601.615,914.161a21.77,21.77,0,0,1-2.679-.021,2.288,2.288,0,0,1-2.221-2.437,2.253,2.253,0,0,1,2.269-2.384c1.618-.112,3.25-.063,4.874-.032a2.32,2.32,0,0,1,2.574,2.345c.047,1.66-1,2.481-2.623,2.543-.731.029-1.463,0-2.194,0Z" transform="translate(-6.065 -5.649)" fill-rule="evenodd"/>
        <path id="Trazado_190082" data-name="Trazado 190082" d="M-601.672,922.736c-.812,0-1.63.058-2.437-.013a2.325,2.325,0,0,1-2.4-2.516,2.252,2.252,0,0,1,2.321-2.334,45.016,45.016,0,0,1,5.117.006,2.255,2.255,0,0,1,2.285,2.372,2.284,2.284,0,0,1-2.206,2.449,20.79,20.79,0,0,1-2.679.021Z" transform="translate(-6.066 -6.859)" fill-rule="evenodd"/>
        <path id="Trazado_190083" data-name="Trazado 190083" d="M-615.976,931.3c-.811,0-1.63.061-2.436-.016a2.317,2.317,0,0,1-2.37-2.543,2.268,2.268,0,0,1,2.352-2.309c1.622-.082,3.252-.07,4.875-.011a2.3,2.3,0,0,1,2.489,2.425,2.327,2.327,0,0,1-2.473,2.448C-614.347,931.346-615.163,931.3-615.976,931.3Z" transform="translate(-4.047 -8.071)" fill-rule="evenodd"/>
        <path id="Trazado_190084" data-name="Trazado 190084" d="M-615.9,934.974c.813,0,1.63-.058,2.437.013a2.321,2.321,0,0,1,2.4,2.512,2.256,2.256,0,0,1-2.322,2.339,45.015,45.015,0,0,1-5.117-.006,2.257,2.257,0,0,1-2.284-2.373,2.282,2.282,0,0,1,2.2-2.448,20.934,20.934,0,0,1,2.679-.021Z" transform="translate(-4.046 -9.285)" fill-rule="evenodd"/>
        <path id="Trazado_190085" data-name="Trazado 190085" d="M-558.439,895.007c3.183,0,6.371.094,9.55-.032,2.285-.093,1.42,1.514,1.422,2.483s.852,2.521-1.426,2.484q-9.549-.155-19.1,0c-2.283.036-1.42-1.519-1.423-2.488s-.854-2.573,1.428-2.479C-564.81,895.1-561.623,895.007-558.439,895.007Z" transform="translate(-11.291 -3.629)" fill="#cc8f08" fill-rule="evenodd"/>
      </g>
    </g>
  </g>
</svg>
