<svg xmlns="http://www.w3.org/2000/svg" width="169.776" height="142.91" viewBox="0 0 169.776 142.91">
  <g id="Grupo_131796" data-name="Grupo 131796" transform="translate(-915 -8473.937)">
    <path id="Trazado_190911" data-name="Trazado 190911" d="M-452.784,661.866h-52.355l14.284-30.956h23.788Z" transform="translate(1478.934 7954.981)" fill="#154f8d"/>
    <path id="Trazado_190912" data-name="Trazado 190912" d="M-371.85,684.151c-173,0-165.971,1.511-165.971-3.4,0-116.294-1.455-112.246,3.395-112.246,173,0,165.971-1.513,165.971,3.395C-368.455,688.2-367,684.151-371.85,684.151Z" transform="translate(1453.025 7905.648)" fill="#154f8d"/>
    <path id="Trazado_190913" data-name="Trazado 190913" d="M-377.3,660.377c-164.4,0-158.413,1.55-158.413-3.4,0-87.825-1.443-86.579,3.4-86.579,164.4,0,158.414-1.55,158.414,3.4C-373.9,661.623-372.458,660.377-377.3,660.377Z" transform="translate(1454.692 7907.132)" fill="#b9ddfc"/>
    <path id="Trazado_190914" data-name="Trazado 190914" d="M-488.619,633.772c-6.216,0-6.223-9.409,0-9.409S-482.4,633.772-488.619,633.772Z" transform="translate(1488.272 7949.824)" fill="#72787a"/>
    <g id="Grupo_131136" data-name="Grupo 131136" transform="translate(937.026 8483.214)">
      <g id="Grupo_131130" data-name="Grupo 131130">
        <path id="Trazado_190915" data-name="Trazado 190915" d="M-405.471,651.033c-122.244,0-119.707,1.825-119.707-4.464,0-71.32-1.686-72.531,4.464-72.531,122.245,0,119.709-1.823,119.709,4.464C-401.005,649.823-399.321,651.033-405.471,651.033Z" transform="translate(525.954 -573.229)" fill="#fff"/>
        <path id="Trazado_190916" data-name="Trazado 190916" d="M-495.971,652.091c-22,0-27.051-.388-28.774-2.117a3.541,3.541,0,0,1-.749-2.785l0-.372c0-15.291-.077-27.262-.139-36.882-.172-26.811-.213-33.181,1.9-35.307.833-.838,1.927-.9,3.27-.9,27.614,0,48.46-.089,65.21-.165,44.11-.193,52.059-.227,54.315,2.036a3.555,3.555,0,0,1,.749,2.785l0,.372c0,15.289.077,27.262.139,36.882.172,26.811.213,33.181-1.9,35.307-.833.837-1.925.9-3.27.9-27.614,0-48.46.089-65.21.163C-480.815,652.056-489.2,652.091-495.971,652.091ZM-430.18,574.6c-6.742,0-14.992.038-25.07.081-16.752.073-37.6.164-65.215.164-1.15,0-1.942.041-2.471.572-1.781,1.791-1.731,9.377-1.57,34.506.063,9.622.138,21.595.138,36.889l0,.383c-.007,1.014.007,1.563.42,1.977,1.925,1.932,12.854,1.886,53.512,1.705,16.752-.073,37.6-.163,65.215-.163,1.149,0,1.941-.041,2.471-.574,1.781-1.791,1.731-9.375,1.57-34.506-.061-9.62-.138-21.6-.138-36.887l0-.383c.009-1.014-.007-1.562-.42-1.979C-403.186,574.938-409.728,574.6-430.18,574.6Z" transform="translate(525.705 -573.477)" fill="#eee4d9"/>
      </g>
      <g id="Grupo_131131" data-name="Grupo 131131" transform="translate(0.213 0.019)">
        <path id="Trazado_190917" data-name="Trazado 190917" d="M-401.1,577.857H-525.271a3.827,3.827,0,0,1,3.826-3.826C-397.2,574.031-401.1,572.4-401.1,577.857Z" transform="translate(525.834 -573.241)" fill="#0ddcf1"/>
        <path id="Trazado_190918" data-name="Trazado 190918" d="M-400.289,578.667h-125.3V578.1a4.394,4.394,0,0,1,4.389-4.389c28.837,0,51.156-.089,67.451-.156,43.13-.168,50.9-.2,52.861,1.793a2.84,2.84,0,0,1,.6,2.281c0,.152-.007.307-.007.47Zm-124.123-1.125h123.005c.016-.717,0-1.108-.282-1.4-1.625-1.659-12.305-1.613-52.051-1.457-13.158.055-34.047.156-67.457.156A3.268,3.268,0,0,0-524.411,577.543Z" transform="translate(525.586 -573.488)" fill="#0ddcf1"/>
      </g>
      <g id="Grupo_131135" data-name="Grupo 131135" transform="translate(119.065 1.691)">
        <path id="Trazado_190919" data-name="Trazado 190919" d="M-458.618,576.486h1.629c.586,0,.771-2.063,0-2.063h-1.629c-.733,0-.424,2.183-.424,1.641A.422.422,0,0,0-458.618,576.486Z" transform="translate(459.106 -574.423)" fill="#bec0c2"/>
        <g id="Grupo_131134" data-name="Grupo 131134" transform="translate(0.299 0.15)">
          <g id="Grupo_131132" data-name="Grupo 131132">
            <path id="Trazado_190920" data-name="Trazado 190920" d="M-458.657,576.272a.282.282,0,0,1-.216-.1.281.281,0,0,1,.036-.4l1.443-1.2a.284.284,0,0,1,.4.037.281.281,0,0,1-.038.4l-1.445,1.2A.282.282,0,0,1-458.657,576.272Z" transform="translate(458.939 -574.507)" fill="#fff"/>
          </g>
          <g id="Grupo_131133" data-name="Grupo 131133">
            <path id="Trazado_190921" data-name="Trazado 190921" d="M-457.214,576.272a.291.291,0,0,1-.181-.064l-1.443-1.2a.279.279,0,0,1-.036-.4.279.279,0,0,1,.4-.037l1.445,1.2a.283.283,0,0,1,.038.4A.288.288,0,0,1-457.214,576.272Z" transform="translate(458.939 -574.507)" fill="#fff"/>
          </g>
        </g>
      </g>
    </g>
    <g id="Grupo_131137" data-name="Grupo 131137" transform="translate(954.554 8500.365)">
      <path id="Trazado_190922" data-name="Trazado 190922" d="M-484.1,587.649c-32.754,0-31.782.354-31.782-.779,0-2.678-.232-3.71.781-3.71,32.752,0,31.781-.352,31.781.781C-483.315,586.617-483.084,587.649-484.1,587.649Z" transform="translate(515.901 -583.041)" fill="#ffb30c"/>
      <path id="Trazado_190923" data-name="Trazado 190923" d="M-459.62,609.786c-58.761,0-56.258.481-56.258-1.037,0-2.065-.268-3.452,1.037-3.452,58.759,0,56.258-.481,56.258,1.037C-458.583,608.4-458.317,609.786-459.62,609.786Z" transform="translate(515.901 -565.618)" fill="#ffb30c"/>
      <path id="Trazado_190924" data-name="Trazado 190924" d="M-435.008,587.755c-62.312,0-60.3.628-60.3-1.366,0-1.436-.277-3.225,1.366-3.225,62.313,0,60.3-.628,60.3,1.368C-433.64,585.966-433.363,587.755-435.008,587.755Z" transform="translate(532.108 -583.071)" fill="#113356"/>
      <path id="Trazado_190925" data-name="Trazado 190925" d="M-484.1,593.236c-32.754,0-31.782.354-31.782-.781,0-2.676-.232-3.708.781-3.708,32.752,0,31.781-.354,31.781.781C-483.315,592.2-483.084,593.236-484.1,593.236Z" transform="translate(515.901 -578.64)" fill="#ffb30c"/>
      <path id="Trazado_190926" data-name="Trazado 190926" d="M-441.15,593.337c-56.024,0-54.159.572-54.159-1.294,0-1.577-.281-3.3,1.3-3.3,56.022,0,54.158-.57,54.158,1.3C-439.856,591.617-439.575,593.337-441.15,593.337Z" transform="translate(532.107 -578.664)" fill="#113356"/>
      <path id="Trazado_190927" data-name="Trazado 190927" d="M-484.1,599.187c-32.754,0-31.782.352-31.782-.783,0-2.676-.232-3.708.781-3.708,32.752,0,31.781-.352,31.781.781C-483.315,598.153-483.084,599.187-484.1,599.187Z" transform="translate(515.901 -573.953)" fill="#ffb30c"/>
      <path id="Trazado_190928" data-name="Trazado 190928" d="M-451.4,599.283c-45.2,0-43.91.5-43.91-1.169,0-1.777-.3-3.424,1.167-3.424,45.2,0,43.91-.5,43.91,1.169C-450.229,597.637-449.927,599.283-451.4,599.283Z" transform="translate(532.105 -573.973)" fill="#113356"/>
      <path id="Trazado_190929" data-name="Trazado 190929" d="M-451.4,605.427c-45.2,0-43.91.5-43.91-1.167,0-1.775-.3-3.424,1.167-3.424,45.2,0,43.91-.5,43.91,1.167C-450.229,603.78-449.927,605.427-451.4,605.427Z" transform="translate(532.105 -569.132)" fill="#113356"/>
      <path id="Trazado_190930" data-name="Trazado 190930" d="M-484.1,605.136c-32.754,0-31.782.352-31.782-.781,0-2.678-.232-3.71.781-3.71,32.752,0,31.781-.352,31.781.783C-483.315,604.106-483.084,605.136-484.1,605.136Z" transform="translate(515.901 -569.267)" fill="#ffb30c"/>
      <path id="Trazado_190931" data-name="Trazado 190931" d="M-444.662,609.857c-39.113,0-38.035.465-38.035-1.089,0-1.84-.318-3.5,1.089-3.5,39.11,0,38.033-.463,38.033,1.089C-443.575,608.193-443.255,609.857-444.662,609.857Z" transform="translate(542.034 -565.638)" fill="#113356"/>
    </g>
  </g>
</svg>
