<svg xmlns="http://www.w3.org/2000/svg" width="84" height="81.344" viewBox="0 0 84 81.344">
  <g id="Grupo_131811" data-name="Grupo 131811" transform="translate(-181 -993.034)">
    <g id="Grupo_130271" data-name="Grupo 130271" transform="translate(181 993.034)">
      <path id="Trazado_190392" data-name="Trazado 190392" d="M958.812,1498.173q12.381,0,24.761,0c3.5,0,5.005,1.491,5.022,4.948.016,3.2.016,3.2,3.246,3.2,4.646,0,9.293-.018,13.939.006,4.384.023,7.161,2.8,7.165,7.182q.017,22.548,0,45.1c0,4.473-2.727,7.242-7.243,7.286q-7.789.077-15.578-.015c-1.183-.015-1.693.213-1.554,1.505.128,1.189-.369,2.644.159,3.54.606,1.029,2.179.25,3.32.429a6.147,6.147,0,0,1,4.623,7.657c-.216.635-.661.459-1.052.462-2.241.017-4.482.009-6.723.009-10.44,0-20.881-.025-31.321.032-1.241.007-1.55-.3-1.54-1.53.04-4.695,1.917-6.684,6.668-6.615,1.316.019,1.49-.418,1.474-1.564-.052-3.895-.009-3.9-3.9-3.9-4.264,0-8.527.012-12.791,0-5.038-.018-7.7-2.674-7.7-7.665,0-2.351-.1-4.707.037-7.049.078-1.378-.444-1.614-1.642-1.547-1.635.093-3.279.049-4.918.017a4.059,4.059,0,0,1-4.3-4.329q-.024-21.4,0-42.8c0-2.724,1.668-4.348,4.429-4.354Q946.1,1498.155,958.812,1498.173Zm.093,13.52c-8.578,0-17.157.024-25.735-.027-1.2-.007-1.569.264-1.562,1.524.054,10.491.028,20.982.033,31.473,0,1.935.361,2.3,2.288,2.3q24.834.008,49.668,0c1.963,0,2.241-.293,2.242-2.314.005-10.491-.02-20.982.033-31.473.007-1.256-.357-1.522-1.56-1.514C975.843,1511.718,967.373,1511.692,958.9,1511.692Zm48.608,51.088c2.081-.838,2.753-1.961,2.755-4.44q.006-16.312,0-32.626c0-4.1.029-8.2-.011-12.3a4.092,4.092,0,0,0-4.4-4.406c-5.355-.024-10.712.026-16.066-.036-1.091-.013-1.231.4-1.23,1.324,0,.967.114,1.449,1.3,1.43,4.589-.075,9.18-.032,13.771-.03,3.113,0,3.88.761,3.881,3.866q0,17.788,0,35.577c0,3.2-.716,3.907-3.975,3.907q-27.134,0-54.267,0c-.491,0-.986.015-1.474-.029a2.53,2.53,0,0,1-2.531-2.5,8.723,8.723,0,0,1-.018-1.8c.143-1.287-.739-1.032-1.476-1.064-.765-.032-1.357-.048-1.322,1.06.077,2.457.021,4.918.025,7.377.006,3.62,1.449,5.083,5.034,5.084q18.362.005,36.725-.011c1.4,0,3.19.6,4.1-.275.85-.815.254-2.6.232-3.944-.017-.984.352-1.184,1.236-1.157,1.856.057,3.72.091,5.572-.01,1.16-.063,1.382.419,1.31,1.419-.07.979.047,1.971-.03,2.949-.1,1.316.806.976,1.514,1.035.816.068,1.367-.046,1.282-1.1-.087-1.086.025-2.187-.033-3.277-.043-.8.266-1.027,1.034-1.01,2.021.043,4.045.047,6.065,0,.812-.019,1.033.294,1.006,1.052C1007.479,1560.132,1007.513,1561.423,1007.513,1562.78Zm-31.3-10.444c9.071,0,18.142-.015,27.212.021,1.023,0,1.433-.2,1.387-1.326-.093-2.236-.028-4.48-.028-6.72q0-14.18,0-28.36c0-.828.171-1.565-1.18-1.539-4.643.087-9.289.065-13.933.01-1.072-.013-1.128.5-1.091,1.3.036.756-.16,1.632,1.1,1.434a1.24,1.24,0,0,1,1.58.953c.562,1.642,1.4,1.988,2.939,1.223a1.216,1.216,0,0,1,1.687.283c1.123,1.192,2.268,2.369,3.479,3.471.754.687,1,1.291.413,2.226a1.52,1.52,0,0,0,.727,2.405c1.677.444,1.7,1.468,1.624,2.793a31.674,31.674,0,0,0,.006,3.932c.067.987-.25,1.512-1.231,1.714-1.208.248-1.785,1.373-1.274,2.176,1.033,1.621.068,2.348-.887,3.259s-1.892,1.82-2.774,2.789a1.278,1.278,0,0,1-1.815.354c-1.414-.736-2.4-.343-2.861,1.119a1.352,1.352,0,0,1-1.645,1.13c-.62-.063-1.253-.153-1.687.624-.892,1.6-2.381,2.073-4.155,2.069-11.42-.026-22.841,0-34.261-.027-1.029,0-1.686-.025-1.659,1.4.026,1.356.662,1.293,1.605,1.291Q962.857,1552.318,976.217,1552.336ZM958.782,1509q10.735,0,21.468-.005c1.792,0,4.206.609,5.213-.3,1.144-1.034.309-3.486.348-5.32.05-2.314-.192-2.517-2.522-2.518q-16.142,0-32.284,0c-5.736,0-11.472.024-17.207-.016-1.524-.01-2.225.583-2.168,2.133a39.912,39.912,0,0,1-.014,4.422c-.095,1.273.286,1.647,1.6,1.637C941.739,1508.974,950.261,1509,958.782,1509Zm29.816,35.31a5.483,5.483,0,0,1,5.644-2.6c.811.149,2.752-2.006,2.541-2.822-.386-1.5.68-4.308,2-4.895,1.059-.471.591-1.3.61-1.964s.4-1.5-.62-1.969c-1.244-.568-2.428-3.471-2.053-4.75.278-.95-1.58-3.064-2.541-2.891a5.561,5.561,0,0,1-5.586-2.656c0,1.8.032,3.358-.015,4.912-.02.666.394.809.86.991a6.441,6.441,0,0,1,4.493,6.358c.016,3.131-1.634,5.206-4.466,6.4-.39.164-.874.165-.871.774C988.6,1540.8,988.6,1542.391,988.6,1544.315Zm-12.232,27.016h5.575c3.925,0,3.854,0,3.925-3.88.026-1.4-.5-1.6-1.7-1.583-4.372.058-8.744.023-13.117.023-4.239,0-4.206,0-4.155,4.172.012.987.247,1.319,1.277,1.292C970.9,1571.283,973.634,1571.331,976.367,1571.331Zm.01,5.458c5.244,0,10.488.013,15.732-.017.6,0,1.546.39,1.737-.364.233-.92-.521-1.605-1.322-2.052a3.173,3.173,0,0,0-1.578-.364q-14.586.011-29.171,0a3.018,3.018,0,0,0-2.231.853c-.43.428-.881.985-.678,1.582.226.665.953.343,1.45.345C965.67,1576.8,971.024,1576.789,976.377,1576.789Zm12.221-48.564c0,2.4.011,4.513-.005,6.63-.006.92.375.884.969.447a3.844,3.844,0,0,0,1.7-3.347A4.179,4.179,0,0,0,988.6,1528.225Zm5.325,33.68c.192-.986-.025-1.536-1.208-1.431-.847.076-1.556-.063-1.469,1.22.067.986.077,1.6,1.353,1.514C993.556,1563.14,994.207,1563.066,993.923,1561.9Zm9.6-1.36c-.87-.173-1.513-.122-1.437,1.141.059.973.048,1.611,1.34,1.525.962-.063,1.485-.162,1.394-1.31C1004.747,1561.022,1004.826,1560.216,1003.52,1560.544Z" transform="translate(-928.953 -1498.17)" fill="#040505" fill-rule="evenodd"/>
      <path id="Trazado_190393" data-name="Trazado 190393" d="M964.339,1539.328c8.469,0,16.939.026,25.407-.029,1.2-.008,1.566.258,1.56,1.514-.053,10.491-.028,20.982-.033,31.473,0,2.021-.28,2.313-2.242,2.314q-24.834.008-49.668,0c-1.927,0-2.288-.367-2.288-2.3-.006-10.491.02-20.982-.034-31.473-.007-1.259.361-1.531,1.562-1.524C947.182,1539.353,955.761,1539.328,964.339,1539.328Zm-21.785,20.215c0,2.841.034,5.682-.02,8.522-.016.873.246,1.12,1.1,1.091,1.856-.063,3.717.042,5.571-.042,1.1-.05,1.672.22,1.464,1.415-.194,1.114.334,1.361,1.366,1.336,2.675-.065,5.355-.078,8.03,0,1.153.036,1.626-.32,1.427-1.459-.205-1.172.426-1.275,1.4-1.309,1.091-.038,1.518.312,1.329,1.373-.216,1.209.363,1.424,1.452,1.393q4.012-.114,8.03,0c1.063.03,1.525-.258,1.349-1.352-.157-.976.1-1.437,1.271-1.426,1.149.011,1.607.31,1.41,1.457-.163.948.135,1.352,1.21,1.323,2.839-.077,5.682-.056,8.522-.007.847.014,1.151-.216,1.109-1.092-.069-1.417-.018-2.84-.018-4.261,0-2.693,0-2.754-2.7-2.714-1.116.017-1.388-.35-1.344-1.4.078-1.909-.009-3.824.037-5.735.019-.771-.2-1.068-1.006-1.039-1.473.053-2.956-.066-4.423.04-1.184.086-1.6-.342-1.4-1.461.212-1.161-.386-1.351-1.378-1.3-1.308.072-2.627-.053-3.931.039-1.134.08-1.482-.276-1.5-1.442-.022-1.289.563-1.4,1.58-1.355,1.308.064,2.628-.065,3.93.04,1.13.091,1.364-.354,1.321-1.378-.076-1.8-.087-3.608,0-5.407.055-1.084-.291-1.363-1.357-1.349q-6.719.089-13.439,0c-1.139-.016-1.634.279-1.436,1.441.191,1.124-.357,1.347-1.387,1.332-3.769-.057-7.539-.036-11.308-.011a1.547,1.547,0,0,1-1.574-.828,4,4,0,1,0-5.553,5.48,1.675,1.675,0,0,1,.879,1.719C942.531,1553.971,942.554,1556.757,942.554,1559.544Z" transform="translate(-934.388 -1525.806)" fill="#fff2d6" fill-rule="evenodd"/>
      <path id="Trazado_190394" data-name="Trazado 190394" d="M1035.152,1584.912c0-1.357-.033-2.648.013-3.936.027-.758-.194-1.071-1.006-1.052-2.021.048-4.044.044-6.065,0-.768-.016-1.077.208-1.034,1.01.057,1.09-.054,2.191.033,3.277.084,1.056-.466,1.171-1.282,1.1-.708-.059-1.618.281-1.514-1.035.077-.978-.041-1.97.03-2.949.072-1-.15-1.481-1.31-1.418-1.852.1-3.716.067-5.572.01-.884-.027-1.253.174-1.236,1.157.022,1.349.619,3.129-.232,3.944-.913.875-2.7.272-4.1.275q-18.362.032-36.725.011c-3.585,0-5.028-1.464-5.034-5.084,0-2.459.053-4.92-.025-7.377-.035-1.108.557-1.092,1.322-1.06.737.031,1.619-.223,1.476,1.064a8.717,8.717,0,0,0,.018,1.8,2.53,2.53,0,0,0,2.531,2.5c.489.044.983.029,1.474.029q27.134,0,54.267,0c3.259,0,3.974-.7,3.975-3.907q0-17.789,0-35.577c0-3.1-.768-3.865-3.881-3.866-4.591,0-9.182-.045-13.771.03-1.186.019-1.3-.464-1.3-1.43,0-.928.138-1.337,1.23-1.324,5.355.062,10.711.012,16.066.036a4.091,4.091,0,0,1,4.4,4.406c.04,4.1.011,8.2.011,12.3q0,16.313,0,32.626C1037.906,1582.951,1037.233,1584.074,1035.152,1584.912Z" transform="translate(-956.592 -1520.301)" fill="#bddbf1" fill-rule="evenodd"/>
      <path id="Trazado_190395" data-name="Trazado 190395" d="M1015,1585.6q-13.36,0-26.72.012c-.943,0-1.579.065-1.6-1.291-.027-1.428.63-1.4,1.659-1.4,11.42.022,22.841,0,34.261.027,1.774,0,3.263-.474,4.155-2.069.434-.777,1.068-.686,1.687-.624a1.353,1.353,0,0,0,1.645-1.13c.463-1.463,1.447-1.855,2.861-1.119a1.278,1.278,0,0,0,1.815-.354c.882-.969,1.826-1.883,2.774-2.789s1.92-1.638.887-3.259c-.511-.8.066-1.927,1.274-2.176.981-.2,1.3-.727,1.231-1.714a31.67,31.67,0,0,1-.006-3.932c.075-1.324.053-2.349-1.624-2.793a1.52,1.52,0,0,1-.727-2.405,1.509,1.509,0,0,0-.413-2.226c-1.211-1.1-2.356-2.28-3.479-3.472a1.216,1.216,0,0,0-1.687-.283c-1.535.765-2.377.419-2.939-1.223a1.24,1.24,0,0,0-1.58-.954c-1.259.2-1.062-.677-1.1-1.434-.037-.8.018-1.316,1.09-1.3,4.644.055,9.29.077,13.933-.01,1.351-.026,1.181.711,1.18,1.539q-.007,14.18,0,28.36c0,2.24-.065,4.483.027,6.72.046,1.126-.364,1.33-1.387,1.326C1033.144,1585.586,1024.073,1585.6,1015,1585.6Z" transform="translate(-967.739 -1531.435)" fill="#fff2d6" fill-rule="evenodd"/>
      <path id="Trazado_190396" data-name="Trazado 190396" d="M964.209,1514.483c-8.522,0-17.043-.03-25.565.032-1.316.01-1.7-.364-1.6-1.637a39.944,39.944,0,0,0,.014-4.423c-.056-1.55.644-2.143,2.168-2.133,5.735.039,11.471.015,17.207.015q16.142,0,32.284,0c2.329,0,2.572.2,2.522,2.518-.039,1.834.8,4.285-.348,5.32-1.007.91-3.421.3-5.213.3Q974.943,1514.5,964.209,1514.483Zm-21.682-4.052c.234-1.084-.2-1.429-1.289-1.432s-1.544.274-1.509,1.458c.03,1.027.245,1.447,1.374,1.407C942.165,1511.825,942.84,1511.683,942.527,1510.43Zm8.1-.177c-.055.894-.162,1.716,1.167,1.6.886-.079,1.732.135,1.638-1.279-.065-.989-.068-1.667-1.366-1.567C951.148,1509.073,950.375,1509.055,950.624,1510.253Zm-5.373.112c-.253.989-.02,1.565,1.252,1.492.933-.054,1.514-.1,1.452-1.292-.052-.979-.062-1.659-1.355-1.563C945.682,1509.071,944.933,1509.07,945.251,1510.365Z" transform="translate(-934.38 -1503.648)" fill="#0ddcf1" fill-rule="evenodd"/>
      <path id="Trazado_190397" data-name="Trazado 190397" d="M1110.717,1588.549c0-1.923.006-3.519,0-5.116,0-.609.481-.61.871-.774,2.832-1.19,4.482-3.265,4.466-6.4a6.441,6.441,0,0,0-4.493-6.358c-.466-.182-.88-.325-.86-.991.047-1.554.015-3.11.015-4.912a5.561,5.561,0,0,0,5.586,2.656c.961-.173,2.819,1.941,2.541,2.891-.374,1.278.81,4.182,2.053,4.75,1.022.465.64,1.294.62,1.969s.449,1.493-.61,1.964c-1.322.587-2.388,3.4-2,4.895.211.816-1.73,2.971-2.541,2.822A5.483,5.483,0,0,0,1110.717,1588.549Z" transform="translate(-1051.071 -1542.404)" fill="#fff2d6" fill-rule="evenodd"/>
      <path id="Trazado_190398" data-name="Trazado 190398" d="M1054.049,1709.982c-2.733,0-5.468-.048-8.2.024-1.03.027-1.265-.305-1.277-1.292-.051-4.173-.084-4.172,4.155-4.172,4.373,0,8.746.035,13.117-.023,1.2-.016,1.729.186,1.7,1.583-.072,3.879,0,3.88-3.925,3.88Z" transform="translate(-1006.634 -1636.821)" fill="#bddbf1" fill-rule="evenodd"/>
      <path id="Trazado_190399" data-name="Trazado 190399" d="M1037.54,1732.081c-5.353,0-10.707.009-16.06-.014-.5,0-1.224.32-1.45-.345-.2-.6.249-1.154.679-1.582a3.018,3.018,0,0,1,2.231-.853q14.585.006,29.171,0a3.174,3.174,0,0,1,1.578.364c.8.447,1.554,1.132,1.321,2.052-.191.754-1.14.359-1.737.364C1048.028,1732.094,1042.784,1732.081,1037.54,1732.081Z" transform="translate(-990.116 -1653.461)" fill="#bddbf1" fill-rule="evenodd"/>
      <path id="Trazado_190400" data-name="Trazado 190400" d="M1110.746,1589.781a4.179,4.179,0,0,1,2.661,3.731,3.844,3.844,0,0,1-1.7,3.347c-.594.437-.975.473-.969-.447C1110.757,1594.294,1110.746,1592.177,1110.746,1589.781Z" transform="translate(-1051.101 -1559.726)" fill="#fff2d6" fill-rule="evenodd"/>
      <path id="Trazado_190401" data-name="Trazado 190401" d="M1121.491,1689.483c.283,1.162-.368,1.235-1.324,1.3-1.276.09-1.287-.528-1.353-1.514-.087-1.284.622-1.144,1.469-1.22C1121.466,1687.947,1121.683,1688.5,1121.491,1689.483Z" transform="translate(-1056.521 -1625.748)" fill="#bddbf1" fill-rule="evenodd"/>
      <path id="Trazado_190402" data-name="Trazado 190402" d="M1153.283,1688.141c1.307-.328,1.227.477,1.3,1.356.091,1.148-.432,1.246-1.394,1.31-1.292.086-1.281-.552-1.34-1.525C1151.77,1688.019,1152.413,1687.968,1153.283,1688.141Z" transform="translate(-1078.716 -1625.766)" fill="#bddbf1" fill-rule="evenodd"/>
      <path id="Trazado_190403" data-name="Trazado 190403" d="M948.291,1565.182c0-2.786-.023-5.573.014-8.359a1.675,1.675,0,0,0-.879-1.719,4,4,0,1,1,5.553-5.48,1.547,1.547,0,0,0,1.574.828c3.77-.025,7.54-.046,11.308.011,1.031.015,1.579-.209,1.388-1.333-.2-1.163.3-1.458,1.436-1.441q6.718.1,13.439,0c1.066-.014,1.411.265,1.357,1.35-.09,1.8-.079,3.607,0,5.406.043,1.024-.191,1.469-1.321,1.378-1.3-.1-2.623.024-3.93-.04-1.017-.05-1.6.066-1.58,1.355.02,1.165.368,1.522,1.5,1.442,1.3-.093,2.624.032,3.931-.04.992-.054,1.59.135,1.379,1.3-.2,1.119.215,1.547,1.4,1.461,1.467-.107,2.95.013,4.423-.04.8-.029,1.025.268,1.006,1.039-.046,1.911.041,3.826-.037,5.735-.043,1.049.228,1.416,1.344,1.4,2.695-.041,2.7.021,2.7,2.714,0,1.42-.05,2.843.018,4.26.042.876-.261,1.105-1.109,1.092-2.84-.048-5.683-.069-8.522.008-1.075.03-1.373-.374-1.21-1.323.2-1.148-.261-1.447-1.41-1.458-1.173-.011-1.428.45-1.271,1.426.176,1.094-.286,1.382-1.349,1.352q-4.012-.109-8.03,0c-1.089.031-1.668-.184-1.452-1.394.189-1.061-.238-1.411-1.329-1.372-.97.034-1.6.137-1.4,1.309.2,1.138-.275,1.494-1.427,1.458-2.674-.082-5.354-.069-8.03,0-1.032.025-1.56-.222-1.366-1.336.208-1.195-.362-1.465-1.464-1.415-1.854.084-3.715-.021-5.571.042-.858.029-1.12-.218-1.1-1.091C948.324,1570.864,948.291,1568.022,948.291,1565.182Zm2.671-1.376v4.26c0,4.089,0,4.042,4.017,4.071,1.15.008,1.625-.312,1.425-1.454-.2-1.167.421-1.32,1.4-1.3,2.565.053,5.135.086,7.7-.01,1.286-.049,2,.195,1.739,1.647-.223,1.246.646,1.082,1.409,1.1.744.014,1.521.078,1.3-1.037-.316-1.579.5-1.861,1.8-1.685.376.051.77-.036,1.145.016,1.077.15,1.134-.5,1.083-1.29-.047-.723.25-1.573-1.053-1.495-1.523.092-3.058-.023-4.585.039-.855.034-1.14-.226-1.114-1.1.06-1.964.055-3.932,0-5.9-.023-.842.212-1.165,1.094-1.125,1.471.064,2.952-.053,4.421.04,1.066.067,1.306-.348,1.252-1.317-.049-.87.059-1.611-1.247-1.487-1.353.128-2.733-.05-4.091.052-1.16.087-1.615-.307-1.41-1.444.213-1.184-.437-1.309-1.408-1.292-2.839.05-5.679,0-8.518.023-1.922.015-4.066-.555-5.189,1.8a.467.467,0,0,1-.265.184c-.912.309-.93,1.022-.919,1.825C950.984,1559.218,950.962,1561.512,950.962,1563.805Zm29.24,2.829a20.057,20.057,0,0,1-2.13-.014c-1.052-.114-1.429.223-1.427,1.34s.287,1.635,1.465,1.463c.428-.063.879.036,1.31-.02,1.04-.135,1.546.2,1.365,1.325-.156.964.076,1.455,1.264,1.435,1.126-.019,1.64-.273,1.424-1.443-.209-1.131.342-1.449,1.367-1.316.376.049.773-.045,1.145.017,1.349.228,1.773-.386,1.589-1.638a6.857,6.857,0,0,1-.007-.983c0-3.041,0-3.011-3.1-2.885-.769.031-1.16.23-1,1.018.3,1.528-.424,1.909-1.782,1.712A10.3,10.3,0,0,0,980.2,1566.634Zm-4.638-16.194c-1.526,0-3.055.066-4.575-.022-1.125-.065-1.068.586-1.034,1.328.031.667-.237,1.417.968,1.388q4.41-.1,8.824,0c1.111.027,1.043-.571,1.054-1.323.012-.832.034-1.487-1.153-1.4C978.294,1550.518,976.926,1550.439,975.564,1550.44Zm-.328,13.5c1.47,0,2.947-.08,4.41.025,1.184.085,1.132-.557,1.164-1.388.035-.931-.136-1.365-1.225-1.333q-4.163.12-8.332,0c-1.133-.035-1.3.391-1.333,1.395-.033,1.12.37,1.385,1.4,1.323C972.617,1563.885,973.928,1563.945,975.236,1563.944Zm.03,10.839c.382,0,.764-.012,1.145,0,.949.035,1.741.15,1.742-1.342s-.794-1.368-1.743-1.344a20.754,20.754,0,0,1-2.289-.009c-1.028-.088-1.547.081-1.548,1.353s.524,1.464,1.548,1.346A9.989,9.989,0,0,1,975.266,1574.783Zm13.732,0a9.332,9.332,0,0,1,1.307.01c1.1.157,1.348-.317,1.359-1.361.012-1.087-.322-1.446-1.383-1.345a15.227,15.227,0,0,1-2.614,0c-1.036-.08-1.552.108-1.558,1.365-.006,1.3.579,1.435,1.582,1.335C988.122,1574.747,988.561,1574.783,989,1574.783Zm-27.217-.006c.6,0,1.2-.036,1.8.009.734.056.865-.29.928-.954.12-1.271-.154-1.969-1.629-1.744a9.155,9.155,0,0,1-2.284,0c-1.068-.109-1.5.147-1.521,1.371-.018,1.308.574,1.423,1.565,1.32C961.014,1574.745,961.4,1574.778,961.78,1574.777Zm-12.369-24.336a1.281,1.281,0,0,0-1.1,1.442,1.2,1.2,0,0,0,1.294,1.2,1.221,1.221,0,0,0,1.325-1.343C950.917,1550.906,950.389,1550.478,949.411,1550.441Z" transform="translate(-940.125 -1531.444)" fill="#030202" fill-rule="evenodd"/>
      <path id="Trazado_190404" data-name="Trazado 190404" d="M948.055,1515.909c.313,1.253-.363,1.4-1.424,1.432-1.129.04-1.344-.38-1.374-1.407-.035-1.184.4-1.462,1.509-1.458S948.289,1514.826,948.055,1515.909Z" transform="translate(-939.907 -1509.127)" fill="#11150c" fill-rule="evenodd"/>
      <path id="Trazado_190405" data-name="Trazado 190405" d="M978.372,1515.723c-.249-1.2.524-1.18,1.439-1.25,1.3-.1,1.3.578,1.366,1.567.094,1.414-.752,1.2-1.638,1.28C978.21,1517.439,978.317,1516.617,978.372,1515.723Z" transform="translate(-962.127 -1509.118)" fill="#11150c" fill-rule="evenodd"/>
      <path id="Trazado_190406" data-name="Trazado 190406" d="M961.906,1515.837c-.318-1.3.43-1.294,1.349-1.362,1.293-.1,1.3.584,1.355,1.563.063,1.192-.518,1.238-1.452,1.292C961.885,1517.4,961.653,1516.827,961.906,1515.837Z" transform="translate(-951.034 -1509.12)" fill="#11150c" fill-rule="evenodd"/>
      <path id="Trazado_190407" data-name="Trazado 190407" d="M961.955,1574.818c0-2.294.023-4.587-.012-6.88-.012-.8.007-1.516.919-1.825a.468.468,0,0,0,.265-.184c1.123-2.354,3.267-1.784,5.189-1.8,2.839-.022,5.68.027,8.518-.023.971-.017,1.62.107,1.408,1.291-.2,1.137.25,1.531,1.41,1.444,1.358-.1,2.738.075,4.091-.052,1.306-.124,1.2.616,1.247,1.486.054.969-.186,1.384-1.252,1.317-1.469-.093-2.949.025-4.421-.04-.882-.039-1.117.284-1.094,1.126.053,1.965.058,3.932,0,5.9-.027.874.259,1.134,1.114,1.1,1.526-.062,3.062.053,4.585-.038,1.3-.079,1.007.772,1.053,1.495.051.794-.006,1.44-1.083,1.29-.375-.052-.769.035-1.145-.016-1.305-.176-2.119.106-1.8,1.685.223,1.115-.554,1.051-1.3,1.037-.763-.014-1.633.15-1.409-1.1.26-1.452-.454-1.7-1.739-1.647-2.563.1-5.133.064-7.7.01-.979-.02-1.6.133-1.4,1.3.2,1.142-.275,1.463-1.425,1.454-4.016-.029-4.017.018-4.017-4.071Z" transform="translate(-951.119 -1542.456)" fill="#fff2d6" fill-rule="evenodd"/>
      <path id="Trazado_190408" data-name="Trazado 190408" d="M1043.824,1599.781a10.3,10.3,0,0,1,1.474.012c1.359.2,2.086-.183,1.782-1.712-.156-.787.235-.987,1-1.018,3.106-.126,3.1-.156,3.1,2.885a6.858,6.858,0,0,0,.007.983c.184,1.252-.24,1.865-1.59,1.638-.372-.063-.769.031-1.145-.017-1.026-.134-1.576.185-1.367,1.316.215,1.17-.3,1.424-1.425,1.443-1.188.02-1.42-.471-1.264-1.435.182-1.121-.324-1.461-1.365-1.325-.43.056-.881-.043-1.31.02-1.178.172-1.464-.339-1.465-1.463s.375-1.454,1.427-1.34A20.055,20.055,0,0,0,1043.824,1599.781Z" transform="translate(-1003.748 -1564.591)" fill="#fff2d6" fill-rule="evenodd"/>
      <path id="Trazado_190409" data-name="Trazado 190409" d="M1025.459,1556c1.362,0,2.73.079,4.084-.024,1.187-.09,1.165.565,1.153,1.4-.011.752.057,1.35-1.054,1.323q-4.41-.107-8.824,0c-1.2.029-.937-.72-.968-1.388-.034-.741-.091-1.393,1.034-1.328C1022.4,1556.071,1023.934,1556,1025.459,1556Z" transform="translate(-990.02 -1537.009)" fill="#f9b300" fill-rule="evenodd"/>
      <path id="Trazado_190410" data-name="Trazado 190410" d="M1025.08,1591.7c-1.307,0-2.618-.059-3.921.019-1.026.062-1.429-.2-1.4-1.323.029-1,.2-1.43,1.333-1.395q4.163.128,8.333,0c1.089-.031,1.26.4,1.225,1.333-.032.831.02,1.474-1.164,1.389C1028.027,1591.625,1026.551,1591.7,1025.08,1591.7Z" transform="translate(-989.969 -1559.204)" fill="#f9b300" fill-rule="evenodd"/>
      <path id="Trazado_190411" data-name="Trazado 190411" d="M1030.55,1624.717a10.045,10.045,0,0,0-1.144.007c-1.025.118-1.549-.073-1.548-1.346s.52-1.441,1.548-1.353a20.815,20.815,0,0,0,2.289.009c.949-.024,1.743-.151,1.743,1.344s-.792,1.377-1.742,1.342C1031.314,1624.7,1030.931,1624.717,1030.55,1624.717Z" transform="translate(-995.409 -1581.377)" fill="#f9b300" fill-rule="evenodd"/>
      <path id="Trazado_190412" data-name="Trazado 190412" d="M1072,1624.715c-.436,0-.876-.036-1.308.007-1,.1-1.588-.039-1.582-1.335.006-1.257.522-1.446,1.558-1.365a15.227,15.227,0,0,0,2.614,0c1.061-.1,1.395.258,1.384,1.345-.012,1.044-.262,1.518-1.359,1.361A9.3,9.3,0,0,0,1072,1624.715Z" transform="translate(-1023.131 -1581.376)" fill="#f9b300" fill-rule="evenodd"/>
      <path id="Trazado_190413" data-name="Trazado 190413" d="M989.412,1624.661c-.382,0-.766-.032-1.144.006-.991.1-1.583-.012-1.565-1.32.016-1.224.453-1.48,1.521-1.371a9.172,9.172,0,0,0,2.284,0c1.475-.225,1.75.473,1.629,1.744-.063.664-.194,1.011-.928.954C990.613,1624.624,990.011,1624.66,989.412,1624.661Z" transform="translate(-967.757 -1581.327)" fill="#f9b300" fill-rule="evenodd"/>
      <path id="Trazado_190414" data-name="Trazado 190414" d="M955,1556.075c.978.037,1.506.466,1.522,1.3a1.221,1.221,0,0,1-1.325,1.343,1.2,1.2,0,0,1-1.294-1.2A1.281,1.281,0,0,1,955,1556.075Z" transform="translate(-945.711 -1537.078)" fill="#f9b300" fill-rule="evenodd"/>
    </g>
    <path id="Trazado_190415" data-name="Trazado 190415" d="M1110.725,1551.683v31.886h10.895l2.594-6.073,1.375-18.163-1.375-4.265-6.057-1.978Z" transform="translate(-870.091 -541.092)" fill="#fff2d6" fill-rule="evenodd"/>
  </g>
</svg>
