<svg xmlns="http://www.w3.org/2000/svg" width="682" height="191.336" viewBox="0 0 682 191.336">
  <g id="Grupo_131801" data-name="Grupo 131801" transform="translate(-667 -11200.102)">
    <rect id="Rectángulo_293545" data-name="Rectángulo 293545" width="682" height="53" transform="translate(667 11200.438)" fill="#e8e8e8"/>
    <g id="Grupo_129385" data-name="Grupo 129385" transform="translate(2 1075.438)">
      <g id="Trazado_191396" data-name="Trazado 191396" transform="translate(665 10124.664)" fill="none">
        <path d="M0,0H140V191.336H0Z" stroke="none"/>
        <path d="M 1 1 L 1 190.3359375 L 139 190.3359375 L 139 1 L 1 1 M 0 0 L 140 0 L 140 191.3359375 L 0 191.3359375 L 0 0 Z" stroke="none" fill="#e1e1e1"/>
      </g>
      <path id="Trazado_191397" data-name="Trazado 191397" d="M-25.958-6.135a7.546,7.546,0,0,1-.694,3.313A5.132,5.132,0,0,1-28.626-.6,5.494,5.494,0,0,1-31.54.176a5.572,5.572,0,0,1-2.9-.751,5.123,5.123,0,0,1-1.973-2.149,7.329,7.329,0,0,1-.743-3.208v-.721a7.58,7.58,0,0,1,.69-3.318,5.119,5.119,0,0,1,1.978-2.219,5.533,5.533,0,0,1,2.931-.782,5.479,5.479,0,0,1,2.9.773A5.211,5.211,0,0,1-26.675-10a7.362,7.362,0,0,1,.716,3.274ZM-29.1-6.671a5.381,5.381,0,0,0-.637-2.9,2.044,2.044,0,0,0-1.824-.989q-2.32,0-2.452,3.48l-.009.94a5.535,5.535,0,0,0,.624,2.892A2.041,2.041,0,0,0-31.54-2.232a2.016,2.016,0,0,0,1.8-.993A5.383,5.383,0,0,0-29.1-6.082Zm13.421,1.986a5.735,5.735,0,0,1-1,3.538A3.2,3.2,0,0,1-19.367.176,2.742,2.742,0,0,1-21.52-.782V3.656h-2.962V-9.51h2.769l.088.879a2.742,2.742,0,0,1,2.241-1.055,3.224,3.224,0,0,1,2.733,1.3,5.805,5.805,0,0,1,.976,3.564Zm-2.962-.185q0-2.531-1.477-2.531a1.394,1.394,0,0,0-1.406.756V-2.9a1.439,1.439,0,0,0,1.424.791q1.415,0,1.459-2.443ZM-9.769.176a4.889,4.889,0,0,1-3.542-1.305,4.507,4.507,0,0,1-1.354-3.4v-.246a5.84,5.84,0,0,1,.541-2.575,3.955,3.955,0,0,1,1.578-1.727,4.763,4.763,0,0,1,2.461-.611A4.117,4.117,0,0,1-6.921-8.442a4.887,4.887,0,0,1,1.16,3.467v1.151H-11.65a2.135,2.135,0,0,0,.694,1.257,2.066,2.066,0,0,0,1.389.457,2.662,2.662,0,0,0,2.2-.984l1.354,1.6A3.784,3.784,0,0,1-7.585-.277,5.3,5.3,0,0,1-9.769.176ZM-10.1-7.4q-1.3,0-1.547,1.723h2.988v-.229a1.467,1.467,0,0,0-.36-1.1A1.434,1.434,0,0,0-10.1-7.4Zm11.285.571L.207-6.9a1.752,1.752,0,0,0-1.793.879V0H-4.548V-9.51h2.777l.1,1.222a2.294,2.294,0,0,1,2.083-1.4,2.888,2.888,0,0,1,.826.105ZM7.343,0a3.344,3.344,0,0,1-.281-.853A2.754,2.754,0,0,1,4.777.176,3.374,3.374,0,0,1,2.492-.637a2.588,2.588,0,0,1-.94-2.043A2.66,2.66,0,0,1,2.694-5.019,5.821,5.821,0,0,1,6.016-5.81H6.93v-.5q0-1.316-1.134-1.316A.927.927,0,0,0,4.742-6.587H1.78A2.655,2.655,0,0,1,2.953-8.825a4.931,4.931,0,0,1,2.993-.86A4.323,4.323,0,0,1,8.82-8.8,3.086,3.086,0,0,1,9.9-6.363v4.21a4.311,4.311,0,0,0,.4,2V0ZM5.489-1.934a1.652,1.652,0,0,0,.918-.237,1.487,1.487,0,0,0,.523-.536V-4.228H6.069q-1.547,0-1.547,1.389a.848.848,0,0,0,.272.655A.986.986,0,0,0,5.489-1.934Zm5.678-2.892a5.809,5.809,0,0,1,.976-3.56,3.211,3.211,0,0,1,2.725-1.3,2.731,2.731,0,0,1,2.145,1V-13.5h2.971V0H17.319l-.149-1.02a2.8,2.8,0,0,1-2.32,1.2,3.205,3.205,0,0,1-2.689-1.3A5.993,5.993,0,0,1,11.167-4.825Zm2.962.185q0,2.531,1.477,2.531a1.458,1.458,0,0,0,1.406-.826V-6.557A1.419,1.419,0,0,0,15.623-7.4q-1.371,0-1.485,2.215Zm7.163-.2a5.613,5.613,0,0,1,.554-2.536,3.96,3.96,0,0,1,1.591-1.709,4.791,4.791,0,0,1,2.435-.6,4.373,4.373,0,0,1,3.366,1.323,5.076,5.076,0,0,1,1.23,3.6v.105a4.925,4.925,0,0,1-1.235,3.529A4.384,4.384,0,0,1,25.888.176a4.434,4.434,0,0,1-3.261-1.217,4.761,4.761,0,0,1-1.327-3.3Zm2.962.185a3.538,3.538,0,0,0,.413,1.934,1.376,1.376,0,0,0,1.222.615q1.582,0,1.617-2.435v-.3q0-2.558-1.635-2.558-1.485,0-1.608,2.206ZM37.525-6.829l-.976-.07a1.752,1.752,0,0,0-1.793.879V0H31.794V-9.51h2.777l.1,1.222a2.294,2.294,0,0,1,2.083-1.4,2.888,2.888,0,0,1,.826.105Z" transform="translate(735 10160)" fill="#12263f"/>
      <g id="Trazado_191398" data-name="Trazado 191398" transform="translate(805 10124.664)" fill="none">
        <path d="M0,0H126V191.336H0Z" stroke="none"/>
        <path d="M 1 1 L 1 190.3359375 L 125 190.3359375 L 125 1 L 1 1 M 0 0 L 126 0 L 126 191.3359375 L 0 191.3359375 L 0 0 Z" stroke="none" fill="#e1e1e1"/>
      </g>
      <g id="Trazado_191399" data-name="Trazado 191399" transform="translate(931 10124.664)" fill="none">
        <path d="M0,0H164V191.336H0Z" stroke="none"/>
        <path d="M 1 1 L 1 190.3359375 L 163 190.3359375 L 163 1 L 1 1 M 0 0 L 164 0 L 164 191.3359375 L 0 191.3359375 L 0 0 Z" stroke="none" fill="#e1e1e1"/>
      </g>
      <g id="Trazado_191400" data-name="Trazado 191400" transform="translate(1095 10124.664)" fill="none">
        <path d="M0,0H252V191.336H0Z" stroke="none"/>
        <path d="M 1 1 L 1 190.3359375 L 251 190.3359375 L 251 1 L 1 1 M 0 0 L 252 0 L 252 191.3359375 L 0 191.3359375 L 0 0 Z" stroke="none" fill="#e1e1e1"/>
      </g>
      <g id="Trazado_191401" data-name="Trazado 191401" transform="translate(665 10178)" fill="none">
        <path d="M0,0H682V46H0Z" stroke="none"/>
        <path d="M 1 1 L 1 45 L 681 45 L 681 1 L 1 1 M 0 0 L 682 0 L 682 46 L 0 46 L 0 0 Z" stroke="none" fill="#e1e1e1"/>
      </g>
      <g id="Trazado_191402" data-name="Trazado 191402" transform="translate(665 10224)" fill="none">
        <path d="M0,0H682V46H0Z" stroke="none"/>
        <path d="M 1 1 L 1 45 L 681 45 L 681 1 L 1 1 M 0 0 L 682 0 L 682 46 L 0 46 L 0 0 Z" stroke="none" fill="#e1e1e1"/>
      </g>
      <g id="Trazado_191403" data-name="Trazado 191403" transform="translate(665 10270)" fill="none">
        <path d="M0,0H682V46H0Z" stroke="none"/>
        <path d="M 1 1 L 1 45 L 681 45 L 681 1 L 1 1 M 0 0 L 682 0 L 682 46 L 0 46 L 0 0 Z" stroke="none" fill="#e1e1e1"/>
      </g>
      <path id="Trazado_191404" data-name="Trazado 191404" d="M7.6,12.023H2.836L1.766,15H.219L4.563,3.625H5.875L10.227,15H8.688ZM3.289,10.8H7.156L5.219,5.477ZM20.5,15H18.992L13.266,6.234V15H11.758V3.625h1.508l5.742,8.8v-8.8H20.5Zm2.664,0V3.625h3.211A5.169,5.169,0,0,1,29,4.281a4.438,4.438,0,0,1,1.762,1.867,6.078,6.078,0,0,1,.629,2.781v.727a6.1,6.1,0,0,1-.621,2.82A4.369,4.369,0,0,1,29,14.336,5.5,5.5,0,0,1,26.313,15Zm1.5-10.148v8.922h1.578a3.434,3.434,0,0,0,2.7-1.079,4.458,4.458,0,0,0,.965-3.073V8.957A4.529,4.529,0,0,0,29,5.942a3.239,3.239,0,0,0-2.582-1.091Z" transform="translate(849 10190.867)" fill="#12263f"/>
      <path id="Trazado_191405" data-name="Trazado 191405" d="M-10.439-7.49a9.224,9.224,0,0,1-.9-1.562,3.763,3.763,0,0,1-.327-1.533,3.66,3.66,0,0,1,1.113-2.778,4.047,4.047,0,0,1,2.91-1.06,3.76,3.76,0,0,1,2.666.981,3.193,3.193,0,0,1,1.055,2.437,3.965,3.965,0,0,1-2,3.223l-.742.518,2.188,2.51a5.188,5.188,0,0,0,.537-2.354h2.764A7.414,7.414,0,0,1-2.51-2.49L-.342,0H-4.014l-.664-.752a6.773,6.773,0,0,1-1.675.723A7.3,7.3,0,0,1-8.281.205,4.955,4.955,0,0,1-11.66-.9a3.682,3.682,0,0,1-1.27-2.915,3.291,3.291,0,0,1,.5-1.787,7.707,7.707,0,0,1,1.958-1.865Zm2.373,5.156a3.55,3.55,0,0,0,1.641-.4l-2.559-2.91-.088.059a2.379,2.379,0,0,0-.557,1.543A1.743,1.743,0,0,0-9.18-2.832,1.439,1.439,0,0,0-8.066-2.334Zm-.762-8.291a2.964,2.964,0,0,0,.742,1.66l.654-.41a2.209,2.209,0,0,0,.654-.605,1.414,1.414,0,0,0,.205-.791,1.1,1.1,0,0,0-.312-.781,1.017,1.017,0,0,0-.771-.332,1.1,1.1,0,0,0-.859.347A1.312,1.312,0,0,0-8.828-10.625ZM3.037-7.49a9.224,9.224,0,0,1-.9-1.562,3.763,3.763,0,0,1-.327-1.533A3.66,3.66,0,0,1,2.92-13.364a4.047,4.047,0,0,1,2.91-1.06,3.76,3.76,0,0,1,2.666.981,3.193,3.193,0,0,1,1.055,2.437,3.965,3.965,0,0,1-2,3.223l-.742.518,2.188,2.51a5.188,5.188,0,0,0,.537-2.354h2.764A7.414,7.414,0,0,1,10.967-2.49L13.135,0H9.463L8.8-.752a6.773,6.773,0,0,1-1.675.723A7.3,7.3,0,0,1,5.2.205,4.955,4.955,0,0,1,1.816-.9,3.682,3.682,0,0,1,.547-3.818a3.291,3.291,0,0,1,.5-1.787A7.707,7.707,0,0,1,3.008-7.471ZM5.41-2.334a3.55,3.55,0,0,0,1.641-.4L4.492-5.645,4.4-5.586a2.379,2.379,0,0,0-.557,1.543A1.743,1.743,0,0,0,4.3-2.832,1.439,1.439,0,0,0,5.41-2.334Zm-.762-8.291a2.964,2.964,0,0,0,.742,1.66l.654-.41A2.209,2.209,0,0,0,6.7-9.98a1.414,1.414,0,0,0,.205-.791,1.1,1.1,0,0,0-.312-.781,1.017,1.017,0,0,0-.771-.332,1.1,1.1,0,0,0-.859.347A1.312,1.312,0,0,0,4.648-10.625Z" transform="translate(735 10210)" fill="#12263f"/>
      <path id="Trazado_191406" data-name="Trazado 191406" d="M-1.631,2.637h-1.8V-14.219h1.8Zm5.107,0H1.68V-14.219h1.8Z" transform="translate(735 10257)" fill="#12263f"/>
      <path id="Trazado_191407" data-name="Trazado 191407" d="M1.431-4.5H-1.235l-.42-9.717H1.851ZM-1.753-1.475A1.516,1.516,0,0,1-1.23-2.661a1.892,1.892,0,0,1,1.3-.464,1.892,1.892,0,0,1,1.3.464A1.516,1.516,0,0,1,1.9-1.475,1.516,1.516,0,0,1,1.377-.288a1.892,1.892,0,0,1-1.3.464,1.892,1.892,0,0,1-1.3-.464A1.516,1.516,0,0,1-1.753-1.475Z" transform="translate(735 10302)" fill="#12263f"/>
      <path id="Trazado_191408" data-name="Trazado 191408" d="M-20.764,0h-3.067l-4.535-7.963V0h-3.085V-12.8h3.085l4.526,7.963V-12.8h3.076Zm1.441-4.843a5.613,5.613,0,0,1,.554-2.536,3.96,3.96,0,0,1,1.591-1.709,4.791,4.791,0,0,1,2.435-.6,4.373,4.373,0,0,1,3.366,1.323,5.076,5.076,0,0,1,1.23,3.6v.105a4.925,4.925,0,0,1-1.235,3.529A4.384,4.384,0,0,1-14.726.176a4.434,4.434,0,0,1-3.261-1.217,4.761,4.761,0,0,1-1.327-3.3Zm2.962.185a3.538,3.538,0,0,0,.413,1.934,1.376,1.376,0,0,0,1.222.615q1.582,0,1.617-2.435v-.3q0-2.558-1.635-2.558-1.485,0-1.608,2.206ZM-6.042-9.51l.1,1.116A3.27,3.27,0,0,1-3.23-9.686,2.407,2.407,0,0,1-.8-8.253,3.165,3.165,0,0,1,2-9.686q2.892,0,2.971,3.5V0H2V-6a1.813,1.813,0,0,0-.246-1.063,1.048,1.048,0,0,0-.9-.334,1.4,1.4,0,0,0-1.31.782l.009.123V0H-3.415V-5.985a1.906,1.906,0,0,0-.237-1.081A1.045,1.045,0,0,0-4.557-7.4a1.42,1.42,0,0,0-1.3.782V0H-8.82V-9.51ZM15.491-4.676a5.8,5.8,0,0,1-.967,3.595A3.238,3.238,0,0,1,11.8.176,2.81,2.81,0,0,1,9.461-.976L9.338,0H6.684V-13.5H9.646v4.755a2.711,2.711,0,0,1,2.136-.94,3.239,3.239,0,0,1,2.742,1.274,5.826,5.826,0,0,1,.967,3.586ZM12.52-4.865a3.866,3.866,0,0,0-.365-1.952A1.229,1.229,0,0,0,11.035-7.4a1.418,1.418,0,0,0-1.389.763v3.773a1.426,1.426,0,0,0,1.406.755,1.258,1.258,0,0,0,1.327-1.018A7.309,7.309,0,0,0,12.52-4.865ZM22.548-6.829l-.976-.07a1.752,1.752,0,0,0-1.793.879V0H16.818V-9.51H19.6l.1,1.222a2.294,2.294,0,0,1,2.083-1.4,2.888,2.888,0,0,1,.826.105Zm5.5,7a4.889,4.889,0,0,1-3.542-1.305,4.507,4.507,0,0,1-1.354-3.4v-.246A5.84,5.84,0,0,1,23.7-7.348a3.955,3.955,0,0,1,1.578-1.727,4.763,4.763,0,0,1,2.461-.611A4.117,4.117,0,0,1,30.9-8.442a4.887,4.887,0,0,1,1.16,3.467v1.151H26.169a2.135,2.135,0,0,0,.694,1.257,2.066,2.066,0,0,0,1.389.457,2.662,2.662,0,0,0,2.2-.984l1.354,1.6A3.784,3.784,0,0,1,30.234-.277,5.3,5.3,0,0,1,28.05.176ZM27.716-7.4q-1.3,0-1.547,1.723h2.988v-.229a1.467,1.467,0,0,0-.36-1.1A1.434,1.434,0,0,0,27.716-7.4Z" transform="translate(868 10160)" fill="#12263f"/>
      <path id="Trazado_191409" data-name="Trazado 191409" d="M10.07,9.68A7.037,7.037,0,0,1,9.508,12.6a4.261,4.261,0,0,1-1.594,1.9,4.385,4.385,0,0,1-2.406.656,4.347,4.347,0,0,1-2.383-.66,4.363,4.363,0,0,1-1.613-1.883,6.752,6.752,0,0,1-.59-2.832v-.82a6.953,6.953,0,0,1,.57-2.9A4.347,4.347,0,0,1,3.105,4.137a4.329,4.329,0,0,1,2.387-.668,4.41,4.41,0,0,1,2.41.66A4.253,4.253,0,0,1,9.508,6.043a7.071,7.071,0,0,1,.563,2.918ZM8.578,8.945A5.1,5.1,0,0,0,7.766,5.84,2.68,2.68,0,0,0,5.492,4.758,2.651,2.651,0,0,0,3.254,5.84a5,5,0,0,0-.84,3V9.68a5.107,5.107,0,0,0,.824,3.082,2.662,2.662,0,0,0,2.27,1.121,2.652,2.652,0,0,0,2.25-1.059,5.079,5.079,0,0,0,.82-3.035ZM16.492,10.4H13.82V15H12.313V3.625h3.766a4.457,4.457,0,0,1,2.957.875A3.148,3.148,0,0,1,20.07,7.047,3.062,3.062,0,0,1,19.5,8.9a3.428,3.428,0,0,1-1.6,1.18l2.672,4.828V15H18.961ZM13.82,9.172h2.3A2.6,2.6,0,0,0,17.9,8.593a1.959,1.959,0,0,0,.66-1.55,2.062,2.062,0,0,0-.629-1.62,2.663,2.663,0,0,0-1.816-.571h-2.3Z" transform="translate(858 10239.867)" fill="#12263f"/>
      <path id="Trazado_191410" data-name="Trazado 191410" d="M10.063,15H8.555L2.828,6.234V15H1.32V3.625H2.828l5.742,8.8v-8.8h1.492ZM21.477,9.68a7.037,7.037,0,0,1-.562,2.918,4.261,4.261,0,0,1-1.594,1.9,4.385,4.385,0,0,1-2.406.656,4.244,4.244,0,0,1-4-2.543,6.752,6.752,0,0,1-.59-2.832v-.82a6.953,6.953,0,0,1,.57-2.9,4.218,4.218,0,0,1,4-2.594,4.41,4.41,0,0,1,2.41.66,4.253,4.253,0,0,1,1.605,1.914,7.071,7.071,0,0,1,.563,2.918Zm-1.492-.734a5.1,5.1,0,0,0-.812-3.105A2.68,2.68,0,0,0,16.9,4.758,2.651,2.651,0,0,0,14.66,5.84a5,5,0,0,0-.84,3V9.68a5.107,5.107,0,0,0,.824,3.082,2.662,2.662,0,0,0,2.27,1.121,2.652,2.652,0,0,0,2.25-1.059,5.079,5.079,0,0,0,.82-3.035ZM31.375,4.852H27.719V15H26.227V4.852H22.578V3.625h8.8Z" transform="translate(851 10280.867)" fill="#12263f"/>
      <path id="Trazado_191411" data-name="Trazado 191411" d="M-38.558-3.4a1.268,1.268,0,0,0-.479-1.055,5.954,5.954,0,0,0-1.683-.782,16.147,16.147,0,0,1-1.969-.782q-2.487-1.222-2.487-3.357a3.011,3.011,0,0,1,.62-1.876A4.008,4.008,0,0,1-42.8-12.52a6.823,6.823,0,0,1,2.549-.453,5.969,5.969,0,0,1,2.474.492,3.917,3.917,0,0,1,1.7,1.4A3.661,3.661,0,0,1-35.473-9h-3.076a1.547,1.547,0,0,0-.479-1.213,1.867,1.867,0,0,0-1.3-.431,2.106,2.106,0,0,0-1.305.365,1.119,1.119,0,0,0-.479.927,1.127,1.127,0,0,0,.527.892,6.65,6.65,0,0,0,1.854.826,11.36,11.36,0,0,1,2.18.918,3.663,3.663,0,0,1,2.074,3.3A3.125,3.125,0,0,1-36.738-.782,5.629,5.629,0,0,1-40.21.176a6.888,6.888,0,0,1-2.817-.558,4.247,4.247,0,0,1-1.9-1.529,3.985,3.985,0,0,1-.637-2.237h3.094a1.963,1.963,0,0,0,.532,1.516,2.513,2.513,0,0,0,1.727.488A1.985,1.985,0,0,0-39-2.474,1.088,1.088,0,0,0-38.558-3.4ZM-30.9,0h-2.971V-9.51H-30.9Zm-3.146-11.971a1.334,1.334,0,0,1,.457-1.043,1.718,1.718,0,0,1,1.187-.407,1.718,1.718,0,0,1,1.187.407,1.334,1.334,0,0,1,.457,1.043,1.334,1.334,0,0,1-.457,1.043,1.718,1.718,0,0,1-1.187.407,1.718,1.718,0,0,1-1.187-.407A1.334,1.334,0,0,1-34.049-11.971Zm4.623,7.146a6.421,6.421,0,0,1,.475-2.549,3.821,3.821,0,0,1,1.362-1.709,3.591,3.591,0,0,1,2.065-.6,2.855,2.855,0,0,1,2.32,1l.105-.826h2.689V-.36a4.009,4.009,0,0,1-.584,2.184,3.75,3.75,0,0,1-1.692,1.424,6.219,6.219,0,0,1-2.566.5,5.365,5.365,0,0,1-2.026-.4,3.657,3.657,0,0,1-1.5-1.028L-27.536.58a2.716,2.716,0,0,0,2.18.976A1.764,1.764,0,0,0-23.388-.466v-.3a2.781,2.781,0,0,1-2.153.94,3.437,3.437,0,0,1-2.812-1.332A5.517,5.517,0,0,1-29.426-4.72Zm2.971.185a3.383,3.383,0,0,0,.439,1.85,1.386,1.386,0,0,0,1.23.681,1.573,1.573,0,0,0,1.4-.642v-4a1.534,1.534,0,0,0-1.38-.65,1.4,1.4,0,0,0-1.239.708A3.858,3.858,0,0,0-26.455-4.641ZM-16-9.51l.1,1.116a3.225,3.225,0,0,1,2.716-1.292,2.713,2.713,0,0,1,2.219.888,4.226,4.226,0,0,1,.76,2.672V0h-2.971V-6a1.6,1.6,0,0,0-.29-1.059A1.342,1.342,0,0,0-14.528-7.4a1.413,1.413,0,0,0-1.292.686V0h-2.962V-9.51ZM-5.449,0H-8.42V-9.51h2.971ZM-8.6-11.971a1.334,1.334,0,0,1,.457-1.043,1.718,1.718,0,0,1,1.187-.407,1.718,1.718,0,0,1,1.187.407,1.334,1.334,0,0,1,.457,1.043,1.334,1.334,0,0,1-.457,1.043,1.718,1.718,0,0,1-1.187.407,1.718,1.718,0,0,1-1.187-.407A1.334,1.334,0,0,1-8.6-11.971ZM-2.936,0V-7.453h-1.38V-9.51h1.38v-.316a3.631,3.631,0,0,1,1.248-2.909,4.987,4.987,0,0,1,3.243-.949,11.509,11.509,0,0,1,3.094.51l-.4,2.338-.492-.132a7.832,7.832,0,0,0-2.021-.255q-1.7,0-1.7,1.547v.167H1.9v2.057H.035V0ZM6.012,0H3.032V-9.51H6.012Zm5.827-2.109a1.317,1.317,0,0,0,.967-.338,1.241,1.241,0,0,0,.334-.945h2.777A3.288,3.288,0,0,1,14.8-.826a4.168,4.168,0,0,1-2.887,1,4.22,4.22,0,0,1-3.27-1.3,5.125,5.125,0,0,1-1.2-3.6v-.123A5.792,5.792,0,0,1,7.976-7.4a3.872,3.872,0,0,1,1.534-1.7,4.573,4.573,0,0,1,2.373-.593,4.116,4.116,0,0,1,2.944,1.028,3.647,3.647,0,0,1,1.09,2.786H13.14A1.626,1.626,0,0,0,12.779-7a1.244,1.244,0,0,0-.967-.4q-1.151,0-1.345,1.468a10.357,10.357,0,0,0-.062,1.283,4.068,4.068,0,0,0,.343,1.986A1.187,1.187,0,0,0,11.839-2.109ZM22.526,0a3.344,3.344,0,0,1-.281-.853A2.754,2.754,0,0,1,19.96.176a3.374,3.374,0,0,1-2.285-.813,2.588,2.588,0,0,1-.94-2.043,2.66,2.66,0,0,1,1.143-2.338A5.821,5.821,0,0,1,21.2-5.81h.914v-.5q0-1.316-1.134-1.316a.927.927,0,0,0-1.055,1.042H16.963a2.655,2.655,0,0,1,1.173-2.239,4.931,4.931,0,0,1,2.993-.86A4.323,4.323,0,0,1,24-8.8a3.086,3.086,0,0,1,1.081,2.435v4.21a4.311,4.311,0,0,0,.4,2V0ZM20.672-1.934a1.652,1.652,0,0,0,.918-.237,1.487,1.487,0,0,0,.523-.536V-4.228h-.861q-1.547,0-1.547,1.389a.848.848,0,0,0,.272.655A.986.986,0,0,0,20.672-1.934ZM26.35-4.825a5.809,5.809,0,0,1,.976-3.56,3.211,3.211,0,0,1,2.725-1.3,2.731,2.731,0,0,1,2.145,1V-13.5h2.971V0H32.5l-.149-1.02a2.8,2.8,0,0,1-2.32,1.2,3.205,3.205,0,0,1-2.689-1.3A5.993,5.993,0,0,1,26.35-4.825Zm2.962.185q0,2.531,1.477,2.531a1.458,1.458,0,0,0,1.406-.826V-6.557A1.419,1.419,0,0,0,30.806-7.4q-1.371,0-1.485,2.215Zm7.163-.2a5.613,5.613,0,0,1,.554-2.536,3.96,3.96,0,0,1,1.591-1.709,4.791,4.791,0,0,1,2.435-.6A4.373,4.373,0,0,1,44.42-8.363a5.076,5.076,0,0,1,1.23,3.6v.105a4.925,4.925,0,0,1-1.235,3.529A4.384,4.384,0,0,1,41.071.176a4.434,4.434,0,0,1-3.261-1.217,4.761,4.761,0,0,1-1.327-3.3Zm2.962.185a3.538,3.538,0,0,0,.413,1.934,1.376,1.376,0,0,0,1.222.615q1.582,0,1.617-2.435v-.3q0-2.558-1.635-2.558-1.485,0-1.608,2.206Z" transform="translate(1221 10160)" fill="#12263f"/>
      <path id="Trazado_191412" data-name="Trazado 191412" d="M-23.81-5.432h-4.852v3.059h5.73V0h-8.815V-12.8h8.833v2.382h-5.748v2.7h4.852Zm5.186-4.078V.325a3.452,3.452,0,0,1-.967,2.6,3.714,3.714,0,0,1-2.672.914,6.308,6.308,0,0,1-1.4-.149V1.45a5.667,5.667,0,0,0,.835.079A1.084,1.084,0,0,0-21.595.308V-9.51Zm-3.19-2.461a1.334,1.334,0,0,1,.457-1.043,1.718,1.718,0,0,1,1.187-.407,1.718,1.718,0,0,1,1.187.407,1.334,1.334,0,0,1,.457,1.043,1.334,1.334,0,0,1-.457,1.043,1.718,1.718,0,0,1-1.187.407,1.718,1.718,0,0,1-1.187-.407A1.334,1.334,0,0,1-21.814-11.971ZM-12.349.176a4.889,4.889,0,0,1-3.542-1.305,4.507,4.507,0,0,1-1.354-3.4v-.246A5.84,5.84,0,0,1-16.7-7.348a3.955,3.955,0,0,1,1.578-1.727,4.763,4.763,0,0,1,2.461-.611A4.117,4.117,0,0,1-9.5-8.442a4.887,4.887,0,0,1,1.16,3.467v1.151h-5.889a2.135,2.135,0,0,0,.694,1.257,2.066,2.066,0,0,0,1.389.457,2.662,2.662,0,0,0,2.2-.984l1.354,1.6A3.784,3.784,0,0,1-10.165-.277,5.3,5.3,0,0,1-12.349.176ZM-12.683-7.4q-1.3,0-1.547,1.723h2.988v-.229a1.467,1.467,0,0,0-.36-1.1A1.434,1.434,0,0,0-12.683-7.4ZM-4.351-9.51l.1,1.116A3.27,3.27,0,0,1-1.538-9.686,2.407,2.407,0,0,1,.9-8.253,3.165,3.165,0,0,1,3.691-9.686q2.892,0,2.971,3.5V0H3.691V-6a1.813,1.813,0,0,0-.246-1.063,1.048,1.048,0,0,0-.9-.334,1.4,1.4,0,0,0-1.31.782l.009.123V0H-1.723V-5.985A1.906,1.906,0,0,0-1.96-7.066,1.045,1.045,0,0,0-2.865-7.4a1.42,1.42,0,0,0-1.3.782V0H-7.128V-9.51ZM17.183-4.685a5.735,5.735,0,0,1-1,3.538A3.2,3.2,0,0,1,13.491.176a2.742,2.742,0,0,1-2.153-.958V3.656H8.376V-9.51h2.769l.088.879a2.742,2.742,0,0,1,2.241-1.055,3.224,3.224,0,0,1,2.733,1.3,5.805,5.805,0,0,1,.976,3.564Zm-2.962-.185q0-2.531-1.477-2.531a1.394,1.394,0,0,0-1.406.756V-2.9a1.439,1.439,0,0,0,1.424.791q1.415,0,1.459-2.443ZM21.612,0H18.642V-13.5h2.971Zm1.45-4.843a5.613,5.613,0,0,1,.554-2.536,3.96,3.96,0,0,1,1.591-1.709,4.791,4.791,0,0,1,2.435-.6,4.373,4.373,0,0,1,3.366,1.323,5.076,5.076,0,0,1,1.23,3.6v.105A4.925,4.925,0,0,1,31-1.129,4.384,4.384,0,0,1,27.659.176,4.434,4.434,0,0,1,24.4-1.042a4.761,4.761,0,0,1-1.327-3.3Zm2.962.185a3.538,3.538,0,0,0,.413,1.934,1.376,1.376,0,0,0,1.222.615q1.582,0,1.617-2.435v-.3q0-2.558-1.635-2.558-1.485,0-1.608,2.206Z" transform="translate(1011 10160)" fill="#12263f"/>
      <path id="Trazado_191413" data-name="Trazado 191413" d="M-57.222-5.781a14.924,14.924,0,0,1,.635-4.434,10.7,10.7,0,0,1,1.753-3.477,6.225,6.225,0,0,1,2.485-1.992l.625,1.621a6.367,6.367,0,0,0-2.114,3.14,15.313,15.313,0,0,0-.757,5v.43a15.612,15.612,0,0,0,.747,5.1,6.34,6.34,0,0,0,2.124,3.164l-.625,1.621a6.163,6.163,0,0,1-2.485-2,10.538,10.538,0,0,1-1.753-3.462,15,15,0,0,1-.635-4.277Zm11.094-1.875,1.533-2.91h3.418L-43.96-5.42-41.04,0h-3.437l-1.66-3.125L-47.769,0h-3.457l2.93-5.42-2.773-5.146h3.457ZM-37.3-5.947l5.342,1.8v3l-8.633-3.516v-2.6l8.633-3.516v2.988Zm11.6,1.338,1.758-5.957h3.525L-24.722,1.768l-.186.449a3.272,3.272,0,0,1-3.242,2.051,5.158,5.158,0,0,1-1.357-.195V1.729h.43a2.251,2.251,0,0,0,1.06-.2A1.216,1.216,0,0,0-27.476.81l.264-.7-3.672-10.673h3.516Zm11.328-.9a13.925,13.925,0,0,1-.674,4.355,11.12,11.12,0,0,1-1.86,3.54,6.193,6.193,0,0,1-2.563,2.007l-.625-1.621a6.43,6.43,0,0,0,2.1-3.125,15.085,15.085,0,0,0,.771-4.854v-.6a15.612,15.612,0,0,0-.747-5.1,6.34,6.34,0,0,0-2.124-3.164l.625-1.621A6.307,6.307,0,0,1-16.924-13.7a10.984,10.984,0,0,1,1.855,3.486,13.807,13.807,0,0,1,.7,4.272Zm3.965-1.982a9.224,9.224,0,0,1-.9-1.562,3.763,3.763,0,0,1-.327-1.533,3.66,3.66,0,0,1,1.113-2.778,4.047,4.047,0,0,1,2.91-1.06,3.76,3.76,0,0,1,2.666.981,3.193,3.193,0,0,1,1.055,2.437,3.965,3.965,0,0,1-2,3.223l-.742.518,2.188,2.51a5.188,5.188,0,0,0,.537-2.354h2.764A7.414,7.414,0,0,1-2.476-2.49L-.308,0H-3.979l-.664-.752a6.773,6.773,0,0,1-1.675.723A7.3,7.3,0,0,1-8.247.205,4.955,4.955,0,0,1-11.626-.9,3.682,3.682,0,0,1-12.9-3.818a3.291,3.291,0,0,1,.5-1.787,7.707,7.707,0,0,1,1.958-1.865Zm2.373,5.156a3.55,3.55,0,0,0,1.641-.4L-8.95-5.645l-.088.059a2.379,2.379,0,0,0-.557,1.543,1.743,1.743,0,0,0,.449,1.211A1.439,1.439,0,0,0-8.032-2.334Zm-.762-8.291a2.964,2.964,0,0,0,.742,1.66l.654-.41a2.209,2.209,0,0,0,.654-.605,1.414,1.414,0,0,0,.205-.791,1.1,1.1,0,0,0-.312-.781,1.017,1.017,0,0,0-.771-.332,1.1,1.1,0,0,0-.859.347A1.312,1.312,0,0,0-8.794-10.625ZM3.071-7.49a9.224,9.224,0,0,1-.9-1.562,3.763,3.763,0,0,1-.327-1.533,3.66,3.66,0,0,1,1.113-2.778,4.047,4.047,0,0,1,2.91-1.06,3.76,3.76,0,0,1,2.666.981,3.193,3.193,0,0,1,1.055,2.437,3.965,3.965,0,0,1-2,3.223l-.742.518,2.188,2.51a5.188,5.188,0,0,0,.537-2.354h2.764A7.414,7.414,0,0,1,11-2.49L13.169,0H9.5L8.833-.752a6.773,6.773,0,0,1-1.675.723A7.3,7.3,0,0,1,5.229.205,4.955,4.955,0,0,1,1.851-.9,3.682,3.682,0,0,1,.581-3.818a3.291,3.291,0,0,1,.5-1.787A7.707,7.707,0,0,1,3.042-7.471ZM5.444-2.334a3.55,3.55,0,0,0,1.641-.4L4.526-5.645l-.088.059a2.379,2.379,0,0,0-.557,1.543,1.743,1.743,0,0,0,.449,1.211A1.439,1.439,0,0,0,5.444-2.334Zm-.762-8.291a2.964,2.964,0,0,0,.742,1.66l.654-.41a2.209,2.209,0,0,0,.654-.605,1.414,1.414,0,0,0,.205-.791,1.1,1.1,0,0,0-.312-.781,1.017,1.017,0,0,0-.771-.332A1.1,1.1,0,0,0,5-11.538,1.312,1.312,0,0,0,4.683-10.625Zm10,4.844a14.924,14.924,0,0,1,.635-4.434,10.7,10.7,0,0,1,1.753-3.477,6.225,6.225,0,0,1,2.485-1.992l.625,1.621a6.367,6.367,0,0,0-2.114,3.14,15.313,15.313,0,0,0-.757,5v.43a15.612,15.612,0,0,0,.747,5.1,6.34,6.34,0,0,0,2.124,3.164l-.625,1.621a6.163,6.163,0,0,1-2.485-2,10.538,10.538,0,0,1-1.753-3.462,15,15,0,0,1-.635-4.277ZM25.776-7.656l1.533-2.91h3.418L27.944-5.42,30.864,0H27.427l-1.66-3.125L24.136,0H20.679l2.93-5.42-2.773-5.146h3.457ZM34.6-5.947l5.342,1.8v3L31.313-4.668v-2.6l8.633-3.516v2.988Zm11.26,3.408h4.814V0H41.7V-1.836l4.688-6.191H41.909v-2.539h8.662v1.777Zm11.6-2.969a13.925,13.925,0,0,1-.674,4.355,11.12,11.12,0,0,1-1.86,3.54,6.193,6.193,0,0,1-2.563,2.007l-.625-1.621a6.43,6.43,0,0,0,2.1-3.125,15.085,15.085,0,0,0,.771-4.854v-.6a15.612,15.612,0,0,0-.747-5.1,6.34,6.34,0,0,0-2.124-3.164l.625-1.621A6.307,6.307,0,0,1,54.912-13.7a10.984,10.984,0,0,1,1.855,3.486,13.807,13.807,0,0,1,.7,4.272Z" transform="translate(1003 10211)" fill="#12263f"/>
      <path id="Trazado_191414" data-name="Trazado 191414" d="M-48.853-5.781a14.924,14.924,0,0,1,.635-4.434,10.7,10.7,0,0,1,1.753-3.477,6.225,6.225,0,0,1,2.485-1.992l.625,1.621a6.367,6.367,0,0,0-2.114,3.14,15.313,15.313,0,0,0-.757,5v.43a15.612,15.612,0,0,0,.747,5.1,6.34,6.34,0,0,0,2.124,3.164l-.625,1.621a6.163,6.163,0,0,1-2.485-2,10.538,10.538,0,0,1-1.753-3.462,15,15,0,0,1-.635-4.277Zm11.094-1.875,1.533-2.91h3.418L-35.591-5.42-32.671,0h-3.437l-1.66-3.125L-39.4,0h-3.457l2.93-5.42L-42.7-10.566h3.457Zm8.828,1.709,5.342,1.8v3l-8.633-3.516v-2.6l8.633-3.516v2.988Zm11.6,1.338,1.758-5.957h3.525L-16.353,1.768l-.186.449A3.272,3.272,0,0,1-19.78,4.268a5.158,5.158,0,0,1-1.357-.195V1.729h.43a2.251,2.251,0,0,0,1.06-.2A1.216,1.216,0,0,0-19.106.81l.264-.7-3.672-10.673H-19ZM-6-5.508a13.925,13.925,0,0,1-.674,4.355,11.12,11.12,0,0,1-1.86,3.54A6.193,6.193,0,0,1-11.1,4.395l-.625-1.621a6.43,6.43,0,0,0,2.1-3.125,15.085,15.085,0,0,0,.771-4.854v-.6A15.612,15.612,0,0,0-9.6-10.9a6.34,6.34,0,0,0-2.124-3.164l.625-1.621A6.307,6.307,0,0,1-8.555-13.7,10.984,10.984,0,0,1-6.7-10.21,13.807,13.807,0,0,1-6-5.937Zm4.4,8.145h-1.8V-14.219h1.8Zm5.107,0h-1.8V-14.219h1.8Zm2.8-8.418a14.924,14.924,0,0,1,.635-4.434A10.7,10.7,0,0,1,8.7-13.691a6.225,6.225,0,0,1,2.485-1.992l.625,1.621A6.367,6.367,0,0,0,9.7-10.923a15.313,15.313,0,0,0-.757,5v.43a15.612,15.612,0,0,0,.747,5.1,6.34,6.34,0,0,0,2.124,3.164l-.625,1.621A6.163,6.163,0,0,1,8.7,2.4,10.538,10.538,0,0,1,6.948-1.064a15,15,0,0,1-.635-4.277ZM17.407-7.656l1.533-2.91h3.418L19.575-5.42,22.5,0H19.058L17.4-3.125,15.767,0H12.31l2.93-5.42-2.773-5.146h3.457Zm8.828,1.709,5.342,1.8v3L22.944-4.668v-2.6l8.633-3.516v2.988ZM37.5-2.539H42.31V0H33.335V-1.836l4.688-6.191H33.54v-2.539H42.2v1.777ZM49.1-5.508a13.925,13.925,0,0,1-.674,4.355,11.12,11.12,0,0,1-1.86,3.54A6.193,6.193,0,0,1,44,4.395l-.625-1.621a6.43,6.43,0,0,0,2.1-3.125,15.085,15.085,0,0,0,.771-4.854v-.6a15.612,15.612,0,0,0-.747-5.1,6.34,6.34,0,0,0-2.124-3.164L44-15.684A6.307,6.307,0,0,1,46.543-13.7,10.984,10.984,0,0,1,48.4-10.21a13.807,13.807,0,0,1,.7,4.272Z" transform="translate(1011 10257)" fill="#12263f"/>
      <path id="Trazado_191415" data-name="Trazado 191415" d="M-21.045-4.5h-2.666l-.42-9.717h3.506Zm-3.184,3.027a1.516,1.516,0,0,1,.522-1.187,1.892,1.892,0,0,1,1.3-.464,1.892,1.892,0,0,1,1.3.464,1.516,1.516,0,0,1,.522,1.187A1.516,1.516,0,0,1-21.1-.288a1.892,1.892,0,0,1-1.3.464,1.892,1.892,0,0,1-1.3-.464A1.516,1.516,0,0,1-24.229-1.475Zm5.684-4.307a14.924,14.924,0,0,1,.635-4.434,10.7,10.7,0,0,1,1.753-3.477,6.225,6.225,0,0,1,2.485-1.992l.625,1.621a6.367,6.367,0,0,0-2.114,3.14,15.313,15.313,0,0,0-.757,5v.43a15.612,15.612,0,0,0,.747,5.1,6.34,6.34,0,0,0,2.124,3.164l-.625,1.621a6.163,6.163,0,0,1-2.485-2A10.538,10.538,0,0,1-17.91-1.064a15,15,0,0,1-.635-4.277ZM-7.451-7.656l1.533-2.91H-2.5L-5.283-5.42-2.363,0H-5.8l-1.66-3.125L-9.092,0h-3.457l2.93-5.42-2.773-5.146h3.457ZM1.377-5.947l5.342,1.8v3L-1.914-4.668v-2.6l8.633-3.516v2.988Zm11.6,1.338,1.758-5.957h3.525L13.955,1.768l-.186.449a3.272,3.272,0,0,1-3.242,2.051A5.158,5.158,0,0,1,9.17,4.073V1.729H9.6a2.251,2.251,0,0,0,1.06-.2A1.216,1.216,0,0,0,11.2.81l.264-.7L7.793-10.566h3.516Zm11.328-.9a13.925,13.925,0,0,1-.674,4.355,11.12,11.12,0,0,1-1.86,3.54,6.193,6.193,0,0,1-2.563,2.007l-.625-1.621a6.43,6.43,0,0,0,2.1-3.125,15.085,15.085,0,0,0,.771-4.854v-.6a15.612,15.612,0,0,0-.747-5.1,6.34,6.34,0,0,0-2.124-3.164l.625-1.621A6.307,6.307,0,0,1,21.753-13.7a10.984,10.984,0,0,1,1.855,3.486,13.807,13.807,0,0,1,.7,4.272Z" transform="translate(1011 10302)" fill="#12263f"/>
      <path id="Trazado_191416" data-name="Trazado 191416" d="M-112.926-12.148l.828.563a3.685,3.685,0,0,0-.75,2.141v1.063h-1.437v-.906a3.584,3.584,0,0,1,.379-1.578A3.783,3.783,0,0,1-112.926-12.148Zm5.016,6.781,1.875-3.086h1.688l-2.766,4.18L-104.262,0h-1.672l-1.953-3.164L-109.84,0h-1.68l2.852-4.273-2.766-4.18h1.672ZM-97.5-8.453l.039.938a3.122,3.122,0,0,1,2.508-1.094A2.417,2.417,0,0,1-92.535-7.25a3.2,3.2,0,0,1,1.1-.984,3.242,3.242,0,0,1,1.6-.375q2.781,0,2.828,2.945V0h-1.445V-5.578a1.941,1.941,0,0,0-.414-1.355,1.823,1.823,0,0,0-1.391-.449A1.916,1.916,0,0,0-91.6-6.9a1.949,1.949,0,0,0-.617,1.293V0h-1.453V-5.539a1.613,1.613,0,0,0-1.8-1.844,1.934,1.934,0,0,0-1.945,1.211V0h-1.445V-8.453ZM-81.324.156a3.693,3.693,0,0,1-2.8-1.129A4.19,4.19,0,0,1-85.2-3.992v-.266a5.073,5.073,0,0,1,.48-2.246,3.748,3.748,0,0,1,1.344-1.547A3.378,3.378,0,0,1-81.5-8.609a3.166,3.166,0,0,1,2.563,1.086,4.7,4.7,0,0,1,.914,3.109v.6h-5.727a3,3,0,0,0,.73,2.02,2.3,2.3,0,0,0,1.777.77,2.517,2.517,0,0,0,1.3-.312,3.259,3.259,0,0,0,.93-.828l.883.688A3.55,3.55,0,0,1-81.324.156Zm-.18-7.578a1.928,1.928,0,0,0-1.469.637A3.1,3.1,0,0,0-83.707-5h4.234v-.109a2.753,2.753,0,0,0-.594-1.707A1.815,1.815,0,0,0-81.5-7.422Zm6.516-1.031.047,1.063A3.08,3.08,0,0,1-72.41-8.609q2.68,0,2.7,3.023V0h-1.445V-5.594a1.946,1.946,0,0,0-.418-1.352,1.675,1.675,0,0,0-1.277-.437,2.086,2.086,0,0,0-1.234.375,2.546,2.546,0,0,0-.828.984V0h-1.445V-8.453ZM-67.91-4.3a4.993,4.993,0,0,1,.488-2.234A3.643,3.643,0,0,1-66.062-8.07a3.7,3.7,0,0,1,1.988-.539,3.565,3.565,0,0,1,2.793,1.2,4.6,4.6,0,0,1,1.066,3.18v.1a5.036,5.036,0,0,1-.473,2.215A3.589,3.589,0,0,1-62.039-.391a3.743,3.743,0,0,1-2.02.547,3.556,3.556,0,0,1-2.785-1.2A4.575,4.575,0,0,1-67.91-4.2Zm1.453.172A3.616,3.616,0,0,0-65.8-1.875a2.088,2.088,0,0,0,1.746.852,2.075,2.075,0,0,0,1.75-.863A3.955,3.955,0,0,0-61.66-4.3a3.61,3.61,0,0,0-.66-2.254,2.1,2.1,0,0,0-1.754-.863A2.075,2.075,0,0,0-65.8-6.57,3.925,3.925,0,0,0-66.457-4.133Zm12.141-3.023a4.331,4.331,0,0,0-.711-.055A1.9,1.9,0,0,0-56.957-6V0H-58.4V-8.453H-57l.023.977a2.251,2.251,0,0,1,2.016-1.133,1.477,1.477,0,0,1,.641.109ZM-49.379-4.3a4.961,4.961,0,0,1,.914-3.152,2.962,2.962,0,0,1,2.453-1.16A2.96,2.96,0,0,1-43.645-7.6l.063-.852h1.328V3.25H-43.7V-.781a3.033,3.033,0,0,1-2.328.938,2.915,2.915,0,0,1-2.441-1.191,5.072,5.072,0,0,1-.91-3.16Zm1.445.164a3.761,3.761,0,0,0,.613,2.281,1.951,1.951,0,0,0,1.652.828A2.164,2.164,0,0,0-43.7-2.164V-6.3a2.171,2.171,0,0,0-1.953-1.117,1.965,1.965,0,0,0-1.664.832A4.094,4.094,0,0,0-47.934-4.133Zm13.219,3.3a3.07,3.07,0,0,1-2.477.992A2.628,2.628,0,0,1-39.25-.629a3.4,3.4,0,0,1-.715-2.324v-5.5h1.445v5.461q0,1.922,1.563,1.922a2.163,2.163,0,0,0,2.2-1.234V-8.453h1.445V0h-1.375Zm7.109.992A3.693,3.693,0,0,1-30.4-.973a4.19,4.19,0,0,1-1.078-3.02v-.266A5.073,5.073,0,0,1-31-6.5a3.748,3.748,0,0,1,1.344-1.547,3.378,3.378,0,0,1,1.871-.559,3.166,3.166,0,0,1,2.563,1.086,4.7,4.7,0,0,1,.914,3.109v.6h-5.727a3,3,0,0,0,.73,2.02,2.3,2.3,0,0,0,1.777.77,2.517,2.517,0,0,0,1.3-.312,3.259,3.259,0,0,0,.93-.828l.883.688A3.55,3.55,0,0,1-27.605.156Zm-.18-7.578a1.928,1.928,0,0,0-1.469.637A3.1,3.1,0,0,0-29.988-5h4.234v-.109a2.753,2.753,0,0,0-.594-1.707A1.815,1.815,0,0,0-27.785-7.422Zm11.875,5.3,1.969-6.336h1.547l-3.4,9.758q-.789,2.109-2.508,2.109l-.273-.023-.539-.1V2.117l.391.031a1.923,1.923,0,0,0,1.145-.3A2.148,2.148,0,0,0-16.9.766l.32-.859L-19.6-8.453h1.578Zm5.023-6.055-.82-.562a3.761,3.761,0,0,0,.75-2.141V-12h1.43v1.016a3.613,3.613,0,0,1-.387,1.559A3.6,3.6,0,0,1-10.887-8.172ZM-.137-5.664l2.969-5.711h1.7L.613-4.242V0h-1.5V-4.242l-3.922-7.133H-3.09Zm10.891-6.484.828.563a3.685,3.685,0,0,0-.75,2.141v1.063H9.395v-.906a3.584,3.584,0,0,1,.379-1.578A3.783,3.783,0,0,1,10.754-12.148ZM15.77-5.367l1.875-3.086h1.688l-2.766,4.18L19.418,0H17.746L15.793-3.164,13.84,0H12.16l2.852-4.273-2.766-4.18h1.672ZM26.184-8.453l.039.938A3.122,3.122,0,0,1,28.73-8.609,2.417,2.417,0,0,1,31.145-7.25a3.2,3.2,0,0,1,1.1-.984,3.242,3.242,0,0,1,1.6-.375q2.781,0,2.828,2.945V0H35.223V-5.578a1.941,1.941,0,0,0-.414-1.355,1.823,1.823,0,0,0-1.391-.449,1.917,1.917,0,0,0-1.336.48,1.949,1.949,0,0,0-.617,1.293V0H30.012V-5.539a1.613,1.613,0,0,0-1.8-1.844,1.934,1.934,0,0,0-1.945,1.211V0H24.816V-8.453ZM42.355.156a3.693,3.693,0,0,1-2.8-1.129,4.19,4.19,0,0,1-1.078-3.02v-.266a5.073,5.073,0,0,1,.48-2.246A3.748,3.748,0,0,1,40.3-8.051a3.378,3.378,0,0,1,1.871-.559,3.166,3.166,0,0,1,2.563,1.086,4.7,4.7,0,0,1,.914,3.109v.6H39.926a3,3,0,0,0,.73,2.02,2.3,2.3,0,0,0,1.777.77,2.517,2.517,0,0,0,1.3-.312,3.259,3.259,0,0,0,.93-.828l.883.688A3.55,3.55,0,0,1,42.355.156Zm-.18-7.578a1.928,1.928,0,0,0-1.469.637A3.1,3.1,0,0,0,39.973-5h4.234v-.109a2.753,2.753,0,0,0-.594-1.707A1.815,1.815,0,0,0,42.176-7.422Zm6.516-1.031.047,1.063A3.08,3.08,0,0,1,51.27-8.609q2.68,0,2.7,3.023V0H52.527V-5.594a1.946,1.946,0,0,0-.418-1.352,1.675,1.675,0,0,0-1.277-.437,2.086,2.086,0,0,0-1.234.375,2.546,2.546,0,0,0-.828.984V0H47.324V-8.453ZM55.77-4.3a4.993,4.993,0,0,1,.488-2.234A3.643,3.643,0,0,1,57.617-8.07a3.7,3.7,0,0,1,1.988-.539,3.565,3.565,0,0,1,2.793,1.2,4.6,4.6,0,0,1,1.066,3.18v.1a5.036,5.036,0,0,1-.473,2.215A3.589,3.589,0,0,1,61.641-.391a3.743,3.743,0,0,1-2.02.547,3.556,3.556,0,0,1-2.785-1.2A4.575,4.575,0,0,1,55.77-4.2Zm1.453.172a3.616,3.616,0,0,0,.652,2.258,2.088,2.088,0,0,0,1.746.852,2.075,2.075,0,0,0,1.75-.863A3.955,3.955,0,0,0,62.02-4.3a3.61,3.61,0,0,0-.66-2.254,2.1,2.1,0,0,0-1.754-.863,2.075,2.075,0,0,0-1.727.852A3.925,3.925,0,0,0,57.223-4.133ZM69.363-7.156a4.331,4.331,0,0,0-.711-.055A1.9,1.9,0,0,0,66.723-6V0H65.277V-8.453h1.406l.023.977a2.251,2.251,0,0,1,2.016-1.133,1.477,1.477,0,0,1,.641.109ZM74.3-4.3a4.961,4.961,0,0,1,.914-3.152,2.962,2.962,0,0,1,2.453-1.16A2.96,2.96,0,0,1,80.035-7.6l.063-.852h1.328V3.25H79.98V-.781a3.033,3.033,0,0,1-2.328.938,2.915,2.915,0,0,1-2.441-1.191A5.072,5.072,0,0,1,74.3-4.2Zm1.445.164a3.761,3.761,0,0,0,.613,2.281,1.951,1.951,0,0,0,1.652.828A2.164,2.164,0,0,0,79.98-2.164V-6.3a2.171,2.171,0,0,0-1.953-1.117,1.965,1.965,0,0,0-1.664.832A4.094,4.094,0,0,0,75.746-4.133Zm13.219,3.3a3.07,3.07,0,0,1-2.477.992A2.628,2.628,0,0,1,84.43-.629a3.4,3.4,0,0,1-.715-2.324v-5.5H85.16v5.461q0,1.922,1.563,1.922a2.163,2.163,0,0,0,2.2-1.234V-8.453h1.445V0H89Zm7.109.992a3.693,3.693,0,0,1-2.8-1.129A4.19,4.19,0,0,1,92.2-3.992v-.266A5.073,5.073,0,0,1,92.68-6.5a3.748,3.748,0,0,1,1.344-1.547,3.378,3.378,0,0,1,1.871-.559,3.166,3.166,0,0,1,2.563,1.086,4.7,4.7,0,0,1,.914,3.109v.6H93.645a3,3,0,0,0,.73,2.02,2.3,2.3,0,0,0,1.777.77,2.517,2.517,0,0,0,1.3-.312,3.259,3.259,0,0,0,.93-.828l.883.688A3.55,3.55,0,0,1,96.074.156Zm-.18-7.578a1.928,1.928,0,0,0-1.469.637A3.1,3.1,0,0,0,93.691-5h4.234v-.109a2.753,2.753,0,0,0-.594-1.707A1.815,1.815,0,0,0,95.895-7.422ZM106.363-1.18h4.945V0H104.6V-1.062l4.664-6.2h-4.594v-1.2h6.406V-7.43Zm6.672-6.992-.82-.562a3.761,3.761,0,0,0,.75-2.141V-12h1.43v1.016a3.613,3.613,0,0,1-.387,1.559A3.6,3.6,0,0,1,113.035-8.172Z" transform="translate(1220 10210)" fill="#12263f"/>
      <path id="Trazado_191417" data-name="Trazado 191417" d="M-113.621-12.148l.828.563a3.685,3.685,0,0,0-.75,2.141v1.063h-1.437v-.906a3.584,3.584,0,0,1,.379-1.578A3.783,3.783,0,0,1-113.621-12.148Zm5.016,6.781,1.875-3.086h1.688l-2.766,4.18L-104.957,0h-1.672l-1.953-3.164L-110.535,0h-1.68l2.852-4.273-2.766-4.18h1.672Zm10.414-3.086.039.938a3.122,3.122,0,0,1,2.508-1.094A2.417,2.417,0,0,1-93.23-7.25a3.2,3.2,0,0,1,1.1-.984,3.242,3.242,0,0,1,1.6-.375q2.781,0,2.828,2.945V0h-1.445V-5.578a1.941,1.941,0,0,0-.414-1.355,1.823,1.823,0,0,0-1.391-.449,1.916,1.916,0,0,0-1.336.48,1.949,1.949,0,0,0-.617,1.293V0h-1.453V-5.539a1.613,1.613,0,0,0-1.8-1.844,1.934,1.934,0,0,0-1.945,1.211V0h-1.445V-8.453ZM-82.02.156a3.693,3.693,0,0,1-2.8-1.129,4.19,4.19,0,0,1-1.078-3.02v-.266a5.073,5.073,0,0,1,.48-2.246A3.748,3.748,0,0,1-84.07-8.051,3.378,3.378,0,0,1-82.2-8.609a3.166,3.166,0,0,1,2.563,1.086,4.7,4.7,0,0,1,.914,3.109v.6h-5.727a3,3,0,0,0,.73,2.02,2.3,2.3,0,0,0,1.777.77,2.517,2.517,0,0,0,1.3-.312,3.259,3.259,0,0,0,.93-.828l.883.688A3.55,3.55,0,0,1-82.02.156Zm-.18-7.578a1.928,1.928,0,0,0-1.469.637A3.1,3.1,0,0,0-84.4-5h4.234v-.109a2.753,2.753,0,0,0-.594-1.707A1.815,1.815,0,0,0-82.2-7.422Zm6.516-1.031.047,1.063a3.08,3.08,0,0,1,2.531-1.219q2.68,0,2.7,3.023V0h-1.445V-5.594a1.946,1.946,0,0,0-.418-1.352,1.675,1.675,0,0,0-1.277-.437,2.086,2.086,0,0,0-1.234.375,2.546,2.546,0,0,0-.828.984V0h-1.445V-8.453ZM-68.605-4.3a4.993,4.993,0,0,1,.488-2.234A3.643,3.643,0,0,1-66.758-8.07a3.7,3.7,0,0,1,1.988-.539,3.565,3.565,0,0,1,2.793,1.2,4.6,4.6,0,0,1,1.066,3.18v.1a5.036,5.036,0,0,1-.473,2.215A3.589,3.589,0,0,1-62.734-.391a3.743,3.743,0,0,1-2.02.547,3.556,3.556,0,0,1-2.785-1.2A4.575,4.575,0,0,1-68.605-4.2Zm1.453.172A3.616,3.616,0,0,0-66.5-1.875a2.088,2.088,0,0,0,1.746.852A2.075,2.075,0,0,0-63-1.887,3.955,3.955,0,0,0-62.355-4.3a3.61,3.61,0,0,0-.66-2.254,2.1,2.1,0,0,0-1.754-.863A2.075,2.075,0,0,0-66.5-6.57,3.925,3.925,0,0,0-67.152-4.133Zm12.141-3.023a4.331,4.331,0,0,0-.711-.055A1.9,1.9,0,0,0-57.652-6V0H-59.1V-8.453h1.406l.023.977a2.251,2.251,0,0,1,2.016-1.133,1.477,1.477,0,0,1,.641.109ZM-50.074-4.3a4.961,4.961,0,0,1,.914-3.152,2.962,2.962,0,0,1,2.453-1.16A2.96,2.96,0,0,1-44.34-7.6l.063-.852h1.328V3.25h-1.445V-.781a3.033,3.033,0,0,1-2.328.938,2.915,2.915,0,0,1-2.441-1.191,5.072,5.072,0,0,1-.91-3.16Zm1.445.164a3.761,3.761,0,0,0,.613,2.281,1.951,1.951,0,0,0,1.652.828,2.164,2.164,0,0,0,1.969-1.141V-6.3a2.171,2.171,0,0,0-1.953-1.117,1.965,1.965,0,0,0-1.664.832A4.094,4.094,0,0,0-48.629-4.133Zm13.219,3.3a3.07,3.07,0,0,1-2.477.992,2.628,2.628,0,0,1-2.059-.785,3.4,3.4,0,0,1-.715-2.324v-5.5h1.445v5.461q0,1.922,1.563,1.922a2.163,2.163,0,0,0,2.2-1.234V-8.453H-34V0h-1.375ZM-28.3.156A3.693,3.693,0,0,1-31.1-.973a4.19,4.19,0,0,1-1.078-3.02v-.266A5.073,5.073,0,0,1-31.7-6.5a3.748,3.748,0,0,1,1.344-1.547,3.378,3.378,0,0,1,1.871-.559,3.166,3.166,0,0,1,2.563,1.086A4.7,4.7,0,0,1-25-4.414v.6H-30.73A3,3,0,0,0-30-1.793a2.3,2.3,0,0,0,1.777.77,2.517,2.517,0,0,0,1.3-.312A3.259,3.259,0,0,0-26-2.164l.883.688A3.55,3.55,0,0,1-28.3.156Zm-.18-7.578a1.928,1.928,0,0,0-1.469.637A3.1,3.1,0,0,0-30.684-5h4.234v-.109a2.753,2.753,0,0,0-.594-1.707A1.815,1.815,0,0,0-28.48-7.422Zm11.875,5.3,1.969-6.336h1.547l-3.4,9.758Q-17.277,3.414-19,3.414l-.273-.023-.539-.1V2.117l.391.031a1.923,1.923,0,0,0,1.145-.3A2.148,2.148,0,0,0-17.6.766l.32-.859-3.016-8.359h1.578Zm5.023-6.055-.82-.562a3.761,3.761,0,0,0,.75-2.141V-12h1.43v1.016a3.613,3.613,0,0,1-.387,1.559A3.6,3.6,0,0,1-11.582-8.172ZM4.449-5.32A7.037,7.037,0,0,1,3.887-2.4,4.261,4.261,0,0,1,2.293-.5,4.385,4.385,0,0,1-.113.156,4.347,4.347,0,0,1-2.5-.5,4.363,4.363,0,0,1-4.109-2.387,6.752,6.752,0,0,1-4.7-5.219v-.82a6.953,6.953,0,0,1,.57-2.9,4.347,4.347,0,0,1,1.613-1.926,4.329,4.329,0,0,1,2.387-.668,4.41,4.41,0,0,1,2.41.66A4.253,4.253,0,0,1,3.887-8.957a7.071,7.071,0,0,1,.563,2.918ZM2.957-6.055A5.1,5.1,0,0,0,2.145-9.16,2.68,2.68,0,0,0-.129-10.242,2.651,2.651,0,0,0-2.367-9.16a5,5,0,0,0-.84,3v.836a5.107,5.107,0,0,0,.824,3.082A2.662,2.662,0,0,0-.113-1.117a2.652,2.652,0,0,0,2.25-1.059,5.079,5.079,0,0,0,.82-3.035Zm8.492-6.094.828.563a3.685,3.685,0,0,0-.75,2.141v1.063H10.09v-.906a3.584,3.584,0,0,1,.379-1.578A3.783,3.783,0,0,1,11.449-12.148Zm5.016,6.781L18.34-8.453h1.688l-2.766,4.18L20.113,0H18.441L16.488-3.164,14.535,0h-1.68l2.852-4.273-2.766-4.18h1.672ZM26.879-8.453l.039.938a3.122,3.122,0,0,1,2.508-1.094A2.417,2.417,0,0,1,31.84-7.25a3.2,3.2,0,0,1,1.1-.984,3.242,3.242,0,0,1,1.6-.375q2.781,0,2.828,2.945V0H35.918V-5.578A1.941,1.941,0,0,0,35.5-6.934a1.823,1.823,0,0,0-1.391-.449,1.917,1.917,0,0,0-1.336.48,1.949,1.949,0,0,0-.617,1.293V0H30.707V-5.539a1.613,1.613,0,0,0-1.8-1.844,1.934,1.934,0,0,0-1.945,1.211V0H25.512V-8.453ZM43.051.156a3.693,3.693,0,0,1-2.8-1.129,4.19,4.19,0,0,1-1.078-3.02v-.266a5.073,5.073,0,0,1,.48-2.246A3.748,3.748,0,0,1,41-8.051a3.378,3.378,0,0,1,1.871-.559,3.166,3.166,0,0,1,2.563,1.086,4.7,4.7,0,0,1,.914,3.109v.6H40.621a3,3,0,0,0,.73,2.02,2.3,2.3,0,0,0,1.777.77,2.517,2.517,0,0,0,1.3-.312,3.259,3.259,0,0,0,.93-.828l.883.688A3.55,3.55,0,0,1,43.051.156Zm-.18-7.578a1.928,1.928,0,0,0-1.469.637A3.1,3.1,0,0,0,40.668-5H44.9v-.109a2.753,2.753,0,0,0-.594-1.707A1.815,1.815,0,0,0,42.871-7.422Zm6.516-1.031.047,1.063a3.08,3.08,0,0,1,2.531-1.219q2.68,0,2.7,3.023V0H53.223V-5.594A1.946,1.946,0,0,0,52.8-6.945a1.675,1.675,0,0,0-1.277-.437,2.086,2.086,0,0,0-1.234.375,2.546,2.546,0,0,0-.828.984V0H48.02V-8.453ZM56.465-4.3a4.993,4.993,0,0,1,.488-2.234A3.643,3.643,0,0,1,58.313-8.07,3.7,3.7,0,0,1,60.3-8.609a3.565,3.565,0,0,1,2.793,1.2,4.6,4.6,0,0,1,1.066,3.18v.1a5.036,5.036,0,0,1-.473,2.215A3.589,3.589,0,0,1,62.336-.391a3.743,3.743,0,0,1-2.02.547,3.556,3.556,0,0,1-2.785-1.2A4.575,4.575,0,0,1,56.465-4.2Zm1.453.172a3.616,3.616,0,0,0,.652,2.258,2.088,2.088,0,0,0,1.746.852,2.075,2.075,0,0,0,1.75-.863A3.955,3.955,0,0,0,62.715-4.3a3.61,3.61,0,0,0-.66-2.254A2.1,2.1,0,0,0,60.3-7.422a2.075,2.075,0,0,0-1.727.852A3.925,3.925,0,0,0,57.918-4.133ZM70.059-7.156a4.331,4.331,0,0,0-.711-.055A1.9,1.9,0,0,0,67.418-6V0H65.973V-8.453h1.406l.023.977a2.251,2.251,0,0,1,2.016-1.133,1.477,1.477,0,0,1,.641.109ZM75-4.3a4.961,4.961,0,0,1,.914-3.152,2.962,2.962,0,0,1,2.453-1.16A2.96,2.96,0,0,1,80.73-7.6l.063-.852h1.328V3.25H80.676V-.781a3.033,3.033,0,0,1-2.328.938,2.915,2.915,0,0,1-2.441-1.191A5.072,5.072,0,0,1,75-4.2Zm1.445.164a3.761,3.761,0,0,0,.613,2.281,1.951,1.951,0,0,0,1.652.828,2.164,2.164,0,0,0,1.969-1.141V-6.3a2.171,2.171,0,0,0-1.953-1.117,1.965,1.965,0,0,0-1.664.832A4.094,4.094,0,0,0,76.441-4.133ZM89.66-.836a3.07,3.07,0,0,1-2.477.992,2.628,2.628,0,0,1-2.059-.785,3.4,3.4,0,0,1-.715-2.324v-5.5h1.445v5.461q0,1.922,1.563,1.922a2.163,2.163,0,0,0,2.2-1.234V-8.453h1.445V0H89.691ZM96.77.156a3.693,3.693,0,0,1-2.8-1.129,4.19,4.19,0,0,1-1.078-3.02v-.266a5.073,5.073,0,0,1,.48-2.246,3.748,3.748,0,0,1,1.344-1.547,3.378,3.378,0,0,1,1.871-.559,3.166,3.166,0,0,1,2.563,1.086,4.7,4.7,0,0,1,.914,3.109v.6H94.34a3,3,0,0,0,.73,2.02,2.3,2.3,0,0,0,1.777.77,2.517,2.517,0,0,0,1.3-.312,3.259,3.259,0,0,0,.93-.828l.883.688A3.55,3.55,0,0,1,96.77.156Zm-.18-7.578a1.928,1.928,0,0,0-1.469.637A3.1,3.1,0,0,0,94.387-5h4.234v-.109a2.753,2.753,0,0,0-.594-1.707A1.815,1.815,0,0,0,96.59-7.422ZM107.059-1.18H112V0h-6.711V-1.062l4.664-6.2h-4.594v-1.2h6.406V-7.43Zm6.672-6.992-.82-.562a3.761,3.761,0,0,0,.75-2.141V-12h1.43v1.016a3.613,3.613,0,0,1-.387,1.559A3.6,3.6,0,0,1,113.73-8.172Z" transform="translate(1220 10257)" fill="#12263f"/>
      <path id="Trazado_191418" data-name="Trazado 191418" d="M-69.418-5.367l1.875-3.086h1.688l-2.766,4.18L-65.77,0h-1.672l-1.953-3.164L-71.348,0h-1.68l2.852-4.273-2.766-4.18h1.672ZM-51.395,0H-52.9l-5.727-8.766V0h-1.508V-11.375h1.508l5.742,8.8v-8.8h1.492ZM-39.98-5.32A7.037,7.037,0,0,1-40.543-2.4,4.261,4.261,0,0,1-42.137-.5a4.385,4.385,0,0,1-2.406.656A4.347,4.347,0,0,1-46.926-.5a4.363,4.363,0,0,1-1.613-1.883,6.752,6.752,0,0,1-.59-2.832v-.82a6.953,6.953,0,0,1,.57-2.9,4.347,4.347,0,0,1,1.613-1.926,4.329,4.329,0,0,1,2.387-.668,4.41,4.41,0,0,1,2.41.66,4.253,4.253,0,0,1,1.605,1.914,7.071,7.071,0,0,1,.563,2.918Zm-1.492-.734a5.1,5.1,0,0,0-.812-3.105,2.68,2.68,0,0,0-2.273-1.082A2.651,2.651,0,0,0-46.8-9.16a5,5,0,0,0-.84,3v.836a5.107,5.107,0,0,0,.824,3.082,2.662,2.662,0,0,0,2.27,1.121,2.652,2.652,0,0,0,2.25-1.059,5.079,5.079,0,0,0,.82-3.035ZM-30.488.156a3.693,3.693,0,0,1-2.8-1.129,4.19,4.19,0,0,1-1.078-3.02v-.266a5.073,5.073,0,0,1,.48-2.246,3.748,3.748,0,0,1,1.344-1.547,3.378,3.378,0,0,1,1.871-.559,3.166,3.166,0,0,1,2.563,1.086,4.7,4.7,0,0,1,.914,3.109v.6h-5.727a3,3,0,0,0,.73,2.02,2.3,2.3,0,0,0,1.777.77,2.517,2.517,0,0,0,1.3-.312,3.259,3.259,0,0,0,.93-.828l.883.688A3.55,3.55,0,0,1-30.488.156Zm-.18-7.578a1.928,1.928,0,0,0-1.469.637A3.1,3.1,0,0,0-32.871-5h4.234v-.109a2.753,2.753,0,0,0-.594-1.707A1.815,1.815,0,0,0-30.668-7.422Zm10.07,5.18a1.064,1.064,0,0,0-.441-.91,4.249,4.249,0,0,0-1.539-.559,7.277,7.277,0,0,1-1.742-.562,2.479,2.479,0,0,1-.953-.781,1.869,1.869,0,0,1-.309-1.078A2.193,2.193,0,0,1-24.7-7.891a3.432,3.432,0,0,1,2.246-.719,3.532,3.532,0,0,1,2.332.742,2.357,2.357,0,0,1,.895,1.9h-1.453a1.3,1.3,0,0,0-.5-1.023,1.888,1.888,0,0,0-1.27-.43,1.976,1.976,0,0,0-1.234.344,1.082,1.082,0,0,0-.445.9.877.877,0,0,0,.414.789,5.1,5.1,0,0,0,1.5.508,7.8,7.8,0,0,1,1.754.578,2.558,2.558,0,0,1,1,.809,1.988,1.988,0,0,1,.324,1.152,2.163,2.163,0,0,1-.906,1.816A3.8,3.8,0,0,1-22.41.156a4.257,4.257,0,0,1-1.8-.359,2.922,2.922,0,0,1-1.223-1A2.42,2.42,0,0,1-25.871-2.6h1.445a1.5,1.5,0,0,0,.582,1.152,2.258,2.258,0,0,0,1.434.426,2.331,2.331,0,0,0,1.316-.332A1.02,1.02,0,0,0-20.6-2.242Zm8.648-6.211.039.938A3.122,3.122,0,0,1-9.4-8.609,2.417,2.417,0,0,1-6.988-7.25a3.2,3.2,0,0,1,1.1-.984,3.242,3.242,0,0,1,1.6-.375q2.781,0,2.828,2.945V0H-2.91V-5.578a1.941,1.941,0,0,0-.414-1.355,1.823,1.823,0,0,0-1.391-.449,1.916,1.916,0,0,0-1.336.48,1.949,1.949,0,0,0-.617,1.293V0H-8.121V-5.539a1.613,1.613,0,0,0-1.8-1.844,1.934,1.934,0,0,0-1.945,1.211V0h-1.445V-8.453ZM4.223.156a3.693,3.693,0,0,1-2.8-1.129A4.19,4.19,0,0,1,.348-3.992v-.266A5.073,5.073,0,0,1,.828-6.5,3.748,3.748,0,0,1,2.172-8.051a3.378,3.378,0,0,1,1.871-.559A3.166,3.166,0,0,1,6.605-7.523,4.7,4.7,0,0,1,7.52-4.414v.6H1.793a3,3,0,0,0,.73,2.02,2.3,2.3,0,0,0,1.777.77,2.517,2.517,0,0,0,1.3-.312,3.259,3.259,0,0,0,.93-.828l.883.688A3.55,3.55,0,0,1,4.223.156Zm-.18-7.578a1.928,1.928,0,0,0-1.469.637A3.1,3.1,0,0,0,1.84-5H6.074v-.109A2.753,2.753,0,0,0,5.48-6.816,1.815,1.815,0,0,0,4.043-7.422Zm6.516-1.031.047,1.063a3.08,3.08,0,0,1,2.531-1.219q2.68,0,2.7,3.023V0H14.395V-5.594a1.946,1.946,0,0,0-.418-1.352A1.675,1.675,0,0,0,12.7-7.383a2.086,2.086,0,0,0-1.234.375,2.546,2.546,0,0,0-.828.984V0H9.191V-8.453ZM17.637-4.3a4.993,4.993,0,0,1,.488-2.234A3.643,3.643,0,0,1,19.484-8.07a3.7,3.7,0,0,1,1.988-.539,3.565,3.565,0,0,1,2.793,1.2,4.6,4.6,0,0,1,1.066,3.18v.1a5.036,5.036,0,0,1-.473,2.215A3.589,3.589,0,0,1,23.508-.391a3.743,3.743,0,0,1-2.02.547,3.556,3.556,0,0,1-2.785-1.2A4.575,4.575,0,0,1,17.637-4.2Zm1.453.172a3.616,3.616,0,0,0,.652,2.258,2.088,2.088,0,0,0,1.746.852,2.075,2.075,0,0,0,1.75-.863A3.955,3.955,0,0,0,23.887-4.3a3.61,3.61,0,0,0-.66-2.254,2.1,2.1,0,0,0-1.754-.863,2.075,2.075,0,0,0-1.727.852A3.925,3.925,0,0,0,19.09-4.133ZM31.23-7.156a4.331,4.331,0,0,0-.711-.055A1.9,1.9,0,0,0,28.59-6V0H27.145V-8.453h1.406l.023.977A2.251,2.251,0,0,1,30.59-8.609a1.477,1.477,0,0,1,.641.109ZM36.168-4.3a4.961,4.961,0,0,1,.914-3.152,2.962,2.962,0,0,1,2.453-1.16A2.96,2.96,0,0,1,41.9-7.6l.063-.852h1.328V3.25H41.848V-.781A3.033,3.033,0,0,1,39.52.156a2.915,2.915,0,0,1-2.441-1.191,5.072,5.072,0,0,1-.91-3.16Zm1.445.164a3.761,3.761,0,0,0,.613,2.281,1.951,1.951,0,0,0,1.652.828,2.164,2.164,0,0,0,1.969-1.141V-6.3a2.171,2.171,0,0,0-1.953-1.117,1.965,1.965,0,0,0-1.664.832A4.094,4.094,0,0,0,37.613-4.133Zm13.219,3.3a3.07,3.07,0,0,1-2.477.992A2.628,2.628,0,0,1,46.3-.629a3.4,3.4,0,0,1-.715-2.324v-5.5h1.445v5.461q0,1.922,1.563,1.922a2.163,2.163,0,0,0,2.2-1.234V-8.453h1.445V0H50.863Zm7.109.992a3.693,3.693,0,0,1-2.8-1.129,4.19,4.19,0,0,1-1.078-3.02v-.266a5.073,5.073,0,0,1,.48-2.246,3.748,3.748,0,0,1,1.344-1.547,3.378,3.378,0,0,1,1.871-.559,3.166,3.166,0,0,1,2.563,1.086,4.7,4.7,0,0,1,.914,3.109v.6H55.512a3,3,0,0,0,.73,2.02,2.3,2.3,0,0,0,1.777.77,2.517,2.517,0,0,0,1.3-.312,3.259,3.259,0,0,0,.93-.828l.883.688A3.55,3.55,0,0,1,57.941.156Zm-.18-7.578a1.928,1.928,0,0,0-1.469.637A3.1,3.1,0,0,0,55.559-5h4.234v-.109A2.753,2.753,0,0,0,59.2-6.816,1.815,1.815,0,0,0,57.762-7.422Zm11.875,5.3,1.969-6.336h1.547L69.754,1.3q-.789,2.109-2.508,2.109l-.273-.023-.539-.1V2.117l.391.031a1.923,1.923,0,0,0,1.145-.3A2.149,2.149,0,0,0,68.645.766l.32-.859L65.949-8.453h1.578Z" transform="translate(1220 10302)" fill="#12263f"/>
    </g>
  </g>
</svg>
