<svg xmlns="http://www.w3.org/2000/svg" xmlns:xlink="http://www.w3.org/1999/xlink" width="400" height="420.706" viewBox="0 0 400 420.706">
  <defs>
    <clipPath id="clip-path">
      <rect id="Rectángulo_293779" data-name="Rectángulo 293779" width="390.322" height="329.435" transform="translate(0 -26)" fill="none"/>
    </clipPath>
  </defs>
  <g id="Grupo_131823" data-name="Grupo 131823" transform="translate(-180 -1688)">
    <rect id="Rectángulo_293780" data-name="Rectángulo 293780" width="227.147" height="230.525" rx="10" transform="translate(256.377 1848.617) rotate(-45)" fill="#b9ddfc"/>
    <g id="Grupo_130627" data-name="Grupo 130627" transform="translate(180 1805.271)">
      <g id="Grupo_130666" data-name="Grupo 130666" transform="translate(0 0)" clip-path="url(#clip-path)">
        <g id="Grupo_130644" data-name="Grupo 130644" transform="translate(51.755 7.736)">
          <g id="Grupo_130636" data-name="Grupo 130636" transform="translate(61.754 0)">
            <path id="Trazado_190602" data-name="Trazado 190602" d="M-718.587,571.982h-52.552l14.338-31.073h23.877Z" transform="translate(830.154 -428.535)" fill="#ccf9ff"/>
            <path id="Trazado_190603" data-name="Trazado 190603" d="M-637.225,594.586c-173.646,0-166.6,1.516-166.6-3.41,0-116.731-1.461-112.668,3.408-112.668,173.646,0,166.6-1.518,166.6,3.408C-633.817,598.649-632.356,594.586-637.225,594.586Z" transform="translate(804.025 -478.288)" fill="#ccf9ff"/>
            <path id="Trazado_190604" data-name="Trazado 190604" d="M-642.7,570.716c-165.021,0-159.008,1.556-159.008-3.41,0-88.155-1.448-86.9,3.408-86.9,165.019,0,159.01-1.556,159.01,3.408C-639.29,571.967-637.843,570.716-642.7,570.716Z" transform="translate(805.706 -476.792)" fill="#fff1d1"/>
            <path id="Trazado_190605" data-name="Trazado 190605" d="M-754.6,543.807c-6.239,0-6.247-9.445,0-9.445S-748.355,543.807-754.6,543.807Z" transform="translate(839.573 -433.736)" fill="#72787a"/>
            <g id="Grupo_130635" data-name="Grupo 130635" transform="translate(22.109 9.312)">
              <g id="Grupo_130633" data-name="Grupo 130633">
                <g id="Grupo_130627-2" data-name="Grupo 130627">
                  <path id="Trazado_190606" data-name="Trazado 190606" d="M-671.02,561.323c-122.7,0-120.157,1.832-120.157-4.481,0-71.588-1.692-72.8,4.481-72.8,122.7,0,120.159-1.83,120.159,4.481C-666.537,560.108-664.847,561.323-671.02,561.323Z" transform="translate(791.956 -483.227)" fill="#fff"/>
                  <path id="Trazado_190607" data-name="Trazado 190607" d="M-761.859,562.387c-22.081,0-27.153-.39-28.883-2.125a3.555,3.555,0,0,1-.752-2.8l0-.373c0-15.348-.077-27.365-.14-37.021-.172-26.912-.214-33.306,1.9-35.44.836-.842,1.935-.908,3.282-.908,27.718,0,48.642-.09,65.455-.165,44.276-.194,52.254-.228,54.519,2.044a3.567,3.567,0,0,1,.752,2.8l0,.373c0,15.347.077,27.365.14,37.021.172,26.912.214,33.306-1.9,35.44-.836.84-1.932.908-3.282.908-27.718,0-48.642.09-65.455.163C-746.647,562.351-755.059,562.387-761.859,562.387Zm66.038-77.778c-6.767,0-15.049.038-25.164.081-16.815.074-37.74.165-65.46.165-1.154,0-1.949.041-2.48.574-1.787,1.8-1.737,9.412-1.575,34.636.063,9.658.138,21.676.138,37.028l0,.384c-.007,1.017.007,1.568.422,1.985,1.933,1.94,12.9,1.893,53.713,1.712,16.815-.074,37.74-.163,65.46-.163,1.154,0,1.949-.041,2.48-.576,1.787-1.8,1.737-9.41,1.576-34.636-.061-9.656-.138-21.678-.138-37.026l0-.384c.009-1.017-.007-1.568-.422-1.987C-668.725,484.943-675.292,484.609-695.821,484.609Z" transform="translate(791.705 -483.477)" fill="#eee4d9"/>
                </g>
                <g id="Grupo_130628" data-name="Grupo 130628" transform="translate(0.213 0.019)">
                  <path id="Trazado_190608" data-name="Trazado 190608" d="M-666.631,487.872h-124.64a3.841,3.841,0,0,1,3.84-3.84C-662.72,484.032-666.631,482.392-666.631,487.872Z" transform="translate(791.836 -483.238)" fill="#0ddcf1"/>
                  <path id="Trazado_190609" data-name="Trazado 190609" d="M-665.818,488.687H-791.586v-.565a4.411,4.411,0,0,1,4.406-4.406c28.945,0,51.348-.09,67.705-.156,43.293-.169,51.091-.2,53.06,1.8a2.851,2.851,0,0,1,.6,2.29c0,.153-.007.309-.007.472Zm-124.589-1.129h123.468c.016-.72,0-1.113-.284-1.405-1.631-1.665-12.352-1.619-52.247-1.463-13.208.056-34.175.156-67.71.156A3.281,3.281,0,0,0-790.407,487.558Z" transform="translate(791.586 -483.488)" fill="#0ddcf1"/>
                </g>
                <g id="Grupo_130632" data-name="Grupo 130632" transform="translate(119.512 1.697)">
                  <path id="Trazado_190610" data-name="Trazado 190610" d="M-724.616,486.494h1.635c.589,0,.773-2.071,0-2.071h-1.635c-.736,0-.425,2.191-.425,1.647A.424.424,0,0,0-724.616,486.494Z" transform="translate(725.106 -484.423)" fill="#bec0c2"/>
                  <g id="Grupo_130631" data-name="Grupo 130631" transform="translate(0.301 0.15)">
                    <g id="Grupo_130629" data-name="Grupo 130629">
                      <path id="Trazado_190611" data-name="Trazado 190611" d="M-724.656,486.278a.283.283,0,0,1-.217-.1.282.282,0,0,1,.036-.4l1.448-1.208a.282.282,0,0,1,.4.038.28.28,0,0,1-.036.4l-1.45,1.208A.283.283,0,0,1-724.656,486.278Z" transform="translate(724.939 -484.507)" fill="#fff"/>
                    </g>
                    <g id="Grupo_130630" data-name="Grupo 130630">
                      <path id="Trazado_190612" data-name="Trazado 190612" d="M-723.207,486.278a.291.291,0,0,1-.181-.065l-1.448-1.208a.28.28,0,0,1-.036-.4.28.28,0,0,1,.4-.038l1.45,1.208a.282.282,0,0,1,.036.4A.282.282,0,0,1-723.207,486.278Z" transform="translate(724.939 -484.507)" fill="#fff"/>
                    </g>
                  </g>
                </g>
              </g>
              <g id="Grupo_130634" data-name="Grupo 130634" transform="translate(17.594 17.216)">
                <path id="Trazado_190613" data-name="Trazado 190613" d="M-749.977,497.666c-32.877,0-31.9.355-31.9-.782,0-2.688-.233-3.724.784-3.724,32.875,0,31.9-.353,31.9.784C-749.193,496.631-748.961,497.666-749.977,497.666Z" transform="translate(781.901 -493.041)" fill="#ffb30c"/>
                <path id="Trazado_190614" data-name="Trazado 190614" d="M-725.408,519.8c-58.982,0-56.47.483-56.47-1.041,0-2.072-.269-3.465,1.041-3.465,58.98,0,56.47-.483,56.47,1.041C-724.367,518.411-724.1,519.8-725.408,519.8Z" transform="translate(781.901 -475.469)" fill="#ffb30c"/>
                <path id="Trazado_190615" data-name="Trazado 190615" d="M-700.781,497.773c-62.546,0-60.529.63-60.529-1.371,0-1.441-.278-3.237,1.371-3.237,62.548,0,60.531-.63,60.531,1.373C-699.409,495.977-699.13,497.773-700.781,497.773Z" transform="translate(798.246 -493.071)" fill="#113356"/>
                <path id="Trazado_190616" data-name="Trazado 190616" d="M-749.977,503.253c-32.877,0-31.9.355-31.9-.784,0-2.686-.233-3.722.784-3.722,32.875,0,31.9-.355,31.9.784C-749.193,502.218-748.961,503.253-749.977,503.253Z" transform="translate(781.901 -488.602)" fill="#ffb30c"/>
                <path id="Trazado_190617" data-name="Trazado 190617" d="M-706.947,503.355c-56.235,0-54.363.574-54.363-1.3,0-1.583-.282-3.309,1.3-3.309,56.233,0,54.361-.573,54.361,1.3C-705.647,501.628-705.366,503.355-706.947,503.355Z" transform="translate(798.246 -488.627)" fill="#113356"/>
                <path id="Trazado_190618" data-name="Trazado 190618" d="M-749.977,509.2c-32.877,0-31.9.353-31.9-.786,0-2.686-.233-3.722.784-3.722,32.875,0,31.9-.353,31.9.784C-749.193,508.167-748.961,509.2-749.977,509.2Z" transform="translate(781.901 -483.875)" fill="#ffb30c"/>
                <path id="Trazado_190619" data-name="Trazado 190619" d="M-717.232,509.3c-45.374,0-44.075.5-44.075-1.174,0-1.784-.3-3.437,1.172-3.437,45.374,0,44.075-.506,44.075,1.174C-716.06,507.648-715.757,509.3-717.232,509.3Z" transform="translate(798.243 -483.895)" fill="#113356"/>
                <path id="Trazado_190620" data-name="Trazado 190620" d="M-717.232,515.444c-45.374,0-44.075.506-44.075-1.172,0-1.782-.3-3.436,1.172-3.436,45.374,0,44.075-.506,44.075,1.172C-716.06,513.791-715.757,515.444-717.232,515.444Z" transform="translate(798.243 -479.013)" fill="#113356"/>
                <path id="Trazado_190621" data-name="Trazado 190621" d="M-749.977,515.153c-32.877,0-31.9.354-31.9-.784,0-2.688-.233-3.724.784-3.724,32.875,0,31.9-.354,31.9.786C-749.193,514.119-748.961,515.153-749.977,515.153Z" transform="translate(781.901 -479.149)" fill="#ffb30c"/>
                <path id="Trazado_190622" data-name="Trazado 190622" d="M-710.519,519.875c-39.26,0-38.178.467-38.178-1.093,0-1.846-.319-3.517,1.093-3.517,39.257,0,38.176-.465,38.176,1.093C-709.428,518.2-709.107,519.875-710.519,519.875Z" transform="translate(808.257 -475.489)" fill="#113356"/>
              </g>
            </g>
          </g>
          <g id="Grupo_130643" data-name="Grupo 130643" transform="translate(0 143.504)">
            <path id="Trazado_190623" data-name="Trazado 190623" d="M-517.356,594.605c0-37.8.332-36.287-.729-36.287-336.245,0-319.17-.379-319.17.728v35.558C-837.255,595.436-517.356,596.009-517.356,594.605Z" transform="translate(839.263 -558.256)" fill="#cc8f08"/>
            <g id="Grupo_130639" data-name="Grupo 130639" transform="translate(179.271 6.52)">
              <g id="Grupo_130638" data-name="Grupo 130638">
                <path id="Trazado_190624" data-name="Trazado 190624" d="M-616.414,584.908c-126.893,0-122.034,1.181-122.034-2.728,0-17.479-.861-20.124,2.728-20.124,126.892,0,122.034-1.181,122.034,2.728C-613.686,582.263-612.825,584.908-616.414,584.908Z" transform="translate(738.539 -561.89)" fill="#ffb30c"/>
                <g id="Grupo_130637" data-name="Grupo 130637" transform="translate(57.714 6.642)">
                  <path id="Trazado_190625" data-name="Trazado 190625" d="M-701.62,575.19c-6.34,0-6.347-9.6,0-9.6S-695.272,575.19-701.62,575.19Z" transform="translate(706.377 -565.591)" fill="#cc8f08"/>
                </g>
              </g>
            </g>
            <g id="Grupo_130642" data-name="Grupo 130642" transform="translate(43.999 6.52)">
              <g id="Grupo_130641" data-name="Grupo 130641">
                <path id="Trazado_190626" data-name="Trazado 190626" d="M-691.795,584.908c-126.893,0-122.034,1.181-122.034-2.728,0-17.479-.861-20.124,2.728-20.124,126.893,0,122.034-1.181,122.034,2.728C-689.067,582.263-688.206,584.908-691.795,584.908Z" transform="translate(813.919 -561.89)" fill="#ffb30c"/>
                <g id="Grupo_130640" data-name="Grupo 130640" transform="translate(57.714 6.642)">
                  <path id="Trazado_190627" data-name="Trazado 190627" d="M-777,575.19c-6.34,0-6.347-9.6,0-9.6S-770.653,575.19-777,575.19Z" transform="translate(781.758 -565.591)" fill="#cc8f08"/>
                </g>
              </g>
            </g>
            <rect id="Rectángulo_293778" data-name="Rectángulo 293778" width="226.672" height="10.054" transform="translate(54.335 37.079)" fill="#ffb30c"/>
            <path id="Trazado_190628" data-name="Trazado 190628" d="M-669.969,581.039-643.444,727c.89,4.9-5.148,4.492-5.958,1.464-41.15-154-41.523-149.642-36.667-149.6C-672.1,578.969-670.463,578.326-669.969,581.039Z" transform="translate(957.823 -541.903)" fill="#cc8f08"/>
            <path id="Trazado_190629" data-name="Trazado 190629" d="M-811.9,581.056c-.113.614-26.629,146.134-26.539,146.751.752,5.086,5.436,2.672,5.976.65,41.259-154.41,41.415-149.637,36.64-149.6C-809.79,578.97-811.407,578.342-811.9,581.056Z" transform="translate(838.438 -541.905)" fill="#cc8f08"/>
            <path id="Trazado_190630" data-name="Trazado 190630" d="M-813.743,600.053c.19.594,45.139,141.517,45.511,142.017,3.052,4.138,6.051-.2,5.577-2.234-36.109-155.693-33.73-151.552-37.925-149.276C-812.86,597.222-814.583,597.426-813.743,600.053Z" transform="translate(857.915 -533.088)" fill="#cc8f08"/>
          </g>
        </g>
        <g id="Grupo_130645" data-name="Grupo 130645" transform="translate(99.866 122.951)">
          <path id="Trazado_190631" data-name="Trazado 190631" d="M-816.087,593.709l-.252-.829c14.812-4.509,13.442-12.335,11.708-22.245-1.619-9.247-3.633-20.755,7.76-32.467l.622.606c-11.083,11.392-9.195,22.188-7.527,31.712C-802.039,580.41-800.54,588.978-816.087,593.709Z" transform="translate(816.339 -538.168)" fill="#84534a"/>
        </g>
        <g id="Grupo_130665" data-name="Grupo 130665" transform="translate(18 9.89)">
          <g id="Grupo_130649" data-name="Grupo 130649" transform="translate(81.469 179.5)">
            <path id="Trazado_190632" data-name="Trazado 190632" d="M-733.943,653.165c2.972,2.191-11.6,17.042-24.163,19.043l-2.8-3.5c-1.556-12.856-4.158-7.874,11.711-19.688Z" transform="translate(851.385 -524.298)" fill="#ba3213"/>
            <path id="Trazado_190633" data-name="Trazado 190633" d="M-715.311,667.559c-12.8,7.16-23.314,23.305-30.017,20.414s-10.659-23.162-14.32-27.117l5.638-6.247c1.633-.231-.027,0,9.755-1.369a33.677,33.677,0,0,0,3.131,4.224c10.841,11.84,38.846-10.532,42.108-6.516C-695.23,655.648-710.046,664.608-715.311,667.559Z" transform="translate(853.323 -523.151)" fill="#fcbda9"/>
            <path id="Trazado_190634" data-name="Trazado 190634" d="M-703.982,658.864a79.636,79.636,0,0,1-11.329,7.463c-12.8,7.16-23.314,23.305-30.017,20.414s-10.659-23.162-14.32-27.117c.027-.029,6.871-6.4,6.9-6.426l8.493-1.19a33.675,33.675,0,0,0,3.131,4.224c-.858,4.135-3.91,13.3-2.907,17.175,2.982,11.517,18.837-5.868,30.848-10.509C-710.355,661.8-706.559,660.072-703.982,658.864Z" transform="translate(853.323 -521.92)" fill="#d1778e" opacity="0.5"/>
            <g id="Grupo_130646" data-name="Grupo 130646" transform="translate(42.787 59.468)">
              <path id="Trazado_190635" data-name="Trazado 190635" d="M-713.626,681.745c-3.047-.152-17.67,3.961-26.963,15.539,0,0-32.141-26.657-47.07-67.788l27.878-16.452s23.611,40.52,30.921,51.335A89.982,89.982,0,0,0-713.626,681.745Z" transform="translate(788.282 -612.346)" fill="#0d1d3f"/>
              <path id="Trazado_190636" data-name="Trazado 190636" d="M-740.24,698.314l-.4-.33c-.323-.266-32.418-27.219-47.224-68l-.143-.4,28.682-16.926.257.441c.237.406,23.686,40.629,30.905,51.307a90.321,90.321,0,0,0,15.137,17.26l1.181.976-1.531-.077c-2.431-.128-17.024,3.492-26.541,15.348Zm-46.523-68.286c13.879,37.868,42.69,63.646,46.384,66.84,8.343-10.1,20.912-14.588,25.767-15.241A94.258,94.258,0,0,1-729,664.974c-6.828-10.1-28.095-46.485-30.684-50.923Z" transform="translate(788.006 -612.655)" fill="#3b3348"/>
            </g>
            <path id="Trazado_190637" data-name="Trazado 190637" d="M-778.3,662.869c-1.333,5.462,27.192,15.366,35.951,8.529l-3.008-21.174-25.306.628Z" transform="translate(838.466 -523.337)" fill="#ba3213"/>
            <path id="Trazado_190638" data-name="Trazado 190638" d="M-727.451,698.15c-17.371-.061-13.2-5.26-30.392-6.512s-22.562-4.056-22.169-10.051,10.654-21.633,11.768-27.763c16.267,5.911,11.951,4.343,16.969,6.168-2.2,11.923-1.127,17.7,11.993,23.418C-724.2,689.983-710.981,698.191-727.451,698.15Z" transform="translate(837.128 -520.478)" fill="#fcbda9"/>
            <path id="Trazado_190639" data-name="Trazado 190639" d="M-720.526,695.985c-1.019.7-3.2,1.1-6.918,1.091-17.371-.061-13.2-5.26-30.392-6.512-36.087-2.631-19.248-13.209-11.1-35.388,16.21,2.744,12.7,1.936,17.667,3.742a42.763,42.763,0,0,0-.9,8.3c-19.612,1.332-26.853,15.74-3.616,19.663,8.529,1.448,20.486,7.928,25.283,8.458C-727.024,695.725-722.665,695.915-720.526,695.985Z" transform="translate(837.12 -519.403)" fill="#d1778e" opacity="0.5"/>
            <g id="Grupo_130647" data-name="Grupo 130647" transform="translate(0.477)">
              <path id="Trazado_190640" data-name="Trazado 190640" d="M-709.867,672.93c-5.486,14.776-7.463,43.109-6.4,54.377-3.4-5.1-15.2-13.367-35.949-8.527l12.789-82.255-44.936-5.488c-5.473-7.9-21.328-30.779-26.814-38.7,19.919-11.738,16.135-9.506,21.175-12.484,7.616,5.629,70.334,15.849,87.294,25.13C-686.178,614.041-704.388,658.154-709.867,672.93Z" transform="translate(811.906 -579.247)" fill="#113356"/>
              <path id="Trazado_190641" data-name="Trazado 190641" d="M-715.245,729.537l-1.122-1.678c-3.3-4.962-14.959-13.086-35.411-8.316l-.734.171.115-.745,12.709-81.736-44.64-5.45-.129-.189-27.126-39.145,7.008-4.131c10.6-6.247,10.6-6.247,12.99-7.659l1.94-1.143.269.2c3.42,2.527,18.99,6.186,35.476,10.056,19.94,4.685,42.541,9.992,51.761,15.038,15.75,8.628,1.333,46.718-5.592,65.022-.5,1.312-.948,2.5-1.335,3.544-5.314,14.308-7.492,42.279-6.369,54.155Zm-24.675-12.454c12.145,0,19.885,4.886,23.339,8.836-.8-12.764,1.441-39.111,6.561-52.9.386-1.046.836-2.238,1.335-3.551,6.293-16.63,21.03-55.567,6.057-63.773-9.1-4.978-31.628-10.268-51.5-14.938-16.892-3.968-31.535-7.406-35.567-10.035l-1.369.811c-2.387,1.41-2.387,1.41-12.99,7.657l-6.064,3.573,26.37,38.061,45.231,5.523-12.754,82.034A52.782,52.782,0,0,1-739.919,717.083Z" transform="translate(811.583 -579.516)" fill="#113356"/>
            </g>
            <path id="Trazado_190642" data-name="Trazado 190642" d="M-732.914,717.807l-.573.2a47.846,47.846,0,0,0-18.194,1.041l12.789-82.255-29.99-3.661c-1.093-.535-25.868-12.657-42.968-21.032l1.414-29.758,15.815-2.817c9.617,24.726,45.193,45.764,75.8,54.661C-730.726,677.925-739.566,701.576-732.914,717.807Z" transform="translate(811.849 -579.512)" fill="#3b3348" opacity="0.5"/>
            <g id="Grupo_130648" data-name="Grupo 130648" transform="translate(80.74 52.102)">
              <path id="Trazado_190643" data-name="Trazado 190643" d="M-766.117,613.408c-.1,0-.2,0-.3,0a.448.448,0,0,1-.44-.456.445.445,0,0,1,.447-.439,29.421,29.421,0,0,0,14.69-3.891.448.448,0,0,1,.617.138.449.449,0,0,1-.14.617C-755.644,612.166-761.96,613.408-766.117,613.408Z" transform="translate(766.856 -608.55)" fill="#3b3348"/>
            </g>
            <path id="Trazado_190644" data-name="Trazado 190644" d="M-748.738,669.731s.072-.133.213-.341c.16-.2.328-.5.519-.8a8.371,8.371,0,0,0,.942-2.284c.226-.861.364-1.845.565-2.629a7.239,7.239,0,0,1,.427-1.335,5.175,5.175,0,0,1,.6,1.288,5.594,5.594,0,0,1,.142,3.124,4.63,4.63,0,0,1-.318.856,3.779,3.779,0,0,1-.479.755,3.377,3.377,0,0,1-.583.59,3.516,3.516,0,0,1-.614.4,2.957,2.957,0,0,1-1.014.336C-748.587,669.726-748.738,669.731-748.738,669.731Z" transform="translate(861.991 -513.709)" fill="#d1868d"/>
            <path id="Trazado_190645" data-name="Trazado 190645" d="M-768.553,666.587s.029.1.061.26a2.2,2.2,0,0,1,.011.72,3.1,3.1,0,0,1-.285.985,3.972,3.972,0,0,1-.676.973,3.871,3.871,0,0,1-.966.695,2.953,2.953,0,0,1-.991.289,2.222,2.222,0,0,1-.718-.025c-.17-.039-.262-.068-.262-.068s.092-.047.242-.111a5.39,5.39,0,0,0,.589-.289,6.271,6.271,0,0,0,1.466-1.116,7.056,7.056,0,0,0,1.112-1.484,6.437,6.437,0,0,0,.3-.585C-768.6,666.675-768.553,666.587-768.553,666.587Z" transform="translate(843.208 -510.338)" fill="#d1868d"/>
          </g>
          <g id="Grupo_130655" data-name="Grupo 130655" transform="translate(56.642 83.62)">
            <path id="Trazado_190646" data-name="Trazado 190646" d="M-727.855,561.494c4.492-7.463,19.878-11.348,28.942-.075Z" transform="translate(903.41 -503.627)" fill="#9c9fa0"/>
            <path id="Trazado_190647" data-name="Trazado 190647" d="M-737.149,557.44c9.825-6.171,30.39-8.456,36.445-6.056s10.855,7.77,8.684,9.369-8.912-2.627-12.91-1.028c-11.009,4.4-14.2,9.669-33.134,9.026Z" transform="translate(895.299 -506.73)" fill="#f99889"/>
            <g id="Grupo_130650" data-name="Grupo 130650">
              <path id="Trazado_190648" data-name="Trazado 190648" d="M-664.383,591.884c-10.162,2.519-48.529,11.926-60.123,13.243-11.523,1.3-36.561-21.547-44.935-29.7a52.6,52.6,0,0,1-6.7,14.169c-4.244,6.078-7.137,20.678-5.118,23.957,1.762,2.622,6.514,6.606,7.1,8.8.61,2.283-3.194,9.593-20.109,14.473-21.294-36.536-14.333-24.59-31.072-53.322,34.971-51.441,11.295-16.608,38.84-57.125,15.941.23,61.414,53.324,65.925,52.516,52.391-9.378,49.667-9.482,51.239-7.733a29.641,29.641,0,0,1,6.439,13.306C-662.124,587.773-661.282,591.114-664.383,591.884Z" transform="translate(825.95 -525.859)" fill="#154f8d"/>
              <path id="Trazado_190649" data-name="Trazado 190649" d="M-794.249,637.642-825.684,583.7l.181-.264c18.717-27.533,20.633-30.352,22.595-33.236l16.4-24.117.273.005c10.27.147,32.154,21.414,48.134,36.945,8.007,7.783,16.26,15.853,17.694,15.578,11.957-2.139,21.042-3.8,27.964-5.059,22.421-4.09,22.426-4.092,23.576-2.71l.167.2a29.993,29.993,0,0,1,6.464,13.138l.144.576c.763,3.27,1.629,6.972-1.9,7.847-11.207,2.78-48.671,11.95-60.188,13.256-12.142,1.382-38.243-22.984-44.768-29.285a51.382,51.382,0,0,1-6.511,13.532c-4.251,6.091-6.937,20.242-5.13,23.356a33.358,33.358,0,0,0,3.124,3.636c1.893,2.017,3.679,3.919,4.057,5.344.712,2.674-3.449,10.184-20.459,15.088Zm-30.234-53.9,30.713,52.7c16.292-4.789,19.914-11.734,19.377-13.741-.311-1.177-2.173-3.162-3.815-4.912a37.9,37.9,0,0,1-3.047-3.5h-.242l-.007-.377c-2.058-3.788,1.037-18.412,5.21-24.389a51.882,51.882,0,0,0,6.638-14.037l.256-.768.58.563c14.683,14.3,35.146,30.62,44.524,29.565,11.456-1.3,48.866-10.458,60.059-13.233,2.34-.581,2.04-2.812,1.206-6.421l-.1-.393a29.188,29.188,0,0,0-6.32-13.08c-.07-.079-.133-.154-.192-.226-.757-.906-1.176-.851-22.613,3.06-6.923,1.262-16.009,2.92-27.967,5.059-1.827.332-7.329-4.913-18.582-15.851-15.715-15.271-37.182-36.134-47.169-36.649l-16.088,23.659C-804.022,553.65-805.934,556.462-824.483,583.745Z" transform="translate(825.684 -526.086)" fill="#2e5151"/>
            </g>
            <path id="Trazado_190650" data-name="Trazado 190650" d="M-666.808,587.833s-49.206,12.343-62.612,13.864c-9.486,1.073-28.03-14.23-38.079-23.287-.815-1.016-10.022-9.739-11.582-9.156-3.65,1.369-9.827,16.217-11.652,24.219a17.322,17.322,0,0,0,4.556,16.644c1.762,2.624,6.514,6.606,7.1,8.8.608,2.283-3.194,9.593-20.109,14.471-20.416-35.029-16.964-28.3-20.334-37.633,1.929-11.368,6.561-38.645,8.458-49.814l23.305-15.537c7.079,4.341,18.507,26.735,24.906,36.1s25.13,28.789,33.132,29.247c7.077.4,51.682-11.876,61.9-14.722A42.651,42.651,0,0,1-666.808,587.833Z" transform="translate(830.578 -522.656)" fill="#154f8d"/>
            <g id="Grupo_130651" data-name="Grupo 130651" transform="translate(98.921 53.176)">
              <path id="Trazado_190651" data-name="Trazado 190651" d="M-770.112,562.21a.431.431,0,0,1-.194-.045.447.447,0,0,1-.21-.6,47.264,47.264,0,0,1,3.571-5.719.446.446,0,0,1,.63,0,.451.451,0,0,1,0,.632,49.969,49.969,0,0,0-3.4,5.477A.45.45,0,0,1-770.112,562.21Z" transform="translate(770.56 -555.719)" fill="#2e5151"/>
            </g>
            <g id="Grupo_130652" data-name="Grupo 130652" transform="translate(103.091 54.317)">
              <path id="Trazado_190652" data-name="Trazado 190652" d="M-766.189,561.477a.448.448,0,0,1-.427-.314,34.22,34.22,0,0,0-1.56-4.135.448.448,0,0,1,.162-.612.447.447,0,0,1,.612.16,34.015,34.015,0,0,1,1.64,4.318.449.449,0,0,1-.292.562A.441.441,0,0,1-766.189,561.477Z" transform="translate(768.236 -556.355)" fill="#2e5151"/>
            </g>
            <g id="Grupo_130653" data-name="Grupo 130653" transform="translate(49.508 41.579)">
              <path id="Trazado_190653" data-name="Trazado 190653" d="M-791.1,557.69a.434.434,0,0,1-.334-.151c-.626-.7-6.127-6.9-6.588-7.587a.446.446,0,0,1,.124-.621.45.45,0,0,1,.621.122c.323.484,4.07,4.746,6.512,7.494a.45.45,0,0,1-.038.632A.458.458,0,0,1-791.1,557.69Z" transform="translate(798.095 -549.256)" fill="#2e5151"/>
            </g>
            <g id="Grupo_130654" data-name="Grupo 130654" transform="translate(33.513 87.508)">
              <path id="Trazado_190654" data-name="Trazado 190654" d="M-794.069,578.943a.413.413,0,0,1-.183-.041c-4.31-1.931-12.3-3.151-12.375-3.162a.453.453,0,0,1-.377-.511.461.461,0,0,1,.51-.375c.332.05,8.185,1.251,12.608,3.232a.45.45,0,0,1,.224.592A.445.445,0,0,1-794.069,578.943Z" transform="translate(807.009 -574.85)" fill="#2e5151"/>
            </g>
          </g>
          <g id="Grupo_130658" data-name="Grupo 130658" transform="translate(7.592 0.001)">
            <path id="Trazado_190655" data-name="Trazado 190655" d="M-792.134,493.86c1.261,15.65,13.722,16.644,2.284,20.68,0,0,1.829,14.053-9.71,17.6l-11.083-20.965,7.883-14.453Z" transform="translate(886.685 -468.071)" fill="#f99889"/>
            <path id="Trazado_190656" data-name="Trazado 190656" d="M-754.923,566.135c-1.834,13.407-14.927,16.45-18.812,32.755s7.84,17.97,6.543,33.283-16.065,19.959-16.065,19.959c-.131-.1-69.7-52.093-69.7-52.256.231,0-2.471-6.2,12-13.818,14.534-7.277-9.712-23.738,2.166-38.734,10.4-13.138,19.58,5.791,25.371-32.979s32.827-38.009,41.965-31.386c26.97,1.3,21.782,21.441,3.652,41.59C-778,535.9-753.1,552.73-754.923,566.135Z" transform="translate(853.018 -479.489)" fill="#4d3930"/>
            <path id="Trazado_190657" data-name="Trazado 190657" d="M-773.649,563.533c-1.834,13.407-14.927,16.45-18.812,32.755s7.84,17.97,6.543,33.283-16.065,19.959-16.065,19.959c-.016-.011-.109-.074-.117-.081L-826.058,595.3c-12.974-25.324,14.692-33.06,25.75-51.641,7.616-12.8,3.042-24.987,5.638-32.45s13.1-.608,17.513-12.484c3.49-9.378-.519-14.3-2.362-15.957,16.632,7.018,5.091,25.733-7.008,39.181C-796.73,533.294-771.822,550.128-773.649,563.533Z" transform="translate(871.744 -476.887)" fill="#44322b"/>
            <path id="Trazado_190658" data-name="Trazado 190658" d="M-820.424,576.383l-22.168,7.838c-6.238-4.689-10.363-7.8-10.363-7.838.231,0-2.471-6.2,12-13.818.088-.045.178-.1.267-.152,9.559-1.5,15.018-5.549,11.724-13.907-8.119-20.658,22.539-19.431,21.328-39.449,0,0,5.486,15.463-10.051,23.912C-834.843,542.3-803.845,564.016-820.424,576.383Z" transform="translate(853.018 -455.997)" fill="#44322b"/>
            <path id="Trazado_190659" data-name="Trazado 190659" d="M-799.178,504.228c-2.039-8.476-14.3-3.973-4.644,11.043Z" transform="translate(889.195 -463.203)" fill="#f99889"/>
            <path id="Trazado_190660" data-name="Trazado 190660" d="M-800.05,506.934s-.029.275-.083.791a15.16,15.16,0,0,0-.131,2.241,23.853,23.853,0,0,0,.228,3.464c.19,1.33.475,2.816.858,4.427s.863,3.338,1.389,5.168,1.1,3.76,1.541,5.809a29.643,29.643,0,0,1,.856,6.433,14.27,14.27,0,0,1-1.416,6.622,28.929,28.929,0,0,1-3.88,5.479c-1.432,1.669-2.911,3.23-4.319,4.754a60.378,60.378,0,0,0-7.156,8.709,22.078,22.078,0,0,0-2.008,4,13.337,13.337,0,0,0-.806,3.359,9.433,9.433,0,0,0-.079,1.283,6.375,6.375,0,0,0,.018.953c.038.519.059.793.059.793s-.041-.274-.115-.79a6.814,6.814,0,0,1-.084-.955,7.894,7.894,0,0,1,.006-1.3,13.638,13.638,0,0,1,.641-3.463,19.734,19.734,0,0,1,1.879-4.174,55.615,55.615,0,0,1,6.995-9.01c1.4-1.54,2.853-3.112,4.246-4.77a28.177,28.177,0,0,0,3.7-5.323,10.35,10.35,0,0,0,1.053-3l.172-.775.07-.8a10.732,10.732,0,0,0,.079-1.592,28.615,28.615,0,0,0-.77-6.249c-.872-4.027-1.967-7.768-2.627-11.042a37.567,37.567,0,0,1-.673-4.51,23.813,23.813,0,0,1-.05-3.515,13.149,13.149,0,0,1,.273-2.236C-800.1,507.207-800.05,506.934-800.05,506.934Z" transform="translate(883.063 -457.683)" fill="#382823"/>
            <g id="Grupo_130656" data-name="Grupo 130656" transform="translate(21.722 37.468)">
              <path id="Trazado_190661" data-name="Trazado 190661" d="M-839.187,575.265a.506.506,0,0,1-.479-.343c-2.372-6.927.886-10.907,4.039-14.756,2.087-2.546,4.057-4.953,4.467-8.17.475-3.738-1.56-6.781-3.916-10.3-2.737-4.093-5.838-8.728-5.838-15.68,0-7.889,6.64-13.394,11.973-17.818,3.385-2.8,6.306-5.229,6.306-7.318a.509.509,0,0,1,.51-.508.509.509,0,0,1,.508.508c0,2.568-2.945,5.01-6.674,8.1-5.172,4.287-11.6,9.622-11.6,17.034,0,6.641,3.009,11.144,5.665,15.115,2.367,3.539,4.6,6.88,4.079,11-.447,3.5-2.6,6.139-4.689,8.687-3.114,3.8-6.053,7.39-3.865,13.78a.507.507,0,0,1-.316.646A.474.474,0,0,1-839.187,575.265Z" transform="translate(840.913 -500.368)" fill="#382823"/>
            </g>
            <g id="Grupo_130657" data-name="Grupo 130657" transform="translate(50.728 47.675)">
              <path id="Trazado_190662" data-name="Trazado 190662" d="M-813.031,603.955a.511.511,0,0,1-.336-.126.508.508,0,0,1-.047-.716c.041-.05,4.266-5.035,3.532-15.777-.239-3.485-3.2-6.9-6.336-10.525-6.476-7.476-14.536-16.779-1.766-31.431,17.671-20.278,15.485-27.474,12.458-37.43l-.375-1.24a.509.509,0,0,1,.341-.634.507.507,0,0,1,.632.341l.375,1.236c3.122,10.272,5.376,17.69-12.664,38.392-12.188,13.988-4.775,22.548,1.768,30.1,3.25,3.752,6.32,7.3,6.582,11.119.766,11.2-3.6,16.307-3.781,16.518A.516.516,0,0,1-813.031,603.955Z" transform="translate(824.749 -506.056)" fill="#382823"/>
            </g>
          </g>
          <g id="Grupo_130664" data-name="Grupo 130664" transform="translate(0 109.656)">
            <g id="Grupo_130663" data-name="Grupo 130663">
              <g id="Grupo_130659" data-name="Grupo 130659" transform="translate(28.47 207.13)">
                <path id="Trazado_190663" data-name="Trazado 190663" d="M-826.3,681.59a7.54,7.54,0,0,1-7.541,7.541,7.54,7.54,0,0,1-7.54-7.541C-841.383,671.627-826.3,671.616-826.3,681.59Z" transform="translate(841.383 -641.642)" fill="#0ddcf1"/>
                <path id="Trazado_190664" data-name="Trazado 190664" d="M-795.215,689.244c-9.965,0-9.974-15.081,0-15.081S-785.241,689.244-795.215,689.244Z" transform="translate(872.124 -641.603)" fill="#0ddcf1"/>
                <path id="Trazado_190665" data-name="Trazado 190665" d="M-786.278,693.112h-4.476c0-8.411,1.373-18.022-7.779-18.022-13.778,0-12.253-15.026-12.253-19.07h4.475C-806.31,686.759-786.278,652.493-786.278,693.112Z" transform="translate(865.653 -656.019)" fill="#0ddcf1"/>
                <path id="Trazado_190666" data-name="Trazado 190666" d="M-817.319,689.244c9.963,0,9.974-15.081,0-15.081S-827.295,689.244-817.319,689.244Z" transform="translate(854.561 -641.603)" fill="#0ddcf1"/>
                <path id="Trazado_190667" data-name="Trazado 190667" d="M-817.53,693.112H-822c0-40.761,20.032-6.231,20.032-37.093h4.474c0,2.72,1.917,19.07-12.253,19.07a7.786,7.786,0,0,0-7.777,7.776Z" transform="translate(856.779 -656.019)" fill="#0ddcf1"/>
              </g>
              <g id="Grupo_130662" data-name="Grupo 130662">
                <g id="Grupo_130660" data-name="Grupo 130660">
                  <path id="Trazado_190668" data-name="Trazado 190668" d="M-694.814,666.726c-25.748,28.791-79.669,25.9-104.048,24.075s-32.29-8.073-40.979-27.878-19.646-68.857-16.6-95.053c3.638-31.323,35.661-29.841,48.847-22.857,25.058,13.224,26.062,39.852,44.077,83.48,14.656,35.492,41.622,36.845,60.428,37.9C-698.242,666.665-694.814,666.726-694.814,666.726Z" transform="translate(857.475 -540.376)" fill="#0ddcf1"/>
                  <path id="Trazado_190669" data-name="Trazado 190669" d="M-773.825,692.606c-10.432,0-19.286-.662-24.849-1.08-23.856-1.787-32.369-7.58-41.408-28.181-8.822-20.125-19.7-69.017-16.64-95.315,1.292-11.129,6.4-19.343,14.787-23.75,11.035-5.8,26.164-4.074,34.8.5,18.177,9.592,23.765,26.008,32.224,50.858,3.289,9.656,7.015,20.6,12.084,32.879,14.467,35.034,40.628,36.5,59.728,37.572l.257.016c4.784.266,8.226.33,8.258.33l1.111.018-.739.827C-713.294,688.624-748.276,692.606-773.825,692.606Zm-51.777-151a34.282,34.282,0,0,0-15.862,3.578c-8.185,4.305-12.98,12.032-14.248,22.966-3.036,26.142,7.783,74.766,16.562,94.791,8.843,20.154,17.181,25.823,40.552,27.575,18.889,1.418,76.012,5.7,102.881-23.086-1.394-.039-3.991-.127-7.178-.3l-.257-.014c-18.279-1.026-45.9-2.575-60.611-38.2-5.082-12.307-8.815-23.269-12.108-32.94-8.382-24.619-13.918-40.882-31.738-50.286A39.953,39.953,0,0,0-825.6,541.6Z" transform="translate(857.248 -540.595)" fill="#0ddcf1"/>
                </g>
                <g id="Grupo_130661" data-name="Grupo 130661" transform="translate(0.511 0.494)" style="mix-blend-mode: multiply;isolation: isolate">
                  <path id="Trazado_190670" data-name="Trazado 190670" d="M-694.814,666.726c-25.748,28.791-79.669,25.9-104.048,24.075s-32.29-8.073-40.979-27.878-19.646-68.857-16.6-95.053c3.638-31.323,35.661-29.841,48.847-22.857-2.864.072-6.936,1.1-11.374,5.073-8.45,7.555,6.22,102.238,16.886,116.684s41.563,16.664,58.227,13.784c13.539-2.345,33.677-11,40.766-14.16C-698.242,666.665-694.814,666.726-694.814,666.726Z" transform="translate(856.963 -540.87)" fill="#0ddcf1"/>
                </g>
              </g>
            </g>
          </g>
        </g>
        <g id="Grupo_130667" data-name="Grupo 130667" transform="translate(320.425 92.817)">
          <g id="Grupo_130668" data-name="Grupo 130668" transform="translate(2.632 44.101)">
            <g id="Grupo_130667-2" data-name="Grupo 130667">
              <path id="Trazado_190671" data-name="Trazado 190671" d="M-692.627,537.755l3.278,21.539h19.042l4.42-21.228Z" transform="translate(692.627 -537.755)" fill="#0d8791"/>
            </g>
          </g>
          <g id="Grupo_130702" data-name="Grupo 130702" transform="translate(4.803 55.539)">
            <g id="Grupo_130671" data-name="Grupo 130671" transform="translate(0.112 2.255)">
              <g id="Grupo_130670" data-name="Grupo 130670">
                <g id="Grupo_130669" data-name="Grupo 130669">
                  <path id="Trazado_190672" data-name="Trazado 190672" d="M-668.91,549.4c0,.062-4.879.112-10.9.112s-10.9-.05-10.9-.112,4.879-.112,10.9-.112S-668.91,549.34-668.91,549.4Z" transform="translate(690.704 -549.29)" fill="#0d8791"/>
                </g>
              </g>
            </g>
            <g id="Grupo_130674" data-name="Grupo 130674" transform="translate(0.037 1.195)">
              <g id="Grupo_130673" data-name="Grupo 130673">
                <g id="Grupo_130672" data-name="Grupo 130672">
                  <path id="Trazado_190673" data-name="Trazado 190673" d="M-668.823,548.509c0,.063-4.913.113-10.971.113s-10.973-.05-10.973-.113,4.912-.112,10.973-.112S-668.823,548.448-668.823,548.509Z" transform="translate(690.767 -548.397)" fill="#0d8791"/>
                </g>
              </g>
            </g>
            <g id="Grupo_130677" data-name="Grupo 130677">
              <g id="Grupo_130676" data-name="Grupo 130676">
                <g id="Grupo_130675" data-name="Grupo 130675">
                  <path id="Trazado_190674" data-name="Trazado 190674" d="M-668.855,547.5c0,.062-4.912.112-10.971.112s-10.972-.05-10.972-.112,4.911-.112,10.972-.112S-668.855,547.441-668.855,547.5Z" transform="translate(690.798 -547.39)" fill="#0d8791"/>
                </g>
              </g>
            </g>
            <g id="Grupo_130680" data-name="Grupo 130680" transform="translate(2.334 3.411)">
              <g id="Grupo_130679" data-name="Grupo 130679">
                <g id="Grupo_130678" data-name="Grupo 130678">
                  <path id="Trazado_190675" data-name="Trazado 190675" d="M-687.872,555.726a17.41,17.41,0,0,1-.584-2.712,17.366,17.366,0,0,1-.363-2.749,17.252,17.252,0,0,1,.583,2.712A17.07,17.07,0,0,1-687.872,555.726Z" transform="translate(688.832 -550.264)" fill="#0d8791"/>
                </g>
              </g>
            </g>
            <g id="Grupo_130683" data-name="Grupo 130683" transform="translate(4.208 3.344)">
              <g id="Grupo_130682" data-name="Grupo 130682">
                <g id="Grupo_130681" data-name="Grupo 130681">
                  <path id="Trazado_190676" data-name="Trazado 190676" d="M-686.872,555.508a21.14,21.14,0,0,1-.235-2.647,21.007,21.007,0,0,1-.125-2.654,12.873,12.873,0,0,1,.348,2.64A12.773,12.773,0,0,1-686.872,555.508Z" transform="translate(687.253 -550.207)" fill="#0d8791"/>
                </g>
              </g>
            </g>
            <g id="Grupo_130686" data-name="Grupo 130686" transform="translate(6.281 3.175)">
              <g id="Grupo_130685" data-name="Grupo 130685">
                <g id="Grupo_130684" data-name="Grupo 130684">
                  <path id="Trazado_190677" data-name="Trazado 190677" d="M-684.838,555.534a13.339,13.339,0,0,1-.495-2.714,13.173,13.173,0,0,1-.145-2.755,24.162,24.162,0,0,1,.367,2.729A23.619,23.619,0,0,1-684.838,555.534Z" transform="translate(685.507 -550.065)" fill="#0d8791"/>
                </g>
              </g>
            </g>
            <g id="Grupo_130689" data-name="Grupo 130689" transform="translate(8.327 3.232)">
              <g id="Grupo_130688" data-name="Grupo 130688">
                <g id="Grupo_130687" data-name="Grupo 130687">
                  <path id="Trazado_190678" data-name="Trazado 190678" d="M-683.5,555.639a13.444,13.444,0,0,1-.265-2.759,13.642,13.642,0,0,1,.084-2.767,23.29,23.29,0,0,1,.139,2.761A23.835,23.835,0,0,1-683.5,555.639Z" transform="translate(683.783 -550.113)" fill="#0d8791"/>
                </g>
              </g>
            </g>
            <g id="Grupo_130692" data-name="Grupo 130692" transform="translate(11.31 3.404)">
              <g id="Grupo_130691" data-name="Grupo 130691">
                <g id="Grupo_130690" data-name="Grupo 130690">
                  <path id="Trazado_190679" data-name="Trazado 190679" d="M-681.039,555.5a15.428,15.428,0,0,1-.2-2.616,15.448,15.448,0,0,1,.024-2.625,15.493,15.493,0,0,1,.2,2.616A15.4,15.4,0,0,1-681.039,555.5Z" transform="translate(681.27 -550.258)" fill="#0d8791"/>
                </g>
              </g>
            </g>
            <g id="Grupo_130695" data-name="Grupo 130695" transform="translate(13.593 3.346)">
              <g id="Grupo_130694" data-name="Grupo 130694">
                <g id="Grupo_130693" data-name="Grupo 130693">
                  <path id="Trazado_190680" data-name="Trazado 190680" d="M-679.256,555.622a16.786,16.786,0,0,1-.089-2.709,16.4,16.4,0,0,1,.134-2.7,16.571,16.571,0,0,1,.089,2.707A16.276,16.276,0,0,1-679.256,555.622Z" transform="translate(679.347 -550.209)" fill="#0d8791"/>
                </g>
              </g>
            </g>
            <g id="Grupo_130698" data-name="Grupo 130698" transform="translate(15.672 2.833)">
              <g id="Grupo_130697" data-name="Grupo 130697">
                <g id="Grupo_130696" data-name="Grupo 130696">
                  <path id="Trazado_190681" data-name="Trazado 190681" d="M-677.574,555.413a18.04,18.04,0,0,1,.163-2.827,17.935,17.935,0,0,1,.385-2.809,18.072,18.072,0,0,1-.163,2.83A17.911,17.911,0,0,1-677.574,555.413Z" transform="translate(677.595 -549.777)" fill="#0d8791"/>
                </g>
              </g>
            </g>
            <g id="Grupo_130701" data-name="Grupo 130701" transform="translate(18.267 3.461)">
              <g id="Grupo_130700" data-name="Grupo 130700">
                <g id="Grupo_130699" data-name="Grupo 130699">
                  <path id="Trazado_190682" data-name="Trazado 190682" d="M-675.392,555.033a9.642,9.642,0,0,1,.322-2.4,9.517,9.517,0,0,1,.708-2.322,21.673,21.673,0,0,1-.489,2.369A21.024,21.024,0,0,1-675.392,555.033Z" transform="translate(675.409 -550.306)" fill="#0d8791"/>
                </g>
              </g>
            </g>
          </g>
          <g id="Grupo_130724" data-name="Grupo 130724" transform="translate(10.083)">
            <g id="Grupo_130705" data-name="Grupo 130705" transform="translate(6.157 1.598)">
              <g id="Grupo_130704" data-name="Grupo 130704">
                <g id="Grupo_130703" data-name="Grupo 130703">
                  <path id="Trazado_190683" data-name="Trazado 190683" d="M-676.149,501.949a.359.359,0,0,1-.024.107c-.024.081-.052.18-.089.3-.087.284-.209.672-.361,1.163s-.358,1.119-.56,1.844-.459,1.537-.686,2.456c-.242.912-.5,1.914-.742,3-.265,1.079-.487,2.246-.735,3.47-.457,2.455-.872,5.17-1.167,8.036-.279,2.87-.407,5.615-.445,8.111,0,1.25-.011,2.437.034,3.548.02,1.11.078,2.143.135,3.086.04.945.129,1.795.188,2.543s.123,1.392.184,1.917.094.916.126,1.211c.011.128.019.233.027.316a.466.466,0,0,1,0,.108s-.013-.033-.025-.1-.03-.186-.049-.313c-.042-.293-.1-.7-.167-1.206-.074-.526-.155-1.167-.222-1.916s-.169-1.6-.221-2.544-.135-1.979-.163-3.093c-.053-1.11-.049-2.3-.055-3.552.026-2.5.148-5.255.429-8.132s.718-5.6,1.187-8.054c.254-1.227.483-2.393.756-3.473.247-1.085.518-2.086.769-3s.5-1.731.721-2.45.42-1.335.6-1.834l.4-1.15c.044-.119.08-.217.109-.3A.419.419,0,0,1-676.149,501.949Z" transform="translate(681.163 -501.949)" fill="#0ddcf1"/>
                </g>
              </g>
            </g>
            <g id="Grupo_130707" data-name="Grupo 130707" transform="translate(7.391 10.809)">
              <g id="Grupo_130706" data-name="Grupo 130706">
                <path id="Trazado_190684" data-name="Trazado 190684" d="M-679.78,513.835a7.082,7.082,0,0,1,2.959-3.74,1.7,1.7,0,0,1,1.567-.286c.664.322.717,1.256.52,1.967a5.207,5.207,0,0,1-2.156,2.937,4.4,4.4,0,0,1-3.234.817" transform="translate(680.123 -509.709)" fill="#0ddcf1"/>
              </g>
            </g>
            <g id="Grupo_130709" data-name="Grupo 130709" transform="translate(6.381 17.833)">
              <g id="Grupo_130708" data-name="Grupo 130708">
                <path id="Trazado_190685" data-name="Trazado 190685" d="M-680.778,521.735a11.906,11.906,0,0,1,3.515-5.652,2.256,2.256,0,0,1,.8-.426.936.936,0,0,1,.856.184,1.318,1.318,0,0,1,.191,1.234,7.5,7.5,0,0,1-5.557,5.593" transform="translate(680.974 -515.626)" fill="#0ddcf1"/>
              </g>
            </g>
            <g id="Grupo_130711" data-name="Grupo 130711" transform="translate(6.258 26.954)">
              <g id="Grupo_130710" data-name="Grupo 130710">
                <path id="Trazado_190686" data-name="Trazado 190686" d="M-681.078,528.226a10.883,10.883,0,0,1,3.546-4.46,1.7,1.7,0,0,1,1.238-.442c.673.122.978.944.919,1.625a5.252,5.252,0,0,1-2.3,3.4,14.271,14.271,0,0,1-3.28,1.686" transform="translate(681.078 -523.31)" fill="#0ddcf1"/>
              </g>
            </g>
            <g id="Grupo_130713" data-name="Grupo 130713" transform="translate(6.437 33.719)">
              <g id="Grupo_130712" data-name="Grupo 130712">
                <path id="Trazado_190687" data-name="Trazado 190687" d="M-680.927,532.858a10.488,10.488,0,0,1,3.017-3.435,2.172,2.172,0,0,1,.9-.4.92.92,0,0,1,.889.337c.3.444.014,1.045-.31,1.473a8.6,8.6,0,0,1-4.307,3.158" transform="translate(680.927 -529.008)" fill="#0ddcf1"/>
              </g>
            </g>
            <g id="Grupo_130715" data-name="Grupo 130715" transform="translate(0.716 30.508)">
              <g id="Grupo_130714" data-name="Grupo 130714">
                <path id="Trazado_190688" data-name="Trazado 190688" d="M-680.174,531.05a33.693,33.693,0,0,0-4.315-4.4c-.246-.208-.554-.425-.859-.326a.644.644,0,0,0-.4.582,1.611,1.611,0,0,0,.164.719,8.363,8.363,0,0,0,5.554,4.673" transform="translate(685.746 -526.303)" fill="#0ddcf1"/>
              </g>
            </g>
            <g id="Grupo_130717" data-name="Grupo 130717" transform="translate(0 22.449)">
              <g id="Grupo_130716" data-name="Grupo 130716">
                <path id="Trazado_190689" data-name="Trazado 190689" d="M-679.923,524.9l-3.39-4.133a4.1,4.1,0,0,0-1.1-1.043,1.4,1.4,0,0,0-1.446-.017,1.369,1.369,0,0,0-.464,1.364,3.6,3.6,0,0,0,.661,1.359,10.073,10.073,0,0,0,2.469,2.623,4.126,4.126,0,0,0,3.095.952" transform="translate(686.35 -519.515)" fill="#0ddcf1"/>
              </g>
            </g>
            <g id="Grupo_130719" data-name="Grupo 130719" transform="translate(0.926 13.83)">
              <g id="Grupo_130718" data-name="Grupo 130718">
                <path id="Trazado_190690" data-name="Trazado 190690" d="M-679.6,517.912a11.82,11.82,0,0,0-3.412-5.12,1.973,1.973,0,0,0-.889-.519,1.492,1.492,0,0,0-1.554,1.092,2.791,2.791,0,0,0,.31,2.244,5.912,5.912,0,0,0,1.593,1.684,13.654,13.654,0,0,0,3.77,2.036" transform="translate(685.569 -512.254)" fill="#0ddcf1"/>
              </g>
            </g>
            <g id="Grupo_130721" data-name="Grupo 130721" transform="translate(3.154 4.942)">
              <g id="Grupo_130720" data-name="Grupo 130720">
                <path id="Trazado_190691" data-name="Trazado 190691" d="M-678.595,511.867a13.842,13.842,0,0,0-3.021-6.327c-.3-.408-.729-.842-1.232-.766a.978.978,0,0,0-.709.608,2.291,2.291,0,0,0-.134.958,7.4,7.4,0,0,0,4.8,6.609" transform="translate(683.693 -504.766)" fill="#0ddcf1"/>
              </g>
            </g>
            <g id="Grupo_130723" data-name="Grupo 130723" transform="translate(9.029)">
              <g id="Grupo_130722" data-name="Grupo 130722">
                <path id="Trazado_190692" data-name="Trazado 190692" d="M-678.573,508.845a19.712,19.712,0,0,1-.123-3.7,6.62,6.62,0,0,1,1.23-3.448,2.849,2.849,0,0,1,1.231-.983,1.556,1.556,0,0,1,1.51.2,1.648,1.648,0,0,1,.516,1.329,4.136,4.136,0,0,1-.382,1.42c-.9,2.174-2.409,4.578-3.981,5.186" transform="translate(678.743 -500.603)" fill="#0ddcf1"/>
              </g>
            </g>
          </g>
          <g id="Grupo_130746" data-name="Grupo 130746" transform="translate(0 9.746)">
            <g id="Grupo_130727" data-name="Grupo 130727" transform="translate(4.439 1.35)">
              <g id="Grupo_130726" data-name="Grupo 130726">
                <g id="Grupo_130725" data-name="Grupo 130725">
                  <path id="Trazado_190693" data-name="Trazado 190693" d="M-691.027,509.951a1.467,1.467,0,0,1,.019.3c0,.221.006.509.01.87,0,.376,0,.838.021,1.373s.021,1.147.067,1.819c.058,1.35.189,2.95.393,4.72.22,1.769.521,3.707.938,5.722s.931,3.908,1.441,5.616,1.047,3.223,1.535,4.48c.23.634.471,1.2.671,1.692s.38.924.533,1.268.254.6.341.8a1.546,1.546,0,0,1,.1.285,1.493,1.493,0,0,1-.146-.267c-.1-.2-.222-.458-.379-.783-.165-.341-.36-.757-.569-1.254s-.462-1.051-.7-1.684c-.508-1.251-1.049-2.771-1.587-4.476-.521-1.709-1.033-3.612-1.461-5.631s-.714-3.967-.923-5.743c-.194-1.777-.309-3.385-.348-4.735-.034-.677-.027-1.288-.033-1.824s0-1,.018-1.377c.013-.36.024-.648.033-.87A1.544,1.544,0,0,1-691.027,509.951Z" transform="translate(691.105 -509.951)" fill="#0ddcf1"/>
                </g>
              </g>
            </g>
            <g id="Grupo_130729" data-name="Grupo 130729" transform="translate(5.047 7.447)">
              <g id="Grupo_130728" data-name="Grupo 130728">
                <path id="Trazado_190694" data-name="Trazado 190694" d="M-690.592,518.811a5.052,5.052,0,0,1,1.212-3.184,1.208,1.208,0,0,1,1-.533c.522.075.76.7.779,1.227a3.723,3.723,0,0,1-.836,2.463,3.147,3.147,0,0,1-2.026,1.254" transform="translate(690.592 -515.087)" fill="#0ddcf1"/>
              </g>
            </g>
            <g id="Grupo_130731" data-name="Grupo 130731" transform="translate(6.192 12.373)">
              <g id="Grupo_130730" data-name="Grupo 130730">
                <path id="Trazado_190695" data-name="Trazado 190695" d="M-689.621,524.415a8.506,8.506,0,0,1,1.176-4.606,1.613,1.613,0,0,1,.453-.461.663.663,0,0,1,.621-.059.936.936,0,0,1,.4.8,5.351,5.351,0,0,1-2.578,5" transform="translate(689.627 -519.237)" fill="#0ddcf1"/>
              </g>
            </g>
            <g id="Grupo_130733" data-name="Grupo 130733" transform="translate(7.689 18.645)">
              <g id="Grupo_130732" data-name="Grupo 130732">
                <path id="Trazado_190696" data-name="Trazado 190696" d="M-688.367,528.893a7.765,7.765,0,0,1,1.454-3.8,1.215,1.215,0,0,1,.748-.567c.483-.061.869.433.976.909a3.756,3.756,0,0,1-.834,2.807,10.174,10.174,0,0,1-1.871,1.855" transform="translate(688.367 -524.521)" fill="#0ddcf1"/>
              </g>
            </g>
            <g id="Grupo_130735" data-name="Grupo 130735" transform="translate(9.037 23.326)">
              <g id="Grupo_130734" data-name="Grupo 130734">
                <path id="Trazado_190697" data-name="Trazado 190697" d="M-687.231,532a7.469,7.469,0,0,1,1.315-2.988,1.543,1.543,0,0,1,.528-.471.66.66,0,0,1,.678.039c.3.236.234.706.106,1.068a6.149,6.149,0,0,1-2.252,3.079" transform="translate(687.231 -528.463)" fill="#0ddcf1"/>
              </g>
            </g>
            <g id="Grupo_130737" data-name="Grupo 130737" transform="translate(3.738 23.144)">
              <g id="Grupo_130736" data-name="Grupo 130736">
                <path id="Trazado_190698" data-name="Trazado 190698" d="M-687,530.481a24.284,24.284,0,0,0-3.884-2.064.7.7,0,0,0-.655-.036.459.459,0,0,0-.145.48,1.176,1.176,0,0,0,.267.456,5.968,5.968,0,0,0,4.787,1.986" transform="translate(691.695 -528.311)" fill="#0ddcf1"/>
              </g>
            </g>
            <g id="Grupo_130739" data-name="Grupo 130739" transform="translate(1.619 17.654)">
              <g id="Grupo_130738" data-name="Grupo 130738">
                <path id="Trazado_190699" data-name="Trazado 190699" d="M-688.164,526.267l-3.2-2.083a2.944,2.944,0,0,0-.973-.474.993.993,0,0,0-.988.3.979.979,0,0,0-.023,1.029,2.576,2.576,0,0,0,.743.781,7.215,7.215,0,0,0,2.246,1.255,2.939,2.939,0,0,0,2.312-.018" transform="translate(693.481 -523.685)" fill="#0ddcf1"/>
              </g>
            </g>
            <g id="Grupo_130741" data-name="Grupo 130741" transform="translate(0.494 11.53)">
              <g id="Grupo_130740" data-name="Grupo 130740">
                <path id="Trazado_190700" data-name="Trazado 190700" d="M-689.464,521.447a8.441,8.441,0,0,0-3.425-2.753,1.427,1.427,0,0,0-.716-.163,1.068,1.068,0,0,0-.824,1.079,2,2,0,0,0,.693,1.46,4.193,4.193,0,0,0,1.448.8,9.721,9.721,0,0,0,3,.574" transform="translate(694.428 -518.527)" fill="#0ddcf1"/>
              </g>
            </g>
            <g id="Grupo_130743" data-name="Grupo 130743" transform="translate(0 5.119)">
              <g id="Grupo_130742" data-name="Grupo 130742">
                <path id="Trazado_190701" data-name="Trazado 190701" d="M-690.066,517.1a9.867,9.867,0,0,0-3.419-3.657,1.032,1.032,0,0,0-1-.255.694.694,0,0,0-.35.565,1.626,1.626,0,0,0,.114.681,5.287,5.287,0,0,0,4.692,3.467" transform="translate(694.844 -513.126)" fill="#0ddcf1"/>
              </g>
            </g>
            <g id="Grupo_130745" data-name="Grupo 130745" transform="translate(3.586)">
              <g id="Grupo_130744" data-name="Grupo 130744">
                <path id="Trazado_190702" data-name="Trazado 190702" d="M-690.8,515.111a14.082,14.082,0,0,1-.882-2.5A4.724,4.724,0,0,1-691.59,510a2.038,2.038,0,0,1,.627-.934,1.109,1.109,0,0,1,1.071-.188,1.171,1.171,0,0,1,.638.793,2.965,2.965,0,0,1,.045,1.049c-.146,1.674-.654,3.636-1.593,4.389" transform="translate(691.823 -508.813)" fill="#0ddcf1"/>
              </g>
            </g>
          </g>
          <g id="Grupo_130768" data-name="Grupo 130768" transform="translate(21.337 9.537)">
            <g id="Grupo_130749" data-name="Grupo 130749" transform="translate(1.183 1.349)">
              <g id="Grupo_130748" data-name="Grupo 130748">
                <g id="Grupo_130747" data-name="Grupo 130747">
                  <path id="Trazado_190703" data-name="Trazado 190703" d="M-669.8,509.774a1.651,1.651,0,0,1,.027.3c.007.222.018.51.032.87.014.378.025.839.017,1.377s0,1.149-.033,1.823c-.038,1.352-.153,2.958-.348,4.736s-.5,3.721-.924,5.743-.939,3.921-1.461,5.63c-.538,1.707-1.078,3.225-1.586,4.479-.239.631-.491,1.189-.7,1.683s-.4.913-.569,1.253c-.156.325-.283.584-.378.785a1.6,1.6,0,0,1-.147.266,1.675,1.675,0,0,1,.1-.285c.088-.205.2-.471.341-.8.153-.345.336-.768.534-1.267s.44-1.059.67-1.692c.488-1.258,1.011-2.778,1.536-4.481s1.013-3.6,1.44-5.617.718-3.952.938-5.72c.2-1.77.335-3.371.394-4.719.045-.673.049-1.283.065-1.82s.024-1,.021-1.373c0-.361.008-.649.009-.87A1.5,1.5,0,0,1-669.8,509.774Z" transform="translate(675.873 -509.774)" fill="#0ddcf1"/>
                </g>
              </g>
            </g>
            <g id="Grupo_130751" data-name="Grupo 130751" transform="translate(3.73 7.447)">
              <g id="Grupo_130750" data-name="Grupo 130750">
                <path id="Trazado_190704" data-name="Trazado 190704" d="M-670.732,518.635a5.046,5.046,0,0,0-1.211-3.184,1.208,1.208,0,0,0-1-.533c-.521.075-.76.7-.778,1.227a3.711,3.711,0,0,0,.836,2.463,3.147,3.147,0,0,0,2.025,1.254" transform="translate(673.727 -514.911)" fill="#0ddcf1"/>
              </g>
            </g>
            <g id="Grupo_130753" data-name="Grupo 130753" transform="translate(2.907 12.372)">
              <g id="Grupo_130752" data-name="Grupo 130752">
                <path id="Trazado_190705" data-name="Trazado 190705" d="M-671.754,524.239a8.51,8.51,0,0,0-1.176-4.606,1.627,1.627,0,0,0-.452-.462.663.663,0,0,0-.621-.058.937.937,0,0,0-.4.8,5.352,5.352,0,0,0,2.578,5" transform="translate(674.421 -519.06)" fill="#0ddcf1"/>
              </g>
            </g>
            <g id="Grupo_130755" data-name="Grupo 130755" transform="translate(0.854 18.646)">
              <g id="Grupo_130754" data-name="Grupo 130754">
                <path id="Trazado_190706" data-name="Trazado 190706" d="M-672.92,528.716a7.754,7.754,0,0,0-1.453-3.8,1.212,1.212,0,0,0-.748-.566c-.484-.062-.87.432-.976.908a3.75,3.75,0,0,0,.834,2.807,10.147,10.147,0,0,0,1.87,1.855" transform="translate(676.15 -524.346)" fill="#0ddcf1"/>
              </g>
            </g>
            <g id="Grupo_130757" data-name="Grupo 130757" transform="translate(0 23.326)">
              <g id="Grupo_130756" data-name="Grupo 130756">
                <path id="Trazado_190707" data-name="Trazado 190707" d="M-674.134,531.821a7.46,7.46,0,0,0-1.314-2.988,1.525,1.525,0,0,0-.529-.471.66.66,0,0,0-.678.039c-.3.236-.234.706-.106,1.068a6.142,6.142,0,0,0,2.252,3.078" transform="translate(676.869 -528.287)" fill="#0ddcf1"/>
              </g>
            </g>
            <g id="Grupo_130759" data-name="Grupo 130759" transform="translate(2.964 23.144)">
              <g id="Grupo_130758" data-name="Grupo 130758">
                <path id="Trazado_190708" data-name="Trazado 190708" d="M-674,530.3a24.005,24.005,0,0,1,3.884-2.063.692.692,0,0,1,.655-.037.462.462,0,0,1,.145.481,1.181,1.181,0,0,1-.267.455,5.975,5.975,0,0,1-4.789,1.986" transform="translate(674.372 -528.135)" fill="#0ddcf1"/>
              </g>
            </g>
            <g id="Grupo_130761" data-name="Grupo 130761" transform="translate(4.717 17.653)">
              <g id="Grupo_130760" data-name="Grupo 130760">
                <path id="Trazado_190709" data-name="Trazado 190709" d="M-672.774,526.092l3.2-2.083a2.972,2.972,0,0,1,.973-.476,1,1,0,0,1,.989.3.979.979,0,0,1,.021,1.029,2.592,2.592,0,0,1-.742.783,7.228,7.228,0,0,1-2.247,1.253,2.949,2.949,0,0,1-2.312-.017" transform="translate(672.895 -523.509)" fill="#0ddcf1"/>
              </g>
            </g>
            <g id="Grupo_130763" data-name="Grupo 130763" transform="translate(6.132 11.53)">
              <g id="Grupo_130762" data-name="Grupo 130762">
                <path id="Trazado_190710" data-name="Trazado 190710" d="M-671.521,521.27a8.464,8.464,0,0,1,3.425-2.752,1.417,1.417,0,0,1,.717-.163,1.069,1.069,0,0,1,.824,1.08,2,2,0,0,1-.694,1.459,4.216,4.216,0,0,1-1.447.8,9.76,9.76,0,0,1-3.006.575" transform="translate(671.703 -518.351)" fill="#0ddcf1"/>
              </g>
            </g>
            <g id="Grupo_130765" data-name="Grupo 130765" transform="translate(6.962 5.119)">
              <g id="Grupo_130764" data-name="Grupo 130764">
                <path id="Trazado_190711" data-name="Trazado 190711" d="M-670.972,516.921a9.888,9.888,0,0,1,3.419-3.658,1.038,1.038,0,0,1,1-.255.7.7,0,0,1,.351.567,1.623,1.623,0,0,1-.115.68A5.283,5.283,0,0,1-671,517.721" transform="translate(671.004 -512.949)" fill="#0ddcf1"/>
              </g>
            </g>
            <g id="Grupo_130767" data-name="Grupo 130767" transform="translate(5.549)">
              <g id="Grupo_130766" data-name="Grupo 130766">
                <path id="Trazado_190712" data-name="Trazado 190712" d="M-670.576,514.934a14.223,14.223,0,0,0,.882-2.494,4.73,4.73,0,0,0-.095-2.613,2.044,2.044,0,0,0-.627-.934,1.107,1.107,0,0,0-1.071-.189,1.175,1.175,0,0,0-.639.794,2.985,2.985,0,0,0-.045,1.048c.147,1.674.654,3.637,1.594,4.387" transform="translate(672.195 -508.637)" fill="#0ddcf1"/>
              </g>
            </g>
          </g>
          <g id="Grupo_130770" data-name="Grupo 130770" transform="translate(0.446 39.836)">
            <g id="Grupo_130769" data-name="Grupo 130769">
              <path id="Trazado_190713" data-name="Trazado 190713" d="M-694.468,534.162v4.03a1.587,1.587,0,0,0,1.587,1.587h27.575a1.587,1.587,0,0,0,1.587-1.587v-4.03Z" transform="translate(694.468 -534.162)" fill="#0d8791"/>
            </g>
          </g>
          <g id="Grupo_130772" data-name="Grupo 130772" transform="translate(2.838 45.453)">
            <g id="Grupo_130771" data-name="Grupo 130771">
              <path id="Trazado_190714" data-name="Trazado 190714" d="M-692.454,538.894l.229,1.283,25.444,1.814.645-3.1Z" transform="translate(692.454 -538.894)" fill="#0d8791"/>
            </g>
          </g>
        </g>
      </g>
    </g>
  </g>
</svg>
