<svg xmlns="http://www.w3.org/2000/svg" width="118" height="115" viewBox="0 0 118 115">
  <g id="Grupo_131783" data-name="Grupo 131783" transform="translate(-719 -1762)">
    <rect id="Rectángulo_293441" data-name="Rectángulo 293441" width="118" height="115" transform="translate(719 1762)" fill="#e8e8e8"/>
    <g id="Grupo_129344" data-name="Grupo 129344" transform="translate(-261.972 655.03)">
      <path id="Trazado_189674" data-name="Trazado 189674" d="M1040.456,1109.973q23.936,0,47.871,0c4.6,0,6.64,2.009,6.64,6.556q.007,47.979,0,95.955c0,4.423-2.066,6.481-6.5,6.481q-47.976.007-95.955,0c-4.453,0-6.531-2.049-6.531-6.45q-.009-48.085,0-96.168c0-4.287,2.093-6.37,6.395-6.372Q1016.413,1109.963,1040.456,1109.973Zm.127,18.225c-16.242,0-32.483.024-48.725-.038-1.665-.006-2.268.251-2.262,2.129q.105,40.85.049,81.7c0,3.023.277,3.3,3.268,3.3q47.551,0,95.106,0c3,0,3.275-.283,3.275-3.3q.006-40.85.05-81.7c.006-1.86-.571-2.146-2.252-2.138C1072.923,1128.224,1056.753,1128.2,1040.583,1128.2Zm-.216-3.718c16.317,0,32.633-.021,48.949.032,1.5,0,2.192-.218,2.02-1.919a50.588,50.588,0,0,1-.038-5.1c0-3.741-.1-3.844-3.795-3.845H993.435c-.5,0-.994.011-1.491,0-1.607-.031-2.319.784-2.3,2.359a53.787,53.787,0,0,1-.035,5.741c-.206,2.126.356,2.812,2.663,2.795C1008.3,1124.424,1024.334,1124.48,1040.367,1124.48Z" transform="translate(0 0)" fill="#0d0d0d" fill-rule="evenodd"/>
      <path id="Trazado_189675" data-name="Trazado 189675" d="M1040.63,1128.434c16.17,0,32.34.026,48.51-.037,1.681-.008,2.258.278,2.252,2.138q-.1,40.851-.05,81.7c0,3.012-.28,3.3-3.275,3.3q-47.554,0-95.106,0c-2.99,0-3.267-.281-3.268-3.3q-.006-40.852-.049-81.7c-.006-1.879.6-2.135,2.262-2.129C1008.148,1128.458,1024.388,1128.434,1040.63,1128.434Zm-16.423,55.365c0-1.907.084-3.317-.024-4.714-.1-1.275.254-1.71,1.611-1.67,3.543.1,7.093.069,10.639.022,2.672-.036,4.022-1.433,4.089-4.093a18.5,18.5,0,0,0-.007-1.914c-.067-.848.123-1.214,1.124-1.276,2.286-.137,4.324.047,5.78,2.159a19.936,19.936,0,0,0,2.229,2.278c.878.911,1.886,1.455,2.952.457,1.2-1.122.539-2.19-.434-3.08a17.691,17.691,0,0,0-1.646-1.214c.124-.187.25-.373.373-.561h2.028q15.96,0,31.918,0c2.354,0,2.914-.549,2.918-2.844q.021-11.7,0-23.407c0-2.372-.465-2.831-2.9-2.839-5.462-.022-10.927-.113-16.383.046-2.047.06-2.638-.447-2.538-2.521.173-3.582-1.189-4.794-4.852-4.81-2.836-.015-5.673,0-8.511,0-6.171,0-12.342-.025-18.512.011-3.107.018-4.389,1.325-4.473,4.387a10.667,10.667,0,0,0,.007,1.488c.139,1.148-.4,1.326-1.455,1.438-3.386.362-6.263-.3-8.306-3.284a9.062,9.062,0,0,0-1.659-1.64,1.7,1.7,0,0,0-2.485,0,1.67,1.67,0,0,0-.088,2.474c.6.736,1.284,1.4,2.223,2.412-1.565,0-2.687-.078-3.794.018-1.764.153-2.816-.216-3.62-2.154a8.715,8.715,0,0,0-11.056-4.574,9.058,9.058,0,1,0,11.492,11.768c.237-.56.082-1.478,1.188-1.442,1.808.059,3.617.016,5.789.016-.478.559-.692.808-.9,1.057-.939,1.116-2.919,2.12-1.229,3.81s2.833-.19,3.782-1.263c2.136-2.418,4.309-4.168,7.947-3.728,1.942.237,2.248.731,2.206,2.444-.095,3.813,1.1,4.931,4.922,4.933q12.98.009,25.961,0c4.527,0,5.512-.908,5.441-5.479-.025-1.563.482-1.839,1.909-1.812,4.821.09,9.647.082,14.468,0,1.352-.021,1.8.3,1.784,1.73-.085,6.1-.1,12.2.006,18.3.027,1.6-.557,1.8-1.941,1.789-9.931-.056-19.861-.025-29.79-.045-.5,0-1.112.282-1.764-.553.592-.475,1.222-.924,1.787-1.445.884-.82,1.27-1.812.313-2.777-1.015-1.024-2.035-.656-2.955.279-1.241,1.266-2.485,2.53-3.758,3.762-1.5,1.45-3.412.823-5.035.6-1.011-.138-.382-1.719-.415-2.629-.113-3-1.341-4.453-4.183-4.465q-14.042-.053-28.088,0c-2.685.011-4.016,1.4-4.051,4.1-.045,3.263-.036,6.526,0,9.789.03,3.066,1.323,4.306,4.474,4.324,3.476.019,6.952,0,10.427.008.669,0,1.458-.239,1.407.963-.074,1.662-.019,3.331-.019,5.422-.785-.748-1.239-1.152-1.659-1.59-.96-1-2.051-1.8-3.249-.527-1.114,1.187-.248,2.2.655,3.1,1.207,1.2,2.364,2.452,3.618,3.6,1.039.95.741,2.159.527,3.169-.161.754-1.234.305-1.889.334a33.766,33.766,0,0,1-4.253,0,2.893,2.893,0,0,0-3.123,1.959c-2,4.14-4.091,8.236-6.14,12.351-1.436,2.884-.825,3.92,2.339,3.926,6.171.011,12.37-.359,18.5.116,5.022.39,8.308-.937,9.626-5.987.019-.067.065-.126.088-.193a1.734,1.734,0,0,1,1.933-1.231c7.66.043,15.321.027,22.981.042.168,0,.336.145.908.409-.748.635-1.357,1.094-1.9,1.623-.865.843-1.181,1.857-.244,2.793s1.935.64,2.8-.214c1.265-1.244,2.494-2.522,3.773-3.75,1.687-1.617,3.594-1.234,4.52.876a9.075,9.075,0,1,0,9.941-12.523,8.77,8.77,0,0,0-9.92,5.485c-.556,1.536-1.352,1.62-2.623,1.628a2.58,2.58,0,0,1-1.994-.967c-1.288-1.318-2.576-2.64-3.924-3.9a1.68,1.68,0,0,0-2.626.057,1.725,1.725,0,0,0,.095,2.489c.621.7,1.291,1.358,2.066,2.166H1038.1c.691-1.383,1.3-2.559,1.868-3.748,1.089-2.265.428-3.361-2.077-3.378-3.9-.026-7.81-.146-11.7.05-2.043.1-2.13-.832-1.994-2.341a2.489,2.489,0,0,1,.964-1.573c1.3-1.308,2.623-2.592,3.879-3.941a1.778,1.778,0,0,0-2.455-2.571C1025.88,1182.14,1025.259,1182.807,1024.207,1183.8Z" transform="translate(-0.047 -0.236)" fill="#0ddcf1" fill-rule="evenodd"/>
      <path id="Trazado_189676" data-name="Trazado 189676" d="M1040.414,1124.528c-16.032,0-32.065-.056-48.1.06-2.307.018-2.87-.668-2.663-2.795a53.8,53.8,0,0,0,.035-5.741c-.016-1.576.7-2.39,2.3-2.359.5.01.994,0,1.491,0h94.067c3.694,0,3.792.1,3.795,3.845a50.553,50.553,0,0,0,.038,5.1c.173,1.7-.524,1.924-2.02,1.919C1073.047,1124.507,1056.731,1124.528,1040.414,1124.528Zm.319-7.257c-4.041,0-8.082.009-12.124,0-1.32,0-2.543.225-2.552,1.837s1.263,1.86,2.548,1.861q11.91.01,23.823,0c1.285,0,2.558-.229,2.552-1.856s-1.226-1.847-2.547-1.842C1048.532,1117.281,1044.632,1117.271,1040.733,1117.271Zm44.35,3.7c1.359-.027,2.7-.292,2.6-1.982-.1-1.672-1.5-1.727-2.834-1.731s-2.533.351-2.509,1.855C1082.364,1120.774,1083.728,1120.988,1085.083,1120.973Zm-9.226.007c1.357-.018,2.754-.169,2.727-1.906-.022-1.556-1.251-1.83-2.586-1.813-1.364.017-2.716.122-2.711,1.887C1073.293,1120.78,1074.6,1120.929,1075.857,1120.98Zm-64.37-1.9c-.213-1.053-.753-1.837-1.944-1.771a1.79,1.79,0,1,0,.2,3.574C1010.8,1120.853,1011.332,1120.12,1011.487,1119.082Zm-7.279.05c-.209-1.055-.709-1.879-1.909-1.812a1.784,1.784,0,1,0,.165,3.564C1003.512,1120.879,1004.054,1120.147,1004.207,1119.132Zm-7.307.035a1.711,1.711,0,0,0-1.665-1.817,1.769,1.769,0,1,0-.155,3.531A1.716,1.716,0,0,0,996.9,1119.167Z" transform="translate(-0.047 -0.048)" fill="#f6f8f9" fill-rule="evenodd"/>
      <path id="Trazado_189677" data-name="Trazado 189677" d="M1024.255,1183.87c1.052-.993,1.673-1.661,2.376-2.223a1.778,1.778,0,0,1,2.455,2.571c-1.256,1.349-2.582,2.633-3.879,3.941a2.489,2.489,0,0,0-.964,1.573c-.136,1.508-.049,2.443,1.994,2.341,3.891-.2,7.8-.076,11.7-.05,2.5.017,3.166,1.113,2.077,3.378-.573,1.19-1.177,2.365-1.868,3.748H1061.4c-.775-.807-1.445-1.466-2.066-2.166a1.725,1.725,0,0,1-.095-2.489,1.68,1.68,0,0,1,2.626-.057c1.349,1.256,2.636,2.578,3.924,3.9a2.581,2.581,0,0,0,1.994.967c1.271-.008,2.067-.092,2.623-1.628a8.77,8.77,0,0,1,9.92-5.485,9.056,9.056,0,1,1-9.941,12.523c-.926-2.109-2.833-2.493-4.52-.876-1.279,1.228-2.508,2.506-3.773,3.75-.87.854-1.879,1.139-2.8.214s-.621-1.95.244-2.793c.541-.529,1.15-.988,1.9-1.623-.573-.264-.74-.409-.908-.409-7.66-.015-15.322,0-22.981-.042a1.734,1.734,0,0,0-1.933,1.231c-.023.067-.069.126-.088.193-1.318,5.05-4.6,6.377-9.626,5.987-6.134-.476-12.334-.106-18.5-.117-3.164-.006-3.775-1.042-2.339-3.926,2.049-4.115,4.14-8.21,6.14-12.351a2.893,2.893,0,0,1,3.123-1.959,33.766,33.766,0,0,0,4.253,0c.655-.029,1.728.421,1.888-.334.214-1.01.511-2.219-.527-3.169-1.254-1.149-2.411-2.4-3.618-3.6-.9-.9-1.769-1.911-.656-3.1,1.2-1.275,2.288-.475,3.249.527.421.438.875.842,1.659,1.59,0-2.091-.055-3.759.019-5.422.051-1.2-.737-.963-1.407-.963-3.476-.008-6.952.011-10.427-.008-3.151-.018-4.444-1.258-4.474-4.324-.032-3.263-.04-6.526,0-9.789.036-2.7,1.366-4.088,4.051-4.1q14.045-.055,28.088,0c2.842.012,4.07,1.465,4.183,4.465.034.91-.6,2.491.416,2.629,1.623.225,3.537.852,5.035-.6,1.273-1.232,2.517-2.5,3.758-3.762.92-.936,1.941-1.3,2.956-.279.957.964.57,1.957-.313,2.777-.565.521-1.195.97-1.787,1.445.651.835,1.261.552,1.764.553,9.929.02,19.859-.012,29.79.045,1.384.009,1.967-.186,1.941-1.789-.1-6.1-.091-12.2-.006-18.3.019-1.435-.431-1.751-1.784-1.73-4.821.079-9.647.087-14.468,0-1.427-.027-1.934.25-1.909,1.812.071,4.571-.914,5.479-5.441,5.479q-12.982,0-25.961,0c-3.819,0-5.017-1.12-4.922-4.933.042-1.713-.265-2.207-2.206-2.444-3.638-.44-5.81,1.31-7.947,3.728-.949,1.073-2.084,2.962-3.782,1.262s.29-2.693,1.229-3.809c.212-.25.426-.5.9-1.057-2.172,0-3.981.043-5.789-.016-1.106-.035-.951.883-1.188,1.442a9.052,9.052,0,1,1-11.492-11.768,8.715,8.715,0,0,1,11.056,4.574c.8,1.938,1.856,2.307,3.62,2.154,1.107-.1,2.229-.018,3.794-.018-.939-1.011-1.625-1.675-2.223-2.412a1.67,1.67,0,0,1,.088-2.474,1.7,1.7,0,0,1,2.485,0,9.063,9.063,0,0,1,1.659,1.64c2.043,2.984,4.92,3.647,8.306,3.284,1.051-.113,1.594-.29,1.455-1.438a10.686,10.686,0,0,1-.007-1.488c.084-3.062,1.366-4.369,4.473-4.387,6.171-.036,12.342-.011,18.512-.011,2.838,0,5.675-.011,8.511,0,3.664.017,5.025,1.228,4.852,4.81-.1,2.074.492,2.581,2.538,2.521,5.456-.158,10.921-.067,16.383-.046,2.434.008,2.9.467,2.9,2.839q.019,11.7,0,23.407c0,2.3-.564,2.841-2.918,2.844q-15.958.018-31.918,0h-2.028c-.123.188-.249.374-.373.561a17.694,17.694,0,0,1,1.647,1.214c.973.89,1.632,1.958.434,3.08-1.065,1-2.074.454-2.952-.457a19.957,19.957,0,0,1-2.229-2.278c-1.456-2.112-3.494-2.3-5.78-2.159-1,.061-1.191.427-1.124,1.276a18.434,18.434,0,0,1,.007,1.914c-.067,2.66-1.417,4.057-4.089,4.093-3.546.047-7.1.082-10.639-.022-1.357-.04-1.711.4-1.611,1.67C1024.338,1180.553,1024.255,1181.963,1024.255,1183.87Zm23.56-35.422c4.32,0,8.641-.035,12.96.023,1.169.017,1.62-.271,1.578-1.523-.09-2.686-.094-5.383,0-8.07.044-1.207-.444-1.361-1.469-1.358q-13.065.049-26.13,0c-1.023,0-1.51.147-1.467,1.356.1,2.687.094,5.384,0,8.071-.042,1.241.388,1.543,1.566,1.526C1039.176,1148.412,1043.5,1148.448,1047.814,1148.448Zm-25.334,25.362c4.323,0,8.646-.024,12.968.018,1.026.009,1.528-.17,1.49-1.371-.089-2.691-.083-5.386,0-8.076.035-1.157-.393-1.4-1.459-1.395q-13.072.053-26.146-.008c-1.261-.008-1.54.424-1.5,1.587.078,2.547.107,5.1-.01,7.651-.062,1.376.445,1.641,1.7,1.621C1013.836,1173.768,1018.158,1173.811,1022.481,1173.811Zm-13.452,32.71c6.924,0,13.448,0,19.974,0,.618,0,1.307.168,1.675-.576,1.647-3.331,3.292-6.662,5.073-10.264-7.033,0-13.692,0-20.352,0a1.289,1.289,0,0,0-1.346.775C1012.446,1199.736,1010.792,1203,1009.028,1206.521Zm-1.212-63.287a5.394,5.394,0,1,0-5.59,5.164A5.411,5.411,0,0,0,1007.816,1143.233Zm76.281,57.88a5.393,5.393,0,1,0-5.349,5.4A5.314,5.314,0,0,0,1084.1,1201.113Z" transform="translate(-0.095 -0.307)" fill="#090909" fill-rule="evenodd"/>
      <path id="Trazado_189678" data-name="Trazado 189678" d="M1041.206,1117.318c3.9,0,7.8.01,11.7,0,1.321-.005,2.542.23,2.547,1.842s-1.266,1.855-2.552,1.856q-11.911.01-23.823,0c-1.285,0-2.557-.234-2.548-1.861s1.232-1.842,2.552-1.837C1033.124,1117.327,1037.166,1117.318,1041.206,1117.318Z" transform="translate(-0.52 -0.094)" fill="#0d0d0d" fill-rule="evenodd"/>
      <path id="Trazado_189679" data-name="Trazado 189679" d="M1086.288,1121.02c-1.355.015-2.719-.2-2.745-1.859-.024-1.5,1.168-1.859,2.509-1.855s2.731.059,2.834,1.731C1088.992,1120.727,1087.648,1120.993,1086.288,1121.02Z" transform="translate(-1.252 -0.094)" fill="#0d0d0d" fill-rule="evenodd"/>
      <path id="Trazado_189680" data-name="Trazado 189680" d="M1076.945,1121.026c-1.258-.051-2.564-.2-2.57-1.832,0-1.765,1.347-1.871,2.711-1.887,1.336-.017,2.565.257,2.586,1.813C1079.7,1120.858,1078.3,1121.009,1076.945,1121.026Z" transform="translate(-1.134 -0.094)" fill="#0d0d0d" fill-rule="evenodd"/>
      <path id="Trazado_189681" data-name="Trazado 189681" d="M1011.724,1119.129c-.155,1.038-.687,1.771-1.742,1.8a1.79,1.79,0,1,1-.2-3.574C1010.97,1117.292,1011.51,1118.075,1011.724,1119.129Z" transform="translate(-0.284 -0.095)" fill="#0d0d0d" fill-rule="evenodd"/>
      <path id="Trazado_189682" data-name="Trazado 189682" d="M1004.349,1119.179c-.152,1.015-.694,1.746-1.743,1.752a1.784,1.784,0,1,1-.165-3.564C1003.641,1117.3,1004.141,1118.124,1004.349,1119.179Z" transform="translate(-0.189 -0.095)" fill="#0d0d0d" fill-rule="evenodd"/>
      <path id="Trazado_189683" data-name="Trazado 189683" d="M996.948,1119.214a1.716,1.716,0,0,1-1.82,1.714,1.769,1.769,0,1,1,.155-3.531A1.711,1.711,0,0,1,996.948,1119.214Z" transform="translate(-0.095 -0.095)" fill="#0d0d0d" fill-rule="evenodd"/>
      <path id="Trazado_189684" data-name="Trazado 189684" d="M1048.333,1148.5c-4.319,0-8.639-.037-12.958.025-1.178.017-1.607-.285-1.566-1.526.091-2.687.1-5.384,0-8.071-.043-1.209.444-1.359,1.467-1.356q13.065.049,26.13,0c1.025,0,1.512.152,1.469,1.358-.1,2.687-.092,5.384,0,8.07.041,1.252-.41,1.54-1.578,1.523C1056.974,1148.461,1052.653,1148.5,1048.333,1148.5Z" transform="translate(-0.614 -0.354)" fill="#f3f5f6" fill-rule="evenodd"/>
      <path id="Trazado_189685" data-name="Trazado 189685" d="M1022.668,1174.189c-4.323,0-8.645-.042-12.966.027-1.252.02-1.759-.245-1.7-1.621.116-2.547.088-5.1.01-7.651-.037-1.163.242-1.6,1.5-1.587q13.072.08,26.146.008c1.066-.006,1.494.238,1.459,1.395-.081,2.69-.087,5.385,0,8.076.038,1.2-.464,1.38-1.49,1.371C1031.314,1174.166,1026.991,1174.189,1022.668,1174.189Z" transform="translate(-0.283 -0.685)" fill="#f6f8f9" fill-rule="evenodd"/>
      <path id="Trazado_189686" data-name="Trazado 189686" d="M1009.232,1207.324c1.764-3.522,3.418-6.785,5.024-10.071a1.289,1.289,0,0,1,1.346-.775c6.661,0,13.32,0,20.353,0-1.781,3.6-3.426,6.933-5.073,10.264-.368.744-1.057.576-1.675.577C1022.68,1207.326,1016.156,1207.324,1009.232,1207.324Z" transform="translate(-0.298 -1.11)" fill="#f6f8f9" fill-rule="evenodd"/>
      <path id="Trazado_189687" data-name="Trazado 189687" d="M1007.864,1143.281a5.394,5.394,0,1,1-5.29-5.686A5.382,5.382,0,0,1,1007.864,1143.281Z" transform="translate(-0.142 -0.354)" fill="#f3f5f6" fill-rule="evenodd"/>
      <path id="Trazado_189688" data-name="Trazado 189688" d="M1085.137,1201.917a5.393,5.393,0,1,1-5.332-5.4A5.355,5.355,0,0,1,1085.137,1201.917Z" transform="translate(-1.134 -1.11)" fill="#f3f5f6" fill-rule="evenodd"/>
    </g>
  </g>
</svg>
