<svg xmlns="http://www.w3.org/2000/svg" width="400" height="290" viewBox="0 0 400 290">
  <g id="Grupo_131825" data-name="Grupo 131825" transform="translate(-1020 -4120)">
    <path id="die" d="M2183.061,4102.969l285.435-.232c14.518-15.951,45.988-55.279,50.456-112.329,1.14-14.546,7.081-90.4-41.274-123.028-23.739-16.017-51.57-15.545-76.165-15.128-43.574.738-46.2,14.794-88.729,17.47-51.418,3.235-64.08-16.277-102.465-5.522-30.01,8.408-48.69,27.737-54.487,33.883-39.142,41.5-46.9,109.167-18.574,158.591C2151.065,4080.764,2170.391,4095.193,2183.061,4102.969Z" transform="translate(-1100.286 307.031)" fill="#f7f7fc"/>
    <g id="Grupo_131760" data-name="Grupo 131760" transform="translate(-1100.286 307.031)">
      <path id="Trazado_191257" data-name="Trazado 191257" d="M2314.384,3833.233a6.983,6.983,0,0,0-7.095-6.866H2140.095a6.983,6.983,0,0,0-7.095,6.866v11.046h181.384Z" fill="#61616b"/>
      <path id="Trazado_191258" data-name="Trazado 191258" d="M2314.384,3844.279v103.344a9.661,9.661,0,0,1-9.894,9.411h-161.6a9.661,9.661,0,0,1-9.894-9.411V3844.279Z" fill="#dbdbf1"/>
      <rect id="Rectángulo_293904" data-name="Rectángulo 293904" width="25.552" height="5.2" transform="translate(2175.287 3853.235)" fill="#00defc"/>
      <path id="Trazado_191259" data-name="Trazado 191259" d="M2223.306,3858.435h-15.321v-5.2h15.321Zm69.768-5.2h-17.507v5.2h17.507Zm-58.637,0h-4.627v5.2h4.627Zm37.454,0h-33.572v5.2h33.572Z" fill="#fff"/>
      <rect id="Rectángulo_293905" data-name="Rectángulo 293905" width="25.552" height="5.2" transform="translate(2175.287 3925.482)" fill="#00defc"/>
      <path id="Trazado_191260" data-name="Trazado 191260" d="M2186.793,3941h-11.506v-5.2h11.506Zm13.578-5.2h-11.506v5.2h11.506Z" fill="#fff"/>
      <path id="Trazado_191261" data-name="Trazado 191261" d="M2223.306,3930.682h-15.321v-5.2h15.321Zm11.131-5.2h-4.627v5.2h4.627Zm37.454,0h-33.572v5.2h33.572Z" fill="#61616b"/>
      <path id="Trazado_191262" data-name="Trazado 191262" d="M2253.923,3868.756h-26.684v-5.2h26.684Zm10.771-5.2h-7.121v5.2h7.121Z" fill="#61616b"/>
      <rect id="Rectángulo_293906" data-name="Rectángulo 293906" width="39.074" height="5.2" transform="translate(2184.232 3863.556)" fill="#00defc"/>
      <path id="Trazado_191263" data-name="Trazado 191263" d="M2264.411,3910.04h-26.683v-5.2h26.683Zm18.817-5.2h-15.167v5.2h15.167Z" fill="#61616b"/>
      <rect id="Rectángulo_293907" data-name="Rectángulo 293907" width="49.228" height="5.2" transform="translate(2184.232 3904.84)" fill="#00defc"/>
      <path id="Trazado_191264" data-name="Trazado 191264" d="M2253.923,3889.4h-26.684v-5.2h26.684Zm-30.617-5.2h-16.152v5.2h16.152Z" fill="#61616b"/>
      <path id="Trazado_191265" data-name="Trazado 191265" d="M2148.269,3858.435h-3.342v-5.2h3.342Zm0,5.121h-3.342v5.2h3.342Zm0,10.321h-3.342v5.2h3.342Zm0,10.321h-3.342v5.2h3.342Zm0,10.321h-3.342v5.2h3.342Zm0,10.321h-3.342v5.2h3.342Zm0,10.321h-3.342v5.2h3.342Zm0,10.321h-3.342v5.2h3.342Zm0,10.321h-3.342v5.2h3.342Z" fill="#00defc"/>
      <path id="Trazado_191266" data-name="Trazado 191266" d="M2160.763,3858.435h-9.152v-5.2h9.152Zm0,5.121h-9.152v5.2h9.152Zm0,10.321h-9.152v5.2h9.152Zm0,10.321h-9.152v5.2h9.152Zm0,10.321h-9.152v5.2h9.152Zm0,10.321h-9.152v5.2h9.152Zm0,10.321h-9.152v5.2h9.152Zm0,10.321h-9.152v5.2h9.152Zm0,10.321h-9.152v5.2h9.152Z" fill="#61616b"/>
      <rect id="Rectángulo_293908" data-name="Rectángulo 293908" width="9.151" height="5.2" transform="translate(2194.618 3873.877)" fill="#00defc"/>
      <rect id="Rectángulo_293909" data-name="Rectángulo 293909" width="4.576" height="5.2" transform="translate(2207.154 3873.877)" fill="#00defc"/>
      <rect id="Rectángulo_293910" data-name="Rectángulo 293910" width="12.311" height="5.2" transform="translate(2218.683 3894.519)" fill="#61616b"/>
      <rect id="Rectángulo_293911" data-name="Rectángulo 293911" width="20.797" height="5.2" transform="translate(2215.646 3873.877)" fill="#61616b"/>
      <rect id="Rectángulo_293912" data-name="Rectángulo 293912" width="9.151" height="5.2" transform="translate(2194.618 3915.161)" fill="#00defc"/>
      <g id="Grupo_131757" data-name="Grupo 131757">
        <path id="Trazado_191267" data-name="Trazado 191267" d="M2147.11,3835.455a2.265,2.265,0,1,1,2.266-2.264A2.267,2.267,0,0,1,2147.11,3835.455Zm0-3.656a1.391,1.391,0,1,0,1.392,1.392A1.393,1.393,0,0,0,2147.11,3831.8Z" fill="#fff"/>
      </g>
      <g id="Grupo_131758" data-name="Grupo 131758">
        <path id="Trazado_191268" data-name="Trazado 191268" d="M2153.909,3835.455a2.265,2.265,0,1,1,2.265-2.264A2.267,2.267,0,0,1,2153.909,3835.455Zm0-3.656a1.391,1.391,0,1,0,1.391,1.392A1.393,1.393,0,0,0,2153.909,3831.8Z" fill="#fff"/>
      </g>
      <g id="Grupo_131759" data-name="Grupo 131759">
        <path id="Trazado_191269" data-name="Trazado 191269" d="M2160.707,3835.455a2.265,2.265,0,1,1,2.265-2.264A2.266,2.266,0,0,1,2160.707,3835.455Zm0-3.656a1.391,1.391,0,1,0,1.392,1.392A1.393,1.393,0,0,0,2160.707,3831.8Z" fill="#fff"/>
      </g>
    </g>
    <g id="Grupo_131770" data-name="Grupo 131770" transform="translate(-1100.535 307.031)">
      <g id="man">
        <g id="Grupo_131767" data-name="Grupo 131767">
          <g id="Grupo_131761" data-name="Grupo 131761">
            <path id="Trazado_191270" data-name="Trazado 191270" d="M2375.439,4067.957l-1.649,26.188s81.055.845,90.541,0,29.079.574,25.787-21.117c-1.519-10.028-19.828-92.085-28.453-105.6-6.116-9.591-30.885-18.326-47.541-22.594-.532-.136-1.059-.271-1.575-.4-6.084-1.5-10.885-2.354-12.967-2.354-7.759,0-34.934-7.686-45.281-5.995-.866.141-1.988.36-3.313.652-.595.125-1.231.271-1.905.423-15.716,3.637-51.772,14.292-55.56,20.971-4.31,7.6-32.768,105.6-32.768,105.6Z" fill="#084a93"/>
            <rect id="Rectángulo_293913" data-name="Rectángulo 293913" width="1.46" height="98.179" transform="translate(2329.368 4016.623) rotate(-89.92)" fill="#fff"/>
            <path id="Trazado_191271" data-name="Trazado 191271" d="M2331.562,4025.378v1.461h98.983l-.224-1.461Z" fill="#fff"/>
            <path id="Trazado_191272" data-name="Trazado 191272" d="M2333.748,4035.6v1.461H2432.1l-.224-1.461Z" fill="#fff"/>
            <path id="Trazado_191273" data-name="Trazado 191273" d="M2418.361,4050.884h15.847l-2.108-13.828-.224-1.461-1.331-8.755-.224-1.461-4.347-28.506a213.645,213.645,0,0,1,1.388,28.506c-.015.5-.031.98-.052,1.461a86.142,86.142,0,0,1-.783,8.755c-.073.506-.146.992-.229,1.461C2424.112,4049.83,2419.41,4050.826,2418.361,4050.884Z" fill="#162547" opacity="0.47"/>
            <path id="Trazado_191274" data-name="Trazado 191274" d="M2418.147,4050.884a1.157,1.157,0,0,0,.214,0Z" fill="#182051" opacity="0.88"/>
            <path id="Trazado_191275" data-name="Trazado 191275" d="M2349.709,3956.549c4.2,7.509,12.92,12.727,22.751,13.619,1.1.1,2.222.151,3.355.151,7.1,0,14.808-1.951,22.979-5.823,3.95-1.868,8.9-4.581,12.168-8.969a15.45,15.45,0,0,0,3.162-10.692c-.532-.136-1.059-.271-1.575-.4a14.207,14.207,0,0,1-2.8,10.19c-3.063,4.122-7.811,6.715-11.6,8.51-9.225,4.368-17.824,6.231-25.552,5.531-9.345-.845-17.61-5.771-21.576-12.856a19.878,19.878,0,0,1-.031-19.072c-.595.125-1.231.271-1.905.423A21.533,21.533,0,0,0,2349.709,3956.549Z" fill="#fff"/>
            <path id="Trazado_191276" data-name="Trazado 191276" d="M2450.085,4059.16l.638-.4a18.918,18.918,0,0,0-17.022-8.585l.057.751A18.167,18.167,0,0,1,2450.085,4059.16Z" fill="#162547"/>
            <rect id="Rectángulo_293914" data-name="Rectángulo 293914" width="0.753" height="15.262" transform="translate(2439.039 4047.186) rotate(-89.535)" fill="#162547"/>
            <path id="Trazado_191277" data-name="Trazado 191277" d="M2425.936,3988.173a22.439,22.439,0,0,1,14.986-18.446l-.232-.717a23.215,23.215,0,0,0-15.5,19.083Z" fill="#162547"/>
            <path id="Trazado_191278" data-name="Trazado 191278" d="M2311.283,3978.181l.751-.06a19.865,19.865,0,0,0-11.4-16.122l-.307.688A19.092,19.092,0,0,1,2311.283,3978.181Z" fill="#162547"/>
          </g>
          <g id="Grupo_131766" data-name="Grupo 131766">
            <g id="Grupo_131762" data-name="Grupo 131762">
              <path id="Trazado_191279" data-name="Trazado 191279" d="M2339.053,3840.948a10.893,10.893,0,0,0,6.2,10.286c-.645-.29-2.264,4.207-2.371,4.683a12.216,12.216,0,0,0,.032,5.713c.917,3.685,4.064,7.247,8.039,7.516,4.744.324,6.571-4.066,9.972-6.474a27.256,27.256,0,0,1,30.71-.63c3.4,2.222,6.268,5.168,9.485,7.655,2.3,1.773,8.638,6.235,11.61,4.267,1.589-1.054,2.852-4.084,3.648-5.751a28.123,28.123,0,0,0,1.518-3.891q.379-1.2.639-2.429a28.038,28.038,0,0,0,.577-7.587,10.441,10.441,0,0,0-1.486-5.274,4.693,4.693,0,0,0-4.743-2.155,18.239,18.239,0,0,0-27.688-15.869c.131-5.169-2.881-10.1-7.092-13.106s-9.475-4.253-14.639-4.417c-5.118-.156-10.547.821-14.414,4.174a12.18,12.18,0,0,0-4.051,7.806,8.852,8.852,0,0,0,1.4,5.978A10.913,10.913,0,0,0,2339.053,3840.948Z" fill="#1c1e33"/>
              <path id="Trazado_191280" data-name="Trazado 191280" d="M2345,3825.465a5.969,5.969,0,0,1,1.724-1.45,16.013,16.013,0,0,1,7.213-2.055,45.38,45.38,0,0,1,15.535,2.444c4.987,1.727,9.568,5.428,11.009,10.5,6.289-1.425,13.095-1.857,19.019.705s10.623,8.738,9.8,15.14a14.089,14.089,0,0,1,8.592,13.569q.379-1.2.639-2.429a28.038,28.038,0,0,0,.577-7.587,10.441,10.441,0,0,0-1.486-5.274,4.693,4.693,0,0,0-4.743-2.155,18.239,18.239,0,0,0-27.688-15.869c.131-5.169-2.881-10.1-7.092-13.106s-9.475-4.253-14.639-4.417c-5.118-.156-10.547.821-14.414,4.174A12.18,12.18,0,0,0,2345,3825.465Z" fill="#fff" opacity="0.11"/>
              <path id="Trazado_191281" data-name="Trazado 191281" d="M2408.317,3861.374a10.24,10.24,0,0,1-7.793-8.61c-.014-.122-.024-.243-.031-.361a16.137,16.137,0,0,1-8.251-3.858,5.25,5.25,0,0,1-6.613-6.358.173.173,0,0,1,.206-.121.169.169,0,0,1,.121.205,4.911,4.911,0,0,0,6.012,6,6.239,6.239,0,0,1-.552-.662,3.322,3.322,0,0,1-.027-2.87,2.311,2.311,0,0,1,2.129-1.753,2.124,2.124,0,0,1,1.856,2.231,3.439,3.439,0,0,1-1.555,2.573,4.977,4.977,0,0,1-1.214.639,15.709,15.709,0,0,0,7.878,3.645,2.892,2.892,0,0,1,.816-2.241,1.917,1.917,0,0,1,2.013-.19.964.964,0,0,1,.574.992,1.932,1.932,0,0,1-1.589,1.7,4.791,4.791,0,0,1-1.464.1c.007.1.016.2.027.293a9.889,9.889,0,0,0,7.529,8.318.169.169,0,0,1-.062.332Zm-6.792-11.291a2.633,2.633,0,0,0-.7,2.019,4.561,4.561,0,0,0,1.394-.1,1.6,1.6,0,0,0,1.337-1.412.637.637,0,0,0-.4-.651,1.444,1.444,0,0,0-.448-.141A1.481,1.481,0,0,0,2401.525,3850.083Zm-8.021-6.76a2,2,0,0,0-1.792,1.512,3.068,3.068,0,0,0-.022,2.576,6.319,6.319,0,0,0,.644.755,4.732,4.732,0,0,0,1.288-.651,3.108,3.108,0,0,0,1.415-2.311,1.841,1.841,0,0,0-1.389-1.867A1.156,1.156,0,0,0,2393.5,3843.323Z"/>
              <path id="Trazado_191282" data-name="Trazado 191282" d="M2359.268,3846.5a8.735,8.735,0,0,1-2.507-1.457,6.22,6.22,0,0,1-3.156.391,5.915,5.915,0,0,1-2.207-10.908.169.169,0,1,1,.168.293,5.493,5.493,0,0,0,2.082,10.28,5.915,5.915,0,0,0,2.847-.314c-.073-.077-.144-.156-.212-.238a3.2,3.2,0,0,1-.545-3.463,2.245,2.245,0,0,1,1.688-1.109,1.764,1.764,0,0,1,1.545.507,1.8,1.8,0,0,1,.464,1.373,3.542,3.542,0,0,1-1.257,2.331,5.206,5.206,0,0,1-1.079.7,8.769,8.769,0,0,0,2.3,1.3,11.229,11.229,0,0,0,4.7,1.065,5.265,5.265,0,0,0,3.673-1.594,5.071,5.071,0,0,1-2.861-.774,2.886,2.886,0,0,1-1.31-2.8,2.325,2.325,0,0,1,1.517-1.709,2.791,2.791,0,0,1,2.664.27,3.579,3.579,0,0,1,.685,4.653,9.149,9.149,0,0,0,7.191-4.649.167.167,0,0,1,.228-.069.168.168,0,0,1,.069.228,9.485,9.485,0,0,1-7.736,4.843,5.508,5.508,0,0,1-4.1,1.939,8.147,8.147,0,0,1-1.569-.093A14.064,14.064,0,0,1,2359.268,3846.5Zm-1.8-6.19a1.932,1.932,0,0,0-1.434.934,2.9,2.9,0,0,0,.509,3.087,4.02,4.02,0,0,0,.287.313,4.939,4.939,0,0,0,1.13-.715,3.2,3.2,0,0,0,1.139-2.094,1.46,1.46,0,0,0-.375-1.123,1.322,1.322,0,0,0-.779-.4A1.693,1.693,0,0,0,2357.468,3840.313Zm10.706,4.826a3.236,3.236,0,0,0-.589-4.219,2.484,2.484,0,0,0-2.34-.227,1.994,1.994,0,0,0-1.309,1.457,2.545,2.545,0,0,0,1.169,2.46,4.847,4.847,0,0,0,2.837.716l.108,0C2368.093,3845.263,2368.134,3845.2,2368.174,3845.139Z"/>
            </g>
            <path id="Trazado_191283" data-name="Trazado 191283" d="M2341.47,3878.078a17.875,17.875,0,0,0,4.746,7.57s.011.637.082,1.733c.328,5.52,1.961,22.7,9.631,28.437l-.655,26.531s-2.251,14.678,14.89,18.673,27.444-2.886,35.989-13.054l-.661-52.546s8.673,1.33,12.672-6.934.557-16.986-5.959-14.571l.235-1.534.685-4.47s-7.665-.821-12.417-4.923a10.014,10.014,0,0,1-3.6-6.411s-14.113-1.482-15.246-11.9c0,0-19.238,14.121-32.278,1.2a30.9,30.9,0,0,0-2.3,10.573c-.2,4.77-.405,11.546-.405,11.546s-4.466-2.05-5.644,1.183A14.777,14.777,0,0,0,2341.47,3878.078Z" fill="#ff9e79"/>
            <path id="Trazado_191284" data-name="Trazado 191284" d="M2389.95,3912.159s-18.979,16.892-34.021,3.659l-.227,9.176S2372.923,3934.13,2389.95,3912.159Z" fill="#602929" opacity="0.6"/>
            <path id="Trazado_191285" data-name="Trazado 191285" d="M2400.946,3879.115c.947.37,2.513.754,3.461,1.118a81.26,81.26,0,0,1,7.8-6.316l1.023-6.672s-7.768-.153-12.52-4.255C2402.569,3868.267,2403.122,3873.651,2400.946,3879.115Z" fill="#4d5060"/>
            <g id="Grupo_131765" data-name="Grupo 131765">
              <path id="Trazado_191286" data-name="Trazado 191286" d="M2392.23,3867.357s-11.4-7.044-17.637-4.385c-3.1,1.322-1.569,4.026-.079,4.268s6.4.119,8.737.8,7.651,1.851,8.295,1.65A1.4,1.4,0,0,0,2392.23,3867.357Z" fill="#1c1e33"/>
              <path id="Trazado_191287" data-name="Trazado 191287" d="M2363.736,3865.406c.765.039,1.693-.005,2.07-.673.435-.77-.238-1.7-.955-2.22a9.369,9.369,0,0,0-5.965-1.565,19.4,19.4,0,0,0-6.072,1.517c-.79.314-1.721.913-1.556,1.747s1.256,1.035,2.109,1.047C2356.845,3865.309,2360.259,3865.206,2363.736,3865.406Z" fill="#1c1e33"/>
              <path id="Trazado_191288" data-name="Trazado 191288" d="M2368.881,3887.063a.337.337,0,0,0,.137-.66,12.043,12.043,0,0,1-5.573-3.275.3.3,0,0,1-.05-.334,51.975,51.975,0,0,0,3.889-12.744.339.339,0,0,0-.276-.39.328.328,0,0,0-.389.277,51.279,51.279,0,0,1-3.839,12.579.971.971,0,0,0,.179,1.08,12.714,12.714,0,0,0,5.886,3.459Z" fill="#602929" opacity="0.6"/>
              <ellipse id="Elipse_5083" data-name="Elipse 5083" cx="6.075" cy="8.437" rx="6.075" ry="8.437" transform="translate(2378.904 3891.681) rotate(-88.466)" fill="#cc4c46" opacity="0.32"/>
              <path id="Trazado_191289" data-name="Trazado 191289" d="M2346.216,3885.648a16.246,16.246,0,0,0,.082,1.733c.166.08.339.155.513.222,4.4,1.747,8.958.63,10.194-2.486s-1.315-7.057-5.711-8.8a11.344,11.344,0,0,0-4.1-.824S2346.315,3883.1,2346.216,3885.648Z" fill="#cc4c46" opacity="0.32"/>
              <path id="Trazado_191290" data-name="Trazado 191290" d="M2409.4,3884.4a.337.337,0,0,0,.36-.2,14.182,14.182,0,0,1,3.713-5.041,2.855,2.855,0,0,1,2.148-.942l.026,0a2.069,2.069,0,0,1,1.358.982,6.279,6.279,0,0,1,.7,1.8.338.338,0,0,0,.652-.176,6.854,6.854,0,0,0-.785-1.991,2.683,2.683,0,0,0-1.859-1.288,3.589,3.589,0,0,0-2.68,1.1,14.853,14.853,0,0,0-3.891,5.283.338.338,0,0,0,.175.444A.321.321,0,0,0,2409.4,3884.4Z" fill="#602929" opacity="0.6"/>
              <path id="Trazado_191291" data-name="Trazado 191291" d="M2414.464,3887.238a.336.336,0,0,0,.335-.151,8.088,8.088,0,0,0-.013-8.525.337.337,0,1,0-.566.366,7.4,7.4,0,0,1,.011,7.794.337.337,0,0,0,.233.516Z" fill="#602929" opacity="0.6"/>
              <g id="Grupo_131763" data-name="Grupo 131763">
                <ellipse id="Elipse_5084" data-name="Elipse 5084" cx="4.387" cy="2.362" rx="4.387" ry="2.362" transform="translate(2377.327 3881.034) rotate(-85.803)" fill="#1c1e33"/>
                <ellipse id="Elipse_5085" data-name="Elipse 5085" cx="0.675" cy="0.337" rx="0.675" ry="0.337" transform="translate(2378.388 3876.242) rotate(-81.28)" fill="#fff"/>
                <ellipse id="Elipse_5086" data-name="Elipse 5086" cx="1.687" cy="1.012" rx="1.687" ry="1.012" transform="translate(2378.543 3879.68) rotate(-81.28)"/>
              </g>
              <g id="Grupo_131764" data-name="Grupo 131764">
                <ellipse id="Elipse_5087" data-name="Elipse 5087" cx="4.387" cy="2.362" rx="4.387" ry="2.362" transform="translate(2355.978 3877.76) rotate(-85.803)" fill="#1c1e33"/>
                <path id="Trazado_191292" data-name="Trazado 191292" d="M2357.038,3872.967c-.056.369.047.691.231.719s.38-.248.436-.616-.047-.69-.231-.719S2357.095,3872.6,2357.038,3872.967Z" fill="#fff"/>
                <ellipse id="Elipse_5088" data-name="Elipse 5088" cx="1.687" cy="1.012" rx="1.687" ry="1.012" transform="translate(2357.193 3876.406) rotate(-81.28)"/>
              </g>
              <path id="Trazado_191293" data-name="Trazado 191293" d="M2342.541,3870.224a3.492,3.492,0,0,1,3.386,3.379.338.338,0,0,1-.335.34.5.5,0,0,1-.054,0,.338.338,0,0,1-.286-.332,2.744,2.744,0,0,0-1-2.02,6.729,6.729,0,0,0-.665,6.309.337.337,0,0,1-.362.464.334.334,0,0,1-.26-.2,7.421,7.421,0,0,1,.73-6.951,2.539,2.539,0,0,0-1.161-.308.337.337,0,1,1,0-.674Z" fill="#602929" opacity="0.6"/>
            </g>
            <path id="Trazado_191294" data-name="Trazado 191294" d="M2343.351,3873.258c-.486,3.172,3.815,6.374,9.793,7.291s11.041-.849,11.527-4.021a3.108,3.108,0,0,0,.024-.407,4.706,4.706,0,0,1,3.157-.519,4.652,4.652,0,0,1,2.847,1.877c-.459,3.166,3.981,6.379,10.132,7.322,6.167.946,11.379-.8,11.866-3.974a3.72,3.72,0,0,0-.741-2.7l20.034-4.277-.136-.641-20.349,4.345c-1.678-1.893-4.943-3.465-8.938-4.078-5.659-.868-10.5.534-11.641,3.223a5.183,5.183,0,0,0-6.283-1.293c-.528-2.775-4.491-5.363-9.764-6.172C2348.9,3868.32,2343.838,3870.087,2343.351,3873.258Zm28,4.294c.424-2.764,5.412-4.3,11.12-3.426s10.006,3.837,9.582,6.6-5.412,4.3-11.12,3.426S2370.924,3880.317,2371.348,3877.552Zm-27.359-4.2c.424-2.768,5.265-4.329,10.792-3.482,5.078.779,8.984,3.325,9.257,5.881h0v0a2.6,2.6,0,0,1,0,.672c-.425,2.768-5.266,4.33-10.793,3.482S2343.564,3876.124,2343.989,3873.356Z" fill="#fff"/>
            <path id="Trazado_191295" data-name="Trazado 191295" d="M2367.594,3897.737a12.62,12.62,0,0,0,7.08-2.092.423.423,0,0,0-.474-.7,12.316,12.316,0,0,1-14.818-1.14.422.422,0,1,0-.576.617A12.94,12.94,0,0,0,2367.594,3897.737Z" fill="#602929" opacity="0.6"/>
            <path id="Trazado_191296" data-name="Trazado 191296" d="M2366.093,3901.3a5.709,5.709,0,0,0,2.492-.562.423.423,0,0,0-.368-.761,5.144,5.144,0,0,1-5.833-1.1.422.422,0,0,0-.621.572A5.916,5.916,0,0,0,2366.093,3901.3Z" fill="#602929" opacity="0.6"/>
          </g>
        </g>
        <g id="Grupo_131768" data-name="Grupo 131768">
          <path id="Trazado_191297" data-name="Trazado 191297" d="M2252.346,4094.521H2400.4a11.277,11.277,0,0,0,11.186-12.7l-11.43-89.652a11.277,11.277,0,0,0-11.186-9.851h-148.05a11.277,11.277,0,0,0-11.186,12.7l11.43,89.652A11.277,11.277,0,0,0,2252.346,4094.521Z" fill="#b0c0d2"/>
          <circle id="Elipse_5089" data-name="Elipse 5089" cx="10.175" cy="10.175" r="10.175" transform="translate(2304.209 4028.251)" fill="#fff"/>
        </g>
        <path id="Trazado_191298" data-name="Trazado 191298" d="M2446.964,4087.256h-48.533v7.265h55.476a.161.161,0,0,0,.161-.161h0A7.1,7.1,0,0,0,2446.964,4087.256Z" fill="#b0c0d2"/>
      </g>
      <g id="cup">
        <g id="Grupo_131769" data-name="Grupo 131769">
          <path id="Trazado_191299" data-name="Trazado 191299" d="M2228.251,4042.872l-4.786,52.008a.856.856,0,0,1-.9.743h-32.942a.868.868,0,0,1-.9-.728l-.65-6.6-4.476-45.1a.843.843,0,0,1,.883-.882l34.568-.264,8.286-.062A.854.854,0,0,1,2228.251,4042.872Z" fill="#ffb30b"/>
          <path id="Trazado_191300" data-name="Trazado 191300" d="M2228.251,4042.872l-4.786,52.008a.856.856,0,0,1-.9.743h-32.942a.868.868,0,0,1-.9-.728l-.65-6.6c2.958-1.688,6.21-2.849,9.261-4.383a39.9,39.9,0,0,0,15.07-13.6c3.314-4.987,6.224-10.635,6.536-16.633a115.758,115.758,0,0,0,.108-11.632l8.286-.062A.854.854,0,0,1,2228.251,4042.872Z" fill="#e39c00"/>
          <path id="Trazado_191301" data-name="Trazado 191301" d="M2220.1,4083.934a1.647,1.647,0,0,1-.416-3.24,13.634,13.634,0,0,0,1.493-25.89,1.646,1.646,0,1,1,1.2-3.067,16.926,16.926,0,0,1-1.855,32.142A1.681,1.681,0,0,1,2220.1,4083.934Z" fill="#ffc33d"/>
        </g>
      </g>
      <path id="table" d="M2507.232,4102.969H2133.34a4.443,4.443,0,0,1-4.443-4.442h0a4.443,4.443,0,0,1,4.443-4.443h373.892a4.443,4.443,0,0,1,4.442,4.443h0A4.443,4.443,0,0,1,2507.232,4102.969Z" fill="#636363"/>
    </g>
    <path id="Trazado_191302" data-name="Trazado 191302" d="M2520.256,3839.749a25.716,25.716,0,0,0-.3-5.321l-.011-.07-3.426.568a22.122,22.122,0,0,0-1.217-4.456l3.241-1.259a25.513,25.513,0,0,0-2.449-4.751l-2.911,1.913a22.158,22.158,0,0,0-2.924-3.567l2.45-2.478a25.706,25.706,0,0,0-4.166-3.339l-1.885,2.929a22.185,22.185,0,0,0-4.12-2.077l1.237-3.259a25.509,25.509,0,0,0-5.169-1.362l-.528,3.44a21.855,21.855,0,0,0-4.609-.225l-.2-3.466a26,26,0,0,0-5.267.859l.91,3.352a21.9,21.9,0,0,0-4.3,1.674l-1.593-3.094a25.463,25.463,0,0,0-4.468,2.932l2.207,2.7a22.17,22.17,0,0,0-3.248,3.277l-2.716-2.18a25.691,25.691,0,0,0-2.891,4.49l3.11,1.572a22.1,22.1,0,0,0-1.641,4.312l-3.368-.89a25.465,25.465,0,0,0-.814,5.284l3.472.164a22.074,22.074,0,0,0,.255,4.585l.005.025-3.427.556a25.748,25.748,0,0,0,1.4,5.153l3.243-1.255a21.9,21.9,0,0,0,2.114,4.1l-2.913,1.91a25.611,25.611,0,0,0,3.38,4.135l2.453-2.475a22.209,22.209,0,0,0,3.6,2.892l-1.887,2.928a25.7,25.7,0,0,0,4.765,2.411l1.241-3.257a21.933,21.933,0,0,0,4.458,1.186l-.532,3.439a25.56,25.56,0,0,0,5.338.257l-.2-3.467a22.164,22.164,0,0,0,4.559-.738l.906,3.353a25.55,25.55,0,0,0,4.984-1.927l-1.589-3.1a21.982,21.982,0,0,0,3.856-2.531l2.2,2.7a25.687,25.687,0,0,0,3.762-3.791l-2.714-2.182a22.272,22.272,0,0,0,2.5-3.879l3.109,1.575a25.537,25.537,0,0,0,1.9-4.992l-3.367-.894a21.874,21.874,0,0,0,.715-4.557Zm-23.7,10.12a11.529,11.529,0,1,1,9.546-13.217A11.542,11.542,0,0,1,2496.56,3849.869Z" transform="translate(-1100.286 307.031)" fill="#ffb30b" opacity="0.2"/>
    <g id="Grupo_131771" data-name="Grupo 131771" transform="translate(-1100.286 307.031)">
      <circle id="Elipse_5090" data-name="Elipse 5090" cx="1.708" cy="1.708" r="1.708" transform="translate(2134.484 3999.473)" fill="#00defc"/>
      <circle id="Elipse_5091" data-name="Elipse 5091" cx="1.708" cy="1.708" r="1.708" transform="translate(2139.142 4004.132)" fill="#00defc"/>
      <circle id="Elipse_5092" data-name="Elipse 5092" cx="1.708" cy="1.708" r="1.708" transform="translate(2143.801 4008.791)" fill="#00defc"/>
      <circle id="Elipse_5093" data-name="Elipse 5093" cx="1.708" cy="1.708" r="1.708" transform="translate(2148.46 4013.45)" fill="#00defc"/>
      <circle id="Elipse_5094" data-name="Elipse 5094" cx="1.708" cy="1.708" r="1.708" transform="translate(2129.751 4004.206)" fill="#00defc"/>
      <circle id="Elipse_5095" data-name="Elipse 5095" cx="1.708" cy="1.708" r="1.708" transform="translate(2134.41 4008.865)" fill="#00defc"/>
      <circle id="Elipse_5096" data-name="Elipse 5096" cx="1.708" cy="1.708" r="1.708" transform="translate(2139.069 4013.523)" fill="#00defc"/>
      <circle id="Elipse_5097" data-name="Elipse 5097" cx="1.708" cy="1.708" r="1.708" transform="translate(2143.728 4018.182)" fill="#00defc"/>
      <circle id="Elipse_5098" data-name="Elipse 5098" cx="1.708" cy="1.708" r="1.708" transform="translate(2125.018 4008.938)" fill="#00defc"/>
      <circle id="Elipse_5099" data-name="Elipse 5099" cx="1.708" cy="1.708" r="1.708" transform="translate(2129.677 4013.597)" fill="#00defc"/>
      <circle id="Elipse_5100" data-name="Elipse 5100" cx="1.708" cy="1.708" r="1.708" transform="translate(2134.336 4018.256)" fill="#00defc"/>
      <circle id="Elipse_5101" data-name="Elipse 5101" cx="1.708" cy="1.708" r="1.708" transform="translate(2138.995 4022.915)" fill="#00defc"/>
      <path id="Trazado_191303" data-name="Trazado 191303" d="M2123.2,4016.587a1.708,1.708,0,1,1,0-2.416A1.709,1.709,0,0,1,2123.2,4016.587Z" fill="#00defc"/>
      <circle id="Elipse_5102" data-name="Elipse 5102" cx="1.708" cy="1.708" r="1.708" transform="translate(2124.945 4018.33)" fill="#00defc"/>
      <circle id="Elipse_5103" data-name="Elipse 5103" cx="1.708" cy="1.708" r="1.708" transform="translate(2129.604 4022.989)" fill="#00defc"/>
      <circle id="Elipse_5104" data-name="Elipse 5104" cx="1.708" cy="1.708" r="1.708" transform="translate(2134.262 4027.647)" fill="#00defc"/>
    </g>
    <g id="Grupo_131773" data-name="Grupo 131773" transform="translate(1340.101 4155.431)">
      <rect id="Rectángulo_41340" data-name="Rectángulo 41340" width="49.892" height="52.886" rx="9" transform="translate(4.989 2.023)" fill="#00defc"/>
      <g id="Grupo_128807" data-name="Grupo 128807" transform="translate(0 0)">
        <path id="Trazado_189329" data-name="Trazado 189329" d="M205.63,73.673a3.941,3.941,0,0,1-1.434,2.873Q196.959,83.767,189.736,91q-8.872,8.871-17.745,17.74c-2.145,2.143-3.729,2.142-5.868,0q-8.218-8.211-16.43-16.427c-2.087-2.088-2.076-3.681.023-5.787q1.687-1.693,3.38-3.379c2.1-2.089,3.663-2.078,5.791.046,3.132,3.126,6.283,6.234,9.372,9.4.668.686.986.606,1.621-.032Q182.33,80.05,194.837,67.586c2.25-2.249,3.731-2.252,5.97-.02q1.833,1.829,3.661,3.663A3.339,3.339,0,0,1,205.63,73.673Z" transform="translate(-137.594 -63.298)" fill="#113356" fill-rule="evenodd"/>
        <path id="Trazado_189330" data-name="Trazado 189330" d="M149.569,116.672c-5.442,0-10.89-.159-16.324.04a12.135,12.135,0,0,1-12.467-12.535c.21-11.057.037-22.121.065-33.182a11.664,11.664,0,0,1,9.355-11.6,14.986,14.986,0,0,1,3.034-.228q16.392-.023,32.784-.011a12.285,12.285,0,0,1,4.809.777c1.538.639,1.753,1.5.629,2.68-.427.448-.9.858-1.306,1.32a1.892,1.892,0,0,1-2.021.626,12.4,12.4,0,0,0-2.9-.212q-15.927.009-31.855.006c-3.7,0-6.287,1.809-7.078,4.974a8.781,8.781,0,0,0-.191,2.1q-.017,16.459,0,32.917c.006,4.439,2.651,7.117,7.081,7.127q16.459.035,32.917,0c4.408-.011,7.046-2.734,7.059-7.169.009-2.92.049-5.841-.022-8.76a3.1,3.1,0,0,1,1.139-2.665c.639-.543,1.191-1.186,1.8-1.762a1.256,1.256,0,0,1,1.435-.383,1.308,1.308,0,0,1,.9,1.329c-.089,4.907.344,9.831-.209,14.718a11.352,11.352,0,0,1-10.711,9.827c-5.969.138-11.944.032-17.917.032Z" transform="translate(-120.775 -59.151)" fill="#113356" fill-rule="evenodd"/>
      </g>
    </g>
  </g>
</svg>
