<svg xmlns="http://www.w3.org/2000/svg" width="118" height="115" viewBox="0 0 118 115">
  <g id="Grupo_131784" data-name="Grupo 131784" transform="translate(-719 -2082)">
    <rect id="Rectángulo_293442" data-name="Rectángulo 293442" width="118" height="115" transform="translate(719 2082)" fill="#e8e8e8"/>
    <g id="Grupo_129345" data-name="Grupo 129345" transform="translate(-522.683 973.777)">
      <path id="Trazado_189707" data-name="Trazado 189707" d="M1300.684,1214.882q-24.071,0-48.141,0c-7.379,0-10.852-3.471-10.854-10.818,0-3.147.022-3.141-.006-6.29-.019-1.916.948-2.99,2.787-2.829s1.865-.728,1.862-2.129c-.038-17.2.142-34.4-.116-51.6-.089-5.988,3.381-11.669,11.207-11.034,1.831.15,3.693-.092,5.523.058,1.607.129,1.942-.516,1.871-1.961a16.38,16.38,0,0,1,.254-4.809,8.976,8.976,0,0,1,8.29-7.087c2.527-.147,5.065-.076,7.6-.076,14.817-.007,29.64.2,44.452-.083,8.1-.156,11.774,5.254,11.106,11.1-.285,2.5.668,3.152,2.993,2.92a52.1,52.1,0,0,1,5.984-.035c5.669.092,9.514,3.916,9.523,9.592q.043,26.259-.01,52.518c0,1.664-.11,2.943,2.292,2.657,1.452-.173,2.345.96,2.344,2.533,0,3.992.114,4.834-.052,8.822a8.892,8.892,0,0,1-8.469,8.457c-3.445.182-6.908.085-10.364.087Q1320.721,1214.89,1300.684,1214.882Zm-.017-75.435c-9.744,0-19.489.034-29.232-.035-1.542-.01-2.084.3-2.075,1.979.073,12.966.029,25.934.047,38.9.005,3.617,1.747,5.352,5.366,5.355q25.893.022,51.789,0c3.615,0,5.36-1.743,5.364-5.358.02-12.969-.025-25.935.05-38.9.01-1.682-.54-1.987-2.078-1.976C1320.158,1139.479,1310.412,1139.448,1300.667,1139.448Zm.264,60.065q-26.242,0-52.484-.021c-1.36,0-2.369-.046-2.182,1.845a10.409,10.409,0,0,1,.039,2.367c0,5.258,1.277,6.559,6.453,6.559q47.879,0,95.757,0c.692,0,1.385.024,2.07-.031a4.468,4.468,0,0,0,4.435-4.622c.067-2.3-.119-1.46.058-3.748.147-1.9-.408-2.407-2.353-2.4C1335.459,1199.548,1318.2,1199.512,1300.932,1199.512Zm-.219-4.614c12.745,0,25.488-.035,38.229.039,1.748.008,2.3-.364,2.286-2.224q-.123-23.258.008-46.517c.01-1.97-.7-2.215-2.347-2.174-1.522.039-2.423.018-2.4,2.1.129,11.284.069,22.567.058,33.852-.007,6.566-3.7,10.278-10.247,10.285q-25.563.022-51.126,0c-6.706,0-10.378-3.681-10.386-10.374-.007-11.285-.06-22.568.057-33.852.019-1.954-.761-2.056-2.26-2-1.422.054-2.51-.222-2.492,2.022.122,15.582.1,31.164.021,46.747-.009,1.734.424,2.148,2.142,2.137C1275.075,1194.863,1287.9,1194.9,1300.713,1194.9Zm-.284-60.065c9.822,0,19.645-.033,29.469.035,1.555.011,2.185-.312,2.08-2-.151-2.371.019-4.758-.057-7.134-.091-2.947-1.822-4.777-4.764-4.785q-26.477-.068-52.955,0c-3.038.007-4.728,1.875-4.793,4.991-.048,2.3.1,4.611-.047,6.9-.1,1.654.467,2.036,2.056,2.023C1281.088,1134.8,1290.759,1134.834,1300.429,1134.834Zm-49.507,31.665c0,8.821.1,17.647-.072,26.464-.047,2.36,1.218,1.842,2.537,1.958,1.574.138,2.233-.146,2.215-2.033-.115-11.046-.057-22.092-.057-33.141,0-5.751.023-11.505-.012-17.259-.013-2.115.911-3.128,3.057-3.042a38.962,38.962,0,0,1,4.135.046c2.146.311,2.042-.908,2.109-2.415.075-1.711-.292-2.478-2.2-2.294-1.976.19-3.984.036-5.979.043-4.146.016-5.724,1.567-5.727,5.668Q1250.912,1153.5,1250.921,1166.5Zm99.5-.024q0-13.118-.007-26.235c-.006-3.686-1.666-5.371-5.286-5.411-1.995-.022-4,.127-5.98-.042-2.011-.17-2.79.348-2.671,2.546.091,1.664.382,2.4,2.162,2.148a23.482,23.482,0,0,1,3.22-.027c3.524.006,3.937.42,3.937,3.984,0,16.491.045,32.986-.057,49.475-.012,1.945.727,2.09,2.243,2.013,1.378-.073,2.552.31,2.508-1.986C1350.317,1184.12,1350.418,1175.3,1350.418,1166.475Z" transform="translate(0 0)" fill="#050505" fill-rule="evenodd"/>
      <path id="Trazado_189708" data-name="Trazado 189708" d="M1299.309,1138.31c9.744,0,19.49.031,29.234-.035,1.538-.011,2.087.294,2.078,1.976-.076,12.967-.03,25.934-.05,38.9,0,3.615-1.75,5.355-5.364,5.358q-25.893.022-51.79,0c-3.62,0-5.361-1.737-5.366-5.355-.018-12.968.025-25.936-.047-38.9-.01-1.679.533-1.99,2.075-1.979C1279.82,1138.343,1289.565,1138.31,1299.309,1138.31Zm-10.353,41.573c4.287,0,8.577-.028,12.866.014,1.72.016,3.206-.31,3.176-2.364-.031-1.889-1.434-2.27-3.068-2.267q-12.984.03-25.966-.006c-1.74-.005-3.237.434-3.194,2.394.044,1.982,1.614,2.268,3.316,2.247C1280.377,1179.847,1284.666,1179.883,1288.956,1179.883Zm-4.69-9.233c2.762,0,5.526-.027,8.289.01,1.707.023,3.207-.283,3.179-2.371-.024-1.929-1.43-2.265-3.061-2.257-5.6.026-11.2.038-16.808-.008-1.671-.013-3.069.453-3.094,2.263-.025,1.972,1.458,2.414,3.207,2.379C1278.739,1170.608,1281.5,1170.65,1284.266,1170.65Zm.749-20.81c1.448-.983,2.667-1.762,3.834-2.611,1.114-.811,1.661-1.868.827-3.166a2.189,2.189,0,0,0-3.38-.625c-2.191,1.408-4.382,2.823-6.508,4.326-1.756,1.241-1.772,2.856-.021,4.117,2.112,1.524,4.31,2.927,6.483,4.363a2.206,2.206,0,0,0,3.4-.575c.857-1.267.373-2.354-.75-3.178C1287.73,1151.636,1286.511,1150.854,1285.015,1149.839Zm28.584-.015c-1.469,1.01-2.749,1.833-3.961,2.741a2.1,2.1,0,0,0-.6,3.2,2.063,2.063,0,0,0,3.024.633c2.382-1.54,4.787-3.056,7.07-4.73a2.131,2.131,0,0,0-.037-3.683c-2.226-1.627-4.551-3.121-6.872-4.608a2.152,2.152,0,0,0-3.22.591c-.876,1.259-.439,2.358.684,3.192C1310.854,1148.025,1312.087,1148.8,1313.6,1149.825Zm-5,16.219c-1.839,0-3.677-.01-5.518,0-1.537.01-2.526.73-2.522,2.329a2.116,2.116,0,0,0,2.352,2.257c3.755.031,7.51.017,11.263.007a2.172,2.172,0,0,0,2.422-2.211,2.2,2.2,0,0,0-2.482-2.383C1312.277,1166.035,1310.436,1166.045,1308.6,1166.044Zm8.991,13.837c1.916,0,3.833,0,5.748,0a2.214,2.214,0,0,0,2.526-2.343,2.184,2.184,0,0,0-2.4-2.249c-3.755-.036-7.512-.045-11.269,0a2.135,2.135,0,0,0-2.38,2.239c-.02,1.612.933,2.338,2.487,2.346C1314.063,1179.889,1315.826,1179.881,1317.589,1179.881Zm-22.905-25.539a2.367,2.367,0,0,0,1.8,2.355,2.2,2.2,0,0,0,2.634-1.345c1.467-2.849,2.872-5.732,4.325-8.59.725-1.421.75-2.753-.784-3.537-1.517-.778-2.618-.029-3.33,1.409-1.389,2.8-2.8,5.6-4.178,8.4A10.49,10.49,0,0,0,1294.684,1154.341Z" transform="translate(1.358 1.138)" fill="#0ddcf1" fill-rule="evenodd"/>
      <path id="Trazado_189709" data-name="Trazado 189709" d="M1300.708,1195.428c17.264,0,34.527.036,51.792-.051,1.945-.008,2.5.5,2.353,2.4-.177,2.288.009,1.446-.058,3.748a4.468,4.468,0,0,1-4.435,4.622c-.685.056-1.378.031-2.07.031q-47.878,0-95.757,0c-5.176,0-6.453-1.3-6.453-6.559a10.41,10.41,0,0,0-.039-2.367c-.187-1.891.822-1.846,2.182-1.844Q1274.468,1195.454,1300.708,1195.428Z" transform="translate(0.224 4.085)" fill="#f5f7f8" fill-rule="evenodd"/>
      <path id="Trazado_189710" data-name="Trazado 189710" d="M1299.809,1193.535c-12.817,0-25.638-.036-38.456.042-1.718.011-2.152-.4-2.142-2.137.075-15.583.1-31.165-.021-46.747-.018-2.244,1.071-1.969,2.492-2.022,1.5-.053,2.279.049,2.26,2-.117,11.284-.064,22.568-.057,33.852.007,6.693,3.68,10.371,10.386,10.374q25.564.017,51.126,0c6.548-.006,10.24-3.718,10.247-10.285.011-11.285.071-22.568-.058-33.852-.023-2.086.878-2.065,2.4-2.1,1.644-.041,2.357.2,2.347,2.174q-.148,23.257-.008,46.517c.012,1.86-.538,2.233-2.286,2.224C1325.3,1193.5,1312.554,1193.535,1299.809,1193.535Z" transform="translate(0.903 1.364)" fill="#f3f5f6" fill-rule="evenodd"/>
      <path id="Trazado_189711" data-name="Trazado 189711" d="M1299.071,1134.6c-9.67,0-19.341-.036-29.011.036-1.589.013-2.16-.369-2.056-2.023.146-2.291,0-4.6.047-6.9.065-3.116,1.755-4.984,4.793-4.991q26.478-.068,52.955,0c2.941.007,4.673,1.838,4.764,4.785.076,2.376-.095,4.763.057,7.134.105,1.685-.525,2.008-2.08,2C1318.716,1134.571,1308.893,1134.6,1299.071,1134.6Zm-11.3-9.233c-1.655-.124-3.395.059-3.419,2.221-.024,2.122,1.675,2.4,3.412,2.385,1.72-.019,3.386-.23,3.348-2.432C1291.074,1125.459,1289.468,1125.281,1287.766,1125.371Zm-11.716-.006c-1.656-.13-3.321.182-3.277,2.333.038,1.957,1.632,2.3,3.3,2.278s3.417-.1,3.463-2.315C1279.584,1125.38,1277.843,1125.309,1276.051,1125.365Z" transform="translate(1.358 0.23)" fill="#f3f5f6" fill-rule="evenodd"/>
      <path id="Trazado_189712" data-name="Trazado 189712" d="M1250.472,1165.59q0-13,0-26.005c0-4.1,1.581-5.652,5.727-5.668,1.995-.007,4,.147,5.979-.043,1.912-.184,2.279.583,2.2,2.294-.066,1.507.038,2.727-2.109,2.416a38.932,38.932,0,0,0-4.135-.046c-2.146-.085-3.069.927-3.057,3.042.035,5.753.012,11.508.012,17.259,0,11.049-.058,22.1.057,33.141.018,1.887-.64,2.171-2.215,2.033-1.32-.116-2.585.4-2.537-1.958C1250.577,1183.237,1250.472,1174.411,1250.472,1165.59Z" transform="translate(0.45 0.91)" fill="#f5f7f8" fill-rule="evenodd"/>
      <path id="Trazado_189713" data-name="Trazado 189713" d="M1345.767,1165.566c0,8.821-.1,17.645.068,26.464.044,2.3-1.13,1.914-2.508,1.986-1.516.078-2.255-.067-2.243-2.013.1-16.489.059-32.984.057-49.475,0-3.564-.413-3.977-3.937-3.984a23.5,23.5,0,0,0-3.22.027c-1.78.247-2.071-.485-2.162-2.148-.119-2.2.66-2.716,2.671-2.546,1.98.169,3.986.02,5.98.042,3.621.04,5.28,1.725,5.286,5.411Q1345.783,1152.448,1345.767,1165.566Z" transform="translate(4.651 0.91)" fill="#f5f7f8" fill-rule="evenodd"/>
      <path id="Trazado_189714" data-name="Trazado 189714" d="M1288.722,1178.068c-4.29,0-8.579-.036-12.87.018-1.7.021-3.271-.265-3.316-2.247-.043-1.96,1.453-2.4,3.194-2.394q12.982.049,25.966.006c1.633,0,3.036.379,3.068,2.267.031,2.054-1.455,2.38-3.176,2.364C1297.3,1178.039,1293.01,1178.068,1288.722,1178.068Z" transform="translate(1.592 2.953)" fill="#030303" fill-rule="evenodd"/>
      <path id="Trazado_189715" data-name="Trazado 189715" d="M1284.032,1169.288c-2.764,0-5.527-.042-8.288.016-1.749.036-3.233-.407-3.207-2.379.024-1.81,1.423-2.276,3.094-2.263,5.6.046,11.2.035,16.808.008,1.631-.008,3.037.328,3.061,2.257.027,2.089-1.472,2.394-3.179,2.371C1289.558,1169.261,1286.795,1169.288,1284.032,1169.288Z" transform="translate(1.592 2.5)" fill="#030303" fill-rule="evenodd"/>
      <path id="Trazado_189716" data-name="Trazado 189716" d="M1284.5,1149.612c1.5,1.015,2.715,1.8,3.881,2.651,1.123.824,1.607,1.911.75,3.178a2.206,2.206,0,0,1-3.4.575c-2.173-1.437-4.372-2.839-6.483-4.363-1.751-1.261-1.735-2.876.021-4.117,2.126-1.5,4.318-2.918,6.509-4.326a2.189,2.189,0,0,1,3.38.625c.835,1.3.287,2.355-.827,3.166C1287.168,1147.85,1285.95,1148.629,1284.5,1149.612Z" transform="translate(1.872 1.365)" fill="#050505" fill-rule="evenodd"/>
      <path id="Trazado_189717" data-name="Trazado 189717" d="M1311.609,1149.6c-1.511-1.023-2.745-1.8-3.912-2.665-1.123-.834-1.559-1.933-.683-3.191a2.152,2.152,0,0,1,3.22-.591c2.321,1.487,4.646,2.981,6.872,4.608a2.131,2.131,0,0,1,.037,3.683c-2.283,1.674-4.688,3.191-7.07,4.73a2.063,2.063,0,0,1-3.024-.633,2.1,2.1,0,0,1,.6-3.2C1308.86,1151.43,1310.14,1150.608,1311.609,1149.6Z" transform="translate(3.347 1.365)" fill="#050505" fill-rule="evenodd"/>
      <path id="Trazado_189718" data-name="Trazado 189718" d="M1307,1164.681c1.838,0,3.679-.009,5.516,0a2.2,2.2,0,0,1,2.482,2.383,2.172,2.172,0,0,1-2.422,2.211c-3.753.009-7.507.023-11.263-.008a2.116,2.116,0,0,1-2.352-2.257c0-1.6.984-2.32,2.522-2.329C1303.323,1164.672,1305.161,1164.681,1307,1164.681Z" transform="translate(2.956 2.5)" fill="#030303" fill-rule="evenodd"/>
      <path id="Trazado_189719" data-name="Trazado 189719" d="M1315.538,1178.066c-1.763,0-3.526.008-5.289,0-1.554-.009-2.507-.734-2.487-2.346a2.135,2.135,0,0,1,2.38-2.239c3.757-.048,7.514-.039,11.269,0a2.184,2.184,0,0,1,2.4,2.249,2.214,2.214,0,0,1-2.526,2.343Q1318.413,1178.061,1315.538,1178.066Z" transform="translate(3.41 2.953)" fill="#050505" fill-rule="evenodd"/>
      <path id="Trazado_189720" data-name="Trazado 189720" d="M1293.375,1154.114a10.49,10.49,0,0,1,.467-1.3c1.38-2.807,2.789-5.6,4.178-8.4.712-1.438,1.813-2.187,3.33-1.409,1.534.784,1.509,2.117.784,3.537-1.453,2.857-2.858,5.741-4.325,8.59a2.2,2.2,0,0,1-2.634,1.345A2.367,2.367,0,0,1,1293.375,1154.114Z" transform="translate(2.668 1.366)" fill="#050505" fill-rule="evenodd"/>
      <path id="Trazado_189721" data-name="Trazado 189721" d="M1286.964,1125.142c1.7-.089,3.307.088,3.342,2.174.038,2.2-1.628,2.413-3.348,2.432-1.737.018-3.437-.263-3.412-2.385C1283.569,1125.2,1285.309,1125.018,1286.964,1125.142Z" transform="translate(2.16 0.459)" fill="#f3f5f6" fill-rule="evenodd"/>
      <path id="Trazado_189722" data-name="Trazado 189722" d="M1275.816,1125.136c1.793-.056,3.533.016,3.488,2.3-.046,2.217-1.786,2.289-3.463,2.315s-3.264-.321-3.3-2.278C1272.495,1125.318,1274.16,1125.006,1275.816,1125.136Z" transform="translate(1.592 0.459)" fill="#f3f5f6" fill-rule="evenodd"/>
    </g>
  </g>
</svg>
