<svg xmlns="http://www.w3.org/2000/svg" width="118" height="115" viewBox="0 0 118 115">
  <g id="Grupo_131785" data-name="Grupo 131785" transform="translate(-719 -2402)">
    <rect id="Rectángulo_293443" data-name="Rectángulo 293443" width="118" height="115" transform="translate(719 2402)" fill="#e8e8e8"/>
    <g id="Grupo_129346" data-name="Grupo 129346" transform="translate(-677.904 1357.099)">
      <path id="Trazado_189723" data-name="Trazado 189723" d="M1507.432,1156.653a16.494,16.494,0,0,1-16.671,16.311H1430.3a16.494,16.494,0,0,1-16.672-16.311v-40.759c0-9.008-3.628-15.006,5.58-15.006h71.556c9.206,0,16.671-2.484,16.671,6.524Z" transform="translate(-4.176 -18.655)" fill="#f2f4f5" fill-rule="evenodd"/>
      <g id="Grupo_128889" data-name="Grupo 128889" transform="translate(1400.904 1046.901)">
        <path id="Trazado_189724" data-name="Trazado 189724" d="M1456.437,1172.2q-24.494,0-48.986,0c-4.56,0-6.524-1.966-6.534-6.508,0-1.79.035-3.58-.011-5.368-.042-1.682.686-2.443,2.4-2.464,1.54-.018,3.7.728,4.457-.3.792-1.081.31-3.125.31-4.749q.016-27.064.007-54.131c0-3.254.179-3.432,3.4-3.435,2.535,0,5.071-.039,7.6.018,1.057.023,1.529-.129,1.562-1.412.147-5.767.2-5.766,5.954-5.766q9.842,0,19.684,0c2.62,0,2.937.34,2.957,2.986.032,4.17.032,4.17,4.113,4.17,3.5,0,7.011.073,10.512-.036,1.408-.044,1.6.538,1.5,1.691-.09.979.332,2.024-1.452,1.968-4.394-.136-8.8-.052-13.195-.035-.667,0-1.557-.33-1.5.971.056,1.168.875.792,1.44.8,4.4.027,8.8.075,13.2-.021,1.392-.03,1.618.518,1.5,1.684-.094.973.345,2.03-1.443,1.975-4.321-.135-8.649.01-12.972-.076-1.334-.027-1.814.247-1.746,1.689.13,2.753-.006,5.517.054,8.274.036,1.756-.62,2.621-2.472,2.613q-11.855-.055-23.71,0c-1.84.008-2.524-.827-2.487-2.6.061-2.832-.1-5.674.058-8.5.1-1.778-.963-1.384-1.953-1.465-1.132-.093-1.709.059-1.7,1.484q.085,22.7.008,45.407c0,1.189.343,1.474,1.494,1.473q37.916-.048,75.829.02c1.764,0,1.454-.95,1.454-1.951q0-23.039,0-46.079c0-2,1.126-2.785,3.02-2.114,1.061.376.532,1.266.533,1.893q.051,20.69.026,41.381c0,2.535-.069,5.072.021,7.6.071,1.979-.659,2.829-2.722,2.826q-40.263-.055-80.526-.005c-1.874,0-2.709-.66-2.7-2.61q.052-25.163,0-50.328c0-1.969.871-2.683,2.729-2.577,1.19.066,2.386-.012,3.578.02.679.018.887-.253.89-.921,0-.7-.287-.889-.926-.883q-3.578.03-7.158,0c-.682-.006-.934.27-.887.922.027.372,0,.746,0,1.119,0,18.342.027,36.684-.044,55.025-.006,1.7.428,2.048,2.074,2.045q42.723-.083,85.447,0c1.677,0,2.062-.4,2.055-2.062-.066-17.745-.041-35.489-.041-53.234,0-1.079-.347-2.157,1.567-2.1,1.66.05,2.062.426,2.056,2.094-.069,17.521,0,35.044-.1,52.565-.014,2.229.488,3.123,2.744,2.709a17.057,17.057,0,0,1,1.787-.023c1.876-.135,2.777.644,2.7,2.6-.075,2.01.012,4.026-.024,6.039-.062,3.508-2.228,5.661-5.783,5.682-5.666.033-11.333.009-17,.009Zm.188-10.738h-48.536c-3.6,0-3.6,0-3.594,3.572,0,3.5.089,3.587,3.7,3.587h95.06c5.073,0,4.99,0,5.1-5.148.035-1.69-.413-2.06-2.07-2.053C1489.729,1161.488,1473.178,1161.461,1456.626,1161.461Zm-10.964-59.064c0-3.13-.045-6.262.024-9.392.023-1.077-.3-1.378-1.37-1.37q-9.392.071-18.786,0c-1.074-.008-1.378.295-1.369,1.37q.072,9.393,0,18.786c-.009,1.073.3,1.377,1.369,1.369q9.393-.072,18.786,0c1.074.009,1.393-.294,1.37-1.37C1445.617,1108.66,1445.662,1105.528,1445.662,1102.4Z" transform="translate(-1400.904 -1061.213)" fill-rule="evenodd"/>
        <path id="Trazado_189725" data-name="Trazado 189725" d="M1521.144,1089.88c-.745,0-1.49,0-2.235,0-2.793-.011-3.1-.236-3.095-3.031a1.721,1.721,0,0,0-1.36-1.9c-.928-.337-1.62-.7-2.559.23-2.1,2.082-2.321,2-4.471-.138-1.161-1.156-2.282-2.355-3.486-3.465-1.335-1.229-1.372-2.4.009-3.562a2.123,2.123,0,0,0,.731-2.843c-.561-1.4-1.384-1.484-2.547-1.4-1.662.114-2.507-.628-2.474-2.353q.059-3.016,0-6.034c-.033-1.729.818-2.465,2.477-2.348,1.167.081,1.983-.018,2.544-1.409a2.123,2.123,0,0,0-.734-2.843c-1.378-1.167-1.335-2.328,0-3.562,1.364-1.266,2.693-2.577,3.947-3.951,1.3-1.418,2.526-1.487,3.717.011.833,1.048,1.627,1.063,2.871.61,1.35-.491,1.369-1.33,1.3-2.392-.117-1.766.628-2.646,2.469-2.591q2.9.085,5.809,0c1.841-.054,2.59.825,2.472,2.591-.071,1.063-.047,1.895,1.3,2.388,1.245.456,2.038.447,2.872-.6,1.192-1.5,2.42-1.43,3.716-.014,1.255,1.373,2.585,2.684,3.948,3.952,1.325,1.233,1.371,2.4-.008,3.564a2.13,2.13,0,0,0-.733,2.844c.558,1.4,1.383,1.485,2.547,1.4,1.663-.115,2.507.63,2.474,2.353q-.057,3.015,0,6.034c.032,1.725-.818,2.467-2.478,2.349-1.167-.082-1.983.018-2.544,1.409a2.124,2.124,0,0,0,.739,2.843c1.381,1.172,1.32,2.332,0,3.566-1.415,1.321-2.775,2.7-4.11,4.106-1.172,1.232-2.272,1.251-3.408-.009-.762-.843-1.38-1.447-2.817-.856-1.472.607-1.578,1.456-1.509,2.705.127,2.305-1.432,2.429-3.134,2.356C1522.635,1089.854,1521.889,1089.88,1521.144,1089.88Zm-13.913-10.195c.348.393.607.657.836.947.957,1.21,1.87,2.028,3.164.279.68-.919,1.679-.7,2.631-.232a15.591,15.591,0,0,0,3.255,1.413c1.692.39,2.471,1.273,2.232,2.976-.211,1.509.824,1.286,1.674,1.214.806-.07,2.156.581,1.914-1.188-.259-1.886.711-2.7,2.431-3.057a7.69,7.69,0,0,0,2.449-1.036c1.478-.932,2.764-.988,3.9.481,1.107,1.428,1.563-.024,2.158-.533s1.609-1.069.351-2c-1.505-1.116-1.382-2.43-.465-3.9a7.664,7.664,0,0,0,1.032-2.45c.354-1.743,1.209-2.689,3.071-2.4,1.317.2,1.339-.676,1.15-1.49-.171-.741.82-2.264-.994-2.065-2.152.237-2.895-.915-3.342-2.712a10.4,10.4,0,0,0-1.15-2.644c-.7-1.213-.7-2.31.442-3.156,1.255-.927.826-1.6-.126-2.358-.459-.363-.864-.794-1.411-1.306-1.42,2.348-3.191,2.451-5.276.982a5.206,5.206,0,0,0-2.064-.8c-1.626-.283-2.372-1.187-2.14-2.792s-.84-1.374-1.782-1.354c-.9.019-2.064-.365-1.824,1.306.254,1.753-.663,2.561-2.307,2.915a8.764,8.764,0,0,0-2.657,1.119c-1.408.859-2.65.966-3.71-.455-1-1.335-1.554-.259-2.182.367s-1.676,1.195-.35,2.182c1.429,1.065,1.287,2.314.437,3.715a8.628,8.628,0,0,0-1.124,2.653c-.341,1.669-1.172,2.542-2.915,2.3-1.685-.236-1.249.959-1.29,1.839-.044.97-.22,2,1.37,1.766,1.615-.234,2.5.542,2.786,2.152a5.246,5.246,0,0,0,.8,2.066C1509.691,1076.516,1509.534,1078.279,1507.232,1079.685Z" transform="translate(-1435.228 -1046.901)" fill="#050505" fill-rule="evenodd"/>
        <path id="Trazado_189726" data-name="Trazado 189726" d="M1459.719,1151.876c0,3.8-.059,7.6.024,11.4.043,1.975-.656,2.845-2.72,2.828q-11.625-.1-23.251,0c-2.069.016-2.729-.865-2.714-2.834.061-7.676.074-15.352-.005-23.028-.022-2.183.878-2.849,2.949-2.83,7.6.073,15.2.023,22.8.032,2.58,0,2.905.351,2.911,3.026C1459.725,1144.275,1459.719,1148.075,1459.719,1151.876Zm-25.061-.328c0,3.207.045,6.415-.025,9.619-.023,1.092.322,1.369,1.382,1.361q9.4-.07,18.792,0c1.09.008,1.369-.321,1.36-1.381q-.07-9.395,0-18.791c.009-1.089-.32-1.368-1.381-1.36q-9.395.07-18.791,0c-1.09-.008-1.384.319-1.36,1.381C1434.7,1145.432,1434.658,1148.491,1434.658,1151.548Z" transform="translate(-1411.382 -1078.361)" fill-rule="evenodd"/>
        <path id="Trazado_189727" data-name="Trazado 189727" d="M1505.111,1118.615c2.2,2.182,3.552-.936,5.441-.919.912.009,1.66-.228,1.674-1.535.014-1.364,1.249-.609,1.9-.661.555-.044,1.681-.6,1.611.75-.052,1,.458,1.272,1.292,1.418a10.832,10.832,0,0,1,3.488,1.435c.367.212.791.729,1.169.314,1.653-1.812,2.138.28,3.047.883.21.14.459.637.387.727-2.061,2.567,1.486,4.118,1.158,6.366-.023.157.4.56.567.535,1.733-.251,1.4.944,1.457,1.943.058,1.06.055,1.926-1.435,1.734-.543-.071-.648.525-.73.957a11.618,11.618,0,0,1-1.6,3.9c-.189.309-.568.708-.247.986,1.85,1.6-.145,2.155-.8,3.057-.2.282-.506.61-.922.351-2.635-1.64-4.251,1.41-6.547,1.54-.285.016-.425,2.061-2.1,1.741-.924-.177-1.974.181-1.777-1.4.085-.687-.637-.717-1.126-.819a10.249,10.249,0,0,1-3.294-1.326c-.718-.443-1.328-.9-2.09.018-.745.9-1.2-.076-1.538-.493-.446-.552-1.809-1.016-1.041-1.815,1.1-1.146.277-1.79-.138-2.684-.436-.937-.732-1.94-1.082-2.916-.143-.4-.115-1.076-.637-1.051-2.438.116-1.3-1.7-1.529-2.758-.055-.257.1-.8.182-.809,3.417-.236,1.813-4,3.723-5.291.371-.251.094-.646-.081-.99C1502.979,1120.8,1504.064,1118.673,1505.111,1118.615Zm8.792,20.1a8.946,8.946,0,1,0-8.881-9.011A8.971,8.971,0,0,0,1513.9,1138.716Z" transform="translate(-1435.205 -1070.688)" fill="#050505" fill-rule="evenodd"/>
        <path id="Trazado_189728" data-name="Trazado 189728" d="M1458.539,1200.532c16.552,0,33.1.027,49.655-.042,1.657-.006,2.1.364,2.07,2.053-.1,5.146-.022,5.148-5.1,5.148H1410.11c-3.612,0-3.7-.085-3.7-3.587,0-3.572,0-3.572,3.593-3.572Z" transform="translate(-1402.818 -1100.284)" fill="#f7f9fa" fill-rule="evenodd"/>
        <path id="Trazado_189729" data-name="Trazado 189729" d="M1458.051,1104.293c0,3.131-.045,6.263.023,9.393.023,1.077-.3,1.379-1.37,1.37q-9.392-.072-18.786,0c-1.074.009-1.378-.3-1.37-1.369q.073-9.393,0-18.786c-.008-1.074.3-1.377,1.37-1.369q9.393.073,18.786,0c1.075-.008,1.394.293,1.37,1.37C1458.006,1098.031,1458.051,1101.162,1458.051,1104.293Zm-12.664,3.947c-1.117-1.483-2.16-2.747-3.065-4.1-.992-1.484-1.614-.153-2.289.259-.7.43-1.616.814-.611,1.986,1.452,1.692,2.7,3.56,4.054,5.336,1.655,2.166,2.674,2.107,4.17-.271,2.5-3.968,4.886-8.007,7.495-11.9.939-1.4.359-1.8-.715-2.5s-1.6-.825-2.361.469C1449.968,1101.107,1447.683,1104.584,1445.387,1108.24Z" transform="translate(-1413.293 -1063.108)" fill="#0ddcf1" fill-rule="evenodd"/>
        <path id="Trazado_189730" data-name="Trazado 189730" d="M1509.131,1081.589c2.3-1.406,2.46-3.169.976-5.263a5.25,5.25,0,0,1-.8-2.066c-.29-1.61-1.171-2.387-2.786-2.152-1.591.231-1.414-.8-1.37-1.766.041-.88-.395-2.075,1.291-1.839,1.742.244,2.574-.629,2.915-2.3a8.636,8.636,0,0,1,1.124-2.653c.849-1.4.992-2.65-.437-3.715-1.326-.988-.282-1.552.35-2.182s1.184-1.7,2.182-.367c1.061,1.421,2.3,1.314,3.71.456a8.767,8.767,0,0,1,2.657-1.119c1.644-.354,2.561-1.162,2.307-2.915-.24-1.671.927-1.286,1.824-1.306.942-.02,2.015-.263,1.782,1.354s.513,2.509,2.14,2.792a5.2,5.2,0,0,1,2.064.8c2.085,1.469,3.856,1.366,5.276-.982.547.511.952.943,1.411,1.306.953.753,1.382,1.431.127,2.358-1.145.846-1.145,1.943-.442,3.156a10.416,10.416,0,0,1,1.15,2.644c.447,1.8,1.189,2.948,3.342,2.712,1.814-.2.823,1.324.994,2.065.189.814.167,1.694-1.15,1.489-1.861-.287-2.717.659-3.071,2.4a7.664,7.664,0,0,1-1.032,2.451c-.917,1.469-1.04,2.782.465,3.9,1.259.935.259,1.483-.351,2-.594.51-1.051,1.961-2.157.533-1.138-1.469-2.425-1.413-3.9-.481a7.686,7.686,0,0,1-2.449,1.036c-1.72.36-2.69,1.171-2.431,3.057.242,1.77-1.108,1.119-1.914,1.188-.849.072-1.885.295-1.674-1.214.239-1.7-.54-2.587-2.232-2.976a15.583,15.583,0,0,1-3.255-1.412c-.952-.47-1.951-.688-2.631.232-1.294,1.749-2.207.932-3.164-.279C1509.737,1082.246,1509.478,1081.982,1509.131,1081.589Zm1.4-11.294A12.522,12.522,0,1,0,1523,1057.78,12.568,12.568,0,0,0,1510.527,1070.3Z" transform="translate(-1437.127 -1048.805)" fill="#0ddcf1" fill-rule="evenodd"/>
        <path id="Trazado_189731" data-name="Trazado 189731" d="M1436.565,1153.456c0-3.057.044-6.116-.023-9.171-.023-1.062.271-1.39,1.36-1.381q9.395.075,18.792,0c1.06-.007,1.389.271,1.38,1.36q-.075,9.4,0,18.791c.009,1.06-.271,1.39-1.36,1.381q-9.4-.075-18.791,0c-1.06.008-1.405-.269-1.382-1.361C1436.61,1159.87,1436.565,1156.662,1436.565,1153.456Zm19.286,6.387c-.632-.7-.967-1.085-1.319-1.454-1.485-1.556-4.034-3.019-4.173-4.684-.143-1.731,2.583-3.16,4.129-4.63,1.086-1.032,1.013-1.581.012-2.623-1.071-1.116-1.686-.978-2.611.084-1.124,1.29-2.45,2.4-3.6,3.669-.718.791-1.2.834-1.94.017-1.251-1.379-2.687-2.591-3.91-3.993-.992-1.138-1.564-.536-2.267.245-.624.694-1.576,1.2-.357,2.266,1.345,1.172,2.478,2.592,3.84,3.742,1.131.956.927,1.555-.063,2.428-1.339,1.181-2.5,2.568-3.83,3.756-1.28,1.14-.074,1.6.489,2.245.6.686,1.132,1.375,2.094.289,1.284-1.448,2.753-2.728,4.073-4.147.664-.715,1.1-.737,1.777-.009,1.265,1.367,2.6,2.669,3.951,3.954.376.357.673,1.178,1.406.69C1454.342,1161.161,1455.044,1160.5,1455.851,1159.843Z" transform="translate(-1413.29 -1080.268)" fill="#0ddcf1" fill-rule="evenodd"/>
        <path id="Trazado_189732" data-name="Trazado 189732" d="M1516.8,1141.638a8.946,8.946,0,1,1,9.01-8.882A8.974,8.974,0,0,1,1516.8,1141.638Zm7.216-9.01a7.152,7.152,0,1,0-7.2,7.217A7.179,7.179,0,0,0,1524.013,1132.629Z" transform="translate(-1438.098 -1073.61)" fill="#0ddcf1" fill-rule="evenodd"/>
        <path id="Trazado_189733" data-name="Trazado 189733" d="M1446.68,1109.842c2.3-3.656,4.581-7.133,6.677-10.719.757-1.294,1.3-1.156,2.361-.468s1.654,1.092.715,2.5c-2.608,3.893-5,7.932-7.494,11.9-1.5,2.377-2.515,2.437-4.17.271-1.356-1.776-2.6-3.645-4.054-5.336-1-1.172-.094-1.556.611-1.986.675-.412,1.3-1.743,2.289-.259C1444.52,1107.1,1445.563,1108.36,1446.68,1109.842Z" transform="translate(-1414.587 -1064.71)" fill="#070707" fill-rule="evenodd"/>
        <path id="Trazado_189734" data-name="Trazado 189734" d="M1513.406,1073.172a12.522,12.522,0,1,1,12.461,12.529A12.563,12.563,0,0,1,1513.406,1073.172Zm21.464.2a8.943,8.943,0,1,0-9.132,8.752A8.975,8.975,0,0,0,1534.87,1073.369Z" transform="translate(-1440.006 -1051.682)" fill="#070707" fill-rule="evenodd"/>
        <path id="Trazado_189735" data-name="Trazado 189735" d="M1457.265,1161.279c-.807.656-1.509,1.319-2.3,1.845-.733.488-1.03-.333-1.406-.69-1.349-1.285-2.686-2.588-3.951-3.954-.673-.728-1.114-.705-1.777.009-1.32,1.419-2.789,2.7-4.073,4.147-.963,1.085-1.5.4-2.094-.289-.564-.644-1.769-1.1-.489-2.244,1.333-1.188,2.49-2.575,3.83-3.756.99-.873,1.194-1.472.063-2.428-1.362-1.151-2.5-2.57-3.84-3.743-1.219-1.064-.267-1.572.357-2.266.7-.781,1.274-1.384,2.267-.245,1.223,1.4,2.659,2.614,3.91,3.993.741.817,1.223.775,1.94-.017,1.151-1.269,2.478-2.379,3.6-3.669.925-1.062,1.54-1.2,2.611-.084,1,1.043,1.074,1.592-.012,2.624-1.546,1.469-4.271,2.9-4.129,4.63.138,1.665,2.687,3.128,4.173,4.684C1456.3,1160.194,1456.632,1160.581,1457.265,1161.279Z" transform="translate(-1414.703 -1081.704)" fill="#050505" fill-rule="evenodd"/>
        <path id="Trazado_189736" data-name="Trazado 189736" d="M1524.968,1133.584a7.152,7.152,0,1,1-7.1-7.089A7.179,7.179,0,0,1,1524.968,1133.584Zm-6.978-3.509a3.575,3.575,0,1,0,3.4,3.692A3.611,3.611,0,0,0,1517.99,1130.075Z" transform="translate(-1439.053 -1074.566)" fill="#070707" fill-rule="evenodd"/>
        <path id="Trazado_189737" data-name="Trazado 189737" d="M1536.777,1075.275a8.943,8.943,0,1,1-8.751-9.132A8.979,8.979,0,0,1,1536.777,1075.275Z" transform="translate(-1441.913 -1053.589)" fill="#f2f4f5" fill-rule="evenodd"/>
        <path id="Trazado_189738" data-name="Trazado 189738" d="M1519.895,1131.98a3.575,3.575,0,1,1-3.743,3.341A3.617,3.617,0,0,1,1519.895,1131.98Z" transform="translate(-1440.958 -1076.47)" fill="#f0f2f3" fill-rule="evenodd"/>
      </g>
    </g>
  </g>
</svg>
