<svg xmlns="http://www.w3.org/2000/svg" width="187" height="187" viewBox="0 0 187 187">
  <g id="Grupo_131827" data-name="Grupo 131827" transform="translate(-397 -7197)">
    <g id="Grupo_128142" data-name="Grupo 128142" transform="translate(406.92 7206.731)">
      <g id="Trazado_187974" data-name="Trazado 187974" transform="translate(0.08 0.269)" fill="#f3f9ff">
        <path d="M 83.5 172 C 77.49864959716797 172 71.49960327148438 171.3950958251953 65.66944885253906 170.2020721435547 C 59.98495101928711 169.0388488769531 54.39345169067383 167.3031463623047 49.05027389526367 165.0431823730469 C 43.80519866943359 162.82470703125 38.74672317504883 160.0791015625 34.01532363891602 156.8826293945312 C 29.33017539978027 153.7174072265625 24.92462539672852 150.08251953125 20.92104911804199 146.0789489746094 C 16.9174747467041 142.0753784179688 13.28260040283203 137.6698303222656 10.11737537384033 132.9846801757812 C 6.920899868011475 128.2532806396484 4.175300121307373 123.1948013305664 1.956825017929077 117.9497222900391 C -0.3031499981880188 112.6065521240234 -2.038850069046021 107.0150527954102 -3.202075004577637 101.3305511474609 C -4.395100116729736 95.50039672851562 -5 89.50135040283203 -5 83.5 C -5 77.49864959716797 -4.395100116729736 71.49960327148438 -3.202075004577637 65.66944885253906 C -2.038850069046021 59.98495101928711 -0.3031499981880188 54.39345169067383 1.956825017929077 49.05027389526367 C 4.175300121307373 43.80519866943359 6.920899868011475 38.74672317504883 10.11737537384033 34.01532363891602 C 13.28260040283203 29.33017539978027 16.9174747467041 24.92462539672852 20.92104911804199 20.92104911804199 C 24.92462539672852 16.9174747467041 29.33017539978027 13.28260040283203 34.01532363891602 10.11737537384033 C 38.74672317504883 6.920899868011475 43.80519866943359 4.175300121307373 49.05027389526367 1.956825017929077 C 54.39345169067383 -0.3031499981880188 59.98495101928711 -2.038850069046021 65.66944885253906 -3.202075004577637 C 71.49960327148438 -4.395100116729736 77.49864959716797 -5 83.5 -5 C 89.50135040283203 -5 95.50039672851562 -4.395100116729736 101.3305511474609 -3.202075004577637 C 107.0150527954102 -2.038850069046021 112.6065521240234 -0.3031499981880188 117.9497222900391 1.956825017929077 C 123.1948013305664 4.175300121307373 128.2532806396484 6.920899868011475 132.9846801757812 10.11737537384033 C 137.6698303222656 13.28260040283203 142.0753784179688 16.9174747467041 146.0789489746094 20.92104911804199 C 150.08251953125 24.92462539672852 153.7174072265625 29.33017539978027 156.8826293945312 34.01532363891602 C 160.0791015625 38.74672317504883 162.82470703125 43.80519866943359 165.0431823730469 49.05027389526367 C 167.3031463623047 54.39345169067383 169.0388488769531 59.98495101928711 170.2020721435547 65.66944885253906 C 171.3950958251953 71.49960327148438 172 77.49864959716797 172 83.5 C 172 89.50135040283203 171.3950958251953 95.50039672851562 170.2020721435547 101.3305511474609 C 169.0388488769531 107.0150527954102 167.3031463623047 112.6065521240234 165.0431823730469 117.9497222900391 C 162.82470703125 123.1948013305664 160.0791015625 128.2532806396484 156.8826293945312 132.9846801757812 C 153.7174072265625 137.6698303222656 150.08251953125 142.0753784179688 146.0789489746094 146.0789489746094 C 142.0753784179688 150.08251953125 137.6698303222656 153.7174072265625 132.9846801757812 156.8826293945312 C 128.2532806396484 160.0791015625 123.1948013305664 162.82470703125 117.9497222900391 165.0431823730469 C 112.6065521240234 167.3031463623047 107.0150527954102 169.0388488769531 101.3305511474609 170.2020721435547 C 95.50039672851562 171.3950958251953 89.50135040283203 172 83.5 172 Z" stroke="none"/>
        <path d="M 83.5 0 C 37.38421630859375 0 0 37.38421630859375 0 83.5 C 0 129.6157836914062 37.38421630859375 167 83.5 167 C 129.6157836914062 167 167 129.6157836914062 167 83.5 C 167 37.38421630859375 129.6157836914062 0 83.5 0 M 83.5 -10 C 135.0560607910156 -10 177 31.94393920898438 177 83.5 C 177 135.0560607910156 135.0560607910156 177 83.5 177 C 31.94393920898438 177 -10 135.0560607910156 -10 83.5 C -10 31.94393920898438 31.94393920898438 -10 83.5 -10 Z" stroke="none" fill="#fdb32b"/>
      </g>
    </g>
    <g id="Grupo_131469" data-name="Grupo 131469" transform="translate(440 7252)">
      <g id="Grupo_131467" data-name="Grupo 131467" transform="translate(0 0)">
        <path id="Trazado_190986" data-name="Trazado 190986" d="M-902.93,451.465q-22.156,0-44.315,0c-4.664,0-6.349-1.666-6.349-6.263q0-32.643,0-65.285c0-4.437,1.951-6.442,6.341-6.443q44.316-.013,88.63,0c4.389,0,6.348,2.008,6.349,6.438q0,32.741,0,65.484c0,4.339-1.744,6.068-6.145,6.07Q-880.674,451.471-902.93,451.465Zm.124-60.284c-15.43,0-30.861.019-46.291-.032-1.383-.005-1.745.344-1.74,1.733.049,17.607.029,35.212.037,52.819,0,2.309.615,2.947,2.934,2.948q44.907.016,89.813,0c2.413,0,2.99-.622,2.991-3.091.006-17.54-.021-35.081.044-52.621.005-1.565-.5-1.792-1.892-1.786C-872.209,391.2-887.508,391.181-902.807,391.181Zm-.226-2.8h23.144c7.781,0,15.561-.03,23.343.03,1.225.009,1.582-.3,1.519-1.528-.107-2.1-.03-4.218-.03-6.328,0-3.822-.472-4.288-4.356-4.288h-87.039c-.528,0-1.057-.018-1.583.01a2.6,2.6,0,0,0-2.774,2.892c0,2.439.1,4.885-.036,7.317-.087,1.543.363,1.939,1.919,1.934C-933.629,388.358-918.331,388.383-903.033,388.383Z" transform="translate(953.595 -373.466)" fill="#0d0d0d" fill-rule="evenodd"/>
        <path id="Trazado_190987" data-name="Trazado 190987" d="M-902.4,393.81c15.3,0,30.6.018,45.9-.03,1.4-.005,1.9.221,1.892,1.786-.065,17.54-.038,35.081-.044,52.621,0,2.469-.578,3.091-2.991,3.091q-44.906.014-89.813,0c-2.319,0-2.933-.639-2.934-2.948-.008-17.606.012-35.212-.037-52.819,0-1.389.358-1.739,1.74-1.733C-933.258,393.829-917.827,393.81-902.4,393.81ZM-917.145,438.9a1.946,1.946,0,0,1,.158-1.455c.8-2.451.454-2.944-2.086-2.951-3.033-.009-6.067-.033-9.1.015-.918.015-1.289-.211-1.245-1.2.076-1.711.012-3.428.023-5.142.018-3.006,1.194-4.217,4.175-4.241,3.232-.027,6.466.076,9.693-.044,1.531-.056,2.048.339,1.958,1.929-.131,2.34.221,2.6,2.563,2.607q8.211.017,16.42,0c3.042,0,3.048-.023,3.159-3.058.021-.566-.368-1.455.768-1.44,6.129.084,12.808-1.637,16.909,5.132.066.109.193.179.278.28,1.01,1.214,1.95,1.022,2.968-.045,1.547-1.623,3.162-3.179,4.743-4.768,1.852-1.861,1.987-2.251-.044-3.92-3.508-2.882-5.809-6.151-4.815-10.948a1.376,1.376,0,0,0-.02-.394,6.131,6.131,0,0,0-6.072-5.855,17.968,17.968,0,0,0-2.571-.005c-1.349.109-1.759-.19-1.19-1.627.872-2.2.35-2.841-2.039-2.845q-9.594-.017-19.189,0c-3.212,0-3.284-.023-4.292,3.009a1.822,1.822,0,0,1-2.105,1.481c-3.823-.07-7.649-.042-11.473-.015a1.625,1.625,0,0,1-1.82-1.048,5.639,5.639,0,0,0-5.539-3.416c-4.087-.03-8.177-.057-12.265.008a5.835,5.835,0,0,0-6.065,5.739,5.829,5.829,0,0,0,6.053,5.947c4.087.078,8.176.044,12.265.01a5.833,5.833,0,0,0,5.58-3.393c.254-.515.388-1.083,1.192-1.078,4.136.03,8.272.014,12.559.014-.246.8-.414,1.36-.589,1.915-.578,1.822-.16,2.53,1.7,2.539,7.121.033,14.243.005,21.366.02a1.966,1.966,0,0,0,2.051-1.457c1.2-3.039,1.234-3.023,4.542-3.022.461,0,.924-.014,1.384,0,2.427.1,3.53,1.267,3.789,3.642.414,3.8-.069,7.188-3.592,9.468a2.931,2.931,0,0,0-.7.7,3.037,3.037,0,0,1-2.744,1.173c-3.1-.073-6.2-.131-9.3.02-1.588.077-1.828-.5-1.774-1.886.094-2.385-.174-2.58-2.584-2.584q-8.309-.008-16.618,0c-2.82,0-2.977.077-2.9,2.859.039,1.347-.408,1.625-1.656,1.595-3.427-.081-6.858-.067-10.286-.016-4.152.061-6.618,2.569-6.661,6.691-.018,1.78-.06,3.563.018,5.34.045,1.018-.225,1.383-1.3,1.337-2.04-.086-4.09.041-6.131-.048a2.175,2.175,0,0,0-2.48,1.7c-.716,2.186-1.533,4.338-2.309,6.5-1.087,3.036-.782,3.488,2.378,3.489,6.331,0,12.663-.094,18.991.053,2.217.05,3.493-.568,3.9-2.8a1.825,1.825,0,0,1,2.084-1.763c10.484.077,20.969.053,31.455.024a1.742,1.742,0,0,1,1.94,1.167,5.144,5.144,0,0,0,4.8,3.254c4.547.086,9.1.146,13.645-.023a5.624,5.624,0,0,0,5.386-5.929,5.77,5.77,0,0,0-5.754-5.626c-4.285-.075-8.573-.05-12.858-.009a5.3,5.3,0,0,0-5.1,3.115,2,2,0,0,1-2.255,1.289c-5.143-.034-10.288-.016-15.431-.016Z" transform="translate(953.185 -376.095)" fill="#fff1d1" fill-rule="evenodd"/>
        <path id="Trazado_190988" data-name="Trazado 190988" d="M-902.626,388.8c-15.3,0-30.6-.025-45.893.038-1.556.005-2.006-.391-1.919-1.934.136-2.432.035-4.878.036-7.317a2.6,2.6,0,0,1,2.774-2.892c.526-.028,1.055-.01,1.583-.01h87.039c3.885,0,4.355.467,4.356,4.288,0,2.11-.078,4.224.03,6.328.063,1.226-.294,1.537-1.519,1.528-7.781-.06-15.561-.03-23.343-.03Zm15.73-4.683q12.856,0,25.714,0c.592,0,1.187,0,1.777-.048a1.212,1.212,0,0,0,1.167-1.138,1.247,1.247,0,0,0-1.025-1.469,7.875,7.875,0,0,0-1.763-.123q-25.715-.008-51.428,0a7.311,7.311,0,0,0-1.941.212,1.169,1.169,0,0,0-.794,1.419,1.127,1.127,0,0,0,1,1.058,14.173,14.173,0,0,0,1.773.082Q-899.654,384.121-886.9,384.116Zm-56.8.046c1.111-.388,3.185.777,3.15-1.461-.03-1.927-1.908-1.328-3.1-1.335s-3.054-.561-3.107,1.346C-946.807,384.764-944.871,383.88-943.7,384.162Zm21.255.013c.986-.387,2.937.679,2.972-1.39.033-2-1.833-1.425-3.016-1.418-1.243.008-3.224-.626-3.2,1.44C-925.658,384.754-923.719,383.9-922.443,384.176Zm-10.947-.064c.766,0,1.354.006,1.941,0,.911-.012,1.56-.427,1.55-1.375s-.711-1.334-1.582-1.389a11.553,11.553,0,0,0-1.762,0c-1.142.107-2.882-.509-2.94,1.333C-936.249,384.8-934.328,383.854-933.389,384.111Z" transform="translate(953.187 -373.882)" fill="#0ddcf1" fill-rule="evenodd"/>
        <path id="Trazado_190989" data-name="Trazado 190989" d="M-881.656,384.808q-12.758,0-25.516,0a14.179,14.179,0,0,1-1.773-.082,1.127,1.127,0,0,1-1-1.058,1.169,1.169,0,0,1,.794-1.419,7.311,7.311,0,0,1,1.941-.212q25.714-.016,51.428,0a7.874,7.874,0,0,1,1.763.123A1.247,1.247,0,0,1-853,383.621a1.212,1.212,0,0,1-1.167,1.138c-.589.051-1.185.048-1.777.048Q-868.8,384.81-881.656,384.808Z" transform="translate(947.948 -374.574)" fill="#0d0d0d" fill-rule="evenodd"/>
        <path id="Trazado_190990" data-name="Trazado 190990" d="M-943.148,384.847c-1.174-.282-3.11.6-3.053-1.45.053-1.907,1.907-1.355,3.107-1.346s3.066-.591,3.1,1.335C-939.964,385.625-942.037,384.459-943.148,384.847Z" transform="translate(952.638 -374.567)" fill="#0e0e0e" fill-rule="evenodd"/>
        <path id="Trazado_190991" data-name="Trazado 190991" d="M-918.761,384.86c-1.276-.279-3.215.578-3.24-1.369-.027-2.066,1.954-1.432,3.2-1.44,1.183-.007,3.049-.582,3.016,1.418C-915.823,385.539-917.774,384.472-918.761,384.86Z" transform="translate(949.506 -374.566)" fill="#0f0f0f" fill-rule="evenodd"/>
        <path id="Trazado_190992" data-name="Trazado 190992" d="M-931.268,384.8c-.939-.257-2.86.692-2.793-1.436.057-1.842,1.8-1.226,2.94-1.333a11.557,11.557,0,0,1,1.762,0c.871.055,1.571.439,1.582,1.389s-.638,1.362-1.55,1.375C-929.915,384.806-930.5,384.8-931.268,384.8Z" transform="translate(951.067 -374.571)" fill="#0e0e0e" fill-rule="evenodd"/>
        <path id="Trazado_190993" data-name="Trazado 190993" d="M-876.748,402.877a7.665,7.665,0,0,1-.146.854c-1.767,5.323-1.768,5.322-7.4,5.322-4.14,0-8.28-.055-12.417.03-1.479.03-1.606-.339-1.137-1.662,1.607-4.526,1.556-4.544,6.4-4.544Z" transform="translate(946.411 -377.273)" fill="#ffb30c" fill-rule="evenodd"/>
        <path id="Trazado_190994" data-name="Trazado 190994" d="M-918.548,443.742c-.65,1.853-1.265,3.507-1.8,5.183-.249.776-.715.952-1.466.948-5.735-.024-11.471-.033-17.206,0-1.086.006-1.242-.407-.868-1.283.051-.121.117-.238.158-.362,1.527-4.49,1.526-4.49,6.235-4.49Z" transform="translate(951.845 -382.562)" fill="#ffb30c" fill-rule="evenodd"/>
        <path id="Trazado_190995" data-name="Trazado 190995" d="M-861.674,443.743c2.038,0,4.077-.043,6.112.012a3.063,3.063,0,0,1,3.25,2.994,3,3,0,0,1-3.151,3.077q-6.307.107-12.618,0a3.047,3.047,0,0,1-3.168-3.077,3.1,3.1,0,0,1,3.266-2.994C-865.881,443.7-863.778,443.743-861.674,443.743Z" transform="translate(942.937 -382.56)" fill="#ffb30c" fill-rule="evenodd"/>
        <path id="Trazado_190996" data-name="Trazado 190996" d="M-931.935,409.049c-1.906,0-3.814.025-5.721-.008-2.255-.038-3.6-1.182-3.643-3.022s1.324-3.108,3.533-3.131q5.917-.065,11.834,0c2.18.023,3.6,1.318,3.568,3.118s-1.445,3-3.653,3.036C-927.99,409.075-929.963,409.049-931.935,409.049Z" transform="translate(952.003 -377.27)" fill="#cc8f08" fill-rule="evenodd"/>
        <path id="Trazado_190997" data-name="Trazado 190997" d="M-856.671,426.2c-.242.291-.394.5-.574.684-.97.985-1.973,1.939-2.913,2.952-.522.562-.852.515-1.443.022-3.757-3.138-3.749-4.283.087-7.312.512-.4.807-.506,1.283,0,.994,1.053,2.039,2.056,3.059,3.084C-857,425.8-856.854,425.993-856.671,426.2Z" transform="translate(942.051 -379.775)" fill="#154f8d" fill-rule="evenodd"/>
      </g>
      <rect id="Rectángulo_293842" data-name="Rectángulo 293842" width="89.348" height="49.284" transform="translate(8.03 22.808)" fill="#fff1d1"/>
      <g id="Grupo_131468" data-name="Grupo 131468" transform="translate(19.762 26.205)">
        <path id="Trazado_190998" data-name="Trazado 190998" d="M-875.282,423.032c-2.447-1.894-4.756-3.646-7.025-5.448-2.24-1.779-2.767-4.1-1.485-6.241a4.32,4.32,0,0,1,6.631-1.318q6.277,4.629,12.342,9.547a4.3,4.3,0,0,1,.132,6.763q-6.171,5.093-12.647,9.813c-2.274,1.652-4.665,1.066-6.235-1.079-1.639-2.239-1.414-4.328.863-6.224C-880.374,426.9-877.929,425.095-875.282,423.032Zm-4.29,10.808a4.414,4.414,0,0,0,.891-.453c3.864-2.971,7.732-5.938,11.562-8.953,1.3-1.025.991-2.062-.209-2.988q-4.342-3.35-8.672-6.714c-.964-.745-1.906-1.525-2.918-2.2a1.455,1.455,0,0,0-2.156.31,1.39,1.39,0,0,0,.291,1.99,12.67,12.67,0,0,0,1.253,1.033c2.406,1.867,4.811,3.74,7.228,5.592,1.345,1.03,1.429,2.042.047,3.1-1.288.991-2.565,1.994-3.847,2.995-1.547,1.206-3.108,2.4-4.632,3.635a1.352,1.352,0,0,0-.494,1.791A1.454,1.454,0,0,0-879.573,433.84Z" transform="translate(924.907 -404.272)" fill="#040504" fill-rule="evenodd"/>
        <path id="Trazado_190999" data-name="Trazado 190999" d="M-888.9,408.522c-.652,3.087-1.338,6.389-2.05,9.686q-2.007,9.3-4.039,18.6c-.613,2.811-2.271,4.342-4.607,4.3a4.8,4.8,0,0,1-4.525-3.708,4.434,4.434,0,0,1,.017-2.006q3-13.847,6-27.7c.575-2.639,2.717-4.354,5.006-4.1A4.843,4.843,0,0,1-888.9,408.522Zm-3.181.248c.078-1.108-.15-1.86-1.161-2.025A1.437,1.437,0,0,0-895,408.011c-.094.393-.219.78-.3,1.175q-2.016,9.3-4.026,18.589c-.556,2.571-1.132,5.137-1.66,7.715-.215,1.046-.232,2.149,1.106,2.428,1.241.259,1.614-.676,1.83-1.672.085-.4.193-.785.28-1.181q1.779-8.1,3.549-16.207C-893.479,415.431-892.763,412-892.077,408.77Z" transform="translate(927.443 -403.567)" fill="#020503" fill-rule="evenodd"/>
        <path id="Trazado_191000" data-name="Trazado 191000" d="M-925.2,429.771c-1.306-1.054-2.647-2.068-3.909-3.173a4.508,4.508,0,0,1,.164-7.3q2.276-1.828,4.553-3.652c.142-.162.285-.326.427-.487v.066c2.325-1.262,4.221-3.11,6.331-4.665,2.825-2.082,5.341-1.983,7.1.373,1.73,2.323,1.154,4.856-1.586,6.979-2.174,1.683-4.345,3.369-6.619,5.132,2.607,2.039,5.115,3.874,7.476,5.882,2.588,2.2,2.419,5.176-.247,7.251a3.962,3.962,0,0,1-4.745.216c-1.372-.81-3.254-1.4-2.791-3.673,1.3-1.075,2.348-.422,3.4.461.825.694,1.761,1.221,2.628.119.888-1.128.064-1.857-.773-2.51-2.611-2.035-5.243-4.042-7.832-6.1-1.626-1.295-1.609-2.023.046-3.327,2.6-2.05,5.232-4.057,7.838-6.1.772-.605,1.534-1.316.777-2.366-.8-1.106-1.758-.715-2.634-.037q-5.611,4.337-11.208,8.691c-1.258.979-1.275,1.987-.019,2.976,1.539,1.211,3.079,2.422,4.649,3.595a2.045,2.045,0,0,1,.942,2.434C-922.948,432.274-923.945,430.368-925.2,429.771Z" transform="translate(930.894 -404.28)" fill="#040504" fill-rule="evenodd"/>
        <path id="Trazado_191001" data-name="Trazado 191001" d="M-920.77,431.017a2.045,2.045,0,0,0-.942-2.434c-1.57-1.173-3.11-2.384-4.649-3.595-1.256-.989-1.239-2,.019-2.976q5.6-4.351,11.208-8.691c.877-.678,1.835-1.069,2.634.037.757,1.05,0,1.761-.777,2.366-2.606,2.04-5.238,4.046-7.838,6.1-1.655,1.3-1.672,2.033-.046,3.327,2.589,2.06,5.221,4.066,7.832,6.1.837.653,1.661,1.382.773,2.51-.867,1.1-1.8.575-2.628-.119-1.052-.883-2.1-1.536-3.4-.461Q-919.677,432.1-920.77,431.017Z" transform="translate(930.428 -404.745)" fill="#ffb30c" fill-rule="evenodd"/>
        <path id="Trazado_191002" data-name="Trazado 191002" d="M-923,416.059c-.143.161-.286.325-.427.487Z" transform="translate(929.928 -405.184)" fill="#757577" fill-rule="evenodd"/>
        <path id="Trazado_191003" data-name="Trazado 191003" d="M-879.091,434.314a1.454,1.454,0,0,1-1.655-.858,1.352,1.352,0,0,1,.494-1.791c1.524-1.236,3.085-2.429,4.632-3.635,1.282-1,2.56-2,3.847-2.995,1.382-1.063,1.3-2.075-.047-3.1-2.418-1.852-4.822-3.725-7.228-5.592a12.67,12.67,0,0,1-1.253-1.033,1.39,1.39,0,0,1-.291-1.99,1.455,1.455,0,0,1,2.156-.31c1.012.675,1.954,1.455,2.918,2.2q4.338,3.353,8.672,6.714c1.2.926,1.512,1.963.209,2.988-3.831,3.015-7.7,5.982-11.562,8.953A4.414,4.414,0,0,1-879.091,434.314Z" transform="translate(924.426 -404.745)" fill="#ffb30c" fill-rule="evenodd"/>
        <path id="Trazado_191004" data-name="Trazado 191004" d="M-891.612,409.239c-.686,3.228-1.4,6.661-2.144,10.088q-1.762,8.107-3.549,16.207c-.087.4-.2.785-.28,1.18-.216,1-.589,1.931-1.83,1.672-1.337-.279-1.321-1.382-1.106-2.428.528-2.578,1.1-5.144,1.66-7.715q2.012-9.3,4.026-18.589c.086-.4.211-.782.3-1.175a1.437,1.437,0,0,1,1.757-1.266C-891.761,407.378-891.534,408.13-891.612,409.239Z" transform="translate(926.977 -404.036)" fill="#ffb30c" fill-rule="evenodd"/>
      </g>
    </g>
  </g>
</svg>
