<svg xmlns="http://www.w3.org/2000/svg" width="136.625" height="148.338" viewBox="0 0 136.625 148.338">
  <g id="Grupo_131787" data-name="Grupo 131787" transform="translate(-312.709 -4067.701)">
    <path id="Trazado_189975" data-name="Trazado 189975" d="M367.713,993.136c-.612,1.8-1.815,2.364-3.736,2.3-4.623-.147-9.256-.033-13.884-.052-4.092-.015-5.786-1.423-6.1-5.561-.138-1.783-1.144-1.414-2.12-1.416-7.523-.014-15.044,0-22.566-.009-3.684,0-4.083-.407-4.088-4.191-.009-7.521-.064-15.044.043-22.564.024-1.8-.46-2.3-2.243-2.229-3.563.146-7.135.08-10.7.033-3.752-.053-5.71-1.992-5.789-5.695-.047-2.218-.027-4.437,0-6.655.044-4.229,1.932-6.069,6.268-6.1,3.47-.02,6.946-.094,10.412.036,1.693.062,2.247-.516,2.029-2.121a7.917,7.917,0,0,1,0-2.023c.522-4.085-.164-6.664-4.962-8.35-6.895-2.419-10.174-10.4-8.641-17.675A16.1,16.1,0,0,1,316.5,898.112c7.7-.3,14.38,4.271,16.395,11.515.545,1.959,1.261,2.742,3.273,2.461a21.1,21.1,0,0,1,3.755-.023c2.322.1,4.409.482,4.309-3.241-.059-2.158,2.117-3.544,4.493-3.734,1.878-.15,3.769-.238,4.314,2.229-.407,1.01-.9,2.115-2.152,2.02-2.566-.2-2.787,1.268-2.649,3.236a31.985,31.985,0,0,1,0,4.332c-.106,1.605.457,2.2,2.132,2.185,8.089-.1,16.181-.1,24.27-.13.956.044,1.913.123,2.869.128,3.9.018,3.9.009,3.9-3.845,0-6.453,0-6.453-6.787-5.658-4.141-.052-8.282-.152-12.422-.134-1.689.008-3.042-.329-3.692-2.062.413-.964.706-2.317,1.95-2.211,2.258.2,2.144-1.108,2.129-2.63-.046-4.047-.058-8.095.009-12.137a3.607,3.607,0,0,0-1.3-2.939c-5.188-5.027-10.286-10.148-15.365-15.286-2.828-2.862-2.8-5.4.041-8.271q7.317-7.4,14.717-14.711c2.848-2.815,5.4-2.8,8.265.032q7.4,7.315,14.715,14.711c2.81,2.845,2.769,5.377-.024,8.285-.935.973-1.957,1.865-2.846,2.874a2.892,2.892,0,0,1-3.828.909,2.621,2.621,0,0,1,.543-3.808c.929-.828,1.743-1.786,2.664-2.625,1.026-.93,1.331-1.772.155-2.856-2.042-1.88-4.01-3.84-6.009-5.769-2.678-2.749-5.4-5.462-8.013-8.269-1.147-1.229-1.95-1.079-3.062.055q-6.865,7-13.861,13.869c-1.015,1-1.229,1.775-.085,2.849,2.724,2.561,5.37,5.209,8.048,7.82,2.05,2.115,4.126,4.206,6.139,6.356.909.97,1.658,1.076,2.59.04.954-1.059,2.074-1.974,3.012-3.048a2.966,2.966,0,0,1,3.822-.871c.938,1.455.8,2.869-.625,3.793-5.109,3.326-5.934,8.177-5.294,13.729.284,2.466-.825,5.843.435,7.25,1.473,1.642,4.892.407,7.462.522,1.828.083,3.666-.035,5.5.029,3.117.109,5.115,1.88,5.215,4.989.055,1.686.577,2.22,2.146,2a5.482,5.482,0,0,1,1.445,0c4.249.542,7.031-.076,8.808-5.126,2.4-6.81,10.541-10.109,17.489-8.526a16.3,16.3,0,0,1,12.9,15.128,16,16,0,0,1-11.515,16.145c-2.314.622-2.613,1.654-2.507,3.567.137,2.484-.791,5.757.46,7.247,1.326,1.581,4.708.384,7.189.484,1.927.077,3.862-.053,5.787.035a5.125,5.125,0,0,1,5.261,5.341c.085,2.505.068,5.016.006,7.523-.09,3.535-2.065,5.5-5.629,5.561s-7.142.118-10.7-.029c-1.871-.076-2.428.448-2.4,2.367.114,7.521.055,15.046.042,22.57-.006,3.587-.455,4.042-3.944,4.047-7.332.008-14.662.044-21.992-.027-1.836-.018-2.942-.01-2.906,2.481.038,2.592-1.869,4.165-4.458,4.478-1.617.194-3.277.006-4.915.071a2.534,2.534,0,0,1-2.912-2.177,2.976,2.976,0,0,1,1.367-2.057,18.374,18.374,0,0,1,3.147-.07c2.877.41,3.8-.625,3.693-3.6-.231-6.411-.064-6.417-6.83-5.981-6.538-.036-13.078-.086-19.616-.1-6.927-.018-6.855,0-6.828,7.012.008,1.992.564,2.713,2.613,2.654,4.422-.129,8.849,0,13.274-.059C365.774,991,367.121,991.359,367.713,993.136Zm6.922-38.267a31.392,31.392,0,0,1,3.447.158c2.715.411,3.414-.733,3.352-3.355-.158-6.59-.036-6.593-6.8-6.08-6.449-.047-12.9-.109-19.343-.129-7.634-.023-7.6-.008-7.047,7.659.1,1.307.442,1.909,1.845,1.9C358.272,954.937,366.454,954.912,374.635,954.868Zm-47.458-9.28q-12.143-.064-24.282-.123c-3.438-.012-2,2.8-1.772,4.012.343,1.836-2.243,5.3,1.775,5.429,8.084.262,16.184.006,24.279-.036a34.218,34.218,0,0,1,3.73.158c2.614.387,3.224-.724,3.168-3.215C333.925,945.077,334.037,945.074,327.178,945.588Zm94.922,9.279c.959.047,1.918.127,2.877.134,3.661.018,3.661.008,3.664-3.76,0-6.147,0-6.147-6.541-5.649-8.178-.046-16.357-.1-24.537-.125-3.362-.011-2.056,2.739-1.825,4.015.331,1.845-2.176,5.306,1.828,5.429C405.735,955.163,413.921,954.911,422.1,954.867ZM404.533,923.1a11.683,11.683,0,1,0-.63-17.313A11.575,11.575,0,0,0,404.533,923.1ZM326,906.3a11.678,11.678,0,1,0-.174,16.3C330.37,918.023,330.443,911.2,326,906.3Zm-6.361,65.2c0,3.566.058,7.133-.03,10.7-.033,1.376.37,1.8,1.772,1.79,6.937-.065,13.876-.042,20.815-.017,1.086,0,1.661-.1,1.787-1.5.366-4.06,2.071-5.488,6.189-5.515,3.469-.024,6.939-.058,10.406.02,1.388.032,2.071-.182,2.03-1.838q-.171-6.93,0-13.873c.043-1.665-.646-1.859-2.029-1.828-3.66.076-7.323.065-10.984.012-3.5-.052-5.528-1.753-5.587-5.2-.039-2.367-1.484-1.863-2.658-1.725-1.14.135-2.966-1.114-3.127,1.581-.231,3.842-2.076,5.324-6.028,5.35-3.566.026-7.135.088-10.7-.03-1.573-.053-1.933.495-1.892,1.957C319.7,964.751,319.638,968.124,319.638,971.5Zm90.324.149c0-3.373-.077-6.749.035-10.118.053-1.587-.346-2.168-2.038-2.109-3.657.129-7.323.08-10.983.027-3.51-.052-5.479-1.7-5.584-5.192-.08-2.62-1.792-1.736-2.986-1.73-1.079,0-2.7-.915-2.8,1.569-.152,3.69-2.07,5.311-5.739,5.356-3.566.042-7.133.07-10.7-.018-1.5-.039-2.233.181-2.18,1.971q.2,6.787,0,13.585c-.05,1.772.654,2.03,2.173,1.991q5.487-.137,10.984-.011c3.338.073,5.291,1.825,5.465,5.063.08,1.466.382,1.979,1.936,1.959q10.263-.12,20.525,0c1.529.018,1.97-.426,1.922-1.937C409.889,978.586,409.962,975.114,409.962,971.646Zm-42.93-39.63c0,2.41.074,4.824-.029,7.23-.059,1.39.384,1.819,1.778,1.784,3.566-.091,7.135-.045,10.7-.024,4.082.024,5.8,1.435,6.127,5.566.162,2.052,1.5,1.542,2.4,1.363,1.135-.226,3.01,1.279,3.34-1.332.546-4.352,2.038-5.578,6.4-5.6,1.253-.008,2.51.055,3.76-.014,2.757-.149,6.537,1.226,7.993-.524,1.388-1.672.338-5.321.49-8.093.083-1.517-.382-2.1-1.948-2.487-4.523-1.1-8.723-3.655-9.952-8.007-1.6-5.647-5.044-5.93-9.536-5.382a6.561,6.561,0,0,1-1.444,0c-1.149-.114-1.366.425-1.476,1.5-.411,4.026-2.111,5.484-6.221,5.52-3.279.027-6.564.121-9.834-.038-1.939-.094-2.8.322-2.587,2.463C367.188,927.949,367.032,929.989,367.032,932.016Zm-4.622.325h.158c0-2.314-.1-4.634.035-6.942.089-1.573-.479-1.945-1.963-1.906-3.661.1-7.329.035-10.992.032-2.7,0-5.347-1.159-5.384-3.765-.055-3.931-2.288-3.321-4.626-3.262a26.526,26.526,0,0,1-3.757-.024c-1.769-.208-2.488.481-2.927,2.2-1.155,4.537-3.818,8.694-8.175,9.794-5.473,1.382-5.534,4.631-5.15,8.782a9.276,9.276,0,0,1-.006,2.021c-.185,1.423.42,1.787,1.783,1.757,3.661-.086,7.327-.058,10.992-.021,3.734.038,5.658,1.608,5.814,5.268.114,2.649,1.874,1.624,3.045,1.677,1.117.052,2.669.8,2.745-1.639.114-3.635,2.086-5.242,5.789-5.311,1.349-.023,2.7.055,4.048-.017,2.857-.15,6.678,1.24,8.286-.563C363.506,938.879,362.41,935.12,362.41,932.34Z" transform="translate(16.212 3220.597)" fill="#0a0908" fill-rule="evenodd"/>
    <path id="Trazado_189976" data-name="Trazado 189976" d="M357,945.375a2.976,2.976,0,0,0-1.367,2.057q-2.77-.043-5.541-.089c-.592-1.777-1.939-2.136-3.639-2.115-4.424.059-8.852-.07-13.274.059-2.048.059-2.605-.662-2.613-2.654-.027-7.016-.1-7.03,6.828-7.012,6.538.017,13.078.067,19.616.1Q357,940.55,357,945.375Z" transform="translate(33.835 3266.389)" fill="#b9ddfc" fill-rule="evenodd"/>
    <path id="Trazado_189977" data-name="Trazado 189977" d="M340.876,886.86c.649,1.733,2,2.07,3.692,2.062,4.141-.018,8.282.082,12.422.134q.009,4.689.018,9.376c-8.089.033-16.181.029-24.27.13-1.675.02-2.238-.58-2.132-2.185a31.985,31.985,0,0,0,0-4.332c-.138-1.968.083-3.432,2.649-3.236,1.252.1,1.745-1.009,2.152-2.02Z" transform="translate(33.841 3241.127)" fill="#154f8d" fill-rule="evenodd"/>
    <path id="Trazado_189978" data-name="Trazado 189978" d="M352.165,875.035a2.966,2.966,0,0,0-3.822.871c-.938,1.074-2.057,1.989-3.012,3.048-.932,1.036-1.681.93-2.59-.04-2.013-2.15-4.089-4.241-6.141-6.356,3.4-1.194,6.121-3.419,8.846-5.686,3.532-2.937,5.468-7.056,8.128-10.638,2,1.929,3.966,3.889,6.009,5.769,1.176,1.083.871,1.926-.155,2.856-.921.839-1.736,1.8-2.664,2.625a2.621,2.621,0,0,0-.543,3.808Q354.193,873.162,352.165,875.035Z" transform="translate(36.959 3225.32)" fill="#ffb20c" fill-rule="evenodd"/>
    <path id="Trazado_189979" data-name="Trazado 189979" d="M356.581,859.348c-2.66,3.583-4.6,7.7-8.128,10.638-2.725,2.267-5.446,4.491-8.846,5.686-2.677-2.611-5.323-5.259-8.046-7.82-1.144-1.074-.93-1.847.085-2.849q6.981-6.885,13.861-13.869c1.112-1.133,1.915-1.284,3.062-.055C351.184,853.885,353.9,856.6,356.581,859.348Z" transform="translate(33.952 3222.207)" fill="#ffb20c" fill-rule="evenodd"/>
    <path id="Trazado_189980" data-name="Trazado 189980" d="M306.633,904.181a11.692,11.692,0,1,1,16.257-16.745c-.109,2.182.31,4.368-.354,6.547C320.749,899.866,315.983,904.773,306.633,904.181Z" transform="translate(19.319 3239.462)" fill="#cc8f08" fill-rule="evenodd"/>
    <path id="Trazado_189981" data-name="Trazado 189981" d="M369.133,904.239A11.683,11.683,0,1,1,385.61,887.8c.276,4.937-1.012,9.271-4.778,12.7C377.491,903.546,373.493,904.432,369.133,904.239Z" transform="translate(51.611 3239.461)" fill="#ffe4a9" fill-rule="evenodd"/>
    <path id="Trazado_189982" data-name="Trazado 189982" d="M388.425,921.33c-8.178.044-16.364.3-24.534.044-4-.123-1.5-3.584-1.828-5.429-.231-1.276-1.537-4.026,1.825-4.015,8.18.021,16.358.079,24.537.125Z" transform="translate(49.886 3254.133)" fill="#00defc" fill-rule="evenodd"/>
    <path id="Trazado_189983" data-name="Trazado 189983" d="M325.773,921.333c-8.1.042-16.195.3-24.279.036-4.018-.129-1.432-3.593-1.775-5.429-.226-1.209-1.666-4.024,1.772-4.012q12.14.043,24.282.123Z" transform="translate(17.616 3254.133)" fill="#00defc" fill-rule="evenodd"/>
    <path id="Trazado_189984" data-name="Trazado 189984" d="M357.065,921.334c-8.181.044-16.363.068-24.544.15-1.4.012-1.749-.59-1.845-1.9-.557-7.667-.587-7.682,7.047-7.659,6.447.02,12.894.082,19.343.129Z" transform="translate(33.782 3254.131)" fill="#00defc" fill-rule="evenodd"/>
    <path id="Trazado_189985" data-name="Trazado 189985" d="M305.225,902.863c9.35.592,14.116-4.315,15.9-10.2.663-2.179.244-4.365.354-6.547,4.446,4.9,4.373,11.721-.173,16.3A11.576,11.576,0,0,1,305.225,902.863Z" transform="translate(20.728 3240.779)" fill="#cc8f08" fill-rule="evenodd"/>
    <path id="Trazado_189986" data-name="Trazado 189986" d="M367.7,902.8c4.359.193,8.357-.693,11.7-3.739,3.766-3.434,5.054-7.767,4.778-12.7A11.66,11.66,0,0,1,367.7,902.8Z" transform="translate(53.047 3240.902)" fill="#ffe4a9" fill-rule="evenodd"/>
    <path id="Trazado_189987" data-name="Trazado 189987" d="M348,897.781q-.009-4.689-.018-9.376c6.79-.8,6.79-.8,6.787,5.658,0,3.854,0,3.863-3.9,3.845C349.915,897.9,348.957,897.825,348,897.781Z" transform="translate(42.848 3241.777)" fill="#154f8d" fill-rule="evenodd"/>
    <path id="Trazado_189988" data-name="Trazado 189988" d="M347.985,945.394q0-4.825.011-9.65c6.766-.436,6.6-.429,6.83,5.981.108,2.974-.816,4.009-3.693,3.6A18.374,18.374,0,0,0,347.985,945.394Z" transform="translate(42.849 3266.37)" fill="#b9ddfc" fill-rule="evenodd"/>
    <path id="Trazado_189989" data-name="Trazado 189989" d="M316.717,921.359v-9.282c6.86-.514,6.748-.511,6.9,6.224.056,2.492-.554,3.6-3.168,3.215A34.218,34.218,0,0,0,316.717,921.359Z" transform="translate(26.672 3254.107)" fill="#00defc" fill-rule="evenodd"/>
    <path id="Trazado_189990" data-name="Trazado 189990" d="M347.994,921.357V912.08c6.763-.513,6.641-.51,6.8,6.08.062,2.622-.637,3.766-3.352,3.355A31.392,31.392,0,0,0,347.994,921.357Z" transform="translate(42.854 3254.107)" fill="#00defc" fill-rule="evenodd"/>
    <path id="Trazado_189991" data-name="Trazado 189991" d="M379.275,921.354v-9.275c6.544-.5,6.544-.5,6.541,5.649,0,3.768,0,3.778-3.664,3.76C381.193,921.482,380.234,921.4,379.275,921.354Z" transform="translate(59.036 3254.109)" fill="#00defc" fill-rule="evenodd"/>
  </g>
</svg>
