<svg xmlns="http://www.w3.org/2000/svg" width="98" height="70.507" viewBox="0 0 98 70.507">
  <g id="Grupo_131819" data-name="Grupo 131819" transform="translate(-175.666 -5059.647)">
    <path id="Trazado_189739" data-name="Trazado 189739" d="M1076.329,1270.348c-1.067-.821-.883-1.7-.142-2.629a7.407,7.407,0,0,1,6.2-2.76q24.183.039,48.366.013,13,0,26,0c4.967,0,7.847,2.838,7.852,7.8q.027,23.9,0,47.793c0,1.231-.212,2.348,1.719,2.265,1.08-.046,1.691.968,1.83,2.111a9.449,9.449,0,0,1-8.76,10.482c-.445.026-.892.033-1.337.033q-38.9,0-77.807-.006c-6.048,0-10.118-4.033-10.027-9.824.033-2.089.793-3,2.868-2.867,1.6.1,1.69-.592,1.687-1.868q-.054-22.176-.016-44.352c0-.976-.287-2.133,1.148-2.46,1.706.023,1.622,1.224,1.621,2.414q-.012,16.8,0,33.6c0,3.435.061,6.868.093,10.3-.473,1.828.189,2.374,2.093,2.37q29.709-.06,59.418.046c5.026.011,10.054-.108,15.078.217.986.063,1.753.221,2.1,1.239-.279,1.7-1.566,1.546-2.794,1.543q-28.483-.066-56.965-.13-10.893-.035-21.785-.213c-1.446-.024-1.815.524-1.534,1.812.411,1.882,1.2,3.485,3.1,4.282,1.25,1.1,2.777,1.1,4.312,1.1q38.508,0,77.016,0c.51,0,1.022.026,1.528-.016a6.546,6.546,0,0,0,5.913-5.135c.243-1.364.034-2.277-1.684-2.055a13.24,13.24,0,0,1-2.1,0,1.33,1.33,0,0,1-1.378-1.1,1.2,1.2,0,0,1,.723-1.424c.994-.279,1.026-.923,1.025-1.733q-.017-24.462-.016-48.923c0-2.319-.8-3.356-3.082-4.233a12.312,12.312,0,0,0-1.876-.285q-37.089-.021-74.179-.013a4.738,4.738,0,0,0-4.186,1.857A1.89,1.89,0,0,1,1076.329,1270.348Z" transform="translate(-894.553 3794.688)" fill="#030404" fill-rule="evenodd"/>
    <path id="Trazado_189740" data-name="Trazado 189740" d="M1085.51,1274.852a1.89,1.89,0,0,0,2.018-.741,4.739,4.739,0,0,1,4.185-1.857q37.09,0,74.179.013a12.334,12.334,0,0,1,1.876.285q.007,24.945.03,49.889c0,1.614-.423,2.518-2.244,2.516q-39.376-.053-78.752-.049c-.033-3.434-.09-6.868-.093-10.3q-.018-16.8,0-33.6c0-1.191.084-2.391-1.621-2.414Q1085.3,1276.722,1085.51,1274.852Zm43.273,48.638q17.02,0,34.041,0c3.317,0,4.226-.894,4.227-4.156q.007-19.505,0-39.012c0-3.161-1.057-4.233-4.251-4.234q-34.042-.013-68.081,0c-3.042,0-4.179,1.15-4.18,4.156q-.01,19.505,0,39.012c0,3.24.986,4.23,4.2,4.231Q1111.762,1323.5,1128.782,1323.49Z" transform="translate(-903.733 3790.184)" fill="#768691" fill-rule="evenodd"/>
    <path id="Trazado_189741" data-name="Trazado 189741" d="M1087.487,1325.391q39.376.016,78.752.05c1.821,0,2.247-.9,2.244-2.516q-.049-24.944-.03-49.889c2.277.876,3.08,1.913,3.082,4.233q.021,24.462.016,48.923c0,.811-.031,1.454-1.025,1.733a1.2,1.2,0,0,0-.723,1.424,1.331,1.331,0,0,0,1.378,1.1,13.24,13.24,0,0,0,2.1,0c1.718-.222,1.927.691,1.684,2.055a6.547,6.547,0,0,1-5.913,5.135c-.506.042-1.019.016-1.528.016q-38.508,0-77.016,0c-1.534,0-3.062,0-4.312-1.1.688-.713,1.57-.386,2.357-.387q35.474-.029,70.948-.021a7.662,7.662,0,0,0,7.192-5.266c.193-.65.629-1.394-.519-1.621-.345-1.018-1.112-1.176-2.1-1.239-5.024-.325-10.052-.205-15.078-.217q-29.709-.066-59.418-.046C1087.677,1327.764,1087.015,1327.219,1087.487,1325.391Z" transform="translate(-904.418 3789.702)" fill="#7f898f" fill-rule="evenodd"/>
    <path id="Trazado_189742" data-name="Trazado 189742" d="M1161.03,1420.014c1.148.227.712.97.519,1.621a7.662,7.662,0,0,1-7.192,5.266q-35.474.011-70.948.021c-.788,0-1.67-.325-2.357.387-1.9-.8-2.689-2.4-3.1-4.282-.282-1.287.088-1.836,1.534-1.812q10.891.182,21.785.213,28.482.09,56.965.13C1159.464,1421.56,1160.751,1421.713,1161.03,1420.014Z" transform="translate(-899.273 3698.95)" fill="#7f898f" fill-rule="evenodd"/>
    <path id="Trazado_189743" data-name="Trazado 189743" d="M1137.57,1329.665q-17.02,0-34.04,0c-3.219,0-4.2-.992-4.2-4.232q-.008-19.506,0-39.012c0-3.007,1.138-4.155,4.18-4.156q34.041-.014,68.081,0c3.194,0,4.25,1.072,4.251,4.234q.006,19.506,0,39.012c0,3.262-.91,4.154-4.227,4.155Q1154.59,1329.669,1137.57,1329.665Zm26.743-39.183c1.655.023,3.31.062,4.965.067,3.9.01,3.9,0,3.792-3.908a2.645,2.645,0,0,1,0-.382c.1-.85-.315-1.1-1.114-1.087-2.546.053-5.093.06-7.641.085-.7-.024-1.4-.07-2.1-.07q-28.4-.006-56.805,0c-3.185,0-3.048.008-3.234,3.183-.113,1.931.542,2.235,2.314,2.227,15.492-.075,30.985-.034,46.477-.059,1.246,0,2.313.071,2.606,1.557-.516,1.421-1.717,1.262-2.868,1.262-15.537,0-31.075.019-46.611-.037-1.5-.006-1.978.376-1.9,1.9.126,2.541.026,5.093.036,7.64q.046,11.266.1,22.531c-.358,1.2.107,1.6,1.314,1.53,1.4-.081,2.8-.018,4.2-.018q31.6,0,63.21-.008c.934,0,2.047.412,2.037-1.348-.058-10.312-.035-20.624-.016-30.936,0-.852-.177-1.3-1.151-1.266-2.542.075-5.086.075-7.629.105-1.643-.031-3.286-.087-4.928-.082-.975,0-1.759-.2-2.032-1.275.142-1.139.8-1.566,1.927-1.547C1160.949,1290.566,1162.631,1290.5,1164.313,1290.482Z" transform="translate(-912.521 3784.009)" fill="#040505" fill-rule="evenodd"/>
    <path id="Trazado_189744" data-name="Trazado 189744" d="M1106.961,1341.245q-.053-11.265-.1-22.531c-.011-2.547.09-5.1-.036-7.64-.076-1.519.4-1.9,1.9-1.9,15.537.056,31.074.032,46.611.037,1.151,0,2.352.159,2.868-1.262l3.764-.007c.273,1.071,1.057,1.278,2.033,1.275,1.642,0,3.285.052,4.928.082q.011,13.956.022,27.911c0,3.191-.841,4.03-4.064,4.03Q1135.923,1341.247,1106.961,1341.245Zm14.576-16.19c-.006-2.145-.94-3.362-2.537-3.3-1.479.055-2.412,1.32-2.42,3.286-.009,2.082.953,3.39,2.5,3.4C1120.655,1328.443,1121.542,1327.223,1121.537,1325.055Zm40.939-.018c-.008-2.055-.852-3.227-2.365-3.282-1.568-.056-2.592,1.247-2.593,3.3,0,2.082.966,3.382,2.514,3.378C1161.605,1328.43,1162.483,1327.211,1162.475,1325.037Zm-14.905.082c.012-2.158-.884-3.38-2.466-3.365-1.487.015-2.445,1.257-2.483,3.222-.041,2.066.9,3.411,2.429,3.457C1146.643,1328.48,1147.558,1327.277,1147.57,1325.119Zm-12.337,9.929c-.021,2.163.844,3.437,2.371,3.49s2.544-1.27,2.577-3.343-.946-3.374-2.523-3.362C1136.122,1331.845,1135.254,1333,1135.234,1335.047Zm-.679-19.985c.015-2.2-.831-3.337-2.469-3.326-1.548.01-2.446,1.159-2.483,3.176-.039,2.079.894,3.4,2.428,3.443C1133.651,1318.4,1134.54,1317.24,1134.554,1315.063Zm0,10.046c.013-2.148-.9-3.378-2.478-3.356-1.484.021-2.442,1.272-2.474,3.232-.034,2.063.919,3.41,2.441,3.449C1133.633,1328.474,1134.539,1327.274,1134.552,1325.109Zm13.017,10.059c.01-2.148-.9-3.373-2.5-3.34-1.512.031-2.429,1.245-2.451,3.246-.023,2.05.96,3.438,2.455,3.468C1146.626,1338.572,1147.559,1337.308,1147.57,1335.168Zm13.02.042c.021-2.166-.863-3.384-2.454-3.379-1.525.005-2.451,1.195-2.491,3.2-.041,2.039.931,3.453,2.411,3.51C1159.613,1338.6,1160.568,1337.344,1160.589,1335.209Zm-33.43-.016c.031-2.076-.943-3.374-2.521-3.36-1.544.014-2.4,1.154-2.424,3.216-.021,2.164.843,3.436,2.372,3.49S1127.128,1337.266,1127.159,1335.193Zm35.993-.111c-.011,2.162.869,3.428,2.406,3.458,1.518.029,2.525-1.31,2.542-3.38s-.975-3.361-2.557-3.325C1164.011,1331.869,1163.164,1333.02,1163.152,1335.082Zm-13.016-9.934c.022,2.158.946,3.348,2.546,3.281,1.522-.064,2.443-1.407,2.389-3.484-.052-1.989-1-3.194-2.5-3.188C1150.984,1321.762,1150.113,1322.977,1150.136,1325.148Zm-27.922-10.11c.011,2.19.879,3.344,2.493,3.314,1.539-.027,2.478-1.337,2.449-3.415-.028-2.012-.922-3.176-2.454-3.2C1123.062,1311.714,1122.2,1312.853,1122.214,1315.038Zm25.354-.11c-.018-2.08-.839-3.167-2.409-3.187-1.6-.02-2.562,1.231-2.539,3.307.024,2.1.985,3.336,2.565,3.3S1147.587,1317.14,1147.568,1314.928Zm13.019.013c-.015-2.084-.83-3.172-2.4-3.2-1.614-.027-2.565,1.2-2.548,3.294s.974,3.341,2.549,3.314S1160.6,1317.147,1160.588,1314.94Zm7.512.142c.039-2.077-.908-3.343-2.5-3.343-1.579,0-2.414,1.079-2.441,3.154-.029,2.218.775,3.4,2.346,3.455C1167.1,1318.4,1168.059,1317.189,1168.1,1315.082Zm-.436,10.112h.026c0-.828.011-1.656,0-2.483-.007-.385-.2-1-.5-.861a5.4,5.4,0,0,0-2.39,1.61c-.523.858.606.562,1.026.738.577.241.377.74.4,1.148.034.762.021,1.527.023,2.291a.654.654,0,0,0,.666.749.694.694,0,0,0,.743-.71C1167.7,1326.851,1167.664,1326.022,1167.664,1325.195Zm-40.906-.046a4.294,4.294,0,0,0,0-.572c-.125-.918.471-2.157-.43-2.68-.808-.47-.981,1.194-1.932,1.193a.606.606,0,0,0-.67.545c-.005.562.472.513.827.518.761.01.743.522.74,1.05q0,1.05,0,2.1c0,.517-.022,1.107.723,1.074.692-.031.72-.611.733-1.128C1126.766,1326.549,1126.753,1325.849,1126.757,1325.148Zm26.051,10.331c0-.793.016-1.43,0-2.066-.018-.546.156-1.466-.49-1.444-.971.035-1.723.984-2.388,1.583-.589.53.5.617.98.744.644.169.319.719.42,1.1.268,1.026-.616,2.962.651,2.941C1153.579,1338.314,1152.423,1336.356,1152.808,1335.479Zm-13.041-10.289h.016a5.93,5.93,0,0,0-.005-.763c-.111-.856.436-1.988-.4-2.508s-.931,1.008-1.746,1.088c-.337.033-.847.141-.873.593-.043.7.581.512.972.566.658.091.564.577.571,1.007.012.763.012,1.526.007,2.289,0,.488.1.92.69.921.569,0,.745-.429.761-.905C1139.786,1326.716,1139.768,1325.953,1139.768,1325.19Zm-20.523,9.959h.007c0-.825,0-1.651,0-2.476,0-.406-.157-.935-.586-.718a5.351,5.351,0,0,0-2.339,1.673c-.4.727.757.465,1.172.733.4.256.271.669.284,1.028.026.761-.008,1.525.046,2.284.034.472.28.9.836.817.42-.063.581-.445.582-.864Q1119.247,1336.387,1119.245,1335.149Zm13.026.04c0-.826,0-1.651,0-2.476,0-.5-.268-1.1-.719-.728-.725.593-1.85.93-2.186,1.608-.433.876.931.407,1.26.85a1.717,1.717,0,0,1,.181.9c.028.7,0,1.4.025,2.1.022.524.127,1.094.812,1.045.554-.04.625-.544.627-1.01C1132.274,1336.712,1132.271,1335.95,1132.271,1335.188Zm7.511-20.107h-.007c0-.828.027-1.656-.009-2.482-.025-.573-.43-1.212-.9-.674-.61.693-1.775.815-2,1.552-.326,1.061.972.313,1.278.765a1.831,1.831,0,0,1,.161.909c.023.635-.017,1.274.016,1.909.028.528-.17,1.29.73,1.244.815-.043.7-.769.729-1.314C1139.808,1316.356,1139.782,1315.718,1139.782,1315.082Zm12.964.068h.052c0-.763,0-1.526,0-2.289,0-.377.035-.8-.368-1.01-.435-.221-.668.11-.935.4a2.82,2.82,0,0,1-.873.676c-.348.155-.814.2-.826.65-.02.726.6.492.985.515.74.045.525.59.541.981.032.826.007,1.653.022,2.48.008.418.169.743.651.764a.667.667,0,0,0,.741-.693C1152.775,1316.8,1152.746,1315.976,1152.746,1315.15Zm-33.495-.021q0-.382,0-.763c0-2.6.005-2.59-2.133-1.427-.324.176-.833.179-.862.619-.047.719.582.5.968.54.69.068.553.576.565.992.021.7-.019,1.4.021,2.1.028.487,0,1.1.725,1.121.773.026.693-.591.709-1.081C1119.266,1316.528,1119.249,1315.828,1119.251,1315.128Z" transform="translate(-917.147 3768.146)" fill="#eaf6ff" fill-rule="evenodd"/>
    <path id="Trazado_189745" data-name="Trazado 189745" d="M1107.009,1343.263q28.962,0,57.924,0c3.223,0,4.066-.839,4.064-4.03q-.009-13.956-.022-27.911c2.543-.03,5.088-.031,7.629-.105.974-.029,1.153.415,1.151,1.266-.02,10.312-.042,20.624.016,30.937.01,1.76-1.1,1.348-2.037,1.348q-31.606.015-63.21.008c-1.4,0-2.8-.062-4.2.019C1107.116,1344.864,1106.652,1344.458,1107.009,1343.263Z" transform="translate(-917.196 3766.128)" fill="#eaf6ff" fill-rule="evenodd"/>
    <path id="Trazado_189746" data-name="Trazado 189746" d="M1161.934,1296.809l-3.764.007c-.293-1.487-1.36-1.56-2.606-1.557-15.493.025-30.985-.016-46.477.059-1.772.008-2.427-.3-2.314-2.227.186-3.174.049-3.183,3.234-3.183q28.4,0,56.805,0c.7,0,1.4.045,2.1.07q0,2.612,0,5.226c-1.682.023-3.365.083-5.046.055C1162.74,1295.243,1162.076,1295.67,1161.934,1296.809Z" transform="translate(-917.116 3779.284)" fill="#0ddcf1" fill-rule="evenodd"/>
    <path id="Trazado_189747" data-name="Trazado 189747" d="M1269.211,1295.187q0-2.613,0-5.225c2.547-.025,5.094-.032,7.64-.085.8-.017,1.214.237,1.114,1.087a2.7,2.7,0,0,0,0,.382c.1,3.911.1,3.918-3.792,3.908C1272.521,1295.25,1270.866,1295.21,1269.211,1295.187Z" transform="translate(-1017.419 3779.304)" fill="#0ddcf1" fill-rule="evenodd"/>
    <path id="Trazado_189748" data-name="Trazado 189748" d="M1137.3,1347.334c.006,2.168-.882,3.387-2.461,3.381-1.543-.007-2.5-1.316-2.5-3.4.008-1.966.941-3.231,2.42-3.286C1136.36,1343.973,1137.295,1345.189,1137.3,1347.334Zm-3.518.031c.165.713-.289,2.046,1.056,2.1,1.224.052,1.062-1.222,1.078-2.032.017-.827.157-2.057-.963-2.155C1133.75,1345.177,1133.851,1346.358,1133.783,1347.366Z" transform="translate(-932.911 3745.866)" fill="#0f1213" fill-rule="evenodd"/>
    <path id="Trazado_189749" data-name="Trazado 189749" d="M1244.314,1347.32c.007,2.174-.87,3.393-2.443,3.4-1.547,0-2.514-1.3-2.514-3.378,0-2.054,1.024-3.357,2.593-3.3C1243.462,1344.093,1244.307,1345.266,1244.314,1347.32Zm-3.513-.006c.075.86-.189,2.058.971,2.165,1.26.116,1.151-1.145,1.155-1.951.005-.87.217-2.2-1.059-2.246C1240.687,1345.243,1240.886,1346.484,1240.8,1347.314Z" transform="translate(-998.986 3745.862)" fill="#0f1213" fill-rule="evenodd"/>
    <path id="Trazado_189750" data-name="Trazado 189750" d="M1205.363,1347.4c-.013,2.159-.928,3.362-2.52,3.313-1.524-.046-2.469-1.391-2.429-3.457.038-1.965,1-3.207,2.483-3.222C1204.479,1344.022,1205.375,1345.244,1205.363,1347.4Zm-1.306-.078c-.223-.814.04-2.12-1.16-2.044-1.235.079-1.025,1.358-1.033,2.271-.006.811-.063,1.925.988,1.933C1204.217,1349.5,1203.832,1348.16,1204.057,1347.324Z" transform="translate(-974.94 3745.862)" fill="#0e1112" fill-rule="evenodd"/>
    <path id="Trazado_189751" data-name="Trazado 189751" d="M1181.1,1373.6c.02-2.051.889-3.2,2.425-3.214,1.577-.013,2.556,1.291,2.523,3.361s-1.053,3.4-2.577,3.343S1181.084,1375.763,1181.1,1373.6Zm3.523.121c-.068-.908.095-2.105-1.094-2.1s-1.055,1.25-1.067,2.077-.132,2.1,1,2.139C1184.819,1375.886,1184.527,1374.569,1184.628,1373.72Z" transform="translate(-963.018 3729.594)" fill="#0e1112" fill-rule="evenodd"/>
    <path id="Trazado_189752" data-name="Trazado 189752" d="M1171.335,1321.179c-.014,2.177-.9,3.338-2.524,3.293-1.533-.042-2.466-1.365-2.428-3.443.037-2.017.935-3.166,2.483-3.176C1170.5,1317.843,1171.349,1318.981,1171.335,1321.179Zm-3.529-.109c.158.833-.277,2.148,1.1,2.164,1.231.015,1.039-1.246,1.046-2.046s.19-2.027-1-2.1C1167.661,1319.01,1167.945,1320.232,1167.806,1321.07Z" transform="translate(-953.928 3762.029)" fill="#0e1112" fill-rule="evenodd"/>
    <path id="Trazado_189753" data-name="Trazado 189753" d="M1171.33,1347.391c-.013,2.166-.92,3.366-2.511,3.325-1.522-.039-2.475-1.386-2.441-3.449.032-1.96.99-3.211,2.474-3.232C1170.434,1344.012,1171.343,1345.243,1171.33,1347.391Zm-1.31.087c-.223-.842.149-2.175-1.171-2.207-1.039-.026-1.029,1.1-1.009,1.908.022.895-.292,2.185.989,2.3C1170.08,1349.586,1169.791,1348.281,1170.02,1347.478Z" transform="translate(-953.925 3745.864)" fill="#0e1112" fill-rule="evenodd"/>
    <path id="Trazado_189754" data-name="Trazado 189754" d="M1205.367,1373.71c-.011,2.141-.943,3.4-2.492,3.373-1.495-.03-2.478-1.417-2.455-3.468.022-2,.939-3.214,2.451-3.246C1204.462,1370.337,1205.377,1371.562,1205.367,1373.71Zm-1.3-.044c-.212-.8.068-2.1-1.136-2.054-1.286.052-1.051,1.346-1.058,2.255-.008.869-.067,2.055,1.147,1.962C1204.159,1375.741,1203.88,1374.5,1204.062,1373.666Z" transform="translate(-974.944 3729.604)" fill="#0e1112" fill-rule="evenodd"/>
    <path id="Trazado_189755" data-name="Trazado 189755" d="M1239.4,1373.758c-.021,2.135-.977,3.392-2.533,3.333-1.481-.057-2.453-1.472-2.411-3.51.04-2.006.966-3.2,2.491-3.2C1238.539,1370.373,1239.423,1371.591,1239.4,1373.758Zm-1.278-.152c-.29-.662.085-1.989-1.118-1.981-1.288.006-1.111,1.283-1.11,2.2,0,.864-.1,2.056,1.109,2.013C1238.178,1375.793,1237.912,1374.545,1238.124,1373.606Z" transform="translate(-995.96 3729.598)" fill="#0f1213" fill-rule="evenodd"/>
    <path id="Trazado_189756" data-name="Trazado 189756" d="M1152.016,1373.744c-.031,2.073-1.051,3.4-2.573,3.346s-2.394-1.326-2.372-3.49c.02-2.062.879-3.2,2.424-3.216C1151.073,1370.37,1152.047,1371.667,1152.016,1373.744Zm-1.4-.137c-.112-.8.081-2.01-1.124-1.987-1.183.022-1.043,1.259-1.055,2.088s-.12,2.093,1.014,2.122C1150.785,1375.866,1150.5,1374.553,1150.612,1373.607Z" transform="translate(-942.004 3729.595)" fill="#0f1213" fill-rule="evenodd"/>
    <path id="Trazado_189757" data-name="Trazado 189757" d="M1254.085,1373.635c.011-2.062.858-3.213,2.391-3.248,1.583-.036,2.574,1.253,2.557,3.325s-1.024,3.409-2.542,3.38C1254.953,1377.063,1254.073,1375.8,1254.085,1373.635Zm3.522.164c-.043-.911.105-2.139-1.01-2.178-1.316-.046-1.141,1.3-1.146,2.181,0,.828-.1,2.072,1.1,2.045C1257.722,1375.82,1257.537,1374.617,1257.606,1373.8Z" transform="translate(-1008.079 3729.593)" fill="#0f1213" fill-rule="evenodd"/>
    <path id="Trazado_189758" data-name="Trazado 189758" d="M1220.059,1347.436c-.023-2.171.848-3.385,2.432-3.391,1.505-.005,2.45,1.2,2.5,3.188.055,2.076-.867,3.419-2.389,3.484C1221.005,1350.785,1220.081,1349.594,1220.059,1347.436Zm3.53.244c-.062-.943.2-2.231-.975-2.4-1.217-.174-1.18,1.112-1.194,1.941-.015.883-.24,2.159,1.055,2.267C1223.59,1349.581,1223.5,1348.454,1223.589,1347.68Z" transform="translate(-987.07 3745.857)" fill="#0c0f10" fill-rule="evenodd"/>
    <path id="Trazado_189759" data-name="Trazado 189759" d="M1147.072,1321.157c-.011-2.185.848-3.324,2.489-3.3,1.532.022,2.426,1.187,2.454,3.2.029,2.078-.91,3.387-2.449,3.415C1147.95,1324.5,1147.083,1323.347,1147.072,1321.157Zm3.539.048c-.156-.839.219-2.162-1.171-2.108-1.173.046-1.009,1.285-1,2.1s-.168,2.03,1.068,2.042C1150.776,1323.257,1150.474,1322.045,1150.611,1321.206Z" transform="translate(-942.005 3762.026)" fill="#0c0f10" fill-rule="evenodd"/>
    <path id="Trazado_189760" data-name="Trazado 189760" d="M1205.361,1321.05c.019,2.212-.8,3.389-2.383,3.422s-2.541-1.2-2.565-3.3c-.023-2.076.937-3.327,2.539-3.307C1204.522,1317.883,1205.343,1318.97,1205.361,1321.05Zm-1.3.079c-.234-.784.1-2.072-1.137-2.033-1.328.042-1.051,1.327-1.05,2.208,0,.829-.174,2.032,1.124,1.938C1204.208,1323.157,1203.839,1321.925,1204.061,1321.129Z" transform="translate(-974.94 3762.023)" fill="#0c0f10" fill-rule="evenodd"/>
    <path id="Trazado_189761" data-name="Trazado 189761" d="M1239.4,1321.065c.016,2.207-.81,3.383-2.4,3.41s-2.532-1.217-2.549-3.314.935-3.321,2.548-3.294C1238.571,1317.893,1239.385,1318.981,1239.4,1321.065Zm-3.533.111c.112.826-.178,2.019,1.042,2.075,1.264.058,1.124-1.18,1.121-1.984,0-.861.226-2.19-1.123-2.17C1235.709,1319.115,1235.975,1320.341,1235.867,1321.176Z" transform="translate(-995.96 3762.021)" fill="#0c0f10" fill-rule="evenodd"/>
    <path id="Trazado_189762" data-name="Trazado 189762" d="M1259.037,1321.2c-.04,2.107-1,3.32-2.6,3.266-1.571-.053-2.375-1.237-2.346-3.456.027-2.074.862-3.154,2.441-3.154C1258.128,1317.861,1259.076,1319.127,1259.037,1321.2Zm-1.415-.086c-.125-.8.172-2.01-1.07-2.029s-1.1,1.211-1.091,2.019c.006.859-.222,2.191,1.152,2.136C1257.815,1323.194,1257.5,1321.965,1257.622,1321.118Z" transform="translate(-1008.084 3762.024)" fill="#0c0f10" fill-rule="evenodd"/>
    <path id="Trazado_189763" data-name="Trazado 189763" d="M1261.029,1347.6c0,.827.034,1.656-.014,2.481a.7.7,0,0,1-.743.711.654.654,0,0,1-.666-.749c0-.764.011-1.529-.023-2.291-.018-.408.182-.906-.4-1.148-.42-.176-1.549.12-1.026-.738a5.408,5.408,0,0,1,2.39-1.61c.3-.14.493.477.5.862.015.827,0,1.655,0,2.483Z" transform="translate(-1010.513 3745.738)" fill="#131819" fill-rule="evenodd"/>
    <path id="Trazado_189764" data-name="Trazado 189764" d="M1154.045,1347.528c0,.7.011,1.4-.007,2.1-.013.517-.042,1.1-.733,1.127-.745.033-.719-.557-.723-1.074q-.008-1.05,0-2.1c0-.529.021-1.04-.74-1.05-.355,0-.833.044-.827-.518a.606.606,0,0,1,.67-.545c.951,0,1.124-1.663,1.932-1.193.9.523.3,1.762.43,2.68A3.958,3.958,0,0,1,1154.045,1347.528Z" transform="translate(-944.438 3745.766)" fill="#131819" fill-rule="evenodd"/>
    <path id="Trazado_189765" data-name="Trazado 189765" d="M1222.118,1374.251c-.386.877.771,2.835-.832,2.861-1.267.021-.383-1.915-.651-2.941-.1-.385.224-.934-.42-1.1-.48-.127-1.569-.214-.98-.744.664-.6,1.417-1.548,2.388-1.583.647-.022.472.9.49,1.444C1222.134,1372.821,1222.118,1373.458,1222.118,1374.251Z" transform="translate(-986.457 3729.374)" fill="#131819" fill-rule="evenodd"/>
    <path id="Trazado_189766" data-name="Trazado 189766" d="M1188.1,1347.566c0,.763.019,1.526-.007,2.288-.016.476-.192.906-.761.905-.591,0-.692-.432-.69-.921,0-.763.005-1.526-.007-2.289-.007-.43.087-.916-.571-1.007-.391-.054-1.015.136-.972-.566.027-.452.536-.56.873-.593.815-.08.9-1.612,1.746-1.088s.289,1.652.4,2.508a5.93,5.93,0,0,1,.005.763Z" transform="translate(-965.479 3745.77)" fill="#131819" fill-rule="evenodd"/>
    <path id="Trazado_189767" data-name="Trazado 189767" d="M1134.463,1373.816c0,.826,0,1.651,0,2.476,0,.418-.162.8-.582.864-.557.084-.8-.345-.836-.817-.054-.759-.021-1.523-.046-2.284-.013-.359.113-.772-.284-1.028-.414-.267-1.573,0-1.172-.733a5.351,5.351,0,0,1,2.339-1.672c.43-.217.585.312.586.718,0,.826,0,1.651,0,2.476Z" transform="translate(-932.366 3729.479)" fill="#131819" fill-rule="evenodd"/>
    <path id="Trazado_189768" data-name="Trazado 189768" d="M1168.534,1373.8c0,.762,0,1.524,0,2.286,0,.466-.072.97-.626,1.01-.685.05-.79-.52-.812-1.045-.029-.7,0-1.4-.025-2.095a1.719,1.719,0,0,0-.181-.9c-.329-.444-1.694.025-1.26-.85.336-.679,1.462-1.015,2.186-1.608.45-.369.717.229.719.729C1168.536,1372.149,1168.534,1372.974,1168.534,1373.8Z" transform="translate(-953.411 3729.535)" fill="#131819" fill-rule="evenodd"/>
    <path id="Trazado_189769" data-name="Trazado 189769" d="M1188.2,1321.176c0,.636.026,1.274-.008,1.909-.029.545.086,1.271-.729,1.314-.9.047-.7-.716-.73-1.244-.033-.635.007-1.274-.016-1.909a1.832,1.832,0,0,0-.161-.909c-.306-.453-1.6.3-1.278-.765.227-.738,1.393-.859,2-1.553.472-.537.876.1.9.675.036.826.009,1.654.009,2.482Z" transform="translate(-965.561 3762.052)" fill="#131819" fill-rule="evenodd"/>
    <path id="Trazado_189770" data-name="Trazado 189770" d="M1222.116,1321.334c0,.826.029,1.652-.012,2.475a.667.667,0,0,1-.741.693c-.482-.021-.643-.346-.651-.764-.015-.827.01-1.654-.022-2.48-.015-.391.2-.936-.541-.981-.384-.024-1.006.211-.986-.515.012-.455.478-.5.826-.65a2.825,2.825,0,0,0,.874-.676c.267-.29.5-.622.935-.4.4.205.365.632.368,1.01.007.763,0,1.526,0,2.289Z" transform="translate(-986.517 3761.961)" fill="#0f1213" fill-rule="evenodd"/>
    <path id="Trazado_189771" data-name="Trazado 189771" d="M1134.487,1321.974c0,.7.016,1.4-.007,2.1-.016.49.064,1.107-.709,1.081-.728-.024-.7-.634-.725-1.121-.04-.7,0-1.4-.021-2.1-.012-.416.125-.924-.565-.992-.386-.038-1.015.179-.968-.54.029-.44.538-.442.862-.619,2.138-1.163,2.133-1.172,2.133,1.427Q1134.488,1321.593,1134.487,1321.974Z" transform="translate(-932.384 3761.3)" fill="#0f1213" fill-rule="evenodd"/>
    <path id="Trazado_189772" data-name="Trazado 189772" d="M1136.106,1349.378c.068-1.007-.033-2.189,1.171-2.083,1.12.1.98,1.328.963,2.155-.016.81.146,2.084-1.078,2.031C1135.817,1351.423,1136.271,1350.091,1136.106,1349.378Z" transform="translate(-935.234 3743.855)" fill="#eaf6ff" fill-rule="evenodd"/>
    <path id="Trazado_189773" data-name="Trazado 189773" d="M1243.131,1349.322c.086-.829-.114-2.07,1.067-2.032,1.276.041,1.065,1.375,1.059,2.245,0,.806.105,2.068-1.155,1.952C1242.942,1351.38,1243.206,1350.183,1243.131,1349.322Z" transform="translate(-1001.316 3743.854)" fill="#eaf6ff" fill-rule="evenodd"/>
    <path id="Trazado_189774" data-name="Trazado 189774" d="M1206.383,1349.326c-.225.836.16,2.172-1.206,2.16-1.051-.009-.994-1.122-.988-1.933.007-.912-.2-2.192,1.033-2.271C1206.424,1347.206,1206.16,1348.512,1206.383,1349.326Z" transform="translate(-977.267 3743.86)" fill="#eaf6ff" fill-rule="evenodd"/>
    <path id="Trazado_189775" data-name="Trazado 189775" d="M1186.814,1375.711c-.1.849.192,2.166-1.161,2.115-1.131-.043-1.011-1.3-1-2.139s-.128-2.073,1.067-2.077S1186.745,1374.8,1186.814,1375.711Z" transform="translate(-965.204 3727.603)" fill="#eaf6ff" fill-rule="evenodd"/>
    <path id="Trazado_189776" data-name="Trazado 189776" d="M1170.1,1323.058c.139-.838-.145-2.06,1.145-1.981,1.192.073,1.01,1.292,1,2.1s.185,2.061-1.046,2.046C1169.828,1325.206,1170.263,1323.891,1170.1,1323.058Z" transform="translate(-956.227 3760.041)" fill="#eaf6ff" fill-rule="evenodd"/>
    <path id="Trazado_189777" data-name="Trazado 189777" d="M1172.352,1349.472c-.228.8.06,2.108-1.19,2-1.281-.113-.966-1.4-.989-2.3-.021-.812-.031-1.934,1.008-1.908C1172.5,1347.3,1172.128,1348.63,1172.352,1349.472Z" transform="translate(-956.257 3743.869)" fill="#eaf6ff" fill-rule="evenodd"/>
    <path id="Trazado_189778" data-name="Trazado 189778" d="M1206.38,1375.669c-.182.831.1,2.076-1.048,2.163-1.214.093-1.154-1.093-1.147-1.962.008-.909-.228-2.2,1.059-2.255C1206.448,1373.567,1206.168,1374.869,1206.38,1375.669Z" transform="translate(-977.262 3727.601)" fill="#eaf6ff" fill-rule="evenodd"/>
    <path id="Trazado_189779" data-name="Trazado 189779" d="M1240.434,1375.616c-.213.939.054,2.187-1.119,2.229-1.205.043-1.108-1.149-1.109-2.013,0-.915-.179-2.192,1.11-2.2C1240.519,1373.628,1240.144,1374.954,1240.434,1375.616Z" transform="translate(-998.27 3727.587)" fill="#eaf6ff" fill-rule="evenodd"/>
    <path id="Trazado_189780" data-name="Trazado 189780" d="M1152.8,1375.6c-.112.946.172,2.259-1.165,2.223-1.134-.03-1.026-1.283-1.014-2.122s-.128-2.066,1.055-2.088C1152.879,1373.592,1152.685,1374.805,1152.8,1375.6Z" transform="translate(-944.189 3727.6)" fill="#eaf6ff" fill-rule="evenodd"/>
    <path id="Trazado_189781" data-name="Trazado 189781" d="M1259.8,1375.789c-.07.818.116,2.021-1.059,2.047-1.2.026-1.1-1.217-1.1-2.045.005-.883-.17-2.226,1.146-2.181C1259.907,1373.65,1259.759,1374.878,1259.8,1375.789Z" transform="translate(-1010.275 3727.603)" fill="#eaf6ff" fill-rule="evenodd"/>
    <path id="Trazado_189782" data-name="Trazado 189782" d="M1225.747,1349.647c-.093.774,0,1.9-1.114,1.808-1.3-.108-1.07-1.384-1.055-2.267.014-.828-.023-2.115,1.194-1.941C1225.952,1347.416,1225.685,1348.7,1225.747,1349.647Z" transform="translate(-989.229 3743.89)" fill="#eaf6ff" fill-rule="evenodd"/>
    <path id="Trazado_189783" data-name="Trazado 189783" d="M1152.8,1323.2c-.137.84.165,2.051-1.1,2.039-1.236-.013-1.059-1.232-1.068-2.042s-.172-2.058,1-2.1C1153.019,1321.043,1152.644,1322.366,1152.8,1323.2Z" transform="translate(-944.193 3760.027)" fill="#eaf6ff" fill-rule="evenodd"/>
    <path id="Trazado_189784" data-name="Trazado 189784" d="M1206.38,1323.12c-.222.8.147,2.028-1.063,2.114-1.3.093-1.124-1.109-1.124-1.938,0-.882-.278-2.167,1.05-2.209C1206.482,1321.048,1206.145,1322.336,1206.38,1323.12Z" transform="translate(-977.259 3760.033)" fill="#eaf6ff" fill-rule="evenodd"/>
    <path id="Trazado_189785" data-name="Trazado 189785" d="M1238.145,1323.163c.107-.835-.159-2.061,1.04-2.078,1.349-.02,1.121,1.309,1.123,2.169,0,.8.143,2.042-1.121,1.984C1237.967,1325.182,1238.257,1323.989,1238.145,1323.163Z" transform="translate(-998.237 3760.034)" fill="#eaf6ff" fill-rule="evenodd"/>
    <path id="Trazado_189786" data-name="Trazado 189786" d="M1259.814,1323.1c-.118.847.194,2.076-1.009,2.125-1.374.055-1.145-1.277-1.152-2.136-.006-.808-.148-2.038,1.091-2.019S1259.689,1322.3,1259.814,1323.1Z" transform="translate(-1010.277 3760.043)" fill="#eaf6ff" fill-rule="evenodd"/>
  </g>
</svg>
