<svg xmlns="http://www.w3.org/2000/svg" xmlns:xlink="http://www.w3.org/1999/xlink" width="391.132" height="255.155" viewBox="0 0 391.132 255.155">
  <defs>
    <linearGradient id="linear-gradient" x1="-0.463" y1="0.5" x2="0.537" y2="0.5" gradientUnits="objectBoundingBox">
      <stop offset="0" stop-color="#e37e30"/>
      <stop offset="1" stop-color="#e8a12e"/>
    </linearGradient>
    <linearGradient id="linear-gradient-2" y1="0.5" x2="1" y2="0.5" gradientUnits="objectBoundingBox">
      <stop offset="0" stop-color="#343d4f"/>
      <stop offset="0.458" stop-color="#2f384b"/>
      <stop offset="0.951" stop-color="#222c41"/>
      <stop offset="1" stop-color="#212b40"/>
    </linearGradient>
  </defs>
  <g id="Grupo_131779" data-name="Grupo 131779" transform="translate(-208.868 -425.888)">
    <path id="Trazado_189321" data-name="Trazado 189321" d="M430.109,295.453s27.48-44.135-2.448-96.06-70.125-25.812-68.179-86.25-83.073-66.3-113.118-48.774-56.571,7.485-92.457,8.707c-58.2,1.983-74.492,62.945-58.356,92.613,22.894,42.094-71.723,47.043-17.259,129.763Z" transform="translate(158.372 385.591)" fill="#fff4da"/>
    <g id="Grupo_128730" data-name="Grupo 128730" transform="translate(-138.062 289.491)">
      <g id="Grupo_128585" data-name="Grupo 128585" transform="translate(447.52 343.232)">
        <path id="Trazado_189227" data-name="Trazado 189227" d="M586.515,449.961H461.9l-8.912,33.312H595.427Z" transform="translate(-452.986 -449.961)" fill="#cc8f08"/>
        <path id="Trazado_189228" data-name="Trazado 189228" d="M466.7,462.822h8.154a.491.491,0,0,1,.534.55l-.79,3.546a.529.529,0,0,1-.535.378h-8.292a.488.488,0,0,1-.531-.565l.929-3.546A.531.531,0,0,1,466.7,462.822Z" transform="translate(-456.806 -453.974)" fill="#fff"/>
        <path id="Trazado_189229" data-name="Trazado 189229" d="M484.231,462.822h6.164l-.82,4.474h-6.281Z" transform="translate(-462.444 -453.975)" fill="#fff"/>
        <path id="Trazado_189230" data-name="Trazado 189230" d="M497.751,462.822h6.164l-.645,4.474-6.281.007Z" transform="translate(-466.718 -453.975)" fill="#fff"/>
        <path id="Trazado_189231" data-name="Trazado 189231" d="M511.27,462.822h6.164l-.469,4.474h-6.281Z" transform="translate(-470.992 -453.975)" fill="#fff"/>
        <path id="Trazado_189232" data-name="Trazado 189232" d="M524.791,462.822h6.163l-.292,4.474h-6.281Z" transform="translate(-475.266 -453.975)" fill="#fff"/>
        <path id="Trazado_189233" data-name="Trazado 189233" d="M538.312,462.822h6.164l-.118,4.474-6.281.007Z" transform="translate(-479.54 -453.975)" fill="#fff"/>
        <path id="Trazado_189234" data-name="Trazado 189234" d="M641.776,462.822H632.53l1,4.474h9.422Z" transform="translate(-509.016 -453.975)" fill="#fff"/>
        <path id="Trazado_189235" data-name="Trazado 189235" d="M625.254,462.822H619.09l.82,4.474h6.281Z" transform="translate(-504.822 -453.975)" fill="#fff"/>
        <path id="Trazado_189236" data-name="Trazado 189236" d="M611.813,462.822h-6.165l.645,4.474,6.283.007Z" transform="translate(-500.627 -453.975)" fill="#fff"/>
        <path id="Trazado_189237" data-name="Trazado 189237" d="M598.373,462.822h-6.164l.468,4.474h6.281Z" transform="translate(-496.433 -453.975)" fill="#fff"/>
        <path id="Trazado_189238" data-name="Trazado 189238" d="M584.932,462.822h-6.164l.293,4.474h6.281Z" transform="translate(-492.239 -453.975)" fill="#fff"/>
        <path id="Trazado_189239" data-name="Trazado 189239" d="M571.492,462.822h-6.165l.118,4.474,6.282.007Z" transform="translate(-488.044 -453.975)" fill="#fff"/>
        <path id="Trazado_189240" data-name="Trazado 189240" d="M551.857,462.822h6.165l.1,4.474h-6.267Z" transform="translate(-483.841 -453.975)" fill="#fff"/>
        <path id="Trazado_189241" data-name="Trazado 189241" d="M462.983,474.173h12.88l-.733,4.615H462Z" transform="translate(-455.801 -457.517)" fill="#fff"/>
        <path id="Trazado_189242" data-name="Trazado 189242" d="M641.671,474.173H625.749l.908,4.615H642.88Z" transform="translate(-506.9 -457.517)" fill="#fff"/>
        <path id="Trazado_189243" data-name="Trazado 189243" d="M618.231,474.173h-6.368l.726,4.615h6.49Z" transform="translate(-502.566 -457.517)" fill="#fff"/>
        <path id="Trazado_189244" data-name="Trazado 189244" d="M604.345,474.173h-6.369l.544,4.615h6.49Z" transform="translate(-498.233 -457.517)" fill="#fff"/>
        <path id="Trazado_189245" data-name="Trazado 189245" d="M590.459,474.173H584.09l.363,4.615h6.489Z" transform="translate(-493.899 -457.517)" fill="#fff"/>
        <path id="Trazado_189246" data-name="Trazado 189246" d="M576.573,474.173H570.2l.181,4.615h6.49Z" transform="translate(-489.566 -457.517)" fill="#fff"/>
        <path id="Trazado_189247" data-name="Trazado 189247" d="M460.085,486.133h13.168l-.961,4.585H458.884Z" transform="translate(-454.827 -461.249)" fill="#fff"/>
        <path id="Trazado_189248" data-name="Trazado 189248" d="M484.148,486.133h6.584l-.78,4.585h-6.7Z" transform="translate(-462.43 -461.249)" fill="#fff"/>
        <path id="Trazado_189249" data-name="Trazado 189249" d="M498.586,486.133h49.377l.184,4.585H497.865Z" transform="translate(-466.991 -461.249)" fill="#fff"/>
        <path id="Trazado_189250" data-name="Trazado 189250" d="M575.479,486.133h6.584l.36,4.585h-6.7Z" transform="translate(-491.212 -461.249)" fill="#fff"/>
        <path id="Trazado_189251" data-name="Trazado 189251" d="M589.836,486.133h6.584l.541,4.585h-6.7Z" transform="translate(-495.692 -461.249)" fill="#fff"/>
        <path id="Trazado_189252" data-name="Trazado 189252" d="M604.191,486.133h6.585l.72,4.585h-6.7Z" transform="translate(-500.172 -461.249)" fill="#fff"/>
        <path id="Trazado_189253" data-name="Trazado 189253" d="M618.548,486.133h6.584l.9,4.585h-6.7Z" transform="translate(-504.652 -461.249)" fill="#fff"/>
        <path id="Trazado_189254" data-name="Trazado 189254" d="M632.9,486.133h13.169l1.2,4.585H633.866Z" transform="translate(-509.133 -461.249)" fill="#fff"/>
        <path id="Trazado_189255" data-name="Trazado 189255" d="M562.729,474.173h-6.317v4.615h6.439Z" transform="translate(-485.262 -457.517)" fill="#fff"/>
        <path id="Trazado_189256" data-name="Trazado 189256" d="M548.738,474.173h-6.369l-.181,4.615h6.489Z" transform="translate(-480.823 -457.517)" fill="#fff"/>
        <path id="Trazado_189257" data-name="Trazado 189257" d="M534.77,474.173H528.4l-.362,4.615h6.49Z" transform="translate(-476.407 -457.517)" fill="#fff"/>
        <path id="Trazado_189258" data-name="Trazado 189258" d="M520.8,474.173h-6.369l-.544,4.615h6.49Z" transform="translate(-471.992 -457.517)" fill="#fff"/>
        <path id="Trazado_189259" data-name="Trazado 189259" d="M506.832,474.173h-6.369l-.725,4.615h6.49Z" transform="translate(-467.576 -457.517)" fill="#fff"/>
        <path id="Trazado_189260" data-name="Trazado 189260" d="M492.864,474.173H486.5l-.906,4.615h6.489Z" transform="translate(-463.16 -457.517)" fill="#fff"/>
        <path id="Trazado_189261" data-name="Trazado 189261" d="M467.807,456.922l1.046-4h2.993l-.977,4Z" transform="translate(-457.611 -450.886)" fill="#fff"/>
        <path id="Trazado_189262" data-name="Trazado 189262" d="M477.6,452.927h5.986l-.837,4h-6.091Z" transform="translate(-460.374 -450.886)" fill="#fff"/>
        <path id="Trazado_189263" data-name="Trazado 189263" d="M490.724,452.927h5.986l-.68,4h-6.091Z" transform="translate(-464.518 -450.886)" fill="#fff"/>
        <path id="Trazado_189264" data-name="Trazado 189264" d="M503.847,452.927h5.985l-.523,4h-6.09Z" transform="translate(-468.662 -450.886)" fill="#fff"/>
        <path id="Trazado_189265" data-name="Trazado 189265" d="M516.97,452.927h5.986l-.367,4H516.5Z" transform="translate(-472.806 -450.886)" fill="#fff"/>
        <path id="Trazado_189266" data-name="Trazado 189266" d="M530.093,452.927h5.985l-.21,4h-6.09Z" transform="translate(-476.95 -450.886)" fill="#fff"/>
        <path id="Trazado_189267" data-name="Trazado 189267" d="M543.215,452.927H549.2l-.052,4h-6.091Z" transform="translate(-481.094 -450.886)" fill="#fff"/>
        <path id="Trazado_189268" data-name="Trazado 189268" d="M556.338,452.927h5.986l.1,4h-6.09Z" transform="translate(-485.239 -450.886)" fill="#fff"/>
        <path id="Trazado_189269" data-name="Trazado 189269" d="M569.39,452.927h5.985l.262,4h-6.09Z" transform="translate(-489.312 -450.886)" fill="#fff"/>
        <path id="Trazado_189270" data-name="Trazado 189270" d="M582.44,452.927h5.987l.418,4h-6.091Z" transform="translate(-493.384 -450.886)" fill="#fff"/>
        <path id="Trazado_189271" data-name="Trazado 189271" d="M595.492,452.927h5.986l.576,4h-6.091Z" transform="translate(-497.457 -450.886)" fill="#fff"/>
        <path id="Trazado_189272" data-name="Trazado 189272" d="M608.544,452.927h5.986l.733,4h-6.091Z" transform="translate(-501.53 -450.886)" fill="#fff"/>
        <path id="Trazado_189273" data-name="Trazado 189273" d="M621.6,452.927h5.986l.889,4H622.38Z" transform="translate(-505.603 -450.886)" fill="#fff"/>
        <path id="Trazado_189274" data-name="Trazado 189274" d="M634.647,452.927h5.985l1.047,4h-6.09Z" transform="translate(-509.676 -450.886)" fill="#fff"/>
        <rect id="Rectángulo_41138" data-name="Rectángulo 41138" width="142.441" height="1.965" transform="translate(0 33.312)" fill="url(#linear-gradient)"/>
      </g>
      <g id="Grupo_128586" data-name="Grupo 128586" transform="translate(508.938 281.56)">
        <rect id="Rectángulo_41139" data-name="Rectángulo 41139" width="19.603" height="47.885" transform="translate(19.603 47.885) rotate(180)" fill="#ffb30c"/>
      </g>
      <g id="Grupo_128588" data-name="Grupo 128588" transform="translate(434.103 190.826)">
        <g id="Grupo_128587" data-name="Grupo 128587">
          <rect id="Rectángulo_41140" data-name="Rectángulo 41140" width="169.276" height="119.416" rx="8.661" transform="translate(169.276 119.416) rotate(180)" fill="#ffb30c"/>
        </g>
      </g>
      <g id="Grupo_128590" data-name="Grupo 128590" transform="translate(440.086 196.676)">
        <g id="Grupo_128589" data-name="Grupo 128589">
          <rect id="Rectángulo_41141" data-name="Rectángulo 41141" width="157.009" height="91.86" transform="translate(157.009 91.86) rotate(180)" fill="#113356"/>
        </g>
      </g>
      <g id="Grupo_128592" data-name="Grupo 128592" transform="translate(513.28 294.631)">
        <g id="Grupo_128591" data-name="Grupo 128591" transform="translate(0)">
          <path id="Trazado_189275" data-name="Trazado 189275" d="M549.2,371.871a5.46,5.46,0,1,0,5.461-5.461A5.46,5.46,0,0,0,549.2,371.871Z" transform="translate(-549.197 -366.41)" fill="#0d8791"/>
        </g>
      </g>
      <rect id="Rectángulo_41142" data-name="Rectángulo 41142" width="88.193" height="4.495" transform="translate(474.644 328.052)" fill="#ffb30c"/>
      <g id="Grupo_128662" data-name="Grupo 128662" transform="translate(446.874 203.709)">
        <g id="Grupo_128593" data-name="Grupo 128593" transform="translate(2.236)">
          <rect id="Rectángulo_41143" data-name="Rectángulo 41143" width="17.584" height="1.8" fill="#e0e0e0"/>
        </g>
        <g id="Grupo_128594" data-name="Grupo 128594" transform="translate(24.741 13.558)">
          <rect id="Rectángulo_41144" data-name="Rectángulo 41144" width="12.696" height="1.8" fill="#e0e0e0"/>
        </g>
        <g id="Grupo_128595" data-name="Grupo 128595" transform="translate(39.416 13.558)">
          <rect id="Rectángulo_41145" data-name="Rectángulo 41145" width="8.425" height="1.8" fill="#0ddcf1"/>
        </g>
        <g id="Grupo_128596" data-name="Grupo 128596" transform="translate(56.629 67.988)">
          <rect id="Rectángulo_41146" data-name="Rectángulo 41146" width="8.424" height="1.8" fill="#0ddcf1"/>
        </g>
        <g id="Grupo_128597" data-name="Grupo 128597" transform="translate(2.435 47.652)">
          <rect id="Rectángulo_41147" data-name="Rectángulo 41147" width="8.425" height="1.8" fill="#0ddcf1"/>
        </g>
        <g id="Grupo_128598" data-name="Grupo 128598" transform="translate(49.506 13.558)">
          <rect id="Rectángulo_41148" data-name="Rectángulo 41148" width="20.341" height="1.8" fill="#e0e0e0"/>
        </g>
        <g id="Grupo_128599" data-name="Grupo 128599" transform="translate(2.435 40.823)">
          <rect id="Rectángulo_41149" data-name="Rectángulo 41149" width="13.071" height="1.8" fill="#e0e0e0"/>
        </g>
        <g id="Grupo_128600" data-name="Grupo 128600" transform="translate(37.557 54.431)">
          <rect id="Rectángulo_41150" data-name="Rectángulo 41150" width="13.071" height="1.8" fill="#e0e0e0"/>
        </g>
        <g id="Grupo_128601" data-name="Grupo 128601" transform="translate(86.382 67.988)">
          <rect id="Rectángulo_41151" data-name="Rectángulo 41151" width="13.071" height="1.8" fill="#e0e0e0"/>
        </g>
        <g id="Grupo_128602" data-name="Grupo 128602" transform="translate(20.656 54.431)">
          <rect id="Rectángulo_41152" data-name="Rectángulo 41152" width="7.98" height="1.8" fill="#e0e0e0"/>
        </g>
        <g id="Grupo_128603" data-name="Grupo 128603" transform="translate(2.435 54.431)">
          <rect id="Rectángulo_41153" data-name="Rectángulo 41153" width="15.81" height="1.8" fill="#0ddcf1"/>
        </g>
        <g id="Grupo_128604" data-name="Grupo 128604" transform="translate(2.435 61.209)">
          <rect id="Rectángulo_41154" data-name="Rectángulo 41154" width="8.719" height="1.8" fill="#e0e0e0"/>
        </g>
        <g id="Grupo_128605" data-name="Grupo 128605" transform="translate(23.241)">
          <rect id="Rectángulo_41155" data-name="Rectángulo 41155" width="12.483" height="1.8" fill="#78c2ff"/>
        </g>
        <g id="Grupo_128606" data-name="Grupo 128606" transform="translate(23.241 20.336)">
          <rect id="Rectángulo_41156" data-name="Rectángulo 41156" width="12.483" height="1.8" fill="#0ddcf1"/>
        </g>
        <g id="Grupo_128607" data-name="Grupo 128607" transform="translate(17 27.116)">
          <rect id="Rectángulo_41157" data-name="Rectángulo 41157" width="5.333" height="1.8" fill="#e0e0e0"/>
        </g>
        <g id="Grupo_128608" data-name="Grupo 128608" transform="translate(11.666 33.994)">
          <rect id="Rectángulo_41158" data-name="Rectángulo 41158" width="11.98" height="1.8" fill="#78c2ff"/>
        </g>
        <g id="Grupo_128609" data-name="Grupo 128609" transform="translate(25.458 33.994)">
          <rect id="Rectángulo_41159" data-name="Rectángulo 41159" width="16.539" height="1.8" fill="#0ddcf1"/>
        </g>
        <g id="Grupo_128610" data-name="Grupo 128610" transform="translate(77.834 61.209)">
          <rect id="Rectángulo_41160" data-name="Rectángulo 41160" width="16.539" height="1.8" fill="#0ddcf1"/>
        </g>
        <g id="Grupo_128611" data-name="Grupo 128611" transform="translate(2.435 27.165)">
          <rect id="Rectángulo_41161" data-name="Rectángulo 41161" width="12.483" height="1.8" fill="#0ddcf1"/>
        </g>
        <g id="Grupo_128612" data-name="Grupo 128612" transform="translate(2.435 33.994)">
          <rect id="Rectángulo_41162" data-name="Rectángulo 41162" width="7.407" height="1.8" fill="#0ddcf1"/>
        </g>
        <g id="Grupo_128613" data-name="Grupo 128613" transform="translate(24.848 27.165)">
          <rect id="Rectángulo_41163" data-name="Rectángulo 41163" width="6.987" height="1.8" fill="#cc8f08"/>
        </g>
        <g id="Grupo_128614" data-name="Grupo 128614" transform="translate(2.644 67.988)">
          <rect id="Rectángulo_41164" data-name="Rectángulo 41164" width="6.989" height="1.8" fill="#cc8f08"/>
        </g>
        <g id="Grupo_128615" data-name="Grupo 128615" transform="translate(2.386 13.558)">
          <rect id="Rectángulo_41165" data-name="Rectángulo 41165" width="12.483" height="1.8" fill="#78c2ff"/>
        </g>
        <g id="Grupo_128616" data-name="Grupo 128616" transform="translate(13.425 47.652)">
          <rect id="Rectángulo_41166" data-name="Rectángulo 41166" width="12.484" height="1.8" fill="#78c2ff"/>
        </g>
        <g id="Grupo_128617" data-name="Grupo 128617" transform="translate(13.579 61.209)">
          <rect id="Rectángulo_41167" data-name="Rectángulo 41167" width="12.484" height="1.8" fill="#78c2ff"/>
        </g>
        <g id="Grupo_128618" data-name="Grupo 128618" transform="translate(35.754 61.209)">
          <rect id="Rectángulo_41168" data-name="Rectángulo 41168" width="12.484" height="1.8" fill="#78c2ff"/>
        </g>
        <g id="Grupo_128619" data-name="Grupo 128619" transform="translate(2.386 20.336)">
          <rect id="Rectángulo_41169" data-name="Rectángulo 41169" width="17.795" height="1.8" fill="#78c2ff"/>
        </g>
        <g id="Grupo_128620" data-name="Grupo 128620" transform="translate(85.773)">
          <rect id="Rectángulo_41170" data-name="Rectángulo 41170" width="12.484" height="1.8" fill="#78c2ff"/>
        </g>
        <g id="Grupo_128621" data-name="Grupo 128621" transform="translate(41.303 67.988)">
          <rect id="Rectángulo_41171" data-name="Rectángulo 41171" width="12.483" height="1.8" fill="#78c2ff"/>
        </g>
        <g id="Grupo_128622" data-name="Grupo 128622" transform="translate(102.14)">
          <rect id="Rectángulo_41172" data-name="Rectángulo 41172" width="8.356" height="1.8" fill="#78c2ff"/>
        </g>
        <g id="Grupo_128623" data-name="Grupo 128623" transform="translate(130.412 6.779)">
          <rect id="Rectángulo_41173" data-name="Rectángulo 41173" width="8.356" height="1.8" fill="#78c2ff"/>
        </g>
        <g id="Grupo_128624" data-name="Grupo 128624" transform="translate(39.085)">
          <rect id="Rectángulo_41174" data-name="Rectángulo 41174" width="15.904" height="1.8" fill="#0ddcf1"/>
        </g>
        <g id="Grupo_128625" data-name="Grupo 128625" transform="translate(102.14 67.988)">
          <rect id="Rectángulo_41175" data-name="Rectángulo 41175" width="15.904" height="1.8" fill="#0ddcf1"/>
        </g>
        <g id="Grupo_128626" data-name="Grupo 128626" transform="translate(12.271 67.988)">
          <rect id="Rectángulo_41176" data-name="Rectángulo 41176" width="15.904" height="1.8" fill="#0ddcf1"/>
        </g>
        <g id="Grupo_128627" data-name="Grupo 128627" transform="translate(101.053 6.779)">
          <rect id="Rectángulo_41177" data-name="Rectángulo 41177" width="15.904" height="1.8" fill="#0ddcf1"/>
        </g>
        <g id="Grupo_128628" data-name="Grupo 128628" transform="translate(81.548 13.558)">
          <rect id="Rectángulo_41178" data-name="Rectángulo 41178" width="15.904" height="1.8" fill="#0ddcf1"/>
        </g>
        <g id="Grupo_128629" data-name="Grupo 128629" transform="translate(67.728 67.988)">
          <rect id="Rectángulo_41179" data-name="Rectángulo 41179" width="15.904" height="1.8" fill="#0ddcf1"/>
        </g>
        <g id="Grupo_128630" data-name="Grupo 128630" transform="translate(65.28 54.431)">
          <rect id="Rectángulo_41180" data-name="Rectángulo 41180" width="15.904" height="1.8" fill="#0ddcf1"/>
        </g>
        <g id="Grupo_128631" data-name="Grupo 128631" transform="translate(60.841 20.336)">
          <rect id="Rectángulo_41181" data-name="Rectángulo 41181" width="15.904" height="1.8" fill="#0ddcf1"/>
        </g>
        <g id="Grupo_128632" data-name="Grupo 128632" transform="translate(31.133 54.431)">
          <rect id="Rectángulo_41182" data-name="Rectángulo 41182" width="3.429" height="1.8" fill="#cc8f08"/>
        </g>
        <g id="Grupo_128633" data-name="Grupo 128633" transform="translate(99.453 13.558)">
          <rect id="Rectángulo_41183" data-name="Rectángulo 41183" width="11.306" height="1.8" fill="#78c2ff"/>
        </g>
        <g id="Grupo_128634" data-name="Grupo 128634" transform="translate(66.753)">
          <rect id="Rectángulo_41184" data-name="Rectángulo 41184" width="15.904" height="1.8" fill="#cc8f08"/>
        </g>
        <g id="Grupo_128635" data-name="Grupo 128635" transform="translate(48.606 20.336)">
          <rect id="Rectángulo_41185" data-name="Rectángulo 41185" width="9.325" height="1.8" fill="#cc8f08"/>
        </g>
        <g id="Grupo_128636" data-name="Grupo 128636" transform="translate(41.303 47.752)">
          <rect id="Rectángulo_41186" data-name="Rectángulo 41186" width="9.325" height="1.8" fill="#cc8f08"/>
        </g>
        <g id="Grupo_128637" data-name="Grupo 128637" transform="translate(57.93)">
          <rect id="Rectángulo_41187" data-name="Rectángulo 41187" width="5.822" height="1.8" fill="#e0e0e0"/>
        </g>
        <g id="Grupo_128638" data-name="Grupo 128638" transform="translate(39.085 20.336)">
          <rect id="Rectángulo_41188" data-name="Rectángulo 41188" width="5.821" height="1.8" fill="#e0e0e0"/>
        </g>
        <g id="Grupo_128639" data-name="Grupo 128639" transform="translate(120.793 6.779)">
          <rect id="Rectángulo_41189" data-name="Rectángulo 41189" width="5.822" height="1.8" fill="#e0e0e0"/>
        </g>
        <g id="Grupo_128640" data-name="Grupo 128640" transform="translate(2.236 6.779)">
          <rect id="Rectángulo_41190" data-name="Rectángulo 41190" width="9.107" height="1.8" fill="#0ddcf1"/>
        </g>
        <g id="Grupo_128641" data-name="Grupo 128641" transform="translate(26.536 40.873)">
          <rect id="Rectángulo_41191" data-name="Rectángulo 41191" width="7.191" height="1.8" fill="#0ddcf1"/>
        </g>
        <g id="Grupo_128642" data-name="Grupo 128642" transform="translate(13.579 6.779)">
          <rect id="Rectángulo_41192" data-name="Rectángulo 41192" width="2.941" height="1.8" fill="#0ddcf1"/>
        </g>
        <g id="Grupo_128643" data-name="Grupo 128643" transform="translate(73.95 6.779)">
          <rect id="Rectángulo_41193" data-name="Rectángulo 41193" width="24.306" height="1.8" fill="#e0e0e0"/>
        </g>
        <g id="Grupo_128644" data-name="Grupo 128644" transform="translate(50.628 61.209)">
          <rect id="Rectángulo_41194" data-name="Rectángulo 41194" width="24.306" height="1.8" fill="#e0e0e0"/>
        </g>
        <g id="Grupo_128645" data-name="Grupo 128645" transform="translate(18.68 6.779)">
          <rect id="Rectángulo_41195" data-name="Rectángulo 41195" width="3.001" height="1.8" fill="#cc8f08"/>
        </g>
        <g id="Grupo_128646" data-name="Grupo 128646" transform="translate(63.752 6.779)">
          <rect id="Rectángulo_41196" data-name="Rectángulo 41196" width="7.952" height="1.8" fill="#0ddcf1"/>
        </g>
        <g id="Grupo_128647" data-name="Grupo 128647" transform="translate(71.704 13.558)">
          <rect id="Rectángulo_41197" data-name="Rectángulo 41197" width="7.953" height="1.8" fill="#cc8f08"/>
        </g>
        <g id="Grupo_128648" data-name="Grupo 128648" transform="translate(53.954 54.431)">
          <rect id="Rectángulo_41198" data-name="Rectángulo 41198" width="7.952" height="1.8" fill="#cc8f08"/>
        </g>
        <g id="Grupo_128649" data-name="Grupo 128649" transform="translate(30.813 67.988)">
          <rect id="Rectángulo_41199" data-name="Rectángulo 41199" width="7.952" height="1.8" fill="#cc8f08"/>
        </g>
        <g id="Grupo_128650" data-name="Grupo 128650" transform="translate(44.726 6.779)">
          <rect id="Rectángulo_41200" data-name="Rectángulo 41200" width="16.921" height="1.8" fill="#0ddcf1"/>
        </g>
        <g id="Grupo_128651" data-name="Grupo 128651" transform="translate(84.095 54.431)">
          <rect id="Rectángulo_41201" data-name="Rectángulo 41201" width="16.92" height="1.8" fill="#0ddcf1"/>
        </g>
        <g id="Grupo_128652" data-name="Grupo 128652" transform="translate(28.978 47.752)">
          <rect id="Rectángulo_41202" data-name="Rectángulo 41202" width="9.885" height="1.8" fill="#0ddcf1"/>
        </g>
        <g id="Grupo_128653" data-name="Grupo 128653" transform="translate(28.342 61.209)">
          <rect id="Rectángulo_41203" data-name="Rectángulo 41203" width="4.943" height="1.8" fill="#0ddcf1"/>
        </g>
        <g id="Grupo_128654" data-name="Grupo 128654" transform="translate(36.504 6.779)">
          <rect id="Rectángulo_41204" data-name="Rectángulo 41204" width="5.822" height="1.8" fill="#78c2ff"/>
        </g>
        <g id="Grupo_128655" data-name="Grupo 128655" transform="translate(96.542 61.209)">
          <rect id="Rectángulo_41205" data-name="Rectángulo 41205" width="5.821" height="1.8" fill="#cc8f08"/>
        </g>
        <g id="Grupo_128656" data-name="Grupo 128656" transform="translate(16.909 13.558)">
          <rect id="Rectángulo_41206" data-name="Rectángulo 41206" width="5.822" height="1.8" fill="#cc8f08"/>
        </g>
        <g id="Grupo_128657" data-name="Grupo 128657" transform="translate(18.07 40.873)">
          <rect id="Rectángulo_41207" data-name="Rectángulo 41207" width="5.822" height="1.8" fill="#cc8f08"/>
        </g>
        <g id="Grupo_128658" data-name="Grupo 128658" transform="translate(24.141 6.779)">
          <rect id="Rectángulo_41208" data-name="Rectángulo 41208" width="10.142" height="1.8" fill="#0ddcf1"/>
        </g>
        <g id="Grupo_128661" data-name="Grupo 128661" transform="translate(0 75.012)">
          <g id="Grupo_128660" data-name="Grupo 128660">
            <g id="Grupo_128659" data-name="Grupo 128659">
              <path id="Trazado_189276" data-name="Trazado 189276" d="M452.676,343.283h-.008C452.7,343.3,452.705,343.3,452.676,343.283Z" transform="translate(-452.668 -343.282)" fill="#323657"/>
            </g>
          </g>
        </g>
      </g>
      <g id="Grupo_128695" data-name="Grupo 128695" transform="translate(569.664 257.718)">
        <path id="Trazado_189277" data-name="Trazado 189277" d="M690.654,344.42s-.389-1.478.026-2.119a6.5,6.5,0,0,0,.72-2c.081-.436.832-1.755.278-1.787s-1.337,2.13-1.591,2.563-.943-1.463-1.365-1.674-3.753,1.524-3.116,2.75,2.21,2.012,2.273,2.255a7.632,7.632,0,0,0,.424.916Z" transform="translate(-648.124 -320.792)" fill="#eea886"/>
        <path id="Trazado_189278" data-name="Trazado 189278" d="M687.847,338.476s-2.225-3.593-2.6-3.683-.583.067-.391.413,2.038,3.548,2.038,3.548-3.431-3.721-3.71-3.863c-.164-.082-.586.2-.5.4s3.241,4.1,3.241,4.1a49.04,49.04,0,0,0-3.491-3.511c-.244-.04-.578.307-.36.582s2.987,3.685,2.987,3.685-2.521-2.357-2.8-2.254c-.171.063-.545.291.127.877s2.089,2.151,2.089,2.151Z" transform="translate(-647.026 -319.623)" fill="#eea886"/>
        <path id="Rectángulo_41209" data-name="Rectángulo 41209" d="M5.162,0H95.9a5.161,5.161,0,0,1,5.161,5.161V16.737A5.161,5.161,0,0,1,95.9,21.9H5.162A5.162,5.162,0,0,1,0,16.736V5.162A5.162,5.162,0,0,1,5.162,0Z" opacity="0.68" fill="url(#linear-gradient-2)"/>
        <g id="Grupo_128677" data-name="Grupo 128677" transform="translate(5.405 6.719)">
          <g id="Grupo_128663" data-name="Grupo 128663">
            <rect id="Rectángulo_41210" data-name="Rectángulo 41210" width="16.365" height="1.675" fill="#e0e0e0"/>
          </g>
          <g id="Grupo_128664" data-name="Grupo 128664" transform="translate(19.549)">
            <rect id="Rectángulo_41211" data-name="Rectángulo 41211" width="11.617" height="1.675" fill="#e0e0e0"/>
          </g>
          <g id="Grupo_128665" data-name="Grupo 128665" transform="translate(19.549 6.308)">
            <rect id="Rectángulo_41212" data-name="Rectángulo 41212" width="10.848" height="1.675" fill="#e0e0e0"/>
          </g>
          <g id="Grupo_128666" data-name="Grupo 128666" transform="translate(77.744)">
            <rect id="Rectángulo_41213" data-name="Rectángulo 41213" width="11.618" height="1.675" fill="#78c2ff"/>
          </g>
          <g id="Grupo_128667" data-name="Grupo 128667" transform="translate(34.294)">
            <rect id="Rectángulo_41214" data-name="Rectángulo 41214" width="14.801" height="1.675" fill="#1487e3"/>
          </g>
          <g id="Grupo_128668" data-name="Grupo 128668" transform="translate(60.042)">
            <rect id="Rectángulo_41215" data-name="Rectángulo 41215" width="14.801" height="1.675" fill="#ffc055"/>
          </g>
          <g id="Grupo_128669" data-name="Grupo 128669" transform="translate(51.832)">
            <rect id="Rectángulo_41216" data-name="Rectángulo 41216" width="5.418" height="1.675" fill="#e0e0e0"/>
          </g>
          <g id="Grupo_128670" data-name="Grupo 128670" transform="translate(0 6.308)">
            <rect id="Rectángulo_41217" data-name="Rectángulo 41217" width="8.476" height="1.675" fill="#78c2ff"/>
          </g>
          <g id="Grupo_128671" data-name="Grupo 128671" transform="translate(10.556 6.308)">
            <rect id="Rectángulo_41218" data-name="Rectángulo 41218" width="2.737" height="1.675" fill="#1487e3"/>
          </g>
          <g id="Grupo_128672" data-name="Grupo 128672" transform="translate(66.741 6.308)">
            <rect id="Rectángulo_41219" data-name="Rectángulo 41219" width="22.621" height="1.675" fill="#e0e0e0"/>
          </g>
          <g id="Grupo_128673" data-name="Grupo 128673" transform="translate(15.304 6.308)">
            <rect id="Rectángulo_41220" data-name="Rectángulo 41220" width="2.793" height="1.675" fill="#ffc455"/>
          </g>
          <g id="Grupo_128674" data-name="Grupo 128674" transform="translate(57.25 6.308)">
            <rect id="Rectángulo_41221" data-name="Rectángulo 41221" width="7.401" height="1.675" fill="#1487e3"/>
          </g>
          <g id="Grupo_128675" data-name="Grupo 128675" transform="translate(39.544 6.308)">
            <rect id="Rectángulo_41222" data-name="Rectángulo 41222" width="15.747" height="1.675" fill="#78c2ff"/>
          </g>
          <g id="Grupo_128676" data-name="Grupo 128676" transform="translate(31.892 6.308)">
            <rect id="Rectángulo_41223" data-name="Rectángulo 41223" width="5.417" height="1.675" fill="#e0e0e0"/>
          </g>
        </g>
        <path id="Trazado_189279" data-name="Trazado 189279" d="M685.463,455.085s-2.138,2.146-3.974,2.376-3.969.922-4.219,2.307,5.443,2.855,7.684,1.772c3.346-1.616,4.318-.973,4.827-1.965s.415-4.411.493-4.739C690.37,454.431,685.463,455.085,685.463,455.085Z" transform="translate(-645.545 -357.051)" fill="#202338"/>
        <path id="Trazado_189280" data-name="Trazado 189280" d="M742.093,445.644s-.62,2.935-1.981,4.061-2.723,2.8-2.214,4.124,5.366,1.169,7.1-2.336c1.1-2.216,2.372-2.6,2.274-3.716s-1.795-3.5-1.9-3.826C745.242,443.552,742.093,445.644,742.093,445.644Z" transform="translate(-664.434 -353.68)" fill="#202338"/>
        <path id="Trazado_189281" data-name="Trazado 189281" d="M702.979,383.93s-7.363,15.25-9.025,19.117a55.42,55.42,0,0,0-3.337,12.536c-.267,3.166-3.3,16.041-3.485,16.966s6.418.37,6.418.37,5.755-21.933,7.278-25.044c1.017-2.075,8.658-15.891,9.333-15.034a95.278,95.278,0,0,1,5.283,13.656c.5,2.477,9.909,20.891,9.909,20.891s4.394-.321,5.258-1.995c0,0-7.018-18.662-7.8-22.059-.4-1.728-1.851-12.617-3.684-20.966C718.187,378.074,702.979,383.93,702.979,383.93Z" transform="translate(-648.624 -333.986)" fill="#113356"/>
        <path id="Trazado_189282" data-name="Trazado 189282" d="M736.059,351.591s-2.532,7.618-2.475,9.431S732.18,352.156,736.059,351.591Z" transform="translate(-663.052 -324.873)" fill="#518afa"/>
        <g id="Grupo_128681" data-name="Grupo 128681" transform="translate(39.876 22.738)">
          <g id="Grupo_128680" data-name="Grupo 128680">
            <g id="Grupo_128679" data-name="Grupo 128679">
              <g id="Grupo_128678" data-name="Grupo 128678">
                <path id="Trazado_189283" data-name="Trazado 189283" d="M704.277,352.6a18.385,18.385,0,0,1-.909,2.318h0a15.02,15.02,0,0,1-.764,1.431c-.051.084-.1.167-.156.25a9.663,9.663,0,0,1-.669.924,4.082,4.082,0,0,1-2.719,1.69c-2.163.16-9.937-11.722-9.937-11.722l3.713-1.687s4.919,7.1,5.683,6.711,1.554-3.274,1.554-3.274c.9-.5,2.283.881,3.213,2.021q.091.111.175.219C703.951,352.1,704.277,352.6,704.277,352.6Z" transform="translate(-689.123 -345.806)" fill="#9e6f08"/>
              </g>
            </g>
          </g>
        </g>
        <g id="Grupo_128686" data-name="Grupo 128686" transform="translate(50.444 17.877)">
          <g id="Grupo_128685" data-name="Grupo 128685">
            <g id="Grupo_128684" data-name="Grupo 128684">
              <g id="Grupo_128683" data-name="Grupo 128683">
                <g id="Grupo_128682" data-name="Grupo 128682">
                  <path id="Trazado_189284" data-name="Trazado 189284" d="M725,370.463c-4.208,3.769-17.651,2.521-17.651,2.521.195-.466,1.557-14.481,1.081-17.649s-.208-5.856-.629-5.979-3.313-1.132-3.313-1.132a54.743,54.743,0,0,1,2.181-5.947c.643-1.059,5.248-2.609,5.248-2.609a18.274,18.274,0,0,1,7.368-.834c6.336.749,7.1,2.614,7.1,2.614l-1.471,9.411,0,.1c-.008.211-.026.739-.052,1.467-.107,3.025-.334,9.5-.365,11.047A65.791,65.791,0,0,0,725,370.463Z" transform="translate(-704.485 -338.74)" fill="#9e6f08"/>
                </g>
              </g>
            </g>
          </g>
        </g>
        <g id="Grupo_128690" data-name="Grupo 128690" transform="translate(58.249 13.187)">
          <g id="Grupo_128689" data-name="Grupo 128689">
            <g id="Grupo_128688" data-name="Grupo 128688">
              <g id="Grupo_128687" data-name="Grupo 128687">
                <path id="Trazado_189285" data-name="Trazado 189285" d="M723.869,336.878a9.359,9.359,0,0,1-.817,1.256,5.6,5.6,0,0,1-4.271,2.459,3.035,3.035,0,0,1-2.54-1.846,4.627,4.627,0,0,1-.409-1.343l.835-.3a3.8,3.8,0,0,0,.123-.846c.011-.18.016-.369.017-.563,0-.167,0-.336-.006-.5,0-.067,0-.134-.005-.2-.026-.71-.081-1.3-.081-1.3s6-3.244,5.512-.956a5.526,5.526,0,0,0-.039,2.472,1.89,1.89,0,0,0,.777,1.262C723.534,336.746,723.869,336.878,723.869,336.878Z" transform="translate(-715.831 -331.921)" fill="#eea987"/>
              </g>
            </g>
          </g>
        </g>
        <path id="Trazado_189286" data-name="Trazado 189286" d="M700.615,344.617a1.205,1.205,0,0,1-.367-.65c-.065-.612.546-1.4-.156-1.953s-3.217,1.139-3.475,1.665.433,1.551,2.051,2.534S700.615,344.617,700.615,344.617Z" transform="translate(-651.569 -321.85)" fill="#eea886"/>
        <path id="Trazado_189287" data-name="Trazado 189287" d="M699.439,340.364a24.47,24.47,0,0,0-1.407-2.406c-.72-1.078-1.733-2.221-2.027-2.025-.4.269.513,1.075,1.15,2.192.588,1.028.288.927.288.927s.087.024-.785-.971c-.938-1.068-2.085-2.2-2.35-1.966-.166.149-.2.151.072.594-.215-.221-.311-.193-.419-.113-.557.416.557,2.2,1,2.911-.344-.543-.658-.9-.834-.44-.2.53,1.5,2.98,2.014,3.917C696.707,344.006,699.439,340.364,699.439,340.364Z" transform="translate(-650.709 -319.98)" fill="#eea886"/>
        <g id="Grupo_128691" data-name="Grupo 128691" transform="translate(45.787 20.142)">
          <path id="Trazado_189288" data-name="Trazado 189288" d="M724.794,349.707c2.719-3.311-.645-7.414-.645-7.414-1.99-1.7-6.344,5.419-6.894,6.115s-4.714,4.419-5.876,5.675c-.593.641-3.086-2.093-4.229-3.184-.687-.654-6.041-6.934-6.041-6.934s-3.685,2.662-3.376,2.437,10.911,13.658,12.88,13.762A34.041,34.041,0,0,0,724.794,349.707Z" transform="translate(-697.715 -342.032)" fill="#9e6f08"/>
        </g>
        <path id="Trazado_189289" data-name="Trazado 189289" d="M707.223,359.378c-.051.084-.1.167-.156.25a9.659,9.659,0,0,1-.669.924,54.185,54.185,0,0,1-2.474-5.045Z" transform="translate(-653.866 -326.095)" fill="#7f4c08"/>
        <path id="Trazado_189290" data-name="Trazado 189290" d="M727.952,357.877a52.939,52.939,0,0,1-5.259,4.187c-1.852,1.13-4.94,2.671-5.285,2.8C717.408,364.868,725.588,363.272,727.952,357.877Z" transform="translate(-658.074 -326.835)" fill="#7f4c08"/>
        <g id="Grupo_128692" data-name="Grupo 128692" transform="translate(54.501 3.63)">
          <path id="Trazado_189291" data-name="Trazado 189291" d="M711.829,320.981s-1.3,2.416-.657,2.792c.534.311-.625,2.682-.777,3.07s.967.668,1.2.918.942,3.318,1.863,3.41,5.072-1.351,6.2-2.526,2.057-6.482,1.3-8.721S714.13,316.761,711.829,320.981Z" transform="translate(-710.382 -318.03)" fill="#eea886"/>
        </g>
        <g id="Grupo_128693" data-name="Grupo 128693" transform="translate(55.323 1.966)">
          <path id="Trazado_189292" data-name="Trazado 189292" d="M711.943,320.75a3.711,3.711,0,0,1,1.085-4.544c2.417-1.936,6.872,1.462,7.375,1.59s3.351.326,1.912,5.328a32.653,32.653,0,0,1-1.407,4.477,11.461,11.461,0,0,0-1.445-2.869,4.992,4.992,0,0,0-2.605-.449s.853-2.263-.48-2.584S713.291,320.249,711.943,320.75Z" transform="translate(-711.578 -315.61)" fill="#252e3b"/>
        </g>
        <g id="Grupo_128694" data-name="Grupo 128694" transform="translate(61.692 8.238)">
          <path id="Trazado_189293" data-name="Trazado 189293" d="M721.167,325.832c.118-.311.5-1.646,1.643-.861s-.713,3.3-.914,3.33S720.178,328.443,721.167,325.832Z" transform="translate(-720.835 -324.727)" fill="#eea886"/>
        </g>
        <path id="Trazado_189294" data-name="Trazado 189294" d="M721.678,333.628s-.976,1.926-4.455,3.162c.011-.18.016-.369.017-.563,0-.167,0-.336-.006-.5A15,15,0,0,0,721.678,333.628Z" transform="translate(-658.016 -319.267)" fill="#a77860"/>
      </g>
      <g id="Grupo_128728" data-name="Grupo 128728" transform="translate(465.491 136.397)">
        <g id="Grupo_128697" data-name="Grupo 128697" transform="translate(34.477 87.187)">
          <g id="Grupo_128696" data-name="Grupo 128696">
            <path id="Trazado_189295" data-name="Trazado 189295" d="M536.1,264.768a19.845,19.845,0,0,0,.616,3.118c.351.955,2.26,3.158,1.453,5.274-.874,2.295-4.69.083-6.247-.618s-1.2-1.97-1.368-3.526-.926-1.6-.645-2.693a13.293,13.293,0,0,1,1.983-3.189Z" transform="translate(-529.846 -263.135)" fill="#768691"/>
          </g>
        </g>
        <g id="Grupo_128699" data-name="Grupo 128699" transform="translate(36.306 86.056)">
          <g id="Grupo_128698" data-name="Grupo 128698">
            <path id="Trazado_189296" data-name="Trazado 189296" d="M533.455,261.49s-.977,1.367-.95,1.4,4.185,2.569,4.475,1.748a8.423,8.423,0,0,0,.325-1.6Z" transform="translate(-532.504 -261.49)" fill="#eea886"/>
          </g>
        </g>
        <g id="Grupo_128700" data-name="Grupo 128700" transform="translate(16.458 90.282)">
          <path id="Trazado_189297" data-name="Trazado 189297" d="M510.355,267.7a15.767,15.767,0,0,0-2.408,2.821c-1.139,1.708-4.163,1.8-4.292,4.132s4.111,2.4,6.337,1.644,2.563-3.037,3.91-3.607,2.045-1.031,1.941-2.143a13.565,13.565,0,0,0-.848-2.916,9.337,9.337,0,0,1-1.328.321A11,11,0,0,1,510.355,267.7Z" transform="translate(-503.653 -267.633)" fill="#768691"/>
        </g>
        <g id="Grupo_128701" data-name="Grupo 128701" transform="translate(22.674 20.351)">
          <path id="Trazado_189298" data-name="Trazado 189298" d="M528.437,172.784s-.854,5.074-1.542,8.426h0a20.117,20.117,0,0,1-.687,2.774,39.02,39.02,0,0,1-3.759,4.165c-3.439,3.541-7.985,8-7.985,8l-1.776-3.372s4.037-4.732,6.773-7.89c1.267-1.461,2.254-2.585,2.436-2.747.572-.511,1.236-5.554,2.168-9.71a16.732,16.732,0,0,1,2.8-6.451Z" transform="translate(-512.689 -165.98)" fill="#ffb30b"/>
        </g>
        <g id="Grupo_128702" data-name="Grupo 128702" transform="translate(22.674 39.259)">
          <path id="Trazado_189299" data-name="Trazado 189299" d="M522.45,196.727c-3.439,3.541-7.985,8-7.985,8l-1.776-3.372s4.037-4.732,6.773-7.89A5.737,5.737,0,0,1,522.45,196.727Z" transform="translate(-512.689 -193.465)" fill="#eea886"/>
        </g>
        <g id="Grupo_128703" data-name="Grupo 128703" transform="translate(23.16 88.797)">
          <path id="Trazado_189300" data-name="Trazado 189300" d="M513.595,265.475l-.2,1.553a7.659,7.659,0,0,0,4.641-.068l.049-1.383Z" transform="translate(-513.396 -265.475)" fill="#eea886"/>
        </g>
        <g id="Grupo_128705" data-name="Grupo 128705" transform="translate(31.317 17.46)">
          <g id="Grupo_128704" data-name="Grupo 128704">
            <path id="Trazado_189301" data-name="Trazado 189301" d="M548.635,194.152c.127.452-23.383,0-23.383,0s6.5-4.733,6.925-6-1.656-8.852-1.926-11.321c-.217-1.975-.761-10.815.541-12.164,1.361-1.412,6.263-2.891,6.263-2.891l7.146.266a11.276,11.276,0,0,1,2.022.638c.844.391,5.665,2.109,6.447,4.517s-4.81,10.154-4.81,10.154-.011.349-.028.918h0c-.021.761-.053,1.917-.082,3.171-.039,1.624-.071,3.411-.071,4.718A46.723,46.723,0,0,0,548.635,194.152Z" transform="translate(-525.252 -161.777)" fill="#113356"/>
          </g>
        </g>
        <g id="Grupo_128706" data-name="Grupo 128706" transform="translate(14.765 48.618)">
          <path id="Trazado_189302" data-name="Trazado 189302" d="M541.127,208.287s3.2,4.7,3.244,7.9-5.675,13.947-6.541,15.483c-2.6,4.619-9.739,14.581-9.739,14.581s-1.23-.032-5.069-1.521c0,0,4.748-13.16,5.35-14.527,2.552-5.794,3.976-9.9,3.118-10.9s-3.2-1.989-3.874-2.577-12.479,2.23-13.716,2.551c-3.2.83-1.743,6.4-1.034,8.9,1.185,4.179,2.221,19.27,2.221,19.27a10.867,10.867,0,0,1-6.1.151s-7.5-27.249-7.742-29.96-.359-7.177,18.127-10.574Z" transform="translate(-501.193 -207.069)" fill="#99b0c1"/>
        </g>
        <g id="Grupo_128707" data-name="Grupo 128707" transform="translate(40.084 1.836)">
          <path id="Trazado_189303" data-name="Trazado 189303" d="M542.992,139.164s-6.2-1.4-4.786,6.408,2.909,8.42,6.651,6.8,3.407-6.617,3.6-9.07S544.972,139.249,542.992,139.164Z" transform="translate(-537.996 -139.067)" fill="#eea886"/>
        </g>
        <g id="Grupo_128708" data-name="Grupo 128708" transform="translate(43.439 9.629)">
          <path id="Trazado_189304" data-name="Trazado 189304" d="M542.873,160.229s2.747,2.913,7.089.266c0,0-.971-6.312-.46-9.386s-5.666,4.763-5.666,4.763c.083.043.135.337.148.754a8.312,8.312,0,0,1-.065,1.251C543.792,158.9,543.474,159.978,542.873,160.229Z" transform="translate(-542.873 -150.394)" fill="#eea886"/>
        </g>
        <g id="Grupo_128709" data-name="Grupo 128709" transform="translate(39.723)">
          <path id="Trazado_189305" data-name="Trazado 189305" d="M547.987,146.479s-.16-2.46-1.058-2.537-1.037.914-1.037.914l-.907.172s.286-2.156-.611-2.533-5.812,1.187-6.532.554-.382-5.006.92-5.6,4.9-1.939,7.534-.156c0,0,2.053-.234,2.358,1.424A22.719,22.719,0,0,1,547.987,146.479Z" transform="translate(-537.471 -136.397)" fill="#3a3f47"/>
        </g>
        <g id="Grupo_128710" data-name="Grupo 128710" transform="translate(44.485 12.991)">
          <path id="Trazado_189306" data-name="Trazado 189306" d="M544.394,159.4c4.48-1.38,4.817-4.077,4.822-4.12-1.474,2.534-4.756,2.869-4.756,2.869A8.3,8.3,0,0,1,544.394,159.4Z" transform="translate(-544.394 -155.281)" fill="#a77860"/>
        </g>
        <g id="Grupo_128711" data-name="Grupo 128711" transform="translate(41.992 17.04)">
          <path id="Trazado_189307" data-name="Trazado 189307" d="M551.14,162.525s-2,2.805-7.3,2.384-2.184-3.261-1.943-3.323C542.162,161.521,547.332,160.232,551.14,162.525Z" transform="translate(-540.77 -161.167)" fill="#eea886"/>
        </g>
        <g id="Grupo_128712" data-name="Grupo 128712" transform="translate(28.627 47.487)">
          <path id="Trazado_189308" data-name="Trazado 189308" d="M521.342,207.442s16.237,2,26.073.332l-18.8-2.349S528.509,205.9,521.342,207.442Z" transform="translate(-521.342 -205.425)" fill="#ffe1a2"/>
        </g>
        <g id="Grupo_128713" data-name="Grupo 128713" transform="translate(39.561 46.747)">
          <path id="Trazado_189309" data-name="Trazado 189309" d="M538.445,204.35l-1.209.613a5.541,5.541,0,0,0,.938,2.5l1.357-.347S539.249,205.012,538.445,204.35Z" transform="translate(-537.236 -204.35)" fill="#eea886"/>
        </g>
        <g id="Grupo_128714" data-name="Grupo 128714" transform="translate(40.77 22.262)">
          <path id="Trazado_189310" data-name="Trazado 189310" d="M557.784,189.309a61.6,61.6,0,0,1-7.04,2.953h0c-4.926,1.9-10.483,3.692-10.483,3.692l-1.266-2.711s5.82-3.162,9.752-5.38c1.857-1.047,3.293-1.884,3.5-2.078.633-.6.8-1.568.331-3.252s-1.536-9.424-1.656-10.328.3-3.312,2.56-3.433a6.775,6.775,0,0,1,3.407.517s.566.236.988,5.716S558.356,188.646,557.784,189.309Z" transform="translate(-538.994 -168.758)" fill="#ffb30b"/>
        </g>
        <g id="Grupo_128715" data-name="Grupo 128715" transform="translate(52.519 27.337)">
          <path id="Trazado_189311" data-name="Trazado 189311" d="M557.45,182.751h0c-.021.761-.053,1.917-.082,3.171a15.841,15.841,0,0,1-.909-9.787C556.22,177.6,557.433,182.678,557.45,182.751Z" transform="translate(-556.073 -176.135)" fill="#ffb30c"/>
        </g>
        <g id="Grupo_128716" data-name="Grupo 128716" transform="translate(35.839 30.048)">
          <path id="Trazado_189312" data-name="Trazado 189312" d="M532.867,185.61h0a20.132,20.132,0,0,1-.687,2.774,28.681,28.681,0,0,1-.076-8.308A46.819,46.819,0,0,0,532.867,185.61Z" transform="translate(-531.826 -180.076)" fill="#ffb30c"/>
        </g>
        <g id="Grupo_128717" data-name="Grupo 128717" transform="translate(40.77 41.367)">
          <path id="Trazado_189313" data-name="Trazado 189313" d="M550.743,200.929h0c-4.926,1.9-10.662,3.751-10.662,3.751l-1.086-2.77s5.82-3.162,9.752-5.38C548.746,196.53,550.176,197.227,550.743,200.929Z" transform="translate(-538.994 -196.53)" fill="#eea886"/>
        </g>
        <g id="Grupo_128719" data-name="Grupo 128719" transform="translate(17.342 49.338)">
          <g id="Grupo_128718" data-name="Grupo 128718">
            <path id="Trazado_189314" data-name="Trazado 189314" d="M528.017,208.456l-23.078-.34,11.652,5.917Z" transform="translate(-504.938 -208.116)" fill="#9e6f08"/>
          </g>
        </g>
        <g id="Grupo_128720" data-name="Grupo 128720" transform="translate(28.091 49.678)">
          <path id="Trazado_189315" data-name="Trazado 189315" d="M521.466,214.187l11.426-4.426V208.61l-12.329,4.448Z" transform="translate(-520.563 -208.61)" fill="#303669"/>
        </g>
        <g id="Grupo_128722" data-name="Grupo 128722" transform="translate(31.779 46.887)">
          <g id="Grupo_128721" data-name="Grupo 128721">
            <path id="Trazado_189316" data-name="Trazado 189316" d="M533.968,205.068s-1.443-.224-2.438-.457a4.993,4.993,0,0,0-3.177.563c-.488.494-2.042,3.943-2.336,4.152s.151.7.667.453c0,0,.474,1.509,1.643.944s1.962-1.8,2.574-2.015,4.177-1.313,4.177-1.313S534.886,204.7,533.968,205.068Z" transform="translate(-525.924 -204.554)" fill="#eea886"/>
          </g>
        </g>
        <g id="Grupo_128724" data-name="Grupo 128724" transform="translate(31.883 47.282)">
          <g id="Grupo_128723" data-name="Grupo 128723">
            <path id="Trazado_189317" data-name="Trazado 189317" d="M528.753,205.128a9.987,9.987,0,0,0-1.168.646c-.241.2-1.222.934-1.459,1.106s.358.664,2.11-.095S528.753,205.128,528.753,205.128Z" transform="translate(-526.076 -205.128)" fill="#eea886"/>
          </g>
        </g>
        <g id="Grupo_128725" data-name="Grupo 128725" transform="translate(0 36.512)">
          <path id="Trazado_189318" data-name="Trazado 189318" d="M508.723,208.215l-6.865-18.743-22.129.361,6.542,17.272Z" transform="translate(-479.73 -189.472)" fill="#9e6f08"/>
        </g>
        <g id="Grupo_128726" data-name="Grupo 128726" transform="translate(11.294 43.058)">
          <path id="Trazado_189319" data-name="Trazado 189319" d="M499.9,200.732c.676,1.35.471,2.82-.456,3.285s-2.225-.255-2.9-1.6-.472-2.821.456-3.284S499.226,199.383,499.9,200.732Z" transform="translate(-496.147 -198.987)" fill="#518afa"/>
        </g>
        <g id="Grupo_128727" data-name="Grupo 128727" transform="translate(48.105 6.816)">
          <path id="Trazado_189320" data-name="Trazado 189320" d="M549.714,146.907a.791.791,0,0,1,1.553.092c.109,1.033-.618,2.845-1.135,2.666S549.6,147.856,549.714,146.907Z" transform="translate(-549.657 -146.305)" fill="#eea886"/>
        </g>
      </g>
    </g>
    <g id="Grupo_128731" data-name="Grupo 128731" transform="translate(208.868 572.06)">
      <path id="Trazado_188354" data-name="Trazado 188354" d="M548.493,187.42l5.632-.618a1.255,1.255,0,0,1,1.181.569q.487.76,1.044,1.49a21.025,21.025,0,0,0,2.222,2.5,1.239,1.239,0,0,1,.3,1.365l-2.175,5.508a1.216,1.216,0,0,0,.6,1.545l4.845,2.417a1.2,1.2,0,0,0,1.543-.423l2.946-4.588a1.208,1.208,0,0,1,1.354-.52,21.908,21.908,0,0,0,6.867.7,1.247,1.247,0,0,1,1.246.869l.985,3.168a1.259,1.259,0,0,0,1.429.854l5.272-1.051a1.086,1.086,0,0,0,.3-.1,1.21,1.21,0,0,0,.678-1.233l-.458-4.208-.113-1.026a21.663,21.663,0,0,0,2.56-1.68,21.981,21.981,0,0,0,3.006-2.768,1.207,1.207,0,0,1,1.349-.321l4.435,1.757a1.252,1.252,0,0,0,1.582-.608l1.848-3.7.527-1.063a1.269,1.269,0,0,0-.446-1.635l-3.832-2.465a1.205,1.205,0,0,1-.537-1.316,21.768,21.768,0,0,0,.6-4.609c.014-.135.012-.259.013-.391a.658.658,0,0,1,.009-.131,1.236,1.236,0,0,1,.874-1.056l5.14-1.611a.927.927,0,0,0,.168-.066,1.256,1.256,0,0,0,.681-1.36l-1.039-5.257a1.251,1.251,0,0,0-1.361-1l-5.874.648a1.208,1.208,0,0,1-1.211-.639,22.081,22.081,0,0,0-1.831-2.818q-.552-.723-1.151-1.386a1.274,1.274,0,0,1-.236-1.32l2.089-5.295a1.215,1.215,0,0,0-.587-1.535l-4.8-2.383a1.269,1.269,0,0,0-1.639.45l-2.333,3.63a1.248,1.248,0,0,1-1.454.511,21.843,21.843,0,0,0-6.622-1.209,1.241,1.241,0,0,1-1.166-.876L571.5,148.5a1.282,1.282,0,0,0-1.466-.872L564.8,148.66a1.226,1.226,0,0,0-.984,1.34l.025.246.533,4.889a1.253,1.253,0,0,1-.681,1.258l0,0a21.689,21.689,0,0,0-3.254,2.055c-.555.423-1.078.869-1.587,1.334a1.231,1.231,0,0,1-1.3.249l-4.5-1.784a1.272,1.272,0,0,0-1.609.613l-2.377,4.775a1.4,1.4,0,0,0-.123.42,1.267,1.267,0,0,0,.564,1.188l3.067,1.961a1.265,1.265,0,0,1,.57,1.1,1.349,1.349,0,0,1-.064.344,21.753,21.753,0,0,0-1.13,8.53,1.224,1.224,0,0,1-.661,1.173,1.265,1.265,0,0,1-.2.08l-4.163,1.3a1.245,1.245,0,0,0-.849,1.425l.023.122,1.009,5.125A1.268,1.268,0,0,0,548.493,187.42Zm36.07-15.888a14.57,14.57,0,0,1,.758,2.6,11.444,11.444,0,0,1-.832,6.179c-.085.174-.174.342-.263.511-5.539,10.213-19.975,8.137-22.321-3.41a11.851,11.851,0,0,1,.439-5.389,7.607,7.607,0,0,1,.434-1.062,13.433,13.433,0,0,1,2.7-3.692A11.737,11.737,0,0,1,584.563,171.532Z" transform="translate(-546.056 -147.604)" fill="#a9c2ff"/>
    </g>
    <g id="Grupo_128732" data-name="Grupo 128732" transform="translate(495 452.06)">
      <path id="Trazado_188354-2" data-name="Trazado 188354" d="M548.493,187.42l5.632-.618a1.255,1.255,0,0,1,1.181.569q.487.76,1.044,1.49a21.025,21.025,0,0,0,2.222,2.5,1.239,1.239,0,0,1,.3,1.365l-2.175,5.508a1.216,1.216,0,0,0,.6,1.545l4.845,2.417a1.2,1.2,0,0,0,1.543-.423l2.946-4.588a1.208,1.208,0,0,1,1.354-.52,21.908,21.908,0,0,0,6.867.7,1.247,1.247,0,0,1,1.246.869l.985,3.168a1.259,1.259,0,0,0,1.429.854l5.272-1.051a1.086,1.086,0,0,0,.3-.1,1.21,1.21,0,0,0,.678-1.233l-.458-4.208-.113-1.026a21.663,21.663,0,0,0,2.56-1.68,21.981,21.981,0,0,0,3.006-2.768,1.207,1.207,0,0,1,1.349-.321l4.435,1.757a1.252,1.252,0,0,0,1.582-.608l1.848-3.7.527-1.063a1.269,1.269,0,0,0-.446-1.635l-3.832-2.465a1.205,1.205,0,0,1-.537-1.316,21.768,21.768,0,0,0,.6-4.609c.014-.135.012-.259.013-.391a.658.658,0,0,1,.009-.131,1.236,1.236,0,0,1,.874-1.056l5.14-1.611a.927.927,0,0,0,.168-.066,1.256,1.256,0,0,0,.681-1.36l-1.039-5.257a1.251,1.251,0,0,0-1.361-1l-5.874.648a1.208,1.208,0,0,1-1.211-.639,22.081,22.081,0,0,0-1.831-2.818q-.552-.723-1.151-1.386a1.274,1.274,0,0,1-.236-1.32l2.089-5.295a1.215,1.215,0,0,0-.587-1.535l-4.8-2.383a1.269,1.269,0,0,0-1.639.45l-2.333,3.63a1.248,1.248,0,0,1-1.454.511,21.843,21.843,0,0,0-6.622-1.209,1.241,1.241,0,0,1-1.166-.876L571.5,148.5a1.282,1.282,0,0,0-1.466-.872L564.8,148.66a1.226,1.226,0,0,0-.984,1.34l.025.246.533,4.889a1.253,1.253,0,0,1-.681,1.258l0,0a21.689,21.689,0,0,0-3.254,2.055c-.555.423-1.078.869-1.587,1.334a1.231,1.231,0,0,1-1.3.249l-4.5-1.784a1.272,1.272,0,0,0-1.609.613l-2.377,4.775a1.4,1.4,0,0,0-.123.42,1.267,1.267,0,0,0,.564,1.188l3.067,1.961a1.265,1.265,0,0,1,.57,1.1,1.349,1.349,0,0,1-.064.344,21.753,21.753,0,0,0-1.13,8.53,1.224,1.224,0,0,1-.661,1.173,1.265,1.265,0,0,1-.2.08l-4.163,1.3a1.245,1.245,0,0,0-.849,1.425l.023.122,1.009,5.125A1.268,1.268,0,0,0,548.493,187.42Zm36.07-15.888a14.57,14.57,0,0,1,.758,2.6,11.444,11.444,0,0,1-.832,6.179c-.085.174-.174.342-.263.511-5.539,10.213-19.975,8.137-22.321-3.41a11.851,11.851,0,0,1,.439-5.389,7.607,7.607,0,0,1,.434-1.062,13.433,13.433,0,0,1,2.7-3.692A11.737,11.737,0,0,1,584.563,171.532Z" transform="translate(-546.056 -147.604)" fill="#a9c2ff"/>
    </g>
  </g>
</svg>
